0
SECTION
2
HEADER
9
$INSUNITS
70
4
9
$ACADVER
1
AC1014
9
$HANDSEED
5
FFFF
0
ENDSEC
0
SECTION
2
TABLES
0
TABLE
2
VPORT
5
8
100
AcDbSymbolTable
0
ENDTAB
0
TABLE
2
LTYPE
5
5
100
AcDbSymbolTable
0
LTYPE
5
14
100
AcDbSymbolTableRecord
100
AcDbLinetypeTableRecord
2
BYBLOCK
70
0
0
LTYPE
5
15
100
AcDbSymbolTableRecord
100
AcDbLinetypeTableRecord
2
BYLAYER
70
0
0
ENDTAB
0
TABLE
2
LAYER
5
2
100
AcDbSymbolTable
70
2
0
LAYER
5
50
100
AcDbSymbolTableRecord
100
AcDbLayerTableRecord
2
0
70
0
6
CONTINUOUS
0
ENDTAB
0
TABLE
2
STYLE
5
3
100
AcDbSymbolTable
70
1
0
STYLE
5
11
100
AcDbSymbolTableRecord
100
AcDbTextStyleTableRecord
2
STANDARD
70
0
0
ENDTAB
0
TABLE
2
VIEW
5
6
100
AcDbSymbolTable
70
0
0
ENDTAB
0
TABLE
2
UCS
5
7
100
AcDbSymbolTable
70
0
0
ENDTAB
0
TABLE
2
APPID
5
9
100
AcDbSymbolTable
70
2
0
APPID
5
12
100
AcDbSymbolTableRecord
100
AcDbRegAppTableRecord
2
ACAD
70
0
0
ENDTAB
0
TABLE
2
DIMSTYLE
5
A
100
AcDbSymbolTable
70
1
0
ENDTAB
0
TABLE
2
BLOCK_RECORD
5
1
100
AcDbSymbolTable
70
1
0
BLOCK_RECORD
5
1F
100
AcDbSymbolTableRecord
100
AcDbBlockTableRecord
2
*MODEL_SPACE
0
BLOCK_RECORD
5
1B
100
AcDbSymbolTableRecord
100
AcDbBlockTableRecord
2
*PAPER_SPACE
0
ENDTAB
0
ENDSEC
0
SECTION
2
BLOCKS
0
BLOCK
5
20
100
AcDbEntity
100
AcDbBlockBegin
2
*MODEL_SPACE
0
ENDBLK
5
21
100
AcDbEntity
100
AcDbBlockEnd
0
BLOCK
5
1C
100
AcDbEntity
100
AcDbBlockBegin
2
*PAPER_SPACE
0
ENDBLK
5
1D
100
AcDbEntity
100
AcDbBlockEnd
0
ENDSEC
0
SECTION
2
ENTITIES
0
LWPOLYLINE
5
100
100
AcDbEntity
8
0
100
AcDbPolyline
90
8
70
1
43
0.0
10
-341.60575
20
56.125000000000007
10
-341.60575000000006
20
41.125000000000007
42
0.41421356237309503
10
-341.10574999999994
20
40.625000000000007
10
-335.10575000000006
20
40.625000000000007
42
0.41421356237309503
10
-334.60575
20
41.125000000000007
10
-334.60575000000006
20
56.125000000000007
42
0.4142135623730222
10
-335.10575000000006
20
56.624999999999979
10
-341.10575000000006
20
56.625000000000007
42
0.41421356237318868
0
LWPOLYLINE
5
101
100
AcDbEntity
8
0
100
AcDbPolyline
90
8
70
1
43
0.0
10
-365.48174999999992
20
56.125000000000007
10
-365.48175000000003
20
41.125000000000007
42
0.41421356237309503
10
-364.98175000000003
20
40.625000000000007
10
-358.98174999999992
20
40.625000000000007
42
0.41421356237309503
10
-358.48174999999998
20
41.125000000000007
10
-358.48175000000003
20
56.125000000000007
42
0.4142135623730222
10
-358.98175000000003
20
56.624999999999979
10
-364.98174999999998
20
56.625000000000007
42
0.41421356237318868
0
LWPOLYLINE
5
102
100
AcDbEntity
8
0
100
AcDbPolyline
90
58
70
1
43
0.0
10
-375.47500000000002
20
9.6250000000000036
10
-375.47500000000002
20
85.625
42
-0.4142135623730846
10
-373.47500000000014
20
87.625
42
0.41421356237309503
10
-371.47500000000002
20
89.624999999999986
10
-371.47500000000002
20
93.250000000000014
42
-0.41421356237308721
10
-369.47499999999997
20
95.25
10
-365.48000011920931
20
95.25
42
0.41421356237309503
10
-363.48000011920931
20
97.25
42
-0.41421356237310802
10
-361.48000011920931
20
99.249999999999986
10
-265.48000011920931
20
99.249999999999986
42
-0.41421356237309503
10
-263.48000011920931
20
97.25
42
0.41421356237309503
10
-261.48000011920931
20
95.25
10
-237.7400001192093
20
95.25
42
0.41421356237309503
10
-235.74000011920924
20
97.25
42
-0.41421356237309764
10
-233.74000011920927
20
99.249999999999986
10
-137.7400001192093
20
99.249999999999986
42
-0.41421356237309503
10
-135.7400001192093
20
97.25
42
0.41421356237309503
10
-133.7400001192093
20
95.25
10
-110.00000011920929
20
95.25
42
0.41421356237309503
10
-108.00000011920928
20
97.25
42
-0.41421357110200308
10
-106.00000011920929
20
99.250000059604645
10
-10.000000119209291
20
99.250000059604645
42
-0.41421356237309537
10
-8.0000001192092896
20
97.250000059604659
42
0.41421357110199525
10
-6.0000001192092896
20
95.25
10
-2.0000000000000009
20
95.25
42
-0.41421356237309548
10
0
20
93.250000000000014
10
0
20
90.347099475202839
42
0.41421356237309503
10
2
20
88.347099475202839
10
2.0143335362058186
20
88.347099475202839
42
-0.41421356237309548
10
4.0143335362058199
20
86.347099475202853
10
4.0143335362058217
20
10.347099475202848
42
-0.41421356237309503
10
2.0143335362058199
20
8.347099475202846
10
2.0000000000000009
20
8.347099475202846
42
0.41421356237309509
10
0
20
6.347099475202846
10
7.4940054162198066e-15
20
2.0000000000000009
42
-0.41421356237309498
10
-1.9999999999999929
20
0
10
-6.0000001192092967
20
0
42
0.41421356237309503
10
-8.0000001192092896
20
-1.9999999999999998
42
-0.41421356237309198
10
-10.000000119209282
20
-3.9999999999999858
10
-106.00000011920929
20
-3.9999999999999813
42
-0.41421356237309542
10
-108.00000011920929
20
-1.9999999999999862
42
0.41421356237309304
10
-110.00000011920929
20
0
10
-133.7400001192093
20
0
42
0.41421356237309293
10
-135.7400001192093
20
-1.9999999999999858
42
-0.41421356237309553
10
-137.7400001192093
20
-3.9999999999999862
10
-233.7400001192093
20
-3.9999999999999747
42
-0.4142135623730942
10
-235.7400001192093
20
-1.9999999999999873
42
0.4142135623730932
10
-237.7400001192093
20
0
10
-261.48000011920931
20
-5.5511151231257827e-16
42
0.41421356237309315
10
-263.48000011920936
20
-1.9999999999999867
42
-0.41421356237309681
10
-265.48000011920931
20
-3.9999999999999876
10
-361.48000011920931
20
-3.9999999999999436
42
-0.4142135623731053
10
-363.48000011920931
20
-1.9999999999999873
42
0.4142135623730932
10
-365.48000011920931
20
0
10
-369.47499999999997
20
-2.581268532253489e-14
42
-0.41421356237307411
10
-371.47500000000002
20
2.0000000000000018
10
-371.47500000000002
20
5.625
42
0.41421356237309503
10
-373.47500000000002
20
7.6249999999999645
42
-0.41421356237306545
0
LWPOLYLINE
5
103
100
AcDbEntity
8
0
100
AcDbPolyline
90
8
70
1
43
0.0
10
-343.04374999999999
20
41.125
10
-343.04374999999999
20
54.125000000000007
42
0.4142135623730222
10
-343.54374999999999
20
54.624999999999979
10
-356.54375000000005
20
54.625
42
0.41421356237311585
10
-357.04374999999999
20
54.125000000000007
10
-357.04374999999999
20
41.125
42
0.4142135623730222
10
-356.54375000000005
20
40.625000000000028
10
-343.54374999999999
20
40.625
42
0.41421356237319906
0
LWPOLYLINE
5
104
100
AcDbEntity
8
0
100
AcDbPolyline
90
8
70
1
43
0.0
10
-270.19375000000002
20
94.224999999999994
10
-270.19375000000002
20
79.225000000000009
42
0.41421356237309503
10
-269.69375000000002
20
78.725000000000009
10
-263.69375000000002
20
78.725000000000009
42
0.41421356237309503
10
-263.19375000000002
20
79.225000000000009
10
-263.19375000000002
20
94.224999999999994
42
0.41421356237310542
10
-263.69375000000002
20
94.724999999999994
10
-269.69375000000002
20
94.724999999999994
42
0.41421356237313667
0
LWPOLYLINE
5
105
100
AcDbEntity
8
0
100
AcDbPolyline
90
8
70
1
43
0.0
10
-174.95000000000002
20
94.224999999999994
10
-174.95000000000002
20
79.225000000000009
42
0.41421356237309503
10
-174.44999999999999
20
78.725000000000009
10
-163.69375000000002
20
78.725000000000009
42
0.41421356237309503
10
-163.19375000000002
20
79.225000000000009
10
-163.19375000000002
20
94.224999999999994
42
0.41421356237313667
10
-163.69375000000002
20
94.724999999999994
10
-174.44999999999999
20
94.724999999999994
42
0.41421356237310542
0
LWPOLYLINE
5
106
100
AcDbEntity
8
0
100
AcDbPolyline
90
8
70
1
43
0.0
10
-368.44999999999999
20
59.675000000000004
10
-303.06225000000006
20
59.674999999999997
42
0.41421356237309503
10
-302.56225000000006
20
60.174999999999997
10
-302.56225000000006
20
75.174999999999997
42
0.41421356237309503
10
-303.06225000000006
20
75.674999999999997
10
-368.45000000000005
20
75.674999999999997
42
0.41421356237309503
10
-368.95000000000005
20
75.174999999999997
10
-368.94999999999993
20
60.174999999999997
42
0.4142135623730222
0
LWPOLYLINE
5
107
100
AcDbEntity
8
0
100
AcDbPolyline
90
24
70
1
43
0.0
10
-72.588000000000008
20
93.225000000000023
42
-0.41421356237310542
10
-73.087999999999994
20
92.725000000000009
10
-73.174999999999997
20
92.725000000000009
42
0.41421356237309503
10
-73.675000000000011
20
92.224999999999994
10
-73.674999999999997
20
79.224999999999994
42
0.41421356237309503
10
-73.174999999999997
20
78.724999999999994
10
-41.125
20
78.724999999999994
42
0.41421356237309503
10
-40.625
20
79.224999999999994
10
-40.625
20
92.224999999999994
42
0.41421356237308982
10
-41.125
20
92.725000000000009
10
-41.21200000000001
20
92.725000000000009
42
-0.41421356237308982
10
-41.712000000000018
20
93.225000000000023
10
-41.712000000000003
20
94.224999999999994
42
0.41421356237308982
10
-42.212000000000003
20
94.724999999999994
10
-48.21200000000001
20
94.724999999999994
42
0.41421356237310025
10
-48.712000000000018
20
94.224999999999994
10
-48.712000000000003
20
93.224999999999994
42
-0.41421356237307422
10
-49.212000000000003
20
92.724999999999994
10
-65.088000000000022
20
92.724999999999994
42
-0.414213562373069
10
-65.588000000000022
20
93.224999999999994
10
-65.588000000000022
20
94.224999999999994
42
0.41421356237308982
10
-66.088000000000008
20
94.724999999999994
10
-72.088000000000008
20
94.724999999999994
42
0.41421356237309503
10
-72.588000000000008
20
94.224999999999994
0
LWPOLYLINE
5
108
100
AcDbEntity
8
0
100
AcDbPolyline
90
8
70
1
43
0.0
10
-21.574999999999996
20
79.224999999999994
42
-0.41421356237309764
10
-22.074999999999999
20
78.724999999999994
10
-35.075000000000003
20
78.725000000000009
42
-0.41421356237309764
10
-35.575000000000003
20
79.224999999999994
10
-35.575000000000003
20
92.224999999999994
42
-0.41421356237309243
10
-35.075000000000003
20
92.725000000000009
10
-22.074999999999999
20
92.725000000000009
42
-0.41421356237310802
10
-21.575000000000003
20
92.224999999999994
0
LWPOLYLINE
5
109
100
AcDbEntity
8
0
100
AcDbPolyline
90
24
70
1
43
0.0
10
-2.5250000000000012
20
60.262000000000015
42
-0.41421356237309731
10
-2.024999999999999
20
60.762000000000008
10
-1.0250000000000004
20
60.762000000000008
42
0.41421356237309698
10
-0.52500000000000169
20
61.262000000000008
10
-0.52500000000000002
20
67.262
42
0.41421356237309687
10
-1.0250000000000004
20
67.762
10
-2.024999999999999
20
67.762
42
-0.41421356237309731
10
-2.5250000000000128
20
68.262
10
-2.5249999999999884
20
84.137999999999977
42
-0.41421356237310564
10
-2.024999999999999
20
84.637999999999991
10
-1.0250000000000004
20
84.637999999999991
42
0.41421356237309459
10
-0.52499999999999281
20
85.138000000000005
10
-0.52499999999999991
20
91.137999999999991
42
0.41421356237307433
10
-1.0250000000000004
20
91.638000000000005
10
-2.024999999999999
20
91.637999999999963
42
-0.41421356237310564
10
-2.5250000000000128
20
92.137999999999991
10
-2.5249999999999999
20
92.224999999999994
42
0.41421356237310542
10
-3.0249999999999999
20
92.725000000000009
10
-16.024999999999999
20
92.725000000000009
42
0.41421356237309631
10
-16.525000000000006
20
92.224999999999994
10
-16.525000000000002
20
60.174999999999997
42
0.41421356237309631
10
-16.024999999999999
20
59.675000000000004
10
-3.0249999999999999
20
59.675000000000004
42
0.41421356237309698
10
-2.5250000000000017
20
60.174999999999997
0
LWPOLYLINE
5
110
100
AcDbEntity
8
0
100
AcDbPolyline
90
8
70
1
43
0.0
10
-368.44999999999999
20
78.724999999999994
10
-298.30000000000001
20
78.724999999999994
42
0.41421356237307422
10
-297.80000000000001
20
79.224999999999994
10
-297.80000000000001
20
92.224999999999994
42
0.41421356237313667
10
-298.30000000000001
20
92.725000000000009
10
-368.44999999999999
20
92.725000000000009
42
0.41421356237312623
10
-368.94999999999993
20
92.224999999999994
10
-368.94999999999993
20
79.224999999999994
42
0.4142135623730222
0
LWPOLYLINE
5
111
100
AcDbEntity
8
0
100
AcDbPolyline
90
8
70
1
43
0.0
10
-220.8125
20
59.674999999999997
10
-207.8125
20
59.675000000000004
42
0.4142135623730222
10
-207.3125
20
60.174999999999997
10
-207.3125
20
73.174999999999997
42
0.41421356237312101
10
-207.8125
20
73.675000000000011
10
-220.8125
20
73.674999999999997
42
0.41421356237307422
10
-221.3125
20
73.174999999999997
10
-221.3125
20
60.174999999999997
42
0.41421356237313667
0
LWPOLYLINE
5
112
100
AcDbEntity
8
0
100
AcDbPolyline
90
8
70
1
43
0.0
10
-201.76249999999999
20
59.674999999999997
10
-188.76249999999999
20
59.675000000000004
42
0.4142135623730222
10
-188.26249999999999
20
60.174999999999997
10
-188.26249999999999
20
73.174999999999997
42
0.41421356237312101
10
-188.76249999999999
20
73.675000000000011
10
-201.76249999999999
20
73.674999999999997
42
0.41421356237307422
10
-202.26249999999999
20
73.174999999999997
10
-202.26249999999999
20
60.174999999999997
42
0.41421356237313667
0
LWPOLYLINE
5
113
100
AcDbEntity
8
0
100
AcDbPolyline
90
8
70
1
43
0.0
10
-182.71250000000003
20
59.674999999999997
10
-169.71250000000001
20
59.675000000000004
42
0.41421356237307422
10
-169.21250000000001
20
60.174999999999997
10
-169.21250000000001
20
73.174999999999997
42
0.41421356237313145
10
-169.71250000000001
20
73.675000000000011
10
-182.71250000000003
20
73.674999999999997
42
0.4142135623730222
10
-183.21250000000003
20
73.174999999999997
10
-183.21250000000003
20
60.174999999999997
42
0.41421356237312623
0
LWPOLYLINE
5
114
100
AcDbEntity
8
0
100
AcDbPolyline
90
8
70
1
43
0.0
10
-163.66250000000002
20
59.674999999999997
10
-150.66249999999999
20
59.675000000000004
42
0.41421356237310542
10
-150.16249999999999
20
60.174999999999997
10
-150.16249999999999
20
73.174999999999997
42
0.41421356237309503
10
-150.66249999999999
20
73.675000000000011
10
-163.66250000000002
20
73.674999999999997
42
0.4142135623730222
10
-164.16250000000002
20
73.174999999999997
10
-164.16250000000002
20
60.174999999999997
42
0.41421356237312623
0
LWPOLYLINE
5
115
100
AcDbEntity
8
0
100
AcDbPolyline
90
8
70
1
43
0.0
10
-73.674999999999997
20
73.174999999999997
10
-73.674999999999997
20
60.174999999999997
42
0.41421356237309503
10
-73.174999999999997
20
59.675000000000004
10
-60.174999999999997
20
59.675000000000004
42
0.41421356237310542
10
-59.675000000000004
20
60.174999999999997
10
-59.675000000000004
20
73.174999999999997
42
0.41421356237309503
10
-60.174999999999997
20
73.674999999999997
10
-73.174999999999997
20
73.674999999999997
42
0.41421356237309503
0
LWPOLYLINE
5
116
100
AcDbEntity
8
0
100
AcDbPolyline
90
8
70
1
43
0.0
10
-307.03750000000002
20
54.125000000000007
10
-307.03750000000002
20
41.125
42
0.41421356237312101
10
-306.53750000000002
20
40.624999999999993
10
-293.53750000000002
20
40.625
42
0.4142135623730222
10
-293.03750000000002
20
41.125
10
-293.03750000000002
20
54.125000000000007
42
0.41421356237312101
10
-293.53750000000002
20
54.625
10
-306.53750000000002
20
54.625
42
0.4142135623730222
0
LWPOLYLINE
5
117
100
AcDbEntity
8
0
100
AcDbPolyline
90
8
70
1
43
0.0
10
-249.38749999999999
20
40.625
10
-236.38750000000002
20
40.625
42
0.4142135623730222
10
-235.88750000000002
20
41.125
10
-235.88750000000002
20
54.125000000000007
42
0.41421356237312101
10
-236.38750000000002
20
54.625
10
-249.38749999999999
20
54.625
42
0.4142135623730222
10
-249.88749999999999
20
54.125000000000007
10
-249.88749999999999
20
41.125
42
0.41421356237312101
0
LWPOLYLINE
5
118
100
AcDbEntity
8
0
100
AcDbPolyline
90
8
70
1
43
0.0
10
-230.33750000000001
20
40.624999999999993
10
-217.33750000000001
20
40.625
42
0.4142135623730222
10
-216.83750000000001
20
41.125
10
-216.83750000000001
20
54.125000000000007
42
0.41421356237312101
10
-217.33750000000001
20
54.625000000000014
10
-230.33750000000001
20
54.625
42
0.41421356237307422
10
-230.83750000000003
20
54.125000000000007
10
-230.83750000000003
20
41.125
42
0.41421356237313145
0
LWPOLYLINE
5
119
100
AcDbEntity
8
0
100
AcDbPolyline
90
8
70
1
43
0.0
10
-268.9375
20
54.125000000000007
10
-268.9375
20
41.125
42
0.41421356237312101
10
-268.4375
20
40.625
10
-255.43750000000003
20
40.625
42
0.4142135623730222
10
-254.93750000000003
20
41.125
10
-254.93750000000003
20
54.125000000000007
42
0.41421356237312101
10
-255.43750000000003
20
54.625000000000014
10
-268.4375
20
54.625
42
0.4142135623730222
0
LWPOLYLINE
5
120
100
AcDbEntity
8
0
100
AcDbPolyline
90
8
70
1
43
0.0
10
-325.58749999999998
20
40.625000000000028
10
-312.58749999999998
20
40.625
42
0.4142135623730222
10
-312.08749999999998
20
41.125
10
-312.08749999999998
20
54.125000000000007
42
0.41421356237312101
10
-312.58749999999998
20
54.625000000000014
10
-325.58749999999998
20
54.625
42
0.41421356237319906
10
-326.08749999999992
20
54.125000000000007
10
-326.08749999999992
20
41.125
42
0.4142135623730222
0
LWPOLYLINE
5
121
100
AcDbEntity
8
0
100
AcDbPolyline
90
8
70
1
43
0.0
10
-287.48750000000001
20
40.624999999999993
10
-274.48750000000007
20
40.625
42
0.4142135623730222
10
-273.98750000000001
20
41.125
10
-273.98750000000001
20
54.125000000000007
42
0.41421356237312101
10
-274.48750000000007
20
54.625
10
-287.48750000000001
20
54.625
42
0.4142135623730222
10
-287.98750000000001
20
54.125000000000007
10
-287.98750000000001
20
41.125
42
0.41421356237312101
0
LWPOLYLINE
5
122
100
AcDbEntity
8
0
100
AcDbPolyline
90
8
70
1
43
0.0
10
-173.1875
20
40.624999999999993
10
-160.1875
20
40.625
42
0.41421356237308982
10
-159.6875
20
41.125
10
-159.6875
20
54.125000000000007
42
0.41421356237309503
10
-160.1875
20
54.625
10
-173.1875
20
54.625
42
0.4142135623730222
10
-173.68750000000003
20
54.125000000000007
10
-173.68750000000003
20
41.125
42
0.41421356237312101
0
LWPOLYLINE
5
123
100
AcDbEntity
8
0
100
AcDbPolyline
90
8
70
1
43
0.0
10
-114.49375000000002
20
40.625
10
-113.49375000000002
20
40.625
42
0.41421356237308982
10
-112.99375000000001
20
41.125
10
-112.99375000000001
20
54.125000000000007
42
0.41421356237309503
10
-113.49375000000002
20
54.625
10
-114.49375000000002
20
54.625
42
0.41421356237310025
10
-114.99375000000002
20
54.125000000000007
10
-114.99375000000002
20
41.125
42
0.41421356237307422
0
LWPOLYLINE
5
124
100
AcDbEntity
8
0
100
AcDbPolyline
90
8
70
1
43
0.0
10
-91.293750000000017
20
40.624999999999993
10
-90.293750000000003
20
40.625
42
0.41421356237310025
10
-89.793749999999989
20
41.125
10
-89.793749999999989
20
54.125000000000007
42
0.41421356237307422
10
-90.293750000000003
20
54.625000000000014
10
-91.293750000000017
20
54.625
42
0.41421356237310025
10
-91.793750000000003
20
54.125000000000007
10
-91.793750000000017
20
41.125
42
0.41421356237307422
0
LWPOLYLINE
5
125
100
AcDbEntity
8
0
100
AcDbPolyline
90
8
70
1
43
0.0
10
-154.13749999999999
20
40.625
10
-141.13749999999999
20
40.625
42
0.41421356237308982
10
-140.63749999999999
20
41.125
10
-140.63749999999999
20
54.125000000000007
42
0.41421356237309503
10
-141.13749999999999
20
54.625000000000014
10
-154.13749999999999
20
54.625
42
0.41421356237308982
10
-154.63750000000002
20
54.125000000000007
10
-154.63750000000002
20
41.125
42
0.41421356237309503
0
LWPOLYLINE
5
126
100
AcDbEntity
8
0
100
AcDbPolyline
90
8
70
1
43
0.0
10
-211.28749999999999
20
40.625
10
-198.28749999999999
20
40.625
42
0.4142135623730222
10
-197.78749999999999
20
41.125
10
-197.78749999999999
20
54.125000000000007
42
0.41421356237312101
10
-198.28749999999999
20
54.625000000000014
10
-211.28749999999999
20
54.625
42
0.41421356237307422
10
-211.78750000000002
20
54.125000000000007
10
-211.78750000000002
20
41.125
42
0.41421356237313145
0
LWPOLYLINE
5
127
100
AcDbEntity
8
0
100
AcDbPolyline
90
8
70
1
43
0.0
10
-192.23750000000001
20
40.624999999999993
10
-179.23750000000001
20
40.625
42
0.41421356237307422
10
-178.73750000000001
20
41.125
10
-178.73750000000001
20
54.125000000000007
42
0.41421356237313145
10
-179.23750000000001
20
54.625
10
-192.23750000000001
20
54.625
42
0.4142135623730222
10
-192.73750000000004
20
54.125000000000007
10
-192.73750000000004
20
41.125
42
0.41421356237312101
0
LWPOLYLINE
5
128
100
AcDbEntity
8
0
100
AcDbPolyline
90
8
70
1
43
0.0
10
-135.08750000000001
20
40.625
10
-122.08750000000002
20
40.625
42
0.41421356237308982
10
-121.58750000000001
20
41.125
10
-121.58750000000001
20
54.125000000000007
42
0.41421356237309503
10
-122.08750000000002
20
54.625000000000014
10
-135.08750000000001
20
54.625
42
0.41421356237310025
10
-135.58750000000001
20
54.125000000000007
10
-135.58750000000001
20
41.125
42
0.41421356237307422
0
LWPOLYLINE
5
129
100
AcDbEntity
8
0
100
AcDbPolyline
90
8
70
1
43
0.0
10
-108.89375000000001
20
40.624999999999993
10
-95.893750000000011
20
40.625
42
0.41421356237308982
10
-95.393749999999997
20
41.125
10
-95.393749999999997
20
54.125000000000007
42
0.41421356237309503
10
-95.893750000000011
20
54.625000000000014
10
-108.89375000000001
20
54.625
42
0.41421356237308982
10
-109.39375000000001
20
54.125000000000007
10
-109.39375000000001
20
41.125
42
0.41421356237309503
0
LWPOLYLINE
5
130
100
AcDbEntity
8
0
100
AcDbPolyline
90
8
70
1
43
0.0
10
-346.08749999999998
20
21.575000000000003
10
-345.08749999999998
20
21.575000000000003
42
0.4142135623731939
10
-344.58750000000003
20
22.074999999999999
10
-344.58750000000003
20
35.075000000000003
42
0.4142135623730222
10
-345.08749999999998
20
35.574999999999974
10
-346.08749999999998
20
35.575000000000003
42
0.41421356237311063
10
-346.58749999999998
20
35.075000000000003
10
-346.58749999999998
20
22.074999999999999
42
0.4142135623730222
0
LWPOLYLINE
5
131
100
AcDbEntity
8
0
100
AcDbPolyline
90
8
70
1
43
0.0
10
-363.6875
20
21.575000000000028
10
-350.6875
20
21.575000000000003
42
0.4142135623731939
10
-350.18750000000006
20
22.074999999999999
10
-350.18750000000006
20
35.075000000000003
42
0.4142135623730222
10
-350.6875
20
35.575000000000003
10
-363.6875
20
35.575000000000003
42
0.4142135623731939
10
-364.18749999999994
20
35.075000000000003
10
-364.18749999999994
20
22.074999999999999
42
0.4142135623730222
0
LWPOLYLINE
5
132
100
AcDbEntity
8
0
100
AcDbPolyline
90
8
70
1
43
0.0
10
-326.375
20
22.074999999999999
42
-0.41421356237311063
10
-326.875
20
21.575000000000003
10
-339.87500000000006
20
21.57500000000001
42
-0.4142135623730222
10
-340.375
20
22.074999999999999
10
-340.375
20
35.075000000000003
42
-0.4142135623731939
10
-339.87500000000006
20
35.575000000000003
10
-326.875
20
35.574999999999989
42
-0.4142135623730222
10
-326.375
20
35.075000000000003
0
LWPOLYLINE
5
133
100
AcDbEntity
8
0
100
AcDbPolyline
90
8
70
1
43
0.0
10
-320.82500000000005
20
21.575000000000028
10
-307.82499999999999
20
21.575000000000003
42
0.41421356237305079
10
-307.32499999999999
20
22.074999999999999
10
-307.32499999999999
20
35.075000000000003
42
0.41421356237310025
10
-307.82499999999999
20
35.57500000000001
10
-320.82500000000005
20
35.575000000000003
42
0.4142135623731939
10
-321.32499999999999
20
35.075000000000003
10
-321.32499999999999
20
22.074999999999999
42
0.4142135623730222
0
LWPOLYLINE
5
134
100
AcDbEntity
8
0
100
AcDbPolyline
90
8
70
1
43
0.0
10
-73.174999999999997
20
40.625
10
-60.174999999999997
20
40.625
42
0.41421356237309503
10
-59.675000000000004
20
41.125
10
-59.675000000000004
20
54.125000000000007
42
0.41421356237309503
10
-60.174999999999997
20
54.625
10
-73.174999999999997
20
54.625
42
0.41421356237309503
10
-73.674999999999997
20
54.125000000000007
10
-73.674999999999997
20
41.125
42
0.41421356237309503
0
LWPOLYLINE
5
135
100
AcDbEntity
8
0
100
AcDbPolyline
90
8
70
1
43
0.0
10
-369.78749999999997
20
35.075000000000003
10
-369.78749999999997
20
22.074999999999999
42
0.4142135623730222
10
-369.28750000000002
20
21.575000000000003
10
-368.28750000000008
20
21.575000000000003
42
0.4142135623731939
10
-367.78750000000008
20
22.074999999999999
10
-367.78750000000008
20
35.075000000000003
42
0.4142135623730222
10
-368.28750000000008
20
35.575000000000003
10
-369.28750000000002
20
35.575000000000003
42
0.4142135623731939
0
LWPOLYLINE
5
136
100
AcDbEntity
8
0
100
AcDbPolyline
90
8
70
1
43
0.0
10
-244.62500000000003
20
21.575000000000003
10
-231.625
20
21.575000000000003
42
0.41421356237305079
10
-231.125
20
22.074999999999999
10
-231.125
20
35.075000000000003
42
0.41421356237310025
10
-231.625
20
35.57500000000001
10
-244.62500000000003
20
35.575000000000003
42
0.41421356237307683
10
-245.12500000000003
20
35.075000000000003
10
-245.12500000000003
20
22.074999999999999
42
0.41421356237313406
0
LWPOLYLINE
5
137
100
AcDbEntity
8
0
100
AcDbPolyline
90
8
70
1
43
0.0
10
-264.17500000000007
20
35.075000000000003
10
-264.17500000000007
20
22.074999999999999
42
0.41421356237313406
10
-263.67500000000001
20
21.574999999999992
10
-250.67500000000001
20
21.575000000000003
42
0.41421356237305079
10
-250.17500000000001
20
22.074999999999999
10
-250.17500000000001
20
35.075000000000003
42
0.41421356237310025
10
-250.67500000000001
20
35.575000000000003
10
-263.67500000000001
20
35.575000000000003
42
0.41421356237307683
0
LWPOLYLINE
5
138
100
AcDbEntity
8
0
100
AcDbPolyline
90
8
70
1
43
0.0
10
-301.77499999999998
20
21.574999999999992
10
-288.77499999999998
20
21.575000000000003
42
0.41421356237305079
10
-288.27499999999998
20
22.074999999999999
10
-288.27499999999998
20
35.075000000000003
42
0.41421356237310025
10
-288.77499999999998
20
35.575000000000003
10
-301.77499999999998
20
35.575000000000003
42
0.41421356237307683
10
-302.27499999999998
20
35.075000000000003
10
-302.27499999999998
20
22.074999999999999
42
0.41421356237313406
0
LWPOLYLINE
5
139
100
AcDbEntity
8
0
100
AcDbPolyline
90
8
70
1
43
0.0
10
-187.47499999999999
20
21.575000000000003
10
-174.47500000000002
20
21.575000000000003
42
0.41421356237308204
10
-173.97500000000002
20
22.074999999999999
10
-173.97500000000002
20
35.075000000000003
42
0.41421356237313145
10
-174.47500000000002
20
35.57500000000001
10
-187.47499999999999
20
35.575000000000003
42
0.41421356237307683
10
-187.97499999999999
20
35.075000000000003
10
-187.97499999999999
20
22.074999999999999
42
0.41421356237313406
0
LWPOLYLINE
5
140
100
AcDbEntity
8
0
100
AcDbPolyline
90
8
70
1
43
0.0
10
-168.42500000000001
20
21.574999999999992
10
-155.42500000000001
20
21.575000000000003
42
0.4142135623730846
10
-154.92500000000004
20
22.074999999999999
10
-154.92500000000001
20
35.075000000000003
42
0.41421356237307161
10
-155.42500000000001
20
35.57500000000001
10
-168.42500000000001
20
35.575000000000003
42
0.41421356237304563
10
-168.92500000000001
20
35.075000000000003
10
-168.92500000000001
20
22.074999999999999
42
0.41421356237310281
0
LWPOLYLINE
5
141
100
AcDbEntity
8
0
100
AcDbPolyline
90
8
70
1
43
0.0
10
-282.72500000000002
20
21.574999999999992
10
-269.72500000000002
20
21.575000000000003
42
0.41421356237305079
10
-269.22500000000002
20
22.074999999999999
10
-269.22500000000002
20
35.075000000000003
42
0.41421356237310025
10
-269.72500000000002
20
35.57500000000001
10
-282.72500000000002
20
35.575000000000003
42
0.41421356237307683
10
-283.22500000000002
20
35.075000000000003
10
-283.22500000000002
20
22.074999999999999
42
0.41421356237313406
0
LWPOLYLINE
5
142
100
AcDbEntity
8
0
100
AcDbPolyline
90
8
70
1
43
0.0
10
-207.02500000000003
20
35.075000000000003
10
-207.02500000000003
20
22.074999999999999
42
0.41421356237310281
10
-206.52500000000003
20
21.575000000000003
10
-193.52500000000003
20
21.575000000000003
42
0.41421356237308204
10
-193.02500000000003
20
22.074999999999999
10
-193.02500000000003
20
35.075000000000003
42
0.41421356237313145
10
-193.52500000000003
20
35.57500000000001
10
-206.52500000000003
20
35.575000000000003
42
0.41421356237304563
0
LWPOLYLINE
5
143
100
AcDbEntity
8
0
100
AcDbPolyline
90
8
70
1
43
0.0
10
-225.57500000000002
20
21.574999999999992
10
-212.57499999999999
20
21.575000000000003
42
0.41421356237305079
10
-212.07499999999999
20
22.074999999999999
10
-212.07499999999999
20
35.075000000000003
42
0.41421356237310025
10
-212.57499999999999
20
35.575000000000003
10
-225.57500000000002
20
35.575000000000003
42
0.41421356237307683
10
-226.07500000000002
20
35.075000000000003
10
-226.07500000000002
20
22.074999999999999
42
0.41421356237313406
0
LWPOLYLINE
5
144
100
AcDbEntity
8
0
100
AcDbPolyline
90
8
70
1
43
0.0
10
-112.61250000000001
20
35.075000000000003
10
-112.61250000000001
20
22.074999999999999
42
0.41421356237309503
10
-112.1125
20
21.574999999999992
10
-111.1125
20
21.575000000000003
42
0.4142135623730846
10
-110.61250000000001
20
22.074999999999999
10
-110.6125
20
35.075000000000003
42
0.41421356237307161
10
-111.1125
20
35.575000000000003
10
-112.1125
20
35.575000000000003
42
0.41421356237310542
0
LWPOLYLINE
5
145
100
AcDbEntity
8
0
100
AcDbPolyline
90
8
70
1
43
0.0
10
-149.375
20
21.574999999999992
10
-136.375
20
21.575000000000003
42
0.4142135623730846
10
-135.87500000000003
20
22.074999999999999
10
-135.875
20
35.075000000000003
42
0.41421356237307161
10
-136.375
20
35.57500000000001
10
-149.375
20
35.575000000000003
42
0.41421356237310542
10
-149.875
20
35.075000000000003
10
-149.875
20
22.074999999999999
42
0.41421356237309503
0
LWPOLYLINE
5
146
100
AcDbEntity
8
0
100
AcDbPolyline
90
8
70
1
43
0.0
10
-73.674999999999997
20
35.075000000000003
10
-73.674999999999997
20
22.074999999999999
42
0.41421356237309503
10
-73.174999999999997
20
21.575000000000003
10
-60.174999999999997
20
21.575000000000003
42
0.41421356237309764
10
-59.675000000000004
20
22.074999999999999
10
-59.675000000000004
20
35.075000000000003
42
0.41421356237309764
10
-60.174999999999997
20
35.575000000000003
10
-73.174999999999997
20
35.575000000000003
42
0.41421356237309503
0
LWPOLYLINE
5
147
100
AcDbEntity
8
0
100
AcDbPolyline
90
8
70
1
43
0.0
10
-130.32499999999999
20
21.574999999999992
10
-117.32500000000002
20
21.575000000000003
42
0.41421356237310802
10
-116.82500000000002
20
22.074999999999999
10
-116.82500000000002
20
35.075000000000003
42
0.41421356237309243
10
-117.32500000000002
20
35.57500000000001
10
-130.32499999999999
20
35.575000000000003
42
0.41421356237310542
10
-130.82499999999999
20
35.075000000000003
10
-130.82499999999999
20
22.074999999999999
42
0.41421356237309503
0
LWPOLYLINE
5
148
100
AcDbEntity
8
0
100
AcDbPolyline
90
8
70
1
43
0.0
10
-88.912499999999994
20
21.574999999999992
10
-87.912499999999994
20
21.575000000000003
42
0.4142135623730846
10
-87.412499999999994
20
22.074999999999999
10
-87.412499999999994
20
35.075000000000003
42
0.41421356237307161
10
-87.912499999999994
20
35.57500000000001
10
-88.912499999999994
20
35.575000000000003
42
0.41421356237310542
10
-89.412499999999994
20
35.075000000000003
10
-89.412499999999994
20
22.074999999999999
42
0.41421356237309503
0
LWPOLYLINE
5
149
100
AcDbEntity
8
0
100
AcDbPolyline
90
8
70
1
43
0.0
10
-106.51250000000002
20
21.574999999999992
10
-93.512500000000003
20
21.575000000000003
42
0.41421356237310802
10
-93.012499999999989
20
22.074999999999999
10
-93.012499999999989
20
35.075000000000003
42
0.41421356237309243
10
-93.512500000000003
20
35.575000000000003
10
-106.51250000000002
20
35.575000000000003
42
0.41421356237310542
10
-107.01250000000002
20
35.075000000000003
10
-107.01250000000002
20
22.074999999999999
42
0.41421356237309503
0
LWPOLYLINE
5
150
100
AcDbEntity
8
0
100
AcDbPolyline
90
8
70
1
43
0.0
10
-277.96249999999998
20
59.674999999999997
10
-264.96249999999998
20
59.675000000000004
42
0.41421356237307422
10
-264.46249999999998
20
60.174999999999997
10
-264.46249999999998
20
73.174999999999997
42
0.41421356237313145
10
-264.96249999999998
20
73.675000000000011
10
-277.96249999999998
20
73.674999999999997
42
0.4142135623730222
10
-278.46250000000003
20
73.174999999999997
10
-278.46250000000003
20
60.174999999999997
42
0.41421356237312623
0
LWPOLYLINE
5
151
100
AcDbEntity
8
0
100
AcDbPolyline
90
8
70
1
43
0.0
10
-258.91250000000002
20
59.674999999999997
10
-245.91250000000002
20
59.675000000000004
42
0.4142135623730222
10
-245.41250000000002
20
60.174999999999997
10
-245.41250000000002
20
73.174999999999997
42
0.41421356237312101
10
-245.91250000000002
20
73.674999999999997
10
-258.91250000000002
20
73.674999999999997
42
0.41421356237307422
10
-259.41250000000002
20
73.174999999999997
10
-259.41250000000002
20
60.174999999999997
42
0.41421356237313667
0
LWPOLYLINE
5
152
100
AcDbEntity
8
0
100
AcDbPolyline
90
8
70
1
43
0.0
10
-239.86250000000001
20
59.674999999999997
10
-226.86250000000001
20
59.675000000000004
42
0.4142135623730222
10
-226.36250000000001
20
60.174999999999997
10
-226.36250000000001
20
73.174999999999997
42
0.41421356237312101
10
-226.86250000000001
20
73.675000000000011
10
-239.86250000000001
20
73.674999999999997
42
0.41421356237307422
10
-240.36250000000001
20
73.174999999999997
10
-240.36250000000001
20
60.174999999999997
42
0.41421356237313667
0
LWPOLYLINE
5
153
100
AcDbEntity
8
0
100
AcDbPolyline
90
8
70
1
43
0.0
10
-154.13749999999999
20
78.724999999999994
10
-138.75624999999999
20
78.724999999999994
42
0.41421356237310542
10
-138.25624999999999
20
79.224999999999994
10
-138.25624999999999
20
92.224999999999994
42
0.41421356237309503
10
-138.75624999999999
20
92.725000000000009
10
-154.13749999999999
20
92.725000000000009
42
0.41421356237309503
10
-154.63750000000002
20
92.224999999999994
10
-154.63750000000002
20
79.224999999999994
42
0.41421356237310025
0
LWPOLYLINE
5
154
100
AcDbEntity
8
0
100
AcDbPolyline
90
8
70
1
43
0.0
10
-106.51250000000002
20
78.724999999999994
10
-91.131249999999994
20
78.724999999999994
42
0.41421356237310542
10
-90.631249999999994
20
79.224999999999994
10
-90.631249999999994
20
92.224999999999994
42
0.41421356237309503
10
-91.131249999999994
20
92.725000000000009
10
-106.51250000000002
20
92.725000000000009
42
0.41421356237309503
10
-107.01250000000002
20
92.224999999999994
10
-107.01250000000002
20
79.224999999999994
42
0.41421356237310025
0
LWPOLYLINE
5
155
100
AcDbEntity
8
0
100
AcDbPolyline
90
8
70
1
43
0.0
10
-235.10000000000002
20
78.724999999999994
10
-210.19374999999999
20
78.724999999999994
42
0.41421356237307422
10
-209.69374999999999
20
79.224999999999994
10
-209.69374999999999
20
92.224999999999994
42
0.41421356237313667
10
-210.19374999999999
20
92.725000000000009
10
-235.10000000000002
20
92.725000000000009
42
0.41421356237313667
10
-235.60000000000002
20
92.224999999999994
10
-235.60000000000002
20
79.224999999999994
42
0.41421356237313667
0
LWPOLYLINE
5
156
100
AcDbEntity
8
0
100
AcDbPolyline
90
8
70
1
43
0.0
10
-130.32499999999999
20
78.724999999999994
10
-114.94374999999999
20
78.724999999999994
42
0.41421356237310542
10
-114.44374999999999
20
79.224999999999994
10
-114.44374999999999
20
92.224999999999994
42
0.41421356237307422
10
-114.94374999999999
20
92.725000000000009
10
-130.32499999999999
20
92.725000000000009
42
0.41421356237309503
10
-130.82499999999999
20
92.224999999999994
10
-130.82499999999999
20
79.224999999999994
42
0.41421356237310025
0
LWPOLYLINE
5
157
100
AcDbEntity
8
0
100
AcDbPolyline
90
8
70
1
43
0.0
10
-297.51250000000005
20
73.174999999999997
10
-297.51250000000005
20
60.174999999999997
42
0.41421356237312623
10
-297.01250000000005
20
59.675000000000004
10
-284.01249999999999
20
59.675000000000004
42
0.41421356237307422
10
-283.51249999999999
20
60.174999999999997
10
-283.51249999999999
20
73.174999999999997
42
0.41421356237313145
10
-284.01249999999999
20
73.675000000000011
10
-297.01250000000005
20
73.674999999999997
42
0.4142135623730222
0
LWPOLYLINE
5
158
100
AcDbEntity
8
0
100
AcDbPolyline
90
8
70
1
43
0.0
10
-100.15625
20
60.174999999999997
10
-100.15625
20
73.174999999999997
42
0.41421356237309503
10
-100.65625
20
73.675000000000011
10
-113.65625000000001
20
73.674999999999997
42
0.41421356237308982
10
-114.15625000000003
20
73.174999999999997
10
-114.15625000000003
20
60.174999999999997
42
0.41421356237310025
10
-113.65625000000001
20
59.675000000000004
10
-100.65625
20
59.675000000000004
42
0.41421356237310542
0
LWPOLYLINE
5
159
100
AcDbEntity
8
0
100
AcDbPolyline
90
8
70
1
43
0.0
10
-131.11250000000001
20
60.174999999999997
10
-131.11250000000001
20
73.174999999999997
42
0.41421356237309503
10
-131.61250000000001
20
73.674999999999997
10
-144.61250000000001
20
73.674999999999997
42
0.41421356237310025
10
-145.11250000000001
20
73.174999999999997
10
-145.11250000000001
20
60.174999999999997
42
0.41421356237307944
10
-144.61250000000001
20
59.674999999999997
10
-131.61250000000001
20
59.675000000000004
42
0.41421356237310542
0
LWPOLYLINE
5
160
100
AcDbEntity
8
0
100
AcDbPolyline
90
8
70
1
43
0.0
10
-98.718250000000012
20
75.174999999999997
10
-98.718250000000012
20
60.174994087219247
42
0.41421356237309503
10
-98.218250000000012
20
59.67499408721924
10
-92.218249999999983
20
59.67499408721924
42
0.41421356237309503
10
-91.718249999999998
20
60.17499408721924
10
-91.718249999999998
20
75.174999999999997
42
0.41421356237307944
10
-92.218250000000012
20
75.675000000000011
10
-98.218250000000012
20
75.674999999999997
42
0.41421356237310542
0
LWPOLYLINE
5
161
100
AcDbEntity
8
0
100
AcDbPolyline
90
8
70
1
43
0.0
10
-122.59425
20
75.174999999999997
10
-122.59425000000002
20
60.174994087219247
42
0.41421356237309503
10
-122.09425000000002
20
59.67499408721924
10
-116.09425000000002
20
59.67499408721924
42
0.41421356237309503
10
-115.59425000000002
20
60.17499408721924
10
-115.59425000000002
20
75.174999999999997
42
0.41421356237310025
10
-116.09425000000002
20
75.675000000000011
10
-122.09425000000002
20
75.674999999999997
42
0.41421356237310542
0
LWPOLYLINE
5
162
100
AcDbEntity
8
0
100
AcDbPolyline
90
8
70
1
43
0.0
10
-16.525000000000002
20
16.024999999999999
10
-16.525000000000002
20
3.0249999999999999
42
0.41421356237309309
10
-16.024999999999999
20
2.5249999999999995
10
-3.0249999999999999
20
2.5249999999999999
42
0.41421356237309437
10
-2.5249999999999999
20
3.0249999999999999
10
-2.5249999999999999
20
16.024999999999999
42
0.4142135623730947
10
-3.0249999999999999
20
16.525000000000002
10
-16.024999999999999
20
16.525000000000002
42
0.41421356237309243
0
LWPOLYLINE
5
163
100
AcDbEntity
8
0
100
AcDbPolyline
90
8
70
1
43
0.0
10
-73.674999999999997
20
16.024999999999999
10
-73.674999999999997
20
3.0249999999999999
42
0.41421356237309437
10
-73.174999999999997
20
2.5250000000000017
10
-60.174999999999997
20
2.5249999999999999
42
0.41421356237309664
10
-59.675000000000004
20
3.0249999999999999
10
-59.675000000000004
20
16.024999999999999
42
0.41421356237309764
10
-60.174999999999997
20
16.524999999999999
10
-73.174999999999997
20
16.525000000000002
42
0.4142135623730937
0
LWPOLYLINE
5
164
100
AcDbEntity
8
0
100
AcDbPolyline
90
8
70
1
43
0.0
10
-102.25000000000001
20
16.024999999999999
10
-102.25000000000001
20
3.0249999999999999
42
0.41421356237309437
10
-101.75
20
2.5249999999999928
10
-88.75
20
2.5249999999999999
42
0.41421356237310542
10
-88.25
20
3.0249999999999999
10
-88.25
20
16.024999999999999
42
0.41421356237309631
10
-88.75
20
16.525000000000002
10
-101.75
20
16.525000000000002
42
0.41421356237310675
0
LWPOLYLINE
5
165
100
AcDbEntity
8
0
100
AcDbPolyline
90
8
70
1
43
0.0
10
-121.30000000000001
20
16.024999999999999
10
-121.30000000000001
20
3.0249999999999999
42
0.41421356237307355
10
-120.8
20
2.5249999999999999
10
-107.80000000000001
20
2.5249999999999999
42
0.41421356237310542
10
-107.30000000000001
20
3.0249999999999999
10
-107.30000000000001
20
16.024999999999999
42
0.41421356237309631
10
-107.80000000000001
20
16.525000000000002
10
-120.8
20
16.525000000000002
42
0.41421356237307555
0
LWPOLYLINE
5
166
100
AcDbEntity
8
0
100
AcDbPolyline
90
8
70
1
43
0.0
10
-140.34999999999999
20
16.024999999999999
10
-140.34999999999999
20
3.0249999999999999
42
0.41421356237309437
10
-139.84999999999999
20
2.5249999999999928
10
-126.85000000000001
20
2.5249999999999999
42
0.41421356237307422
10
-126.34999999999999
20
3.0249999999999999
10
-126.34999999999999
20
16.024999999999999
42
0.41421356237307555
10
-126.85000000000001
20
16.525000000000006
10
-139.84999999999999
20
16.525000000000002
42
0.41421356237310675
0
LWPOLYLINE
5
167
100
AcDbEntity
8
0
100
AcDbPolyline
90
8
70
1
43
0.0
10
-159.40000000000001
20
16.024999999999999
10
-159.40000000000001
20
3.0249999999999999
42
0.41421356237309437
10
-158.90000000000001
20
2.5249999999999928
10
-145.90000000000001
20
2.5249999999999999
42
0.41421356237307422
10
-145.40000000000001
20
3.0249999999999999
10
-145.40000000000001
20
16.024999999999999
42
0.41421356237307555
10
-145.90000000000001
20
16.525000000000006
10
-158.90000000000001
20
16.525000000000002
42
0.41421356237310675
0
LWPOLYLINE
5
168
100
AcDbEntity
8
0
100
AcDbPolyline
90
8
70
1
43
0.0
10
-178.44999999999999
20
16.024999999999999
10
-178.44999999999999
20
3.0249999999999999
42
0.41421356237313273
10
-177.94999999999999
20
2.5249999999999928
10
-164.95000000000002
20
2.5249999999999999
42
0.41421356237307749
10
-164.44999999999999
20
3.0249999999999999
10
-164.44999999999999
20
16.024999999999999
42
0.41421356237313406
10
-164.95000000000002
20
16.525000000000002
10
-177.94999999999999
20
16.525000000000002
42
0.4142135623730781
0
LWPOLYLINE
5
169
100
AcDbEntity
8
0
100
AcDbPolyline
90
8
70
1
43
0.0
10
-197.50000000000003
20
16.024999999999999
10
-197.50000000000003
20
3.0249999999999999
42
0.41421356237310153
10
-197.00000000000003
20
2.5249999999999928
10
-184.00000000000003
20
2.5249999999999999
42
0.41421356237307749
10
-183.5
20
3.0249999999999999
10
-183.5
20
16.024999999999999
42
0.41421356237313406
10
-184.00000000000003
20
16.525000000000002
10
-197.00000000000003
20
16.525000000000002
42
0.41421356237304691
0
LWPOLYLINE
5
170
100
AcDbEntity
8
0
100
AcDbPolyline
90
8
70
1
43
0.0
10
-216.55000000000004
20
16.024999999999999
10
-216.55000000000004
20
3.0249999999999999
42
0.41421356237310153
10
-216.05000000000004
20
2.5249999999999928
10
-203.05000000000004
20
2.5249999999999999
42
0.41421356237307749
10
-202.55000000000001
20
3.0249999999999999
10
-202.55000000000001
20
16.024999999999999
42
0.41421356237313406
10
-203.05000000000004
20
16.525000000000002
10
-216.05000000000004
20
16.525000000000002
42
0.41421356237304691
0
LWPOLYLINE
5
171
100
AcDbEntity
8
0
100
AcDbPolyline
90
8
70
1
43
0.0
10
-235.60000000000002
20
16.024999999999999
10
-235.60000000000002
20
3.0249999999999999
42
0.41421356237313273
10
-235.10000000000002
20
2.5249999999999999
10
-222.10000000000002
20
2.5249999999999999
42
0.41421356237304624
10
-221.59999999999999
20
3.0249999999999999
10
-221.59999999999999
20
16.024999999999999
42
0.41421356237312362
10
-222.10000000000002
20
16.525000000000006
10
-235.10000000000002
20
16.525000000000002
42
0.4142135623730781
0
LWPOLYLINE
5
172
100
AcDbEntity
8
0
100
AcDbPolyline
90
8
70
1
43
0.0
10
-254.65000000000003
20
16.024999999999999
10
-254.65000000000003
20
3.0249999999999999
42
0.41421356237313273
10
-254.15000000000003
20
2.5249999999999999
10
-241.15000000000003
20
2.5249999999999999
42
0.41421356237304624
10
-240.65000000000001
20
3.0249999999999999
10
-240.65000000000001
20
16.024999999999999
42
0.41421356237312362
10
-241.15000000000003
20
16.525000000000006
10
-254.15000000000003
20
16.525000000000002
42
0.4142135623730781
0
LWPOLYLINE
5
173
100
AcDbEntity
8
0
100
AcDbPolyline
90
8
70
1
43
0.0
10
-273.69999999999999
20
16.024999999999999
10
-273.69999999999999
20
3.0249999999999999
42
0.41421356237310153
10
-273.19999999999999
20
2.5249999999999999
10
-260.19999999999999
20
2.5249999999999999
42
0.41421356237307749
10
-259.69999999999999
20
3.0249999999999999
10
-259.69999999999999
20
16.024999999999999
42
0.41421356237313406
10
-260.19999999999999
20
16.525000000000006
10
-273.19999999999999
20
16.525000000000002
42
0.41421356237304691
0
LWPOLYLINE
5
174
100
AcDbEntity
8
0
100
AcDbPolyline
90
8
70
1
43
0.0
10
-292.75
20
16.024999999999999
10
-292.75
20
3.0249999999999999
42
0.41421356237310153
10
-292.25
20
2.5249999999999999
10
-279.25
20
2.5249999999999999
42
0.41421356237307749
10
-278.75
20
3.0249999999999999
10
-278.75
20
16.024999999999999
42
0.41421356237313406
10
-279.25
20
16.525000000000002
10
-292.25
20
16.525000000000002
42
0.41421356237304691
0
LWPOLYLINE
5
175
100
AcDbEntity
8
0
100
AcDbPolyline
90
8
70
1
43
0.0
10
-311.80000000000001
20
16.024999999999999
10
-311.80000000000001
20
3.0249999999999999
42
0.41421356237310153
10
-311.30000000000001
20
2.5249999999999928
10
-298.30000000000001
20
2.5249999999999999
42
0.41421356237307749
10
-297.80000000000001
20
3.0249999999999999
10
-297.80000000000001
20
16.024999999999999
42
0.41421356237313406
10
-298.30000000000001
20
16.525000000000006
10
-311.30000000000001
20
16.525000000000002
42
0.41421356237304691
0
LWPOLYLINE
5
176
100
AcDbEntity
8
0
100
AcDbPolyline
90
8
70
1
43
0.0
10
-330.85000000000002
20
16.024999999999999
10
-330.85000000000002
20
3.0249999999999999
42
0.41421356237301926
10
-330.35000000000002
20
2.5249999999999999
10
-317.35000000000002
20
2.5249999999999999
42
0.41421356237307749
10
-316.85000000000002
20
3.0249999999999999
10
-316.85000000000002
20
16.024999999999999
42
0.41421356237313406
10
-317.35000000000002
20
16.525000000000002
10
-330.35000000000002
20
16.525000000000002
42
0.4142135623731939
0
LWPOLYLINE
5
177
100
AcDbEntity
8
0
100
AcDbPolyline
90
24
70
1
43
0.0
10
-367.86300000000011
20
17.024999999999999
42
-0.41421356237310936
10
-368.36300000000006
20
16.524999999999999
10
-368.44999999999999
20
16.525000000000002
42
0.41421356237311063
10
-368.94999999999993
20
16.024999999999999
10
-368.94999999999993
20
3.0249999999999999
42
0.41421356237301926
10
-368.44999999999999
20
2.5249999999999999
10
-336.39999999999998
20
2.5249999999999999
42
0.41421356237310997
10
-335.90000000000003
20
3.0249999999999999
10
-335.90000000000003
20
16.024999999999999
42
0.41421356237301959
10
-336.39999999999998
20
16.52499999999997
10
-336.48700000000008
20
16.525000000000077
42
-0.41421356237310936
10
-336.98699999999997
20
17.025000000000002
10
-336.98700000000002
20
18.024999999999999
42
0.41421356237301826
10
-337.48699999999997
20
18.52499999999997
10
-343.48700000000002
20
18.524999999999999
42
0.41421356237319257
10
-343.98699999999997
20
18.024999999999999
10
-343.98699999999997
20
17.024999999999999
42
-0.41421356237319257
10
-344.48699999999997
20
16.524999999999999
10
-360.36300000000011
20
16.525000000000002
42
-0.41421356237311063
10
-360.86300000000006
20
17.025000000000002
10
-360.86300000000006
20
18.024999999999999
42
0.41421356237301826
10
-361.36300000000006
20
18.52499999999997
10
-367.36300000000006
20
18.524999999999999
42
0.41421356237319257
10
-367.86300000000006
20
18.024999999999999
0
LWPOLYLINE
5
178
100
AcDbEntity
8
0
100
AcDbPolyline
90
24
70
1
43
0.0
10
-2.5250000000000021
20
22.162000000000003
42
-0.41421356237309276
10
-2.024999999999999
20
22.661999999999999
10
-1.0250000000000004
20
22.661999999999999
42
0.4142135623730957
10
-0.52500000000000169
20
23.161999999999999
10
-0.52499999999999991
20
29.161999999999999
42
0.41421356237309548
10
-1.0250000000000004
20
29.661999999999999
10
-2.024999999999999
20
29.662000000000006
42
-0.41421356237309598
10
-2.5249999999999999
20
30.162000000000006
10
-2.5249999999999977
20
46.038000000000004
42
-0.41421356237309404
10
-2.0250000000000012
20
46.538000000000004
10
-1.0249999999999999
20
46.538000000000004
42
0.41421356237309431
10
-0.52499999999999991
20
47.038000000000004
10
-0.52499999999999991
20
53.037999999999997
42
0.41421356237309459
10
-1.0250000000000004
20
53.537999999999997
10
-2.024999999999999
20
53.537999999999982
42
-0.4142135623730947
10
-2.5250000000000128
20
54.037999999999997
10
-2.5249999999999999
20
54.125000000000007
42
0.41421356237309404
10
-3.0249999999999999
20
54.625
10
-16.024999999999999
20
54.625
42
0.41421356237309503
10
-16.524999999999999
20
54.125000000000007
10
-16.525000000000002
20
22.074999999999999
42
0.41421356237309243
10
-16.024999999999999
20
21.574999999999996
10
-3.0249999999999999
20
21.575000000000003
42
0.4142135623730957
10
-2.5249999999999999
20
22.074999999999999
0
LWPOLYLINE
5
179
100
AcDbEntity
8
0
100
AcDbPolyline
90
8
70
1
43
0.0
10
-54.125000000000007
20
59.675000000000004
10
-41.125
20
59.675000000000004
42
0.41421356237309503
10
-40.625
20
60.174999999999997
10
-40.625
20
73.174999999999997
42
0.41421356237309503
10
-41.125
20
73.674999999999997
10
-54.125000000000007
20
73.674999999999997
42
0.41421356237309503
10
-54.625
20
73.174999999999997
10
-54.625
20
60.174999999999997
42
0.41421356237309503
0
LWPOLYLINE
5
180
100
AcDbEntity
8
0
100
AcDbPolyline
90
8
70
1
43
0.0
10
-54.125000000000007
20
40.625
10
-41.125
20
40.625
42
0.41421356237309503
10
-40.625
20
41.125
10
-40.625
20
54.125000000000007
42
0.41421356237309503
10
-41.125
20
54.625
10
-54.125000000000007
20
54.625
42
0.41421356237309503
10
-54.625
20
54.125000000000007
10
-54.625
20
41.125
42
0.41421356237309503
0
LWPOLYLINE
5
181
100
AcDbEntity
8
0
100
AcDbPolyline
90
8
70
1
43
0.0
10
-54.125000000000007
20
21.575000000000003
10
-41.125
20
21.575000000000003
42
0.41421356237309503
10
-40.625
20
22.074999999999999
10
-40.625
20
35.075000000000003
42
0.41421356237309503
10
-41.125
20
35.575000000000003
10
-54.125000000000007
20
35.575000000000003
42
0.41421356237309503
10
-54.625
20
35.075000000000003
10
-54.625
20
22.074999999999999
42
0.41421356237309503
0
LWPOLYLINE
5
182
100
AcDbEntity
8
0
100
AcDbPolyline
90
8
70
1
43
0.0
10
-54.125000000000007
20
2.5249999999999999
10
-41.125
20
2.5249999999999999
42
0.41421356237309404
10
-40.625
20
3.0249999999999999
10
-40.625
20
16.024999999999999
42
0.41421356237309503
10
-41.125
20
16.524999999999999
10
-54.125000000000007
20
16.525000000000002
42
0.4142135623730937
10
-54.625
20
16.024999999999999
10
-54.625
20
3.0249999999999999
42
0.41421356237309437
0
LWPOLYLINE
5
183
100
AcDbEntity
8
0
100
AcDbPolyline
90
8
70
1
43
0.0
10
-22.074999999999999
20
16.525000000000002
10
-35.075000000000003
20
16.525000000000002
42
0.41421356237309503
10
-35.575000000000003
20
16.024999999999999
10
-35.575000000000003
20
3.0249999999999999
42
0.4142135623730957
10
-35.075000000000003
20
2.5249999999999999
10
-22.074999999999999
20
2.5249999999999999
42
0.41421356237309537
10
-21.575000000000003
20
3.0249999999999999
10
-21.575000000000003
20
16.024999999999999
42
0.41421356237309631
0
LWPOLYLINE
5
184
100
AcDbEntity
8
0
100
AcDbPolyline
90
8
70
1
43
0.0
10
-22.074999999999999
20
35.575000000000003
10
-35.075000000000003
20
35.575000000000003
42
0.41421356237309503
10
-35.575000000000003
20
35.075000000000003
10
-35.575000000000003
20
22.074999999999999
42
0.41421356237309503
10
-35.075000000000003
20
21.575000000000003
10
-22.074999999999999
20
21.575000000000003
42
0.41421356237309503
10
-21.575000000000003
20
22.074999999999999
10
-21.575000000000003
20
35.075000000000003
42
0.41421356237309503
0
LWPOLYLINE
5
185
100
AcDbEntity
8
0
100
AcDbPolyline
90
8
70
1
43
0.0
10
-22.074999999999999
20
54.625
10
-35.075000000000003
20
54.625
42
0.41421356237309503
10
-35.575000000000003
20
54.125000000000007
10
-35.575000000000003
20
41.125
42
0.41421356237309503
10
-35.075000000000003
20
40.625
10
-22.074999999999999
20
40.625
42
0.41421356237309503
10
-21.575000000000003
20
41.125
10
-21.575000000000003
20
54.125000000000007
42
0.41421356237309503
0
LWPOLYLINE
5
186
100
AcDbEntity
8
0
100
AcDbPolyline
90
8
70
1
43
0.0
10
-22.074999999999999
20
73.674999999999997
10
-35.075000000000003
20
73.674999999999997
42
0.41421356237309503
10
-35.575000000000003
20
73.174999999999997
10
-35.575000000000003
20
60.174999999999997
42
0.41421356237309764
10
-35.075000000000003
20
59.675000000000004
10
-22.074999999999999
20
59.675000000000004
42
0.41421356237309764
10
-21.575000000000003
20
60.174999999999997
10
-21.575000000000003
20
73.174999999999997
42
0.41421356237309503
0
LINE
5
187
100
AcDbEntity
8
0
100
AcDbLine
10
-279.10813461475266
20
78.725004263692298
30
0
11
-294.63125000000002
21
78.724999999999994
31
0
0
ARC
5
188
100
AcDbEntity
8
0
100
AcDbCircle
10
-294.63125000000008
20
79.22499999999998
30
0
40
0.49999999999997158
210
0
220
0
230
1
100
AcDbArc
50
180
51
270.00000000000648
0
LINE
5
189
100
AcDbEntity
8
0
100
AcDbLine
10
-295.13125000000008
20
79.224999999999994
30
0
11
-295.13125000000002
21
94.224999999999994
31
0
0
ARC
5
190
100
AcDbEntity
8
0
100
AcDbCircle
10
-294.63125000000002
20
94.224999999999994
30
0
40
0.50000000000000711
210
0
220
-0
230
1
100
AcDbArc
50
90
51
180
0
LINE
5
191
100
AcDbEntity
8
0
100
AcDbLine
10
-294.63125000000002
20
94.724999999999994
30
0
11
-279.10813461475266
21
94.724999999999994
31
0
0
ARC
5
192
100
AcDbEntity
8
0
100
AcDbCircle
10
-279.10813461475266
20
94.224999999999994
30
0
40
0.50000000000000711
210
0
220
-0
230
1
100
AcDbArc
50
0
51
90
0
LINE
5
193
100
AcDbEntity
8
0
100
AcDbLine
10
-278.60813461475266
20
94.224999999999994
30
0
11
-278.60813461475266
21
79.224999999999994
31
0
0
ARC
5
194
100
AcDbEntity
8
0
100
AcDbCircle
10
-279.10813461475266
20
79.224999999999994
30
0
40
0.49999573630769234
210
0
220
0
230
1
100
AcDbArc
50
-90
51
0
0
ENDSEC
0
SECTION
2
OBJECTS
0
DICTIONARY
5
C
100
AcDbDictionary
3
ACAD_GROUP
350
D
3
ACAD_MLINESTYLE
350
17
0
DICTIONARY
5
D
100
AcDbDictionary
0
DICTIONARY
5
1A
330
C
100
AcDbDictionary
0
DICTIONARY
5
17
100
AcDbDictionary
0
ENDSEC
0
EOF
