G04 #@! TF.GenerationSoftware,KiCad,Pcbnew,(5.1.6)-1*
G04 #@! TF.CreationDate,2020-07-18T03:31:17-04:00*
G04 #@! TF.ProjectId,southpawpcb,736f7574-6870-4617-9770-63622e6b6963,rev?*
G04 #@! TF.SameCoordinates,Original*
G04 #@! TF.FileFunction,Legend,Top*
G04 #@! TF.FilePolarity,Positive*
%FSLAX46Y46*%
G04 Gerber Fmt 4.6, Leading zero omitted, Abs format (unit mm)*
G04 Created by KiCad (PCBNEW (5.1.6)-1) date 2020-07-18 03:31:17*
%MOMM*%
%LPD*%
G01*
G04 APERTURE LIST*
%ADD10C,0.200000*%
G04 APERTURE END LIST*
D10*
G04 #@! TO.C,D7*
X97019000Y90899000D02*
X97019000Y93299000D01*
X96844000Y90899000D02*
X96844000Y93299000D01*
X96669000Y90899000D02*
X96669000Y93299000D01*
X96269000Y93299000D02*
X96269000Y90899000D01*
X96494000Y90899000D02*
X96494000Y93299000D01*
X96369000Y90899000D02*
X96369000Y93299000D01*
X96294000Y90899000D02*
X102094000Y90899000D01*
X102094000Y90899000D02*
X102094000Y93299000D01*
X102094000Y93299000D02*
X96294000Y93299000D01*
G04 #@! TO.C,D48*
X230681000Y55199000D02*
X224881000Y55199000D01*
X230681000Y52799000D02*
X230681000Y55199000D01*
X224881000Y52799000D02*
X230681000Y52799000D01*
X224956000Y52799000D02*
X224956000Y55199000D01*
X225081000Y52799000D02*
X225081000Y55199000D01*
X224856000Y55199000D02*
X224856000Y52799000D01*
X225256000Y52799000D02*
X225256000Y55199000D01*
X225431000Y52799000D02*
X225431000Y55199000D01*
X225606000Y52799000D02*
X225606000Y55199000D01*
G04 #@! TO.C,D72*
X96806000Y17099000D02*
X96806000Y14699000D01*
X96981000Y17099000D02*
X96981000Y14699000D01*
X97156000Y17099000D02*
X97156000Y14699000D01*
X97556000Y14699000D02*
X97556000Y17099000D01*
X97331000Y17099000D02*
X97331000Y14699000D01*
X97456000Y17099000D02*
X97456000Y14699000D01*
X97531000Y17099000D02*
X91731000Y17099000D01*
X91731000Y17099000D02*
X91731000Y14699000D01*
X91731000Y14699000D02*
X97531000Y14699000D01*
G04 #@! TO.C,D39*
X20819200Y52799000D02*
X20819200Y55199000D01*
X20644200Y52799000D02*
X20644200Y55199000D01*
X20469200Y52799000D02*
X20469200Y55199000D01*
X20069200Y55199000D02*
X20069200Y52799000D01*
X20294200Y52799000D02*
X20294200Y55199000D01*
X20169200Y52799000D02*
X20169200Y55199000D01*
X20094200Y52799000D02*
X25894200Y52799000D01*
X25894200Y52799000D02*
X25894200Y55199000D01*
X25894200Y55199000D02*
X20094200Y55199000D01*
G04 #@! TO.C,D2*
X11246000Y85477000D02*
X11246000Y79677000D01*
X13646000Y85477000D02*
X11246000Y85477000D01*
X13646000Y79677000D02*
X13646000Y85477000D01*
X13646000Y79752000D02*
X11246000Y79752000D01*
X13646000Y79877000D02*
X11246000Y79877000D01*
X11246000Y79652000D02*
X13646000Y79652000D01*
X13646000Y80052000D02*
X11246000Y80052000D01*
X13646000Y80227000D02*
X11246000Y80227000D01*
X13646000Y80402000D02*
X11246000Y80402000D01*
G04 #@! TO.C,D50*
X268781000Y55199000D02*
X262981000Y55199000D01*
X268781000Y52799000D02*
X268781000Y55199000D01*
X262981000Y52799000D02*
X268781000Y52799000D01*
X263056000Y52799000D02*
X263056000Y55199000D01*
X263181000Y52799000D02*
X263181000Y55199000D01*
X262956000Y55199000D02*
X262956000Y52799000D01*
X263356000Y52799000D02*
X263356000Y55199000D01*
X263531000Y52799000D02*
X263531000Y55199000D01*
X263706000Y52799000D02*
X263706000Y55199000D01*
G04 #@! TO.C,D21*
X20819200Y71849000D02*
X20819200Y74249000D01*
X20644200Y71849000D02*
X20644200Y74249000D01*
X20469200Y71849000D02*
X20469200Y74249000D01*
X20069200Y74249000D02*
X20069200Y71849000D01*
X20294200Y71849000D02*
X20294200Y74249000D01*
X20169200Y71849000D02*
X20169200Y74249000D01*
X20094200Y71849000D02*
X25894200Y71849000D01*
X25894200Y71849000D02*
X25894200Y74249000D01*
X25894200Y74249000D02*
X20094200Y74249000D01*
G04 #@! TO.C,D53*
X-12205800Y36149000D02*
X-18005800Y36149000D01*
X-12205800Y33749000D02*
X-12205800Y36149000D01*
X-18005800Y33749000D02*
X-12205800Y33749000D01*
X-17930800Y33749000D02*
X-17930800Y36149000D01*
X-17805800Y33749000D02*
X-17805800Y36149000D01*
X-18030800Y36149000D02*
X-18030800Y33749000D01*
X-17630800Y33749000D02*
X-17630800Y36149000D01*
X-17455800Y33749000D02*
X-17455800Y36149000D01*
X-17280800Y33749000D02*
X-17280800Y36149000D01*
G04 #@! TO.C,D26*
X130669000Y74249000D02*
X124869000Y74249000D01*
X130669000Y71849000D02*
X130669000Y74249000D01*
X124869000Y71849000D02*
X130669000Y71849000D01*
X124944000Y71849000D02*
X124944000Y74249000D01*
X125069000Y71849000D02*
X125069000Y74249000D01*
X124844000Y74249000D02*
X124844000Y71849000D01*
X125244000Y71849000D02*
X125244000Y74249000D01*
X125419000Y71849000D02*
X125419000Y74249000D01*
X125594000Y71849000D02*
X125594000Y74249000D01*
G04 #@! TO.C,D60*
X139882000Y33749000D02*
X139882000Y36149000D01*
X139707000Y33749000D02*
X139707000Y36149000D01*
X139532000Y33749000D02*
X139532000Y36149000D01*
X139132000Y36149000D02*
X139132000Y33749000D01*
X139357000Y33749000D02*
X139357000Y36149000D01*
X139232000Y33749000D02*
X139232000Y36149000D01*
X139157000Y33749000D02*
X144957000Y33749000D01*
X144957000Y33749000D02*
X144957000Y36149000D01*
X144957000Y36149000D02*
X139157000Y36149000D01*
G04 #@! TO.C,D42*
X116381000Y55199000D02*
X110581000Y55199000D01*
X116381000Y52799000D02*
X116381000Y55199000D01*
X110581000Y52799000D02*
X116381000Y52799000D01*
X110656000Y52799000D02*
X110656000Y55199000D01*
X110781000Y52799000D02*
X110781000Y55199000D01*
X110556000Y55199000D02*
X110556000Y52799000D01*
X110956000Y52799000D02*
X110956000Y55199000D01*
X111131000Y52799000D02*
X111131000Y55199000D01*
X111306000Y52799000D02*
X111306000Y55199000D01*
G04 #@! TO.C,D4*
X44944200Y93299000D02*
X39144200Y93299000D01*
X44944200Y90899000D02*
X44944200Y93299000D01*
X39144200Y90899000D02*
X44944200Y90899000D01*
X39219200Y90899000D02*
X39219200Y93299000D01*
X39344200Y90899000D02*
X39344200Y93299000D01*
X39119200Y93299000D02*
X39119200Y90899000D01*
X39519200Y90899000D02*
X39519200Y93299000D01*
X39694200Y90899000D02*
X39694200Y93299000D01*
X39869200Y90899000D02*
X39869200Y93299000D01*
G04 #@! TO.C,D3*
X20819200Y90899000D02*
X20819200Y93299000D01*
X20644200Y90899000D02*
X20644200Y93299000D01*
X20469200Y90899000D02*
X20469200Y93299000D01*
X20069200Y93299000D02*
X20069200Y90899000D01*
X20294200Y90899000D02*
X20294200Y93299000D01*
X20169200Y90899000D02*
X20169200Y93299000D01*
X20094200Y90899000D02*
X25894200Y90899000D01*
X25894200Y90899000D02*
X25894200Y93299000D01*
X25894200Y93299000D02*
X20094200Y93299000D01*
G04 #@! TO.C,D25*
X106544000Y71849000D02*
X106544000Y74249000D01*
X106369000Y71849000D02*
X106369000Y74249000D01*
X106194000Y71849000D02*
X106194000Y74249000D01*
X105794000Y74249000D02*
X105794000Y71849000D01*
X106019000Y71849000D02*
X106019000Y74249000D01*
X105894000Y71849000D02*
X105894000Y74249000D01*
X105819000Y71849000D02*
X111619000Y71849000D01*
X111619000Y71849000D02*
X111619000Y74249000D01*
X111619000Y74249000D02*
X105819000Y74249000D01*
G04 #@! TO.C,D71*
X67919000Y14699000D02*
X73719000Y14699000D01*
X67919000Y17099000D02*
X67919000Y14699000D01*
X73719000Y17099000D02*
X67919000Y17099000D01*
X73644000Y17099000D02*
X73644000Y14699000D01*
X73519000Y17099000D02*
X73519000Y14699000D01*
X73744000Y14699000D02*
X73744000Y17099000D01*
X73344000Y17099000D02*
X73344000Y14699000D01*
X73169000Y17099000D02*
X73169000Y14699000D01*
X72994000Y17099000D02*
X72994000Y14699000D01*
G04 #@! TO.C,D78*
X333838000Y9174000D02*
X333838000Y3374000D01*
X336238000Y9174000D02*
X333838000Y9174000D01*
X336238000Y3374000D02*
X336238000Y9174000D01*
X336238000Y3449000D02*
X333838000Y3449000D01*
X336238000Y3574000D02*
X333838000Y3574000D01*
X333838000Y3349000D02*
X336238000Y3349000D01*
X336238000Y3749000D02*
X333838000Y3749000D01*
X336238000Y3924000D02*
X333838000Y3924000D01*
X336238000Y4099000D02*
X333838000Y4099000D01*
G04 #@! TO.C,D77*
X306044000Y14699000D02*
X311844000Y14699000D01*
X306044000Y17099000D02*
X306044000Y14699000D01*
X311844000Y17099000D02*
X306044000Y17099000D01*
X311769000Y17099000D02*
X311769000Y14699000D01*
X311644000Y17099000D02*
X311644000Y14699000D01*
X311869000Y14699000D02*
X311869000Y17099000D01*
X311469000Y17099000D02*
X311469000Y14699000D01*
X311294000Y17099000D02*
X311294000Y14699000D01*
X311119000Y17099000D02*
X311119000Y14699000D01*
G04 #@! TO.C,D45*
X168456000Y52799000D02*
X168456000Y55199000D01*
X168281000Y52799000D02*
X168281000Y55199000D01*
X168106000Y52799000D02*
X168106000Y55199000D01*
X167706000Y55199000D02*
X167706000Y52799000D01*
X167931000Y52799000D02*
X167931000Y55199000D01*
X167806000Y52799000D02*
X167806000Y55199000D01*
X167731000Y52799000D02*
X173531000Y52799000D01*
X173531000Y52799000D02*
X173531000Y55199000D01*
X173531000Y55199000D02*
X167731000Y55199000D01*
G04 #@! TO.C,D16*
X273544000Y93299000D02*
X267744000Y93299000D01*
X273544000Y90899000D02*
X273544000Y93299000D01*
X267744000Y90899000D02*
X273544000Y90899000D01*
X267819000Y90899000D02*
X267819000Y93299000D01*
X267944000Y90899000D02*
X267944000Y93299000D01*
X267719000Y93299000D02*
X267719000Y90899000D01*
X268119000Y90899000D02*
X268119000Y93299000D01*
X268294000Y90899000D02*
X268294000Y93299000D01*
X268469000Y90899000D02*
X268469000Y93299000D01*
G04 #@! TO.C,D22*
X31419200Y56799000D02*
X31419200Y50999000D01*
X33819200Y56799000D02*
X31419200Y56799000D01*
X33819200Y50999000D02*
X33819200Y56799000D01*
X33819200Y51074000D02*
X31419200Y51074000D01*
X33819200Y51199000D02*
X31419200Y51199000D01*
X31419200Y50974000D02*
X33819200Y50974000D01*
X33819200Y51374000D02*
X31419200Y51374000D01*
X33819200Y51549000D02*
X31419200Y51549000D01*
X33819200Y51724000D02*
X31419200Y51724000D01*
G04 #@! TO.C,D10*
X164769000Y85374000D02*
X164769000Y79574000D01*
X167169000Y85374000D02*
X164769000Y85374000D01*
X167169000Y79574000D02*
X167169000Y85374000D01*
X167169000Y79649000D02*
X164769000Y79649000D01*
X167169000Y79774000D02*
X164769000Y79774000D01*
X164769000Y79549000D02*
X167169000Y79549000D01*
X167169000Y79949000D02*
X164769000Y79949000D01*
X167169000Y80124000D02*
X164769000Y80124000D01*
X167169000Y80299000D02*
X164769000Y80299000D01*
G04 #@! TO.C,D54*
X1769200Y33749000D02*
X1769200Y36149000D01*
X1594200Y33749000D02*
X1594200Y36149000D01*
X1419200Y33749000D02*
X1419200Y36149000D01*
X1019200Y36149000D02*
X1019200Y33749000D01*
X1244200Y33749000D02*
X1244200Y36149000D01*
X1119200Y33749000D02*
X1119200Y36149000D01*
X1044200Y33749000D02*
X6844200Y33749000D01*
X6844200Y33749000D02*
X6844200Y36149000D01*
X6844200Y36149000D02*
X1044200Y36149000D01*
G04 #@! TO.C,D19*
X-17280800Y71849000D02*
X-17280800Y74249000D01*
X-17455800Y71849000D02*
X-17455800Y74249000D01*
X-17630800Y71849000D02*
X-17630800Y74249000D01*
X-18030800Y74249000D02*
X-18030800Y71849000D01*
X-17805800Y71849000D02*
X-17805800Y74249000D01*
X-17930800Y71849000D02*
X-17930800Y74249000D01*
X-18005800Y71849000D02*
X-12205800Y71849000D01*
X-12205800Y71849000D02*
X-12205800Y74249000D01*
X-12205800Y74249000D02*
X-18005800Y74249000D01*
G04 #@! TO.C,D57*
X70825000Y33749000D02*
X70825000Y36149000D01*
X70650000Y33749000D02*
X70650000Y36149000D01*
X70475000Y33749000D02*
X70475000Y36149000D01*
X70075000Y36149000D02*
X70075000Y33749000D01*
X70300000Y33749000D02*
X70300000Y36149000D01*
X70175000Y33749000D02*
X70175000Y36149000D01*
X70100000Y33749000D02*
X75900000Y33749000D01*
X75900000Y33749000D02*
X75900000Y36149000D01*
X75900000Y36149000D02*
X70100000Y36149000D01*
G04 #@! TO.C,D47*
X206556000Y52799000D02*
X206556000Y55199000D01*
X206381000Y52799000D02*
X206381000Y55199000D01*
X206206000Y52799000D02*
X206206000Y55199000D01*
X205806000Y55199000D02*
X205806000Y52799000D01*
X206031000Y52799000D02*
X206031000Y55199000D01*
X205906000Y52799000D02*
X205906000Y55199000D01*
X205831000Y52799000D02*
X211631000Y52799000D01*
X211631000Y52799000D02*
X211631000Y55199000D01*
X211631000Y55199000D02*
X205831000Y55199000D01*
G04 #@! TO.C,D15*
X262419000Y80299000D02*
X260019000Y80299000D01*
X262419000Y80124000D02*
X260019000Y80124000D01*
X262419000Y79949000D02*
X260019000Y79949000D01*
X260019000Y79549000D02*
X262419000Y79549000D01*
X262419000Y79774000D02*
X260019000Y79774000D01*
X262419000Y79649000D02*
X260019000Y79649000D01*
X262419000Y79574000D02*
X262419000Y85374000D01*
X262419000Y85374000D02*
X260019000Y85374000D01*
X260019000Y85374000D02*
X260019000Y79574000D01*
G04 #@! TO.C,D67*
X278307000Y36149000D02*
X272507000Y36149000D01*
X278307000Y33749000D02*
X278307000Y36149000D01*
X272507000Y33749000D02*
X278307000Y33749000D01*
X272582000Y33749000D02*
X272582000Y36149000D01*
X272707000Y33749000D02*
X272707000Y36149000D01*
X272482000Y36149000D02*
X272482000Y33749000D01*
X272882000Y33749000D02*
X272882000Y36149000D01*
X273057000Y33749000D02*
X273057000Y36149000D01*
X273232000Y33749000D02*
X273232000Y36149000D01*
G04 #@! TO.C,D36*
X323550000Y74249000D02*
X317750000Y74249000D01*
X323550000Y71849000D02*
X323550000Y74249000D01*
X317750000Y71849000D02*
X323550000Y71849000D01*
X317825000Y71849000D02*
X317825000Y74249000D01*
X317950000Y71849000D02*
X317950000Y74249000D01*
X317725000Y74249000D02*
X317725000Y71849000D01*
X318125000Y71849000D02*
X318125000Y74249000D01*
X318300000Y71849000D02*
X318300000Y74249000D01*
X318475000Y71849000D02*
X318475000Y74249000D01*
G04 #@! TO.C,D62*
X177982000Y33749000D02*
X177982000Y36149000D01*
X177807000Y33749000D02*
X177807000Y36149000D01*
X177632000Y33749000D02*
X177632000Y36149000D01*
X177232000Y36149000D02*
X177232000Y33749000D01*
X177457000Y33749000D02*
X177457000Y36149000D01*
X177332000Y33749000D02*
X177332000Y36149000D01*
X177257000Y33749000D02*
X183057000Y33749000D01*
X183057000Y33749000D02*
X183057000Y36149000D01*
X183057000Y36149000D02*
X177257000Y36149000D01*
G04 #@! TO.C,D61*
X158932000Y33749000D02*
X158932000Y36149000D01*
X158757000Y33749000D02*
X158757000Y36149000D01*
X158582000Y33749000D02*
X158582000Y36149000D01*
X158182000Y36149000D02*
X158182000Y33749000D01*
X158407000Y33749000D02*
X158407000Y36149000D01*
X158282000Y33749000D02*
X158282000Y36149000D01*
X158207000Y33749000D02*
X164007000Y33749000D01*
X164007000Y33749000D02*
X164007000Y36149000D01*
X164007000Y36149000D02*
X158207000Y36149000D01*
G04 #@! TO.C,D52*
X318788000Y55199000D02*
X312988000Y55199000D01*
X318788000Y52799000D02*
X318788000Y55199000D01*
X312988000Y52799000D02*
X318788000Y52799000D01*
X313063000Y52799000D02*
X313063000Y55199000D01*
X313188000Y52799000D02*
X313188000Y55199000D01*
X312963000Y55199000D02*
X312963000Y52799000D01*
X313363000Y52799000D02*
X313363000Y55199000D01*
X313538000Y52799000D02*
X313538000Y55199000D01*
X313713000Y52799000D02*
X313713000Y55199000D01*
G04 #@! TO.C,D37*
X-17280800Y52799000D02*
X-17280800Y55199000D01*
X-17455800Y52799000D02*
X-17455800Y55199000D01*
X-17630800Y52799000D02*
X-17630800Y55199000D01*
X-18030800Y55199000D02*
X-18030800Y52799000D01*
X-17805800Y52799000D02*
X-17805800Y55199000D01*
X-17930800Y52799000D02*
X-17930800Y55199000D01*
X-18005800Y52799000D02*
X-12205800Y52799000D01*
X-12205800Y52799000D02*
X-12205800Y55199000D01*
X-12205800Y55199000D02*
X-18005800Y55199000D01*
G04 #@! TO.C,D65*
X235132000Y33749000D02*
X235132000Y36149000D01*
X234957000Y33749000D02*
X234957000Y36149000D01*
X234782000Y33749000D02*
X234782000Y36149000D01*
X234382000Y36149000D02*
X234382000Y33749000D01*
X234607000Y33749000D02*
X234607000Y36149000D01*
X234482000Y33749000D02*
X234482000Y36149000D01*
X234407000Y33749000D02*
X240207000Y33749000D01*
X240207000Y33749000D02*
X240207000Y36149000D01*
X240207000Y36149000D02*
X234407000Y36149000D01*
G04 #@! TO.C,D14*
X230369000Y90899000D02*
X230369000Y93299000D01*
X230194000Y90899000D02*
X230194000Y93299000D01*
X230019000Y90899000D02*
X230019000Y93299000D01*
X229619000Y93299000D02*
X229619000Y90899000D01*
X229844000Y90899000D02*
X229844000Y93299000D01*
X229719000Y90899000D02*
X229719000Y93299000D01*
X229644000Y90899000D02*
X235444000Y90899000D01*
X235444000Y90899000D02*
X235444000Y93299000D01*
X235444000Y93299000D02*
X229644000Y93299000D01*
G04 #@! TO.C,D68*
X311332000Y33749000D02*
X311332000Y36149000D01*
X311157000Y33749000D02*
X311157000Y36149000D01*
X310982000Y33749000D02*
X310982000Y36149000D01*
X310582000Y36149000D02*
X310582000Y33749000D01*
X310807000Y33749000D02*
X310807000Y36149000D01*
X310682000Y33749000D02*
X310682000Y36149000D01*
X310607000Y33749000D02*
X316407000Y33749000D01*
X316407000Y33749000D02*
X316407000Y36149000D01*
X316407000Y36149000D02*
X310607000Y36149000D01*
G04 #@! TO.C,D18*
X321169000Y93299000D02*
X315369000Y93299000D01*
X321169000Y90899000D02*
X321169000Y93299000D01*
X315369000Y90899000D02*
X321169000Y90899000D01*
X315444000Y90899000D02*
X315444000Y93299000D01*
X315569000Y90899000D02*
X315569000Y93299000D01*
X315344000Y93299000D02*
X315344000Y90899000D01*
X315744000Y90899000D02*
X315744000Y93299000D01*
X315919000Y90899000D02*
X315919000Y93299000D01*
X316094000Y90899000D02*
X316094000Y93299000D01*
G04 #@! TO.C,D38*
X6844200Y55199000D02*
X1044200Y55199000D01*
X6844200Y52799000D02*
X6844200Y55199000D01*
X1044200Y52799000D02*
X6844200Y52799000D01*
X1119200Y52799000D02*
X1119200Y55199000D01*
X1244200Y52799000D02*
X1244200Y55199000D01*
X1019200Y55199000D02*
X1019200Y52799000D01*
X1419200Y52799000D02*
X1419200Y55199000D01*
X1594200Y52799000D02*
X1594200Y55199000D01*
X1769200Y52799000D02*
X1769200Y55199000D01*
G04 #@! TO.C,D12*
X197344000Y93299000D02*
X191544000Y93299000D01*
X197344000Y90899000D02*
X197344000Y93299000D01*
X191544000Y90899000D02*
X197344000Y90899000D01*
X191619000Y90899000D02*
X191619000Y93299000D01*
X191744000Y90899000D02*
X191744000Y93299000D01*
X191519000Y93299000D02*
X191519000Y90899000D01*
X191919000Y90899000D02*
X191919000Y93299000D01*
X192094000Y90899000D02*
X192094000Y93299000D01*
X192269000Y90899000D02*
X192269000Y93299000D01*
G04 #@! TO.C,D58*
X106857000Y36149000D02*
X101057000Y36149000D01*
X106857000Y33749000D02*
X106857000Y36149000D01*
X101057000Y33749000D02*
X106857000Y33749000D01*
X101132000Y33749000D02*
X101132000Y36149000D01*
X101257000Y33749000D02*
X101257000Y36149000D01*
X101032000Y36149000D02*
X101032000Y33749000D01*
X101432000Y33749000D02*
X101432000Y36149000D01*
X101607000Y33749000D02*
X101607000Y36149000D01*
X101782000Y33749000D02*
X101782000Y36149000D01*
G04 #@! TO.C,D34*
X283069000Y74249000D02*
X277269000Y74249000D01*
X283069000Y71849000D02*
X283069000Y74249000D01*
X277269000Y71849000D02*
X283069000Y71849000D01*
X277344000Y71849000D02*
X277344000Y74249000D01*
X277469000Y71849000D02*
X277469000Y74249000D01*
X277244000Y74249000D02*
X277244000Y71849000D01*
X277644000Y71849000D02*
X277644000Y74249000D01*
X277819000Y71849000D02*
X277819000Y74249000D01*
X277994000Y71849000D02*
X277994000Y74249000D01*
G04 #@! TO.C,D20*
X6844200Y74249000D02*
X1044200Y74249000D01*
X6844200Y71849000D02*
X6844200Y74249000D01*
X1044200Y71849000D02*
X6844200Y71849000D01*
X1119200Y71849000D02*
X1119200Y74249000D01*
X1244200Y71849000D02*
X1244200Y74249000D01*
X1019200Y74249000D02*
X1019200Y71849000D01*
X1419200Y71849000D02*
X1419200Y74249000D01*
X1594200Y71849000D02*
X1594200Y74249000D01*
X1769200Y71849000D02*
X1769200Y74249000D01*
G04 #@! TO.C,D69*
X-7755800Y14699000D02*
X-7755800Y17099000D01*
X-7930800Y14699000D02*
X-7930800Y17099000D01*
X-8105800Y14699000D02*
X-8105800Y17099000D01*
X-8505800Y17099000D02*
X-8505800Y14699000D01*
X-8280800Y14699000D02*
X-8280800Y17099000D01*
X-8405800Y14699000D02*
X-8405800Y17099000D01*
X-8480800Y14699000D02*
X-2680800Y14699000D01*
X-2680800Y14699000D02*
X-2680800Y17099000D01*
X-2680800Y17099000D02*
X-8480800Y17099000D01*
G04 #@! TO.C,D40*
X71138000Y55199000D02*
X65338000Y55199000D01*
X71138000Y52799000D02*
X71138000Y55199000D01*
X65338000Y52799000D02*
X71138000Y52799000D01*
X65413000Y52799000D02*
X65413000Y55199000D01*
X65538000Y52799000D02*
X65538000Y55199000D01*
X65313000Y55199000D02*
X65313000Y52799000D01*
X65713000Y52799000D02*
X65713000Y55199000D01*
X65888000Y52799000D02*
X65888000Y55199000D01*
X66063000Y52799000D02*
X66063000Y55199000D01*
G04 #@! TO.C,D56*
X32137500Y18699000D02*
X32137500Y12899000D01*
X34537500Y18699000D02*
X32137500Y18699000D01*
X34537500Y12899000D02*
X34537500Y18699000D01*
X34537500Y12974000D02*
X32137500Y12974000D01*
X34537500Y13099000D02*
X32137500Y13099000D01*
X32137500Y12874000D02*
X34537500Y12874000D01*
X34537500Y13274000D02*
X32137500Y13274000D01*
X34537500Y13449000D02*
X32137500Y13449000D01*
X34537500Y13624000D02*
X32137500Y13624000D01*
G04 #@! TO.C,D23*
X63682000Y71849000D02*
X63682000Y74249000D01*
X63507000Y71849000D02*
X63507000Y74249000D01*
X63332000Y71849000D02*
X63332000Y74249000D01*
X62932000Y74249000D02*
X62932000Y71849000D01*
X63157000Y71849000D02*
X63157000Y74249000D01*
X63032000Y71849000D02*
X63032000Y74249000D01*
X62957000Y71849000D02*
X68757000Y71849000D01*
X68757000Y71849000D02*
X68757000Y74249000D01*
X68757000Y74249000D02*
X62957000Y74249000D01*
G04 #@! TO.C,D17*
X287519000Y90899000D02*
X287519000Y93299000D01*
X287344000Y90899000D02*
X287344000Y93299000D01*
X287169000Y90899000D02*
X287169000Y93299000D01*
X286769000Y93299000D02*
X286769000Y90899000D01*
X286994000Y90899000D02*
X286994000Y93299000D01*
X286869000Y90899000D02*
X286869000Y93299000D01*
X286794000Y90899000D02*
X292594000Y90899000D01*
X292594000Y90899000D02*
X292594000Y93299000D01*
X292594000Y93299000D02*
X286794000Y93299000D01*
G04 #@! TO.C,D32*
X244969000Y74249000D02*
X239169000Y74249000D01*
X244969000Y71849000D02*
X244969000Y74249000D01*
X239169000Y71849000D02*
X244969000Y71849000D01*
X239244000Y71849000D02*
X239244000Y74249000D01*
X239369000Y71849000D02*
X239369000Y74249000D01*
X239144000Y74249000D02*
X239144000Y71849000D01*
X239544000Y71849000D02*
X239544000Y74249000D01*
X239719000Y71849000D02*
X239719000Y74249000D01*
X239894000Y71849000D02*
X239894000Y74249000D01*
G04 #@! TO.C,D31*
X220844000Y71849000D02*
X220844000Y74249000D01*
X220669000Y71849000D02*
X220669000Y74249000D01*
X220494000Y71849000D02*
X220494000Y74249000D01*
X220094000Y74249000D02*
X220094000Y71849000D01*
X220319000Y71849000D02*
X220319000Y74249000D01*
X220194000Y71849000D02*
X220194000Y74249000D01*
X220119000Y71849000D02*
X225919000Y71849000D01*
X225919000Y71849000D02*
X225919000Y74249000D01*
X225919000Y74249000D02*
X220119000Y74249000D01*
G04 #@! TO.C,D9*
X135119000Y90899000D02*
X135119000Y93299000D01*
X134944000Y90899000D02*
X134944000Y93299000D01*
X134769000Y90899000D02*
X134769000Y93299000D01*
X134369000Y93299000D02*
X134369000Y90899000D01*
X134594000Y90899000D02*
X134594000Y93299000D01*
X134469000Y90899000D02*
X134469000Y93299000D01*
X134394000Y90899000D02*
X140194000Y90899000D01*
X140194000Y90899000D02*
X140194000Y93299000D01*
X140194000Y93299000D02*
X134394000Y93299000D01*
G04 #@! TO.C,D64*
X221157000Y36149000D02*
X215357000Y36149000D01*
X221157000Y33749000D02*
X221157000Y36149000D01*
X215357000Y33749000D02*
X221157000Y33749000D01*
X215432000Y33749000D02*
X215432000Y36149000D01*
X215557000Y33749000D02*
X215557000Y36149000D01*
X215332000Y36149000D02*
X215332000Y33749000D01*
X215732000Y33749000D02*
X215732000Y36149000D01*
X215907000Y33749000D02*
X215907000Y36149000D01*
X216082000Y33749000D02*
X216082000Y36149000D01*
G04 #@! TO.C,D74*
X185438000Y17099000D02*
X179638000Y17099000D01*
X185438000Y14699000D02*
X185438000Y17099000D01*
X179638000Y14699000D02*
X185438000Y14699000D01*
X179713000Y14699000D02*
X179713000Y17099000D01*
X179838000Y14699000D02*
X179838000Y17099000D01*
X179613000Y17099000D02*
X179613000Y14699000D01*
X180013000Y14699000D02*
X180013000Y17099000D01*
X180188000Y14699000D02*
X180188000Y17099000D01*
X180363000Y14699000D02*
X180363000Y17099000D01*
G04 #@! TO.C,D76*
X280688000Y17099000D02*
X274888000Y17099000D01*
X280688000Y14699000D02*
X280688000Y17099000D01*
X274888000Y14699000D02*
X280688000Y14699000D01*
X274963000Y14699000D02*
X274963000Y17099000D01*
X275088000Y14699000D02*
X275088000Y17099000D01*
X274863000Y17099000D02*
X274863000Y14699000D01*
X275263000Y14699000D02*
X275263000Y17099000D01*
X275438000Y14699000D02*
X275438000Y17099000D01*
X275613000Y14699000D02*
X275613000Y17099000D01*
G04 #@! TO.C,D49*
X244656000Y52799000D02*
X244656000Y55199000D01*
X244481000Y52799000D02*
X244481000Y55199000D01*
X244306000Y52799000D02*
X244306000Y55199000D01*
X243906000Y55199000D02*
X243906000Y52799000D01*
X244131000Y52799000D02*
X244131000Y55199000D01*
X244006000Y52799000D02*
X244006000Y55199000D01*
X243931000Y52799000D02*
X249731000Y52799000D01*
X249731000Y52799000D02*
X249731000Y55199000D01*
X249731000Y55199000D02*
X243931000Y55199000D01*
G04 #@! TO.C,D70*
X20819200Y14699000D02*
X20819200Y17099000D01*
X20644200Y14699000D02*
X20644200Y17099000D01*
X20469200Y14699000D02*
X20469200Y17099000D01*
X20069200Y17099000D02*
X20069200Y14699000D01*
X20294200Y14699000D02*
X20294200Y17099000D01*
X20169200Y14699000D02*
X20169200Y17099000D01*
X20094200Y14699000D02*
X25894200Y14699000D01*
X25894200Y14699000D02*
X25894200Y17099000D01*
X25894200Y17099000D02*
X20094200Y17099000D01*
G04 #@! TO.C,D75*
X256875000Y17099000D02*
X251075000Y17099000D01*
X256875000Y14699000D02*
X256875000Y17099000D01*
X251075000Y14699000D02*
X256875000Y14699000D01*
X251150000Y14699000D02*
X251150000Y17099000D01*
X251275000Y14699000D02*
X251275000Y17099000D01*
X251050000Y17099000D02*
X251050000Y14699000D01*
X251450000Y14699000D02*
X251450000Y17099000D01*
X251625000Y14699000D02*
X251625000Y17099000D01*
X251800000Y14699000D02*
X251800000Y17099000D01*
G04 #@! TO.C,D8*
X121144000Y93299000D02*
X115344000Y93299000D01*
X121144000Y90899000D02*
X121144000Y93299000D01*
X115344000Y90899000D02*
X121144000Y90899000D01*
X115419000Y90899000D02*
X115419000Y93299000D01*
X115544000Y90899000D02*
X115544000Y93299000D01*
X115319000Y93299000D02*
X115319000Y90899000D01*
X115719000Y90899000D02*
X115719000Y93299000D01*
X115894000Y90899000D02*
X115894000Y93299000D01*
X116069000Y90899000D02*
X116069000Y93299000D01*
G04 #@! TO.C,D28*
X163694000Y71849000D02*
X163694000Y74249000D01*
X163519000Y71849000D02*
X163519000Y74249000D01*
X163344000Y71849000D02*
X163344000Y74249000D01*
X162944000Y74249000D02*
X162944000Y71849000D01*
X163169000Y71849000D02*
X163169000Y74249000D01*
X163044000Y71849000D02*
X163044000Y74249000D01*
X162969000Y71849000D02*
X168769000Y71849000D01*
X168769000Y71849000D02*
X168769000Y74249000D01*
X168769000Y74249000D02*
X162969000Y74249000D01*
G04 #@! TO.C,D13*
X211319000Y90899000D02*
X211319000Y93299000D01*
X211144000Y90899000D02*
X211144000Y93299000D01*
X210969000Y90899000D02*
X210969000Y93299000D01*
X210569000Y93299000D02*
X210569000Y90899000D01*
X210794000Y90899000D02*
X210794000Y93299000D01*
X210669000Y90899000D02*
X210669000Y93299000D01*
X210594000Y90899000D02*
X216394000Y90899000D01*
X216394000Y90899000D02*
X216394000Y93299000D01*
X216394000Y93299000D02*
X210594000Y93299000D01*
G04 #@! TO.C,D66*
X254182000Y33749000D02*
X254182000Y36149000D01*
X254007000Y33749000D02*
X254007000Y36149000D01*
X253832000Y33749000D02*
X253832000Y36149000D01*
X253432000Y36149000D02*
X253432000Y33749000D01*
X253657000Y33749000D02*
X253657000Y36149000D01*
X253532000Y33749000D02*
X253532000Y36149000D01*
X253457000Y33749000D02*
X259257000Y33749000D01*
X259257000Y33749000D02*
X259257000Y36149000D01*
X259257000Y36149000D02*
X253457000Y36149000D01*
G04 #@! TO.C,D6*
X83044000Y93299000D02*
X77244000Y93299000D01*
X83044000Y90899000D02*
X83044000Y93299000D01*
X77244000Y90899000D02*
X83044000Y90899000D01*
X77319000Y90899000D02*
X77319000Y93299000D01*
X77444000Y90899000D02*
X77444000Y93299000D01*
X77219000Y93299000D02*
X77219000Y90899000D01*
X77619000Y90899000D02*
X77619000Y93299000D01*
X77794000Y90899000D02*
X77794000Y93299000D01*
X77969000Y90899000D02*
X77969000Y93299000D01*
G04 #@! TO.C,D44*
X154481000Y55199000D02*
X148681000Y55199000D01*
X154481000Y52799000D02*
X154481000Y55199000D01*
X148681000Y52799000D02*
X154481000Y52799000D01*
X148756000Y52799000D02*
X148756000Y55199000D01*
X148881000Y52799000D02*
X148881000Y55199000D01*
X148656000Y55199000D02*
X148656000Y52799000D01*
X149056000Y52799000D02*
X149056000Y55199000D01*
X149231000Y52799000D02*
X149231000Y55199000D01*
X149406000Y52799000D02*
X149406000Y55199000D01*
G04 #@! TO.C,D46*
X192581000Y55199000D02*
X186781000Y55199000D01*
X192581000Y52799000D02*
X192581000Y55199000D01*
X186781000Y52799000D02*
X192581000Y52799000D01*
X186856000Y52799000D02*
X186856000Y55199000D01*
X186981000Y52799000D02*
X186981000Y55199000D01*
X186756000Y55199000D02*
X186756000Y52799000D01*
X187156000Y52799000D02*
X187156000Y55199000D01*
X187331000Y52799000D02*
X187331000Y55199000D01*
X187506000Y52799000D02*
X187506000Y55199000D01*
G04 #@! TO.C,D51*
X282756000Y52799000D02*
X282756000Y55199000D01*
X282581000Y52799000D02*
X282581000Y55199000D01*
X282406000Y52799000D02*
X282406000Y55199000D01*
X282006000Y55199000D02*
X282006000Y52799000D01*
X282231000Y52799000D02*
X282231000Y55199000D01*
X282106000Y52799000D02*
X282106000Y55199000D01*
X282031000Y52799000D02*
X287831000Y52799000D01*
X287831000Y52799000D02*
X287831000Y55199000D01*
X287831000Y55199000D02*
X282031000Y55199000D01*
G04 #@! TO.C,D11*
X173219000Y90899000D02*
X173219000Y93299000D01*
X173044000Y90899000D02*
X173044000Y93299000D01*
X172869000Y90899000D02*
X172869000Y93299000D01*
X172469000Y93299000D02*
X172469000Y90899000D01*
X172694000Y90899000D02*
X172694000Y93299000D01*
X172569000Y90899000D02*
X172569000Y93299000D01*
X172494000Y90899000D02*
X178294000Y90899000D01*
X178294000Y90899000D02*
X178294000Y93299000D01*
X178294000Y93299000D02*
X172494000Y93299000D01*
G04 #@! TO.C,D63*
X202107000Y36149000D02*
X196307000Y36149000D01*
X202107000Y33749000D02*
X202107000Y36149000D01*
X196307000Y33749000D02*
X202107000Y33749000D01*
X196382000Y33749000D02*
X196382000Y36149000D01*
X196507000Y33749000D02*
X196507000Y36149000D01*
X196282000Y36149000D02*
X196282000Y33749000D01*
X196682000Y33749000D02*
X196682000Y36149000D01*
X196857000Y33749000D02*
X196857000Y36149000D01*
X197032000Y33749000D02*
X197032000Y36149000D01*
G04 #@! TO.C,D29*
X182744000Y71849000D02*
X182744000Y74249000D01*
X182569000Y71849000D02*
X182569000Y74249000D01*
X182394000Y71849000D02*
X182394000Y74249000D01*
X181994000Y74249000D02*
X181994000Y71849000D01*
X182219000Y71849000D02*
X182219000Y74249000D01*
X182094000Y71849000D02*
X182094000Y74249000D01*
X182019000Y71849000D02*
X187819000Y71849000D01*
X187819000Y71849000D02*
X187819000Y74249000D01*
X187819000Y74249000D02*
X182019000Y74249000D01*
G04 #@! TO.C,D55*
X20819200Y33749000D02*
X20819200Y36149000D01*
X20644200Y33749000D02*
X20644200Y36149000D01*
X20469200Y33749000D02*
X20469200Y36149000D01*
X20069200Y36149000D02*
X20069200Y33749000D01*
X20294200Y33749000D02*
X20294200Y36149000D01*
X20169200Y33749000D02*
X20169200Y36149000D01*
X20094200Y33749000D02*
X25894200Y33749000D01*
X25894200Y33749000D02*
X25894200Y36149000D01*
X25894200Y36149000D02*
X20094200Y36149000D01*
G04 #@! TO.C,D5*
X71919000Y80299000D02*
X69519000Y80299000D01*
X71919000Y80124000D02*
X69519000Y80124000D01*
X71919000Y79949000D02*
X69519000Y79949000D01*
X69519000Y79549000D02*
X71919000Y79549000D01*
X71919000Y79774000D02*
X69519000Y79774000D01*
X71919000Y79649000D02*
X69519000Y79649000D01*
X71919000Y79574000D02*
X71919000Y85374000D01*
X71919000Y85374000D02*
X69519000Y85374000D01*
X69519000Y85374000D02*
X69519000Y79574000D01*
G04 #@! TO.C,D43*
X130356000Y52799000D02*
X130356000Y55199000D01*
X130181000Y52799000D02*
X130181000Y55199000D01*
X130006000Y52799000D02*
X130006000Y55199000D01*
X129606000Y55199000D02*
X129606000Y52799000D01*
X129831000Y52799000D02*
X129831000Y55199000D01*
X129706000Y52799000D02*
X129706000Y55199000D01*
X129631000Y52799000D02*
X135431000Y52799000D01*
X135431000Y52799000D02*
X135431000Y55199000D01*
X135431000Y55199000D02*
X129631000Y55199000D01*
G04 #@! TO.C,D73*
X114000000Y17099000D02*
X108200000Y17099000D01*
X114000000Y14699000D02*
X114000000Y17099000D01*
X108200000Y14699000D02*
X114000000Y14699000D01*
X108275000Y14699000D02*
X108275000Y17099000D01*
X108400000Y14699000D02*
X108400000Y17099000D01*
X108175000Y17099000D02*
X108175000Y14699000D01*
X108575000Y14699000D02*
X108575000Y17099000D01*
X108750000Y14699000D02*
X108750000Y17099000D01*
X108925000Y14699000D02*
X108925000Y17099000D01*
G04 #@! TO.C,D33*
X258944000Y71849000D02*
X258944000Y74249000D01*
X258769000Y71849000D02*
X258769000Y74249000D01*
X258594000Y71849000D02*
X258594000Y74249000D01*
X258194000Y74249000D02*
X258194000Y71849000D01*
X258419000Y71849000D02*
X258419000Y74249000D01*
X258294000Y71849000D02*
X258294000Y74249000D01*
X258219000Y71849000D02*
X264019000Y71849000D01*
X264019000Y71849000D02*
X264019000Y74249000D01*
X264019000Y74249000D02*
X258219000Y74249000D01*
G04 #@! TO.C,D30*
X206869000Y74249000D02*
X201069000Y74249000D01*
X206869000Y71849000D02*
X206869000Y74249000D01*
X201069000Y71849000D02*
X206869000Y71849000D01*
X201144000Y71849000D02*
X201144000Y74249000D01*
X201269000Y71849000D02*
X201269000Y74249000D01*
X201044000Y74249000D02*
X201044000Y71849000D01*
X201444000Y71849000D02*
X201444000Y74249000D01*
X201619000Y71849000D02*
X201619000Y74249000D01*
X201794000Y71849000D02*
X201794000Y74249000D01*
G04 #@! TO.C,D35*
X294663000Y71849000D02*
X294663000Y74249000D01*
X294488000Y71849000D02*
X294488000Y74249000D01*
X294313000Y71849000D02*
X294313000Y74249000D01*
X293913000Y74249000D02*
X293913000Y71849000D01*
X294138000Y71849000D02*
X294138000Y74249000D01*
X294013000Y71849000D02*
X294013000Y74249000D01*
X293938000Y71849000D02*
X299738000Y71849000D01*
X299738000Y71849000D02*
X299738000Y74249000D01*
X299738000Y74249000D02*
X293938000Y74249000D01*
G04 #@! TO.C,D24*
X92569000Y74249000D02*
X86769000Y74249000D01*
X92569000Y71849000D02*
X92569000Y74249000D01*
X86769000Y71849000D02*
X92569000Y71849000D01*
X86844000Y71849000D02*
X86844000Y74249000D01*
X86969000Y71849000D02*
X86969000Y74249000D01*
X86744000Y74249000D02*
X86744000Y71849000D01*
X87144000Y71849000D02*
X87144000Y74249000D01*
X87319000Y71849000D02*
X87319000Y74249000D01*
X87494000Y71849000D02*
X87494000Y74249000D01*
G04 #@! TO.C,D59*
X125907000Y36149000D02*
X120107000Y36149000D01*
X125907000Y33749000D02*
X125907000Y36149000D01*
X120107000Y33749000D02*
X125907000Y33749000D01*
X120182000Y33749000D02*
X120182000Y36149000D01*
X120307000Y33749000D02*
X120307000Y36149000D01*
X120082000Y36149000D02*
X120082000Y33749000D01*
X120482000Y33749000D02*
X120482000Y36149000D01*
X120657000Y33749000D02*
X120657000Y36149000D01*
X120832000Y33749000D02*
X120832000Y36149000D01*
G04 #@! TO.C,D41*
X92256000Y52799000D02*
X92256000Y55199000D01*
X92081000Y52799000D02*
X92081000Y55199000D01*
X91906000Y52799000D02*
X91906000Y55199000D01*
X91506000Y55199000D02*
X91506000Y52799000D01*
X91731000Y52799000D02*
X91731000Y55199000D01*
X91606000Y52799000D02*
X91606000Y55199000D01*
X91531000Y52799000D02*
X97331000Y52799000D01*
X97331000Y52799000D02*
X97331000Y55199000D01*
X97331000Y55199000D02*
X91531000Y55199000D01*
G04 #@! TO.C,D1*
X-17280800Y90899000D02*
X-17280800Y93299000D01*
X-17455800Y90899000D02*
X-17455800Y93299000D01*
X-17630800Y90899000D02*
X-17630800Y93299000D01*
X-18030800Y93299000D02*
X-18030800Y90899000D01*
X-17805800Y90899000D02*
X-17805800Y93299000D01*
X-17930800Y90899000D02*
X-17930800Y93299000D01*
X-18005800Y90899000D02*
X-12205800Y90899000D01*
X-12205800Y90899000D02*
X-12205800Y93299000D01*
X-12205800Y93299000D02*
X-18005800Y93299000D01*
G04 #@! TO.C,D27*
X149719000Y74249000D02*
X143919000Y74249000D01*
X149719000Y71849000D02*
X149719000Y74249000D01*
X143919000Y71849000D02*
X149719000Y71849000D01*
X143994000Y71849000D02*
X143994000Y74249000D01*
X144119000Y71849000D02*
X144119000Y74249000D01*
X143894000Y74249000D02*
X143894000Y71849000D01*
X144294000Y71849000D02*
X144294000Y74249000D01*
X144469000Y71849000D02*
X144469000Y74249000D01*
X144644000Y71849000D02*
X144644000Y74249000D01*
G04 #@! TD*
M02*
