G04 #@! TF.GenerationSoftware,KiCad,Pcbnew,(5.1.6)-1*
G04 #@! TF.CreationDate,2020-07-18T03:31:17-04:00*
G04 #@! TF.ProjectId,southpawpcb,736f7574-6870-4617-9770-63622e6b6963,rev?*
G04 #@! TF.SameCoordinates,Original*
G04 #@! TF.FileFunction,Soldermask,Top*
G04 #@! TF.FilePolarity,Negative*
%FSLAX46Y46*%
G04 Gerber Fmt 4.6, Leading zero omitted, Abs format (unit mm)*
G04 Created by KiCad (PCBNEW (5.1.6)-1) date 2020-07-18 03:31:17*
%MOMM*%
%LPD*%
G01*
G04 APERTURE LIST*
%ADD10C,4.087800*%
%ADD11C,1.850000*%
%ADD12O,1.100000X1.700000*%
%ADD13O,1.100000X2.200000*%
%ADD14C,0.750000*%
%ADD15C,1.700000*%
%ADD16R,1.700000X1.700000*%
%ADD17R,1.300000X1.300000*%
%ADD18C,3.148000*%
G04 APERTURE END LIST*
D10*
G04 #@! TO.C,K44*
X151681000Y44474000D03*
D11*
X146601000Y44474000D03*
X156761000Y44474000D03*
G04 #@! TD*
G04 #@! TO.C,K71*
X68655000Y6374000D03*
X58495000Y6374000D03*
D10*
X63575000Y6374000D03*
G04 #@! TD*
G04 #@! TO.C,K2*
X4044200Y82574000D03*
D11*
X-1035800Y82574000D03*
X9124200Y82574000D03*
G04 #@! TD*
D12*
G04 #@! TO.C,USB1*
X9019000Y96333000D03*
X379000Y96333000D03*
D13*
X9019000Y92153000D03*
X379000Y92153000D03*
D14*
X1809000Y92683000D03*
X7589000Y92683000D03*
G04 #@! TD*
D11*
G04 #@! TO.C,K46*
X194861000Y44474000D03*
X184701000Y44474000D03*
D10*
X189781000Y44474000D03*
G04 #@! TD*
D15*
G04 #@! TO.C,D7*
X103194000Y92099000D03*
D16*
X95394000Y92099000D03*
D17*
X100869000Y92099000D03*
X97719000Y92099000D03*
G04 #@! TD*
D11*
G04 #@! TO.C,K65*
X242487000Y25424000D03*
X232327000Y25424000D03*
D10*
X237407000Y25424000D03*
G04 #@! TD*
D17*
G04 #@! TO.C,D48*
X226306000Y53999000D03*
X229456000Y53999000D03*
D16*
X223981000Y53999000D03*
D15*
X231781000Y53999000D03*
G04 #@! TD*
D10*
G04 #@! TO.C,K69*
X6457200Y-1881000D03*
X-17418800Y-1881000D03*
D18*
X6457200Y13359000D03*
X-17418800Y13359000D03*
D11*
X-400800Y6374000D03*
X-10560800Y6374000D03*
D10*
X-5480800Y6374000D03*
G04 #@! TD*
D11*
G04 #@! TO.C,K77*
X306780000Y6374000D03*
X296620000Y6374000D03*
D10*
X301700000Y6374000D03*
G04 #@! TD*
D15*
G04 #@! TO.C,D72*
X90631000Y15899000D03*
D16*
X98431000Y15899000D03*
D17*
X92956000Y15899000D03*
X96106000Y15899000D03*
G04 #@! TD*
D10*
G04 #@! TO.C,K59*
X123107000Y25424000D03*
D11*
X118027000Y25424000D03*
X128187000Y25424000D03*
G04 #@! TD*
D15*
G04 #@! TO.C,D39*
X26994200Y53999000D03*
D16*
X19194200Y53999000D03*
D17*
X24669200Y53999000D03*
X21519200Y53999000D03*
G04 #@! TD*
D10*
G04 #@! TO.C,K25*
X108819000Y63524000D03*
D11*
X103739000Y63524000D03*
X113899000Y63524000D03*
G04 #@! TD*
G04 #@! TO.C,K8*
X123424000Y82574000D03*
X113264000Y82574000D03*
D10*
X118344000Y82574000D03*
G04 #@! TD*
D17*
G04 #@! TO.C,D2*
X12446000Y81102000D03*
X12446000Y84252000D03*
D16*
X12446000Y78777000D03*
D15*
X12446000Y86577000D03*
G04 #@! TD*
D17*
G04 #@! TO.C,D50*
X264406000Y53999000D03*
X267556000Y53999000D03*
D16*
X262081000Y53999000D03*
D15*
X269881000Y53999000D03*
G04 #@! TD*
D11*
G04 #@! TO.C,K28*
X171049000Y63524000D03*
X160889000Y63524000D03*
D10*
X165969000Y63524000D03*
G04 #@! TD*
D15*
G04 #@! TO.C,D21*
X26994200Y73049000D03*
D16*
X19194200Y73049000D03*
D17*
X24669200Y73049000D03*
X21519200Y73049000D03*
G04 #@! TD*
G04 #@! TO.C,D53*
X-16580800Y34949000D03*
X-13430800Y34949000D03*
D16*
X-18905800Y34949000D03*
D15*
X-11105800Y34949000D03*
G04 #@! TD*
D17*
G04 #@! TO.C,D26*
X126294000Y73049000D03*
X129444000Y73049000D03*
D16*
X123969000Y73049000D03*
D15*
X131769000Y73049000D03*
G04 #@! TD*
G04 #@! TO.C,D60*
X146057000Y34949000D03*
D16*
X138257000Y34949000D03*
D17*
X143732000Y34949000D03*
X140582000Y34949000D03*
G04 #@! TD*
G04 #@! TO.C,D42*
X112006000Y53999000D03*
X115156000Y53999000D03*
D16*
X109681000Y53999000D03*
D15*
X117481000Y53999000D03*
G04 #@! TD*
D17*
G04 #@! TO.C,D4*
X40569200Y92099000D03*
X43719200Y92099000D03*
D16*
X38244200Y92099000D03*
D15*
X46044200Y92099000D03*
G04 #@! TD*
D11*
G04 #@! TO.C,K27*
X151999000Y63524000D03*
X141839000Y63524000D03*
D10*
X146919000Y63524000D03*
G04 #@! TD*
D15*
G04 #@! TO.C,D3*
X26994200Y92099000D03*
D16*
X19194200Y92099000D03*
D17*
X24669200Y92099000D03*
X21519200Y92099000D03*
G04 #@! TD*
D11*
G04 #@! TO.C,K5*
X66274000Y82574000D03*
X56114000Y82574000D03*
D10*
X61194000Y82574000D03*
G04 #@! TD*
G04 #@! TO.C,K64*
X218357000Y25424000D03*
D11*
X213277000Y25424000D03*
X223437000Y25424000D03*
G04 #@! TD*
D15*
G04 #@! TO.C,D25*
X112719000Y73049000D03*
D16*
X104919000Y73049000D03*
D17*
X110394000Y73049000D03*
X107244000Y73049000D03*
G04 #@! TD*
D11*
G04 #@! TO.C,K70*
X28174200Y6374000D03*
X18014200Y6374000D03*
D10*
X23094200Y6374000D03*
G04 #@! TD*
D17*
G04 #@! TO.C,D71*
X72294000Y15899000D03*
X69144000Y15899000D03*
D16*
X74619000Y15899000D03*
D15*
X66819000Y15899000D03*
G04 #@! TD*
D10*
G04 #@! TO.C,K68*
X323163000Y17169000D03*
X299287000Y17169000D03*
D18*
X323163000Y32409000D03*
X299287000Y32409000D03*
D11*
X316305000Y25424000D03*
X306145000Y25424000D03*
D10*
X311225000Y25424000D03*
G04 #@! TD*
G04 #@! TO.C,K67*
X275507000Y25424000D03*
D11*
X270427000Y25424000D03*
X280587000Y25424000D03*
G04 #@! TD*
D17*
G04 #@! TO.C,D78*
X335038000Y4799000D03*
X335038000Y7949000D03*
D16*
X335038000Y2474000D03*
D15*
X335038000Y10274000D03*
G04 #@! TD*
D17*
G04 #@! TO.C,D77*
X310419000Y15899000D03*
X307269000Y15899000D03*
D16*
X312744000Y15899000D03*
D15*
X304944000Y15899000D03*
G04 #@! TD*
G04 #@! TO.C,D45*
X174631000Y53999000D03*
D16*
X166831000Y53999000D03*
D17*
X172306000Y53999000D03*
X169156000Y53999000D03*
G04 #@! TD*
G04 #@! TO.C,D16*
X269169000Y92099000D03*
X272319000Y92099000D03*
D16*
X266844000Y92099000D03*
D15*
X274644000Y92099000D03*
G04 #@! TD*
D11*
G04 #@! TO.C,K26*
X132949000Y63524000D03*
X122789000Y63524000D03*
D10*
X127869000Y63524000D03*
G04 #@! TD*
G04 #@! TO.C,K6*
X80244000Y82574000D03*
D11*
X75164000Y82574000D03*
X85324000Y82574000D03*
G04 #@! TD*
D17*
G04 #@! TO.C,D22*
X32619200Y52424000D03*
X32619200Y55574000D03*
D16*
X32619200Y50099000D03*
D15*
X32619200Y57899000D03*
G04 #@! TD*
D17*
G04 #@! TO.C,D10*
X165969000Y80999000D03*
X165969000Y84149000D03*
D16*
X165969000Y78674000D03*
D15*
X165969000Y86474000D03*
G04 #@! TD*
D10*
G04 #@! TO.C,K30*
X204069000Y63524000D03*
D11*
X198989000Y63524000D03*
X209149000Y63524000D03*
G04 #@! TD*
D15*
G04 #@! TO.C,D54*
X7944200Y34949000D03*
D16*
X144200Y34949000D03*
D17*
X5619200Y34949000D03*
X2469200Y34949000D03*
G04 #@! TD*
D15*
G04 #@! TO.C,D19*
X-11105800Y73049000D03*
D16*
X-18905800Y73049000D03*
D17*
X-13430800Y73049000D03*
X-16580800Y73049000D03*
G04 #@! TD*
D10*
G04 #@! TO.C,K35*
X299319000Y63524000D03*
D11*
X294239000Y63524000D03*
X304399000Y63524000D03*
G04 #@! TD*
D15*
G04 #@! TO.C,D57*
X77000000Y34949000D03*
D16*
X69200000Y34949000D03*
D17*
X74675000Y34949000D03*
X71525000Y34949000D03*
G04 #@! TD*
D10*
G04 #@! TO.C,K31*
X223119000Y63524000D03*
D11*
X218039000Y63524000D03*
X228199000Y63524000D03*
G04 #@! TD*
D15*
G04 #@! TO.C,D47*
X212731000Y53999000D03*
D16*
X204931000Y53999000D03*
D17*
X210406000Y53999000D03*
X207256000Y53999000D03*
G04 #@! TD*
D15*
G04 #@! TO.C,D15*
X261219000Y86474000D03*
D16*
X261219000Y78674000D03*
D17*
X261219000Y84149000D03*
X261219000Y80999000D03*
G04 #@! TD*
G04 #@! TO.C,D67*
X273932000Y34949000D03*
X277082000Y34949000D03*
D16*
X271607000Y34949000D03*
D15*
X279407000Y34949000D03*
G04 #@! TD*
D11*
G04 #@! TO.C,K40*
X73418000Y44474000D03*
X63258000Y44474000D03*
D10*
X68338000Y44474000D03*
G04 #@! TD*
D11*
G04 #@! TO.C,K63*
X204387000Y25424000D03*
X194227000Y25424000D03*
D10*
X199307000Y25424000D03*
G04 #@! TD*
G04 #@! TO.C,K41*
X94531000Y44474000D03*
D11*
X89451000Y44474000D03*
X99611000Y44474000D03*
G04 #@! TD*
D17*
G04 #@! TO.C,D36*
X319175000Y73049000D03*
X322325000Y73049000D03*
D16*
X316850000Y73049000D03*
D15*
X324650000Y73049000D03*
G04 #@! TD*
G04 #@! TO.C,D62*
X184157000Y34949000D03*
D16*
X176357000Y34949000D03*
D17*
X181832000Y34949000D03*
X178682000Y34949000D03*
G04 #@! TD*
D15*
G04 #@! TO.C,D61*
X165107000Y34949000D03*
D16*
X157307000Y34949000D03*
D17*
X162782000Y34949000D03*
X159632000Y34949000D03*
G04 #@! TD*
G04 #@! TO.C,D52*
X314413000Y53999000D03*
X317563000Y53999000D03*
D16*
X312088000Y53999000D03*
D15*
X319888000Y53999000D03*
G04 #@! TD*
D11*
G04 #@! TO.C,K43*
X137711000Y44474000D03*
X127551000Y44474000D03*
D10*
X132631000Y44474000D03*
G04 #@! TD*
G04 #@! TO.C,K73*
X111200000Y6374000D03*
D11*
X106120000Y6374000D03*
X116280000Y6374000D03*
G04 #@! TD*
D15*
G04 #@! TO.C,D37*
X-11105800Y53999000D03*
D16*
X-18905800Y53999000D03*
D17*
X-13430800Y53999000D03*
X-16580800Y53999000D03*
G04 #@! TD*
D11*
G04 #@! TO.C,K49*
X252011000Y44474000D03*
X241851000Y44474000D03*
D10*
X246931000Y44474000D03*
G04 #@! TD*
G04 #@! TO.C,K72*
X87388000Y6374000D03*
D11*
X82308000Y6374000D03*
X92468000Y6374000D03*
G04 #@! TD*
D15*
G04 #@! TO.C,D65*
X241307000Y34949000D03*
D16*
X233507000Y34949000D03*
D17*
X238982000Y34949000D03*
X235832000Y34949000D03*
G04 #@! TD*
D11*
G04 #@! TO.C,K15*
X256774000Y82574000D03*
X246614000Y82574000D03*
D10*
X251694000Y82574000D03*
G04 #@! TD*
D15*
G04 #@! TO.C,D14*
X236544000Y92099000D03*
D16*
X228744000Y92099000D03*
D17*
X234219000Y92099000D03*
X231069000Y92099000D03*
G04 #@! TD*
D15*
G04 #@! TO.C,D68*
X317507000Y34949000D03*
D16*
X309707000Y34949000D03*
D17*
X315182000Y34949000D03*
X312032000Y34949000D03*
G04 #@! TD*
G04 #@! TO.C,D18*
X316794000Y92099000D03*
X319944000Y92099000D03*
D16*
X314469000Y92099000D03*
D15*
X322269000Y92099000D03*
G04 #@! TD*
D17*
G04 #@! TO.C,D38*
X2469200Y53999000D03*
X5619200Y53999000D03*
D16*
X144200Y53999000D03*
D15*
X7944200Y53999000D03*
G04 #@! TD*
D17*
G04 #@! TO.C,D12*
X192969000Y92099000D03*
X196119000Y92099000D03*
D16*
X190644000Y92099000D03*
D15*
X198444000Y92099000D03*
G04 #@! TD*
D10*
G04 #@! TO.C,K22*
X42144200Y53999000D03*
D11*
X42144200Y48919000D03*
X42144200Y59079000D03*
D18*
X35159200Y42061000D03*
X35159200Y65937000D03*
D10*
X50399200Y42061000D03*
X50399200Y65937000D03*
G04 #@! TD*
D17*
G04 #@! TO.C,D58*
X102482000Y34949000D03*
X105632000Y34949000D03*
D16*
X100157000Y34949000D03*
D15*
X107957000Y34949000D03*
G04 #@! TD*
D17*
G04 #@! TO.C,D34*
X278694000Y73049000D03*
X281844000Y73049000D03*
D16*
X276369000Y73049000D03*
D15*
X284169000Y73049000D03*
G04 #@! TD*
D17*
G04 #@! TO.C,D20*
X2469200Y73049000D03*
X5619200Y73049000D03*
D16*
X144200Y73049000D03*
D15*
X7944200Y73049000D03*
G04 #@! TD*
G04 #@! TO.C,D69*
X-1580800Y15899000D03*
D16*
X-9380800Y15899000D03*
D17*
X-3905800Y15899000D03*
X-7055800Y15899000D03*
G04 #@! TD*
D10*
G04 #@! TO.C,K16*
X270744000Y82574000D03*
D11*
X265664000Y82574000D03*
X275824000Y82574000D03*
G04 #@! TD*
D10*
G04 #@! TO.C,K37*
X-15005800Y44474000D03*
D11*
X-20085800Y44474000D03*
X-9925800Y44474000D03*
G04 #@! TD*
D10*
G04 #@! TO.C,K36*
X323131000Y63524000D03*
D11*
X318051000Y63524000D03*
X328211000Y63524000D03*
G04 #@! TD*
G04 #@! TO.C,K9*
X142474000Y82574000D03*
X132314000Y82574000D03*
D10*
X137394000Y82574000D03*
G04 #@! TD*
D11*
G04 #@! TO.C,K54*
X9124200Y25424000D03*
X-1035800Y25424000D03*
D10*
X4044200Y25424000D03*
G04 #@! TD*
G04 #@! TO.C,K57*
X85038000Y17169000D03*
X61162000Y17169000D03*
D18*
X85038000Y32409000D03*
X61162000Y32409000D03*
D11*
X78180000Y25424000D03*
X68020000Y25424000D03*
D10*
X73100000Y25424000D03*
G04 #@! TD*
D11*
G04 #@! TO.C,K51*
X290111000Y44474000D03*
X279951000Y44474000D03*
D10*
X285031000Y44474000D03*
G04 #@! TD*
D11*
G04 #@! TO.C,K11*
X180574000Y82574000D03*
X170414000Y82574000D03*
D10*
X175494000Y82574000D03*
G04 #@! TD*
G04 #@! TO.C,K14*
X232644000Y82574000D03*
D11*
X227564000Y82574000D03*
X237724000Y82574000D03*
G04 #@! TD*
D17*
G04 #@! TO.C,D40*
X66763000Y53999000D03*
X69913000Y53999000D03*
D16*
X64438000Y53999000D03*
D15*
X72238000Y53999000D03*
G04 #@! TD*
D10*
G04 #@! TO.C,K10*
X156444000Y82574000D03*
D11*
X151364000Y82574000D03*
X161524000Y82574000D03*
G04 #@! TD*
G04 #@! TO.C,K62*
X185337000Y25424000D03*
X175177000Y25424000D03*
D10*
X180257000Y25424000D03*
G04 #@! TD*
D11*
G04 #@! TO.C,K60*
X147237000Y25424000D03*
X137077000Y25424000D03*
D10*
X142157000Y25424000D03*
G04 #@! TD*
D11*
G04 #@! TO.C,K58*
X109137000Y25424000D03*
X98977000Y25424000D03*
D10*
X104057000Y25424000D03*
G04 #@! TD*
D11*
G04 #@! TO.C,K38*
X9124200Y44474000D03*
X-1035800Y44474000D03*
D10*
X4044200Y44474000D03*
G04 #@! TD*
D17*
G04 #@! TO.C,D56*
X33337500Y14324000D03*
X33337500Y17474000D03*
D16*
X33337500Y11999000D03*
D15*
X33337500Y19799000D03*
G04 #@! TD*
D10*
G04 #@! TO.C,K52*
X315988000Y44474000D03*
D11*
X310908000Y44474000D03*
X321068000Y44474000D03*
D18*
X304050000Y51459000D03*
X327926000Y51459000D03*
D10*
X304050000Y36219000D03*
X327926000Y36219000D03*
G04 #@! TD*
G04 #@! TO.C,K55*
X23094200Y25424000D03*
D11*
X18014200Y25424000D03*
X28174200Y25424000D03*
G04 #@! TD*
D10*
G04 #@! TO.C,K50*
X265981000Y44474000D03*
D11*
X260901000Y44474000D03*
X271061000Y44474000D03*
G04 #@! TD*
D10*
G04 #@! TO.C,K56*
X42144200Y15899000D03*
D11*
X42144200Y10819000D03*
X42144200Y20979000D03*
D18*
X35159200Y3961000D03*
X35159200Y27837000D03*
D10*
X50399200Y3961000D03*
X50399200Y27837000D03*
G04 #@! TD*
G04 #@! TO.C,K39*
X23094200Y44474000D03*
D11*
X18014200Y44474000D03*
X28174200Y44474000D03*
G04 #@! TD*
D10*
G04 #@! TO.C,K12*
X194544000Y82574000D03*
D11*
X189464000Y82574000D03*
X199624000Y82574000D03*
G04 #@! TD*
D15*
G04 #@! TO.C,D23*
X69857000Y73049000D03*
D16*
X62057000Y73049000D03*
D17*
X67532000Y73049000D03*
X64382000Y73049000D03*
G04 #@! TD*
D10*
G04 #@! TO.C,K61*
X161207000Y25424000D03*
D11*
X156127000Y25424000D03*
X166287000Y25424000D03*
G04 #@! TD*
G04 #@! TO.C,K48*
X232961000Y44474000D03*
X222801000Y44474000D03*
D10*
X227881000Y44474000D03*
G04 #@! TD*
G04 #@! TO.C,K53*
X-15005800Y25424000D03*
D11*
X-20085800Y25424000D03*
X-9925800Y25424000D03*
G04 #@! TD*
G04 #@! TO.C,K76*
X282968000Y6374000D03*
X272808000Y6374000D03*
D10*
X277888000Y6374000D03*
G04 #@! TD*
D15*
G04 #@! TO.C,D17*
X293694000Y92099000D03*
D16*
X285894000Y92099000D03*
D17*
X291369000Y92099000D03*
X288219000Y92099000D03*
G04 #@! TD*
D11*
G04 #@! TO.C,K42*
X118661000Y44474000D03*
X108501000Y44474000D03*
D10*
X113581000Y44474000D03*
G04 #@! TD*
G04 #@! TO.C,K20*
X4044200Y63524000D03*
D11*
X-1035800Y63524000D03*
X9124200Y63524000D03*
G04 #@! TD*
D17*
G04 #@! TO.C,D32*
X240594000Y73049000D03*
X243744000Y73049000D03*
D16*
X238269000Y73049000D03*
D15*
X246069000Y73049000D03*
G04 #@! TD*
D11*
G04 #@! TO.C,K29*
X190099000Y63524000D03*
X179939000Y63524000D03*
D10*
X185019000Y63524000D03*
G04 #@! TD*
D15*
G04 #@! TO.C,D31*
X227019000Y73049000D03*
D16*
X219219000Y73049000D03*
D17*
X224694000Y73049000D03*
X221544000Y73049000D03*
G04 #@! TD*
D15*
G04 #@! TO.C,D9*
X141294000Y92099000D03*
D16*
X133494000Y92099000D03*
D17*
X138969000Y92099000D03*
X135819000Y92099000D03*
G04 #@! TD*
D10*
G04 #@! TO.C,K74*
X232637900Y-1881000D03*
X132638100Y-1881000D03*
D18*
X232637900Y13359000D03*
X132638100Y13359000D03*
D11*
X187718000Y6374000D03*
X177558000Y6374000D03*
D10*
X182638000Y6374000D03*
G04 #@! TD*
G04 #@! TO.C,K21*
X23094200Y63524000D03*
D11*
X18014200Y63524000D03*
X28174200Y63524000D03*
G04 #@! TD*
D17*
G04 #@! TO.C,D64*
X216782000Y34949000D03*
X219932000Y34949000D03*
D16*
X214457000Y34949000D03*
D15*
X222257000Y34949000D03*
G04 #@! TD*
D17*
G04 #@! TO.C,D74*
X181063000Y15899000D03*
X184213000Y15899000D03*
D16*
X178738000Y15899000D03*
D15*
X186538000Y15899000D03*
G04 #@! TD*
D11*
G04 #@! TO.C,K3*
X28174200Y82574000D03*
X18014200Y82574000D03*
D10*
X23094200Y82574000D03*
G04 #@! TD*
D17*
G04 #@! TO.C,D76*
X276313000Y15899000D03*
X279463000Y15899000D03*
D16*
X273988000Y15899000D03*
D15*
X281788000Y15899000D03*
G04 #@! TD*
G04 #@! TO.C,D49*
X250831000Y53999000D03*
D16*
X243031000Y53999000D03*
D17*
X248506000Y53999000D03*
X245356000Y53999000D03*
G04 #@! TD*
D10*
G04 #@! TO.C,K4*
X42144200Y82574000D03*
D11*
X37064200Y82574000D03*
X47224200Y82574000D03*
G04 #@! TD*
D15*
G04 #@! TO.C,D70*
X26994200Y15899000D03*
D16*
X19194200Y15899000D03*
D17*
X24669200Y15899000D03*
X21519200Y15899000D03*
G04 #@! TD*
D11*
G04 #@! TO.C,K7*
X104374000Y82574000D03*
X94214000Y82574000D03*
D10*
X99294000Y82574000D03*
G04 #@! TD*
D11*
G04 #@! TO.C,K23*
X71037000Y63524000D03*
X60877000Y63524000D03*
D10*
X65957000Y63524000D03*
G04 #@! TD*
D17*
G04 #@! TO.C,D75*
X252500000Y15899000D03*
X255650000Y15899000D03*
D16*
X250175000Y15899000D03*
D15*
X257975000Y15899000D03*
G04 #@! TD*
D11*
G04 #@! TO.C,K75*
X259155000Y6374000D03*
X248995000Y6374000D03*
D10*
X254075000Y6374000D03*
G04 #@! TD*
G04 #@! TO.C,K66*
X256457000Y25424000D03*
D11*
X251377000Y25424000D03*
X261537000Y25424000D03*
G04 #@! TD*
D17*
G04 #@! TO.C,D8*
X116769000Y92099000D03*
X119919000Y92099000D03*
D16*
X114444000Y92099000D03*
D15*
X122244000Y92099000D03*
G04 #@! TD*
G04 #@! TO.C,D28*
X169869000Y73049000D03*
D16*
X162069000Y73049000D03*
D17*
X167544000Y73049000D03*
X164394000Y73049000D03*
G04 #@! TD*
D15*
G04 #@! TO.C,D13*
X217494000Y92099000D03*
D16*
X209694000Y92099000D03*
D17*
X215169000Y92099000D03*
X212019000Y92099000D03*
G04 #@! TD*
D11*
G04 #@! TO.C,K13*
X218674000Y82574000D03*
X208514000Y82574000D03*
D10*
X213594000Y82574000D03*
G04 #@! TD*
D15*
G04 #@! TO.C,D66*
X260357000Y34949000D03*
D16*
X252557000Y34949000D03*
D17*
X258032000Y34949000D03*
X254882000Y34949000D03*
G04 #@! TD*
G04 #@! TO.C,D6*
X78669000Y92099000D03*
X81819000Y92099000D03*
D16*
X76344000Y92099000D03*
D15*
X84144000Y92099000D03*
G04 #@! TD*
D17*
G04 #@! TO.C,D44*
X150106000Y53999000D03*
X153256000Y53999000D03*
D16*
X147781000Y53999000D03*
D15*
X155581000Y53999000D03*
G04 #@! TD*
D11*
G04 #@! TO.C,K32*
X247249000Y63524000D03*
X237089000Y63524000D03*
D10*
X242169000Y63524000D03*
G04 #@! TD*
G04 #@! TO.C,K45*
X170731000Y44474000D03*
D11*
X165651000Y44474000D03*
X175811000Y44474000D03*
G04 #@! TD*
D17*
G04 #@! TO.C,D46*
X188206000Y53999000D03*
X191356000Y53999000D03*
D16*
X185881000Y53999000D03*
D15*
X193681000Y53999000D03*
G04 #@! TD*
D10*
G04 #@! TO.C,K78*
X325513000Y6374000D03*
D11*
X320433000Y6374000D03*
X330593000Y6374000D03*
G04 #@! TD*
D10*
G04 #@! TO.C,K34*
X280269000Y63524000D03*
D11*
X275189000Y63524000D03*
X285349000Y63524000D03*
G04 #@! TD*
D10*
G04 #@! TO.C,K17*
X289794000Y82574000D03*
D11*
X284714000Y82574000D03*
X294874000Y82574000D03*
G04 #@! TD*
D10*
G04 #@! TO.C,K47*
X208831000Y44474000D03*
D11*
X203751000Y44474000D03*
X213911000Y44474000D03*
G04 #@! TD*
G04 #@! TO.C,K33*
X266299000Y63524000D03*
X256139000Y63524000D03*
D10*
X261219000Y63524000D03*
G04 #@! TD*
G04 #@! TO.C,K18*
X330307000Y74319000D03*
X306431000Y74319000D03*
D18*
X330307000Y89559000D03*
X306431000Y89559000D03*
D11*
X323449000Y82574000D03*
X313289000Y82574000D03*
D10*
X318369000Y82574000D03*
G04 #@! TD*
D15*
G04 #@! TO.C,D51*
X288931000Y53999000D03*
D16*
X281131000Y53999000D03*
D17*
X286606000Y53999000D03*
X283456000Y53999000D03*
G04 #@! TD*
D15*
G04 #@! TO.C,D11*
X179394000Y92099000D03*
D16*
X171594000Y92099000D03*
D17*
X177069000Y92099000D03*
X173919000Y92099000D03*
G04 #@! TD*
G04 #@! TO.C,D63*
X197732000Y34949000D03*
X200882000Y34949000D03*
D16*
X195407000Y34949000D03*
D15*
X203207000Y34949000D03*
G04 #@! TD*
G04 #@! TO.C,D29*
X188919000Y73049000D03*
D16*
X181119000Y73049000D03*
D17*
X186594000Y73049000D03*
X183444000Y73049000D03*
G04 #@! TD*
D15*
G04 #@! TO.C,D55*
X26994200Y34949000D03*
D16*
X19194200Y34949000D03*
D17*
X24669200Y34949000D03*
X21519200Y34949000D03*
G04 #@! TD*
D15*
G04 #@! TO.C,D5*
X70719000Y86474000D03*
D16*
X70719000Y78674000D03*
D17*
X70719000Y84149000D03*
X70719000Y80999000D03*
G04 #@! TD*
D15*
G04 #@! TO.C,D43*
X136531000Y53999000D03*
D16*
X128731000Y53999000D03*
D17*
X134206000Y53999000D03*
X131056000Y53999000D03*
G04 #@! TD*
G04 #@! TO.C,D73*
X109625000Y15899000D03*
X112775000Y15899000D03*
D16*
X107300000Y15899000D03*
D15*
X115100000Y15899000D03*
G04 #@! TD*
G04 #@! TO.C,D33*
X265119000Y73049000D03*
D16*
X257319000Y73049000D03*
D17*
X262794000Y73049000D03*
X259644000Y73049000D03*
G04 #@! TD*
G04 #@! TO.C,D30*
X202494000Y73049000D03*
X205644000Y73049000D03*
D16*
X200169000Y73049000D03*
D15*
X207969000Y73049000D03*
G04 #@! TD*
D11*
G04 #@! TO.C,K19*
X-9925800Y63524000D03*
X-20085800Y63524000D03*
D10*
X-15005800Y63524000D03*
G04 #@! TD*
D15*
G04 #@! TO.C,D35*
X300838000Y73049000D03*
D16*
X293038000Y73049000D03*
D17*
X298513000Y73049000D03*
X295363000Y73049000D03*
G04 #@! TD*
D10*
G04 #@! TO.C,K24*
X89769000Y63524000D03*
D11*
X84689000Y63524000D03*
X94849000Y63524000D03*
G04 #@! TD*
D17*
G04 #@! TO.C,D24*
X88194000Y73049000D03*
X91344000Y73049000D03*
D16*
X85869000Y73049000D03*
D15*
X93669000Y73049000D03*
G04 #@! TD*
D17*
G04 #@! TO.C,D59*
X121532000Y34949000D03*
X124682000Y34949000D03*
D16*
X119207000Y34949000D03*
D15*
X127007000Y34949000D03*
G04 #@! TD*
G04 #@! TO.C,D41*
X98431000Y53999000D03*
D16*
X90631000Y53999000D03*
D17*
X96106000Y53999000D03*
X92956000Y53999000D03*
G04 #@! TD*
D15*
G04 #@! TO.C,D1*
X-11105800Y92099000D03*
D16*
X-18905800Y92099000D03*
D17*
X-13430800Y92099000D03*
X-16580800Y92099000D03*
G04 #@! TD*
G04 #@! TO.C,D27*
X145344000Y73049000D03*
X148494000Y73049000D03*
D16*
X143019000Y73049000D03*
D15*
X150819000Y73049000D03*
G04 #@! TD*
D11*
G04 #@! TO.C,K1*
X-9925800Y82574000D03*
X-20085800Y82574000D03*
D10*
X-15005800Y82574000D03*
G04 #@! TD*
M02*
