G04 #@! TF.GenerationSoftware,KiCad,Pcbnew,5.1.6*
G04 #@! TF.CreationDate,2020-07-11T09:29:06-04:00*
G04 #@! TF.ProjectId,southpawcase,736f7574-6870-4617-9763-6173652e6b69,rev?*
G04 #@! TF.SameCoordinates,Original*
G04 #@! TF.FileFunction,Soldermask,Top*
G04 #@! TF.FilePolarity,Negative*
%FSLAX46Y46*%
G04 Gerber Fmt 4.6, Leading zero omitted, Abs format (unit mm)*
G04 Created by KiCad (PCBNEW 5.1.6) date 2020-07-11 09:29:06*
%MOMM*%
%LPD*%
G01*
G04 APERTURE LIST*
%ADD10C,0.010000*%
G04 APERTURE END LIST*
D10*
G04 #@! TO.C,G\u002A\u002A\u002A*
G36*
X38422626Y-103599162D02*
G01*
X38490360Y-103755304D01*
X38467820Y-103922843D01*
X38460958Y-103943207D01*
X38405446Y-104070003D01*
X38300600Y-104280735D01*
X38156721Y-104556823D01*
X37984110Y-104879687D01*
X37793069Y-105230745D01*
X37593897Y-105591417D01*
X37396897Y-105943122D01*
X37212369Y-106267280D01*
X37050614Y-106545309D01*
X36921932Y-106758628D01*
X36836626Y-106888658D01*
X36811696Y-106918125D01*
X36622058Y-106992171D01*
X36407553Y-106956046D01*
X36304379Y-106898649D01*
X36185427Y-106744850D01*
X36163771Y-106628774D01*
X36193406Y-106521108D01*
X36275741Y-106322585D01*
X36401429Y-106053162D01*
X36561126Y-105732793D01*
X36745485Y-105381435D01*
X36764304Y-105346500D01*
X37364316Y-104235250D01*
X36694949Y-104203500D01*
X36385770Y-104185625D01*
X36178503Y-104163543D01*
X36048064Y-104132135D01*
X35969369Y-104086278D01*
X35935666Y-104048488D01*
X35852861Y-103862998D01*
X35888613Y-103676287D01*
X35944600Y-103582629D01*
X35984759Y-103532316D01*
X36036779Y-103495644D01*
X36119536Y-103470458D01*
X36251904Y-103454605D01*
X36452760Y-103445930D01*
X36740979Y-103442281D01*
X37135436Y-103441502D01*
X37181386Y-103441500D01*
X38319322Y-103441500D01*
X38422626Y-103599162D01*
G37*
X38422626Y-103599162D02*
X38490360Y-103755304D01*
X38467820Y-103922843D01*
X38460958Y-103943207D01*
X38405446Y-104070003D01*
X38300600Y-104280735D01*
X38156721Y-104556823D01*
X37984110Y-104879687D01*
X37793069Y-105230745D01*
X37593897Y-105591417D01*
X37396897Y-105943122D01*
X37212369Y-106267280D01*
X37050614Y-106545309D01*
X36921932Y-106758628D01*
X36836626Y-106888658D01*
X36811696Y-106918125D01*
X36622058Y-106992171D01*
X36407553Y-106956046D01*
X36304379Y-106898649D01*
X36185427Y-106744850D01*
X36163771Y-106628774D01*
X36193406Y-106521108D01*
X36275741Y-106322585D01*
X36401429Y-106053162D01*
X36561126Y-105732793D01*
X36745485Y-105381435D01*
X36764304Y-105346500D01*
X37364316Y-104235250D01*
X36694949Y-104203500D01*
X36385770Y-104185625D01*
X36178503Y-104163543D01*
X36048064Y-104132135D01*
X35969369Y-104086278D01*
X35935666Y-104048488D01*
X35852861Y-103862998D01*
X35888613Y-103676287D01*
X35944600Y-103582629D01*
X35984759Y-103532316D01*
X36036779Y-103495644D01*
X36119536Y-103470458D01*
X36251904Y-103454605D01*
X36452760Y-103445930D01*
X36740979Y-103442281D01*
X37135436Y-103441502D01*
X37181386Y-103441500D01*
X38319322Y-103441500D01*
X38422626Y-103599162D01*
G36*
X28144760Y-103472758D02*
G01*
X28321393Y-103510219D01*
X28464142Y-103580407D01*
X28586214Y-103670643D01*
X28902622Y-103987187D01*
X29094594Y-104327217D01*
X29146749Y-104522478D01*
X29155171Y-104932582D01*
X29048533Y-105322229D01*
X28837672Y-105665675D01*
X28558201Y-105920593D01*
X28429650Y-105998025D01*
X28297034Y-106044912D01*
X28123314Y-106068592D01*
X27871450Y-106076403D01*
X27770027Y-106076750D01*
X27209750Y-106076750D01*
X27209750Y-106382549D01*
X27192211Y-106655572D01*
X27130569Y-106825216D01*
X27011280Y-106911370D01*
X26834291Y-106934000D01*
X26656154Y-106911784D01*
X26529109Y-106856992D01*
X26515205Y-106843516D01*
X26486971Y-106762927D01*
X26467821Y-106593910D01*
X26457343Y-106326617D01*
X26455128Y-105951197D01*
X26459805Y-105516047D01*
X26471603Y-104775000D01*
X27244386Y-104775000D01*
X27265531Y-104978726D01*
X27346551Y-105122566D01*
X27421109Y-105194489D01*
X27653014Y-105324367D01*
X27895687Y-105342177D01*
X28118701Y-105248546D01*
X28197032Y-105178477D01*
X28310885Y-104982903D01*
X28352823Y-104750727D01*
X28317454Y-104534638D01*
X28271355Y-104451997D01*
X28068465Y-104278869D01*
X27827382Y-104212347D01*
X27580783Y-104256139D01*
X27421109Y-104355510D01*
X27298524Y-104492957D01*
X27249534Y-104657726D01*
X27244386Y-104775000D01*
X26471603Y-104775000D01*
X26479500Y-104279062D01*
X26679424Y-104003292D01*
X26941795Y-103716230D01*
X27243748Y-103537511D01*
X27606787Y-103457353D01*
X27887714Y-103453563D01*
X28144760Y-103472758D01*
G37*
X28144760Y-103472758D02*
X28321393Y-103510219D01*
X28464142Y-103580407D01*
X28586214Y-103670643D01*
X28902622Y-103987187D01*
X29094594Y-104327217D01*
X29146749Y-104522478D01*
X29155171Y-104932582D01*
X29048533Y-105322229D01*
X28837672Y-105665675D01*
X28558201Y-105920593D01*
X28429650Y-105998025D01*
X28297034Y-106044912D01*
X28123314Y-106068592D01*
X27871450Y-106076403D01*
X27770027Y-106076750D01*
X27209750Y-106076750D01*
X27209750Y-106382549D01*
X27192211Y-106655572D01*
X27130569Y-106825216D01*
X27011280Y-106911370D01*
X26834291Y-106934000D01*
X26656154Y-106911784D01*
X26529109Y-106856992D01*
X26515205Y-106843516D01*
X26486971Y-106762927D01*
X26467821Y-106593910D01*
X26457343Y-106326617D01*
X26455128Y-105951197D01*
X26459805Y-105516047D01*
X26471603Y-104775000D01*
X27244386Y-104775000D01*
X27265531Y-104978726D01*
X27346551Y-105122566D01*
X27421109Y-105194489D01*
X27653014Y-105324367D01*
X27895687Y-105342177D01*
X28118701Y-105248546D01*
X28197032Y-105178477D01*
X28310885Y-104982903D01*
X28352823Y-104750727D01*
X28317454Y-104534638D01*
X28271355Y-104451997D01*
X28068465Y-104278869D01*
X27827382Y-104212347D01*
X27580783Y-104256139D01*
X27421109Y-104355510D01*
X27298524Y-104492957D01*
X27249534Y-104657726D01*
X27244386Y-104775000D01*
X26471603Y-104775000D01*
X26479500Y-104279062D01*
X26679424Y-104003292D01*
X26941795Y-103716230D01*
X27243748Y-103537511D01*
X27606787Y-103457353D01*
X27887714Y-103453563D01*
X28144760Y-103472758D01*
G36*
X39857283Y-103378000D02*
G01*
X40210247Y-103379910D01*
X40458452Y-103387425D01*
X40624104Y-103403223D01*
X40729412Y-103429979D01*
X40796581Y-103470371D01*
X40820658Y-103494125D01*
X40911935Y-103674883D01*
X40906814Y-103873456D01*
X40809624Y-104034908D01*
X40719217Y-104088449D01*
X40574741Y-104121121D01*
X40349855Y-104136886D01*
X40111124Y-104139999D01*
X39837503Y-104141205D01*
X39666671Y-104149221D01*
X39574418Y-104170647D01*
X39536533Y-104212084D01*
X39528807Y-104280129D01*
X39528750Y-104298750D01*
X39536295Y-104385090D01*
X39578344Y-104432623D01*
X39684017Y-104452896D01*
X39882434Y-104457456D01*
X39929067Y-104457500D01*
X40187625Y-104469347D01*
X40382112Y-104515810D01*
X40574141Y-104613272D01*
X40618416Y-104640798D01*
X40896855Y-104885763D01*
X41081245Y-105191410D01*
X41171585Y-105533078D01*
X41167876Y-105886105D01*
X41070118Y-106225828D01*
X40878310Y-106527585D01*
X40618416Y-106750701D01*
X40414478Y-106862684D01*
X40221618Y-106917086D01*
X39974905Y-106931309D01*
X39944942Y-106931193D01*
X39572012Y-106892237D01*
X39330061Y-106806619D01*
X39110558Y-106657379D01*
X38924913Y-106471612D01*
X38801534Y-106282458D01*
X38766750Y-106149507D01*
X38814173Y-105928071D01*
X38940118Y-105786846D01*
X39120099Y-105731756D01*
X39329631Y-105768727D01*
X39544226Y-105903685D01*
X39592250Y-105949750D01*
X39773459Y-106108841D01*
X39924875Y-106162316D01*
X40079141Y-106115152D01*
X40186936Y-106040391D01*
X40320685Y-105880362D01*
X40354250Y-105695749D01*
X40319045Y-105493516D01*
X40205242Y-105352062D01*
X40000562Y-105264555D01*
X39692724Y-105224163D01*
X39498278Y-105219499D01*
X39214769Y-105214538D01*
X39015937Y-105186913D01*
X38886777Y-105117511D01*
X38812284Y-104987221D01*
X38777454Y-104776929D01*
X38767281Y-104467524D01*
X38766750Y-104287716D01*
X38768114Y-103957917D01*
X38783988Y-103719297D01*
X38832042Y-103557114D01*
X38929947Y-103456628D01*
X39095375Y-103403099D01*
X39345995Y-103381784D01*
X39699480Y-103377943D01*
X39857283Y-103378000D01*
G37*
X39857283Y-103378000D02*
X40210247Y-103379910D01*
X40458452Y-103387425D01*
X40624104Y-103403223D01*
X40729412Y-103429979D01*
X40796581Y-103470371D01*
X40820658Y-103494125D01*
X40911935Y-103674883D01*
X40906814Y-103873456D01*
X40809624Y-104034908D01*
X40719217Y-104088449D01*
X40574741Y-104121121D01*
X40349855Y-104136886D01*
X40111124Y-104139999D01*
X39837503Y-104141205D01*
X39666671Y-104149221D01*
X39574418Y-104170647D01*
X39536533Y-104212084D01*
X39528807Y-104280129D01*
X39528750Y-104298750D01*
X39536295Y-104385090D01*
X39578344Y-104432623D01*
X39684017Y-104452896D01*
X39882434Y-104457456D01*
X39929067Y-104457500D01*
X40187625Y-104469347D01*
X40382112Y-104515810D01*
X40574141Y-104613272D01*
X40618416Y-104640798D01*
X40896855Y-104885763D01*
X41081245Y-105191410D01*
X41171585Y-105533078D01*
X41167876Y-105886105D01*
X41070118Y-106225828D01*
X40878310Y-106527585D01*
X40618416Y-106750701D01*
X40414478Y-106862684D01*
X40221618Y-106917086D01*
X39974905Y-106931309D01*
X39944942Y-106931193D01*
X39572012Y-106892237D01*
X39330061Y-106806619D01*
X39110558Y-106657379D01*
X38924913Y-106471612D01*
X38801534Y-106282458D01*
X38766750Y-106149507D01*
X38814173Y-105928071D01*
X38940118Y-105786846D01*
X39120099Y-105731756D01*
X39329631Y-105768727D01*
X39544226Y-105903685D01*
X39592250Y-105949750D01*
X39773459Y-106108841D01*
X39924875Y-106162316D01*
X40079141Y-106115152D01*
X40186936Y-106040391D01*
X40320685Y-105880362D01*
X40354250Y-105695749D01*
X40319045Y-105493516D01*
X40205242Y-105352062D01*
X40000562Y-105264555D01*
X39692724Y-105224163D01*
X39498278Y-105219499D01*
X39214769Y-105214538D01*
X39015937Y-105186913D01*
X38886777Y-105117511D01*
X38812284Y-104987221D01*
X38777454Y-104776929D01*
X38767281Y-104467524D01*
X38766750Y-104287716D01*
X38768114Y-103957917D01*
X38783988Y-103719297D01*
X38832042Y-103557114D01*
X38929947Y-103456628D01*
X39095375Y-103403099D01*
X39345995Y-103381784D01*
X39699480Y-103377943D01*
X39857283Y-103378000D01*
G36*
X13539395Y-103466474D02*
G01*
X13815005Y-103540769D01*
X13861404Y-103562320D01*
X14186434Y-103792123D01*
X14418530Y-104086142D01*
X14557640Y-104422804D01*
X14603710Y-104780537D01*
X14556686Y-105137770D01*
X14416515Y-105472930D01*
X14183143Y-105764445D01*
X13867416Y-105985241D01*
X13562218Y-106083775D01*
X13208167Y-106111417D01*
X12857981Y-106069048D01*
X12574898Y-105963625D01*
X12395476Y-105836085D01*
X12254505Y-105691521D01*
X12226952Y-105650079D01*
X12169404Y-105523606D01*
X12182482Y-105424518D01*
X12263174Y-105301785D01*
X12438910Y-105143382D01*
X12635342Y-105110173D01*
X12849139Y-105202643D01*
X12864824Y-105213950D01*
X13113224Y-105332213D01*
X13359445Y-105325407D01*
X13589931Y-105194478D01*
X13625634Y-105160884D01*
X13779977Y-104938592D01*
X13807861Y-104711397D01*
X13709286Y-104486104D01*
X13625634Y-104389115D01*
X13472414Y-104258456D01*
X13327174Y-104196409D01*
X13172397Y-104208722D01*
X12990564Y-104301141D01*
X12764156Y-104479413D01*
X12475657Y-104749285D01*
X12449375Y-104775000D01*
X12194859Y-105019632D01*
X12007688Y-105185137D01*
X11868807Y-105285466D01*
X11759157Y-105334571D01*
X11668714Y-105346500D01*
X11450028Y-105296901D01*
X11312366Y-105158294D01*
X11271250Y-104975585D01*
X11293734Y-104877869D01*
X11369472Y-104752023D01*
X11510889Y-104582161D01*
X11730411Y-104352395D01*
X11858625Y-104224596D01*
X12098845Y-103995094D01*
X12326230Y-103791315D01*
X12516068Y-103634555D01*
X12643648Y-103546114D01*
X12649221Y-103543225D01*
X12902308Y-103466848D01*
X13217098Y-103441548D01*
X13539395Y-103466474D01*
G37*
X13539395Y-103466474D02*
X13815005Y-103540769D01*
X13861404Y-103562320D01*
X14186434Y-103792123D01*
X14418530Y-104086142D01*
X14557640Y-104422804D01*
X14603710Y-104780537D01*
X14556686Y-105137770D01*
X14416515Y-105472930D01*
X14183143Y-105764445D01*
X13867416Y-105985241D01*
X13562218Y-106083775D01*
X13208167Y-106111417D01*
X12857981Y-106069048D01*
X12574898Y-105963625D01*
X12395476Y-105836085D01*
X12254505Y-105691521D01*
X12226952Y-105650079D01*
X12169404Y-105523606D01*
X12182482Y-105424518D01*
X12263174Y-105301785D01*
X12438910Y-105143382D01*
X12635342Y-105110173D01*
X12849139Y-105202643D01*
X12864824Y-105213950D01*
X13113224Y-105332213D01*
X13359445Y-105325407D01*
X13589931Y-105194478D01*
X13625634Y-105160884D01*
X13779977Y-104938592D01*
X13807861Y-104711397D01*
X13709286Y-104486104D01*
X13625634Y-104389115D01*
X13472414Y-104258456D01*
X13327174Y-104196409D01*
X13172397Y-104208722D01*
X12990564Y-104301141D01*
X12764156Y-104479413D01*
X12475657Y-104749285D01*
X12449375Y-104775000D01*
X12194859Y-105019632D01*
X12007688Y-105185137D01*
X11868807Y-105285466D01*
X11759157Y-105334571D01*
X11668714Y-105346500D01*
X11450028Y-105296901D01*
X11312366Y-105158294D01*
X11271250Y-104975585D01*
X11293734Y-104877869D01*
X11369472Y-104752023D01*
X11510889Y-104582161D01*
X11730411Y-104352395D01*
X11858625Y-104224596D01*
X12098845Y-103995094D01*
X12326230Y-103791315D01*
X12516068Y-103634555D01*
X12643648Y-103546114D01*
X12649221Y-103543225D01*
X12902308Y-103466848D01*
X13217098Y-103441548D01*
X13539395Y-103466474D01*
G36*
X16613531Y-103497425D02*
G01*
X16917082Y-103617076D01*
X16994513Y-103665671D01*
X17288503Y-103937073D01*
X17470695Y-104262505D01*
X17545338Y-104651121D01*
X17544836Y-104851638D01*
X17469023Y-105273614D01*
X17295855Y-105617652D01*
X17033513Y-105875988D01*
X16690182Y-106040853D01*
X16274042Y-106104484D01*
X16224250Y-106104969D01*
X15974317Y-106091150D01*
X15747787Y-106056788D01*
X15621000Y-106019569D01*
X15446030Y-105915728D01*
X15269334Y-105772465D01*
X15249978Y-105753500D01*
X15006117Y-105426577D01*
X14873484Y-105066326D01*
X14853663Y-104771985D01*
X15652750Y-104771985D01*
X15705779Y-105024758D01*
X15846061Y-105211845D01*
X16045390Y-105320453D01*
X16275558Y-105337790D01*
X16508356Y-105251065D01*
X16584390Y-105194489D01*
X16706975Y-105057042D01*
X16755965Y-104892273D01*
X16761113Y-104775000D01*
X16709532Y-104517357D01*
X16572305Y-104331452D01*
X16375711Y-104229002D01*
X16146024Y-104221724D01*
X15909522Y-104321334D01*
X15848122Y-104367894D01*
X15709169Y-104517101D01*
X15656617Y-104683877D01*
X15652750Y-104771985D01*
X14853663Y-104771985D01*
X14848374Y-104693452D01*
X14927083Y-104328661D01*
X15105906Y-103992656D01*
X15381139Y-103706142D01*
X15646524Y-103537238D01*
X15930936Y-103452997D01*
X16269044Y-103441229D01*
X16613531Y-103497425D01*
G37*
X16613531Y-103497425D02*
X16917082Y-103617076D01*
X16994513Y-103665671D01*
X17288503Y-103937073D01*
X17470695Y-104262505D01*
X17545338Y-104651121D01*
X17544836Y-104851638D01*
X17469023Y-105273614D01*
X17295855Y-105617652D01*
X17033513Y-105875988D01*
X16690182Y-106040853D01*
X16274042Y-106104484D01*
X16224250Y-106104969D01*
X15974317Y-106091150D01*
X15747787Y-106056788D01*
X15621000Y-106019569D01*
X15446030Y-105915728D01*
X15269334Y-105772465D01*
X15249978Y-105753500D01*
X15006117Y-105426577D01*
X14873484Y-105066326D01*
X14853663Y-104771985D01*
X15652750Y-104771985D01*
X15705779Y-105024758D01*
X15846061Y-105211845D01*
X16045390Y-105320453D01*
X16275558Y-105337790D01*
X16508356Y-105251065D01*
X16584390Y-105194489D01*
X16706975Y-105057042D01*
X16755965Y-104892273D01*
X16761113Y-104775000D01*
X16709532Y-104517357D01*
X16572305Y-104331452D01*
X16375711Y-104229002D01*
X16146024Y-104221724D01*
X15909522Y-104321334D01*
X15848122Y-104367894D01*
X15709169Y-104517101D01*
X15656617Y-104683877D01*
X15652750Y-104771985D01*
X14853663Y-104771985D01*
X14848374Y-104693452D01*
X14927083Y-104328661D01*
X15105906Y-103992656D01*
X15381139Y-103706142D01*
X15646524Y-103537238D01*
X15930936Y-103452997D01*
X16269044Y-103441229D01*
X16613531Y-103497425D01*
G36*
X18427985Y-103473472D02*
G01*
X18495574Y-103520875D01*
X18524659Y-103614525D01*
X18552274Y-103804599D01*
X18574733Y-104060539D01*
X18585586Y-104267000D01*
X18607762Y-104633868D01*
X18646669Y-104896321D01*
X18710077Y-105076624D01*
X18805752Y-105197045D01*
X18938440Y-105278481D01*
X19201258Y-105342625D01*
X19441787Y-105282335D01*
X19570211Y-105193353D01*
X19647602Y-105120690D01*
X19699973Y-105043253D01*
X19733738Y-104934373D01*
X19755307Y-104767378D01*
X19771094Y-104515596D01*
X19780127Y-104320228D01*
X19797231Y-104024993D01*
X19819314Y-103773404D01*
X19843345Y-103594537D01*
X19863372Y-103520874D01*
X19967709Y-103459970D01*
X20135368Y-103444326D01*
X20311763Y-103472020D01*
X20442305Y-103541127D01*
X20442464Y-103541285D01*
X20487354Y-103612370D01*
X20517095Y-103733694D01*
X20534288Y-103927353D01*
X20541537Y-104215447D01*
X20542250Y-104388548D01*
X20539471Y-104722257D01*
X20528159Y-104960069D01*
X20503850Y-105133022D01*
X20462080Y-105272153D01*
X20398385Y-105408500D01*
X20394499Y-105415887D01*
X20247230Y-105627307D01*
X20052411Y-105826622D01*
X19977748Y-105885218D01*
X19806523Y-105991551D01*
X19638630Y-106053130D01*
X19423993Y-106084410D01*
X19252373Y-106094631D01*
X18942265Y-106094574D01*
X18722660Y-106059615D01*
X18605500Y-106012272D01*
X18269000Y-105769835D01*
X18009093Y-105456552D01*
X17932137Y-105314750D01*
X17870704Y-105116061D01*
X17828694Y-104848075D01*
X17806182Y-104542084D01*
X17803244Y-104229379D01*
X17819955Y-103941252D01*
X17856390Y-103708996D01*
X17912625Y-103563901D01*
X17927875Y-103546591D01*
X18077660Y-103469380D01*
X18263184Y-103444155D01*
X18427985Y-103473472D01*
G37*
X18427985Y-103473472D02*
X18495574Y-103520875D01*
X18524659Y-103614525D01*
X18552274Y-103804599D01*
X18574733Y-104060539D01*
X18585586Y-104267000D01*
X18607762Y-104633868D01*
X18646669Y-104896321D01*
X18710077Y-105076624D01*
X18805752Y-105197045D01*
X18938440Y-105278481D01*
X19201258Y-105342625D01*
X19441787Y-105282335D01*
X19570211Y-105193353D01*
X19647602Y-105120690D01*
X19699973Y-105043253D01*
X19733738Y-104934373D01*
X19755307Y-104767378D01*
X19771094Y-104515596D01*
X19780127Y-104320228D01*
X19797231Y-104024993D01*
X19819314Y-103773404D01*
X19843345Y-103594537D01*
X19863372Y-103520874D01*
X19967709Y-103459970D01*
X20135368Y-103444326D01*
X20311763Y-103472020D01*
X20442305Y-103541127D01*
X20442464Y-103541285D01*
X20487354Y-103612370D01*
X20517095Y-103733694D01*
X20534288Y-103927353D01*
X20541537Y-104215447D01*
X20542250Y-104388548D01*
X20539471Y-104722257D01*
X20528159Y-104960069D01*
X20503850Y-105133022D01*
X20462080Y-105272153D01*
X20398385Y-105408500D01*
X20394499Y-105415887D01*
X20247230Y-105627307D01*
X20052411Y-105826622D01*
X19977748Y-105885218D01*
X19806523Y-105991551D01*
X19638630Y-106053130D01*
X19423993Y-106084410D01*
X19252373Y-106094631D01*
X18942265Y-106094574D01*
X18722660Y-106059615D01*
X18605500Y-106012272D01*
X18269000Y-105769835D01*
X18009093Y-105456552D01*
X17932137Y-105314750D01*
X17870704Y-105116061D01*
X17828694Y-104848075D01*
X17806182Y-104542084D01*
X17803244Y-104229379D01*
X17819955Y-103941252D01*
X17856390Y-103708996D01*
X17912625Y-103563901D01*
X17927875Y-103546591D01*
X18077660Y-103469380D01*
X18263184Y-103444155D01*
X18427985Y-103473472D01*
G36*
X21412519Y-102633445D02*
G01*
X21542481Y-102689246D01*
X21545549Y-102692199D01*
X21590843Y-102797584D01*
X21618137Y-102977040D01*
X21621750Y-103073199D01*
X21621750Y-103378000D01*
X22183408Y-103378000D01*
X22516883Y-103390028D01*
X22742881Y-103432130D01*
X22879165Y-103513328D01*
X22943503Y-103642646D01*
X22955250Y-103770033D01*
X22928410Y-103929564D01*
X22836832Y-104038429D01*
X22663932Y-104104379D01*
X22393121Y-104135167D01*
X22163681Y-104140000D01*
X21604362Y-104140000D01*
X21638606Y-104566603D01*
X21664638Y-104807592D01*
X21705951Y-104964319D01*
X21778974Y-105079517D01*
X21870551Y-105169853D01*
X22080692Y-105307473D01*
X22296776Y-105334984D01*
X22545612Y-105253630D01*
X22635620Y-105205334D01*
X22878401Y-105114473D01*
X23086946Y-105130683D01*
X23241978Y-105249503D01*
X23298021Y-105358585D01*
X23312356Y-105560833D01*
X23221026Y-105741910D01*
X23044581Y-105894728D01*
X22803574Y-106012197D01*
X22518556Y-106087228D01*
X22210078Y-106112731D01*
X21898692Y-106081618D01*
X21604949Y-105986798D01*
X21552362Y-105960749D01*
X21341364Y-105813753D01*
X21141861Y-105618904D01*
X21082000Y-105542756D01*
X20891500Y-105272512D01*
X20871805Y-104034739D01*
X20866983Y-103554187D01*
X20870049Y-103190564D01*
X20881413Y-102934022D01*
X20901487Y-102774711D01*
X20927205Y-102706483D01*
X21045984Y-102643424D01*
X21227388Y-102618624D01*
X21412519Y-102633445D01*
G37*
X21412519Y-102633445D02*
X21542481Y-102689246D01*
X21545549Y-102692199D01*
X21590843Y-102797584D01*
X21618137Y-102977040D01*
X21621750Y-103073199D01*
X21621750Y-103378000D01*
X22183408Y-103378000D01*
X22516883Y-103390028D01*
X22742881Y-103432130D01*
X22879165Y-103513328D01*
X22943503Y-103642646D01*
X22955250Y-103770033D01*
X22928410Y-103929564D01*
X22836832Y-104038429D01*
X22663932Y-104104379D01*
X22393121Y-104135167D01*
X22163681Y-104140000D01*
X21604362Y-104140000D01*
X21638606Y-104566603D01*
X21664638Y-104807592D01*
X21705951Y-104964319D01*
X21778974Y-105079517D01*
X21870551Y-105169853D01*
X22080692Y-105307473D01*
X22296776Y-105334984D01*
X22545612Y-105253630D01*
X22635620Y-105205334D01*
X22878401Y-105114473D01*
X23086946Y-105130683D01*
X23241978Y-105249503D01*
X23298021Y-105358585D01*
X23312356Y-105560833D01*
X23221026Y-105741910D01*
X23044581Y-105894728D01*
X22803574Y-106012197D01*
X22518556Y-106087228D01*
X22210078Y-106112731D01*
X21898692Y-106081618D01*
X21604949Y-105986798D01*
X21552362Y-105960749D01*
X21341364Y-105813753D01*
X21141861Y-105618904D01*
X21082000Y-105542756D01*
X20891500Y-105272512D01*
X20871805Y-104034739D01*
X20866983Y-103554187D01*
X20870049Y-103190564D01*
X20881413Y-102934022D01*
X20901487Y-102774711D01*
X20927205Y-102706483D01*
X21045984Y-102643424D01*
X21227388Y-102618624D01*
X21412519Y-102633445D01*
G36*
X24111674Y-102677707D02*
G01*
X24183658Y-102732125D01*
X24262312Y-102901794D01*
X24288750Y-103162825D01*
X24288750Y-103477401D01*
X24727451Y-103452612D01*
X25104177Y-103453893D01*
X25397996Y-103514486D01*
X25643964Y-103646650D01*
X25866330Y-103850843D01*
X26030330Y-104054339D01*
X26142917Y-104266893D01*
X26212559Y-104518211D01*
X26247720Y-104837996D01*
X26256895Y-105221245D01*
X26246944Y-105581787D01*
X26211303Y-105833660D01*
X26142032Y-105993952D01*
X26031188Y-106079748D01*
X25870829Y-106108134D01*
X25844500Y-106108500D01*
X25680054Y-106088211D01*
X25564306Y-106015918D01*
X25489588Y-105874477D01*
X25448236Y-105646747D01*
X25432583Y-105315583D01*
X25431750Y-105185501D01*
X25430022Y-104892792D01*
X25420509Y-104697479D01*
X25396712Y-104569963D01*
X25352136Y-104480646D01*
X25280283Y-104399930D01*
X25253650Y-104374130D01*
X25027643Y-104231973D01*
X24786639Y-104212805D01*
X24548905Y-104317050D01*
X24498788Y-104356646D01*
X24422254Y-104428280D01*
X24370192Y-104504393D01*
X24336436Y-104611178D01*
X24314816Y-104774828D01*
X24299166Y-105021539D01*
X24288872Y-105248101D01*
X24270625Y-105592862D01*
X24244270Y-105830512D01*
X24199942Y-105980928D01*
X24127777Y-106063986D01*
X24017911Y-106099563D01*
X23862359Y-106107527D01*
X23672931Y-106067978D01*
X23592484Y-105985674D01*
X23569781Y-105880815D01*
X23551694Y-105674007D01*
X23538156Y-105386574D01*
X23529098Y-105039840D01*
X23524453Y-104655129D01*
X23524154Y-104253766D01*
X23528132Y-103857074D01*
X23536320Y-103486378D01*
X23548649Y-103163003D01*
X23565053Y-102908272D01*
X23585463Y-102743509D01*
X23602950Y-102692199D01*
X23744512Y-102627087D01*
X23934236Y-102623641D01*
X24111674Y-102677707D01*
G37*
X24111674Y-102677707D02*
X24183658Y-102732125D01*
X24262312Y-102901794D01*
X24288750Y-103162825D01*
X24288750Y-103477401D01*
X24727451Y-103452612D01*
X25104177Y-103453893D01*
X25397996Y-103514486D01*
X25643964Y-103646650D01*
X25866330Y-103850843D01*
X26030330Y-104054339D01*
X26142917Y-104266893D01*
X26212559Y-104518211D01*
X26247720Y-104837996D01*
X26256895Y-105221245D01*
X26246944Y-105581787D01*
X26211303Y-105833660D01*
X26142032Y-105993952D01*
X26031188Y-106079748D01*
X25870829Y-106108134D01*
X25844500Y-106108500D01*
X25680054Y-106088211D01*
X25564306Y-106015918D01*
X25489588Y-105874477D01*
X25448236Y-105646747D01*
X25432583Y-105315583D01*
X25431750Y-105185501D01*
X25430022Y-104892792D01*
X25420509Y-104697479D01*
X25396712Y-104569963D01*
X25352136Y-104480646D01*
X25280283Y-104399930D01*
X25253650Y-104374130D01*
X25027643Y-104231973D01*
X24786639Y-104212805D01*
X24548905Y-104317050D01*
X24498788Y-104356646D01*
X24422254Y-104428280D01*
X24370192Y-104504393D01*
X24336436Y-104611178D01*
X24314816Y-104774828D01*
X24299166Y-105021539D01*
X24288872Y-105248101D01*
X24270625Y-105592862D01*
X24244270Y-105830512D01*
X24199942Y-105980928D01*
X24127777Y-106063986D01*
X24017911Y-106099563D01*
X23862359Y-106107527D01*
X23672931Y-106067978D01*
X23592484Y-105985674D01*
X23569781Y-105880815D01*
X23551694Y-105674007D01*
X23538156Y-105386574D01*
X23529098Y-105039840D01*
X23524453Y-104655129D01*
X23524154Y-104253766D01*
X23528132Y-103857074D01*
X23536320Y-103486378D01*
X23548649Y-103163003D01*
X23565053Y-102908272D01*
X23585463Y-102743509D01*
X23602950Y-102692199D01*
X23744512Y-102627087D01*
X23934236Y-102623641D01*
X24111674Y-102677707D01*
G36*
X30972719Y-103450740D02*
G01*
X31153558Y-103489913D01*
X31326558Y-103576194D01*
X31436775Y-103647875D01*
X31653802Y-103815933D01*
X31810061Y-103996739D01*
X31915687Y-104215361D01*
X31980816Y-104496863D01*
X32015584Y-104866315D01*
X32025066Y-105102848D01*
X32031057Y-105483025D01*
X32019623Y-105754456D01*
X31984240Y-105934929D01*
X31918387Y-106042227D01*
X31815540Y-106094138D01*
X31669177Y-106108446D01*
X31656263Y-106108500D01*
X31488373Y-106094196D01*
X31381737Y-106058703D01*
X31370499Y-106047426D01*
X31282192Y-106019002D01*
X31172118Y-106047426D01*
X30949867Y-106094252D01*
X30665917Y-106104906D01*
X30376398Y-106081624D01*
X30137437Y-106026642D01*
X30083522Y-106004065D01*
X29783210Y-105792387D01*
X29538601Y-105497176D01*
X29372128Y-105153893D01*
X29306226Y-104797996D01*
X29306163Y-104792581D01*
X30130768Y-104792581D01*
X30182599Y-105000664D01*
X30302028Y-105178164D01*
X30471992Y-105303517D01*
X30675426Y-105355163D01*
X30895266Y-105311540D01*
X30996869Y-105253779D01*
X31166716Y-105067271D01*
X31243515Y-104832970D01*
X31213798Y-104593491D01*
X31209202Y-104581970D01*
X31060778Y-104358412D01*
X30857524Y-104230398D01*
X30628043Y-104204555D01*
X30400938Y-104287508D01*
X30298159Y-104370909D01*
X30163600Y-104575475D01*
X30130768Y-104792581D01*
X29306163Y-104792581D01*
X29305958Y-104775000D01*
X29360491Y-104439210D01*
X29508481Y-104105585D01*
X29726509Y-103810343D01*
X29991158Y-103589701D01*
X30112835Y-103527042D01*
X30287660Y-103480940D01*
X30529294Y-103449883D01*
X30724784Y-103441500D01*
X30972719Y-103450740D01*
G37*
X30972719Y-103450740D02*
X31153558Y-103489913D01*
X31326558Y-103576194D01*
X31436775Y-103647875D01*
X31653802Y-103815933D01*
X31810061Y-103996739D01*
X31915687Y-104215361D01*
X31980816Y-104496863D01*
X32015584Y-104866315D01*
X32025066Y-105102848D01*
X32031057Y-105483025D01*
X32019623Y-105754456D01*
X31984240Y-105934929D01*
X31918387Y-106042227D01*
X31815540Y-106094138D01*
X31669177Y-106108446D01*
X31656263Y-106108500D01*
X31488373Y-106094196D01*
X31381737Y-106058703D01*
X31370499Y-106047426D01*
X31282192Y-106019002D01*
X31172118Y-106047426D01*
X30949867Y-106094252D01*
X30665917Y-106104906D01*
X30376398Y-106081624D01*
X30137437Y-106026642D01*
X30083522Y-106004065D01*
X29783210Y-105792387D01*
X29538601Y-105497176D01*
X29372128Y-105153893D01*
X29306226Y-104797996D01*
X29306163Y-104792581D01*
X30130768Y-104792581D01*
X30182599Y-105000664D01*
X30302028Y-105178164D01*
X30471992Y-105303517D01*
X30675426Y-105355163D01*
X30895266Y-105311540D01*
X30996869Y-105253779D01*
X31166716Y-105067271D01*
X31243515Y-104832970D01*
X31213798Y-104593491D01*
X31209202Y-104581970D01*
X31060778Y-104358412D01*
X30857524Y-104230398D01*
X30628043Y-104204555D01*
X30400938Y-104287508D01*
X30298159Y-104370909D01*
X30163600Y-104575475D01*
X30130768Y-104792581D01*
X29306163Y-104792581D01*
X29305958Y-104775000D01*
X29360491Y-104439210D01*
X29508481Y-104105585D01*
X29726509Y-103810343D01*
X29991158Y-103589701D01*
X30112835Y-103527042D01*
X30287660Y-103480940D01*
X30529294Y-103449883D01*
X30724784Y-103441500D01*
X30972719Y-103450740D01*
G36*
X32884220Y-103448536D02*
G01*
X33027444Y-103507187D01*
X33039049Y-103517699D01*
X33076881Y-103621718D01*
X33101764Y-103846543D01*
X33113897Y-104194439D01*
X33115250Y-104398924D01*
X33120027Y-104776781D01*
X33137790Y-105044015D01*
X33173683Y-105216763D01*
X33232852Y-105311162D01*
X33320442Y-105343346D01*
X33413824Y-105335259D01*
X33472597Y-105304831D01*
X33511846Y-105223802D01*
X33538309Y-105067140D01*
X33558725Y-104809818D01*
X33559750Y-104793176D01*
X33581836Y-104544124D01*
X33612411Y-104343094D01*
X33645819Y-104224649D01*
X33655000Y-104210904D01*
X33835636Y-104114806D01*
X34044616Y-104117442D01*
X34198764Y-104193820D01*
X34279842Y-104275425D01*
X34331109Y-104381968D01*
X34362633Y-104547045D01*
X34384478Y-104804252D01*
X34385250Y-104816249D01*
X34406271Y-105073067D01*
X34433750Y-105228356D01*
X34474848Y-105307587D01*
X34531175Y-105335265D01*
X34645045Y-105341038D01*
X34726400Y-105297434D01*
X34780388Y-105188316D01*
X34812152Y-104997548D01*
X34826838Y-104708993D01*
X34829750Y-104398924D01*
X34832989Y-104030929D01*
X34847350Y-103771203D01*
X34879802Y-103601086D01*
X34937309Y-103501914D01*
X35026838Y-103455026D01*
X35155358Y-103441760D01*
X35187164Y-103441500D01*
X35335835Y-103451511D01*
X35443124Y-103493235D01*
X35515668Y-103584204D01*
X35560100Y-103741952D01*
X35583056Y-103984013D01*
X35591171Y-104327919D01*
X35591750Y-104510651D01*
X35585131Y-104939779D01*
X35560760Y-105264554D01*
X35511864Y-105507148D01*
X35431670Y-105689733D01*
X35313404Y-105834482D01*
X35150293Y-105963565D01*
X35147282Y-105965625D01*
X34938573Y-106057252D01*
X34674778Y-106105387D01*
X34404797Y-106107519D01*
X34177529Y-106061139D01*
X34096077Y-106019594D01*
X33981344Y-105963071D01*
X33878333Y-105998076D01*
X33847562Y-106019594D01*
X33674577Y-106086253D01*
X33430799Y-106109544D01*
X33164149Y-106091216D01*
X32922550Y-106033018D01*
X32813044Y-105981843D01*
X32644150Y-105863641D01*
X32521688Y-105731537D01*
X32438528Y-105563545D01*
X32387544Y-105337679D01*
X32361606Y-105031952D01*
X32353585Y-104624378D01*
X32353487Y-104564450D01*
X32358017Y-104232703D01*
X32370607Y-103939866D01*
X32389477Y-103713104D01*
X32412848Y-103579580D01*
X32418984Y-103564325D01*
X32525664Y-103481190D01*
X32698851Y-103441232D01*
X32884220Y-103448536D01*
G37*
X32884220Y-103448536D02*
X33027444Y-103507187D01*
X33039049Y-103517699D01*
X33076881Y-103621718D01*
X33101764Y-103846543D01*
X33113897Y-104194439D01*
X33115250Y-104398924D01*
X33120027Y-104776781D01*
X33137790Y-105044015D01*
X33173683Y-105216763D01*
X33232852Y-105311162D01*
X33320442Y-105343346D01*
X33413824Y-105335259D01*
X33472597Y-105304831D01*
X33511846Y-105223802D01*
X33538309Y-105067140D01*
X33558725Y-104809818D01*
X33559750Y-104793176D01*
X33581836Y-104544124D01*
X33612411Y-104343094D01*
X33645819Y-104224649D01*
X33655000Y-104210904D01*
X33835636Y-104114806D01*
X34044616Y-104117442D01*
X34198764Y-104193820D01*
X34279842Y-104275425D01*
X34331109Y-104381968D01*
X34362633Y-104547045D01*
X34384478Y-104804252D01*
X34385250Y-104816249D01*
X34406271Y-105073067D01*
X34433750Y-105228356D01*
X34474848Y-105307587D01*
X34531175Y-105335265D01*
X34645045Y-105341038D01*
X34726400Y-105297434D01*
X34780388Y-105188316D01*
X34812152Y-104997548D01*
X34826838Y-104708993D01*
X34829750Y-104398924D01*
X34832989Y-104030929D01*
X34847350Y-103771203D01*
X34879802Y-103601086D01*
X34937309Y-103501914D01*
X35026838Y-103455026D01*
X35155358Y-103441760D01*
X35187164Y-103441500D01*
X35335835Y-103451511D01*
X35443124Y-103493235D01*
X35515668Y-103584204D01*
X35560100Y-103741952D01*
X35583056Y-103984013D01*
X35591171Y-104327919D01*
X35591750Y-104510651D01*
X35585131Y-104939779D01*
X35560760Y-105264554D01*
X35511864Y-105507148D01*
X35431670Y-105689733D01*
X35313404Y-105834482D01*
X35150293Y-105963565D01*
X35147282Y-105965625D01*
X34938573Y-106057252D01*
X34674778Y-106105387D01*
X34404797Y-106107519D01*
X34177529Y-106061139D01*
X34096077Y-106019594D01*
X33981344Y-105963071D01*
X33878333Y-105998076D01*
X33847562Y-106019594D01*
X33674577Y-106086253D01*
X33430799Y-106109544D01*
X33164149Y-106091216D01*
X32922550Y-106033018D01*
X32813044Y-105981843D01*
X32644150Y-105863641D01*
X32521688Y-105731537D01*
X32438528Y-105563545D01*
X32387544Y-105337679D01*
X32361606Y-105031952D01*
X32353585Y-104624378D01*
X32353487Y-104564450D01*
X32358017Y-104232703D01*
X32370607Y-103939866D01*
X32389477Y-103713104D01*
X32412848Y-103579580D01*
X32418984Y-103564325D01*
X32525664Y-103481190D01*
X32698851Y-103441232D01*
X32884220Y-103448536D01*
G04 #@! TD*
M02*
