G04 #@! TF.GenerationSoftware,KiCad,Pcbnew,(5.1.4)-1*
G04 #@! TF.CreationDate,2020-09-27T05:02:13-04:00*
G04 #@! TF.ProjectId,southpawcase,736f7574-6870-4617-9763-6173652e6b69,rev?*
G04 #@! TF.SameCoordinates,Original*
G04 #@! TF.FileFunction,Copper,L1,Top*
G04 #@! TF.FilePolarity,Positive*
%FSLAX46Y46*%
G04 Gerber Fmt 4.6, Leading zero omitted, Abs format (unit mm)*
G04 Created by KiCad (PCBNEW (5.1.4)-1) date 2020-09-27 05:02:13*
%MOMM*%
%LPD*%
G04 APERTURE LIST*
G04 #@! TA.AperFunction,EtchedComponent*
%ADD10C,0.010000*%
G04 #@! TD*
G04 APERTURE END LIST*
D10*
G04 #@! TO.C,G\002A\002A\002A*
G36*
X23422626Y-103599162D02*
G01*
X23490360Y-103755304D01*
X23467820Y-103922843D01*
X23460958Y-103943207D01*
X23405446Y-104070003D01*
X23300600Y-104280735D01*
X23156721Y-104556823D01*
X22984110Y-104879687D01*
X22793069Y-105230745D01*
X22593897Y-105591417D01*
X22396897Y-105943122D01*
X22212369Y-106267280D01*
X22050614Y-106545309D01*
X21921932Y-106758628D01*
X21836626Y-106888658D01*
X21811696Y-106918125D01*
X21622058Y-106992171D01*
X21407553Y-106956046D01*
X21304379Y-106898649D01*
X21185427Y-106744850D01*
X21163771Y-106628774D01*
X21193406Y-106521108D01*
X21275741Y-106322585D01*
X21401429Y-106053162D01*
X21561126Y-105732793D01*
X21745485Y-105381435D01*
X21764304Y-105346500D01*
X22364316Y-104235250D01*
X21694949Y-104203500D01*
X21385770Y-104185625D01*
X21178503Y-104163543D01*
X21048064Y-104132135D01*
X20969369Y-104086278D01*
X20935666Y-104048488D01*
X20852861Y-103862998D01*
X20888613Y-103676287D01*
X20944600Y-103582629D01*
X20984759Y-103532316D01*
X21036779Y-103495644D01*
X21119536Y-103470458D01*
X21251904Y-103454605D01*
X21452760Y-103445930D01*
X21740979Y-103442281D01*
X22135436Y-103441502D01*
X22181386Y-103441500D01*
X23319322Y-103441500D01*
X23422626Y-103599162D01*
X23422626Y-103599162D01*
G37*
X23422626Y-103599162D02*
X23490360Y-103755304D01*
X23467820Y-103922843D01*
X23460958Y-103943207D01*
X23405446Y-104070003D01*
X23300600Y-104280735D01*
X23156721Y-104556823D01*
X22984110Y-104879687D01*
X22793069Y-105230745D01*
X22593897Y-105591417D01*
X22396897Y-105943122D01*
X22212369Y-106267280D01*
X22050614Y-106545309D01*
X21921932Y-106758628D01*
X21836626Y-106888658D01*
X21811696Y-106918125D01*
X21622058Y-106992171D01*
X21407553Y-106956046D01*
X21304379Y-106898649D01*
X21185427Y-106744850D01*
X21163771Y-106628774D01*
X21193406Y-106521108D01*
X21275741Y-106322585D01*
X21401429Y-106053162D01*
X21561126Y-105732793D01*
X21745485Y-105381435D01*
X21764304Y-105346500D01*
X22364316Y-104235250D01*
X21694949Y-104203500D01*
X21385770Y-104185625D01*
X21178503Y-104163543D01*
X21048064Y-104132135D01*
X20969369Y-104086278D01*
X20935666Y-104048488D01*
X20852861Y-103862998D01*
X20888613Y-103676287D01*
X20944600Y-103582629D01*
X20984759Y-103532316D01*
X21036779Y-103495644D01*
X21119536Y-103470458D01*
X21251904Y-103454605D01*
X21452760Y-103445930D01*
X21740979Y-103442281D01*
X22135436Y-103441502D01*
X22181386Y-103441500D01*
X23319322Y-103441500D01*
X23422626Y-103599162D01*
G36*
X13144760Y-103472758D02*
G01*
X13321393Y-103510219D01*
X13464142Y-103580407D01*
X13586214Y-103670643D01*
X13902622Y-103987187D01*
X14094594Y-104327217D01*
X14146749Y-104522478D01*
X14155171Y-104932582D01*
X14048533Y-105322229D01*
X13837672Y-105665675D01*
X13558201Y-105920593D01*
X13429650Y-105998025D01*
X13297034Y-106044912D01*
X13123314Y-106068592D01*
X12871450Y-106076403D01*
X12770027Y-106076750D01*
X12209750Y-106076750D01*
X12209750Y-106382549D01*
X12192211Y-106655572D01*
X12130569Y-106825216D01*
X12011280Y-106911370D01*
X11834291Y-106934000D01*
X11656154Y-106911784D01*
X11529109Y-106856992D01*
X11515205Y-106843516D01*
X11486971Y-106762927D01*
X11467821Y-106593910D01*
X11457343Y-106326617D01*
X11455128Y-105951197D01*
X11459805Y-105516047D01*
X11471603Y-104775000D01*
X12244386Y-104775000D01*
X12265531Y-104978726D01*
X12346551Y-105122566D01*
X12421109Y-105194489D01*
X12653014Y-105324367D01*
X12895687Y-105342177D01*
X13118701Y-105248546D01*
X13197032Y-105178477D01*
X13310885Y-104982903D01*
X13352823Y-104750727D01*
X13317454Y-104534638D01*
X13271355Y-104451997D01*
X13068465Y-104278869D01*
X12827382Y-104212347D01*
X12580783Y-104256139D01*
X12421109Y-104355510D01*
X12298524Y-104492957D01*
X12249534Y-104657726D01*
X12244386Y-104775000D01*
X11471603Y-104775000D01*
X11479500Y-104279062D01*
X11679424Y-104003292D01*
X11941795Y-103716230D01*
X12243748Y-103537511D01*
X12606787Y-103457353D01*
X12887714Y-103453563D01*
X13144760Y-103472758D01*
X13144760Y-103472758D01*
G37*
X13144760Y-103472758D02*
X13321393Y-103510219D01*
X13464142Y-103580407D01*
X13586214Y-103670643D01*
X13902622Y-103987187D01*
X14094594Y-104327217D01*
X14146749Y-104522478D01*
X14155171Y-104932582D01*
X14048533Y-105322229D01*
X13837672Y-105665675D01*
X13558201Y-105920593D01*
X13429650Y-105998025D01*
X13297034Y-106044912D01*
X13123314Y-106068592D01*
X12871450Y-106076403D01*
X12770027Y-106076750D01*
X12209750Y-106076750D01*
X12209750Y-106382549D01*
X12192211Y-106655572D01*
X12130569Y-106825216D01*
X12011280Y-106911370D01*
X11834291Y-106934000D01*
X11656154Y-106911784D01*
X11529109Y-106856992D01*
X11515205Y-106843516D01*
X11486971Y-106762927D01*
X11467821Y-106593910D01*
X11457343Y-106326617D01*
X11455128Y-105951197D01*
X11459805Y-105516047D01*
X11471603Y-104775000D01*
X12244386Y-104775000D01*
X12265531Y-104978726D01*
X12346551Y-105122566D01*
X12421109Y-105194489D01*
X12653014Y-105324367D01*
X12895687Y-105342177D01*
X13118701Y-105248546D01*
X13197032Y-105178477D01*
X13310885Y-104982903D01*
X13352823Y-104750727D01*
X13317454Y-104534638D01*
X13271355Y-104451997D01*
X13068465Y-104278869D01*
X12827382Y-104212347D01*
X12580783Y-104256139D01*
X12421109Y-104355510D01*
X12298524Y-104492957D01*
X12249534Y-104657726D01*
X12244386Y-104775000D01*
X11471603Y-104775000D01*
X11479500Y-104279062D01*
X11679424Y-104003292D01*
X11941795Y-103716230D01*
X12243748Y-103537511D01*
X12606787Y-103457353D01*
X12887714Y-103453563D01*
X13144760Y-103472758D01*
G36*
X24857283Y-103378000D02*
G01*
X25210247Y-103379910D01*
X25458452Y-103387425D01*
X25624104Y-103403223D01*
X25729412Y-103429979D01*
X25796581Y-103470371D01*
X25820658Y-103494125D01*
X25911935Y-103674883D01*
X25906814Y-103873456D01*
X25809624Y-104034908D01*
X25719217Y-104088449D01*
X25574741Y-104121121D01*
X25349855Y-104136886D01*
X25111124Y-104139999D01*
X24837503Y-104141205D01*
X24666671Y-104149221D01*
X24574418Y-104170647D01*
X24536533Y-104212084D01*
X24528807Y-104280129D01*
X24528750Y-104298750D01*
X24536295Y-104385090D01*
X24578344Y-104432623D01*
X24684017Y-104452896D01*
X24882434Y-104457456D01*
X24929067Y-104457500D01*
X25187625Y-104469347D01*
X25382112Y-104515810D01*
X25574141Y-104613272D01*
X25618416Y-104640798D01*
X25896855Y-104885763D01*
X26081245Y-105191410D01*
X26171585Y-105533078D01*
X26167876Y-105886105D01*
X26070118Y-106225828D01*
X25878310Y-106527585D01*
X25618416Y-106750701D01*
X25414478Y-106862684D01*
X25221618Y-106917086D01*
X24974905Y-106931309D01*
X24944942Y-106931193D01*
X24572012Y-106892237D01*
X24330061Y-106806619D01*
X24110558Y-106657379D01*
X23924913Y-106471612D01*
X23801534Y-106282458D01*
X23766750Y-106149507D01*
X23814173Y-105928071D01*
X23940118Y-105786846D01*
X24120099Y-105731756D01*
X24329631Y-105768727D01*
X24544226Y-105903685D01*
X24592250Y-105949750D01*
X24773459Y-106108841D01*
X24924875Y-106162316D01*
X25079141Y-106115152D01*
X25186936Y-106040391D01*
X25320685Y-105880362D01*
X25354250Y-105695749D01*
X25319045Y-105493516D01*
X25205242Y-105352062D01*
X25000562Y-105264555D01*
X24692724Y-105224163D01*
X24498278Y-105219499D01*
X24214769Y-105214538D01*
X24015937Y-105186913D01*
X23886777Y-105117511D01*
X23812284Y-104987221D01*
X23777454Y-104776929D01*
X23767281Y-104467524D01*
X23766750Y-104287716D01*
X23768114Y-103957917D01*
X23783988Y-103719297D01*
X23832042Y-103557114D01*
X23929947Y-103456628D01*
X24095375Y-103403099D01*
X24345995Y-103381784D01*
X24699480Y-103377943D01*
X24857283Y-103378000D01*
X24857283Y-103378000D01*
G37*
X24857283Y-103378000D02*
X25210247Y-103379910D01*
X25458452Y-103387425D01*
X25624104Y-103403223D01*
X25729412Y-103429979D01*
X25796581Y-103470371D01*
X25820658Y-103494125D01*
X25911935Y-103674883D01*
X25906814Y-103873456D01*
X25809624Y-104034908D01*
X25719217Y-104088449D01*
X25574741Y-104121121D01*
X25349855Y-104136886D01*
X25111124Y-104139999D01*
X24837503Y-104141205D01*
X24666671Y-104149221D01*
X24574418Y-104170647D01*
X24536533Y-104212084D01*
X24528807Y-104280129D01*
X24528750Y-104298750D01*
X24536295Y-104385090D01*
X24578344Y-104432623D01*
X24684017Y-104452896D01*
X24882434Y-104457456D01*
X24929067Y-104457500D01*
X25187625Y-104469347D01*
X25382112Y-104515810D01*
X25574141Y-104613272D01*
X25618416Y-104640798D01*
X25896855Y-104885763D01*
X26081245Y-105191410D01*
X26171585Y-105533078D01*
X26167876Y-105886105D01*
X26070118Y-106225828D01*
X25878310Y-106527585D01*
X25618416Y-106750701D01*
X25414478Y-106862684D01*
X25221618Y-106917086D01*
X24974905Y-106931309D01*
X24944942Y-106931193D01*
X24572012Y-106892237D01*
X24330061Y-106806619D01*
X24110558Y-106657379D01*
X23924913Y-106471612D01*
X23801534Y-106282458D01*
X23766750Y-106149507D01*
X23814173Y-105928071D01*
X23940118Y-105786846D01*
X24120099Y-105731756D01*
X24329631Y-105768727D01*
X24544226Y-105903685D01*
X24592250Y-105949750D01*
X24773459Y-106108841D01*
X24924875Y-106162316D01*
X25079141Y-106115152D01*
X25186936Y-106040391D01*
X25320685Y-105880362D01*
X25354250Y-105695749D01*
X25319045Y-105493516D01*
X25205242Y-105352062D01*
X25000562Y-105264555D01*
X24692724Y-105224163D01*
X24498278Y-105219499D01*
X24214769Y-105214538D01*
X24015937Y-105186913D01*
X23886777Y-105117511D01*
X23812284Y-104987221D01*
X23777454Y-104776929D01*
X23767281Y-104467524D01*
X23766750Y-104287716D01*
X23768114Y-103957917D01*
X23783988Y-103719297D01*
X23832042Y-103557114D01*
X23929947Y-103456628D01*
X24095375Y-103403099D01*
X24345995Y-103381784D01*
X24699480Y-103377943D01*
X24857283Y-103378000D01*
G36*
X-1460605Y-103466474D02*
G01*
X-1184995Y-103540769D01*
X-1138596Y-103562320D01*
X-813566Y-103792123D01*
X-581470Y-104086142D01*
X-442360Y-104422804D01*
X-396290Y-104780537D01*
X-443314Y-105137770D01*
X-583485Y-105472930D01*
X-816857Y-105764445D01*
X-1132584Y-105985241D01*
X-1437782Y-106083775D01*
X-1791833Y-106111417D01*
X-2142019Y-106069048D01*
X-2425102Y-105963625D01*
X-2604524Y-105836085D01*
X-2745495Y-105691521D01*
X-2773048Y-105650079D01*
X-2830596Y-105523606D01*
X-2817518Y-105424518D01*
X-2736826Y-105301785D01*
X-2561090Y-105143382D01*
X-2364658Y-105110173D01*
X-2150861Y-105202643D01*
X-2135176Y-105213950D01*
X-1886776Y-105332213D01*
X-1640555Y-105325407D01*
X-1410069Y-105194478D01*
X-1374366Y-105160884D01*
X-1220023Y-104938592D01*
X-1192139Y-104711397D01*
X-1290714Y-104486104D01*
X-1374366Y-104389115D01*
X-1527586Y-104258456D01*
X-1672826Y-104196409D01*
X-1827603Y-104208722D01*
X-2009436Y-104301141D01*
X-2235844Y-104479413D01*
X-2524343Y-104749285D01*
X-2550625Y-104775000D01*
X-2805141Y-105019632D01*
X-2992312Y-105185137D01*
X-3131193Y-105285466D01*
X-3240843Y-105334571D01*
X-3331286Y-105346500D01*
X-3549972Y-105296901D01*
X-3687634Y-105158294D01*
X-3728750Y-104975585D01*
X-3706266Y-104877869D01*
X-3630528Y-104752023D01*
X-3489111Y-104582161D01*
X-3269589Y-104352395D01*
X-3141375Y-104224596D01*
X-2901155Y-103995094D01*
X-2673770Y-103791315D01*
X-2483932Y-103634555D01*
X-2356352Y-103546114D01*
X-2350779Y-103543225D01*
X-2097692Y-103466848D01*
X-1782902Y-103441548D01*
X-1460605Y-103466474D01*
X-1460605Y-103466474D01*
G37*
X-1460605Y-103466474D02*
X-1184995Y-103540769D01*
X-1138596Y-103562320D01*
X-813566Y-103792123D01*
X-581470Y-104086142D01*
X-442360Y-104422804D01*
X-396290Y-104780537D01*
X-443314Y-105137770D01*
X-583485Y-105472930D01*
X-816857Y-105764445D01*
X-1132584Y-105985241D01*
X-1437782Y-106083775D01*
X-1791833Y-106111417D01*
X-2142019Y-106069048D01*
X-2425102Y-105963625D01*
X-2604524Y-105836085D01*
X-2745495Y-105691521D01*
X-2773048Y-105650079D01*
X-2830596Y-105523606D01*
X-2817518Y-105424518D01*
X-2736826Y-105301785D01*
X-2561090Y-105143382D01*
X-2364658Y-105110173D01*
X-2150861Y-105202643D01*
X-2135176Y-105213950D01*
X-1886776Y-105332213D01*
X-1640555Y-105325407D01*
X-1410069Y-105194478D01*
X-1374366Y-105160884D01*
X-1220023Y-104938592D01*
X-1192139Y-104711397D01*
X-1290714Y-104486104D01*
X-1374366Y-104389115D01*
X-1527586Y-104258456D01*
X-1672826Y-104196409D01*
X-1827603Y-104208722D01*
X-2009436Y-104301141D01*
X-2235844Y-104479413D01*
X-2524343Y-104749285D01*
X-2550625Y-104775000D01*
X-2805141Y-105019632D01*
X-2992312Y-105185137D01*
X-3131193Y-105285466D01*
X-3240843Y-105334571D01*
X-3331286Y-105346500D01*
X-3549972Y-105296901D01*
X-3687634Y-105158294D01*
X-3728750Y-104975585D01*
X-3706266Y-104877869D01*
X-3630528Y-104752023D01*
X-3489111Y-104582161D01*
X-3269589Y-104352395D01*
X-3141375Y-104224596D01*
X-2901155Y-103995094D01*
X-2673770Y-103791315D01*
X-2483932Y-103634555D01*
X-2356352Y-103546114D01*
X-2350779Y-103543225D01*
X-2097692Y-103466848D01*
X-1782902Y-103441548D01*
X-1460605Y-103466474D01*
G36*
X1613531Y-103497425D02*
G01*
X1917082Y-103617076D01*
X1994513Y-103665671D01*
X2288503Y-103937073D01*
X2470695Y-104262505D01*
X2545338Y-104651121D01*
X2544836Y-104851638D01*
X2469023Y-105273614D01*
X2295855Y-105617652D01*
X2033513Y-105875988D01*
X1690182Y-106040853D01*
X1274042Y-106104484D01*
X1224250Y-106104969D01*
X974317Y-106091150D01*
X747787Y-106056788D01*
X621000Y-106019569D01*
X446030Y-105915728D01*
X269334Y-105772465D01*
X249978Y-105753500D01*
X6117Y-105426577D01*
X-126516Y-105066326D01*
X-146337Y-104771985D01*
X652750Y-104771985D01*
X705779Y-105024758D01*
X846061Y-105211845D01*
X1045390Y-105320453D01*
X1275558Y-105337790D01*
X1508356Y-105251065D01*
X1584390Y-105194489D01*
X1706975Y-105057042D01*
X1755965Y-104892273D01*
X1761113Y-104775000D01*
X1709532Y-104517357D01*
X1572305Y-104331452D01*
X1375711Y-104229002D01*
X1146024Y-104221724D01*
X909522Y-104321334D01*
X848122Y-104367894D01*
X709169Y-104517101D01*
X656617Y-104683877D01*
X652750Y-104771985D01*
X-146337Y-104771985D01*
X-151626Y-104693452D01*
X-72917Y-104328661D01*
X105906Y-103992656D01*
X381139Y-103706142D01*
X646524Y-103537238D01*
X930936Y-103452997D01*
X1269044Y-103441229D01*
X1613531Y-103497425D01*
X1613531Y-103497425D01*
G37*
X1613531Y-103497425D02*
X1917082Y-103617076D01*
X1994513Y-103665671D01*
X2288503Y-103937073D01*
X2470695Y-104262505D01*
X2545338Y-104651121D01*
X2544836Y-104851638D01*
X2469023Y-105273614D01*
X2295855Y-105617652D01*
X2033513Y-105875988D01*
X1690182Y-106040853D01*
X1274042Y-106104484D01*
X1224250Y-106104969D01*
X974317Y-106091150D01*
X747787Y-106056788D01*
X621000Y-106019569D01*
X446030Y-105915728D01*
X269334Y-105772465D01*
X249978Y-105753500D01*
X6117Y-105426577D01*
X-126516Y-105066326D01*
X-146337Y-104771985D01*
X652750Y-104771985D01*
X705779Y-105024758D01*
X846061Y-105211845D01*
X1045390Y-105320453D01*
X1275558Y-105337790D01*
X1508356Y-105251065D01*
X1584390Y-105194489D01*
X1706975Y-105057042D01*
X1755965Y-104892273D01*
X1761113Y-104775000D01*
X1709532Y-104517357D01*
X1572305Y-104331452D01*
X1375711Y-104229002D01*
X1146024Y-104221724D01*
X909522Y-104321334D01*
X848122Y-104367894D01*
X709169Y-104517101D01*
X656617Y-104683877D01*
X652750Y-104771985D01*
X-146337Y-104771985D01*
X-151626Y-104693452D01*
X-72917Y-104328661D01*
X105906Y-103992656D01*
X381139Y-103706142D01*
X646524Y-103537238D01*
X930936Y-103452997D01*
X1269044Y-103441229D01*
X1613531Y-103497425D01*
G36*
X3427985Y-103473472D02*
G01*
X3495574Y-103520875D01*
X3524659Y-103614525D01*
X3552274Y-103804599D01*
X3574733Y-104060539D01*
X3585586Y-104267000D01*
X3607762Y-104633868D01*
X3646669Y-104896321D01*
X3710077Y-105076624D01*
X3805752Y-105197045D01*
X3938440Y-105278481D01*
X4201258Y-105342625D01*
X4441787Y-105282335D01*
X4570211Y-105193353D01*
X4647602Y-105120690D01*
X4699973Y-105043253D01*
X4733738Y-104934373D01*
X4755307Y-104767378D01*
X4771094Y-104515596D01*
X4780127Y-104320228D01*
X4797231Y-104024993D01*
X4819314Y-103773404D01*
X4843345Y-103594537D01*
X4863372Y-103520874D01*
X4967709Y-103459970D01*
X5135368Y-103444326D01*
X5311763Y-103472020D01*
X5442305Y-103541127D01*
X5442464Y-103541285D01*
X5487354Y-103612370D01*
X5517095Y-103733694D01*
X5534288Y-103927353D01*
X5541537Y-104215447D01*
X5542250Y-104388548D01*
X5539471Y-104722257D01*
X5528159Y-104960069D01*
X5503850Y-105133022D01*
X5462080Y-105272153D01*
X5398385Y-105408500D01*
X5394499Y-105415887D01*
X5247230Y-105627307D01*
X5052411Y-105826622D01*
X4977748Y-105885218D01*
X4806523Y-105991551D01*
X4638630Y-106053130D01*
X4423993Y-106084410D01*
X4252373Y-106094631D01*
X3942265Y-106094574D01*
X3722660Y-106059615D01*
X3605500Y-106012272D01*
X3269000Y-105769835D01*
X3009093Y-105456552D01*
X2932137Y-105314750D01*
X2870704Y-105116061D01*
X2828694Y-104848075D01*
X2806182Y-104542084D01*
X2803244Y-104229379D01*
X2819955Y-103941252D01*
X2856390Y-103708996D01*
X2912625Y-103563901D01*
X2927875Y-103546591D01*
X3077660Y-103469380D01*
X3263184Y-103444155D01*
X3427985Y-103473472D01*
X3427985Y-103473472D01*
G37*
X3427985Y-103473472D02*
X3495574Y-103520875D01*
X3524659Y-103614525D01*
X3552274Y-103804599D01*
X3574733Y-104060539D01*
X3585586Y-104267000D01*
X3607762Y-104633868D01*
X3646669Y-104896321D01*
X3710077Y-105076624D01*
X3805752Y-105197045D01*
X3938440Y-105278481D01*
X4201258Y-105342625D01*
X4441787Y-105282335D01*
X4570211Y-105193353D01*
X4647602Y-105120690D01*
X4699973Y-105043253D01*
X4733738Y-104934373D01*
X4755307Y-104767378D01*
X4771094Y-104515596D01*
X4780127Y-104320228D01*
X4797231Y-104024993D01*
X4819314Y-103773404D01*
X4843345Y-103594537D01*
X4863372Y-103520874D01*
X4967709Y-103459970D01*
X5135368Y-103444326D01*
X5311763Y-103472020D01*
X5442305Y-103541127D01*
X5442464Y-103541285D01*
X5487354Y-103612370D01*
X5517095Y-103733694D01*
X5534288Y-103927353D01*
X5541537Y-104215447D01*
X5542250Y-104388548D01*
X5539471Y-104722257D01*
X5528159Y-104960069D01*
X5503850Y-105133022D01*
X5462080Y-105272153D01*
X5398385Y-105408500D01*
X5394499Y-105415887D01*
X5247230Y-105627307D01*
X5052411Y-105826622D01*
X4977748Y-105885218D01*
X4806523Y-105991551D01*
X4638630Y-106053130D01*
X4423993Y-106084410D01*
X4252373Y-106094631D01*
X3942265Y-106094574D01*
X3722660Y-106059615D01*
X3605500Y-106012272D01*
X3269000Y-105769835D01*
X3009093Y-105456552D01*
X2932137Y-105314750D01*
X2870704Y-105116061D01*
X2828694Y-104848075D01*
X2806182Y-104542084D01*
X2803244Y-104229379D01*
X2819955Y-103941252D01*
X2856390Y-103708996D01*
X2912625Y-103563901D01*
X2927875Y-103546591D01*
X3077660Y-103469380D01*
X3263184Y-103444155D01*
X3427985Y-103473472D01*
G36*
X6412519Y-102633445D02*
G01*
X6542481Y-102689246D01*
X6545549Y-102692199D01*
X6590843Y-102797584D01*
X6618137Y-102977040D01*
X6621750Y-103073199D01*
X6621750Y-103378000D01*
X7183408Y-103378000D01*
X7516883Y-103390028D01*
X7742881Y-103432130D01*
X7879165Y-103513328D01*
X7943503Y-103642646D01*
X7955250Y-103770033D01*
X7928410Y-103929564D01*
X7836832Y-104038429D01*
X7663932Y-104104379D01*
X7393121Y-104135167D01*
X7163681Y-104140000D01*
X6604362Y-104140000D01*
X6638606Y-104566603D01*
X6664638Y-104807592D01*
X6705951Y-104964319D01*
X6778974Y-105079517D01*
X6870551Y-105169853D01*
X7080692Y-105307473D01*
X7296776Y-105334984D01*
X7545612Y-105253630D01*
X7635620Y-105205334D01*
X7878401Y-105114473D01*
X8086946Y-105130683D01*
X8241978Y-105249503D01*
X8298021Y-105358585D01*
X8312356Y-105560833D01*
X8221026Y-105741910D01*
X8044581Y-105894728D01*
X7803574Y-106012197D01*
X7518556Y-106087228D01*
X7210078Y-106112731D01*
X6898692Y-106081618D01*
X6604949Y-105986798D01*
X6552362Y-105960749D01*
X6341364Y-105813753D01*
X6141861Y-105618904D01*
X6082000Y-105542756D01*
X5891500Y-105272512D01*
X5871805Y-104034739D01*
X5866983Y-103554187D01*
X5870049Y-103190564D01*
X5881413Y-102934022D01*
X5901487Y-102774711D01*
X5927205Y-102706483D01*
X6045984Y-102643424D01*
X6227388Y-102618624D01*
X6412519Y-102633445D01*
X6412519Y-102633445D01*
G37*
X6412519Y-102633445D02*
X6542481Y-102689246D01*
X6545549Y-102692199D01*
X6590843Y-102797584D01*
X6618137Y-102977040D01*
X6621750Y-103073199D01*
X6621750Y-103378000D01*
X7183408Y-103378000D01*
X7516883Y-103390028D01*
X7742881Y-103432130D01*
X7879165Y-103513328D01*
X7943503Y-103642646D01*
X7955250Y-103770033D01*
X7928410Y-103929564D01*
X7836832Y-104038429D01*
X7663932Y-104104379D01*
X7393121Y-104135167D01*
X7163681Y-104140000D01*
X6604362Y-104140000D01*
X6638606Y-104566603D01*
X6664638Y-104807592D01*
X6705951Y-104964319D01*
X6778974Y-105079517D01*
X6870551Y-105169853D01*
X7080692Y-105307473D01*
X7296776Y-105334984D01*
X7545612Y-105253630D01*
X7635620Y-105205334D01*
X7878401Y-105114473D01*
X8086946Y-105130683D01*
X8241978Y-105249503D01*
X8298021Y-105358585D01*
X8312356Y-105560833D01*
X8221026Y-105741910D01*
X8044581Y-105894728D01*
X7803574Y-106012197D01*
X7518556Y-106087228D01*
X7210078Y-106112731D01*
X6898692Y-106081618D01*
X6604949Y-105986798D01*
X6552362Y-105960749D01*
X6341364Y-105813753D01*
X6141861Y-105618904D01*
X6082000Y-105542756D01*
X5891500Y-105272512D01*
X5871805Y-104034739D01*
X5866983Y-103554187D01*
X5870049Y-103190564D01*
X5881413Y-102934022D01*
X5901487Y-102774711D01*
X5927205Y-102706483D01*
X6045984Y-102643424D01*
X6227388Y-102618624D01*
X6412519Y-102633445D01*
G36*
X9111674Y-102677707D02*
G01*
X9183658Y-102732125D01*
X9262312Y-102901794D01*
X9288750Y-103162825D01*
X9288750Y-103477401D01*
X9727451Y-103452612D01*
X10104177Y-103453893D01*
X10397996Y-103514486D01*
X10643964Y-103646650D01*
X10866330Y-103850843D01*
X11030330Y-104054339D01*
X11142917Y-104266893D01*
X11212559Y-104518211D01*
X11247720Y-104837996D01*
X11256895Y-105221245D01*
X11246944Y-105581787D01*
X11211303Y-105833660D01*
X11142032Y-105993952D01*
X11031188Y-106079748D01*
X10870829Y-106108134D01*
X10844500Y-106108500D01*
X10680054Y-106088211D01*
X10564306Y-106015918D01*
X10489588Y-105874477D01*
X10448236Y-105646747D01*
X10432583Y-105315583D01*
X10431750Y-105185501D01*
X10430022Y-104892792D01*
X10420509Y-104697479D01*
X10396712Y-104569963D01*
X10352136Y-104480646D01*
X10280283Y-104399930D01*
X10253650Y-104374130D01*
X10027643Y-104231973D01*
X9786639Y-104212805D01*
X9548905Y-104317050D01*
X9498788Y-104356646D01*
X9422254Y-104428280D01*
X9370192Y-104504393D01*
X9336436Y-104611178D01*
X9314816Y-104774828D01*
X9299166Y-105021539D01*
X9288872Y-105248101D01*
X9270625Y-105592862D01*
X9244270Y-105830512D01*
X9199942Y-105980928D01*
X9127777Y-106063986D01*
X9017911Y-106099563D01*
X8862359Y-106107527D01*
X8672931Y-106067978D01*
X8592484Y-105985674D01*
X8569781Y-105880815D01*
X8551694Y-105674007D01*
X8538156Y-105386574D01*
X8529098Y-105039840D01*
X8524453Y-104655129D01*
X8524154Y-104253766D01*
X8528132Y-103857074D01*
X8536320Y-103486378D01*
X8548649Y-103163003D01*
X8565053Y-102908272D01*
X8585463Y-102743509D01*
X8602950Y-102692199D01*
X8744512Y-102627087D01*
X8934236Y-102623641D01*
X9111674Y-102677707D01*
X9111674Y-102677707D01*
G37*
X9111674Y-102677707D02*
X9183658Y-102732125D01*
X9262312Y-102901794D01*
X9288750Y-103162825D01*
X9288750Y-103477401D01*
X9727451Y-103452612D01*
X10104177Y-103453893D01*
X10397996Y-103514486D01*
X10643964Y-103646650D01*
X10866330Y-103850843D01*
X11030330Y-104054339D01*
X11142917Y-104266893D01*
X11212559Y-104518211D01*
X11247720Y-104837996D01*
X11256895Y-105221245D01*
X11246944Y-105581787D01*
X11211303Y-105833660D01*
X11142032Y-105993952D01*
X11031188Y-106079748D01*
X10870829Y-106108134D01*
X10844500Y-106108500D01*
X10680054Y-106088211D01*
X10564306Y-106015918D01*
X10489588Y-105874477D01*
X10448236Y-105646747D01*
X10432583Y-105315583D01*
X10431750Y-105185501D01*
X10430022Y-104892792D01*
X10420509Y-104697479D01*
X10396712Y-104569963D01*
X10352136Y-104480646D01*
X10280283Y-104399930D01*
X10253650Y-104374130D01*
X10027643Y-104231973D01*
X9786639Y-104212805D01*
X9548905Y-104317050D01*
X9498788Y-104356646D01*
X9422254Y-104428280D01*
X9370192Y-104504393D01*
X9336436Y-104611178D01*
X9314816Y-104774828D01*
X9299166Y-105021539D01*
X9288872Y-105248101D01*
X9270625Y-105592862D01*
X9244270Y-105830512D01*
X9199942Y-105980928D01*
X9127777Y-106063986D01*
X9017911Y-106099563D01*
X8862359Y-106107527D01*
X8672931Y-106067978D01*
X8592484Y-105985674D01*
X8569781Y-105880815D01*
X8551694Y-105674007D01*
X8538156Y-105386574D01*
X8529098Y-105039840D01*
X8524453Y-104655129D01*
X8524154Y-104253766D01*
X8528132Y-103857074D01*
X8536320Y-103486378D01*
X8548649Y-103163003D01*
X8565053Y-102908272D01*
X8585463Y-102743509D01*
X8602950Y-102692199D01*
X8744512Y-102627087D01*
X8934236Y-102623641D01*
X9111674Y-102677707D01*
G36*
X15972719Y-103450740D02*
G01*
X16153558Y-103489913D01*
X16326558Y-103576194D01*
X16436775Y-103647875D01*
X16653802Y-103815933D01*
X16810061Y-103996739D01*
X16915687Y-104215361D01*
X16980816Y-104496863D01*
X17015584Y-104866315D01*
X17025066Y-105102848D01*
X17031057Y-105483025D01*
X17019623Y-105754456D01*
X16984240Y-105934929D01*
X16918387Y-106042227D01*
X16815540Y-106094138D01*
X16669177Y-106108446D01*
X16656263Y-106108500D01*
X16488373Y-106094196D01*
X16381737Y-106058703D01*
X16370499Y-106047426D01*
X16282192Y-106019002D01*
X16172118Y-106047426D01*
X15949867Y-106094252D01*
X15665917Y-106104906D01*
X15376398Y-106081624D01*
X15137437Y-106026642D01*
X15083522Y-106004065D01*
X14783210Y-105792387D01*
X14538601Y-105497176D01*
X14372128Y-105153893D01*
X14306226Y-104797996D01*
X14306163Y-104792581D01*
X15130768Y-104792581D01*
X15182599Y-105000664D01*
X15302028Y-105178164D01*
X15471992Y-105303517D01*
X15675426Y-105355163D01*
X15895266Y-105311540D01*
X15996869Y-105253779D01*
X16166716Y-105067271D01*
X16243515Y-104832970D01*
X16213798Y-104593491D01*
X16209202Y-104581970D01*
X16060778Y-104358412D01*
X15857524Y-104230398D01*
X15628043Y-104204555D01*
X15400938Y-104287508D01*
X15298159Y-104370909D01*
X15163600Y-104575475D01*
X15130768Y-104792581D01*
X14306163Y-104792581D01*
X14305958Y-104775000D01*
X14360491Y-104439210D01*
X14508481Y-104105585D01*
X14726509Y-103810343D01*
X14991158Y-103589701D01*
X15112835Y-103527042D01*
X15287660Y-103480940D01*
X15529294Y-103449883D01*
X15724784Y-103441500D01*
X15972719Y-103450740D01*
X15972719Y-103450740D01*
G37*
X15972719Y-103450740D02*
X16153558Y-103489913D01*
X16326558Y-103576194D01*
X16436775Y-103647875D01*
X16653802Y-103815933D01*
X16810061Y-103996739D01*
X16915687Y-104215361D01*
X16980816Y-104496863D01*
X17015584Y-104866315D01*
X17025066Y-105102848D01*
X17031057Y-105483025D01*
X17019623Y-105754456D01*
X16984240Y-105934929D01*
X16918387Y-106042227D01*
X16815540Y-106094138D01*
X16669177Y-106108446D01*
X16656263Y-106108500D01*
X16488373Y-106094196D01*
X16381737Y-106058703D01*
X16370499Y-106047426D01*
X16282192Y-106019002D01*
X16172118Y-106047426D01*
X15949867Y-106094252D01*
X15665917Y-106104906D01*
X15376398Y-106081624D01*
X15137437Y-106026642D01*
X15083522Y-106004065D01*
X14783210Y-105792387D01*
X14538601Y-105497176D01*
X14372128Y-105153893D01*
X14306226Y-104797996D01*
X14306163Y-104792581D01*
X15130768Y-104792581D01*
X15182599Y-105000664D01*
X15302028Y-105178164D01*
X15471992Y-105303517D01*
X15675426Y-105355163D01*
X15895266Y-105311540D01*
X15996869Y-105253779D01*
X16166716Y-105067271D01*
X16243515Y-104832970D01*
X16213798Y-104593491D01*
X16209202Y-104581970D01*
X16060778Y-104358412D01*
X15857524Y-104230398D01*
X15628043Y-104204555D01*
X15400938Y-104287508D01*
X15298159Y-104370909D01*
X15163600Y-104575475D01*
X15130768Y-104792581D01*
X14306163Y-104792581D01*
X14305958Y-104775000D01*
X14360491Y-104439210D01*
X14508481Y-104105585D01*
X14726509Y-103810343D01*
X14991158Y-103589701D01*
X15112835Y-103527042D01*
X15287660Y-103480940D01*
X15529294Y-103449883D01*
X15724784Y-103441500D01*
X15972719Y-103450740D01*
G36*
X17884220Y-103448536D02*
G01*
X18027444Y-103507187D01*
X18039049Y-103517699D01*
X18076881Y-103621718D01*
X18101764Y-103846543D01*
X18113897Y-104194439D01*
X18115250Y-104398924D01*
X18120027Y-104776781D01*
X18137790Y-105044015D01*
X18173683Y-105216763D01*
X18232852Y-105311162D01*
X18320442Y-105343346D01*
X18413824Y-105335259D01*
X18472597Y-105304831D01*
X18511846Y-105223802D01*
X18538309Y-105067140D01*
X18558725Y-104809818D01*
X18559750Y-104793176D01*
X18581836Y-104544124D01*
X18612411Y-104343094D01*
X18645819Y-104224649D01*
X18655000Y-104210904D01*
X18835636Y-104114806D01*
X19044616Y-104117442D01*
X19198764Y-104193820D01*
X19279842Y-104275425D01*
X19331109Y-104381968D01*
X19362633Y-104547045D01*
X19384478Y-104804252D01*
X19385250Y-104816249D01*
X19406271Y-105073067D01*
X19433750Y-105228356D01*
X19474848Y-105307587D01*
X19531175Y-105335265D01*
X19645045Y-105341038D01*
X19726400Y-105297434D01*
X19780388Y-105188316D01*
X19812152Y-104997548D01*
X19826838Y-104708993D01*
X19829750Y-104398924D01*
X19832989Y-104030929D01*
X19847350Y-103771203D01*
X19879802Y-103601086D01*
X19937309Y-103501914D01*
X20026838Y-103455026D01*
X20155358Y-103441760D01*
X20187164Y-103441500D01*
X20335835Y-103451511D01*
X20443124Y-103493235D01*
X20515668Y-103584204D01*
X20560100Y-103741952D01*
X20583056Y-103984013D01*
X20591171Y-104327919D01*
X20591750Y-104510651D01*
X20585131Y-104939779D01*
X20560760Y-105264554D01*
X20511864Y-105507148D01*
X20431670Y-105689733D01*
X20313404Y-105834482D01*
X20150293Y-105963565D01*
X20147282Y-105965625D01*
X19938573Y-106057252D01*
X19674778Y-106105387D01*
X19404797Y-106107519D01*
X19177529Y-106061139D01*
X19096077Y-106019594D01*
X18981344Y-105963071D01*
X18878333Y-105998076D01*
X18847562Y-106019594D01*
X18674577Y-106086253D01*
X18430799Y-106109544D01*
X18164149Y-106091216D01*
X17922550Y-106033018D01*
X17813044Y-105981843D01*
X17644150Y-105863641D01*
X17521688Y-105731537D01*
X17438528Y-105563545D01*
X17387544Y-105337679D01*
X17361606Y-105031952D01*
X17353585Y-104624378D01*
X17353487Y-104564450D01*
X17358017Y-104232703D01*
X17370607Y-103939866D01*
X17389477Y-103713104D01*
X17412848Y-103579580D01*
X17418984Y-103564325D01*
X17525664Y-103481190D01*
X17698851Y-103441232D01*
X17884220Y-103448536D01*
X17884220Y-103448536D01*
G37*
X17884220Y-103448536D02*
X18027444Y-103507187D01*
X18039049Y-103517699D01*
X18076881Y-103621718D01*
X18101764Y-103846543D01*
X18113897Y-104194439D01*
X18115250Y-104398924D01*
X18120027Y-104776781D01*
X18137790Y-105044015D01*
X18173683Y-105216763D01*
X18232852Y-105311162D01*
X18320442Y-105343346D01*
X18413824Y-105335259D01*
X18472597Y-105304831D01*
X18511846Y-105223802D01*
X18538309Y-105067140D01*
X18558725Y-104809818D01*
X18559750Y-104793176D01*
X18581836Y-104544124D01*
X18612411Y-104343094D01*
X18645819Y-104224649D01*
X18655000Y-104210904D01*
X18835636Y-104114806D01*
X19044616Y-104117442D01*
X19198764Y-104193820D01*
X19279842Y-104275425D01*
X19331109Y-104381968D01*
X19362633Y-104547045D01*
X19384478Y-104804252D01*
X19385250Y-104816249D01*
X19406271Y-105073067D01*
X19433750Y-105228356D01*
X19474848Y-105307587D01*
X19531175Y-105335265D01*
X19645045Y-105341038D01*
X19726400Y-105297434D01*
X19780388Y-105188316D01*
X19812152Y-104997548D01*
X19826838Y-104708993D01*
X19829750Y-104398924D01*
X19832989Y-104030929D01*
X19847350Y-103771203D01*
X19879802Y-103601086D01*
X19937309Y-103501914D01*
X20026838Y-103455026D01*
X20155358Y-103441760D01*
X20187164Y-103441500D01*
X20335835Y-103451511D01*
X20443124Y-103493235D01*
X20515668Y-103584204D01*
X20560100Y-103741952D01*
X20583056Y-103984013D01*
X20591171Y-104327919D01*
X20591750Y-104510651D01*
X20585131Y-104939779D01*
X20560760Y-105264554D01*
X20511864Y-105507148D01*
X20431670Y-105689733D01*
X20313404Y-105834482D01*
X20150293Y-105963565D01*
X20147282Y-105965625D01*
X19938573Y-106057252D01*
X19674778Y-106105387D01*
X19404797Y-106107519D01*
X19177529Y-106061139D01*
X19096077Y-106019594D01*
X18981344Y-105963071D01*
X18878333Y-105998076D01*
X18847562Y-106019594D01*
X18674577Y-106086253D01*
X18430799Y-106109544D01*
X18164149Y-106091216D01*
X17922550Y-106033018D01*
X17813044Y-105981843D01*
X17644150Y-105863641D01*
X17521688Y-105731537D01*
X17438528Y-105563545D01*
X17387544Y-105337679D01*
X17361606Y-105031952D01*
X17353585Y-104624378D01*
X17353487Y-104564450D01*
X17358017Y-104232703D01*
X17370607Y-103939866D01*
X17389477Y-103713104D01*
X17412848Y-103579580D01*
X17418984Y-103564325D01*
X17525664Y-103481190D01*
X17698851Y-103441232D01*
X17884220Y-103448536D01*
G04 #@! TD*
M02*
