G04 #@! TF.GenerationSoftware,KiCad,Pcbnew,(5.1.4)-1*
G04 #@! TF.CreationDate,2020-09-27T05:02:13-04:00*
G04 #@! TF.ProjectId,southpawcase,736f7574-6870-4617-9763-6173652e6b69,rev?*
G04 #@! TF.SameCoordinates,Original*
G04 #@! TF.FileFunction,Profile,NP*
%FSLAX46Y46*%
G04 Gerber Fmt 4.6, Leading zero omitted, Abs format (unit mm)*
G04 Created by KiCad (PCBNEW (5.1.4)-1) date 2020-09-27 05:02:13*
%MOMM*%
%LPD*%
G04 APERTURE LIST*
%ADD10C,0.050000*%
G04 APERTURE END LIST*
D10*
X-12668750Y-109487500D02*
X2331250Y-109487500D01*
X-12668750Y50000D02*
X2331250Y50000D01*
X-10300000Y-3750000D02*
G75*
G03X-10300000Y-3750000I-950000J0D01*
G01*
X-10300000Y-105400000D02*
G75*
G03X-10300000Y-105400000I-950000J0D01*
G01*
X189000000Y-3750000D02*
G75*
G03X189000000Y-3750000I-950000J0D01*
G01*
X96850000Y-3750000D02*
G75*
G03X96850000Y-3750000I-950000J0D01*
G01*
X281150000Y-3750000D02*
G75*
G03X281150000Y-3750000I-950000J0D01*
G01*
X96850000Y-105400000D02*
G75*
G03X96850000Y-105400000I-950000J0D01*
G01*
X189000000Y-105400000D02*
G75*
G03X189000000Y-105400000I-950000J0D01*
G01*
X281150000Y-105400000D02*
G75*
G03X281150000Y-105400000I-950000J0D01*
G01*
X2331250Y50000D02*
X364281250Y50000D01*
X364281250Y-109487500D02*
X2331250Y-109487500D01*
X-15050000Y-2331250D02*
G75*
G02X-12668750Y50000I2381250J0D01*
G01*
X-12668750Y-109487500D02*
G75*
G02X-15050000Y-107106250I0J2381250D01*
G01*
X376187500Y-107106250D02*
G75*
G02X373806250Y-109487500I-2381250J0D01*
G01*
X373806250Y50000D02*
G75*
G02X376187500Y-2331250I0J-2381250D01*
G01*
X364281250Y-109487500D02*
X371425000Y-109487500D01*
X364281250Y50000D02*
X371425000Y50000D01*
X371425000Y50000D02*
X373806250Y50000D01*
X371425000Y-109487500D02*
X373806250Y-109487500D01*
X-15050000Y-107106250D02*
X-15050000Y-2331250D01*
X376187500Y-2331250D02*
X376187500Y-107106250D01*
X373300000Y-105400000D02*
G75*
G03X373300000Y-105400000I-950000J0D01*
G01*
X373300000Y-3750000D02*
G75*
G03X373300000Y-3750000I-950000J0D01*
G01*
M02*
