G04 #@! TF.GenerationSoftware,KiCad,Pcbnew,(5.1.4)-1*
G04 #@! TF.CreationDate,2020-10-07T14:48:33-04:00*
G04 #@! TF.ProjectId,southpawcase,736f7574-6870-4617-9763-6173652e6b69,rev?*
G04 #@! TF.SameCoordinates,Original*
G04 #@! TF.FileFunction,Legend,Top*
G04 #@! TF.FilePolarity,Positive*
%FSLAX46Y46*%
G04 Gerber Fmt 4.6, Leading zero omitted, Abs format (unit mm)*
G04 Created by KiCad (PCBNEW (5.1.4)-1) date 2020-10-07 14:48:33*
%MOMM*%
%LPD*%
G04 APERTURE LIST*
%ADD10C,0.120000*%
%ADD11C,0.010000*%
G04 APERTURE END LIST*
D10*
X391190000Y560000D02*
X391190000Y460000D01*
D11*
G04 #@! TO.C,G\002A\002A\002A*
G36*
X47532012Y-102043911D02*
G01*
X47821020Y-102098357D01*
X48007703Y-102163405D01*
X48229634Y-102301432D01*
X48428292Y-102484343D01*
X48572772Y-102681562D01*
X48608602Y-102757950D01*
X48650386Y-102969589D01*
X48644462Y-103223113D01*
X48593886Y-103472401D01*
X48554249Y-103577891D01*
X48405559Y-103819418D01*
X48162733Y-104095941D01*
X47825528Y-104407687D01*
X47393700Y-104754888D01*
X46985767Y-105054201D01*
X46153734Y-105644600D01*
X47143279Y-105658348D01*
X48132824Y-105672097D01*
X48023909Y-106217148D01*
X47914994Y-106762200D01*
X46146207Y-106775564D01*
X45667937Y-106778655D01*
X45282195Y-106779759D01*
X44979922Y-106778579D01*
X44752060Y-106774818D01*
X44589551Y-106768181D01*
X44483336Y-106758370D01*
X44424357Y-106745089D01*
X44403555Y-106728042D01*
X44404423Y-106718559D01*
X44427610Y-106628796D01*
X44455611Y-106481443D01*
X44468496Y-106400992D01*
X44483628Y-106309995D01*
X44505163Y-106232161D01*
X44542796Y-106156872D01*
X44606222Y-106073510D01*
X44705138Y-105971456D01*
X44849239Y-105840092D01*
X45048222Y-105668798D01*
X45311782Y-105446956D01*
X45430200Y-105347767D01*
X45805604Y-105030883D01*
X46112667Y-104765524D01*
X46363220Y-104540807D01*
X46569095Y-104345849D01*
X46742124Y-104169765D01*
X46894137Y-104001673D01*
X46896271Y-103999211D01*
X47104808Y-103734113D01*
X47239449Y-103496785D01*
X47311955Y-103260361D01*
X47334084Y-102999155D01*
X47328312Y-102814669D01*
X47302651Y-102696609D01*
X47247067Y-102610278D01*
X47211128Y-102573950D01*
X47128618Y-102509457D01*
X47035858Y-102477703D01*
X46899038Y-102471420D01*
X46764466Y-102477932D01*
X46488042Y-102520842D01*
X46278108Y-102619726D01*
X46111412Y-102790451D01*
X45982651Y-103011427D01*
X45900695Y-103207514D01*
X45851153Y-103409806D01*
X45824273Y-103661200D01*
X45820591Y-103724332D01*
X45801984Y-103959056D01*
X45775905Y-104093898D01*
X45742068Y-104130324D01*
X45741175Y-104130008D01*
X45663537Y-104107743D01*
X45521075Y-104072560D01*
X45385950Y-104041417D01*
X45087701Y-103974680D01*
X45111901Y-103636459D01*
X45176509Y-103274864D01*
X45309333Y-102924313D01*
X45494836Y-102624449D01*
X45521069Y-102592369D01*
X45696415Y-102436422D01*
X45941267Y-102286803D01*
X46224004Y-102159657D01*
X46513009Y-102071128D01*
X46562221Y-102060741D01*
X46869937Y-102022782D01*
X47204093Y-102017946D01*
X47532012Y-102043911D01*
X47532012Y-102043911D01*
G37*
X47532012Y-102043911D02*
X47821020Y-102098357D01*
X48007703Y-102163405D01*
X48229634Y-102301432D01*
X48428292Y-102484343D01*
X48572772Y-102681562D01*
X48608602Y-102757950D01*
X48650386Y-102969589D01*
X48644462Y-103223113D01*
X48593886Y-103472401D01*
X48554249Y-103577891D01*
X48405559Y-103819418D01*
X48162733Y-104095941D01*
X47825528Y-104407687D01*
X47393700Y-104754888D01*
X46985767Y-105054201D01*
X46153734Y-105644600D01*
X47143279Y-105658348D01*
X48132824Y-105672097D01*
X48023909Y-106217148D01*
X47914994Y-106762200D01*
X46146207Y-106775564D01*
X45667937Y-106778655D01*
X45282195Y-106779759D01*
X44979922Y-106778579D01*
X44752060Y-106774818D01*
X44589551Y-106768181D01*
X44483336Y-106758370D01*
X44424357Y-106745089D01*
X44403555Y-106728042D01*
X44404423Y-106718559D01*
X44427610Y-106628796D01*
X44455611Y-106481443D01*
X44468496Y-106400992D01*
X44483628Y-106309995D01*
X44505163Y-106232161D01*
X44542796Y-106156872D01*
X44606222Y-106073510D01*
X44705138Y-105971456D01*
X44849239Y-105840092D01*
X45048222Y-105668798D01*
X45311782Y-105446956D01*
X45430200Y-105347767D01*
X45805604Y-105030883D01*
X46112667Y-104765524D01*
X46363220Y-104540807D01*
X46569095Y-104345849D01*
X46742124Y-104169765D01*
X46894137Y-104001673D01*
X46896271Y-103999211D01*
X47104808Y-103734113D01*
X47239449Y-103496785D01*
X47311955Y-103260361D01*
X47334084Y-102999155D01*
X47328312Y-102814669D01*
X47302651Y-102696609D01*
X47247067Y-102610278D01*
X47211128Y-102573950D01*
X47128618Y-102509457D01*
X47035858Y-102477703D01*
X46899038Y-102471420D01*
X46764466Y-102477932D01*
X46488042Y-102520842D01*
X46278108Y-102619726D01*
X46111412Y-102790451D01*
X45982651Y-103011427D01*
X45900695Y-103207514D01*
X45851153Y-103409806D01*
X45824273Y-103661200D01*
X45820591Y-103724332D01*
X45801984Y-103959056D01*
X45775905Y-104093898D01*
X45742068Y-104130324D01*
X45741175Y-104130008D01*
X45663537Y-104107743D01*
X45521075Y-104072560D01*
X45385950Y-104041417D01*
X45087701Y-103974680D01*
X45111901Y-103636459D01*
X45176509Y-103274864D01*
X45309333Y-102924313D01*
X45494836Y-102624449D01*
X45521069Y-102592369D01*
X45696415Y-102436422D01*
X45941267Y-102286803D01*
X46224004Y-102159657D01*
X46513009Y-102071128D01*
X46562221Y-102060741D01*
X46869937Y-102022782D01*
X47204093Y-102017946D01*
X47532012Y-102043911D01*
G36*
X42267900Y-103293625D02*
G01*
X42941000Y-103307800D01*
X43068000Y-104400000D01*
X43107118Y-104719201D01*
X43145458Y-105000753D01*
X43180744Y-105230279D01*
X43210699Y-105393401D01*
X43233047Y-105475743D01*
X43239455Y-105482821D01*
X43274437Y-105437007D01*
X43348913Y-105313343D01*
X43455901Y-105124324D01*
X43588419Y-104882446D01*
X43739485Y-104600204D01*
X43849753Y-104390621D01*
X44415596Y-103307800D01*
X44605398Y-103307800D01*
X44731457Y-103313993D01*
X44803141Y-103329313D01*
X44807900Y-103333606D01*
X44787635Y-103382645D01*
X44724416Y-103511311D01*
X44623364Y-103709726D01*
X44489601Y-103968009D01*
X44328249Y-104276283D01*
X44144430Y-104624670D01*
X43943265Y-105003289D01*
X43906200Y-105072781D01*
X42991800Y-106786149D01*
X42548267Y-106786874D01*
X42334676Y-106785549D01*
X42201693Y-106777331D01*
X42128344Y-106757141D01*
X42093652Y-106719897D01*
X42079391Y-106673300D01*
X42065964Y-106595789D01*
X42040760Y-106434646D01*
X42005913Y-106204592D01*
X41963558Y-105920345D01*
X41915830Y-105596628D01*
X41864862Y-105248158D01*
X41812789Y-104889658D01*
X41761746Y-104535846D01*
X41713868Y-104201444D01*
X41671288Y-103901171D01*
X41636141Y-103649747D01*
X41610561Y-103461892D01*
X41596684Y-103352328D01*
X41594800Y-103331358D01*
X41644578Y-103309002D01*
X41790536Y-103295398D01*
X42027606Y-103290830D01*
X42267900Y-103293625D01*
X42267900Y-103293625D01*
G37*
X42267900Y-103293625D02*
X42941000Y-103307800D01*
X43068000Y-104400000D01*
X43107118Y-104719201D01*
X43145458Y-105000753D01*
X43180744Y-105230279D01*
X43210699Y-105393401D01*
X43233047Y-105475743D01*
X43239455Y-105482821D01*
X43274437Y-105437007D01*
X43348913Y-105313343D01*
X43455901Y-105124324D01*
X43588419Y-104882446D01*
X43739485Y-104600204D01*
X43849753Y-104390621D01*
X44415596Y-103307800D01*
X44605398Y-103307800D01*
X44731457Y-103313993D01*
X44803141Y-103329313D01*
X44807900Y-103333606D01*
X44787635Y-103382645D01*
X44724416Y-103511311D01*
X44623364Y-103709726D01*
X44489601Y-103968009D01*
X44328249Y-104276283D01*
X44144430Y-104624670D01*
X43943265Y-105003289D01*
X43906200Y-105072781D01*
X42991800Y-106786149D01*
X42548267Y-106786874D01*
X42334676Y-106785549D01*
X42201693Y-106777331D01*
X42128344Y-106757141D01*
X42093652Y-106719897D01*
X42079391Y-106673300D01*
X42065964Y-106595789D01*
X42040760Y-106434646D01*
X42005913Y-106204592D01*
X41963558Y-105920345D01*
X41915830Y-105596628D01*
X41864862Y-105248158D01*
X41812789Y-104889658D01*
X41761746Y-104535846D01*
X41713868Y-104201444D01*
X41671288Y-103901171D01*
X41636141Y-103649747D01*
X41610561Y-103461892D01*
X41596684Y-103352328D01*
X41594800Y-103331358D01*
X41644578Y-103309002D01*
X41790536Y-103295398D01*
X42027606Y-103290830D01*
X42267900Y-103293625D01*
G04 #@! TD*
M02*
