G04 #@! TF.GenerationSoftware,KiCad,Pcbnew,(5.1.4)-1*
G04 #@! TF.CreationDate,2020-10-07T14:48:33-04:00*
G04 #@! TF.ProjectId,southpawcase,736f7574-6870-4617-9763-6173652e6b69,rev?*
G04 #@! TF.SameCoordinates,Original*
G04 #@! TF.FileFunction,Copper,L2,Bot*
G04 #@! TF.FilePolarity,Positive*
%FSLAX46Y46*%
G04 Gerber Fmt 4.6, Leading zero omitted, Abs format (unit mm)*
G04 Created by KiCad (PCBNEW (5.1.4)-1) date 2020-10-07 14:48:33*
%MOMM*%
%LPD*%
G04 APERTURE LIST*
G04 #@! TA.AperFunction,EtchedComponent*
%ADD10C,0.010000*%
G04 #@! TD*
G04 APERTURE END LIST*
D10*
G04 #@! TO.C,G\002A\002A\002A*
G36*
X196274459Y-32943443D02*
G01*
X196409829Y-32947384D01*
X196532219Y-32953937D01*
X196636360Y-32963132D01*
X196665850Y-32966754D01*
X196990791Y-33021551D01*
X197303440Y-33097522D01*
X197604750Y-33195145D01*
X197895677Y-33314899D01*
X198177177Y-33457262D01*
X198450204Y-33622712D01*
X198715714Y-33811727D01*
X198974661Y-34024787D01*
X199202554Y-34237160D01*
X199477247Y-34524924D01*
X199731762Y-34827455D01*
X199966164Y-35144896D01*
X200180518Y-35477389D01*
X200374889Y-35825077D01*
X200549343Y-36188103D01*
X200703943Y-36566610D01*
X200838754Y-36960741D01*
X200953842Y-37370638D01*
X201049272Y-37796444D01*
X201125107Y-38238302D01*
X201167284Y-38563550D01*
X201184955Y-38734394D01*
X201200619Y-38914661D01*
X201214091Y-39100166D01*
X201225183Y-39286726D01*
X201233708Y-39470159D01*
X201239479Y-39646282D01*
X201242309Y-39810912D01*
X201242011Y-39959865D01*
X201238397Y-40088958D01*
X201236861Y-40119300D01*
X201196359Y-40646666D01*
X201135027Y-41159621D01*
X201052763Y-41658432D01*
X200949464Y-42143366D01*
X200825028Y-42614694D01*
X200679353Y-43072682D01*
X200512337Y-43517599D01*
X200323877Y-43949713D01*
X200113871Y-44369293D01*
X199882217Y-44776606D01*
X199628812Y-45171922D01*
X199353555Y-45555507D01*
X199056343Y-45927631D01*
X198995376Y-45999400D01*
X198923806Y-46080474D01*
X198838650Y-46173085D01*
X198743501Y-46273612D01*
X198641955Y-46378439D01*
X198537606Y-46483948D01*
X198434048Y-46586522D01*
X198334875Y-46682543D01*
X198243683Y-46768392D01*
X198164066Y-46840453D01*
X198132700Y-46867650D01*
X198003751Y-46973881D01*
X197861868Y-47084467D01*
X197714195Y-47194134D01*
X197567881Y-47297612D01*
X197430071Y-47389630D01*
X197393415Y-47412979D01*
X197296632Y-47471151D01*
X197183554Y-47534597D01*
X197059639Y-47600594D01*
X196930343Y-47666419D01*
X196801122Y-47729350D01*
X196677434Y-47786665D01*
X196564734Y-47835640D01*
X196475350Y-47871029D01*
X196141188Y-47981598D01*
X195803369Y-48067132D01*
X195461440Y-48127698D01*
X195114947Y-48163361D01*
X194763438Y-48174186D01*
X194457201Y-48163708D01*
X194114232Y-48129874D01*
X193780747Y-48072629D01*
X193457010Y-47992068D01*
X193143283Y-47888287D01*
X192839831Y-47761380D01*
X192546916Y-47611444D01*
X192264803Y-47438573D01*
X192065904Y-47298005D01*
X191814262Y-47096082D01*
X191573849Y-46875121D01*
X191343063Y-46633493D01*
X191120298Y-46369569D01*
X191006104Y-46221650D01*
X190768529Y-45883550D01*
X190551327Y-45530654D01*
X190354776Y-45163703D01*
X190179155Y-44783440D01*
X190024744Y-44390603D01*
X189891820Y-43985936D01*
X189780663Y-43570179D01*
X189691551Y-43144072D01*
X189624763Y-42708358D01*
X189599270Y-42481500D01*
X189572598Y-42139723D01*
X189558015Y-41780741D01*
X189555491Y-41409671D01*
X189564996Y-41031628D01*
X189586499Y-40651731D01*
X189611892Y-40354250D01*
X189673526Y-39851860D01*
X189758506Y-39359360D01*
X189866800Y-38876835D01*
X189998373Y-38404372D01*
X190153192Y-37942057D01*
X190331225Y-37489976D01*
X190532437Y-37048217D01*
X190756797Y-36616865D01*
X191004270Y-36196006D01*
X191274823Y-35785728D01*
X191479125Y-35503275D01*
X191743242Y-35167444D01*
X192013131Y-34856151D01*
X192289134Y-34569120D01*
X192571589Y-34306076D01*
X192860836Y-34066745D01*
X193157215Y-33850851D01*
X193461065Y-33658119D01*
X193772726Y-33488276D01*
X194092537Y-33341045D01*
X194208400Y-33294046D01*
X194426118Y-33213832D01*
X194641000Y-33145400D01*
X194859081Y-33087232D01*
X195086401Y-33037809D01*
X195328996Y-32995613D01*
X195484750Y-32973085D01*
X195587342Y-32961942D01*
X195708571Y-32953243D01*
X195843166Y-32947015D01*
X195985859Y-32943287D01*
X196131380Y-32942087D01*
X196274459Y-32943443D01*
X196274459Y-32943443D01*
G37*
X196274459Y-32943443D02*
X196409829Y-32947384D01*
X196532219Y-32953937D01*
X196636360Y-32963132D01*
X196665850Y-32966754D01*
X196990791Y-33021551D01*
X197303440Y-33097522D01*
X197604750Y-33195145D01*
X197895677Y-33314899D01*
X198177177Y-33457262D01*
X198450204Y-33622712D01*
X198715714Y-33811727D01*
X198974661Y-34024787D01*
X199202554Y-34237160D01*
X199477247Y-34524924D01*
X199731762Y-34827455D01*
X199966164Y-35144896D01*
X200180518Y-35477389D01*
X200374889Y-35825077D01*
X200549343Y-36188103D01*
X200703943Y-36566610D01*
X200838754Y-36960741D01*
X200953842Y-37370638D01*
X201049272Y-37796444D01*
X201125107Y-38238302D01*
X201167284Y-38563550D01*
X201184955Y-38734394D01*
X201200619Y-38914661D01*
X201214091Y-39100166D01*
X201225183Y-39286726D01*
X201233708Y-39470159D01*
X201239479Y-39646282D01*
X201242309Y-39810912D01*
X201242011Y-39959865D01*
X201238397Y-40088958D01*
X201236861Y-40119300D01*
X201196359Y-40646666D01*
X201135027Y-41159621D01*
X201052763Y-41658432D01*
X200949464Y-42143366D01*
X200825028Y-42614694D01*
X200679353Y-43072682D01*
X200512337Y-43517599D01*
X200323877Y-43949713D01*
X200113871Y-44369293D01*
X199882217Y-44776606D01*
X199628812Y-45171922D01*
X199353555Y-45555507D01*
X199056343Y-45927631D01*
X198995376Y-45999400D01*
X198923806Y-46080474D01*
X198838650Y-46173085D01*
X198743501Y-46273612D01*
X198641955Y-46378439D01*
X198537606Y-46483948D01*
X198434048Y-46586522D01*
X198334875Y-46682543D01*
X198243683Y-46768392D01*
X198164066Y-46840453D01*
X198132700Y-46867650D01*
X198003751Y-46973881D01*
X197861868Y-47084467D01*
X197714195Y-47194134D01*
X197567881Y-47297612D01*
X197430071Y-47389630D01*
X197393415Y-47412979D01*
X197296632Y-47471151D01*
X197183554Y-47534597D01*
X197059639Y-47600594D01*
X196930343Y-47666419D01*
X196801122Y-47729350D01*
X196677434Y-47786665D01*
X196564734Y-47835640D01*
X196475350Y-47871029D01*
X196141188Y-47981598D01*
X195803369Y-48067132D01*
X195461440Y-48127698D01*
X195114947Y-48163361D01*
X194763438Y-48174186D01*
X194457201Y-48163708D01*
X194114232Y-48129874D01*
X193780747Y-48072629D01*
X193457010Y-47992068D01*
X193143283Y-47888287D01*
X192839831Y-47761380D01*
X192546916Y-47611444D01*
X192264803Y-47438573D01*
X192065904Y-47298005D01*
X191814262Y-47096082D01*
X191573849Y-46875121D01*
X191343063Y-46633493D01*
X191120298Y-46369569D01*
X191006104Y-46221650D01*
X190768529Y-45883550D01*
X190551327Y-45530654D01*
X190354776Y-45163703D01*
X190179155Y-44783440D01*
X190024744Y-44390603D01*
X189891820Y-43985936D01*
X189780663Y-43570179D01*
X189691551Y-43144072D01*
X189624763Y-42708358D01*
X189599270Y-42481500D01*
X189572598Y-42139723D01*
X189558015Y-41780741D01*
X189555491Y-41409671D01*
X189564996Y-41031628D01*
X189586499Y-40651731D01*
X189611892Y-40354250D01*
X189673526Y-39851860D01*
X189758506Y-39359360D01*
X189866800Y-38876835D01*
X189998373Y-38404372D01*
X190153192Y-37942057D01*
X190331225Y-37489976D01*
X190532437Y-37048217D01*
X190756797Y-36616865D01*
X191004270Y-36196006D01*
X191274823Y-35785728D01*
X191479125Y-35503275D01*
X191743242Y-35167444D01*
X192013131Y-34856151D01*
X192289134Y-34569120D01*
X192571589Y-34306076D01*
X192860836Y-34066745D01*
X193157215Y-33850851D01*
X193461065Y-33658119D01*
X193772726Y-33488276D01*
X194092537Y-33341045D01*
X194208400Y-33294046D01*
X194426118Y-33213832D01*
X194641000Y-33145400D01*
X194859081Y-33087232D01*
X195086401Y-33037809D01*
X195328996Y-32995613D01*
X195484750Y-32973085D01*
X195587342Y-32961942D01*
X195708571Y-32953243D01*
X195843166Y-32947015D01*
X195985859Y-32943287D01*
X196131380Y-32942087D01*
X196274459Y-32943443D01*
G36*
X180423649Y-32947087D02*
G01*
X180583607Y-32952737D01*
X180730897Y-32962473D01*
X180871795Y-32976820D01*
X181012575Y-32996298D01*
X181156671Y-33020906D01*
X181493001Y-33095057D01*
X181821444Y-33192086D01*
X182142511Y-33312271D01*
X182456710Y-33455890D01*
X182764550Y-33623220D01*
X183066540Y-33814540D01*
X183363190Y-34030127D01*
X183655008Y-34270259D01*
X183942503Y-34535214D01*
X183958023Y-34550340D01*
X184275887Y-34878611D01*
X184577367Y-35225897D01*
X184861933Y-35591371D01*
X185129057Y-35974205D01*
X185378211Y-36373571D01*
X185608866Y-36788641D01*
X185820493Y-37218588D01*
X186012563Y-37662584D01*
X186115963Y-37929355D01*
X186277190Y-38399895D01*
X186414359Y-38878437D01*
X186527386Y-39364593D01*
X186616188Y-39857972D01*
X186680681Y-40358186D01*
X186709357Y-40684450D01*
X186719453Y-40872481D01*
X186724455Y-41080656D01*
X186724546Y-41304271D01*
X186719905Y-41538621D01*
X186710712Y-41779005D01*
X186697149Y-42020718D01*
X186679396Y-42259058D01*
X186657633Y-42489319D01*
X186632041Y-42706800D01*
X186631608Y-42710100D01*
X186561217Y-43160246D01*
X186470288Y-43596045D01*
X186358880Y-44017335D01*
X186227051Y-44423954D01*
X186074859Y-44815740D01*
X185902363Y-45192531D01*
X185709620Y-45554164D01*
X185496689Y-45900479D01*
X185473303Y-45935736D01*
X185259407Y-46235129D01*
X185030615Y-46515554D01*
X184787658Y-46776438D01*
X184531267Y-47017209D01*
X184262174Y-47237294D01*
X183981110Y-47436122D01*
X183688808Y-47613119D01*
X183385997Y-47767715D01*
X183073411Y-47899336D01*
X182873650Y-47969598D01*
X182592798Y-48049904D01*
X182296718Y-48113130D01*
X181995978Y-48157619D01*
X181930367Y-48163925D01*
X181848159Y-48169764D01*
X181754825Y-48174947D01*
X181655833Y-48179280D01*
X181556653Y-48182574D01*
X181462751Y-48184637D01*
X181379599Y-48185277D01*
X181312665Y-48184304D01*
X181279800Y-48182668D01*
X180982143Y-48154490D01*
X180703416Y-48115253D01*
X180439150Y-48063783D01*
X180184875Y-47998904D01*
X179936123Y-47919441D01*
X179688425Y-47824221D01*
X179437312Y-47712068D01*
X179374800Y-47681894D01*
X179078379Y-47524929D01*
X178786284Y-47346157D01*
X178497655Y-47144921D01*
X178211631Y-46920569D01*
X177927354Y-46672444D01*
X177643964Y-46399892D01*
X177507514Y-46259689D01*
X177205401Y-45924451D01*
X176922263Y-45572373D01*
X176658160Y-45203565D01*
X176413149Y-44818138D01*
X176187290Y-44416200D01*
X175980640Y-43997864D01*
X175793259Y-43563238D01*
X175625205Y-43112434D01*
X175476537Y-42645561D01*
X175363285Y-42227500D01*
X175276087Y-41848771D01*
X175199296Y-41454190D01*
X175134230Y-41051623D01*
X175082205Y-40648933D01*
X175056141Y-40392350D01*
X175048425Y-40289409D01*
X175041788Y-40166337D01*
X175036303Y-40028146D01*
X175032044Y-39879853D01*
X175029082Y-39726470D01*
X175027491Y-39573013D01*
X175027344Y-39424496D01*
X175028713Y-39285933D01*
X175031672Y-39162339D01*
X175036293Y-39058728D01*
X175036671Y-39052500D01*
X175074371Y-38609449D01*
X175131886Y-38180933D01*
X175209741Y-37764967D01*
X175308460Y-37359562D01*
X175428566Y-36962733D01*
X175570583Y-36572492D01*
X175735035Y-36186854D01*
X175862092Y-35921950D01*
X176051595Y-35566329D01*
X176252436Y-35232753D01*
X176464471Y-34921341D01*
X176687557Y-34632210D01*
X176921549Y-34365480D01*
X177166303Y-34121270D01*
X177421676Y-33899697D01*
X177687522Y-33700882D01*
X177963699Y-33524943D01*
X178250062Y-33371999D01*
X178546468Y-33242168D01*
X178852771Y-33135569D01*
X179168829Y-33052322D01*
X179394312Y-33008256D01*
X179520328Y-32988174D01*
X179635869Y-32972538D01*
X179747067Y-32960892D01*
X179860053Y-32952781D01*
X179980958Y-32947747D01*
X180115914Y-32945336D01*
X180244750Y-32945003D01*
X180423649Y-32947087D01*
X180423649Y-32947087D01*
G37*
X180423649Y-32947087D02*
X180583607Y-32952737D01*
X180730897Y-32962473D01*
X180871795Y-32976820D01*
X181012575Y-32996298D01*
X181156671Y-33020906D01*
X181493001Y-33095057D01*
X181821444Y-33192086D01*
X182142511Y-33312271D01*
X182456710Y-33455890D01*
X182764550Y-33623220D01*
X183066540Y-33814540D01*
X183363190Y-34030127D01*
X183655008Y-34270259D01*
X183942503Y-34535214D01*
X183958023Y-34550340D01*
X184275887Y-34878611D01*
X184577367Y-35225897D01*
X184861933Y-35591371D01*
X185129057Y-35974205D01*
X185378211Y-36373571D01*
X185608866Y-36788641D01*
X185820493Y-37218588D01*
X186012563Y-37662584D01*
X186115963Y-37929355D01*
X186277190Y-38399895D01*
X186414359Y-38878437D01*
X186527386Y-39364593D01*
X186616188Y-39857972D01*
X186680681Y-40358186D01*
X186709357Y-40684450D01*
X186719453Y-40872481D01*
X186724455Y-41080656D01*
X186724546Y-41304271D01*
X186719905Y-41538621D01*
X186710712Y-41779005D01*
X186697149Y-42020718D01*
X186679396Y-42259058D01*
X186657633Y-42489319D01*
X186632041Y-42706800D01*
X186631608Y-42710100D01*
X186561217Y-43160246D01*
X186470288Y-43596045D01*
X186358880Y-44017335D01*
X186227051Y-44423954D01*
X186074859Y-44815740D01*
X185902363Y-45192531D01*
X185709620Y-45554164D01*
X185496689Y-45900479D01*
X185473303Y-45935736D01*
X185259407Y-46235129D01*
X185030615Y-46515554D01*
X184787658Y-46776438D01*
X184531267Y-47017209D01*
X184262174Y-47237294D01*
X183981110Y-47436122D01*
X183688808Y-47613119D01*
X183385997Y-47767715D01*
X183073411Y-47899336D01*
X182873650Y-47969598D01*
X182592798Y-48049904D01*
X182296718Y-48113130D01*
X181995978Y-48157619D01*
X181930367Y-48163925D01*
X181848159Y-48169764D01*
X181754825Y-48174947D01*
X181655833Y-48179280D01*
X181556653Y-48182574D01*
X181462751Y-48184637D01*
X181379599Y-48185277D01*
X181312665Y-48184304D01*
X181279800Y-48182668D01*
X180982143Y-48154490D01*
X180703416Y-48115253D01*
X180439150Y-48063783D01*
X180184875Y-47998904D01*
X179936123Y-47919441D01*
X179688425Y-47824221D01*
X179437312Y-47712068D01*
X179374800Y-47681894D01*
X179078379Y-47524929D01*
X178786284Y-47346157D01*
X178497655Y-47144921D01*
X178211631Y-46920569D01*
X177927354Y-46672444D01*
X177643964Y-46399892D01*
X177507514Y-46259689D01*
X177205401Y-45924451D01*
X176922263Y-45572373D01*
X176658160Y-45203565D01*
X176413149Y-44818138D01*
X176187290Y-44416200D01*
X175980640Y-43997864D01*
X175793259Y-43563238D01*
X175625205Y-43112434D01*
X175476537Y-42645561D01*
X175363285Y-42227500D01*
X175276087Y-41848771D01*
X175199296Y-41454190D01*
X175134230Y-41051623D01*
X175082205Y-40648933D01*
X175056141Y-40392350D01*
X175048425Y-40289409D01*
X175041788Y-40166337D01*
X175036303Y-40028146D01*
X175032044Y-39879853D01*
X175029082Y-39726470D01*
X175027491Y-39573013D01*
X175027344Y-39424496D01*
X175028713Y-39285933D01*
X175031672Y-39162339D01*
X175036293Y-39058728D01*
X175036671Y-39052500D01*
X175074371Y-38609449D01*
X175131886Y-38180933D01*
X175209741Y-37764967D01*
X175308460Y-37359562D01*
X175428566Y-36962733D01*
X175570583Y-36572492D01*
X175735035Y-36186854D01*
X175862092Y-35921950D01*
X176051595Y-35566329D01*
X176252436Y-35232753D01*
X176464471Y-34921341D01*
X176687557Y-34632210D01*
X176921549Y-34365480D01*
X177166303Y-34121270D01*
X177421676Y-33899697D01*
X177687522Y-33700882D01*
X177963699Y-33524943D01*
X178250062Y-33371999D01*
X178546468Y-33242168D01*
X178852771Y-33135569D01*
X179168829Y-33052322D01*
X179394312Y-33008256D01*
X179520328Y-32988174D01*
X179635869Y-32972538D01*
X179747067Y-32960892D01*
X179860053Y-32952781D01*
X179980958Y-32947747D01*
X180115914Y-32945336D01*
X180244750Y-32945003D01*
X180423649Y-32947087D01*
G36*
X206887462Y-44790019D02*
G01*
X207023633Y-44794960D01*
X207152699Y-44802391D01*
X207268596Y-44812154D01*
X207365260Y-44824088D01*
X207365600Y-44824140D01*
X207685821Y-44885455D01*
X207995690Y-44969958D01*
X208295074Y-45077582D01*
X208583841Y-45208262D01*
X208861860Y-45361932D01*
X209128997Y-45538527D01*
X209385121Y-45737980D01*
X209609779Y-45940513D01*
X209837547Y-46177431D01*
X210050249Y-46434044D01*
X210247389Y-46709245D01*
X210428469Y-47001925D01*
X210592995Y-47310974D01*
X210740469Y-47635284D01*
X210870395Y-47973745D01*
X210982277Y-48325248D01*
X211075620Y-48688684D01*
X211149925Y-49062945D01*
X211204698Y-49446920D01*
X211213147Y-49523650D01*
X211228274Y-49676160D01*
X211239394Y-49808993D01*
X211246720Y-49927521D01*
X211250462Y-50037114D01*
X211250834Y-50143144D01*
X211248045Y-50250980D01*
X211244683Y-50323750D01*
X211208802Y-50825987D01*
X211155113Y-51310477D01*
X211083419Y-51777775D01*
X210993524Y-52228436D01*
X210885231Y-52663016D01*
X210758344Y-53082071D01*
X210612666Y-53486155D01*
X210448001Y-53875825D01*
X210264151Y-54251635D01*
X210060921Y-54614141D01*
X209838114Y-54963899D01*
X209595533Y-55301464D01*
X209392889Y-55556150D01*
X209336579Y-55621154D01*
X209264797Y-55699702D01*
X209180975Y-55788370D01*
X209088545Y-55883738D01*
X208990937Y-55982382D01*
X208891585Y-56080881D01*
X208793919Y-56175813D01*
X208701370Y-56263755D01*
X208617372Y-56341286D01*
X208545356Y-56404983D01*
X208521300Y-56425302D01*
X208312950Y-56592686D01*
X208098200Y-56754653D01*
X207880952Y-56908578D01*
X207665109Y-57051837D01*
X207454572Y-57181805D01*
X207253244Y-57295858D01*
X207137000Y-57356306D01*
X206844308Y-57490920D01*
X206542680Y-57606767D01*
X206235866Y-57702765D01*
X205927620Y-57777830D01*
X205621695Y-57830881D01*
X205409800Y-57854434D01*
X205348863Y-57858316D01*
X205271227Y-57861385D01*
X205182687Y-57863599D01*
X205089040Y-57864913D01*
X204996082Y-57865281D01*
X204909609Y-57864659D01*
X204835420Y-57863002D01*
X204779309Y-57860266D01*
X204768450Y-57859377D01*
X204465396Y-57823182D01*
X204180169Y-57771716D01*
X203909508Y-57703870D01*
X203650153Y-57618533D01*
X203398842Y-57514594D01*
X203152316Y-57390941D01*
X202907313Y-57246466D01*
X202838050Y-57201806D01*
X202575697Y-57014398D01*
X202327831Y-56806371D01*
X202094807Y-56578213D01*
X201876977Y-56330413D01*
X201674697Y-56063455D01*
X201488320Y-55777829D01*
X201318200Y-55474021D01*
X201164692Y-55152518D01*
X201028149Y-54813807D01*
X200959079Y-54616350D01*
X200832609Y-54195650D01*
X200731350Y-53772788D01*
X200655328Y-53348089D01*
X200604568Y-52921879D01*
X200579095Y-52494483D01*
X200578935Y-52066227D01*
X200604114Y-51637436D01*
X200654657Y-51208436D01*
X200680142Y-51047650D01*
X200762666Y-50633667D01*
X200870186Y-50216998D01*
X201002501Y-49798161D01*
X201159410Y-49377674D01*
X201340711Y-48956054D01*
X201546203Y-48533821D01*
X201775685Y-48111491D01*
X201908441Y-47885350D01*
X202139183Y-47523887D01*
X202382982Y-47184115D01*
X202640109Y-46865772D01*
X202910837Y-46568600D01*
X203195438Y-46292340D01*
X203494184Y-46036733D01*
X203807348Y-45801520D01*
X204135202Y-45586441D01*
X204478017Y-45391238D01*
X204589770Y-45333510D01*
X204901967Y-45186599D01*
X205209513Y-45063433D01*
X205514715Y-44963326D01*
X205819879Y-44885594D01*
X206127312Y-44829553D01*
X206392999Y-44798384D01*
X206496954Y-44791753D01*
X206618059Y-44788255D01*
X206750250Y-44787731D01*
X206887462Y-44790019D01*
X206887462Y-44790019D01*
G37*
X206887462Y-44790019D02*
X207023633Y-44794960D01*
X207152699Y-44802391D01*
X207268596Y-44812154D01*
X207365260Y-44824088D01*
X207365600Y-44824140D01*
X207685821Y-44885455D01*
X207995690Y-44969958D01*
X208295074Y-45077582D01*
X208583841Y-45208262D01*
X208861860Y-45361932D01*
X209128997Y-45538527D01*
X209385121Y-45737980D01*
X209609779Y-45940513D01*
X209837547Y-46177431D01*
X210050249Y-46434044D01*
X210247389Y-46709245D01*
X210428469Y-47001925D01*
X210592995Y-47310974D01*
X210740469Y-47635284D01*
X210870395Y-47973745D01*
X210982277Y-48325248D01*
X211075620Y-48688684D01*
X211149925Y-49062945D01*
X211204698Y-49446920D01*
X211213147Y-49523650D01*
X211228274Y-49676160D01*
X211239394Y-49808993D01*
X211246720Y-49927521D01*
X211250462Y-50037114D01*
X211250834Y-50143144D01*
X211248045Y-50250980D01*
X211244683Y-50323750D01*
X211208802Y-50825987D01*
X211155113Y-51310477D01*
X211083419Y-51777775D01*
X210993524Y-52228436D01*
X210885231Y-52663016D01*
X210758344Y-53082071D01*
X210612666Y-53486155D01*
X210448001Y-53875825D01*
X210264151Y-54251635D01*
X210060921Y-54614141D01*
X209838114Y-54963899D01*
X209595533Y-55301464D01*
X209392889Y-55556150D01*
X209336579Y-55621154D01*
X209264797Y-55699702D01*
X209180975Y-55788370D01*
X209088545Y-55883738D01*
X208990937Y-55982382D01*
X208891585Y-56080881D01*
X208793919Y-56175813D01*
X208701370Y-56263755D01*
X208617372Y-56341286D01*
X208545356Y-56404983D01*
X208521300Y-56425302D01*
X208312950Y-56592686D01*
X208098200Y-56754653D01*
X207880952Y-56908578D01*
X207665109Y-57051837D01*
X207454572Y-57181805D01*
X207253244Y-57295858D01*
X207137000Y-57356306D01*
X206844308Y-57490920D01*
X206542680Y-57606767D01*
X206235866Y-57702765D01*
X205927620Y-57777830D01*
X205621695Y-57830881D01*
X205409800Y-57854434D01*
X205348863Y-57858316D01*
X205271227Y-57861385D01*
X205182687Y-57863599D01*
X205089040Y-57864913D01*
X204996082Y-57865281D01*
X204909609Y-57864659D01*
X204835420Y-57863002D01*
X204779309Y-57860266D01*
X204768450Y-57859377D01*
X204465396Y-57823182D01*
X204180169Y-57771716D01*
X203909508Y-57703870D01*
X203650153Y-57618533D01*
X203398842Y-57514594D01*
X203152316Y-57390941D01*
X202907313Y-57246466D01*
X202838050Y-57201806D01*
X202575697Y-57014398D01*
X202327831Y-56806371D01*
X202094807Y-56578213D01*
X201876977Y-56330413D01*
X201674697Y-56063455D01*
X201488320Y-55777829D01*
X201318200Y-55474021D01*
X201164692Y-55152518D01*
X201028149Y-54813807D01*
X200959079Y-54616350D01*
X200832609Y-54195650D01*
X200731350Y-53772788D01*
X200655328Y-53348089D01*
X200604568Y-52921879D01*
X200579095Y-52494483D01*
X200578935Y-52066227D01*
X200604114Y-51637436D01*
X200654657Y-51208436D01*
X200680142Y-51047650D01*
X200762666Y-50633667D01*
X200870186Y-50216998D01*
X201002501Y-49798161D01*
X201159410Y-49377674D01*
X201340711Y-48956054D01*
X201546203Y-48533821D01*
X201775685Y-48111491D01*
X201908441Y-47885350D01*
X202139183Y-47523887D01*
X202382982Y-47184115D01*
X202640109Y-46865772D01*
X202910837Y-46568600D01*
X203195438Y-46292340D01*
X203494184Y-46036733D01*
X203807348Y-45801520D01*
X204135202Y-45586441D01*
X204478017Y-45391238D01*
X204589770Y-45333510D01*
X204901967Y-45186599D01*
X205209513Y-45063433D01*
X205514715Y-44963326D01*
X205819879Y-44885594D01*
X206127312Y-44829553D01*
X206392999Y-44798384D01*
X206496954Y-44791753D01*
X206618059Y-44788255D01*
X206750250Y-44787731D01*
X206887462Y-44790019D01*
G36*
X169722299Y-44779781D02*
G01*
X170035351Y-44803921D01*
X170345281Y-44850704D01*
X170652920Y-44920425D01*
X170959096Y-45013381D01*
X171264637Y-45129866D01*
X171570371Y-45270176D01*
X171877128Y-45434605D01*
X172185735Y-45623450D01*
X172497022Y-45837005D01*
X172610663Y-45920562D01*
X172895115Y-46146195D01*
X173173203Y-46391986D01*
X173440646Y-46653652D01*
X173693166Y-46926914D01*
X173926484Y-47207492D01*
X174022509Y-47332900D01*
X174262446Y-47674238D01*
X174484710Y-48030904D01*
X174689674Y-48403686D01*
X174877714Y-48793374D01*
X175049205Y-49200757D01*
X175204522Y-49626622D01*
X175344038Y-50071761D01*
X175374521Y-50179067D01*
X175486098Y-50618387D01*
X175573710Y-51050088D01*
X175637377Y-51474911D01*
X175677119Y-51893597D01*
X175692957Y-52306887D01*
X175684910Y-52715521D01*
X175652998Y-53120242D01*
X175597242Y-53521788D01*
X175517662Y-53920902D01*
X175480035Y-54076600D01*
X175372009Y-54456170D01*
X175244364Y-54820373D01*
X175097249Y-55168893D01*
X174930816Y-55501416D01*
X174745213Y-55817626D01*
X174540591Y-56117209D01*
X174451362Y-56234994D01*
X174390377Y-56309556D01*
X174315595Y-56395335D01*
X174231508Y-56487622D01*
X174142612Y-56581711D01*
X174053400Y-56672894D01*
X173968366Y-56756464D01*
X173892003Y-56827713D01*
X173852324Y-56862499D01*
X173590292Y-57069229D01*
X173319307Y-57252298D01*
X173039548Y-57411626D01*
X172751191Y-57547137D01*
X172454414Y-57658750D01*
X172149396Y-57746389D01*
X171836312Y-57809973D01*
X171652366Y-57835652D01*
X171547232Y-57845593D01*
X171425428Y-57853245D01*
X171294697Y-57858414D01*
X171162782Y-57860906D01*
X171037426Y-57860528D01*
X170926373Y-57857086D01*
X170887249Y-57854777D01*
X170554160Y-57818927D01*
X170223689Y-57757849D01*
X169895961Y-57671594D01*
X169571104Y-57560211D01*
X169249243Y-57423752D01*
X168930505Y-57262265D01*
X168615015Y-57075800D01*
X168302900Y-56864409D01*
X168198800Y-56787789D01*
X167852483Y-56512428D01*
X167525914Y-56221267D01*
X167219005Y-55914182D01*
X166931665Y-55591051D01*
X166663804Y-55251748D01*
X166415333Y-54896149D01*
X166186161Y-54524132D01*
X165976199Y-54135572D01*
X165785356Y-53730344D01*
X165613544Y-53308326D01*
X165550004Y-53134443D01*
X165458325Y-52859775D01*
X165372926Y-52572867D01*
X165295077Y-52279185D01*
X165226048Y-51984195D01*
X165167108Y-51693363D01*
X165119527Y-51412156D01*
X165084574Y-51146039D01*
X165081510Y-51117500D01*
X165077486Y-51075620D01*
X165071871Y-51012157D01*
X165064974Y-50930859D01*
X165057106Y-50835472D01*
X165048573Y-50729742D01*
X165039686Y-50617416D01*
X165030754Y-50502241D01*
X165030555Y-50499651D01*
X165020434Y-50366351D01*
X165012390Y-50254195D01*
X165006478Y-50159008D01*
X165002751Y-50076614D01*
X165001262Y-50002838D01*
X165002067Y-49933505D01*
X165005219Y-49864438D01*
X165010770Y-49791464D01*
X165018776Y-49710405D01*
X165029291Y-49617088D01*
X165042367Y-49507337D01*
X165043462Y-49498250D01*
X165103788Y-49087402D01*
X165183959Y-48690832D01*
X165283832Y-48308907D01*
X165403262Y-47941992D01*
X165542105Y-47590452D01*
X165700218Y-47254653D01*
X165877457Y-46934961D01*
X166073678Y-46631741D01*
X166280345Y-46355777D01*
X166353391Y-46269069D01*
X166440876Y-46172019D01*
X166537401Y-46070145D01*
X166637565Y-45968968D01*
X166735968Y-45874005D01*
X166827211Y-45790777D01*
X166865039Y-45758165D01*
X167126232Y-45553695D01*
X167396548Y-45372853D01*
X167675752Y-45215730D01*
X167963613Y-45082415D01*
X168259896Y-44973000D01*
X168564368Y-44887573D01*
X168876797Y-44826224D01*
X169196948Y-44789045D01*
X169405300Y-44777989D01*
X169722299Y-44779781D01*
X169722299Y-44779781D01*
G37*
X169722299Y-44779781D02*
X170035351Y-44803921D01*
X170345281Y-44850704D01*
X170652920Y-44920425D01*
X170959096Y-45013381D01*
X171264637Y-45129866D01*
X171570371Y-45270176D01*
X171877128Y-45434605D01*
X172185735Y-45623450D01*
X172497022Y-45837005D01*
X172610663Y-45920562D01*
X172895115Y-46146195D01*
X173173203Y-46391986D01*
X173440646Y-46653652D01*
X173693166Y-46926914D01*
X173926484Y-47207492D01*
X174022509Y-47332900D01*
X174262446Y-47674238D01*
X174484710Y-48030904D01*
X174689674Y-48403686D01*
X174877714Y-48793374D01*
X175049205Y-49200757D01*
X175204522Y-49626622D01*
X175344038Y-50071761D01*
X175374521Y-50179067D01*
X175486098Y-50618387D01*
X175573710Y-51050088D01*
X175637377Y-51474911D01*
X175677119Y-51893597D01*
X175692957Y-52306887D01*
X175684910Y-52715521D01*
X175652998Y-53120242D01*
X175597242Y-53521788D01*
X175517662Y-53920902D01*
X175480035Y-54076600D01*
X175372009Y-54456170D01*
X175244364Y-54820373D01*
X175097249Y-55168893D01*
X174930816Y-55501416D01*
X174745213Y-55817626D01*
X174540591Y-56117209D01*
X174451362Y-56234994D01*
X174390377Y-56309556D01*
X174315595Y-56395335D01*
X174231508Y-56487622D01*
X174142612Y-56581711D01*
X174053400Y-56672894D01*
X173968366Y-56756464D01*
X173892003Y-56827713D01*
X173852324Y-56862499D01*
X173590292Y-57069229D01*
X173319307Y-57252298D01*
X173039548Y-57411626D01*
X172751191Y-57547137D01*
X172454414Y-57658750D01*
X172149396Y-57746389D01*
X171836312Y-57809973D01*
X171652366Y-57835652D01*
X171547232Y-57845593D01*
X171425428Y-57853245D01*
X171294697Y-57858414D01*
X171162782Y-57860906D01*
X171037426Y-57860528D01*
X170926373Y-57857086D01*
X170887249Y-57854777D01*
X170554160Y-57818927D01*
X170223689Y-57757849D01*
X169895961Y-57671594D01*
X169571104Y-57560211D01*
X169249243Y-57423752D01*
X168930505Y-57262265D01*
X168615015Y-57075800D01*
X168302900Y-56864409D01*
X168198800Y-56787789D01*
X167852483Y-56512428D01*
X167525914Y-56221267D01*
X167219005Y-55914182D01*
X166931665Y-55591051D01*
X166663804Y-55251748D01*
X166415333Y-54896149D01*
X166186161Y-54524132D01*
X165976199Y-54135572D01*
X165785356Y-53730344D01*
X165613544Y-53308326D01*
X165550004Y-53134443D01*
X165458325Y-52859775D01*
X165372926Y-52572867D01*
X165295077Y-52279185D01*
X165226048Y-51984195D01*
X165167108Y-51693363D01*
X165119527Y-51412156D01*
X165084574Y-51146039D01*
X165081510Y-51117500D01*
X165077486Y-51075620D01*
X165071871Y-51012157D01*
X165064974Y-50930859D01*
X165057106Y-50835472D01*
X165048573Y-50729742D01*
X165039686Y-50617416D01*
X165030754Y-50502241D01*
X165030555Y-50499651D01*
X165020434Y-50366351D01*
X165012390Y-50254195D01*
X165006478Y-50159008D01*
X165002751Y-50076614D01*
X165001262Y-50002838D01*
X165002067Y-49933505D01*
X165005219Y-49864438D01*
X165010770Y-49791464D01*
X165018776Y-49710405D01*
X165029291Y-49617088D01*
X165042367Y-49507337D01*
X165043462Y-49498250D01*
X165103788Y-49087402D01*
X165183959Y-48690832D01*
X165283832Y-48308907D01*
X165403262Y-47941992D01*
X165542105Y-47590452D01*
X165700218Y-47254653D01*
X165877457Y-46934961D01*
X166073678Y-46631741D01*
X166280345Y-46355777D01*
X166353391Y-46269069D01*
X166440876Y-46172019D01*
X166537401Y-46070145D01*
X166637565Y-45968968D01*
X166735968Y-45874005D01*
X166827211Y-45790777D01*
X166865039Y-45758165D01*
X167126232Y-45553695D01*
X167396548Y-45372853D01*
X167675752Y-45215730D01*
X167963613Y-45082415D01*
X168259896Y-44973000D01*
X168564368Y-44887573D01*
X168876797Y-44826224D01*
X169196948Y-44789045D01*
X169405300Y-44777989D01*
X169722299Y-44779781D01*
G36*
X188549883Y-50237257D02*
G01*
X189004646Y-50274425D01*
X189460656Y-50336945D01*
X189917891Y-50424815D01*
X190376328Y-50538034D01*
X190835944Y-50676600D01*
X191296717Y-50840512D01*
X191395350Y-50878834D01*
X191633049Y-50976236D01*
X191886198Y-51086781D01*
X192150090Y-51208155D01*
X192420018Y-51338045D01*
X192691274Y-51474137D01*
X192959153Y-51614119D01*
X193218947Y-51755677D01*
X193465450Y-51896206D01*
X193978871Y-52207567D01*
X194483794Y-52536891D01*
X194981853Y-52885404D01*
X195474682Y-53254331D01*
X195963916Y-53644897D01*
X196451188Y-54058327D01*
X196938133Y-54495846D01*
X196957699Y-54513931D01*
X197033415Y-54584977D01*
X197123918Y-54671542D01*
X197226400Y-54770828D01*
X197338052Y-54880038D01*
X197456064Y-54996374D01*
X197577629Y-55117038D01*
X197699936Y-55239232D01*
X197820176Y-55360159D01*
X197935541Y-55477021D01*
X198043222Y-55587020D01*
X198140409Y-55687359D01*
X198224293Y-55775239D01*
X198227279Y-55778400D01*
X198795987Y-56398373D01*
X199342164Y-57030057D01*
X199865857Y-57673523D01*
X200367113Y-58328844D01*
X200845978Y-58996091D01*
X201302498Y-59675338D01*
X201736721Y-60366655D01*
X202148691Y-61070116D01*
X202538457Y-61785793D01*
X202906065Y-62513758D01*
X203251561Y-63254083D01*
X203574991Y-64006840D01*
X203660680Y-64217550D01*
X203920956Y-64893310D01*
X204156639Y-65563779D01*
X204367860Y-66229480D01*
X204554752Y-66890937D01*
X204717445Y-67548676D01*
X204856072Y-68203222D01*
X204970763Y-68855098D01*
X205061652Y-69504830D01*
X205117129Y-70021450D01*
X205130650Y-70171980D01*
X205142177Y-70312586D01*
X205151891Y-70447314D01*
X205159973Y-70580210D01*
X205166607Y-70715319D01*
X205171973Y-70856689D01*
X205176252Y-71008364D01*
X205179628Y-71174391D01*
X205182281Y-71358816D01*
X205183866Y-71507350D01*
X205185414Y-71846739D01*
X205183285Y-72162837D01*
X205177278Y-72457511D01*
X205167196Y-72732632D01*
X205152838Y-72990067D01*
X205134005Y-73231686D01*
X205110498Y-73459358D01*
X205082118Y-73674950D01*
X205048666Y-73880333D01*
X205009942Y-74077375D01*
X204965748Y-74267945D01*
X204915883Y-74453912D01*
X204860150Y-74637144D01*
X204845406Y-74682350D01*
X204752290Y-74941636D01*
X204651438Y-75178336D01*
X204541746Y-75394381D01*
X204422107Y-75591706D01*
X204291415Y-75772241D01*
X204148567Y-75937920D01*
X204096302Y-75991944D01*
X203926431Y-76146912D01*
X203748574Y-76278179D01*
X203561013Y-76386661D01*
X203362025Y-76473270D01*
X203149893Y-76538923D01*
X203009500Y-76569790D01*
X202931273Y-76580774D01*
X202833871Y-76588638D01*
X202723324Y-76593379D01*
X202605665Y-76594995D01*
X202486925Y-76593484D01*
X202373135Y-76588845D01*
X202270328Y-76581074D01*
X202184536Y-76570170D01*
X202184000Y-76570081D01*
X201976354Y-76528474D01*
X201750942Y-76469888D01*
X201508604Y-76394633D01*
X201250184Y-76303018D01*
X200976523Y-76195353D01*
X200688463Y-76071946D01*
X200386847Y-75933107D01*
X200190100Y-75837782D01*
X200094340Y-75790222D01*
X199998521Y-75741977D01*
X199901628Y-75692467D01*
X199802648Y-75641116D01*
X199700568Y-75587346D01*
X199594375Y-75530580D01*
X199483054Y-75470241D01*
X199365592Y-75405751D01*
X199240976Y-75336533D01*
X199108192Y-75262009D01*
X198966227Y-75181603D01*
X198814068Y-75094736D01*
X198650700Y-75000832D01*
X198475111Y-74899313D01*
X198286286Y-74789602D01*
X198083213Y-74671121D01*
X197864878Y-74543293D01*
X197630267Y-74405541D01*
X197378368Y-74257287D01*
X197108165Y-74097954D01*
X196818647Y-73926964D01*
X196508800Y-73743741D01*
X196367400Y-73660066D01*
X196028026Y-73459692D01*
X195709333Y-73272558D01*
X195410584Y-73098248D01*
X195131043Y-72936347D01*
X194869974Y-72786438D01*
X194626641Y-72648105D01*
X194400307Y-72520932D01*
X194190237Y-72404504D01*
X193995694Y-72298404D01*
X193815942Y-72202217D01*
X193650244Y-72115526D01*
X193497866Y-72037915D01*
X193487221Y-72032583D01*
X192971336Y-71787879D01*
X192447987Y-71566151D01*
X191918364Y-71367775D01*
X191383655Y-71193126D01*
X190845050Y-71042580D01*
X190303736Y-70916512D01*
X189760904Y-70815298D01*
X189515750Y-70777861D01*
X189026210Y-70720803D01*
X188535665Y-70688750D01*
X188043637Y-70681720D01*
X187549647Y-70699730D01*
X187053218Y-70742796D01*
X186553871Y-70810936D01*
X186074910Y-70899206D01*
X185728359Y-70976369D01*
X185380078Y-71064667D01*
X185028878Y-71164608D01*
X184673570Y-71276699D01*
X184312964Y-71401446D01*
X183945872Y-71539359D01*
X183571104Y-71690943D01*
X183187471Y-71856706D01*
X182793783Y-72037155D01*
X182388851Y-72232798D01*
X181971485Y-72444142D01*
X181540497Y-72671694D01*
X181094697Y-72915962D01*
X180632895Y-73177452D01*
X180352700Y-73339866D01*
X180283548Y-73380462D01*
X180195121Y-73432674D01*
X180089903Y-73495022D01*
X179970380Y-73566024D01*
X179839038Y-73644200D01*
X179698363Y-73728068D01*
X179550841Y-73816146D01*
X179398957Y-73906953D01*
X179245198Y-73999009D01*
X179092049Y-74090832D01*
X179038250Y-74123122D01*
X178681242Y-74336653D01*
X178342804Y-74537365D01*
X178020451Y-74726651D01*
X177711700Y-74905902D01*
X177414067Y-75076511D01*
X177125069Y-75239871D01*
X176842222Y-75397372D01*
X176563044Y-75550409D01*
X176285049Y-75700372D01*
X176005756Y-75848655D01*
X175722680Y-75996649D01*
X175433338Y-76145747D01*
X175399700Y-76162950D01*
X175241962Y-76242300D01*
X175101964Y-76309692D01*
X174975846Y-76366542D01*
X174859751Y-76414261D01*
X174749820Y-76454263D01*
X174642197Y-76487963D01*
X174533024Y-76516772D01*
X174418442Y-76542106D01*
X174307500Y-76563102D01*
X174234179Y-76573311D01*
X174141882Y-76581893D01*
X174036604Y-76588670D01*
X173924343Y-76593468D01*
X173811093Y-76596109D01*
X173702852Y-76596417D01*
X173605615Y-76594218D01*
X173525379Y-76589333D01*
X173501050Y-76586792D01*
X173250874Y-76545415D01*
X173015828Y-76483661D01*
X172795632Y-76401348D01*
X172590008Y-76298292D01*
X172398677Y-76174310D01*
X172221359Y-76029217D01*
X172057778Y-75862832D01*
X171907653Y-75674970D01*
X171770706Y-75465448D01*
X171754658Y-75438000D01*
X171644239Y-75228062D01*
X171542231Y-74995837D01*
X171449151Y-74743179D01*
X171365519Y-74471943D01*
X171291852Y-74183984D01*
X171228669Y-73881156D01*
X171176489Y-73565315D01*
X171135830Y-73238315D01*
X171133475Y-73215500D01*
X171115360Y-73006917D01*
X171101084Y-72776387D01*
X171090645Y-72527071D01*
X171084044Y-72262129D01*
X171081282Y-71984723D01*
X171082360Y-71698013D01*
X171087278Y-71405161D01*
X171096037Y-71109328D01*
X171108636Y-70813674D01*
X171125078Y-70521360D01*
X171132983Y-70402450D01*
X171191900Y-69731557D01*
X171275299Y-69060707D01*
X171383241Y-68389722D01*
X171515784Y-67718428D01*
X171672987Y-67046649D01*
X171854910Y-66374209D01*
X172061611Y-65700933D01*
X172293150Y-65026645D01*
X172549586Y-64351170D01*
X172830978Y-63674332D01*
X173137385Y-62995955D01*
X173468867Y-62315865D01*
X173825483Y-61633885D01*
X174207292Y-60949840D01*
X174469735Y-60502800D01*
X174887631Y-59824764D01*
X175316885Y-59168545D01*
X175758512Y-58532765D01*
X176213524Y-57916042D01*
X176682936Y-57316996D01*
X177167759Y-56734248D01*
X177589172Y-56254650D01*
X177724595Y-56106356D01*
X177874675Y-55945687D01*
X178036027Y-55776065D01*
X178205267Y-55600912D01*
X178379012Y-55423653D01*
X178553877Y-55247710D01*
X178726478Y-55076507D01*
X178893432Y-54913465D01*
X179051354Y-54762009D01*
X179196860Y-54625560D01*
X179228750Y-54596168D01*
X179607378Y-54255407D01*
X179991315Y-53923383D01*
X180378198Y-53601925D01*
X180765664Y-53292865D01*
X181151349Y-52998031D01*
X181532889Y-52719254D01*
X181907923Y-52458364D01*
X182274086Y-52217192D01*
X182418698Y-52125930D01*
X182751684Y-51924788D01*
X183094585Y-51729650D01*
X183444392Y-51541904D01*
X183798090Y-51362937D01*
X184152669Y-51194134D01*
X184505115Y-51036884D01*
X184852418Y-50892573D01*
X185191565Y-50762587D01*
X185519544Y-50648313D01*
X185833342Y-50551138D01*
X185848785Y-50546702D01*
X186295583Y-50431733D01*
X186743765Y-50342124D01*
X187193309Y-50277873D01*
X187644192Y-50238979D01*
X188096391Y-50225441D01*
X188549883Y-50237257D01*
X188549883Y-50237257D01*
G37*
X188549883Y-50237257D02*
X189004646Y-50274425D01*
X189460656Y-50336945D01*
X189917891Y-50424815D01*
X190376328Y-50538034D01*
X190835944Y-50676600D01*
X191296717Y-50840512D01*
X191395350Y-50878834D01*
X191633049Y-50976236D01*
X191886198Y-51086781D01*
X192150090Y-51208155D01*
X192420018Y-51338045D01*
X192691274Y-51474137D01*
X192959153Y-51614119D01*
X193218947Y-51755677D01*
X193465450Y-51896206D01*
X193978871Y-52207567D01*
X194483794Y-52536891D01*
X194981853Y-52885404D01*
X195474682Y-53254331D01*
X195963916Y-53644897D01*
X196451188Y-54058327D01*
X196938133Y-54495846D01*
X196957699Y-54513931D01*
X197033415Y-54584977D01*
X197123918Y-54671542D01*
X197226400Y-54770828D01*
X197338052Y-54880038D01*
X197456064Y-54996374D01*
X197577629Y-55117038D01*
X197699936Y-55239232D01*
X197820176Y-55360159D01*
X197935541Y-55477021D01*
X198043222Y-55587020D01*
X198140409Y-55687359D01*
X198224293Y-55775239D01*
X198227279Y-55778400D01*
X198795987Y-56398373D01*
X199342164Y-57030057D01*
X199865857Y-57673523D01*
X200367113Y-58328844D01*
X200845978Y-58996091D01*
X201302498Y-59675338D01*
X201736721Y-60366655D01*
X202148691Y-61070116D01*
X202538457Y-61785793D01*
X202906065Y-62513758D01*
X203251561Y-63254083D01*
X203574991Y-64006840D01*
X203660680Y-64217550D01*
X203920956Y-64893310D01*
X204156639Y-65563779D01*
X204367860Y-66229480D01*
X204554752Y-66890937D01*
X204717445Y-67548676D01*
X204856072Y-68203222D01*
X204970763Y-68855098D01*
X205061652Y-69504830D01*
X205117129Y-70021450D01*
X205130650Y-70171980D01*
X205142177Y-70312586D01*
X205151891Y-70447314D01*
X205159973Y-70580210D01*
X205166607Y-70715319D01*
X205171973Y-70856689D01*
X205176252Y-71008364D01*
X205179628Y-71174391D01*
X205182281Y-71358816D01*
X205183866Y-71507350D01*
X205185414Y-71846739D01*
X205183285Y-72162837D01*
X205177278Y-72457511D01*
X205167196Y-72732632D01*
X205152838Y-72990067D01*
X205134005Y-73231686D01*
X205110498Y-73459358D01*
X205082118Y-73674950D01*
X205048666Y-73880333D01*
X205009942Y-74077375D01*
X204965748Y-74267945D01*
X204915883Y-74453912D01*
X204860150Y-74637144D01*
X204845406Y-74682350D01*
X204752290Y-74941636D01*
X204651438Y-75178336D01*
X204541746Y-75394381D01*
X204422107Y-75591706D01*
X204291415Y-75772241D01*
X204148567Y-75937920D01*
X204096302Y-75991944D01*
X203926431Y-76146912D01*
X203748574Y-76278179D01*
X203561013Y-76386661D01*
X203362025Y-76473270D01*
X203149893Y-76538923D01*
X203009500Y-76569790D01*
X202931273Y-76580774D01*
X202833871Y-76588638D01*
X202723324Y-76593379D01*
X202605665Y-76594995D01*
X202486925Y-76593484D01*
X202373135Y-76588845D01*
X202270328Y-76581074D01*
X202184536Y-76570170D01*
X202184000Y-76570081D01*
X201976354Y-76528474D01*
X201750942Y-76469888D01*
X201508604Y-76394633D01*
X201250184Y-76303018D01*
X200976523Y-76195353D01*
X200688463Y-76071946D01*
X200386847Y-75933107D01*
X200190100Y-75837782D01*
X200094340Y-75790222D01*
X199998521Y-75741977D01*
X199901628Y-75692467D01*
X199802648Y-75641116D01*
X199700568Y-75587346D01*
X199594375Y-75530580D01*
X199483054Y-75470241D01*
X199365592Y-75405751D01*
X199240976Y-75336533D01*
X199108192Y-75262009D01*
X198966227Y-75181603D01*
X198814068Y-75094736D01*
X198650700Y-75000832D01*
X198475111Y-74899313D01*
X198286286Y-74789602D01*
X198083213Y-74671121D01*
X197864878Y-74543293D01*
X197630267Y-74405541D01*
X197378368Y-74257287D01*
X197108165Y-74097954D01*
X196818647Y-73926964D01*
X196508800Y-73743741D01*
X196367400Y-73660066D01*
X196028026Y-73459692D01*
X195709333Y-73272558D01*
X195410584Y-73098248D01*
X195131043Y-72936347D01*
X194869974Y-72786438D01*
X194626641Y-72648105D01*
X194400307Y-72520932D01*
X194190237Y-72404504D01*
X193995694Y-72298404D01*
X193815942Y-72202217D01*
X193650244Y-72115526D01*
X193497866Y-72037915D01*
X193487221Y-72032583D01*
X192971336Y-71787879D01*
X192447987Y-71566151D01*
X191918364Y-71367775D01*
X191383655Y-71193126D01*
X190845050Y-71042580D01*
X190303736Y-70916512D01*
X189760904Y-70815298D01*
X189515750Y-70777861D01*
X189026210Y-70720803D01*
X188535665Y-70688750D01*
X188043637Y-70681720D01*
X187549647Y-70699730D01*
X187053218Y-70742796D01*
X186553871Y-70810936D01*
X186074910Y-70899206D01*
X185728359Y-70976369D01*
X185380078Y-71064667D01*
X185028878Y-71164608D01*
X184673570Y-71276699D01*
X184312964Y-71401446D01*
X183945872Y-71539359D01*
X183571104Y-71690943D01*
X183187471Y-71856706D01*
X182793783Y-72037155D01*
X182388851Y-72232798D01*
X181971485Y-72444142D01*
X181540497Y-72671694D01*
X181094697Y-72915962D01*
X180632895Y-73177452D01*
X180352700Y-73339866D01*
X180283548Y-73380462D01*
X180195121Y-73432674D01*
X180089903Y-73495022D01*
X179970380Y-73566024D01*
X179839038Y-73644200D01*
X179698363Y-73728068D01*
X179550841Y-73816146D01*
X179398957Y-73906953D01*
X179245198Y-73999009D01*
X179092049Y-74090832D01*
X179038250Y-74123122D01*
X178681242Y-74336653D01*
X178342804Y-74537365D01*
X178020451Y-74726651D01*
X177711700Y-74905902D01*
X177414067Y-75076511D01*
X177125069Y-75239871D01*
X176842222Y-75397372D01*
X176563044Y-75550409D01*
X176285049Y-75700372D01*
X176005756Y-75848655D01*
X175722680Y-75996649D01*
X175433338Y-76145747D01*
X175399700Y-76162950D01*
X175241962Y-76242300D01*
X175101964Y-76309692D01*
X174975846Y-76366542D01*
X174859751Y-76414261D01*
X174749820Y-76454263D01*
X174642197Y-76487963D01*
X174533024Y-76516772D01*
X174418442Y-76542106D01*
X174307500Y-76563102D01*
X174234179Y-76573311D01*
X174141882Y-76581893D01*
X174036604Y-76588670D01*
X173924343Y-76593468D01*
X173811093Y-76596109D01*
X173702852Y-76596417D01*
X173605615Y-76594218D01*
X173525379Y-76589333D01*
X173501050Y-76586792D01*
X173250874Y-76545415D01*
X173015828Y-76483661D01*
X172795632Y-76401348D01*
X172590008Y-76298292D01*
X172398677Y-76174310D01*
X172221359Y-76029217D01*
X172057778Y-75862832D01*
X171907653Y-75674970D01*
X171770706Y-75465448D01*
X171754658Y-75438000D01*
X171644239Y-75228062D01*
X171542231Y-74995837D01*
X171449151Y-74743179D01*
X171365519Y-74471943D01*
X171291852Y-74183984D01*
X171228669Y-73881156D01*
X171176489Y-73565315D01*
X171135830Y-73238315D01*
X171133475Y-73215500D01*
X171115360Y-73006917D01*
X171101084Y-72776387D01*
X171090645Y-72527071D01*
X171084044Y-72262129D01*
X171081282Y-71984723D01*
X171082360Y-71698013D01*
X171087278Y-71405161D01*
X171096037Y-71109328D01*
X171108636Y-70813674D01*
X171125078Y-70521360D01*
X171132983Y-70402450D01*
X171191900Y-69731557D01*
X171275299Y-69060707D01*
X171383241Y-68389722D01*
X171515784Y-67718428D01*
X171672987Y-67046649D01*
X171854910Y-66374209D01*
X172061611Y-65700933D01*
X172293150Y-65026645D01*
X172549586Y-64351170D01*
X172830978Y-63674332D01*
X173137385Y-62995955D01*
X173468867Y-62315865D01*
X173825483Y-61633885D01*
X174207292Y-60949840D01*
X174469735Y-60502800D01*
X174887631Y-59824764D01*
X175316885Y-59168545D01*
X175758512Y-58532765D01*
X176213524Y-57916042D01*
X176682936Y-57316996D01*
X177167759Y-56734248D01*
X177589172Y-56254650D01*
X177724595Y-56106356D01*
X177874675Y-55945687D01*
X178036027Y-55776065D01*
X178205267Y-55600912D01*
X178379012Y-55423653D01*
X178553877Y-55247710D01*
X178726478Y-55076507D01*
X178893432Y-54913465D01*
X179051354Y-54762009D01*
X179196860Y-54625560D01*
X179228750Y-54596168D01*
X179607378Y-54255407D01*
X179991315Y-53923383D01*
X180378198Y-53601925D01*
X180765664Y-53292865D01*
X181151349Y-52998031D01*
X181532889Y-52719254D01*
X181907923Y-52458364D01*
X182274086Y-52217192D01*
X182418698Y-52125930D01*
X182751684Y-51924788D01*
X183094585Y-51729650D01*
X183444392Y-51541904D01*
X183798090Y-51362937D01*
X184152669Y-51194134D01*
X184505115Y-51036884D01*
X184852418Y-50892573D01*
X185191565Y-50762587D01*
X185519544Y-50648313D01*
X185833342Y-50551138D01*
X185848785Y-50546702D01*
X186295583Y-50431733D01*
X186743765Y-50342124D01*
X187193309Y-50277873D01*
X187644192Y-50238979D01*
X188096391Y-50225441D01*
X188549883Y-50237257D01*
G04 #@! TD*
M02*
