M48
; DRILL file {KiCad (5.1.4)-1} date 9/26/2020 23:04:55
; FORMAT={-:-/ absolute / inch / decimal}
; #@! TF.CreationDate,2020-09-26T23:04:55-04:00
; #@! TF.GenerationSoftware,Kicad,Pcbnew,(5.1.4)-1
; #@! TF.FileFunction,NonPlated,1,2,NPTH
FMAT,2
INCH
T1C0.0256
T2C0.0689
T3C0.1200
T4C0.1570
%
G90
G05
T1
X0.0692Y3.6539
X0.2968Y3.6539
T2
X2.4885Y1.7499
X2.8885Y1.7499
X0.115Y1.75
X0.515Y1.75
X11.21Y0.25
X11.61Y0.25
X11.96Y1.0
X12.36Y1.0
X4.46Y3.25
X4.86Y3.25
X8.21Y3.25
X8.61Y3.25
X11.21Y3.25
X11.61Y3.25
X7.455Y0.25
X7.855Y0.25
X4.085Y2.5
X4.485Y2.5
X8.585Y2.5
X8.985Y2.5
X7.27Y1.75
X7.67Y1.75
X12.3332Y3.2502
X12.7332Y3.2502
X3.52Y1.75
X3.92Y1.75
X9.8Y0.25
X10.2Y0.25
X6.895Y1.0
X7.295Y1.0
X3.7087Y3.25
X4.1087Y3.25
X4.175Y0.25
X4.575Y0.25
X-0.635Y1.0
X-0.235Y1.0
X5.02Y1.75
X5.42Y1.75
X2.675Y1.0
X3.075Y1.0
X10.93Y1.0
X11.33Y1.0
X0.865Y2.5
X1.265Y2.5
X4.835Y2.5
X5.235Y2.5
X6.71Y3.25
X7.11Y3.25
X-0.635Y0.25
X-0.235Y0.25
X-0.635Y1.75
X-0.235Y1.75
X5.585Y2.5
X5.985Y2.5
X11.585Y0.25
X11.985Y0.25
X-1.385Y0.25
X-0.985Y0.25
X8.02Y1.75
X8.42Y1.75
X11.305Y1.0
X11.705Y1.0
X0.865Y3.25
X1.265Y3.25
X10.27Y1.75
X10.67Y1.75
X12.615Y0.25
X13.015Y0.25
X2.395Y2.5
X2.795Y2.5
X0.115Y0.25
X0.515Y0.25
X10.74Y0.25
X11.14Y0.25
X10.645Y1.0
X11.045Y1.0
X-1.185Y0.825
X-1.185Y0.425
X11.5831Y2.5006
X11.9831Y2.5006
X2.208Y3.25
X2.608Y3.25
X10.085Y2.5
X10.485Y2.5
X-1.185Y2.325
X-1.185Y1.925
X11.68Y1.0
X12.08Y1.0
X4.27Y0.25
X4.67Y0.25
X9.335Y2.5
X9.735Y2.5
X7.085Y2.5
X7.485Y2.5
X12.2408Y1.7508
X12.6408Y1.7508
X4.27Y1.75
X4.67Y1.75
X10.46Y3.25
X10.86Y3.25
X5.21Y3.25
X5.61Y3.25
X9.705Y0.25
X10.105Y0.25
X2.9578Y3.2493
X3.3578Y3.2493
X12.5214Y2.5008
X12.9214Y2.5008
X-0.635Y2.5
X-0.235Y2.5
X5.77Y1.75
X6.17Y1.75
X12.71Y1.0
X13.11Y1.0
X8.7701Y1.7486
X9.1701Y1.7486
X3.33Y0.25
X3.73Y0.25
X-1.385Y2.5
X-0.985Y2.5
X8.395Y1.0
X8.795Y1.0
X11.68Y0.25
X12.08Y0.25
X-1.385Y1.0
X-0.985Y1.0
X7.645Y1.0
X8.045Y1.0
X10.645Y0.25
X11.045Y0.25
X6.985Y0.25
X7.385Y0.25
X0.865Y1.0
X1.265Y1.0
X5.395Y1.0
X5.795Y1.0
X10.835Y2.5
X11.235Y2.5
X2.395Y0.25
X2.795Y0.25
X0.865Y1.75
X1.265Y1.75
X9.895Y1.0
X10.295Y1.0
X12.71Y0.25
X13.11Y0.25
X4.645Y1.0
X5.045Y1.0
X0.115Y2.5
X0.515Y2.5
X9.145Y1.0
X9.545Y1.0
X11.96Y3.25
X12.36Y3.25
X0.49Y0.25
X0.89Y0.25
X0.865Y0.25
X1.265Y0.25
X11.02Y1.75
X11.42Y1.75
X3.895Y1.0
X4.295Y1.0
X9.71Y3.25
X10.11Y3.25
X5.96Y3.25
X6.36Y3.25
X12.52Y0.25
X12.92Y0.25
X3.335Y2.5
X3.735Y2.5
X0.115Y3.25
X0.515Y3.25
X6.52Y1.75
X6.92Y1.75
X12.71Y3.25
X13.11Y3.25
X3.235Y0.25
X3.635Y0.25
X2.3Y0.25
X2.7Y0.25
X0.115Y1.0
X0.515Y1.0
X7.46Y3.25
X7.86Y3.25
X-1.385Y3.25
X-0.985Y3.25
X6.145Y1.0
X6.545Y1.0
X11.96Y0.25
X12.36Y0.25
X-0.635Y3.25
X-0.235Y3.25
X6.335Y2.5
X6.735Y2.5
X9.5197Y1.7512
X9.9197Y1.7512
X-1.385Y1.75
X-0.985Y1.75
X7.835Y2.5
X8.235Y2.5
X8.96Y3.25
X9.36Y3.25
T3
X11.0362Y1.275
X11.9737Y1.275
X-1.46Y1.0938
X-1.46Y0.1562
X-1.46Y2.5938
X-1.46Y1.6562
X11.972Y2.0258
X12.9095Y2.0258
X5.2165Y-0.025
X9.1535Y-0.025
X0.2213Y0.525
X1.1587Y0.525
X5.405Y-0.025
X9.905Y-0.025
X12.0645Y3.5252
X13.002Y3.5252
X2.4062Y1.275
X3.3438Y1.275
T4
X6.345Y1.0
X12.16Y0.25
X-0.435Y3.25
X6.535Y2.5
X9.7197Y1.7512
X-1.185Y1.75
X8.035Y2.5
X9.16Y3.25
X2.6885Y1.7499
X0.315Y1.75
X11.41Y0.25
X12.16Y1.0
X4.66Y3.25
X8.41Y3.25
X11.41Y3.25
X5.405Y0.575
X7.655Y0.25
X9.905Y0.575
X4.285Y2.5
X8.785Y2.5
X7.47Y1.75
X12.0645Y2.9252
X12.5332Y3.2502
X13.002Y2.9252
X3.72Y1.75
X10.0Y0.25
X7.095Y1.0
X3.9087Y3.25
X4.375Y0.25
X-0.435Y1.0
X5.22Y1.75
X2.4062Y0.675
X2.875Y1.0
X3.3438Y0.675
X11.13Y1.0
X1.065Y2.5
X5.035Y2.5
X6.91Y3.25
X-0.435Y0.25
X-0.435Y1.75
X5.785Y2.5
X11.785Y0.25
X-1.185Y0.25
X8.22Y1.75
X11.0362Y0.675
X11.505Y1.0
X11.9737Y0.675
X1.065Y3.25
X10.47Y1.75
X12.815Y0.25
X2.595Y2.5
X0.315Y0.25
X10.94Y0.25
X10.845Y1.0
X-1.185Y0.625
X-0.86Y1.0938
X-0.86Y0.1562
X11.7831Y2.5006
X2.408Y3.25
X10.285Y2.5
X-1.185Y2.125
X-0.86Y2.5938
X-0.86Y1.6562
X11.88Y1.0
X4.47Y0.25
X9.535Y2.5
X7.285Y2.5
X11.972Y1.4258
X12.4408Y1.7508
X12.9095Y1.4258
X4.47Y1.75
X10.66Y3.25
X5.41Y3.25
X9.905Y0.25
X3.1578Y3.2493
X12.7214Y2.5008
X-0.435Y2.5
X5.97Y1.75
X12.91Y1.0
X8.9701Y1.7486
X3.53Y0.25
X-1.185Y2.5
X8.595Y1.0
X11.88Y0.25
X-1.185Y1.0
X7.845Y1.0
X10.845Y0.25
X5.2165Y0.575
X7.185Y0.25
X9.1535Y0.575
X1.065Y1.0
X5.595Y1.0
X11.035Y2.5
X2.595Y0.25
X1.065Y1.75
X10.095Y1.0
X12.91Y0.25
X4.845Y1.0
X0.315Y2.5
X9.345Y1.0
X12.16Y3.25
X0.2213Y-0.075
X0.69Y0.25
X1.1587Y-0.075
X1.065Y0.25
X11.22Y1.75
X4.095Y1.0
X9.91Y3.25
X6.16Y3.25
X12.72Y0.25
X3.535Y2.5
X0.315Y3.25
X6.72Y1.75
X12.91Y3.25
X3.435Y0.25
X2.5Y0.25
X0.315Y1.0
X7.66Y3.25
X-1.185Y3.25
T0
M30
