M48
; DRILL file {KiCad (5.1.4)-1} date 9/26/2020 23:04:55
; FORMAT={-:-/ absolute / inch / decimal}
; #@! TF.CreationDate,2020-09-26T23:04:55-04:00
; #@! TF.GenerationSoftware,Kicad,Pcbnew,(5.1.4)-1
; #@! TF.FileFunction,Plated,1,2,PTH
FMAT,2
INCH
T1C0.0157
T2C0.0315
T3C0.0394
T4C0.0579
%
G90
G05
T1
X-0.9Y3.6
X-0.78Y0.56
X-0.7Y0.64
X-0.585Y1.335
X-0.5564Y2.08
X-0.2157Y0.7657
X-0.13Y3.53
X-0.109Y3.3666
X0.0Y0.65
X0.108Y3.44
X0.12Y2.76
X0.2Y1.24
X0.23Y0.75
X0.305Y3.0
X0.38Y1.42
X0.44Y3.6
X0.63Y3.5014
X0.65Y3.005
X1.02Y0.655
X1.19Y3.53
X1.4584Y3.3088
X1.46Y3.5013
X1.461Y3.5985
X1.4975Y3.3128
X1.5275Y2.13
X1.54Y2.88
X1.55Y2.445
X1.5625Y2.0025
X1.5802Y2.8802
X1.6425Y1.62
X1.65Y2.88
X1.65Y2.55
X1.6525Y2.415
X1.66Y2.27
X1.667Y1.885
X1.69Y1.95
X1.7325Y2.4125
X1.7325Y2.2
X1.7333Y1.4267
X1.735Y1.566
X1.744Y1.948
X1.7625Y1.38
X1.781Y1.569
X1.7825Y2.4475
X1.785Y1.527
X1.7864Y0.6864
X1.8199Y0.6099
X1.826Y1.994
X1.828Y1.525
X1.83Y1.483
X1.85Y1.1
X1.853Y2.0545
X1.876Y1.484
X1.894Y2.0545
X1.9098Y2.4202
X1.91Y1.4553
X1.922Y2.183
X1.9275Y2.1425
X1.95Y2.42
X1.96Y1.34
X1.995Y2.0545
X1.9975Y1.4575
X2.02Y0.65
X2.038Y2.0545
X2.048Y1.4553
X2.065Y1.3514
X2.07Y2.32
X2.106Y2.4202
X2.124Y2.057
X2.139Y1.4553
X2.1475Y2.3125
X2.1561Y2.098
X2.1625Y2.7413
X2.1625Y2.825
X2.1632Y2.42
X2.181Y1.46
X2.2025Y2.42
X2.2175Y1.295
X2.263Y1.961
X2.269Y1.921
X2.28Y2.32
X2.314Y1.921
X2.3181Y1.8779
X2.349Y2.375
X2.4Y1.5675
X2.415Y2.18
X2.4164Y2.2474
X2.688Y3.713
X2.93Y0.67
X3.52Y2.8535
X3.65Y2.0864
X4.14Y0.555
X4.3225Y1.4725
X5.53Y0.57
X6.339Y3.715
X6.6287Y1.4713
X7.32Y1.475
X8.8201Y1.4599
X10.32Y1.475
X10.41Y0.475
X10.635Y0.43
X10.6975Y0.5125
X11.34Y0.495
X11.845Y0.62
X11.94Y2.885
X12.105Y0.62
X12.5Y1.36
T2
X1.85Y2.65
X1.85Y2.55
X1.95Y2.65
X1.95Y2.55
X2.05Y2.65
X2.05Y2.55
T4
X0.165Y1.1
X0.415Y1.2
X7.51Y3.35
X7.76Y3.45
X-1.335Y3.35
X-1.085Y3.45
X6.195Y1.1
X6.445Y1.2
X12.01Y0.35
X12.26Y0.45
X-0.585Y3.35
X-0.335Y3.45
X6.385Y2.6
X6.635Y2.7
X9.5697Y1.8512
X9.8197Y1.9512
X-1.335Y1.85
X-1.085Y1.95
X7.885Y2.6
X8.135Y2.7
X9.01Y3.35
X9.26Y3.45
X2.5385Y1.8499
X2.7885Y1.9499
X0.165Y1.85
X0.415Y1.95
X11.26Y0.35
X11.51Y0.45
X12.01Y1.1
X12.26Y1.2
X4.51Y3.35
X4.76Y3.45
X8.26Y3.35
X8.51Y3.45
X11.26Y3.35
X11.51Y3.45
X7.505Y0.35
X7.755Y0.45
X4.135Y2.6
X4.385Y2.7
X8.635Y2.6
X8.885Y2.7
X7.32Y1.85
X7.57Y1.95
X12.3832Y3.3502
X12.6332Y3.4502
X3.57Y1.85
X3.82Y1.95
X9.85Y0.35
X10.1Y0.45
X6.945Y1.1
X7.195Y1.2
X3.7587Y3.35
X4.0087Y3.45
X4.225Y0.35
X4.475Y0.45
X-0.585Y1.1
X-0.335Y1.2
X5.07Y1.85
X5.32Y1.95
X2.725Y1.1
X2.975Y1.2
X10.98Y1.1
X11.23Y1.2
X0.915Y2.6
X1.165Y2.7
X4.885Y2.6
X5.135Y2.7
X6.76Y3.35
X7.01Y3.45
X-0.585Y0.35
X-0.335Y0.45
X-0.585Y1.85
X-0.335Y1.95
X5.635Y2.6
X5.885Y2.7
X11.635Y0.35
X11.885Y0.45
X-1.335Y0.35
X-1.085Y0.45
X8.07Y1.85
X8.32Y1.95
X11.355Y1.1
X11.605Y1.2
X0.915Y3.35
X1.165Y3.45
X10.32Y1.85
X10.57Y1.95
X12.665Y0.35
X12.915Y0.45
X2.445Y2.6
X2.695Y2.7
X0.165Y0.35
X0.415Y0.45
X10.79Y0.35
X11.04Y0.45
X10.695Y1.1
X10.945Y1.2
X-1.385Y0.725
X-1.285Y0.475
X11.6331Y2.6006
X11.8831Y2.7006
X2.258Y3.35
X2.508Y3.45
X10.135Y2.6
X10.385Y2.7
X-1.385Y2.225
X-1.285Y1.975
X11.73Y1.1
X11.98Y1.2
X4.32Y0.35
X4.57Y0.45
X9.385Y2.6
X9.635Y2.7
X7.135Y2.6
X7.385Y2.7
X12.2908Y1.8508
X12.5408Y1.9508
X4.32Y1.85
X4.57Y1.95
X10.51Y3.35
X10.76Y3.45
X5.26Y3.35
X5.51Y3.45
X9.755Y0.35
X10.005Y0.45
X3.0078Y3.3493
X3.2578Y3.4493
X12.5714Y2.6008
X12.8214Y2.7008
X-0.585Y2.6
X-0.335Y2.7
X5.82Y1.85
X6.07Y1.95
X12.76Y1.1
X13.01Y1.2
X8.8201Y1.8486
X9.0701Y1.9486
X3.38Y0.35
X3.63Y0.45
X-1.335Y2.6
X-1.085Y2.7
X8.445Y1.1
X8.695Y1.2
X11.73Y0.35
X11.98Y0.45
X-1.335Y1.1
X-1.085Y1.2
X7.695Y1.1
X7.945Y1.2
X10.695Y0.35
X10.945Y0.45
X7.035Y0.35
X7.285Y0.45
X0.915Y1.1
X1.165Y1.2
X5.445Y1.1
X5.695Y1.2
X10.885Y2.6
X11.135Y2.7
X2.445Y0.35
X2.695Y0.45
X0.915Y1.85
X1.165Y1.95
X9.945Y1.1
X10.195Y1.2
X12.76Y0.35
X13.01Y0.45
X4.695Y1.1
X4.945Y1.2
X0.165Y2.6
X0.415Y2.7
X9.195Y1.1
X9.445Y1.2
X12.01Y3.35
X12.26Y3.45
X0.54Y0.35
X0.79Y0.45
X0.915Y0.35
X1.165Y0.45
X11.07Y1.85
X11.32Y1.95
X3.945Y1.1
X4.195Y1.2
X9.76Y3.35
X10.01Y3.45
X6.01Y3.35
X6.26Y3.45
X12.57Y0.35
X12.82Y0.45
X3.385Y2.6
X3.635Y2.7
X0.165Y3.35
X0.415Y3.45
X6.57Y1.85
X6.82Y1.95
X12.76Y3.35
X13.01Y3.45
X3.285Y0.35
X3.535Y0.45
X2.35Y0.35
X2.6Y0.45
T3
G00X0.0129Y3.8075
M15
G01X0.0129Y3.7878
M16
G05
G00X0.0129Y3.6528
M15
G01X0.0129Y3.6134
M16
G05
G00X0.3531Y3.8094
M15
G01X0.3531Y3.7858
M16
G05
G00X0.3531Y3.6528
M15
G01X0.3531Y3.6134
M16
G05
T0
M30
