G04 #@! TF.GenerationSoftware,KiCad,Pcbnew,(5.1.4)-1*
G04 #@! TF.CreationDate,2020-09-26T23:04:53-04:00*
G04 #@! TF.ProjectId,southpawpcbv2,736f7574-6870-4617-9770-636276322e6b,rev?*
G04 #@! TF.SameCoordinates,Original*
G04 #@! TF.FileFunction,Soldermask,Bot*
G04 #@! TF.FilePolarity,Negative*
%FSLAX46Y46*%
G04 Gerber Fmt 4.6, Leading zero omitted, Abs format (unit mm)*
G04 Created by KiCad (PCBNEW (5.1.4)-1) date 2020-09-26 23:04:53*
%MOMM*%
%LPD*%
G04 APERTURE LIST*
%ADD10R,1.300000X1.000000*%
%ADD11C,2.100000*%
%ADD12C,4.087800*%
%ADD13C,1.850000*%
%ADD14C,2.350000*%
%ADD15C,3.148000*%
%ADD16R,1.500000X1.300000*%
%ADD17R,0.700000X1.550000*%
%ADD18R,0.400000X1.550000*%
%ADD19C,0.750000*%
%ADD20C,0.100000*%
%ADD21C,1.075000*%
%ADD22C,1.408000*%
%ADD23C,1.350000*%
%ADD24R,0.800000X1.100000*%
%ADD25R,0.800000X0.700000*%
%ADD26C,0.650000*%
G04 APERTURE END LIST*
D10*
G04 #@! TO.C,D44*
X259842000Y10924000D03*
X259842000Y14224000D03*
G04 #@! TD*
D11*
G04 #@! TO.C,MX101*
X254127000Y11430000D03*
D12*
X251587000Y6350000D03*
D11*
X247777000Y8890000D03*
D13*
X246507000Y6350000D03*
X256667000Y6350000D03*
G04 #@! TD*
D14*
G04 #@! TO.C,MX13*
X20066000Y11430000D03*
D12*
X17526000Y6350000D03*
D14*
X13716000Y8890000D03*
D13*
X12446000Y6350000D03*
X22606000Y6350000D03*
D15*
X5619750Y13335000D03*
X29432250Y13335000D03*
D12*
X5619750Y-1905000D03*
X29432250Y-1905000D03*
G04 #@! TD*
D14*
G04 #@! TO.C,MX60*
X185039000Y11430000D03*
D12*
X182499000Y6350000D03*
D14*
X178689000Y8890000D03*
D13*
X177419000Y6350000D03*
X187579000Y6350000D03*
D15*
X132499100Y-635000D03*
X232498900Y-635000D03*
D12*
X132499100Y14605000D03*
X232498900Y14605000D03*
G04 #@! TD*
D14*
G04 #@! TO.C,MX61*
X196977000Y11430000D03*
D12*
X194437000Y6350000D03*
D14*
X190627000Y8890000D03*
D13*
X189357000Y6350000D03*
X199517000Y6350000D03*
D15*
X137287000Y-635000D03*
X251587000Y-635000D03*
D12*
X137287000Y14605000D03*
X251587000Y14605000D03*
G04 #@! TD*
D14*
G04 #@! TO.C,MX98*
X318535192Y49549869D03*
D12*
X315995192Y44469869D03*
D14*
X312185192Y47009869D03*
D13*
X310915192Y44469869D03*
X321075192Y44469869D03*
D15*
X304088942Y51454869D03*
X327901442Y51454869D03*
D12*
X304088942Y36214869D03*
X327901442Y36214869D03*
G04 #@! TD*
D10*
G04 #@! TO.C,D65*
X251968000Y49658000D03*
X251968000Y52958000D03*
G04 #@! TD*
G04 #@! TO.C,D60*
X232461861Y51448214D03*
X232461861Y54748214D03*
G04 #@! TD*
D14*
G04 #@! TO.C,MX68*
X230381206Y49494246D03*
D12*
X227841206Y44414246D03*
D14*
X224031206Y46954246D03*
D13*
X222761206Y44414246D03*
X232921206Y44414246D03*
G04 #@! TD*
D10*
G04 #@! TO.C,D6*
X-5588000Y86360000D03*
X-5588000Y89660000D03*
G04 #@! TD*
D14*
G04 #@! TO.C,MX38*
X101820341Y87629283D03*
D12*
X99280341Y82549283D03*
D14*
X95470341Y85089283D03*
D13*
X94200341Y82549283D03*
X104360341Y82549283D03*
G04 #@! TD*
D14*
G04 #@! TO.C,MX56*
X178054000Y87630000D03*
D12*
X175514000Y82550000D03*
D14*
X171704000Y85090000D03*
D13*
X170434000Y82550000D03*
X180594000Y82550000D03*
G04 #@! TD*
D11*
G04 #@! TO.C,MX93*
X304292000Y11430000D03*
D12*
X301752000Y6350000D03*
D11*
X297942000Y8890000D03*
D13*
X296672000Y6350000D03*
X306832000Y6350000D03*
G04 #@! TD*
D11*
G04 #@! TO.C,MX88*
X311404000Y11430000D03*
D12*
X308864000Y6350000D03*
D11*
X305054000Y8890000D03*
D13*
X303784000Y6350000D03*
X313944000Y6350000D03*
G04 #@! TD*
D11*
G04 #@! TO.C,MX104*
X301879000Y11430000D03*
D12*
X299339000Y6350000D03*
D11*
X295529000Y8890000D03*
D13*
X294259000Y6350000D03*
X304419000Y6350000D03*
G04 #@! TD*
D14*
G04 #@! TO.C,MX28*
X285242000Y30480000D03*
D12*
X282702000Y25400000D03*
D14*
X278892000Y27940000D03*
D13*
X277622000Y25400000D03*
X287782000Y25400000D03*
G04 #@! TD*
D14*
G04 #@! TO.C,MX12*
X-8509000Y11430000D03*
D12*
X-11049000Y6350000D03*
D14*
X-14859000Y8890000D03*
D13*
X-16129000Y6350000D03*
X-5969000Y6350000D03*
G04 #@! TD*
D14*
G04 #@! TO.C,MX97*
X325664788Y68599096D03*
D12*
X323124788Y63519096D03*
D14*
X319314788Y66059096D03*
D13*
X318044788Y63519096D03*
X328204788Y63519096D03*
G04 #@! TD*
D11*
G04 #@! TO.C,MX24*
X66040000Y11430000D03*
D12*
X63500000Y6350000D03*
D11*
X59690000Y8890000D03*
D13*
X58420000Y6350000D03*
X68580000Y6350000D03*
G04 #@! TD*
D11*
G04 #@! TO.C,MX81*
X280416000Y11430000D03*
D12*
X277876000Y6350000D03*
D11*
X274066000Y8890000D03*
D13*
X272796000Y6350000D03*
X282956000Y6350000D03*
G04 #@! TD*
D16*
G04 #@! TO.C,Y1*
X60332800Y53555000D03*
X58132800Y53555000D03*
X58132800Y51855000D03*
X60332800Y51855000D03*
G04 #@! TD*
D17*
G04 #@! TO.C,USB1*
X7873200Y91365000D03*
X1423200Y91365000D03*
X7098200Y91365000D03*
X2198200Y91365000D03*
D18*
X2898200Y91365000D03*
X6398200Y91365000D03*
X3398200Y91365000D03*
X5898200Y91365000D03*
X3898200Y91365000D03*
X5398200Y91365000D03*
X4898200Y91365000D03*
X4398200Y91365000D03*
D19*
X7538200Y92810000D03*
X1758200Y92810000D03*
G04 #@! TD*
D20*
G04 #@! TO.C,R6*
G36*
X52824592Y33641706D02*
G01*
X52850681Y33637836D01*
X52876264Y33631428D01*
X52901096Y33622543D01*
X52924938Y33611266D01*
X52947560Y33597707D01*
X52968743Y33581997D01*
X52988285Y33564285D01*
X53005997Y33544743D01*
X53021707Y33523560D01*
X53035266Y33500938D01*
X53046543Y33477096D01*
X53055428Y33452264D01*
X53061836Y33426681D01*
X53065706Y33400592D01*
X53067000Y33374250D01*
X53067000Y32411750D01*
X53065706Y32385408D01*
X53061836Y32359319D01*
X53055428Y32333736D01*
X53046543Y32308904D01*
X53035266Y32285062D01*
X53021707Y32262440D01*
X53005997Y32241257D01*
X52988285Y32221715D01*
X52968743Y32204003D01*
X52947560Y32188293D01*
X52924938Y32174734D01*
X52901096Y32163457D01*
X52876264Y32154572D01*
X52850681Y32148164D01*
X52824592Y32144294D01*
X52798250Y32143000D01*
X52260750Y32143000D01*
X52234408Y32144294D01*
X52208319Y32148164D01*
X52182736Y32154572D01*
X52157904Y32163457D01*
X52134062Y32174734D01*
X52111440Y32188293D01*
X52090257Y32204003D01*
X52070715Y32221715D01*
X52053003Y32241257D01*
X52037293Y32262440D01*
X52023734Y32285062D01*
X52012457Y32308904D01*
X52003572Y32333736D01*
X51997164Y32359319D01*
X51993294Y32385408D01*
X51992000Y32411750D01*
X51992000Y33374250D01*
X51993294Y33400592D01*
X51997164Y33426681D01*
X52003572Y33452264D01*
X52012457Y33477096D01*
X52023734Y33500938D01*
X52037293Y33523560D01*
X52053003Y33544743D01*
X52070715Y33564285D01*
X52090257Y33581997D01*
X52111440Y33597707D01*
X52134062Y33611266D01*
X52157904Y33622543D01*
X52182736Y33631428D01*
X52208319Y33637836D01*
X52234408Y33641706D01*
X52260750Y33643000D01*
X52798250Y33643000D01*
X52824592Y33641706D01*
X52824592Y33641706D01*
G37*
D21*
X52529500Y32893000D03*
D20*
G36*
X54699592Y33641706D02*
G01*
X54725681Y33637836D01*
X54751264Y33631428D01*
X54776096Y33622543D01*
X54799938Y33611266D01*
X54822560Y33597707D01*
X54843743Y33581997D01*
X54863285Y33564285D01*
X54880997Y33544743D01*
X54896707Y33523560D01*
X54910266Y33500938D01*
X54921543Y33477096D01*
X54930428Y33452264D01*
X54936836Y33426681D01*
X54940706Y33400592D01*
X54942000Y33374250D01*
X54942000Y32411750D01*
X54940706Y32385408D01*
X54936836Y32359319D01*
X54930428Y32333736D01*
X54921543Y32308904D01*
X54910266Y32285062D01*
X54896707Y32262440D01*
X54880997Y32241257D01*
X54863285Y32221715D01*
X54843743Y32204003D01*
X54822560Y32188293D01*
X54799938Y32174734D01*
X54776096Y32163457D01*
X54751264Y32154572D01*
X54725681Y32148164D01*
X54699592Y32144294D01*
X54673250Y32143000D01*
X54135750Y32143000D01*
X54109408Y32144294D01*
X54083319Y32148164D01*
X54057736Y32154572D01*
X54032904Y32163457D01*
X54009062Y32174734D01*
X53986440Y32188293D01*
X53965257Y32204003D01*
X53945715Y32221715D01*
X53928003Y32241257D01*
X53912293Y32262440D01*
X53898734Y32285062D01*
X53887457Y32308904D01*
X53878572Y32333736D01*
X53872164Y32359319D01*
X53868294Y32385408D01*
X53867000Y32411750D01*
X53867000Y33374250D01*
X53868294Y33400592D01*
X53872164Y33426681D01*
X53878572Y33452264D01*
X53887457Y33477096D01*
X53898734Y33500938D01*
X53912293Y33523560D01*
X53928003Y33544743D01*
X53945715Y33564285D01*
X53965257Y33581997D01*
X53986440Y33597707D01*
X54009062Y33611266D01*
X54032904Y33622543D01*
X54057736Y33631428D01*
X54083319Y33637836D01*
X54109408Y33641706D01*
X54135750Y33643000D01*
X54673250Y33643000D01*
X54699592Y33641706D01*
X54699592Y33641706D01*
G37*
D21*
X54404500Y32893000D03*
G04 #@! TD*
D20*
G04 #@! TO.C,R5*
G36*
X-1478308Y90918706D02*
G01*
X-1452219Y90914836D01*
X-1426636Y90908428D01*
X-1401804Y90899543D01*
X-1377962Y90888266D01*
X-1355340Y90874707D01*
X-1334157Y90858997D01*
X-1314615Y90841285D01*
X-1296903Y90821743D01*
X-1281193Y90800560D01*
X-1267634Y90777938D01*
X-1256357Y90754096D01*
X-1247472Y90729264D01*
X-1241064Y90703681D01*
X-1237194Y90677592D01*
X-1235900Y90651250D01*
X-1235900Y89688750D01*
X-1237194Y89662408D01*
X-1241064Y89636319D01*
X-1247472Y89610736D01*
X-1256357Y89585904D01*
X-1267634Y89562062D01*
X-1281193Y89539440D01*
X-1296903Y89518257D01*
X-1314615Y89498715D01*
X-1334157Y89481003D01*
X-1355340Y89465293D01*
X-1377962Y89451734D01*
X-1401804Y89440457D01*
X-1426636Y89431572D01*
X-1452219Y89425164D01*
X-1478308Y89421294D01*
X-1504650Y89420000D01*
X-2042150Y89420000D01*
X-2068492Y89421294D01*
X-2094581Y89425164D01*
X-2120164Y89431572D01*
X-2144996Y89440457D01*
X-2168838Y89451734D01*
X-2191460Y89465293D01*
X-2212643Y89481003D01*
X-2232185Y89498715D01*
X-2249897Y89518257D01*
X-2265607Y89539440D01*
X-2279166Y89562062D01*
X-2290443Y89585904D01*
X-2299328Y89610736D01*
X-2305736Y89636319D01*
X-2309606Y89662408D01*
X-2310900Y89688750D01*
X-2310900Y90651250D01*
X-2309606Y90677592D01*
X-2305736Y90703681D01*
X-2299328Y90729264D01*
X-2290443Y90754096D01*
X-2279166Y90777938D01*
X-2265607Y90800560D01*
X-2249897Y90821743D01*
X-2232185Y90841285D01*
X-2212643Y90858997D01*
X-2191460Y90874707D01*
X-2168838Y90888266D01*
X-2144996Y90899543D01*
X-2120164Y90908428D01*
X-2094581Y90914836D01*
X-2068492Y90918706D01*
X-2042150Y90920000D01*
X-1504650Y90920000D01*
X-1478308Y90918706D01*
X-1478308Y90918706D01*
G37*
D21*
X-1773400Y90170000D03*
D20*
G36*
X396692Y90918706D02*
G01*
X422781Y90914836D01*
X448364Y90908428D01*
X473196Y90899543D01*
X497038Y90888266D01*
X519660Y90874707D01*
X540843Y90858997D01*
X560385Y90841285D01*
X578097Y90821743D01*
X593807Y90800560D01*
X607366Y90777938D01*
X618643Y90754096D01*
X627528Y90729264D01*
X633936Y90703681D01*
X637806Y90677592D01*
X639100Y90651250D01*
X639100Y89688750D01*
X637806Y89662408D01*
X633936Y89636319D01*
X627528Y89610736D01*
X618643Y89585904D01*
X607366Y89562062D01*
X593807Y89539440D01*
X578097Y89518257D01*
X560385Y89498715D01*
X540843Y89481003D01*
X519660Y89465293D01*
X497038Y89451734D01*
X473196Y89440457D01*
X448364Y89431572D01*
X422781Y89425164D01*
X396692Y89421294D01*
X370350Y89420000D01*
X-167150Y89420000D01*
X-193492Y89421294D01*
X-219581Y89425164D01*
X-245164Y89431572D01*
X-269996Y89440457D01*
X-293838Y89451734D01*
X-316460Y89465293D01*
X-337643Y89481003D01*
X-357185Y89498715D01*
X-374897Y89518257D01*
X-390607Y89539440D01*
X-404166Y89562062D01*
X-415443Y89585904D01*
X-424328Y89610736D01*
X-430736Y89636319D01*
X-434606Y89662408D01*
X-435900Y89688750D01*
X-435900Y90651250D01*
X-434606Y90677592D01*
X-430736Y90703681D01*
X-424328Y90729264D01*
X-415443Y90754096D01*
X-404166Y90777938D01*
X-390607Y90800560D01*
X-374897Y90821743D01*
X-357185Y90841285D01*
X-337643Y90858997D01*
X-316460Y90874707D01*
X-293838Y90888266D01*
X-269996Y90899543D01*
X-245164Y90908428D01*
X-219581Y90914836D01*
X-193492Y90918706D01*
X-167150Y90920000D01*
X370350Y90920000D01*
X396692Y90918706D01*
X396692Y90918706D01*
G37*
D21*
X101600Y90170000D03*
G04 #@! TD*
D20*
G04 #@! TO.C,R4*
G36*
X8344592Y89572506D02*
G01*
X8370681Y89568636D01*
X8396264Y89562228D01*
X8421096Y89553343D01*
X8444938Y89542066D01*
X8467560Y89528507D01*
X8488743Y89512797D01*
X8508285Y89495085D01*
X8525997Y89475543D01*
X8541707Y89454360D01*
X8555266Y89431738D01*
X8566543Y89407896D01*
X8575428Y89383064D01*
X8581836Y89357481D01*
X8585706Y89331392D01*
X8587000Y89305050D01*
X8587000Y88342550D01*
X8585706Y88316208D01*
X8581836Y88290119D01*
X8575428Y88264536D01*
X8566543Y88239704D01*
X8555266Y88215862D01*
X8541707Y88193240D01*
X8525997Y88172057D01*
X8508285Y88152515D01*
X8488743Y88134803D01*
X8467560Y88119093D01*
X8444938Y88105534D01*
X8421096Y88094257D01*
X8396264Y88085372D01*
X8370681Y88078964D01*
X8344592Y88075094D01*
X8318250Y88073800D01*
X7780750Y88073800D01*
X7754408Y88075094D01*
X7728319Y88078964D01*
X7702736Y88085372D01*
X7677904Y88094257D01*
X7654062Y88105534D01*
X7631440Y88119093D01*
X7610257Y88134803D01*
X7590715Y88152515D01*
X7573003Y88172057D01*
X7557293Y88193240D01*
X7543734Y88215862D01*
X7532457Y88239704D01*
X7523572Y88264536D01*
X7517164Y88290119D01*
X7513294Y88316208D01*
X7512000Y88342550D01*
X7512000Y89305050D01*
X7513294Y89331392D01*
X7517164Y89357481D01*
X7523572Y89383064D01*
X7532457Y89407896D01*
X7543734Y89431738D01*
X7557293Y89454360D01*
X7573003Y89475543D01*
X7590715Y89495085D01*
X7610257Y89512797D01*
X7631440Y89528507D01*
X7654062Y89542066D01*
X7677904Y89553343D01*
X7702736Y89562228D01*
X7728319Y89568636D01*
X7754408Y89572506D01*
X7780750Y89573800D01*
X8318250Y89573800D01*
X8344592Y89572506D01*
X8344592Y89572506D01*
G37*
D21*
X8049500Y88823800D03*
D20*
G36*
X6469592Y89572506D02*
G01*
X6495681Y89568636D01*
X6521264Y89562228D01*
X6546096Y89553343D01*
X6569938Y89542066D01*
X6592560Y89528507D01*
X6613743Y89512797D01*
X6633285Y89495085D01*
X6650997Y89475543D01*
X6666707Y89454360D01*
X6680266Y89431738D01*
X6691543Y89407896D01*
X6700428Y89383064D01*
X6706836Y89357481D01*
X6710706Y89331392D01*
X6712000Y89305050D01*
X6712000Y88342550D01*
X6710706Y88316208D01*
X6706836Y88290119D01*
X6700428Y88264536D01*
X6691543Y88239704D01*
X6680266Y88215862D01*
X6666707Y88193240D01*
X6650997Y88172057D01*
X6633285Y88152515D01*
X6613743Y88134803D01*
X6592560Y88119093D01*
X6569938Y88105534D01*
X6546096Y88094257D01*
X6521264Y88085372D01*
X6495681Y88078964D01*
X6469592Y88075094D01*
X6443250Y88073800D01*
X5905750Y88073800D01*
X5879408Y88075094D01*
X5853319Y88078964D01*
X5827736Y88085372D01*
X5802904Y88094257D01*
X5779062Y88105534D01*
X5756440Y88119093D01*
X5735257Y88134803D01*
X5715715Y88152515D01*
X5698003Y88172057D01*
X5682293Y88193240D01*
X5668734Y88215862D01*
X5657457Y88239704D01*
X5648572Y88264536D01*
X5642164Y88290119D01*
X5638294Y88316208D01*
X5637000Y88342550D01*
X5637000Y89305050D01*
X5638294Y89331392D01*
X5642164Y89357481D01*
X5648572Y89383064D01*
X5657457Y89407896D01*
X5668734Y89431738D01*
X5682293Y89454360D01*
X5698003Y89475543D01*
X5715715Y89495085D01*
X5735257Y89512797D01*
X5756440Y89528507D01*
X5779062Y89542066D01*
X5802904Y89553343D01*
X5827736Y89562228D01*
X5853319Y89568636D01*
X5879408Y89572506D01*
X5905750Y89573800D01*
X6443250Y89573800D01*
X6469592Y89572506D01*
X6469592Y89572506D01*
G37*
D21*
X6174500Y88823800D03*
G04 #@! TD*
D20*
G04 #@! TO.C,R3*
G36*
X-508408Y80012806D02*
G01*
X-482319Y80008936D01*
X-456736Y80002528D01*
X-431904Y79993643D01*
X-408062Y79982366D01*
X-385440Y79968807D01*
X-364257Y79953097D01*
X-344715Y79935385D01*
X-327003Y79915843D01*
X-311293Y79894660D01*
X-297734Y79872038D01*
X-286457Y79848196D01*
X-277572Y79823364D01*
X-271164Y79797781D01*
X-267294Y79771692D01*
X-266000Y79745350D01*
X-266000Y79207850D01*
X-267294Y79181508D01*
X-271164Y79155419D01*
X-277572Y79129836D01*
X-286457Y79105004D01*
X-297734Y79081162D01*
X-311293Y79058540D01*
X-327003Y79037357D01*
X-344715Y79017815D01*
X-364257Y79000103D01*
X-385440Y78984393D01*
X-408062Y78970834D01*
X-431904Y78959557D01*
X-456736Y78950672D01*
X-482319Y78944264D01*
X-508408Y78940394D01*
X-534750Y78939100D01*
X-1497250Y78939100D01*
X-1523592Y78940394D01*
X-1549681Y78944264D01*
X-1575264Y78950672D01*
X-1600096Y78959557D01*
X-1623938Y78970834D01*
X-1646560Y78984393D01*
X-1667743Y79000103D01*
X-1687285Y79017815D01*
X-1704997Y79037357D01*
X-1720707Y79058540D01*
X-1734266Y79081162D01*
X-1745543Y79105004D01*
X-1754428Y79129836D01*
X-1760836Y79155419D01*
X-1764706Y79181508D01*
X-1766000Y79207850D01*
X-1766000Y79745350D01*
X-1764706Y79771692D01*
X-1760836Y79797781D01*
X-1754428Y79823364D01*
X-1745543Y79848196D01*
X-1734266Y79872038D01*
X-1720707Y79894660D01*
X-1704997Y79915843D01*
X-1687285Y79935385D01*
X-1667743Y79953097D01*
X-1646560Y79968807D01*
X-1623938Y79982366D01*
X-1600096Y79993643D01*
X-1575264Y80002528D01*
X-1549681Y80008936D01*
X-1523592Y80012806D01*
X-1497250Y80014100D01*
X-534750Y80014100D01*
X-508408Y80012806D01*
X-508408Y80012806D01*
G37*
D21*
X-1016000Y79476600D03*
D20*
G36*
X-508408Y78137806D02*
G01*
X-482319Y78133936D01*
X-456736Y78127528D01*
X-431904Y78118643D01*
X-408062Y78107366D01*
X-385440Y78093807D01*
X-364257Y78078097D01*
X-344715Y78060385D01*
X-327003Y78040843D01*
X-311293Y78019660D01*
X-297734Y77997038D01*
X-286457Y77973196D01*
X-277572Y77948364D01*
X-271164Y77922781D01*
X-267294Y77896692D01*
X-266000Y77870350D01*
X-266000Y77332850D01*
X-267294Y77306508D01*
X-271164Y77280419D01*
X-277572Y77254836D01*
X-286457Y77230004D01*
X-297734Y77206162D01*
X-311293Y77183540D01*
X-327003Y77162357D01*
X-344715Y77142815D01*
X-364257Y77125103D01*
X-385440Y77109393D01*
X-408062Y77095834D01*
X-431904Y77084557D01*
X-456736Y77075672D01*
X-482319Y77069264D01*
X-508408Y77065394D01*
X-534750Y77064100D01*
X-1497250Y77064100D01*
X-1523592Y77065394D01*
X-1549681Y77069264D01*
X-1575264Y77075672D01*
X-1600096Y77084557D01*
X-1623938Y77095834D01*
X-1646560Y77109393D01*
X-1667743Y77125103D01*
X-1687285Y77142815D01*
X-1704997Y77162357D01*
X-1720707Y77183540D01*
X-1734266Y77206162D01*
X-1745543Y77230004D01*
X-1754428Y77254836D01*
X-1760836Y77280419D01*
X-1764706Y77306508D01*
X-1766000Y77332850D01*
X-1766000Y77870350D01*
X-1764706Y77896692D01*
X-1760836Y77922781D01*
X-1754428Y77948364D01*
X-1745543Y77973196D01*
X-1734266Y77997038D01*
X-1720707Y78019660D01*
X-1704997Y78040843D01*
X-1687285Y78060385D01*
X-1667743Y78078097D01*
X-1646560Y78093807D01*
X-1623938Y78107366D01*
X-1600096Y78118643D01*
X-1575264Y78127528D01*
X-1549681Y78133936D01*
X-1523592Y78137806D01*
X-1497250Y78139100D01*
X-534750Y78139100D01*
X-508408Y78137806D01*
X-508408Y78137806D01*
G37*
D21*
X-1016000Y77601600D03*
G04 #@! TD*
D20*
G04 #@! TO.C,R2*
G36*
X1472792Y80012806D02*
G01*
X1498881Y80008936D01*
X1524464Y80002528D01*
X1549296Y79993643D01*
X1573138Y79982366D01*
X1595760Y79968807D01*
X1616943Y79953097D01*
X1636485Y79935385D01*
X1654197Y79915843D01*
X1669907Y79894660D01*
X1683466Y79872038D01*
X1694743Y79848196D01*
X1703628Y79823364D01*
X1710036Y79797781D01*
X1713906Y79771692D01*
X1715200Y79745350D01*
X1715200Y79207850D01*
X1713906Y79181508D01*
X1710036Y79155419D01*
X1703628Y79129836D01*
X1694743Y79105004D01*
X1683466Y79081162D01*
X1669907Y79058540D01*
X1654197Y79037357D01*
X1636485Y79017815D01*
X1616943Y79000103D01*
X1595760Y78984393D01*
X1573138Y78970834D01*
X1549296Y78959557D01*
X1524464Y78950672D01*
X1498881Y78944264D01*
X1472792Y78940394D01*
X1446450Y78939100D01*
X483950Y78939100D01*
X457608Y78940394D01*
X431519Y78944264D01*
X405936Y78950672D01*
X381104Y78959557D01*
X357262Y78970834D01*
X334640Y78984393D01*
X313457Y79000103D01*
X293915Y79017815D01*
X276203Y79037357D01*
X260493Y79058540D01*
X246934Y79081162D01*
X235657Y79105004D01*
X226772Y79129836D01*
X220364Y79155419D01*
X216494Y79181508D01*
X215200Y79207850D01*
X215200Y79745350D01*
X216494Y79771692D01*
X220364Y79797781D01*
X226772Y79823364D01*
X235657Y79848196D01*
X246934Y79872038D01*
X260493Y79894660D01*
X276203Y79915843D01*
X293915Y79935385D01*
X313457Y79953097D01*
X334640Y79968807D01*
X357262Y79982366D01*
X381104Y79993643D01*
X405936Y80002528D01*
X431519Y80008936D01*
X457608Y80012806D01*
X483950Y80014100D01*
X1446450Y80014100D01*
X1472792Y80012806D01*
X1472792Y80012806D01*
G37*
D21*
X965200Y79476600D03*
D20*
G36*
X1472792Y78137806D02*
G01*
X1498881Y78133936D01*
X1524464Y78127528D01*
X1549296Y78118643D01*
X1573138Y78107366D01*
X1595760Y78093807D01*
X1616943Y78078097D01*
X1636485Y78060385D01*
X1654197Y78040843D01*
X1669907Y78019660D01*
X1683466Y77997038D01*
X1694743Y77973196D01*
X1703628Y77948364D01*
X1710036Y77922781D01*
X1713906Y77896692D01*
X1715200Y77870350D01*
X1715200Y77332850D01*
X1713906Y77306508D01*
X1710036Y77280419D01*
X1703628Y77254836D01*
X1694743Y77230004D01*
X1683466Y77206162D01*
X1669907Y77183540D01*
X1654197Y77162357D01*
X1636485Y77142815D01*
X1616943Y77125103D01*
X1595760Y77109393D01*
X1573138Y77095834D01*
X1549296Y77084557D01*
X1524464Y77075672D01*
X1498881Y77069264D01*
X1472792Y77065394D01*
X1446450Y77064100D01*
X483950Y77064100D01*
X457608Y77065394D01*
X431519Y77069264D01*
X405936Y77075672D01*
X381104Y77084557D01*
X357262Y77095834D01*
X334640Y77109393D01*
X313457Y77125103D01*
X293915Y77142815D01*
X276203Y77162357D01*
X260493Y77183540D01*
X246934Y77206162D01*
X235657Y77230004D01*
X226772Y77254836D01*
X220364Y77280419D01*
X216494Y77306508D01*
X215200Y77332850D01*
X215200Y77870350D01*
X216494Y77896692D01*
X220364Y77922781D01*
X226772Y77948364D01*
X235657Y77973196D01*
X246934Y77997038D01*
X260493Y78019660D01*
X276203Y78040843D01*
X293915Y78060385D01*
X313457Y78078097D01*
X334640Y78093807D01*
X357262Y78107366D01*
X381104Y78118643D01*
X405936Y78127528D01*
X431519Y78133936D01*
X457608Y78137806D01*
X483950Y78139100D01*
X1446450Y78139100D01*
X1472792Y78137806D01*
X1472792Y78137806D01*
G37*
D21*
X965200Y77601600D03*
G04 #@! TD*
D20*
G04 #@! TO.C,R1*
G36*
X56336792Y59434206D02*
G01*
X56362881Y59430336D01*
X56388464Y59423928D01*
X56413296Y59415043D01*
X56437138Y59403766D01*
X56459760Y59390207D01*
X56480943Y59374497D01*
X56500485Y59356785D01*
X56518197Y59337243D01*
X56533907Y59316060D01*
X56547466Y59293438D01*
X56558743Y59269596D01*
X56567628Y59244764D01*
X56574036Y59219181D01*
X56577906Y59193092D01*
X56579200Y59166750D01*
X56579200Y58629250D01*
X56577906Y58602908D01*
X56574036Y58576819D01*
X56567628Y58551236D01*
X56558743Y58526404D01*
X56547466Y58502562D01*
X56533907Y58479940D01*
X56518197Y58458757D01*
X56500485Y58439215D01*
X56480943Y58421503D01*
X56459760Y58405793D01*
X56437138Y58392234D01*
X56413296Y58380957D01*
X56388464Y58372072D01*
X56362881Y58365664D01*
X56336792Y58361794D01*
X56310450Y58360500D01*
X55347950Y58360500D01*
X55321608Y58361794D01*
X55295519Y58365664D01*
X55269936Y58372072D01*
X55245104Y58380957D01*
X55221262Y58392234D01*
X55198640Y58405793D01*
X55177457Y58421503D01*
X55157915Y58439215D01*
X55140203Y58458757D01*
X55124493Y58479940D01*
X55110934Y58502562D01*
X55099657Y58526404D01*
X55090772Y58551236D01*
X55084364Y58576819D01*
X55080494Y58602908D01*
X55079200Y58629250D01*
X55079200Y59166750D01*
X55080494Y59193092D01*
X55084364Y59219181D01*
X55090772Y59244764D01*
X55099657Y59269596D01*
X55110934Y59293438D01*
X55124493Y59316060D01*
X55140203Y59337243D01*
X55157915Y59356785D01*
X55177457Y59374497D01*
X55198640Y59390207D01*
X55221262Y59403766D01*
X55245104Y59415043D01*
X55269936Y59423928D01*
X55295519Y59430336D01*
X55321608Y59434206D01*
X55347950Y59435500D01*
X56310450Y59435500D01*
X56336792Y59434206D01*
X56336792Y59434206D01*
G37*
D21*
X55829200Y58898000D03*
D20*
G36*
X56336792Y57559206D02*
G01*
X56362881Y57555336D01*
X56388464Y57548928D01*
X56413296Y57540043D01*
X56437138Y57528766D01*
X56459760Y57515207D01*
X56480943Y57499497D01*
X56500485Y57481785D01*
X56518197Y57462243D01*
X56533907Y57441060D01*
X56547466Y57418438D01*
X56558743Y57394596D01*
X56567628Y57369764D01*
X56574036Y57344181D01*
X56577906Y57318092D01*
X56579200Y57291750D01*
X56579200Y56754250D01*
X56577906Y56727908D01*
X56574036Y56701819D01*
X56567628Y56676236D01*
X56558743Y56651404D01*
X56547466Y56627562D01*
X56533907Y56604940D01*
X56518197Y56583757D01*
X56500485Y56564215D01*
X56480943Y56546503D01*
X56459760Y56530793D01*
X56437138Y56517234D01*
X56413296Y56505957D01*
X56388464Y56497072D01*
X56362881Y56490664D01*
X56336792Y56486794D01*
X56310450Y56485500D01*
X55347950Y56485500D01*
X55321608Y56486794D01*
X55295519Y56490664D01*
X55269936Y56497072D01*
X55245104Y56505957D01*
X55221262Y56517234D01*
X55198640Y56530793D01*
X55177457Y56546503D01*
X55157915Y56564215D01*
X55140203Y56583757D01*
X55124493Y56604940D01*
X55110934Y56627562D01*
X55099657Y56651404D01*
X55090772Y56676236D01*
X55084364Y56701819D01*
X55080494Y56727908D01*
X55079200Y56754250D01*
X55079200Y57291750D01*
X55080494Y57318092D01*
X55084364Y57344181D01*
X55090772Y57369764D01*
X55099657Y57394596D01*
X55110934Y57418438D01*
X55124493Y57441060D01*
X55140203Y57462243D01*
X55157915Y57481785D01*
X55177457Y57499497D01*
X55198640Y57515207D01*
X55221262Y57528766D01*
X55245104Y57540043D01*
X55269936Y57548928D01*
X55295519Y57555336D01*
X55321608Y57559206D01*
X55347950Y57560500D01*
X56310450Y57560500D01*
X56336792Y57559206D01*
X56336792Y57559206D01*
G37*
D21*
X55829200Y57023000D03*
G04 #@! TD*
D22*
G04 #@! TO.C,J1*
X52070000Y64770000D03*
X52070000Y67310000D03*
X46990000Y67310000D03*
X46990000Y64770000D03*
X49530000Y67310000D03*
X49530000Y64770000D03*
G04 #@! TD*
D20*
G04 #@! TO.C,F1*
G36*
X15011065Y85912100D02*
G01*
X15037274Y85908212D01*
X15062977Y85901774D01*
X15087925Y85892847D01*
X15111877Y85881519D01*
X15134604Y85867897D01*
X15155886Y85852113D01*
X15175519Y85834319D01*
X15193313Y85814686D01*
X15209097Y85793404D01*
X15222719Y85770677D01*
X15234047Y85746725D01*
X15242974Y85721777D01*
X15249412Y85696074D01*
X15253300Y85669865D01*
X15254600Y85643400D01*
X15254600Y84333400D01*
X15253300Y84306935D01*
X15249412Y84280726D01*
X15242974Y84255023D01*
X15234047Y84230075D01*
X15222719Y84206123D01*
X15209097Y84183396D01*
X15193313Y84162114D01*
X15175519Y84142481D01*
X15155886Y84124687D01*
X15134604Y84108903D01*
X15111877Y84095281D01*
X15087925Y84083953D01*
X15062977Y84075026D01*
X15037274Y84068588D01*
X15011065Y84064700D01*
X14984600Y84063400D01*
X14174600Y84063400D01*
X14148135Y84064700D01*
X14121926Y84068588D01*
X14096223Y84075026D01*
X14071275Y84083953D01*
X14047323Y84095281D01*
X14024596Y84108903D01*
X14003314Y84124687D01*
X13983681Y84142481D01*
X13965887Y84162114D01*
X13950103Y84183396D01*
X13936481Y84206123D01*
X13925153Y84230075D01*
X13916226Y84255023D01*
X13909788Y84280726D01*
X13905900Y84306935D01*
X13904600Y84333400D01*
X13904600Y85643400D01*
X13905900Y85669865D01*
X13909788Y85696074D01*
X13916226Y85721777D01*
X13925153Y85746725D01*
X13936481Y85770677D01*
X13950103Y85793404D01*
X13965887Y85814686D01*
X13983681Y85834319D01*
X14003314Y85852113D01*
X14024596Y85867897D01*
X14047323Y85881519D01*
X14071275Y85892847D01*
X14096223Y85901774D01*
X14121926Y85908212D01*
X14148135Y85912100D01*
X14174600Y85913400D01*
X14984600Y85913400D01*
X15011065Y85912100D01*
X15011065Y85912100D01*
G37*
D23*
X14579600Y84988400D03*
D20*
G36*
X12211065Y85912100D02*
G01*
X12237274Y85908212D01*
X12262977Y85901774D01*
X12287925Y85892847D01*
X12311877Y85881519D01*
X12334604Y85867897D01*
X12355886Y85852113D01*
X12375519Y85834319D01*
X12393313Y85814686D01*
X12409097Y85793404D01*
X12422719Y85770677D01*
X12434047Y85746725D01*
X12442974Y85721777D01*
X12449412Y85696074D01*
X12453300Y85669865D01*
X12454600Y85643400D01*
X12454600Y84333400D01*
X12453300Y84306935D01*
X12449412Y84280726D01*
X12442974Y84255023D01*
X12434047Y84230075D01*
X12422719Y84206123D01*
X12409097Y84183396D01*
X12393313Y84162114D01*
X12375519Y84142481D01*
X12355886Y84124687D01*
X12334604Y84108903D01*
X12311877Y84095281D01*
X12287925Y84083953D01*
X12262977Y84075026D01*
X12237274Y84068588D01*
X12211065Y84064700D01*
X12184600Y84063400D01*
X11374600Y84063400D01*
X11348135Y84064700D01*
X11321926Y84068588D01*
X11296223Y84075026D01*
X11271275Y84083953D01*
X11247323Y84095281D01*
X11224596Y84108903D01*
X11203314Y84124687D01*
X11183681Y84142481D01*
X11165887Y84162114D01*
X11150103Y84183396D01*
X11136481Y84206123D01*
X11125153Y84230075D01*
X11116226Y84255023D01*
X11109788Y84280726D01*
X11105900Y84306935D01*
X11104600Y84333400D01*
X11104600Y85643400D01*
X11105900Y85669865D01*
X11109788Y85696074D01*
X11116226Y85721777D01*
X11125153Y85746725D01*
X11136481Y85770677D01*
X11150103Y85793404D01*
X11165887Y85814686D01*
X11183681Y85834319D01*
X11203314Y85852113D01*
X11224596Y85867897D01*
X11247323Y85881519D01*
X11271275Y85892847D01*
X11296223Y85901774D01*
X11321926Y85908212D01*
X11348135Y85912100D01*
X11374600Y85913400D01*
X12184600Y85913400D01*
X12211065Y85912100D01*
X12211065Y85912100D01*
G37*
D23*
X11779600Y84988400D03*
G04 #@! TD*
D24*
G04 #@! TO.C,D79*
X-1390400Y84863200D03*
D25*
X609600Y86563200D03*
X609600Y84663200D03*
X-1390400Y86563200D03*
G04 #@! TD*
D20*
G04 #@! TO.C,C8*
G36*
X61054495Y43434199D02*
G01*
X61080584Y43430329D01*
X61106167Y43423921D01*
X61130999Y43415036D01*
X61154841Y43403759D01*
X61177463Y43390200D01*
X61198646Y43374490D01*
X61218188Y43356778D01*
X61898778Y42676188D01*
X61916490Y42656646D01*
X61932200Y42635463D01*
X61945759Y42612841D01*
X61957036Y42588999D01*
X61965921Y42564167D01*
X61972329Y42538584D01*
X61976199Y42512495D01*
X61977493Y42486153D01*
X61976199Y42459811D01*
X61972329Y42433722D01*
X61965921Y42408139D01*
X61957036Y42383307D01*
X61945759Y42359465D01*
X61932200Y42336843D01*
X61916490Y42315660D01*
X61898778Y42296118D01*
X61518708Y41916048D01*
X61499166Y41898336D01*
X61477983Y41882626D01*
X61455361Y41869067D01*
X61431519Y41857790D01*
X61406687Y41848905D01*
X61381104Y41842497D01*
X61355015Y41838627D01*
X61328673Y41837333D01*
X61302331Y41838627D01*
X61276242Y41842497D01*
X61250659Y41848905D01*
X61225827Y41857790D01*
X61201985Y41869067D01*
X61179363Y41882626D01*
X61158180Y41898336D01*
X61138638Y41916048D01*
X60458048Y42596638D01*
X60440336Y42616180D01*
X60424626Y42637363D01*
X60411067Y42659985D01*
X60399790Y42683827D01*
X60390905Y42708659D01*
X60384497Y42734242D01*
X60380627Y42760331D01*
X60379333Y42786673D01*
X60380627Y42813015D01*
X60384497Y42839104D01*
X60390905Y42864687D01*
X60399790Y42889519D01*
X60411067Y42913361D01*
X60424626Y42935983D01*
X60440336Y42957166D01*
X60458048Y42976708D01*
X60838118Y43356778D01*
X60857660Y43374490D01*
X60878843Y43390200D01*
X60901465Y43403759D01*
X60925307Y43415036D01*
X60950139Y43423921D01*
X60975722Y43430329D01*
X61001811Y43434199D01*
X61028153Y43435493D01*
X61054495Y43434199D01*
X61054495Y43434199D01*
G37*
D21*
X61178413Y42636413D03*
D20*
G36*
X59728669Y42108373D02*
G01*
X59754758Y42104503D01*
X59780341Y42098095D01*
X59805173Y42089210D01*
X59829015Y42077933D01*
X59851637Y42064374D01*
X59872820Y42048664D01*
X59892362Y42030952D01*
X60572952Y41350362D01*
X60590664Y41330820D01*
X60606374Y41309637D01*
X60619933Y41287015D01*
X60631210Y41263173D01*
X60640095Y41238341D01*
X60646503Y41212758D01*
X60650373Y41186669D01*
X60651667Y41160327D01*
X60650373Y41133985D01*
X60646503Y41107896D01*
X60640095Y41082313D01*
X60631210Y41057481D01*
X60619933Y41033639D01*
X60606374Y41011017D01*
X60590664Y40989834D01*
X60572952Y40970292D01*
X60192882Y40590222D01*
X60173340Y40572510D01*
X60152157Y40556800D01*
X60129535Y40543241D01*
X60105693Y40531964D01*
X60080861Y40523079D01*
X60055278Y40516671D01*
X60029189Y40512801D01*
X60002847Y40511507D01*
X59976505Y40512801D01*
X59950416Y40516671D01*
X59924833Y40523079D01*
X59900001Y40531964D01*
X59876159Y40543241D01*
X59853537Y40556800D01*
X59832354Y40572510D01*
X59812812Y40590222D01*
X59132222Y41270812D01*
X59114510Y41290354D01*
X59098800Y41311537D01*
X59085241Y41334159D01*
X59073964Y41358001D01*
X59065079Y41382833D01*
X59058671Y41408416D01*
X59054801Y41434505D01*
X59053507Y41460847D01*
X59054801Y41487189D01*
X59058671Y41513278D01*
X59065079Y41538861D01*
X59073964Y41563693D01*
X59085241Y41587535D01*
X59098800Y41610157D01*
X59114510Y41631340D01*
X59132222Y41650882D01*
X59512292Y42030952D01*
X59531834Y42048664D01*
X59553017Y42064374D01*
X59575639Y42077933D01*
X59599481Y42089210D01*
X59624313Y42098095D01*
X59649896Y42104503D01*
X59675985Y42108373D01*
X59702327Y42109667D01*
X59728669Y42108373D01*
X59728669Y42108373D01*
G37*
D21*
X59852587Y41310587D03*
G04 #@! TD*
D20*
G04 #@! TO.C,C7*
G36*
X45223092Y53580706D02*
G01*
X45249181Y53576836D01*
X45274764Y53570428D01*
X45299596Y53561543D01*
X45323438Y53550266D01*
X45346060Y53536707D01*
X45367243Y53520997D01*
X45386785Y53503285D01*
X45404497Y53483743D01*
X45420207Y53462560D01*
X45433766Y53439938D01*
X45445043Y53416096D01*
X45453928Y53391264D01*
X45460336Y53365681D01*
X45464206Y53339592D01*
X45465500Y53313250D01*
X45465500Y52350750D01*
X45464206Y52324408D01*
X45460336Y52298319D01*
X45453928Y52272736D01*
X45445043Y52247904D01*
X45433766Y52224062D01*
X45420207Y52201440D01*
X45404497Y52180257D01*
X45386785Y52160715D01*
X45367243Y52143003D01*
X45346060Y52127293D01*
X45323438Y52113734D01*
X45299596Y52102457D01*
X45274764Y52093572D01*
X45249181Y52087164D01*
X45223092Y52083294D01*
X45196750Y52082000D01*
X44659250Y52082000D01*
X44632908Y52083294D01*
X44606819Y52087164D01*
X44581236Y52093572D01*
X44556404Y52102457D01*
X44532562Y52113734D01*
X44509940Y52127293D01*
X44488757Y52143003D01*
X44469215Y52160715D01*
X44451503Y52180257D01*
X44435793Y52201440D01*
X44422234Y52224062D01*
X44410957Y52247904D01*
X44402072Y52272736D01*
X44395664Y52298319D01*
X44391794Y52324408D01*
X44390500Y52350750D01*
X44390500Y53313250D01*
X44391794Y53339592D01*
X44395664Y53365681D01*
X44402072Y53391264D01*
X44410957Y53416096D01*
X44422234Y53439938D01*
X44435793Y53462560D01*
X44451503Y53483743D01*
X44469215Y53503285D01*
X44488757Y53520997D01*
X44509940Y53536707D01*
X44532562Y53550266D01*
X44556404Y53561543D01*
X44581236Y53570428D01*
X44606819Y53576836D01*
X44632908Y53580706D01*
X44659250Y53582000D01*
X45196750Y53582000D01*
X45223092Y53580706D01*
X45223092Y53580706D01*
G37*
D21*
X44928000Y52832000D03*
D20*
G36*
X43348092Y53580706D02*
G01*
X43374181Y53576836D01*
X43399764Y53570428D01*
X43424596Y53561543D01*
X43448438Y53550266D01*
X43471060Y53536707D01*
X43492243Y53520997D01*
X43511785Y53503285D01*
X43529497Y53483743D01*
X43545207Y53462560D01*
X43558766Y53439938D01*
X43570043Y53416096D01*
X43578928Y53391264D01*
X43585336Y53365681D01*
X43589206Y53339592D01*
X43590500Y53313250D01*
X43590500Y52350750D01*
X43589206Y52324408D01*
X43585336Y52298319D01*
X43578928Y52272736D01*
X43570043Y52247904D01*
X43558766Y52224062D01*
X43545207Y52201440D01*
X43529497Y52180257D01*
X43511785Y52160715D01*
X43492243Y52143003D01*
X43471060Y52127293D01*
X43448438Y52113734D01*
X43424596Y52102457D01*
X43399764Y52093572D01*
X43374181Y52087164D01*
X43348092Y52083294D01*
X43321750Y52082000D01*
X42784250Y52082000D01*
X42757908Y52083294D01*
X42731819Y52087164D01*
X42706236Y52093572D01*
X42681404Y52102457D01*
X42657562Y52113734D01*
X42634940Y52127293D01*
X42613757Y52143003D01*
X42594215Y52160715D01*
X42576503Y52180257D01*
X42560793Y52201440D01*
X42547234Y52224062D01*
X42535957Y52247904D01*
X42527072Y52272736D01*
X42520664Y52298319D01*
X42516794Y52324408D01*
X42515500Y52350750D01*
X42515500Y53313250D01*
X42516794Y53339592D01*
X42520664Y53365681D01*
X42527072Y53391264D01*
X42535957Y53416096D01*
X42547234Y53439938D01*
X42560793Y53462560D01*
X42576503Y53483743D01*
X42594215Y53503285D01*
X42613757Y53520997D01*
X42634940Y53536707D01*
X42657562Y53550266D01*
X42681404Y53561543D01*
X42706236Y53570428D01*
X42731819Y53576836D01*
X42757908Y53580706D01*
X42784250Y53582000D01*
X43321750Y53582000D01*
X43348092Y53580706D01*
X43348092Y53580706D01*
G37*
D21*
X43053000Y52832000D03*
G04 #@! TD*
D20*
G04 #@! TO.C,C6*
G36*
X44313505Y60276119D02*
G01*
X44339594Y60272249D01*
X44365177Y60265841D01*
X44390009Y60256956D01*
X44413851Y60245679D01*
X44436473Y60232120D01*
X44457656Y60216410D01*
X44477198Y60198698D01*
X44494910Y60179156D01*
X44510620Y60157973D01*
X44524179Y60135351D01*
X44535456Y60111509D01*
X44544341Y60086677D01*
X44550749Y60061094D01*
X44554619Y60035005D01*
X44555913Y60008663D01*
X44555913Y59046163D01*
X44554619Y59019821D01*
X44550749Y58993732D01*
X44544341Y58968149D01*
X44535456Y58943317D01*
X44524179Y58919475D01*
X44510620Y58896853D01*
X44494910Y58875670D01*
X44477198Y58856128D01*
X44457656Y58838416D01*
X44436473Y58822706D01*
X44413851Y58809147D01*
X44390009Y58797870D01*
X44365177Y58788985D01*
X44339594Y58782577D01*
X44313505Y58778707D01*
X44287163Y58777413D01*
X43749663Y58777413D01*
X43723321Y58778707D01*
X43697232Y58782577D01*
X43671649Y58788985D01*
X43646817Y58797870D01*
X43622975Y58809147D01*
X43600353Y58822706D01*
X43579170Y58838416D01*
X43559628Y58856128D01*
X43541916Y58875670D01*
X43526206Y58896853D01*
X43512647Y58919475D01*
X43501370Y58943317D01*
X43492485Y58968149D01*
X43486077Y58993732D01*
X43482207Y59019821D01*
X43480913Y59046163D01*
X43480913Y60008663D01*
X43482207Y60035005D01*
X43486077Y60061094D01*
X43492485Y60086677D01*
X43501370Y60111509D01*
X43512647Y60135351D01*
X43526206Y60157973D01*
X43541916Y60179156D01*
X43559628Y60198698D01*
X43579170Y60216410D01*
X43600353Y60232120D01*
X43622975Y60245679D01*
X43646817Y60256956D01*
X43671649Y60265841D01*
X43697232Y60272249D01*
X43723321Y60276119D01*
X43749663Y60277413D01*
X44287163Y60277413D01*
X44313505Y60276119D01*
X44313505Y60276119D01*
G37*
D21*
X44018413Y59527413D03*
D20*
G36*
X42438505Y60276119D02*
G01*
X42464594Y60272249D01*
X42490177Y60265841D01*
X42515009Y60256956D01*
X42538851Y60245679D01*
X42561473Y60232120D01*
X42582656Y60216410D01*
X42602198Y60198698D01*
X42619910Y60179156D01*
X42635620Y60157973D01*
X42649179Y60135351D01*
X42660456Y60111509D01*
X42669341Y60086677D01*
X42675749Y60061094D01*
X42679619Y60035005D01*
X42680913Y60008663D01*
X42680913Y59046163D01*
X42679619Y59019821D01*
X42675749Y58993732D01*
X42669341Y58968149D01*
X42660456Y58943317D01*
X42649179Y58919475D01*
X42635620Y58896853D01*
X42619910Y58875670D01*
X42602198Y58856128D01*
X42582656Y58838416D01*
X42561473Y58822706D01*
X42538851Y58809147D01*
X42515009Y58797870D01*
X42490177Y58788985D01*
X42464594Y58782577D01*
X42438505Y58778707D01*
X42412163Y58777413D01*
X41874663Y58777413D01*
X41848321Y58778707D01*
X41822232Y58782577D01*
X41796649Y58788985D01*
X41771817Y58797870D01*
X41747975Y58809147D01*
X41725353Y58822706D01*
X41704170Y58838416D01*
X41684628Y58856128D01*
X41666916Y58875670D01*
X41651206Y58896853D01*
X41637647Y58919475D01*
X41626370Y58943317D01*
X41617485Y58968149D01*
X41611077Y58993732D01*
X41607207Y59019821D01*
X41605913Y59046163D01*
X41605913Y60008663D01*
X41607207Y60035005D01*
X41611077Y60061094D01*
X41617485Y60086677D01*
X41626370Y60111509D01*
X41637647Y60135351D01*
X41651206Y60157973D01*
X41666916Y60179156D01*
X41684628Y60198698D01*
X41704170Y60216410D01*
X41725353Y60232120D01*
X41747975Y60245679D01*
X41771817Y60256956D01*
X41796649Y60265841D01*
X41822232Y60272249D01*
X41848321Y60276119D01*
X41874663Y60277413D01*
X42412163Y60277413D01*
X42438505Y60276119D01*
X42438505Y60276119D01*
G37*
D21*
X42143413Y59527413D03*
G04 #@! TD*
D20*
G04 #@! TO.C,C5*
G36*
X58414892Y56146106D02*
G01*
X58440981Y56142236D01*
X58466564Y56135828D01*
X58491396Y56126943D01*
X58515238Y56115666D01*
X58537860Y56102107D01*
X58559043Y56086397D01*
X58578585Y56068685D01*
X58596297Y56049143D01*
X58612007Y56027960D01*
X58625566Y56005338D01*
X58636843Y55981496D01*
X58645728Y55956664D01*
X58652136Y55931081D01*
X58656006Y55904992D01*
X58657300Y55878650D01*
X58657300Y54916150D01*
X58656006Y54889808D01*
X58652136Y54863719D01*
X58645728Y54838136D01*
X58636843Y54813304D01*
X58625566Y54789462D01*
X58612007Y54766840D01*
X58596297Y54745657D01*
X58578585Y54726115D01*
X58559043Y54708403D01*
X58537860Y54692693D01*
X58515238Y54679134D01*
X58491396Y54667857D01*
X58466564Y54658972D01*
X58440981Y54652564D01*
X58414892Y54648694D01*
X58388550Y54647400D01*
X57851050Y54647400D01*
X57824708Y54648694D01*
X57798619Y54652564D01*
X57773036Y54658972D01*
X57748204Y54667857D01*
X57724362Y54679134D01*
X57701740Y54692693D01*
X57680557Y54708403D01*
X57661015Y54726115D01*
X57643303Y54745657D01*
X57627593Y54766840D01*
X57614034Y54789462D01*
X57602757Y54813304D01*
X57593872Y54838136D01*
X57587464Y54863719D01*
X57583594Y54889808D01*
X57582300Y54916150D01*
X57582300Y55878650D01*
X57583594Y55904992D01*
X57587464Y55931081D01*
X57593872Y55956664D01*
X57602757Y55981496D01*
X57614034Y56005338D01*
X57627593Y56027960D01*
X57643303Y56049143D01*
X57661015Y56068685D01*
X57680557Y56086397D01*
X57701740Y56102107D01*
X57724362Y56115666D01*
X57748204Y56126943D01*
X57773036Y56135828D01*
X57798619Y56142236D01*
X57824708Y56146106D01*
X57851050Y56147400D01*
X58388550Y56147400D01*
X58414892Y56146106D01*
X58414892Y56146106D01*
G37*
D21*
X58119800Y55397400D03*
D20*
G36*
X60289892Y56146106D02*
G01*
X60315981Y56142236D01*
X60341564Y56135828D01*
X60366396Y56126943D01*
X60390238Y56115666D01*
X60412860Y56102107D01*
X60434043Y56086397D01*
X60453585Y56068685D01*
X60471297Y56049143D01*
X60487007Y56027960D01*
X60500566Y56005338D01*
X60511843Y55981496D01*
X60520728Y55956664D01*
X60527136Y55931081D01*
X60531006Y55904992D01*
X60532300Y55878650D01*
X60532300Y54916150D01*
X60531006Y54889808D01*
X60527136Y54863719D01*
X60520728Y54838136D01*
X60511843Y54813304D01*
X60500566Y54789462D01*
X60487007Y54766840D01*
X60471297Y54745657D01*
X60453585Y54726115D01*
X60434043Y54708403D01*
X60412860Y54692693D01*
X60390238Y54679134D01*
X60366396Y54667857D01*
X60341564Y54658972D01*
X60315981Y54652564D01*
X60289892Y54648694D01*
X60263550Y54647400D01*
X59726050Y54647400D01*
X59699708Y54648694D01*
X59673619Y54652564D01*
X59648036Y54658972D01*
X59623204Y54667857D01*
X59599362Y54679134D01*
X59576740Y54692693D01*
X59555557Y54708403D01*
X59536015Y54726115D01*
X59518303Y54745657D01*
X59502593Y54766840D01*
X59489034Y54789462D01*
X59477757Y54813304D01*
X59468872Y54838136D01*
X59462464Y54863719D01*
X59458594Y54889808D01*
X59457300Y54916150D01*
X59457300Y55878650D01*
X59458594Y55904992D01*
X59462464Y55931081D01*
X59468872Y55956664D01*
X59477757Y55981496D01*
X59489034Y56005338D01*
X59502593Y56027960D01*
X59518303Y56049143D01*
X59536015Y56068685D01*
X59555557Y56086397D01*
X59576740Y56102107D01*
X59599362Y56115666D01*
X59623204Y56126943D01*
X59648036Y56135828D01*
X59673619Y56142236D01*
X59699708Y56146106D01*
X59726050Y56147400D01*
X60263550Y56147400D01*
X60289892Y56146106D01*
X60289892Y56146106D01*
G37*
D21*
X59994800Y55397400D03*
G04 #@! TD*
D20*
G04 #@! TO.C,C4*
G36*
X62839192Y52280606D02*
G01*
X62865281Y52276736D01*
X62890864Y52270328D01*
X62915696Y52261443D01*
X62939538Y52250166D01*
X62962160Y52236607D01*
X62983343Y52220897D01*
X63002885Y52203185D01*
X63020597Y52183643D01*
X63036307Y52162460D01*
X63049866Y52139838D01*
X63061143Y52115996D01*
X63070028Y52091164D01*
X63076436Y52065581D01*
X63080306Y52039492D01*
X63081600Y52013150D01*
X63081600Y51475650D01*
X63080306Y51449308D01*
X63076436Y51423219D01*
X63070028Y51397636D01*
X63061143Y51372804D01*
X63049866Y51348962D01*
X63036307Y51326340D01*
X63020597Y51305157D01*
X63002885Y51285615D01*
X62983343Y51267903D01*
X62962160Y51252193D01*
X62939538Y51238634D01*
X62915696Y51227357D01*
X62890864Y51218472D01*
X62865281Y51212064D01*
X62839192Y51208194D01*
X62812850Y51206900D01*
X61850350Y51206900D01*
X61824008Y51208194D01*
X61797919Y51212064D01*
X61772336Y51218472D01*
X61747504Y51227357D01*
X61723662Y51238634D01*
X61701040Y51252193D01*
X61679857Y51267903D01*
X61660315Y51285615D01*
X61642603Y51305157D01*
X61626893Y51326340D01*
X61613334Y51348962D01*
X61602057Y51372804D01*
X61593172Y51397636D01*
X61586764Y51423219D01*
X61582894Y51449308D01*
X61581600Y51475650D01*
X61581600Y52013150D01*
X61582894Y52039492D01*
X61586764Y52065581D01*
X61593172Y52091164D01*
X61602057Y52115996D01*
X61613334Y52139838D01*
X61626893Y52162460D01*
X61642603Y52183643D01*
X61660315Y52203185D01*
X61679857Y52220897D01*
X61701040Y52236607D01*
X61723662Y52250166D01*
X61747504Y52261443D01*
X61772336Y52270328D01*
X61797919Y52276736D01*
X61824008Y52280606D01*
X61850350Y52281900D01*
X62812850Y52281900D01*
X62839192Y52280606D01*
X62839192Y52280606D01*
G37*
D21*
X62331600Y51744400D03*
D20*
G36*
X62839192Y54155606D02*
G01*
X62865281Y54151736D01*
X62890864Y54145328D01*
X62915696Y54136443D01*
X62939538Y54125166D01*
X62962160Y54111607D01*
X62983343Y54095897D01*
X63002885Y54078185D01*
X63020597Y54058643D01*
X63036307Y54037460D01*
X63049866Y54014838D01*
X63061143Y53990996D01*
X63070028Y53966164D01*
X63076436Y53940581D01*
X63080306Y53914492D01*
X63081600Y53888150D01*
X63081600Y53350650D01*
X63080306Y53324308D01*
X63076436Y53298219D01*
X63070028Y53272636D01*
X63061143Y53247804D01*
X63049866Y53223962D01*
X63036307Y53201340D01*
X63020597Y53180157D01*
X63002885Y53160615D01*
X62983343Y53142903D01*
X62962160Y53127193D01*
X62939538Y53113634D01*
X62915696Y53102357D01*
X62890864Y53093472D01*
X62865281Y53087064D01*
X62839192Y53083194D01*
X62812850Y53081900D01*
X61850350Y53081900D01*
X61824008Y53083194D01*
X61797919Y53087064D01*
X61772336Y53093472D01*
X61747504Y53102357D01*
X61723662Y53113634D01*
X61701040Y53127193D01*
X61679857Y53142903D01*
X61660315Y53160615D01*
X61642603Y53180157D01*
X61626893Y53201340D01*
X61613334Y53223962D01*
X61602057Y53247804D01*
X61593172Y53272636D01*
X61586764Y53298219D01*
X61582894Y53324308D01*
X61581600Y53350650D01*
X61581600Y53888150D01*
X61582894Y53914492D01*
X61586764Y53940581D01*
X61593172Y53966164D01*
X61602057Y53990996D01*
X61613334Y54014838D01*
X61626893Y54037460D01*
X61642603Y54058643D01*
X61660315Y54078185D01*
X61679857Y54095897D01*
X61701040Y54111607D01*
X61723662Y54125166D01*
X61747504Y54136443D01*
X61772336Y54145328D01*
X61797919Y54151736D01*
X61824008Y54155606D01*
X61850350Y54156900D01*
X62812850Y54156900D01*
X62839192Y54155606D01*
X62839192Y54155606D01*
G37*
D21*
X62331600Y53619400D03*
G04 #@! TD*
D20*
G04 #@! TO.C,C3*
G36*
X54119992Y55968306D02*
G01*
X54146081Y55964436D01*
X54171664Y55958028D01*
X54196496Y55949143D01*
X54220338Y55937866D01*
X54242960Y55924307D01*
X54264143Y55908597D01*
X54283685Y55890885D01*
X54301397Y55871343D01*
X54317107Y55850160D01*
X54330666Y55827538D01*
X54341943Y55803696D01*
X54350828Y55778864D01*
X54357236Y55753281D01*
X54361106Y55727192D01*
X54362400Y55700850D01*
X54362400Y54738350D01*
X54361106Y54712008D01*
X54357236Y54685919D01*
X54350828Y54660336D01*
X54341943Y54635504D01*
X54330666Y54611662D01*
X54317107Y54589040D01*
X54301397Y54567857D01*
X54283685Y54548315D01*
X54264143Y54530603D01*
X54242960Y54514893D01*
X54220338Y54501334D01*
X54196496Y54490057D01*
X54171664Y54481172D01*
X54146081Y54474764D01*
X54119992Y54470894D01*
X54093650Y54469600D01*
X53556150Y54469600D01*
X53529808Y54470894D01*
X53503719Y54474764D01*
X53478136Y54481172D01*
X53453304Y54490057D01*
X53429462Y54501334D01*
X53406840Y54514893D01*
X53385657Y54530603D01*
X53366115Y54548315D01*
X53348403Y54567857D01*
X53332693Y54589040D01*
X53319134Y54611662D01*
X53307857Y54635504D01*
X53298972Y54660336D01*
X53292564Y54685919D01*
X53288694Y54712008D01*
X53287400Y54738350D01*
X53287400Y55700850D01*
X53288694Y55727192D01*
X53292564Y55753281D01*
X53298972Y55778864D01*
X53307857Y55803696D01*
X53319134Y55827538D01*
X53332693Y55850160D01*
X53348403Y55871343D01*
X53366115Y55890885D01*
X53385657Y55908597D01*
X53406840Y55924307D01*
X53429462Y55937866D01*
X53453304Y55949143D01*
X53478136Y55958028D01*
X53503719Y55964436D01*
X53529808Y55968306D01*
X53556150Y55969600D01*
X54093650Y55969600D01*
X54119992Y55968306D01*
X54119992Y55968306D01*
G37*
D21*
X53824900Y55219600D03*
D20*
G36*
X55994992Y55968306D02*
G01*
X56021081Y55964436D01*
X56046664Y55958028D01*
X56071496Y55949143D01*
X56095338Y55937866D01*
X56117960Y55924307D01*
X56139143Y55908597D01*
X56158685Y55890885D01*
X56176397Y55871343D01*
X56192107Y55850160D01*
X56205666Y55827538D01*
X56216943Y55803696D01*
X56225828Y55778864D01*
X56232236Y55753281D01*
X56236106Y55727192D01*
X56237400Y55700850D01*
X56237400Y54738350D01*
X56236106Y54712008D01*
X56232236Y54685919D01*
X56225828Y54660336D01*
X56216943Y54635504D01*
X56205666Y54611662D01*
X56192107Y54589040D01*
X56176397Y54567857D01*
X56158685Y54548315D01*
X56139143Y54530603D01*
X56117960Y54514893D01*
X56095338Y54501334D01*
X56071496Y54490057D01*
X56046664Y54481172D01*
X56021081Y54474764D01*
X55994992Y54470894D01*
X55968650Y54469600D01*
X55431150Y54469600D01*
X55404808Y54470894D01*
X55378719Y54474764D01*
X55353136Y54481172D01*
X55328304Y54490057D01*
X55304462Y54501334D01*
X55281840Y54514893D01*
X55260657Y54530603D01*
X55241115Y54548315D01*
X55223403Y54567857D01*
X55207693Y54589040D01*
X55194134Y54611662D01*
X55182857Y54635504D01*
X55173972Y54660336D01*
X55167564Y54685919D01*
X55163694Y54712008D01*
X55162400Y54738350D01*
X55162400Y55700850D01*
X55163694Y55727192D01*
X55167564Y55753281D01*
X55173972Y55778864D01*
X55182857Y55803696D01*
X55194134Y55827538D01*
X55207693Y55850160D01*
X55223403Y55871343D01*
X55241115Y55890885D01*
X55260657Y55908597D01*
X55281840Y55924307D01*
X55304462Y55937866D01*
X55328304Y55949143D01*
X55353136Y55958028D01*
X55378719Y55964436D01*
X55404808Y55968306D01*
X55431150Y55969600D01*
X55968650Y55969600D01*
X55994992Y55968306D01*
X55994992Y55968306D01*
G37*
D21*
X55699900Y55219600D03*
G04 #@! TD*
D20*
G04 #@! TO.C,C2*
G36*
X41614189Y44386699D02*
G01*
X41640278Y44382829D01*
X41665861Y44376421D01*
X41690693Y44367536D01*
X41714535Y44356259D01*
X41737157Y44342700D01*
X41758340Y44326990D01*
X41777882Y44309278D01*
X42157952Y43929208D01*
X42175664Y43909666D01*
X42191374Y43888483D01*
X42204933Y43865861D01*
X42216210Y43842019D01*
X42225095Y43817187D01*
X42231503Y43791604D01*
X42235373Y43765515D01*
X42236667Y43739173D01*
X42235373Y43712831D01*
X42231503Y43686742D01*
X42225095Y43661159D01*
X42216210Y43636327D01*
X42204933Y43612485D01*
X42191374Y43589863D01*
X42175664Y43568680D01*
X42157952Y43549138D01*
X41477362Y42868548D01*
X41457820Y42850836D01*
X41436637Y42835126D01*
X41414015Y42821567D01*
X41390173Y42810290D01*
X41365341Y42801405D01*
X41339758Y42794997D01*
X41313669Y42791127D01*
X41287327Y42789833D01*
X41260985Y42791127D01*
X41234896Y42794997D01*
X41209313Y42801405D01*
X41184481Y42810290D01*
X41160639Y42821567D01*
X41138017Y42835126D01*
X41116834Y42850836D01*
X41097292Y42868548D01*
X40717222Y43248618D01*
X40699510Y43268160D01*
X40683800Y43289343D01*
X40670241Y43311965D01*
X40658964Y43335807D01*
X40650079Y43360639D01*
X40643671Y43386222D01*
X40639801Y43412311D01*
X40638507Y43438653D01*
X40639801Y43464995D01*
X40643671Y43491084D01*
X40650079Y43516667D01*
X40658964Y43541499D01*
X40670241Y43565341D01*
X40683800Y43587963D01*
X40699510Y43609146D01*
X40717222Y43628688D01*
X41397812Y44309278D01*
X41417354Y44326990D01*
X41438537Y44342700D01*
X41461159Y44356259D01*
X41485001Y44367536D01*
X41509833Y44376421D01*
X41535416Y44382829D01*
X41561505Y44386699D01*
X41587847Y44387993D01*
X41614189Y44386699D01*
X41614189Y44386699D01*
G37*
D21*
X41437587Y43588913D03*
D20*
G36*
X42940015Y43060873D02*
G01*
X42966104Y43057003D01*
X42991687Y43050595D01*
X43016519Y43041710D01*
X43040361Y43030433D01*
X43062983Y43016874D01*
X43084166Y43001164D01*
X43103708Y42983452D01*
X43483778Y42603382D01*
X43501490Y42583840D01*
X43517200Y42562657D01*
X43530759Y42540035D01*
X43542036Y42516193D01*
X43550921Y42491361D01*
X43557329Y42465778D01*
X43561199Y42439689D01*
X43562493Y42413347D01*
X43561199Y42387005D01*
X43557329Y42360916D01*
X43550921Y42335333D01*
X43542036Y42310501D01*
X43530759Y42286659D01*
X43517200Y42264037D01*
X43501490Y42242854D01*
X43483778Y42223312D01*
X42803188Y41542722D01*
X42783646Y41525010D01*
X42762463Y41509300D01*
X42739841Y41495741D01*
X42715999Y41484464D01*
X42691167Y41475579D01*
X42665584Y41469171D01*
X42639495Y41465301D01*
X42613153Y41464007D01*
X42586811Y41465301D01*
X42560722Y41469171D01*
X42535139Y41475579D01*
X42510307Y41484464D01*
X42486465Y41495741D01*
X42463843Y41509300D01*
X42442660Y41525010D01*
X42423118Y41542722D01*
X42043048Y41922792D01*
X42025336Y41942334D01*
X42009626Y41963517D01*
X41996067Y41986139D01*
X41984790Y42009981D01*
X41975905Y42034813D01*
X41969497Y42060396D01*
X41965627Y42086485D01*
X41964333Y42112827D01*
X41965627Y42139169D01*
X41969497Y42165258D01*
X41975905Y42190841D01*
X41984790Y42215673D01*
X41996067Y42239515D01*
X42009626Y42262137D01*
X42025336Y42283320D01*
X42043048Y42302862D01*
X42723638Y42983452D01*
X42743180Y43001164D01*
X42764363Y43016874D01*
X42786985Y43030433D01*
X42810827Y43041710D01*
X42835659Y43050595D01*
X42861242Y43057003D01*
X42887331Y43060873D01*
X42913673Y43062167D01*
X42940015Y43060873D01*
X42940015Y43060873D01*
G37*
D21*
X42763413Y42263087D03*
G04 #@! TD*
D20*
G04 #@! TO.C,C1*
G36*
X39444256Y49255960D02*
G01*
X39470345Y49252090D01*
X39495928Y49245682D01*
X39520760Y49236797D01*
X39544602Y49225520D01*
X39567224Y49211961D01*
X39588407Y49196251D01*
X39607949Y49178539D01*
X40288539Y48497949D01*
X40306251Y48478407D01*
X40321961Y48457224D01*
X40335520Y48434602D01*
X40346797Y48410760D01*
X40355682Y48385928D01*
X40362090Y48360345D01*
X40365960Y48334256D01*
X40367254Y48307914D01*
X40365960Y48281572D01*
X40362090Y48255483D01*
X40355682Y48229900D01*
X40346797Y48205068D01*
X40335520Y48181226D01*
X40321961Y48158604D01*
X40306251Y48137421D01*
X40288539Y48117879D01*
X39908469Y47737809D01*
X39888927Y47720097D01*
X39867744Y47704387D01*
X39845122Y47690828D01*
X39821280Y47679551D01*
X39796448Y47670666D01*
X39770865Y47664258D01*
X39744776Y47660388D01*
X39718434Y47659094D01*
X39692092Y47660388D01*
X39666003Y47664258D01*
X39640420Y47670666D01*
X39615588Y47679551D01*
X39591746Y47690828D01*
X39569124Y47704387D01*
X39547941Y47720097D01*
X39528399Y47737809D01*
X38847809Y48418399D01*
X38830097Y48437941D01*
X38814387Y48459124D01*
X38800828Y48481746D01*
X38789551Y48505588D01*
X38780666Y48530420D01*
X38774258Y48556003D01*
X38770388Y48582092D01*
X38769094Y48608434D01*
X38770388Y48634776D01*
X38774258Y48660865D01*
X38780666Y48686448D01*
X38789551Y48711280D01*
X38800828Y48735122D01*
X38814387Y48757744D01*
X38830097Y48778927D01*
X38847809Y48798469D01*
X39227879Y49178539D01*
X39247421Y49196251D01*
X39268604Y49211961D01*
X39291226Y49225520D01*
X39315068Y49236797D01*
X39339900Y49245682D01*
X39365483Y49252090D01*
X39391572Y49255960D01*
X39417914Y49257254D01*
X39444256Y49255960D01*
X39444256Y49255960D01*
G37*
D21*
X39568174Y48458174D03*
D20*
G36*
X40770082Y50581786D02*
G01*
X40796171Y50577916D01*
X40821754Y50571508D01*
X40846586Y50562623D01*
X40870428Y50551346D01*
X40893050Y50537787D01*
X40914233Y50522077D01*
X40933775Y50504365D01*
X41614365Y49823775D01*
X41632077Y49804233D01*
X41647787Y49783050D01*
X41661346Y49760428D01*
X41672623Y49736586D01*
X41681508Y49711754D01*
X41687916Y49686171D01*
X41691786Y49660082D01*
X41693080Y49633740D01*
X41691786Y49607398D01*
X41687916Y49581309D01*
X41681508Y49555726D01*
X41672623Y49530894D01*
X41661346Y49507052D01*
X41647787Y49484430D01*
X41632077Y49463247D01*
X41614365Y49443705D01*
X41234295Y49063635D01*
X41214753Y49045923D01*
X41193570Y49030213D01*
X41170948Y49016654D01*
X41147106Y49005377D01*
X41122274Y48996492D01*
X41096691Y48990084D01*
X41070602Y48986214D01*
X41044260Y48984920D01*
X41017918Y48986214D01*
X40991829Y48990084D01*
X40966246Y48996492D01*
X40941414Y49005377D01*
X40917572Y49016654D01*
X40894950Y49030213D01*
X40873767Y49045923D01*
X40854225Y49063635D01*
X40173635Y49744225D01*
X40155923Y49763767D01*
X40140213Y49784950D01*
X40126654Y49807572D01*
X40115377Y49831414D01*
X40106492Y49856246D01*
X40100084Y49881829D01*
X40096214Y49907918D01*
X40094920Y49934260D01*
X40096214Y49960602D01*
X40100084Y49986691D01*
X40106492Y50012274D01*
X40115377Y50037106D01*
X40126654Y50060948D01*
X40140213Y50083570D01*
X40155923Y50104753D01*
X40173635Y50124295D01*
X40553705Y50504365D01*
X40573247Y50522077D01*
X40594430Y50537787D01*
X40617052Y50551346D01*
X40640894Y50562623D01*
X40665726Y50571508D01*
X40691309Y50577916D01*
X40717398Y50581786D01*
X40743740Y50583080D01*
X40770082Y50581786D01*
X40770082Y50581786D01*
G37*
D21*
X40894000Y49784000D03*
G04 #@! TD*
D26*
G04 #@! TO.C,U1*
X44347464Y43451118D03*
D20*
G36*
X44683340Y44246613D02*
G01*
X45142959Y43786994D01*
X44011588Y42655623D01*
X43551969Y43115242D01*
X44683340Y44246613D01*
X44683340Y44246613D01*
G37*
D26*
X44913150Y42885433D03*
D20*
G36*
X45249026Y43680928D02*
G01*
X45708645Y43221309D01*
X44577274Y42089938D01*
X44117655Y42549557D01*
X45249026Y43680928D01*
X45249026Y43680928D01*
G37*
D26*
X45478835Y42319748D03*
D20*
G36*
X45814711Y43115243D02*
G01*
X46274330Y42655624D01*
X45142959Y41524253D01*
X44683340Y41983872D01*
X45814711Y43115243D01*
X45814711Y43115243D01*
G37*
D26*
X46044520Y41754062D03*
D20*
G36*
X46380396Y42549557D02*
G01*
X46840015Y42089938D01*
X45708644Y40958567D01*
X45249025Y41418186D01*
X46380396Y42549557D01*
X46380396Y42549557D01*
G37*
D26*
X46610206Y41188377D03*
D20*
G36*
X46946082Y41983872D02*
G01*
X47405701Y41524253D01*
X46274330Y40392882D01*
X45814711Y40852501D01*
X46946082Y41983872D01*
X46946082Y41983872D01*
G37*
D26*
X47175891Y40622691D03*
D20*
G36*
X47511767Y41418186D02*
G01*
X47971386Y40958567D01*
X46840015Y39827196D01*
X46380396Y40286815D01*
X47511767Y41418186D01*
X47511767Y41418186D01*
G37*
D26*
X47741577Y40057006D03*
D20*
G36*
X48077453Y40852501D02*
G01*
X48537072Y40392882D01*
X47405701Y39261511D01*
X46946082Y39721130D01*
X48077453Y40852501D01*
X48077453Y40852501D01*
G37*
D26*
X48307262Y39491320D03*
D20*
G36*
X48643138Y40286815D02*
G01*
X49102757Y39827196D01*
X47971386Y38695825D01*
X47511767Y39155444D01*
X48643138Y40286815D01*
X48643138Y40286815D01*
G37*
D26*
X48872948Y38925635D03*
D20*
G36*
X49208824Y39721130D02*
G01*
X49668443Y39261511D01*
X48537072Y38130140D01*
X48077453Y38589759D01*
X49208824Y39721130D01*
X49208824Y39721130D01*
G37*
D26*
X49438633Y38359950D03*
D20*
G36*
X49774509Y39155445D02*
G01*
X50234128Y38695826D01*
X49102757Y37564455D01*
X48643138Y38024074D01*
X49774509Y39155445D01*
X49774509Y39155445D01*
G37*
D26*
X50004318Y37794264D03*
D20*
G36*
X50340194Y38589759D02*
G01*
X50799813Y38130140D01*
X49668442Y36998769D01*
X49208823Y37458388D01*
X50340194Y38589759D01*
X50340194Y38589759D01*
G37*
D26*
X52408482Y37794264D03*
D20*
G36*
X51612987Y38130140D02*
G01*
X52072606Y38589759D01*
X53203977Y37458388D01*
X52744358Y36998769D01*
X51612987Y38130140D01*
X51612987Y38130140D01*
G37*
D26*
X52974167Y38359950D03*
D20*
G36*
X52178672Y38695826D02*
G01*
X52638291Y39155445D01*
X53769662Y38024074D01*
X53310043Y37564455D01*
X52178672Y38695826D01*
X52178672Y38695826D01*
G37*
D26*
X53539852Y38925635D03*
D20*
G36*
X52744357Y39261511D02*
G01*
X53203976Y39721130D01*
X54335347Y38589759D01*
X53875728Y38130140D01*
X52744357Y39261511D01*
X52744357Y39261511D01*
G37*
D26*
X54105538Y39491320D03*
D20*
G36*
X53310043Y39827196D02*
G01*
X53769662Y40286815D01*
X54901033Y39155444D01*
X54441414Y38695825D01*
X53310043Y39827196D01*
X53310043Y39827196D01*
G37*
D26*
X54671223Y40057006D03*
D20*
G36*
X53875728Y40392882D02*
G01*
X54335347Y40852501D01*
X55466718Y39721130D01*
X55007099Y39261511D01*
X53875728Y40392882D01*
X53875728Y40392882D01*
G37*
D26*
X55236909Y40622691D03*
D20*
G36*
X54441414Y40958567D02*
G01*
X54901033Y41418186D01*
X56032404Y40286815D01*
X55572785Y39827196D01*
X54441414Y40958567D01*
X54441414Y40958567D01*
G37*
D26*
X55802594Y41188377D03*
D20*
G36*
X55007099Y41524253D02*
G01*
X55466718Y41983872D01*
X56598089Y40852501D01*
X56138470Y40392882D01*
X55007099Y41524253D01*
X55007099Y41524253D01*
G37*
D26*
X56368280Y41754062D03*
D20*
G36*
X55572785Y42089938D02*
G01*
X56032404Y42549557D01*
X57163775Y41418186D01*
X56704156Y40958567D01*
X55572785Y42089938D01*
X55572785Y42089938D01*
G37*
D26*
X56933965Y42319748D03*
D20*
G36*
X56138470Y42655624D02*
G01*
X56598089Y43115243D01*
X57729460Y41983872D01*
X57269841Y41524253D01*
X56138470Y42655624D01*
X56138470Y42655624D01*
G37*
D26*
X57499650Y42885433D03*
D20*
G36*
X56704155Y43221309D02*
G01*
X57163774Y43680928D01*
X58295145Y42549557D01*
X57835526Y42089938D01*
X56704155Y43221309D01*
X56704155Y43221309D01*
G37*
D26*
X58065336Y43451118D03*
D20*
G36*
X57269841Y43786994D02*
G01*
X57729460Y44246613D01*
X58860831Y43115242D01*
X58401212Y42655623D01*
X57269841Y43786994D01*
X57269841Y43786994D01*
G37*
D26*
X58065336Y45855282D03*
D20*
G36*
X58401212Y46650777D02*
G01*
X58860831Y46191158D01*
X57729460Y45059787D01*
X57269841Y45519406D01*
X58401212Y46650777D01*
X58401212Y46650777D01*
G37*
D26*
X57499650Y46420967D03*
D20*
G36*
X57835526Y47216462D02*
G01*
X58295145Y46756843D01*
X57163774Y45625472D01*
X56704155Y46085091D01*
X57835526Y47216462D01*
X57835526Y47216462D01*
G37*
D26*
X56933965Y46986652D03*
D20*
G36*
X57269841Y47782147D02*
G01*
X57729460Y47322528D01*
X56598089Y46191157D01*
X56138470Y46650776D01*
X57269841Y47782147D01*
X57269841Y47782147D01*
G37*
D26*
X56368280Y47552338D03*
D20*
G36*
X56704156Y48347833D02*
G01*
X57163775Y47888214D01*
X56032404Y46756843D01*
X55572785Y47216462D01*
X56704156Y48347833D01*
X56704156Y48347833D01*
G37*
D26*
X55802594Y48118023D03*
D20*
G36*
X56138470Y48913518D02*
G01*
X56598089Y48453899D01*
X55466718Y47322528D01*
X55007099Y47782147D01*
X56138470Y48913518D01*
X56138470Y48913518D01*
G37*
D26*
X55236909Y48683709D03*
D20*
G36*
X55572785Y49479204D02*
G01*
X56032404Y49019585D01*
X54901033Y47888214D01*
X54441414Y48347833D01*
X55572785Y49479204D01*
X55572785Y49479204D01*
G37*
D26*
X54671223Y49249394D03*
D20*
G36*
X55007099Y50044889D02*
G01*
X55466718Y49585270D01*
X54335347Y48453899D01*
X53875728Y48913518D01*
X55007099Y50044889D01*
X55007099Y50044889D01*
G37*
D26*
X54105538Y49815080D03*
D20*
G36*
X54441414Y50610575D02*
G01*
X54901033Y50150956D01*
X53769662Y49019585D01*
X53310043Y49479204D01*
X54441414Y50610575D01*
X54441414Y50610575D01*
G37*
D26*
X53539852Y50380765D03*
D20*
G36*
X53875728Y51176260D02*
G01*
X54335347Y50716641D01*
X53203976Y49585270D01*
X52744357Y50044889D01*
X53875728Y51176260D01*
X53875728Y51176260D01*
G37*
D26*
X52974167Y50946450D03*
D20*
G36*
X53310043Y51741945D02*
G01*
X53769662Y51282326D01*
X52638291Y50150955D01*
X52178672Y50610574D01*
X53310043Y51741945D01*
X53310043Y51741945D01*
G37*
D26*
X52408482Y51512136D03*
D20*
G36*
X52744358Y52307631D02*
G01*
X53203977Y51848012D01*
X52072606Y50716641D01*
X51612987Y51176260D01*
X52744358Y52307631D01*
X52744358Y52307631D01*
G37*
D26*
X50004318Y51512136D03*
D20*
G36*
X49208823Y51848012D02*
G01*
X49668442Y52307631D01*
X50799813Y51176260D01*
X50340194Y50716641D01*
X49208823Y51848012D01*
X49208823Y51848012D01*
G37*
D26*
X49438633Y50946450D03*
D20*
G36*
X48643138Y51282326D02*
G01*
X49102757Y51741945D01*
X50234128Y50610574D01*
X49774509Y50150955D01*
X48643138Y51282326D01*
X48643138Y51282326D01*
G37*
D26*
X48872948Y50380765D03*
D20*
G36*
X48077453Y50716641D02*
G01*
X48537072Y51176260D01*
X49668443Y50044889D01*
X49208824Y49585270D01*
X48077453Y50716641D01*
X48077453Y50716641D01*
G37*
D26*
X48307262Y49815080D03*
D20*
G36*
X47511767Y50150956D02*
G01*
X47971386Y50610575D01*
X49102757Y49479204D01*
X48643138Y49019585D01*
X47511767Y50150956D01*
X47511767Y50150956D01*
G37*
D26*
X47741577Y49249394D03*
D20*
G36*
X46946082Y49585270D02*
G01*
X47405701Y50044889D01*
X48537072Y48913518D01*
X48077453Y48453899D01*
X46946082Y49585270D01*
X46946082Y49585270D01*
G37*
D26*
X47175891Y48683709D03*
D20*
G36*
X46380396Y49019585D02*
G01*
X46840015Y49479204D01*
X47971386Y48347833D01*
X47511767Y47888214D01*
X46380396Y49019585D01*
X46380396Y49019585D01*
G37*
D26*
X46610206Y48118023D03*
D20*
G36*
X45814711Y48453899D02*
G01*
X46274330Y48913518D01*
X47405701Y47782147D01*
X46946082Y47322528D01*
X45814711Y48453899D01*
X45814711Y48453899D01*
G37*
D26*
X46044520Y47552338D03*
D20*
G36*
X45249025Y47888214D02*
G01*
X45708644Y48347833D01*
X46840015Y47216462D01*
X46380396Y46756843D01*
X45249025Y47888214D01*
X45249025Y47888214D01*
G37*
D26*
X45478835Y46986652D03*
D20*
G36*
X44683340Y47322528D02*
G01*
X45142959Y47782147D01*
X46274330Y46650776D01*
X45814711Y46191157D01*
X44683340Y47322528D01*
X44683340Y47322528D01*
G37*
D26*
X44913150Y46420967D03*
D20*
G36*
X44117655Y46756843D02*
G01*
X44577274Y47216462D01*
X45708645Y46085091D01*
X45249026Y45625472D01*
X44117655Y46756843D01*
X44117655Y46756843D01*
G37*
D26*
X44347464Y45855282D03*
D20*
G36*
X43551969Y46191158D02*
G01*
X44011588Y46650777D01*
X45142959Y45519406D01*
X44683340Y45059787D01*
X43551969Y46191158D01*
X43551969Y46191158D01*
G37*
G04 #@! TD*
D14*
G04 #@! TO.C,MX103*
X330454000Y87630000D03*
D12*
X327914000Y82550000D03*
D14*
X324104000Y85090000D03*
D13*
X322834000Y82550000D03*
X332994000Y82550000D03*
G04 #@! TD*
D14*
G04 #@! TO.C,MX102*
X320883779Y87636296D03*
D12*
X318343779Y82556296D03*
D14*
X314533779Y85096296D03*
D13*
X313263779Y82556296D03*
X323423779Y82556296D03*
D15*
X306437529Y89541296D03*
X330250029Y89541296D03*
D12*
X306437529Y74301296D03*
X330250029Y74301296D03*
G04 #@! TD*
D11*
G04 #@! TO.C,MX100*
X325628000Y11430000D03*
D12*
X323088000Y6350000D03*
D11*
X319278000Y8890000D03*
D13*
X318008000Y6350000D03*
X328168000Y6350000D03*
G04 #@! TD*
D14*
G04 #@! TO.C,MX99*
X330454000Y30480000D03*
D12*
X327914000Y25400000D03*
D14*
X324104000Y27940000D03*
D13*
X322834000Y25400000D03*
X332994000Y25400000D03*
G04 #@! TD*
D14*
G04 #@! TO.C,MX96*
X311404000Y87630000D03*
D12*
X308864000Y82550000D03*
D14*
X305054000Y85090000D03*
D13*
X303784000Y82550000D03*
X313944000Y82550000D03*
G04 #@! TD*
G04 #@! TO.C,MX95*
X330581000Y6350000D03*
X320421000Y6350000D03*
D11*
X321691000Y8890000D03*
D12*
X325501000Y6350000D03*
D11*
X328041000Y11430000D03*
G04 #@! TD*
G04 #@! TO.C,MX94*
X330454000Y11430000D03*
D12*
X327914000Y6350000D03*
D11*
X324104000Y8890000D03*
D13*
X322834000Y6350000D03*
X332994000Y6350000D03*
G04 #@! TD*
D11*
G04 #@! TO.C,MX92*
X311404000Y30480000D03*
D12*
X308864000Y25400000D03*
D11*
X305054000Y27940000D03*
D13*
X303784000Y25400000D03*
X313944000Y25400000D03*
G04 #@! TD*
D14*
G04 #@! TO.C,MX90*
X301830998Y68594483D03*
D12*
X299290998Y63514483D03*
D14*
X295480998Y66054483D03*
D13*
X294210998Y63514483D03*
X304370998Y63514483D03*
G04 #@! TD*
D14*
G04 #@! TO.C,MX89*
X292354000Y87630000D03*
D12*
X289814000Y82550000D03*
D14*
X286004000Y85090000D03*
D13*
X284734000Y82550000D03*
X294894000Y82550000D03*
G04 #@! TD*
D11*
G04 #@! TO.C,MX87*
X304292000Y30480000D03*
D12*
X301752000Y25400000D03*
D14*
X297942000Y27940000D03*
D13*
X296672000Y25400000D03*
X306832000Y25400000D03*
G04 #@! TD*
D14*
G04 #@! TO.C,MX86*
X292354000Y11430000D03*
D12*
X289814000Y6350000D03*
D14*
X286004000Y8890000D03*
D13*
X284734000Y6350000D03*
X294894000Y6350000D03*
G04 #@! TD*
D12*
G04 #@! TO.C,MX85*
X304133250Y17145000D03*
X280320750Y17145000D03*
D15*
X304133250Y32385000D03*
X280320750Y32385000D03*
D13*
X297307000Y25400000D03*
X287147000Y25400000D03*
D11*
X288417000Y27940000D03*
D12*
X292227000Y25400000D03*
D11*
X294767000Y30480000D03*
G04 #@! TD*
D14*
G04 #@! TO.C,MX84*
X287528000Y49530000D03*
D12*
X284988000Y44450000D03*
D14*
X281178000Y46990000D03*
D13*
X279908000Y44450000D03*
X290068000Y44450000D03*
G04 #@! TD*
D14*
G04 #@! TO.C,MX83*
X282829000Y68580000D03*
D12*
X280289000Y63500000D03*
D14*
X276479000Y66040000D03*
D13*
X275209000Y63500000D03*
X285369000Y63500000D03*
G04 #@! TD*
D14*
G04 #@! TO.C,MX82*
X273304000Y87630000D03*
D12*
X270764000Y82550000D03*
D14*
X266954000Y85090000D03*
D13*
X265684000Y82550000D03*
X275844000Y82550000D03*
G04 #@! TD*
D11*
G04 #@! TO.C,MX80*
X278003000Y11430000D03*
D12*
X275463000Y6350000D03*
D11*
X271653000Y8890000D03*
D13*
X270383000Y6350000D03*
X280543000Y6350000D03*
G04 #@! TD*
D14*
G04 #@! TO.C,MX79*
X278003000Y30480000D03*
D12*
X275463000Y25400000D03*
D14*
X271653000Y27940000D03*
D13*
X270383000Y25400000D03*
X280543000Y25400000D03*
G04 #@! TD*
D14*
G04 #@! TO.C,MX78*
X268478000Y49530000D03*
D12*
X265938000Y44450000D03*
D14*
X262128000Y46990000D03*
D13*
X260858000Y44450000D03*
X271018000Y44450000D03*
G04 #@! TD*
D14*
G04 #@! TO.C,MX77*
X263779000Y68580000D03*
D12*
X261239000Y63500000D03*
D14*
X257429000Y66040000D03*
D13*
X256159000Y63500000D03*
X266319000Y63500000D03*
G04 #@! TD*
D14*
G04 #@! TO.C,MX76*
X254254000Y87630000D03*
D12*
X251714000Y82550000D03*
D14*
X247904000Y85090000D03*
D13*
X246634000Y82550000D03*
X256794000Y82550000D03*
G04 #@! TD*
D11*
G04 #@! TO.C,MX75*
X256540000Y11430000D03*
D12*
X254000000Y6350000D03*
D11*
X250190000Y8890000D03*
D13*
X248920000Y6350000D03*
X259080000Y6350000D03*
G04 #@! TD*
D14*
G04 #@! TO.C,MX74*
X258953000Y30480000D03*
D12*
X256413000Y25400000D03*
D14*
X252603000Y27940000D03*
D13*
X251333000Y25400000D03*
X261493000Y25400000D03*
G04 #@! TD*
D14*
G04 #@! TO.C,MX73*
X249421586Y49561515D03*
D12*
X246881586Y44481515D03*
D14*
X243071586Y47021515D03*
D13*
X241801586Y44481515D03*
X251961586Y44481515D03*
G04 #@! TD*
D14*
G04 #@! TO.C,MX72*
X244729000Y68580000D03*
D12*
X242189000Y63500000D03*
D14*
X238379000Y66040000D03*
D13*
X237109000Y63500000D03*
X247269000Y63500000D03*
G04 #@! TD*
D14*
G04 #@! TO.C,MX71*
X235204000Y87630000D03*
D12*
X232664000Y82550000D03*
D14*
X228854000Y85090000D03*
D13*
X227584000Y82550000D03*
X237744000Y82550000D03*
G04 #@! TD*
D14*
G04 #@! TO.C,MX69*
X239903000Y30480000D03*
D12*
X237363000Y25400000D03*
D14*
X233553000Y27940000D03*
D13*
X232283000Y25400000D03*
X242443000Y25400000D03*
G04 #@! TD*
D14*
G04 #@! TO.C,MX67*
X225679000Y68580000D03*
D12*
X223139000Y63500000D03*
D14*
X219329000Y66040000D03*
D13*
X218059000Y63500000D03*
X228219000Y63500000D03*
G04 #@! TD*
D14*
G04 #@! TO.C,MX66*
X216154000Y87630000D03*
D12*
X213614000Y82550000D03*
D14*
X209804000Y85090000D03*
D13*
X208534000Y82550000D03*
X218694000Y82550000D03*
G04 #@! TD*
D14*
G04 #@! TO.C,MX65*
X220853000Y30480000D03*
D12*
X218313000Y25400000D03*
D14*
X214503000Y27940000D03*
D13*
X213233000Y25400000D03*
X223393000Y25400000D03*
G04 #@! TD*
G04 #@! TO.C,MX64*
X213868000Y44450000D03*
X203708000Y44450000D03*
D14*
X204978000Y46990000D03*
D12*
X208788000Y44450000D03*
D14*
X211328000Y49530000D03*
G04 #@! TD*
G04 #@! TO.C,MX63*
X206629000Y68580000D03*
D12*
X204089000Y63500000D03*
D14*
X200279000Y66040000D03*
D13*
X199009000Y63500000D03*
X209169000Y63500000D03*
G04 #@! TD*
D14*
G04 #@! TO.C,MX62*
X197104000Y87630000D03*
D12*
X194564000Y82550000D03*
D14*
X190754000Y85090000D03*
D13*
X189484000Y82550000D03*
X199644000Y82550000D03*
G04 #@! TD*
D14*
G04 #@! TO.C,MX59*
X201803000Y30480000D03*
D12*
X199263000Y25400000D03*
D14*
X195453000Y27940000D03*
D13*
X194183000Y25400000D03*
X204343000Y25400000D03*
G04 #@! TD*
D14*
G04 #@! TO.C,MX58*
X192278000Y49530000D03*
D12*
X189738000Y44450000D03*
D14*
X185928000Y46990000D03*
D13*
X184658000Y44450000D03*
X194818000Y44450000D03*
G04 #@! TD*
D14*
G04 #@! TO.C,MX57*
X187579000Y68580000D03*
D12*
X185039000Y63500000D03*
D14*
X181229000Y66040000D03*
D13*
X179959000Y63500000D03*
X190119000Y63500000D03*
G04 #@! TD*
D14*
G04 #@! TO.C,MX55*
X182753000Y30480000D03*
D12*
X180213000Y25400000D03*
D14*
X176403000Y27940000D03*
D13*
X175133000Y25400000D03*
X185293000Y25400000D03*
G04 #@! TD*
D14*
G04 #@! TO.C,MX54*
X173228000Y49530000D03*
D12*
X170688000Y44450000D03*
D14*
X166878000Y46990000D03*
D13*
X165608000Y44450000D03*
X175768000Y44450000D03*
G04 #@! TD*
D14*
G04 #@! TO.C,MX53*
X168529000Y68580000D03*
D12*
X165989000Y63500000D03*
D14*
X162179000Y66040000D03*
D13*
X160909000Y63500000D03*
X171069000Y63500000D03*
G04 #@! TD*
D14*
G04 #@! TO.C,MX52*
X159004000Y87630000D03*
D12*
X156464000Y82550000D03*
D14*
X152654000Y85090000D03*
D13*
X151384000Y82550000D03*
X161544000Y82550000D03*
G04 #@! TD*
D14*
G04 #@! TO.C,MX50*
X163703000Y30480000D03*
D12*
X161163000Y25400000D03*
D14*
X157353000Y27940000D03*
D13*
X156083000Y25400000D03*
X166243000Y25400000D03*
G04 #@! TD*
D14*
G04 #@! TO.C,MX49*
X154178000Y49530000D03*
D12*
X151638000Y44450000D03*
D14*
X147828000Y46990000D03*
D13*
X146558000Y44450000D03*
X156718000Y44450000D03*
G04 #@! TD*
D14*
G04 #@! TO.C,MX48*
X149479000Y68580000D03*
D12*
X146939000Y63500000D03*
D14*
X143129000Y66040000D03*
D13*
X141859000Y63500000D03*
X152019000Y63500000D03*
G04 #@! TD*
D14*
G04 #@! TO.C,MX47*
X139954000Y87630000D03*
D12*
X137414000Y82550000D03*
D14*
X133604000Y85090000D03*
D13*
X132334000Y82550000D03*
X142494000Y82550000D03*
G04 #@! TD*
D14*
G04 #@! TO.C,MX46*
X144653000Y30480000D03*
D12*
X142113000Y25400000D03*
D14*
X138303000Y27940000D03*
D13*
X137033000Y25400000D03*
X147193000Y25400000D03*
G04 #@! TD*
D14*
G04 #@! TO.C,MX45*
X135128000Y49530000D03*
D12*
X132588000Y44450000D03*
D14*
X128778000Y46990000D03*
D13*
X127508000Y44450000D03*
X137668000Y44450000D03*
G04 #@! TD*
D14*
G04 #@! TO.C,MX44*
X130429000Y68580000D03*
D12*
X127889000Y63500000D03*
D14*
X124079000Y66040000D03*
D13*
X122809000Y63500000D03*
X132969000Y63500000D03*
G04 #@! TD*
D14*
G04 #@! TO.C,MX43*
X120904000Y87630000D03*
D12*
X118364000Y82550000D03*
D14*
X114554000Y85090000D03*
D13*
X113284000Y82550000D03*
X123444000Y82550000D03*
G04 #@! TD*
D11*
G04 #@! TO.C,MX42*
X116078000Y11430000D03*
D12*
X113538000Y6350000D03*
D11*
X109728000Y8890000D03*
D13*
X108458000Y6350000D03*
X118618000Y6350000D03*
G04 #@! TD*
D14*
G04 #@! TO.C,MX41*
X125603000Y30480000D03*
D12*
X123063000Y25400000D03*
D14*
X119253000Y27940000D03*
D13*
X117983000Y25400000D03*
X128143000Y25400000D03*
G04 #@! TD*
D14*
G04 #@! TO.C,MX40*
X116078000Y49530000D03*
D12*
X113538000Y44450000D03*
D14*
X109728000Y46990000D03*
D13*
X108458000Y44450000D03*
X118618000Y44450000D03*
G04 #@! TD*
D14*
G04 #@! TO.C,MX39*
X111379000Y68580000D03*
D12*
X108839000Y63500000D03*
D14*
X105029000Y66040000D03*
D13*
X103759000Y63500000D03*
X113919000Y63500000D03*
G04 #@! TD*
D11*
G04 #@! TO.C,MX37*
X113665000Y11430000D03*
D12*
X111125000Y6350000D03*
D11*
X107315000Y8890000D03*
D13*
X106045000Y6350000D03*
X116205000Y6350000D03*
G04 #@! TD*
D11*
G04 #@! TO.C,MX36*
X92202000Y11430000D03*
D12*
X89662000Y6350000D03*
D11*
X85852000Y8890000D03*
D13*
X84582000Y6350000D03*
X94742000Y6350000D03*
G04 #@! TD*
D14*
G04 #@! TO.C,MX35*
X106553000Y30480000D03*
D12*
X104013000Y25400000D03*
D14*
X100203000Y27940000D03*
D13*
X98933000Y25400000D03*
X109093000Y25400000D03*
G04 #@! TD*
D14*
G04 #@! TO.C,MX34*
X97028000Y49530000D03*
D12*
X94488000Y44450000D03*
D14*
X90678000Y46990000D03*
D13*
X89408000Y44450000D03*
X99568000Y44450000D03*
G04 #@! TD*
D14*
G04 #@! TO.C,MX33*
X92329000Y68580000D03*
D12*
X89789000Y63500000D03*
D14*
X85979000Y66040000D03*
D13*
X84709000Y63500000D03*
X94869000Y63500000D03*
G04 #@! TD*
D14*
G04 #@! TO.C,MX32*
X82747937Y87612005D03*
D12*
X80207937Y82532005D03*
D14*
X76397937Y85072005D03*
D13*
X75127937Y82532005D03*
X85287937Y82532005D03*
G04 #@! TD*
D11*
G04 #@! TO.C,MX31*
X89789000Y11430000D03*
D12*
X87249000Y6350000D03*
D11*
X83439000Y8890000D03*
D13*
X82169000Y6350000D03*
X92329000Y6350000D03*
G04 #@! TD*
D14*
G04 #@! TO.C,MX30*
X75565000Y30480000D03*
D12*
X73025000Y25400000D03*
D14*
X69215000Y27940000D03*
D13*
X67945000Y25400000D03*
X78105000Y25400000D03*
D15*
X61118750Y32385000D03*
X84931250Y32385000D03*
D12*
X61118750Y17145000D03*
X84931250Y17145000D03*
G04 #@! TD*
D11*
G04 #@! TO.C,MX29*
X68453000Y11430000D03*
D12*
X65913000Y6350000D03*
D11*
X62103000Y8890000D03*
D13*
X60833000Y6350000D03*
X70993000Y6350000D03*
G04 #@! TD*
D14*
G04 #@! TO.C,MX27*
X70828579Y49527006D03*
D12*
X68288579Y44447006D03*
D14*
X64478579Y46987006D03*
D13*
X63208579Y44447006D03*
X73368579Y44447006D03*
G04 #@! TD*
D14*
G04 #@! TO.C,MX26*
X68453000Y68580000D03*
D12*
X65913000Y63500000D03*
D14*
X62103000Y66040000D03*
D13*
X60833000Y63500000D03*
X70993000Y63500000D03*
G04 #@! TD*
D14*
G04 #@! TO.C,MX25*
X63702065Y87630000D03*
D12*
X61162065Y82550000D03*
D14*
X57352065Y85090000D03*
D13*
X56082065Y82550000D03*
X66242065Y82550000D03*
G04 #@! TD*
D14*
G04 #@! TO.C,MX23*
X29591000Y11430000D03*
D12*
X27051000Y6350000D03*
D14*
X23241000Y8890000D03*
D13*
X21971000Y6350000D03*
X32131000Y6350000D03*
G04 #@! TD*
D14*
G04 #@! TO.C,MX22*
X29591000Y30480000D03*
D12*
X27051000Y25400000D03*
D14*
X23241000Y27940000D03*
D13*
X21971000Y25400000D03*
X32131000Y25400000D03*
G04 #@! TD*
D14*
G04 #@! TO.C,MX21*
X29591000Y49530000D03*
D12*
X27051000Y44450000D03*
D14*
X23241000Y46990000D03*
D13*
X21971000Y44450000D03*
X32131000Y44450000D03*
G04 #@! TD*
D14*
G04 #@! TO.C,MX20*
X29591000Y68580000D03*
D12*
X27051000Y63500000D03*
D14*
X23241000Y66040000D03*
D13*
X21971000Y63500000D03*
X32131000Y63500000D03*
G04 #@! TD*
D14*
G04 #@! TO.C,MX19*
X29591000Y87630000D03*
D12*
X27051000Y82550000D03*
D14*
X23241000Y85090000D03*
D13*
X21971000Y82550000D03*
X32131000Y82550000D03*
G04 #@! TD*
D14*
G04 #@! TO.C,MX18*
X10541000Y11430000D03*
D12*
X8001000Y6350000D03*
D14*
X4191000Y8890000D03*
D13*
X2921000Y6350000D03*
X13081000Y6350000D03*
G04 #@! TD*
D14*
G04 #@! TO.C,MX17*
X10541000Y30480000D03*
D12*
X8001000Y25400000D03*
D14*
X4191000Y27940000D03*
D13*
X2921000Y25400000D03*
X13081000Y25400000D03*
G04 #@! TD*
D14*
G04 #@! TO.C,MX16*
X10541000Y49530000D03*
D12*
X8001000Y44450000D03*
D14*
X4191000Y46990000D03*
D13*
X2921000Y44450000D03*
X13081000Y44450000D03*
G04 #@! TD*
D14*
G04 #@! TO.C,MX15*
X10541000Y68580000D03*
D12*
X8001000Y63500000D03*
D14*
X4191000Y66040000D03*
D13*
X2921000Y63500000D03*
X13081000Y63500000D03*
G04 #@! TD*
D14*
G04 #@! TO.C,MX14*
X10541000Y87630000D03*
D12*
X8001000Y82550000D03*
D14*
X4191000Y85090000D03*
D13*
X2921000Y82550000D03*
X13081000Y82550000D03*
G04 #@! TD*
D14*
G04 #@! TO.C,MX11*
X-8509000Y30480000D03*
D12*
X-11049000Y25400000D03*
D14*
X-14859000Y27940000D03*
D13*
X-16129000Y25400000D03*
X-5969000Y25400000D03*
G04 #@! TD*
D14*
G04 #@! TO.C,MX10*
X-8509000Y49530000D03*
D12*
X-11049000Y44450000D03*
D14*
X-14859000Y46990000D03*
D13*
X-16129000Y44450000D03*
X-5969000Y44450000D03*
G04 #@! TD*
D14*
G04 #@! TO.C,MX9*
X-8509000Y68580000D03*
D12*
X-11049000Y63500000D03*
D14*
X-14859000Y66040000D03*
D13*
X-16129000Y63500000D03*
X-5969000Y63500000D03*
G04 #@! TD*
D14*
G04 #@! TO.C,MX8*
X-8509000Y87630000D03*
D12*
X-11049000Y82550000D03*
D14*
X-14859000Y85090000D03*
D13*
X-16129000Y82550000D03*
X-5969000Y82550000D03*
G04 #@! TD*
D14*
G04 #@! TO.C,MX7*
X-27559000Y30480000D03*
D12*
X-30099000Y25400000D03*
D14*
X-33909000Y27940000D03*
D13*
X-35179000Y25400000D03*
X-25019000Y25400000D03*
G04 #@! TD*
D14*
G04 #@! TO.C,MX6*
X-27559000Y11430000D03*
D12*
X-30099000Y6350000D03*
D14*
X-33909000Y8890000D03*
D13*
X-35179000Y6350000D03*
X-25019000Y6350000D03*
G04 #@! TD*
D14*
G04 #@! TO.C,MX5*
X-27559000Y68580000D03*
D12*
X-30099000Y63500000D03*
D14*
X-33909000Y66040000D03*
D13*
X-35179000Y63500000D03*
X-25019000Y63500000D03*
G04 #@! TD*
D14*
G04 #@! TO.C,MX4*
X-27559000Y49530000D03*
D12*
X-30099000Y44450000D03*
D14*
X-33909000Y46990000D03*
D13*
X-35179000Y44450000D03*
X-25019000Y44450000D03*
G04 #@! TD*
D14*
G04 #@! TO.C,MX3*
X-27559000Y87630000D03*
D12*
X-30099000Y82550000D03*
D14*
X-33909000Y85090000D03*
D13*
X-35179000Y82550000D03*
X-25019000Y82550000D03*
G04 #@! TD*
D14*
G04 #@! TO.C,MX2*
X-35179000Y18415000D03*
D12*
X-30099000Y15875000D03*
D14*
X-32639000Y12065000D03*
D13*
X-30099000Y10795000D03*
X-30099000Y20955000D03*
D15*
X-37084000Y3968750D03*
X-37084000Y27781250D03*
D12*
X-21844000Y3968750D03*
X-21844000Y27781250D03*
G04 #@! TD*
D14*
G04 #@! TO.C,MX1*
X-35179000Y56515000D03*
D12*
X-30099000Y53975000D03*
D14*
X-32639000Y50165000D03*
D13*
X-30099000Y48895000D03*
X-30099000Y59055000D03*
D15*
X-37084000Y42068750D03*
X-37084000Y65881250D03*
D12*
X-21844000Y42068750D03*
X-21844000Y65881250D03*
G04 #@! TD*
D10*
G04 #@! TO.C,D88*
X333769374Y88145672D03*
X333769374Y91445672D03*
G04 #@! TD*
G04 #@! TO.C,D87*
X315976000Y51436000D03*
X315976000Y54736000D03*
G04 #@! TD*
G04 #@! TO.C,D86*
X333084946Y11890132D03*
X333084946Y15190132D03*
G04 #@! TD*
G04 #@! TO.C,D85*
X323596000Y30354000D03*
X323596000Y33654000D03*
G04 #@! TD*
G04 #@! TO.C,D84*
X322072000Y68454000D03*
X322072000Y71754000D03*
G04 #@! TD*
G04 #@! TO.C,D83*
X301244000Y86360000D03*
X301244000Y89660000D03*
G04 #@! TD*
G04 #@! TO.C,D82*
X314071000Y12193000D03*
X314071000Y15493000D03*
G04 #@! TD*
G04 #@! TO.C,D78*
X298704000Y67056000D03*
X298704000Y70356000D03*
G04 #@! TD*
G04 #@! TO.C,D77*
X295072321Y88091021D03*
X295072321Y91391021D03*
G04 #@! TD*
G04 #@! TO.C,D76*
X291592000Y31878000D03*
X291592000Y35178000D03*
G04 #@! TD*
G04 #@! TO.C,D75*
X298958000Y10797000D03*
X298958000Y14097000D03*
G04 #@! TD*
G04 #@! TO.C,D74*
X290068000Y49658000D03*
X290068000Y52958000D03*
G04 #@! TD*
G04 #@! TO.C,D73*
X279400000Y68454000D03*
X279400000Y71754000D03*
G04 #@! TD*
G04 #@! TO.C,D72*
X275844000Y86234000D03*
X275844000Y89534000D03*
G04 #@! TD*
G04 #@! TO.C,D71*
X245110000Y11813000D03*
X245110000Y15113000D03*
G04 #@! TD*
G04 #@! TO.C,D70*
X274320000Y33276000D03*
X274320000Y36576000D03*
G04 #@! TD*
G04 #@! TO.C,D69*
X270648335Y51469629D03*
X270648335Y54769629D03*
G04 #@! TD*
G04 #@! TO.C,D68*
X266700000Y67056000D03*
X266700000Y70356000D03*
G04 #@! TD*
G04 #@! TO.C,D67*
X256855982Y88041485D03*
X256855982Y91341485D03*
G04 #@! TD*
G04 #@! TO.C,D66*
X261620000Y31878000D03*
X261620000Y35178000D03*
G04 #@! TD*
G04 #@! TO.C,D64*
X247904000Y68454000D03*
X247904000Y71754000D03*
G04 #@! TD*
G04 #@! TO.C,D63*
X237940440Y86219988D03*
X237940440Y89519988D03*
G04 #@! TD*
G04 #@! TO.C,D61*
X242316000Y33280303D03*
X242316000Y36580303D03*
G04 #@! TD*
G04 #@! TO.C,D59*
X228600000Y67056000D03*
X228600000Y70356000D03*
G04 #@! TD*
G04 #@! TO.C,D58*
X218940828Y88069508D03*
X218940828Y91369508D03*
G04 #@! TD*
G04 #@! TO.C,D57*
X223520000Y31878000D03*
X223520000Y35178000D03*
G04 #@! TD*
G04 #@! TO.C,D56*
X213868000Y49658000D03*
X213868000Y52958000D03*
G04 #@! TD*
G04 #@! TO.C,D55*
X209296000Y68454000D03*
X209296000Y71754000D03*
G04 #@! TD*
G04 #@! TO.C,D54*
X200003846Y86234000D03*
X200003846Y89534000D03*
G04 #@! TD*
G04 #@! TO.C,D53*
X200406000Y11812000D03*
X200406000Y15112000D03*
G04 #@! TD*
G04 #@! TO.C,D52*
X204231923Y33021548D03*
X204231923Y36321548D03*
G04 #@! TD*
G04 #@! TO.C,D51*
X194539062Y51571296D03*
X194539062Y54871296D03*
G04 #@! TD*
G04 #@! TO.C,D50*
X190500000Y67056000D03*
X190500000Y70356000D03*
G04 #@! TD*
G04 #@! TO.C,D49*
X180836096Y88118261D03*
X180836096Y91418261D03*
G04 #@! TD*
G04 #@! TO.C,D48*
X185928000Y32004000D03*
X185928000Y35304000D03*
G04 #@! TD*
G04 #@! TO.C,D47*
X176276000Y49658000D03*
X176276000Y52958000D03*
G04 #@! TD*
G04 #@! TO.C,D46*
X171167682Y68391097D03*
X171167682Y71691097D03*
G04 #@! TD*
G04 #@! TO.C,D45*
X161544000Y86234000D03*
X161544000Y89534000D03*
G04 #@! TD*
G04 #@! TO.C,D43*
X166116000Y33020000D03*
X166116000Y36320000D03*
G04 #@! TD*
G04 #@! TO.C,D42*
X156407152Y51580050D03*
X156407152Y54880050D03*
G04 #@! TD*
G04 #@! TO.C,D41*
X152400000Y67056000D03*
X152400000Y70356000D03*
G04 #@! TD*
G04 #@! TO.C,D40*
X142735991Y88084633D03*
X142735991Y91384633D03*
G04 #@! TD*
G04 #@! TO.C,D39*
X147320000Y32004000D03*
X147320000Y35304000D03*
G04 #@! TD*
G04 #@! TO.C,D38*
X137956227Y49618600D03*
X137956227Y52918600D03*
G04 #@! TD*
G04 #@! TO.C,D37*
X133096000Y68454000D03*
X133096000Y71754000D03*
G04 #@! TD*
G04 #@! TO.C,D36*
X123672581Y86406169D03*
X123672581Y89706169D03*
G04 #@! TD*
G04 #@! TO.C,D35*
X119380000Y9652000D03*
X119380000Y12952000D03*
G04 #@! TD*
G04 #@! TO.C,D34*
X128016000Y33020000D03*
X128016000Y36320000D03*
G04 #@! TD*
G04 #@! TO.C,D33*
X118650577Y51605173D03*
X118650577Y54905173D03*
G04 #@! TD*
G04 #@! TO.C,D32*
X114094404Y67039064D03*
X114094404Y70339064D03*
G04 #@! TD*
G04 #@! TO.C,D31*
X104666244Y88141354D03*
X104666244Y91441354D03*
G04 #@! TD*
G04 #@! TO.C,D30*
X96520000Y12066000D03*
X96520000Y15366000D03*
G04 #@! TD*
G04 #@! TO.C,D29*
X109220000Y32004000D03*
X109220000Y35304000D03*
G04 #@! TD*
G04 #@! TO.C,D28*
X99800714Y49610479D03*
X99800714Y52910479D03*
G04 #@! TD*
G04 #@! TO.C,D27*
X94996000Y68454000D03*
X94996000Y71754000D03*
G04 #@! TD*
G04 #@! TO.C,D26*
X85852000Y86360000D03*
X85852000Y89660000D03*
G04 #@! TD*
G04 #@! TO.C,D25*
X56896000Y12192000D03*
X56896000Y15492000D03*
G04 #@! TD*
G04 #@! TO.C,D24*
X78212251Y32938443D03*
X78212251Y36238443D03*
G04 #@! TD*
G04 #@! TO.C,D23*
X73622053Y51499894D03*
X73622053Y54799894D03*
G04 #@! TD*
G04 #@! TO.C,D22*
X71120000Y67056000D03*
X71120000Y70356000D03*
G04 #@! TD*
G04 #@! TO.C,D21*
X66385865Y88102356D03*
X66385865Y91402356D03*
G04 #@! TD*
G04 #@! TO.C,D20*
X-4064000Y14098000D03*
X-4064000Y17398000D03*
G04 #@! TD*
G04 #@! TO.C,D19*
X32512000Y31752000D03*
X32512000Y35052000D03*
G04 #@! TD*
G04 #@! TO.C,D18*
X32512000Y49658000D03*
X32512000Y52958000D03*
G04 #@! TD*
G04 #@! TO.C,D17*
X32246111Y68431002D03*
X32246111Y71731002D03*
G04 #@! TD*
G04 #@! TO.C,D16*
X32512000Y86360000D03*
X32512000Y89660000D03*
G04 #@! TD*
G04 #@! TO.C,D15*
X13700310Y12176862D03*
X13700310Y15476862D03*
G04 #@! TD*
G04 #@! TO.C,D14*
X13716000Y32894000D03*
X13716000Y36194000D03*
G04 #@! TD*
G04 #@! TO.C,D13*
X13208000Y51564000D03*
X13208000Y54864000D03*
G04 #@! TD*
G04 #@! TO.C,D12*
X13208000Y67056000D03*
X13208000Y70356000D03*
G04 #@! TD*
G04 #@! TO.C,D11*
X13192360Y88086879D03*
X13192360Y91386879D03*
G04 #@! TD*
G04 #@! TO.C,D10*
X32766000Y14098000D03*
X32766000Y17398000D03*
G04 #@! TD*
G04 #@! TO.C,D9*
X-5484225Y31793471D03*
X-5484225Y35093471D03*
G04 #@! TD*
G04 #@! TO.C,D8*
X-5588000Y49658000D03*
X-5588000Y52958000D03*
G04 #@! TD*
G04 #@! TO.C,D7*
X-5588000Y68580000D03*
X-5588000Y71880000D03*
G04 #@! TD*
G04 #@! TO.C,D5*
X-24384000Y18540000D03*
X-24384000Y15240000D03*
G04 #@! TD*
G04 #@! TO.C,D4*
X-21844000Y11050000D03*
X-21844000Y14350000D03*
G04 #@! TD*
G04 #@! TO.C,D3*
X-24384000Y58164000D03*
X-24384000Y54864000D03*
G04 #@! TD*
G04 #@! TO.C,D2*
X-24384000Y49658000D03*
X-24384000Y52958000D03*
G04 #@! TD*
G04 #@! TO.C,D1*
X-24907745Y88154134D03*
X-24907745Y91454134D03*
G04 #@! TD*
M02*
