G04 #@! TF.GenerationSoftware,KiCad,Pcbnew,(5.1.4)-1*
G04 #@! TF.CreationDate,2020-09-26T23:04:53-04:00*
G04 #@! TF.ProjectId,southpawpcbv2,736f7574-6870-4617-9770-636276322e6b,rev?*
G04 #@! TF.SameCoordinates,Original*
G04 #@! TF.FileFunction,Profile,NP*
%FSLAX46Y46*%
G04 Gerber Fmt 4.6, Leading zero omitted, Abs format (unit mm)*
G04 Created by KiCad (PCBNEW (5.1.4)-1) date 2020-09-26 23:04:53*
%MOMM*%
%LPD*%
G04 APERTURE LIST*
%ADD10C,0.050000*%
G04 APERTURE END LIST*
D10*
X-40005000Y-6223000D02*
X-40002444Y95447427D01*
X245725500Y-6207250D02*
G75*
G02X251425500Y-6207250I2850000J0D01*
G01*
X153575500Y-6207250D02*
G75*
G02X159275500Y-6207250I2850000J0D01*
G01*
X10287000Y96393000D02*
X60475500Y96392750D01*
X381000Y97663000D02*
X9017000Y97663000D01*
X9017000Y97663000D02*
G75*
G02X10287000Y96393000I0J-1270000D01*
G01*
X-889000Y96393000D02*
G75*
G02X381000Y97663000I1270000J0D01*
G01*
X153575500Y-6207250D02*
G75*
G02X152625500Y-7157250I-950000J0D01*
G01*
X244775500Y96392750D02*
G75*
G02X245725500Y95442750I0J-950000D01*
G01*
X152625500Y-7157250D02*
X68075500Y-7157250D01*
X244775500Y-7157250D02*
X160225500Y-7157250D01*
X152625500Y96392750D02*
G75*
G02X153575500Y95442750I0J-950000D01*
G01*
X-23124500Y96392750D02*
X-889000Y96393000D01*
X160225500Y-7157250D02*
G75*
G02X159275500Y-6207250I0J950000D01*
G01*
X68075500Y-7157250D02*
G75*
G02X67125500Y-6207250I0J950000D01*
G01*
X67125500Y95442750D02*
G75*
G02X68075500Y96392750I950000J0D01*
G01*
X336925500Y96392750D02*
G75*
G02X337875500Y95442750I0J-950000D01*
G01*
X68075500Y96392750D02*
X152625500Y96392750D01*
X159275500Y95442750D02*
G75*
G02X160225500Y96392750I950000J0D01*
G01*
X-39055000Y-7173000D02*
G75*
G02X-40005000Y-6223000I0J950000D01*
G01*
X-40002444Y95447427D02*
G75*
G02X-39052444Y96397427I950000J0D01*
G01*
X160225500Y96392750D02*
X244775500Y96392750D01*
X61425500Y-6207250D02*
G75*
G02X67125500Y-6207250I2850000J0D01*
G01*
X245725500Y-6207250D02*
G75*
G02X244775500Y-7157250I-950000J0D01*
G01*
X60475500Y-7157250D02*
X-39055000Y-7173000D01*
X60475500Y96392750D02*
G75*
G02X61425500Y95442750I0J-950000D01*
G01*
X61425500Y-6207250D02*
G75*
G02X60475500Y-7157250I-950000J0D01*
G01*
X251425500Y95442750D02*
G75*
G02X245725500Y95442750I-2850000J0D01*
G01*
X252375500Y96392750D02*
X336925500Y96392750D01*
X67125500Y95442750D02*
G75*
G02X61425500Y95442750I-2850000J0D01*
G01*
X252375500Y-7157250D02*
X336925500Y-7157250D01*
X252375500Y-7157250D02*
G75*
G02X251425500Y-6207250I0J950000D01*
G01*
X337875500Y-6207250D02*
X337875500Y95442750D01*
X-23124500Y96392750D02*
X-39052444Y96397427D01*
X337875500Y-6207250D02*
G75*
G02X336925500Y-7157250I-950000J0D01*
G01*
X251425500Y95442750D02*
G75*
G02X252375500Y96392750I950000J0D01*
G01*
X159275500Y95442750D02*
G75*
G02X153575500Y95442750I-2850000J0D01*
G01*
M02*
