G04 #@! TF.GenerationSoftware,KiCad,Pcbnew,(5.1.4)-1*
G04 #@! TF.CreationDate,2020-09-27T06:03:08-04:00*
G04 #@! TF.ProjectId,southpawpcbv2,736f7574-6870-4617-9770-636276322e6b,rev?*
G04 #@! TF.SameCoordinates,Original*
G04 #@! TF.FileFunction,Legend,Bot*
G04 #@! TF.FilePolarity,Positive*
%FSLAX46Y46*%
G04 Gerber Fmt 4.6, Leading zero omitted, Abs format (unit mm)*
G04 Created by KiCad (PCBNEW (5.1.4)-1) date 2020-09-27 06:03:08*
%MOMM*%
%LPD*%
G04 APERTURE LIST*
%ADD10C,0.010000*%
%ADD11C,0.120000*%
%ADD12C,0.127000*%
%ADD13C,0.100000*%
%ADD14C,0.150000*%
%ADD15C,0.015000*%
G04 APERTURE END LIST*
D10*
G04 #@! TO.C,G\002A\002A\002A*
G36*
X199172902Y4039435D02*
G01*
X199167509Y3984745D01*
X199162987Y3839887D01*
X199159433Y3616289D01*
X199156945Y3325379D01*
X199155618Y2978588D01*
X199155550Y2587343D01*
X199156838Y2163073D01*
X199156891Y2151504D01*
X199165564Y288257D01*
X198972282Y442790D01*
X198873845Y529254D01*
X198720348Y673510D01*
X198527457Y860408D01*
X198310836Y1074796D01*
X198118600Y1268491D01*
X197458200Y1939660D01*
X196416778Y1952200D01*
X196416789Y1787100D01*
X196427542Y1672932D01*
X196477376Y1628323D01*
X196556500Y1621717D01*
X196727194Y1607524D01*
X196892244Y1559264D01*
X197069465Y1467325D01*
X197276669Y1322094D01*
X197531666Y1113960D01*
X197589750Y1064127D01*
X197783454Y894729D01*
X197947477Y747097D01*
X198067253Y634661D01*
X198128213Y570850D01*
X198132746Y563565D01*
X198104876Y514438D01*
X198019532Y403302D01*
X197887962Y242982D01*
X197721413Y46303D01*
X197531133Y-173911D01*
X197328367Y-404836D01*
X197124365Y-633646D01*
X196930372Y-847518D01*
X196757637Y-1033626D01*
X196617407Y-1179146D01*
X196532667Y-1260900D01*
X196405515Y-1358814D01*
X196293413Y-1418000D01*
X196255937Y-1426000D01*
X196190875Y-1449762D01*
X196165051Y-1537437D01*
X196162800Y-1603800D01*
X196162800Y-1781600D01*
X197520044Y-1781600D01*
X197926832Y-1286300D01*
X198136003Y-1038361D01*
X198375182Y-765332D01*
X198609652Y-506409D01*
X198747921Y-359200D01*
X199162223Y72600D01*
X199148412Y-621727D01*
X199140561Y-878394D01*
X199128661Y-1098305D01*
X199114172Y-1261616D01*
X199098554Y-1348486D01*
X199094365Y-1356228D01*
X199023364Y-1385511D01*
X198889675Y-1413618D01*
X198814965Y-1423901D01*
X198669461Y-1445840D01*
X198596550Y-1482115D01*
X198567494Y-1554425D01*
X198559882Y-1616500D01*
X198543963Y-1781600D01*
X200734800Y-1781600D01*
X200734800Y-1603800D01*
X200729842Y-1494249D01*
X200696460Y-1442582D01*
X200606896Y-1427039D01*
X200507988Y-1426000D01*
X200347764Y-1413141D01*
X200257559Y-1367743D01*
X200228588Y-1327739D01*
X200218076Y-1258269D01*
X200208837Y-1100058D01*
X200200893Y-865958D01*
X200194269Y-568822D01*
X200188986Y-221500D01*
X200185069Y163156D01*
X200182541Y572293D01*
X200181424Y993060D01*
X200181743Y1412606D01*
X200183519Y1818078D01*
X200186778Y2196625D01*
X200191540Y2535394D01*
X200197831Y2821535D01*
X200205672Y3042196D01*
X200215088Y3184524D01*
X200220373Y3222200D01*
X200249411Y3315533D01*
X200305051Y3363306D01*
X200418033Y3384397D01*
X200493763Y3390084D01*
X200639378Y3403997D01*
X200710206Y3433051D01*
X200733019Y3495204D01*
X200734800Y3551761D01*
X200728188Y3634029D01*
X200695819Y3689114D01*
X200618895Y3725946D01*
X200478615Y3753456D01*
X200256182Y3780574D01*
X200252200Y3781015D01*
X200043804Y3815807D01*
X199795753Y3873932D01*
X199572493Y3939435D01*
X199392525Y3995364D01*
X199252753Y4031450D01*
X199178164Y4041439D01*
X199172902Y4039435D01*
X199172902Y4039435D01*
G37*
X199172902Y4039435D02*
X199167509Y3984745D01*
X199162987Y3839887D01*
X199159433Y3616289D01*
X199156945Y3325379D01*
X199155618Y2978588D01*
X199155550Y2587343D01*
X199156838Y2163073D01*
X199156891Y2151504D01*
X199165564Y288257D01*
X198972282Y442790D01*
X198873845Y529254D01*
X198720348Y673510D01*
X198527457Y860408D01*
X198310836Y1074796D01*
X198118600Y1268491D01*
X197458200Y1939660D01*
X196416778Y1952200D01*
X196416789Y1787100D01*
X196427542Y1672932D01*
X196477376Y1628323D01*
X196556500Y1621717D01*
X196727194Y1607524D01*
X196892244Y1559264D01*
X197069465Y1467325D01*
X197276669Y1322094D01*
X197531666Y1113960D01*
X197589750Y1064127D01*
X197783454Y894729D01*
X197947477Y747097D01*
X198067253Y634661D01*
X198128213Y570850D01*
X198132746Y563565D01*
X198104876Y514438D01*
X198019532Y403302D01*
X197887962Y242982D01*
X197721413Y46303D01*
X197531133Y-173911D01*
X197328367Y-404836D01*
X197124365Y-633646D01*
X196930372Y-847518D01*
X196757637Y-1033626D01*
X196617407Y-1179146D01*
X196532667Y-1260900D01*
X196405515Y-1358814D01*
X196293413Y-1418000D01*
X196255937Y-1426000D01*
X196190875Y-1449762D01*
X196165051Y-1537437D01*
X196162800Y-1603800D01*
X196162800Y-1781600D01*
X197520044Y-1781600D01*
X197926832Y-1286300D01*
X198136003Y-1038361D01*
X198375182Y-765332D01*
X198609652Y-506409D01*
X198747921Y-359200D01*
X199162223Y72600D01*
X199148412Y-621727D01*
X199140561Y-878394D01*
X199128661Y-1098305D01*
X199114172Y-1261616D01*
X199098554Y-1348486D01*
X199094365Y-1356228D01*
X199023364Y-1385511D01*
X198889675Y-1413618D01*
X198814965Y-1423901D01*
X198669461Y-1445840D01*
X198596550Y-1482115D01*
X198567494Y-1554425D01*
X198559882Y-1616500D01*
X198543963Y-1781600D01*
X200734800Y-1781600D01*
X200734800Y-1603800D01*
X200729842Y-1494249D01*
X200696460Y-1442582D01*
X200606896Y-1427039D01*
X200507988Y-1426000D01*
X200347764Y-1413141D01*
X200257559Y-1367743D01*
X200228588Y-1327739D01*
X200218076Y-1258269D01*
X200208837Y-1100058D01*
X200200893Y-865958D01*
X200194269Y-568822D01*
X200188986Y-221500D01*
X200185069Y163156D01*
X200182541Y572293D01*
X200181424Y993060D01*
X200181743Y1412606D01*
X200183519Y1818078D01*
X200186778Y2196625D01*
X200191540Y2535394D01*
X200197831Y2821535D01*
X200205672Y3042196D01*
X200215088Y3184524D01*
X200220373Y3222200D01*
X200249411Y3315533D01*
X200305051Y3363306D01*
X200418033Y3384397D01*
X200493763Y3390084D01*
X200639378Y3403997D01*
X200710206Y3433051D01*
X200733019Y3495204D01*
X200734800Y3551761D01*
X200728188Y3634029D01*
X200695819Y3689114D01*
X200618895Y3725946D01*
X200478615Y3753456D01*
X200256182Y3780574D01*
X200252200Y3781015D01*
X200043804Y3815807D01*
X199795753Y3873932D01*
X199572493Y3939435D01*
X199392525Y3995364D01*
X199252753Y4031450D01*
X199178164Y4041439D01*
X199172902Y4039435D01*
G36*
X203582010Y1310923D02*
G01*
X203449947Y996385D01*
X203307757Y663736D01*
X203169976Y346613D01*
X203051135Y78654D01*
X203018046Y5642D01*
X202775054Y-526427D01*
X202498312Y331887D01*
X202380335Y698606D01*
X202291410Y980528D01*
X202229470Y1189568D01*
X202192451Y1337647D01*
X202178285Y1436683D01*
X202184907Y1498594D01*
X202210250Y1535299D01*
X202252249Y1558716D01*
X202283527Y1570945D01*
X202440823Y1610203D01*
X202566908Y1622000D01*
X202669587Y1633414D01*
X202709785Y1688664D01*
X202716000Y1787796D01*
X202716000Y1953592D01*
X201090540Y1952200D01*
X201090470Y1787100D01*
X201100866Y1673179D01*
X201150835Y1628715D01*
X201237173Y1622000D01*
X201384287Y1591077D01*
X201487656Y1533100D01*
X201550761Y1442865D01*
X201638927Y1262099D01*
X201749423Y997995D01*
X201879517Y657747D01*
X202026477Y248548D01*
X202187572Y-222409D01*
X202360070Y-747928D01*
X202394177Y-854191D01*
X202690600Y-1780982D01*
X203351000Y-1780180D01*
X203551399Y-1285590D01*
X203647604Y-1053956D01*
X203771908Y-763074D01*
X203909999Y-446021D01*
X204047565Y-135873D01*
X204083141Y-56764D01*
X204414484Y677471D01*
X204689756Y95636D01*
X204824813Y-195428D01*
X204977969Y-534311D01*
X205128574Y-874916D01*
X205234850Y-1121200D01*
X205504671Y-1756200D01*
X205834968Y-1771162D01*
X206165266Y-1786125D01*
X206220842Y-1567962D01*
X206275756Y-1358963D01*
X206349175Y-1089063D01*
X206436308Y-774971D01*
X206532368Y-433397D01*
X206632565Y-81049D01*
X206732110Y265363D01*
X206826214Y589131D01*
X206910088Y873544D01*
X206978943Y1101895D01*
X207027990Y1257473D01*
X207043743Y1303169D01*
X207103957Y1455007D01*
X207160905Y1537688D01*
X207245698Y1577661D01*
X207389449Y1601375D01*
X207395456Y1602172D01*
X207544904Y1625770D01*
X207617658Y1657147D01*
X207638021Y1715134D01*
X207633604Y1786709D01*
X207618200Y1937610D01*
X206513297Y1944905D01*
X205408393Y1952200D01*
X205408397Y1787100D01*
X205414720Y1683535D01*
X205452618Y1635814D01*
X205550498Y1622113D01*
X205624300Y1621223D01*
X205753757Y1619460D01*
X205848185Y1607011D01*
X205909044Y1571538D01*
X205937792Y1500702D01*
X205935888Y1382166D01*
X205904789Y1203592D01*
X205845954Y952642D01*
X205760841Y616980D01*
X205748642Y569293D01*
X205671128Y271677D01*
X205599796Y8001D01*
X205539142Y-205923D01*
X205493659Y-354283D01*
X205467843Y-421267D01*
X205466658Y-422744D01*
X205436838Y-388527D01*
X205371868Y-272773D01*
X205277425Y-86982D01*
X205159187Y157347D01*
X205022831Y448716D01*
X204874035Y775625D01*
X204864684Y796456D01*
X204300736Y2053800D01*
X203902982Y2084134D01*
X203582010Y1310923D01*
X203582010Y1310923D01*
G37*
X203582010Y1310923D02*
X203449947Y996385D01*
X203307757Y663736D01*
X203169976Y346613D01*
X203051135Y78654D01*
X203018046Y5642D01*
X202775054Y-526427D01*
X202498312Y331887D01*
X202380335Y698606D01*
X202291410Y980528D01*
X202229470Y1189568D01*
X202192451Y1337647D01*
X202178285Y1436683D01*
X202184907Y1498594D01*
X202210250Y1535299D01*
X202252249Y1558716D01*
X202283527Y1570945D01*
X202440823Y1610203D01*
X202566908Y1622000D01*
X202669587Y1633414D01*
X202709785Y1688664D01*
X202716000Y1787796D01*
X202716000Y1953592D01*
X201090540Y1952200D01*
X201090470Y1787100D01*
X201100866Y1673179D01*
X201150835Y1628715D01*
X201237173Y1622000D01*
X201384287Y1591077D01*
X201487656Y1533100D01*
X201550761Y1442865D01*
X201638927Y1262099D01*
X201749423Y997995D01*
X201879517Y657747D01*
X202026477Y248548D01*
X202187572Y-222409D01*
X202360070Y-747928D01*
X202394177Y-854191D01*
X202690600Y-1780982D01*
X203351000Y-1780180D01*
X203551399Y-1285590D01*
X203647604Y-1053956D01*
X203771908Y-763074D01*
X203909999Y-446021D01*
X204047565Y-135873D01*
X204083141Y-56764D01*
X204414484Y677471D01*
X204689756Y95636D01*
X204824813Y-195428D01*
X204977969Y-534311D01*
X205128574Y-874916D01*
X205234850Y-1121200D01*
X205504671Y-1756200D01*
X205834968Y-1771162D01*
X206165266Y-1786125D01*
X206220842Y-1567962D01*
X206275756Y-1358963D01*
X206349175Y-1089063D01*
X206436308Y-774971D01*
X206532368Y-433397D01*
X206632565Y-81049D01*
X206732110Y265363D01*
X206826214Y589131D01*
X206910088Y873544D01*
X206978943Y1101895D01*
X207027990Y1257473D01*
X207043743Y1303169D01*
X207103957Y1455007D01*
X207160905Y1537688D01*
X207245698Y1577661D01*
X207389449Y1601375D01*
X207395456Y1602172D01*
X207544904Y1625770D01*
X207617658Y1657147D01*
X207638021Y1715134D01*
X207633604Y1786709D01*
X207618200Y1937610D01*
X206513297Y1944905D01*
X205408393Y1952200D01*
X205408397Y1787100D01*
X205414720Y1683535D01*
X205452618Y1635814D01*
X205550498Y1622113D01*
X205624300Y1621223D01*
X205753757Y1619460D01*
X205848185Y1607011D01*
X205909044Y1571538D01*
X205937792Y1500702D01*
X205935888Y1382166D01*
X205904789Y1203592D01*
X205845954Y952642D01*
X205760841Y616980D01*
X205748642Y569293D01*
X205671128Y271677D01*
X205599796Y8001D01*
X205539142Y-205923D01*
X205493659Y-354283D01*
X205467843Y-421267D01*
X205466658Y-422744D01*
X205436838Y-388527D01*
X205371868Y-272773D01*
X205277425Y-86982D01*
X205159187Y157347D01*
X205022831Y448716D01*
X204874035Y775625D01*
X204864684Y796456D01*
X204300736Y2053800D01*
X203902982Y2084134D01*
X203582010Y1310923D01*
G36*
X211860405Y2021390D02*
G01*
X211790955Y1989177D01*
X211783432Y1924807D01*
X211782486Y1782516D01*
X211787939Y1585755D01*
X211795198Y1433034D01*
X211815392Y1164772D01*
X211845214Y989393D01*
X211891023Y898235D01*
X211959181Y882633D01*
X212056048Y933924D01*
X212122885Y986681D01*
X212320480Y1094400D01*
X212537087Y1119774D01*
X212748062Y1070193D01*
X212928761Y953046D01*
X213054540Y775722D01*
X213081447Y699259D01*
X213103086Y564693D01*
X213117651Y362152D01*
X213125547Y111382D01*
X213127177Y-167874D01*
X213122946Y-455869D01*
X213113257Y-732859D01*
X213098515Y-979098D01*
X213079124Y-1174842D01*
X213055487Y-1300345D01*
X213039853Y-1333312D01*
X212954473Y-1375254D01*
X212807778Y-1411057D01*
X212709653Y-1424707D01*
X212554573Y-1444136D01*
X212473680Y-1474279D01*
X212439859Y-1533618D01*
X212428282Y-1616500D01*
X212412363Y-1781600D01*
X214704800Y-1781600D01*
X214704800Y-1603800D01*
X214699842Y-1494249D01*
X214666460Y-1442582D01*
X214576896Y-1427039D01*
X214477988Y-1426000D01*
X214317764Y-1413141D01*
X214227559Y-1367743D01*
X214198588Y-1327739D01*
X214180425Y-1243852D01*
X214165956Y-1078406D01*
X214155125Y-848459D01*
X214147879Y-571072D01*
X214144164Y-263303D01*
X214143924Y57788D01*
X214147106Y375141D01*
X214153657Y671697D01*
X214163520Y930398D01*
X214176643Y1134183D01*
X214192972Y1265993D01*
X214206961Y1307041D01*
X214293037Y1345074D01*
X214434463Y1366361D01*
X214486361Y1368000D01*
X214622768Y1372561D01*
X214685850Y1400788D01*
X214703864Y1474497D01*
X214704800Y1536653D01*
X214704800Y1705305D01*
X214241324Y1767013D01*
X213992059Y1807411D01*
X213741974Y1859855D01*
X213535977Y1914641D01*
X213493785Y1928561D01*
X213335007Y1982161D01*
X213215650Y2018400D01*
X213169861Y2028400D01*
X213151341Y1981621D01*
X213137399Y1857316D01*
X213130396Y1679535D01*
X213130000Y1622442D01*
X213130000Y1216483D01*
X212840897Y1533542D01*
X212689551Y1693136D01*
X212547162Y1832354D01*
X212439594Y1926165D01*
X212421797Y1939166D01*
X212309568Y1986268D01*
X212155133Y2017533D01*
X211993682Y2030170D01*
X211860405Y2021390D01*
X211860405Y2021390D01*
G37*
X211860405Y2021390D02*
X211790955Y1989177D01*
X211783432Y1924807D01*
X211782486Y1782516D01*
X211787939Y1585755D01*
X211795198Y1433034D01*
X211815392Y1164772D01*
X211845214Y989393D01*
X211891023Y898235D01*
X211959181Y882633D01*
X212056048Y933924D01*
X212122885Y986681D01*
X212320480Y1094400D01*
X212537087Y1119774D01*
X212748062Y1070193D01*
X212928761Y953046D01*
X213054540Y775722D01*
X213081447Y699259D01*
X213103086Y564693D01*
X213117651Y362152D01*
X213125547Y111382D01*
X213127177Y-167874D01*
X213122946Y-455869D01*
X213113257Y-732859D01*
X213098515Y-979098D01*
X213079124Y-1174842D01*
X213055487Y-1300345D01*
X213039853Y-1333312D01*
X212954473Y-1375254D01*
X212807778Y-1411057D01*
X212709653Y-1424707D01*
X212554573Y-1444136D01*
X212473680Y-1474279D01*
X212439859Y-1533618D01*
X212428282Y-1616500D01*
X212412363Y-1781600D01*
X214704800Y-1781600D01*
X214704800Y-1603800D01*
X214699842Y-1494249D01*
X214666460Y-1442582D01*
X214576896Y-1427039D01*
X214477988Y-1426000D01*
X214317764Y-1413141D01*
X214227559Y-1367743D01*
X214198588Y-1327739D01*
X214180425Y-1243852D01*
X214165956Y-1078406D01*
X214155125Y-848459D01*
X214147879Y-571072D01*
X214144164Y-263303D01*
X214143924Y57788D01*
X214147106Y375141D01*
X214153657Y671697D01*
X214163520Y930398D01*
X214176643Y1134183D01*
X214192972Y1265993D01*
X214206961Y1307041D01*
X214293037Y1345074D01*
X214434463Y1366361D01*
X214486361Y1368000D01*
X214622768Y1372561D01*
X214685850Y1400788D01*
X214703864Y1474497D01*
X214704800Y1536653D01*
X214704800Y1705305D01*
X214241324Y1767013D01*
X213992059Y1807411D01*
X213741974Y1859855D01*
X213535977Y1914641D01*
X213493785Y1928561D01*
X213335007Y1982161D01*
X213215650Y2018400D01*
X213169861Y2028400D01*
X213151341Y1981621D01*
X213137399Y1857316D01*
X213130396Y1679535D01*
X213130000Y1622442D01*
X213130000Y1216483D01*
X212840897Y1533542D01*
X212689551Y1693136D01*
X212547162Y1832354D01*
X212439594Y1926165D01*
X212421797Y1939166D01*
X212309568Y1986268D01*
X212155133Y2017533D01*
X211993682Y2030170D01*
X211860405Y2021390D01*
G36*
X219647721Y12539121D02*
G01*
X219425837Y12380337D01*
X219272483Y12165239D01*
X219190672Y11915168D01*
X219183419Y11651465D01*
X219253739Y11395469D01*
X219404644Y11168523D01*
X219448053Y11125445D01*
X219581601Y11002290D01*
X219581601Y7351121D01*
X219581600Y3699952D01*
X218946600Y3730200D01*
X218933342Y5886205D01*
X218920083Y8042210D01*
X219069926Y8197605D01*
X219234207Y8430312D01*
X219311170Y8680912D01*
X219309215Y8933766D01*
X219236739Y9173238D01*
X219102143Y9383691D01*
X218913826Y9549486D01*
X218680186Y9654986D01*
X218409624Y9684554D01*
X218279507Y9669193D01*
X218086813Y9593130D01*
X217891171Y9451154D01*
X217727694Y9271552D01*
X217669772Y9177996D01*
X217607897Y8975700D01*
X217600719Y8742305D01*
X217642339Y8509032D01*
X217726860Y8307103D01*
X217848387Y8167741D01*
X217862336Y8158455D01*
X217885097Y8139693D01*
X217903847Y8108368D01*
X217918975Y8055285D01*
X217930866Y7971247D01*
X217939908Y7847059D01*
X217946487Y7673525D01*
X217950991Y7441449D01*
X217953806Y7141634D01*
X217955320Y6764884D01*
X217955919Y6302004D01*
X217956001Y5932115D01*
X217956001Y3764269D01*
X217562301Y3731999D01*
X217077999Y3675750D01*
X216675517Y3589536D01*
X216337762Y3466604D01*
X216047642Y3300204D01*
X215788062Y3083584D01*
X215704624Y2998255D01*
X215436412Y2641976D01*
X215250102Y2232688D01*
X215144594Y1766789D01*
X215118786Y1240678D01*
X215124617Y1100046D01*
X215186401Y597929D01*
X215315520Y150711D01*
X215521240Y-270080D01*
X215622954Y-431261D01*
X215908859Y-804421D01*
X216225608Y-1104912D01*
X216593456Y-1347751D01*
X217032662Y-1547958D01*
X217219400Y-1614943D01*
X217332647Y-1652472D01*
X217434659Y-1682578D01*
X217538229Y-1706223D01*
X217656145Y-1724367D01*
X217801200Y-1737972D01*
X217986182Y-1748000D01*
X218223882Y-1755412D01*
X218527091Y-1761170D01*
X218908599Y-1766234D01*
X219289500Y-1770552D01*
X219744118Y-1775402D01*
X220107381Y-1778462D01*
X220389525Y-1779239D01*
X220600787Y-1777242D01*
X220751404Y-1771977D01*
X220851612Y-1762950D01*
X220911649Y-1749670D01*
X220941750Y-1731642D01*
X220952153Y-1708375D01*
X220953200Y-1690441D01*
X220910610Y-1597915D01*
X220798235Y-1491124D01*
X220757616Y-1462469D01*
X220562032Y-1333038D01*
X220525616Y-16198D01*
X220516902Y389729D01*
X220512182Y817243D01*
X220511901Y944695D01*
X219353000Y944695D01*
X219353000Y-1299000D01*
X219048200Y-1329428D01*
X218691752Y-1345219D01*
X218307886Y-1329492D01*
X217945596Y-1285351D01*
X217765486Y-1248159D01*
X217384765Y-1103637D01*
X217057480Y-876890D01*
X216787078Y-574141D01*
X216577003Y-201615D01*
X216430701Y234464D01*
X216351616Y727873D01*
X216343195Y1272387D01*
X216345620Y1317000D01*
X216409305Y1816167D01*
X216537948Y2240010D01*
X216733473Y2590067D01*
X216997802Y2867876D01*
X217332860Y3074976D01*
X217740571Y3212905D01*
X218222860Y3283201D01*
X218781648Y3287402D01*
X218808365Y3286075D01*
X219018390Y3271649D01*
X219188809Y3253358D01*
X219294944Y3234168D01*
X219316365Y3224997D01*
X219323995Y3168103D01*
X219331086Y3020068D01*
X219337472Y2791348D01*
X219342983Y2492401D01*
X219347453Y2133684D01*
X219350712Y1725655D01*
X219352593Y1278770D01*
X219353000Y944695D01*
X220511901Y944695D01*
X220511223Y1251387D01*
X220513791Y1677206D01*
X220519653Y2079743D01*
X220528573Y2444044D01*
X220540320Y2755151D01*
X220554658Y2998110D01*
X220571355Y3157964D01*
X220575600Y3181875D01*
X220622698Y3266853D01*
X220736687Y3314691D01*
X220788510Y3324502D01*
X220992637Y3358534D01*
X221116559Y3388210D01*
X221180285Y3425876D01*
X221203830Y3483878D01*
X221207202Y3574562D01*
X221207200Y3582812D01*
X221207200Y3763687D01*
X220877000Y3728326D01*
X220546800Y3692964D01*
X220546800Y7374009D01*
X220546836Y8073395D01*
X220547075Y8678252D01*
X220547717Y9195655D01*
X220548964Y9632674D01*
X220551014Y9996382D01*
X220554067Y10293851D01*
X220558324Y10532153D01*
X220563985Y10718361D01*
X220571248Y10859547D01*
X220580315Y10962783D01*
X220591386Y11035142D01*
X220604659Y11083695D01*
X220620336Y11115515D01*
X220638616Y11137674D01*
X220653601Y11151707D01*
X220814809Y11360206D01*
X220895627Y11604806D01*
X220899258Y11863863D01*
X220828907Y12115734D01*
X220687779Y12338774D01*
X220479078Y12511341D01*
X220449910Y12527489D01*
X220179068Y12626833D01*
X219914825Y12629006D01*
X219647721Y12539121D01*
X219647721Y12539121D01*
G37*
X219647721Y12539121D02*
X219425837Y12380337D01*
X219272483Y12165239D01*
X219190672Y11915168D01*
X219183419Y11651465D01*
X219253739Y11395469D01*
X219404644Y11168523D01*
X219448053Y11125445D01*
X219581601Y11002290D01*
X219581601Y7351121D01*
X219581600Y3699952D01*
X218946600Y3730200D01*
X218933342Y5886205D01*
X218920083Y8042210D01*
X219069926Y8197605D01*
X219234207Y8430312D01*
X219311170Y8680912D01*
X219309215Y8933766D01*
X219236739Y9173238D01*
X219102143Y9383691D01*
X218913826Y9549486D01*
X218680186Y9654986D01*
X218409624Y9684554D01*
X218279507Y9669193D01*
X218086813Y9593130D01*
X217891171Y9451154D01*
X217727694Y9271552D01*
X217669772Y9177996D01*
X217607897Y8975700D01*
X217600719Y8742305D01*
X217642339Y8509032D01*
X217726860Y8307103D01*
X217848387Y8167741D01*
X217862336Y8158455D01*
X217885097Y8139693D01*
X217903847Y8108368D01*
X217918975Y8055285D01*
X217930866Y7971247D01*
X217939908Y7847059D01*
X217946487Y7673525D01*
X217950991Y7441449D01*
X217953806Y7141634D01*
X217955320Y6764884D01*
X217955919Y6302004D01*
X217956001Y5932115D01*
X217956001Y3764269D01*
X217562301Y3731999D01*
X217077999Y3675750D01*
X216675517Y3589536D01*
X216337762Y3466604D01*
X216047642Y3300204D01*
X215788062Y3083584D01*
X215704624Y2998255D01*
X215436412Y2641976D01*
X215250102Y2232688D01*
X215144594Y1766789D01*
X215118786Y1240678D01*
X215124617Y1100046D01*
X215186401Y597929D01*
X215315520Y150711D01*
X215521240Y-270080D01*
X215622954Y-431261D01*
X215908859Y-804421D01*
X216225608Y-1104912D01*
X216593456Y-1347751D01*
X217032662Y-1547958D01*
X217219400Y-1614943D01*
X217332647Y-1652472D01*
X217434659Y-1682578D01*
X217538229Y-1706223D01*
X217656145Y-1724367D01*
X217801200Y-1737972D01*
X217986182Y-1748000D01*
X218223882Y-1755412D01*
X218527091Y-1761170D01*
X218908599Y-1766234D01*
X219289500Y-1770552D01*
X219744118Y-1775402D01*
X220107381Y-1778462D01*
X220389525Y-1779239D01*
X220600787Y-1777242D01*
X220751404Y-1771977D01*
X220851612Y-1762950D01*
X220911649Y-1749670D01*
X220941750Y-1731642D01*
X220952153Y-1708375D01*
X220953200Y-1690441D01*
X220910610Y-1597915D01*
X220798235Y-1491124D01*
X220757616Y-1462469D01*
X220562032Y-1333038D01*
X220525616Y-16198D01*
X220516902Y389729D01*
X220512182Y817243D01*
X220511901Y944695D01*
X219353000Y944695D01*
X219353000Y-1299000D01*
X219048200Y-1329428D01*
X218691752Y-1345219D01*
X218307886Y-1329492D01*
X217945596Y-1285351D01*
X217765486Y-1248159D01*
X217384765Y-1103637D01*
X217057480Y-876890D01*
X216787078Y-574141D01*
X216577003Y-201615D01*
X216430701Y234464D01*
X216351616Y727873D01*
X216343195Y1272387D01*
X216345620Y1317000D01*
X216409305Y1816167D01*
X216537948Y2240010D01*
X216733473Y2590067D01*
X216997802Y2867876D01*
X217332860Y3074976D01*
X217740571Y3212905D01*
X218222860Y3283201D01*
X218781648Y3287402D01*
X218808365Y3286075D01*
X219018390Y3271649D01*
X219188809Y3253358D01*
X219294944Y3234168D01*
X219316365Y3224997D01*
X219323995Y3168103D01*
X219331086Y3020068D01*
X219337472Y2791348D01*
X219342983Y2492401D01*
X219347453Y2133684D01*
X219350712Y1725655D01*
X219352593Y1278770D01*
X219353000Y944695D01*
X220511901Y944695D01*
X220511223Y1251387D01*
X220513791Y1677206D01*
X220519653Y2079743D01*
X220528573Y2444044D01*
X220540320Y2755151D01*
X220554658Y2998110D01*
X220571355Y3157964D01*
X220575600Y3181875D01*
X220622698Y3266853D01*
X220736687Y3314691D01*
X220788510Y3324502D01*
X220992637Y3358534D01*
X221116559Y3388210D01*
X221180285Y3425876D01*
X221203830Y3483878D01*
X221207202Y3574562D01*
X221207200Y3582812D01*
X221207200Y3763687D01*
X220877000Y3728326D01*
X220546800Y3692964D01*
X220546800Y7374009D01*
X220546836Y8073395D01*
X220547075Y8678252D01*
X220547717Y9195655D01*
X220548964Y9632674D01*
X220551014Y9996382D01*
X220554067Y10293851D01*
X220558324Y10532153D01*
X220563985Y10718361D01*
X220571248Y10859547D01*
X220580315Y10962783D01*
X220591386Y11035142D01*
X220604659Y11083695D01*
X220620336Y11115515D01*
X220638616Y11137674D01*
X220653601Y11151707D01*
X220814809Y11360206D01*
X220895627Y11604806D01*
X220899258Y11863863D01*
X220828907Y12115734D01*
X220687779Y12338774D01*
X220479078Y12511341D01*
X220449910Y12527489D01*
X220179068Y12626833D01*
X219914825Y12629006D01*
X219647721Y12539121D01*
G36*
X185062774Y1993020D02*
G01*
X184884864Y1956103D01*
X184717274Y1911399D01*
X184594210Y1875244D01*
X184543517Y1856050D01*
X184539596Y1801441D01*
X184542849Y1668370D01*
X184552487Y1479661D01*
X184560985Y1349553D01*
X184595397Y860000D01*
X184765699Y860000D01*
X184874147Y866432D01*
X184922791Y905082D01*
X184935569Y1004986D01*
X184936000Y1066540D01*
X184949368Y1226229D01*
X184982371Y1357221D01*
X184990889Y1375641D01*
X185104909Y1489808D01*
X185296769Y1572725D01*
X185545509Y1616829D01*
X185673492Y1622000D01*
X185967060Y1591794D01*
X186179128Y1501263D01*
X186309518Y1350537D01*
X186358053Y1139747D01*
X186358400Y1117340D01*
X186344092Y999872D01*
X186293646Y902048D01*
X186195779Y817985D01*
X186039210Y741800D01*
X185812656Y667610D01*
X185504836Y589533D01*
X185228019Y527923D01*
X185014257Y472488D01*
X184818053Y405235D01*
X184678712Y339820D01*
X184669219Y333773D01*
X184479463Y150299D01*
X184351045Y-93414D01*
X184285825Y-375233D01*
X184285664Y-673027D01*
X184352422Y-964663D01*
X184487959Y-1228008D01*
X184532976Y-1287033D01*
X184738038Y-1472442D01*
X185016187Y-1635061D01*
X185339617Y-1764074D01*
X185680523Y-1848663D01*
X186011100Y-1878012D01*
X186050230Y-1877261D01*
X186213372Y-1864598D01*
X186410592Y-1839721D01*
X186485400Y-1827836D01*
X186694227Y-1785928D01*
X186908706Y-1733816D01*
X186968000Y-1717241D01*
X187058115Y-1692485D01*
X187121502Y-1668980D01*
X187162358Y-1630506D01*
X187184880Y-1560841D01*
X187193265Y-1443764D01*
X187191710Y-1263056D01*
X187184411Y-1002495D01*
X187181360Y-892600D01*
X187171200Y-511600D01*
X186999691Y-511600D01*
X186901468Y-515823D01*
X186847996Y-545073D01*
X186821969Y-624219D01*
X186806080Y-778130D01*
X186804979Y-791390D01*
X186755504Y-1036460D01*
X186644861Y-1213387D01*
X186458889Y-1338905D01*
X186288663Y-1401517D01*
X185974839Y-1462030D01*
X185693347Y-1453752D01*
X185456701Y-1382234D01*
X185277417Y-1253024D01*
X185168008Y-1071673D01*
X185139200Y-891783D01*
X185153171Y-752828D01*
X185203370Y-640422D01*
X185302235Y-546412D01*
X185462199Y-462646D01*
X185695698Y-380973D01*
X186015166Y-293241D01*
X186075504Y-277993D01*
X186315726Y-211593D01*
X186535021Y-139885D01*
X186704542Y-72895D01*
X186779143Y-33506D01*
X187003606Y174747D01*
X187144395Y436055D01*
X187198324Y741468D01*
X187167658Y1057592D01*
X187052891Y1374657D01*
X186856499Y1632020D01*
X186576645Y1831970D01*
X186527836Y1856918D01*
X186369084Y1927520D01*
X186219474Y1973148D01*
X186045730Y2000541D01*
X185814574Y2016434D01*
X185720970Y2020269D01*
X185358749Y2021375D01*
X185062774Y1993020D01*
X185062774Y1993020D01*
G37*
X185062774Y1993020D02*
X184884864Y1956103D01*
X184717274Y1911399D01*
X184594210Y1875244D01*
X184543517Y1856050D01*
X184539596Y1801441D01*
X184542849Y1668370D01*
X184552487Y1479661D01*
X184560985Y1349553D01*
X184595397Y860000D01*
X184765699Y860000D01*
X184874147Y866432D01*
X184922791Y905082D01*
X184935569Y1004986D01*
X184936000Y1066540D01*
X184949368Y1226229D01*
X184982371Y1357221D01*
X184990889Y1375641D01*
X185104909Y1489808D01*
X185296769Y1572725D01*
X185545509Y1616829D01*
X185673492Y1622000D01*
X185967060Y1591794D01*
X186179128Y1501263D01*
X186309518Y1350537D01*
X186358053Y1139747D01*
X186358400Y1117340D01*
X186344092Y999872D01*
X186293646Y902048D01*
X186195779Y817985D01*
X186039210Y741800D01*
X185812656Y667610D01*
X185504836Y589533D01*
X185228019Y527923D01*
X185014257Y472488D01*
X184818053Y405235D01*
X184678712Y339820D01*
X184669219Y333773D01*
X184479463Y150299D01*
X184351045Y-93414D01*
X184285825Y-375233D01*
X184285664Y-673027D01*
X184352422Y-964663D01*
X184487959Y-1228008D01*
X184532976Y-1287033D01*
X184738038Y-1472442D01*
X185016187Y-1635061D01*
X185339617Y-1764074D01*
X185680523Y-1848663D01*
X186011100Y-1878012D01*
X186050230Y-1877261D01*
X186213372Y-1864598D01*
X186410592Y-1839721D01*
X186485400Y-1827836D01*
X186694227Y-1785928D01*
X186908706Y-1733816D01*
X186968000Y-1717241D01*
X187058115Y-1692485D01*
X187121502Y-1668980D01*
X187162358Y-1630506D01*
X187184880Y-1560841D01*
X187193265Y-1443764D01*
X187191710Y-1263056D01*
X187184411Y-1002495D01*
X187181360Y-892600D01*
X187171200Y-511600D01*
X186999691Y-511600D01*
X186901468Y-515823D01*
X186847996Y-545073D01*
X186821969Y-624219D01*
X186806080Y-778130D01*
X186804979Y-791390D01*
X186755504Y-1036460D01*
X186644861Y-1213387D01*
X186458889Y-1338905D01*
X186288663Y-1401517D01*
X185974839Y-1462030D01*
X185693347Y-1453752D01*
X185456701Y-1382234D01*
X185277417Y-1253024D01*
X185168008Y-1071673D01*
X185139200Y-891783D01*
X185153171Y-752828D01*
X185203370Y-640422D01*
X185302235Y-546412D01*
X185462199Y-462646D01*
X185695698Y-380973D01*
X186015166Y-293241D01*
X186075504Y-277993D01*
X186315726Y-211593D01*
X186535021Y-139885D01*
X186704542Y-72895D01*
X186779143Y-33506D01*
X187003606Y174747D01*
X187144395Y436055D01*
X187198324Y741468D01*
X187167658Y1057592D01*
X187052891Y1374657D01*
X186856499Y1632020D01*
X186576645Y1831970D01*
X186527836Y1856918D01*
X186369084Y1927520D01*
X186219474Y1973148D01*
X186045730Y2000541D01*
X185814574Y2016434D01*
X185720970Y2020269D01*
X185358749Y2021375D01*
X185062774Y1993020D01*
G36*
X193491029Y2006278D02*
G01*
X193141110Y1916950D01*
X192839680Y1748811D01*
X192745918Y1672854D01*
X192554321Y1466377D01*
X192427521Y1231495D01*
X192356732Y945795D01*
X192333555Y620793D01*
X192327400Y227321D01*
X192581400Y167537D01*
X192716971Y147408D01*
X192931279Y129576D01*
X193201467Y115323D01*
X193504676Y105930D01*
X193734102Y102877D01*
X194025944Y98919D01*
X194281334Y90943D01*
X194483440Y79842D01*
X194615432Y66508D01*
X194660136Y53778D01*
X194666699Y-30814D01*
X194638614Y-178364D01*
X194584907Y-360098D01*
X194514605Y-547242D01*
X194436737Y-711022D01*
X194402085Y-768751D01*
X194272138Y-921187D01*
X194103660Y-1064999D01*
X194033188Y-1111464D01*
X193898179Y-1182732D01*
X193771741Y-1223514D01*
X193617466Y-1241344D01*
X193398950Y-1243755D01*
X193394200Y-1243703D01*
X193108763Y-1227891D01*
X192886470Y-1183602D01*
X192749983Y-1132701D01*
X192573609Y-1070109D01*
X192471331Y-1075967D01*
X192440097Y-1152619D01*
X192476851Y-1302410D01*
X192488764Y-1333140D01*
X192549992Y-1447262D01*
X192642977Y-1540326D01*
X192787145Y-1625364D01*
X193001921Y-1715407D01*
X193126433Y-1760906D01*
X193327991Y-1810235D01*
X193591354Y-1844567D01*
X193877521Y-1861614D01*
X194147495Y-1859084D01*
X194362276Y-1834688D01*
X194366764Y-1833744D01*
X194741282Y-1704544D01*
X195078702Y-1492472D01*
X195359964Y-1212747D01*
X195566010Y-880590D01*
X195569277Y-873418D01*
X195624700Y-720776D01*
X195662210Y-536298D01*
X195686014Y-293940D01*
X195696389Y-86202D01*
X195694152Y361847D01*
X195674242Y510532D01*
X194703433Y510532D01*
X194455217Y488332D01*
X194255841Y479036D01*
X194024352Y480084D01*
X193907449Y485266D01*
X193721811Y495843D01*
X193561381Y502792D01*
X193488349Y504400D01*
X193418615Y513144D01*
X193383194Y556224D01*
X193370861Y658914D01*
X193369916Y771100D01*
X193396743Y1014470D01*
X193467213Y1241323D01*
X193569346Y1422656D01*
X193681093Y1524410D01*
X193865673Y1580463D01*
X194081203Y1586068D01*
X194278345Y1542495D01*
X194347855Y1507222D01*
X194504166Y1356136D01*
X194609574Y1135610D01*
X194669546Y833935D01*
X194671763Y813540D01*
X194703433Y510532D01*
X195674242Y510532D01*
X195644691Y731207D01*
X195539729Y1037025D01*
X195370989Y1294450D01*
X195130194Y1518632D01*
X194809066Y1724719D01*
X194665297Y1800909D01*
X194438682Y1908453D01*
X194254691Y1973125D01*
X194070610Y2007190D01*
X193901154Y2020319D01*
X193491029Y2006278D01*
X193491029Y2006278D01*
G37*
X193491029Y2006278D02*
X193141110Y1916950D01*
X192839680Y1748811D01*
X192745918Y1672854D01*
X192554321Y1466377D01*
X192427521Y1231495D01*
X192356732Y945795D01*
X192333555Y620793D01*
X192327400Y227321D01*
X192581400Y167537D01*
X192716971Y147408D01*
X192931279Y129576D01*
X193201467Y115323D01*
X193504676Y105930D01*
X193734102Y102877D01*
X194025944Y98919D01*
X194281334Y90943D01*
X194483440Y79842D01*
X194615432Y66508D01*
X194660136Y53778D01*
X194666699Y-30814D01*
X194638614Y-178364D01*
X194584907Y-360098D01*
X194514605Y-547242D01*
X194436737Y-711022D01*
X194402085Y-768751D01*
X194272138Y-921187D01*
X194103660Y-1064999D01*
X194033188Y-1111464D01*
X193898179Y-1182732D01*
X193771741Y-1223514D01*
X193617466Y-1241344D01*
X193398950Y-1243755D01*
X193394200Y-1243703D01*
X193108763Y-1227891D01*
X192886470Y-1183602D01*
X192749983Y-1132701D01*
X192573609Y-1070109D01*
X192471331Y-1075967D01*
X192440097Y-1152619D01*
X192476851Y-1302410D01*
X192488764Y-1333140D01*
X192549992Y-1447262D01*
X192642977Y-1540326D01*
X192787145Y-1625364D01*
X193001921Y-1715407D01*
X193126433Y-1760906D01*
X193327991Y-1810235D01*
X193591354Y-1844567D01*
X193877521Y-1861614D01*
X194147495Y-1859084D01*
X194362276Y-1834688D01*
X194366764Y-1833744D01*
X194741282Y-1704544D01*
X195078702Y-1492472D01*
X195359964Y-1212747D01*
X195566010Y-880590D01*
X195569277Y-873418D01*
X195624700Y-720776D01*
X195662210Y-536298D01*
X195686014Y-293940D01*
X195696389Y-86202D01*
X195694152Y361847D01*
X195674242Y510532D01*
X194703433Y510532D01*
X194455217Y488332D01*
X194255841Y479036D01*
X194024352Y480084D01*
X193907449Y485266D01*
X193721811Y495843D01*
X193561381Y502792D01*
X193488349Y504400D01*
X193418615Y513144D01*
X193383194Y556224D01*
X193370861Y658914D01*
X193369916Y771100D01*
X193396743Y1014470D01*
X193467213Y1241323D01*
X193569346Y1422656D01*
X193681093Y1524410D01*
X193865673Y1580463D01*
X194081203Y1586068D01*
X194278345Y1542495D01*
X194347855Y1507222D01*
X194504166Y1356136D01*
X194609574Y1135610D01*
X194669546Y833935D01*
X194671763Y813540D01*
X194703433Y510532D01*
X195674242Y510532D01*
X195644691Y731207D01*
X195539729Y1037025D01*
X195370989Y1294450D01*
X195130194Y1518632D01*
X194809066Y1724719D01*
X194665297Y1800909D01*
X194438682Y1908453D01*
X194254691Y1973125D01*
X194070610Y2007190D01*
X193901154Y2020319D01*
X193491029Y2006278D01*
G36*
X189863657Y1787100D02*
G01*
X189875847Y1671389D01*
X189925965Y1626456D01*
X189977900Y1621307D01*
X190176288Y1599950D01*
X190288058Y1536131D01*
X190320800Y1434128D01*
X190303352Y1355974D01*
X190255448Y1201753D01*
X190183756Y989529D01*
X190094939Y737368D01*
X189995664Y463337D01*
X189892596Y185502D01*
X189792400Y-78072D01*
X189701741Y-309318D01*
X189627285Y-490170D01*
X189575697Y-602562D01*
X189559940Y-628158D01*
X189530189Y-597242D01*
X189470103Y-487575D01*
X189386579Y-314938D01*
X189286514Y-95112D01*
X189176805Y156122D01*
X189064350Y422983D01*
X188956046Y689690D01*
X188858789Y940462D01*
X188782627Y1150380D01*
X188724279Y1323779D01*
X188698640Y1427351D01*
X188704782Y1487139D01*
X188741779Y1529187D01*
X188768410Y1549380D01*
X188888499Y1600701D01*
X189038328Y1622000D01*
X189153608Y1629925D01*
X189195918Y1672929D01*
X189193719Y1779613D01*
X189177800Y1937226D01*
X187679160Y1952200D01*
X187679180Y1787100D01*
X187694317Y1667433D01*
X187747802Y1623685D01*
X187769497Y1622000D01*
X187925342Y1572826D01*
X188071559Y1431796D01*
X188189914Y1226539D01*
X188234302Y1126502D01*
X188314201Y945243D01*
X188424404Y694622D01*
X188559702Y386500D01*
X188714888Y32738D01*
X188884754Y-354802D01*
X189064092Y-764261D01*
X189086918Y-816400D01*
X189325672Y-1360687D01*
X189528371Y-1819913D01*
X189699001Y-2202393D01*
X189841550Y-2516441D01*
X189960006Y-2770372D01*
X190058357Y-2972501D01*
X190140590Y-3131142D01*
X190210693Y-3254610D01*
X190272653Y-3351220D01*
X190330458Y-3429287D01*
X190353527Y-3457442D01*
X190581369Y-3653907D01*
X190867938Y-3787752D01*
X191187115Y-3852247D01*
X191512779Y-3840659D01*
X191683117Y-3800085D01*
X191794952Y-3753791D01*
X191830175Y-3694776D01*
X191818197Y-3614771D01*
X191789597Y-3483468D01*
X191757290Y-3308932D01*
X191746002Y-3241054D01*
X191710256Y-3061678D01*
X191669290Y-2971031D01*
X191613117Y-2956352D01*
X191550264Y-2990918D01*
X191294495Y-3132385D01*
X191049554Y-3183122D01*
X190826588Y-3142969D01*
X190636742Y-3011764D01*
X190629608Y-3004204D01*
X190546702Y-2892786D01*
X190441289Y-2720426D01*
X190332405Y-2518901D01*
X190300933Y-2455497D01*
X190103266Y-2047921D01*
X190797971Y-293938D01*
X190957564Y105896D01*
X191107977Y476823D01*
X191244624Y807970D01*
X191362917Y1088467D01*
X191458267Y1307441D01*
X191526087Y1454021D01*
X191561790Y1517333D01*
X191562606Y1518081D01*
X191658431Y1565248D01*
X191799006Y1602961D01*
X191814868Y1605706D01*
X191936813Y1635440D01*
X191987514Y1691007D01*
X191997213Y1793747D01*
X191997225Y1952200D01*
X189863714Y1952200D01*
X189863657Y1787100D01*
X189863657Y1787100D01*
G37*
X189863657Y1787100D02*
X189875847Y1671389D01*
X189925965Y1626456D01*
X189977900Y1621307D01*
X190176288Y1599950D01*
X190288058Y1536131D01*
X190320800Y1434128D01*
X190303352Y1355974D01*
X190255448Y1201753D01*
X190183756Y989529D01*
X190094939Y737368D01*
X189995664Y463337D01*
X189892596Y185502D01*
X189792400Y-78072D01*
X189701741Y-309318D01*
X189627285Y-490170D01*
X189575697Y-602562D01*
X189559940Y-628158D01*
X189530189Y-597242D01*
X189470103Y-487575D01*
X189386579Y-314938D01*
X189286514Y-95112D01*
X189176805Y156122D01*
X189064350Y422983D01*
X188956046Y689690D01*
X188858789Y940462D01*
X188782627Y1150380D01*
X188724279Y1323779D01*
X188698640Y1427351D01*
X188704782Y1487139D01*
X188741779Y1529187D01*
X188768410Y1549380D01*
X188888499Y1600701D01*
X189038328Y1622000D01*
X189153608Y1629925D01*
X189195918Y1672929D01*
X189193719Y1779613D01*
X189177800Y1937226D01*
X187679160Y1952200D01*
X187679180Y1787100D01*
X187694317Y1667433D01*
X187747802Y1623685D01*
X187769497Y1622000D01*
X187925342Y1572826D01*
X188071559Y1431796D01*
X188189914Y1226539D01*
X188234302Y1126502D01*
X188314201Y945243D01*
X188424404Y694622D01*
X188559702Y386500D01*
X188714888Y32738D01*
X188884754Y-354802D01*
X189064092Y-764261D01*
X189086918Y-816400D01*
X189325672Y-1360687D01*
X189528371Y-1819913D01*
X189699001Y-2202393D01*
X189841550Y-2516441D01*
X189960006Y-2770372D01*
X190058357Y-2972501D01*
X190140590Y-3131142D01*
X190210693Y-3254610D01*
X190272653Y-3351220D01*
X190330458Y-3429287D01*
X190353527Y-3457442D01*
X190581369Y-3653907D01*
X190867938Y-3787752D01*
X191187115Y-3852247D01*
X191512779Y-3840659D01*
X191683117Y-3800085D01*
X191794952Y-3753791D01*
X191830175Y-3694776D01*
X191818197Y-3614771D01*
X191789597Y-3483468D01*
X191757290Y-3308932D01*
X191746002Y-3241054D01*
X191710256Y-3061678D01*
X191669290Y-2971031D01*
X191613117Y-2956352D01*
X191550264Y-2990918D01*
X191294495Y-3132385D01*
X191049554Y-3183122D01*
X190826588Y-3142969D01*
X190636742Y-3011764D01*
X190629608Y-3004204D01*
X190546702Y-2892786D01*
X190441289Y-2720426D01*
X190332405Y-2518901D01*
X190300933Y-2455497D01*
X190103266Y-2047921D01*
X190797971Y-293938D01*
X190957564Y105896D01*
X191107977Y476823D01*
X191244624Y807970D01*
X191362917Y1088467D01*
X191458267Y1307441D01*
X191526087Y1454021D01*
X191561790Y1517333D01*
X191562606Y1518081D01*
X191658431Y1565248D01*
X191799006Y1602961D01*
X191814868Y1605706D01*
X191936813Y1635440D01*
X191987514Y1691007D01*
X191997213Y1793747D01*
X191997225Y1952200D01*
X189863714Y1952200D01*
X189863657Y1787100D01*
G36*
X209100499Y2003397D02*
G01*
X208747473Y1897308D01*
X208439752Y1712751D01*
X208394320Y1674616D01*
X208209742Y1477839D01*
X208082460Y1253061D01*
X208002915Y977128D01*
X207961547Y626887D01*
X207961517Y626431D01*
X207935044Y215062D01*
X208132222Y174309D01*
X208244569Y159953D01*
X208438734Y144485D01*
X208694959Y129087D01*
X208993490Y114946D01*
X209314569Y103246D01*
X209320000Y103078D01*
X210310600Y72600D01*
X210294138Y-105200D01*
X210242117Y-333220D01*
X210137547Y-584060D01*
X210001468Y-814815D01*
X209870611Y-968803D01*
X209609869Y-1141006D01*
X209298167Y-1239001D01*
X208956285Y-1260526D01*
X208605004Y-1203315D01*
X208396383Y-1129395D01*
X208248552Y-1071355D01*
X208162116Y-1058157D01*
X208108961Y-1086568D01*
X208101092Y-1095449D01*
X208084312Y-1185718D01*
X208121164Y-1316677D01*
X208197029Y-1453752D01*
X208297288Y-1562369D01*
X208299107Y-1563760D01*
X208442195Y-1641183D01*
X208655678Y-1719347D01*
X208908798Y-1789457D01*
X209170798Y-1842717D01*
X209358100Y-1866613D01*
X209726400Y-1898108D01*
X209726117Y-3122554D01*
X209724107Y-3570338D01*
X209717335Y-3927898D01*
X209704345Y-4206556D01*
X209683680Y-4417633D01*
X209653882Y-4572452D01*
X209613496Y-4682334D01*
X209561063Y-4758602D01*
X209509923Y-4802702D01*
X209490860Y-4810705D01*
X209454993Y-4818147D01*
X209398798Y-4825048D01*
X209318752Y-4831428D01*
X209211330Y-4837307D01*
X209073010Y-4842705D01*
X208900265Y-4847642D01*
X208689574Y-4852137D01*
X208437412Y-4856211D01*
X208140254Y-4859884D01*
X207794578Y-4863176D01*
X207396859Y-4866106D01*
X206943573Y-4868695D01*
X206431196Y-4870962D01*
X205856205Y-4872928D01*
X205215075Y-4874613D01*
X204504283Y-4876036D01*
X203720304Y-4877217D01*
X202859615Y-4878177D01*
X201918692Y-4878935D01*
X200894011Y-4879511D01*
X199782047Y-4879926D01*
X198579278Y-4880199D01*
X197282179Y-4880350D01*
X195887225Y-4880399D01*
X195795897Y-4880400D01*
X182192800Y-4880400D01*
X182192800Y-5388400D01*
X195769100Y-5387188D01*
X197065471Y-5386900D01*
X198316997Y-5386279D01*
X199520369Y-5385337D01*
X200672275Y-5384085D01*
X201769403Y-5382535D01*
X202808445Y-5380697D01*
X203786087Y-5378584D01*
X204699020Y-5376206D01*
X205543932Y-5373575D01*
X206317513Y-5370703D01*
X207016451Y-5367600D01*
X207637435Y-5364279D01*
X208177155Y-5360750D01*
X208632300Y-5357025D01*
X208999558Y-5353116D01*
X209275619Y-5349034D01*
X209457171Y-5344789D01*
X209540905Y-5340395D01*
X209544669Y-5339760D01*
X209809346Y-5236823D01*
X210007519Y-5061083D01*
X210107400Y-4902521D01*
X210137315Y-4836904D01*
X210161011Y-4762800D01*
X210179388Y-4667620D01*
X210193344Y-4538773D01*
X210203777Y-4363669D01*
X210211585Y-4129719D01*
X210217667Y-3824333D01*
X210222921Y-3434921D01*
X210224970Y-3254800D01*
X210230771Y-2873510D01*
X210239102Y-2528065D01*
X210249416Y-2231289D01*
X210261170Y-1996007D01*
X210273820Y-1835045D01*
X210286820Y-1761228D01*
X210288470Y-1758739D01*
X210302435Y-1793288D01*
X210314153Y-1923520D01*
X210323437Y-2143541D01*
X210330102Y-2447453D01*
X210333961Y-2829363D01*
X210334885Y-3231939D01*
X210334059Y-3671700D01*
X210331849Y-4022054D01*
X210327585Y-4295194D01*
X210320596Y-4503312D01*
X210310211Y-4658599D01*
X210295760Y-4773248D01*
X210276571Y-4859448D01*
X210251973Y-4929394D01*
X210239986Y-4956600D01*
X210074782Y-5214290D01*
X209857713Y-5390943D01*
X209760361Y-5436132D01*
X209706403Y-5442292D01*
X209577094Y-5448048D01*
X209370894Y-5453407D01*
X209086266Y-5458375D01*
X208721672Y-5462957D01*
X208275573Y-5467160D01*
X207746430Y-5470990D01*
X207132707Y-5474452D01*
X206432863Y-5477553D01*
X205645361Y-5480298D01*
X204768663Y-5482694D01*
X203801230Y-5484747D01*
X202741524Y-5486462D01*
X201588007Y-5487846D01*
X200339140Y-5488905D01*
X198993385Y-5489644D01*
X197549204Y-5490069D01*
X196005058Y-5490188D01*
X195904661Y-5490185D01*
X194509290Y-5490144D01*
X193211949Y-5490134D01*
X192009067Y-5490181D01*
X190897074Y-5490310D01*
X189872400Y-5490550D01*
X188931473Y-5490926D01*
X188070724Y-5491465D01*
X187286582Y-5492193D01*
X186575477Y-5493137D01*
X185933839Y-5494322D01*
X185358096Y-5495777D01*
X184844679Y-5497526D01*
X184390018Y-5499598D01*
X183990541Y-5502017D01*
X183642679Y-5504810D01*
X183342861Y-5508005D01*
X183087516Y-5511627D01*
X182873075Y-5515703D01*
X182695967Y-5520260D01*
X182552621Y-5525323D01*
X182439467Y-5530919D01*
X182352935Y-5537076D01*
X182289454Y-5543818D01*
X182245455Y-5551174D01*
X182217365Y-5559168D01*
X182201616Y-5567828D01*
X182194637Y-5577180D01*
X182192857Y-5587251D01*
X182192800Y-5591835D01*
X182193421Y-5602209D01*
X182197660Y-5611852D01*
X182209082Y-5620786D01*
X182231252Y-5629036D01*
X182267735Y-5636623D01*
X182322096Y-5643572D01*
X182397900Y-5649905D01*
X182498711Y-5655645D01*
X182628095Y-5660816D01*
X182789616Y-5665440D01*
X182986840Y-5669541D01*
X183223331Y-5673141D01*
X183502654Y-5676264D01*
X183828374Y-5678933D01*
X184204056Y-5681170D01*
X184633265Y-5683000D01*
X185119566Y-5684444D01*
X185666524Y-5685527D01*
X186277703Y-5686270D01*
X186956669Y-5686698D01*
X187706986Y-5686833D01*
X188532220Y-5686699D01*
X189435935Y-5686318D01*
X190421696Y-5685713D01*
X191493068Y-5684908D01*
X192653616Y-5683926D01*
X193906905Y-5682789D01*
X195256500Y-5681521D01*
X195946900Y-5680866D01*
X209701000Y-5667800D01*
X209913958Y-5553968D01*
X210165845Y-5365675D01*
X210369778Y-5104740D01*
X210446020Y-4956374D01*
X210467305Y-4873354D01*
X210485599Y-4724991D01*
X210501266Y-4504373D01*
X210514672Y-4204586D01*
X210526182Y-3818717D01*
X210536163Y-3339853D01*
X210538406Y-3208171D01*
X210546930Y-2742338D01*
X210555921Y-2369398D01*
X210565876Y-2080642D01*
X210577292Y-1867365D01*
X210590664Y-1720858D01*
X210606491Y-1632414D01*
X210625267Y-1593326D01*
X210630666Y-1590183D01*
X210648936Y-1600990D01*
X210663249Y-1652789D01*
X210673873Y-1754362D01*
X210681072Y-1914494D01*
X210685115Y-2141968D01*
X210686269Y-2445567D01*
X210684800Y-2834075D01*
X210681466Y-3262411D01*
X210677149Y-3722292D01*
X210672816Y-4092250D01*
X210667644Y-4383955D01*
X210660811Y-4609082D01*
X210651492Y-4779302D01*
X210638866Y-4906289D01*
X210622109Y-5001714D01*
X210600398Y-5077251D01*
X210572909Y-5144572D01*
X210544580Y-5203661D01*
X210367894Y-5450787D01*
X210114068Y-5643886D01*
X209797726Y-5772546D01*
X209718902Y-5791662D01*
X209648147Y-5797879D01*
X209494973Y-5803692D01*
X209258212Y-5809106D01*
X208936696Y-5814126D01*
X208529258Y-5818757D01*
X208034731Y-5823002D01*
X207451946Y-5826866D01*
X206779736Y-5830354D01*
X206016933Y-5833471D01*
X205162370Y-5836221D01*
X204214879Y-5838608D01*
X203173292Y-5840637D01*
X202036442Y-5842312D01*
X200803161Y-5843638D01*
X199472281Y-5844621D01*
X198042635Y-5845263D01*
X196513056Y-5845570D01*
X195830100Y-5845600D01*
X194426696Y-5845644D01*
X193121418Y-5845792D01*
X191910792Y-5846062D01*
X190791345Y-5846474D01*
X189759601Y-5847047D01*
X188812088Y-5847800D01*
X187945332Y-5848754D01*
X187155858Y-5849926D01*
X186440193Y-5851337D01*
X185794863Y-5853007D01*
X185216393Y-5854954D01*
X184701311Y-5857198D01*
X184246141Y-5859758D01*
X183847411Y-5862654D01*
X183501646Y-5865906D01*
X183205372Y-5869532D01*
X182955116Y-5873552D01*
X182747403Y-5877985D01*
X182578759Y-5882851D01*
X182445711Y-5888170D01*
X182344785Y-5893960D01*
X182272507Y-5900241D01*
X182225403Y-5907033D01*
X182199999Y-5914355D01*
X182192800Y-5921800D01*
X182200838Y-5929608D01*
X182227256Y-5936870D01*
X182275513Y-5943606D01*
X182349070Y-5949833D01*
X182451386Y-5955570D01*
X182585920Y-5960836D01*
X182756130Y-5965650D01*
X182965477Y-5970031D01*
X183217420Y-5973997D01*
X183515418Y-5977567D01*
X183862930Y-5980759D01*
X184263416Y-5983594D01*
X184720335Y-5986088D01*
X185237146Y-5988262D01*
X185817309Y-5990133D01*
X186464282Y-5991721D01*
X187181526Y-5993045D01*
X187972499Y-5994122D01*
X188840661Y-5994972D01*
X189789471Y-5995614D01*
X190822388Y-5996066D01*
X191942873Y-5996346D01*
X193154383Y-5996475D01*
X194460378Y-5996470D01*
X195864318Y-5996351D01*
X195946900Y-5996341D01*
X197346337Y-5996154D01*
X198647804Y-5995924D01*
X199854930Y-5995628D01*
X200971345Y-5995242D01*
X202000679Y-5994739D01*
X202946563Y-5994097D01*
X203812625Y-5993289D01*
X204602495Y-5992293D01*
X205319804Y-5991082D01*
X205968181Y-5989634D01*
X206551255Y-5987922D01*
X207072657Y-5985922D01*
X207536017Y-5983610D01*
X207944963Y-5980962D01*
X208303126Y-5977952D01*
X208614137Y-5974556D01*
X208881623Y-5970750D01*
X209109216Y-5966509D01*
X209300545Y-5961808D01*
X209459239Y-5956623D01*
X209588929Y-5950929D01*
X209693245Y-5944702D01*
X209775815Y-5937916D01*
X209840271Y-5930549D01*
X209890241Y-5922574D01*
X209929356Y-5913967D01*
X209961245Y-5904705D01*
X209971124Y-5901388D01*
X210280189Y-5742764D01*
X210543089Y-5503244D01*
X210708752Y-5261400D01*
X210737689Y-5204290D01*
X210761173Y-5143645D01*
X210779880Y-5068518D01*
X210794486Y-4967965D01*
X210805667Y-4831039D01*
X210814101Y-4646795D01*
X210820463Y-4404287D01*
X210825430Y-4092571D01*
X210829678Y-3700700D01*
X210833705Y-3239390D01*
X210848809Y-1420580D01*
X211017096Y-1200112D01*
X211185099Y-914883D01*
X211292609Y-573570D01*
X211342146Y-165275D01*
X211342168Y206522D01*
X211306223Y604935D01*
X211298262Y637639D01*
X210337979Y637639D01*
X210311337Y552932D01*
X210239039Y509977D01*
X210114304Y489891D01*
X210094700Y488049D01*
X209900019Y478929D01*
X209671715Y480027D01*
X209553849Y485266D01*
X209368211Y495843D01*
X209207781Y502792D01*
X209134749Y504400D01*
X209065155Y513149D01*
X209029531Y556188D01*
X209016667Y658703D01*
X209015200Y773037D01*
X209050579Y1069852D01*
X209149977Y1310452D01*
X209303290Y1485006D01*
X209500411Y1583681D01*
X209731235Y1596645D01*
X209837975Y1573526D01*
X210037888Y1471736D01*
X210180920Y1296769D01*
X210274352Y1039339D01*
X210281433Y1007839D01*
X210325750Y782981D01*
X210337979Y637639D01*
X211298262Y637639D01*
X211227186Y929591D01*
X211093511Y1197668D01*
X210893652Y1426344D01*
X210616063Y1632799D01*
X210249198Y1834210D01*
X210247656Y1834969D01*
X209868965Y1973818D01*
X209480454Y2029431D01*
X209100499Y2003397D01*
X209100499Y2003397D01*
G37*
X209100499Y2003397D02*
X208747473Y1897308D01*
X208439752Y1712751D01*
X208394320Y1674616D01*
X208209742Y1477839D01*
X208082460Y1253061D01*
X208002915Y977128D01*
X207961547Y626887D01*
X207961517Y626431D01*
X207935044Y215062D01*
X208132222Y174309D01*
X208244569Y159953D01*
X208438734Y144485D01*
X208694959Y129087D01*
X208993490Y114946D01*
X209314569Y103246D01*
X209320000Y103078D01*
X210310600Y72600D01*
X210294138Y-105200D01*
X210242117Y-333220D01*
X210137547Y-584060D01*
X210001468Y-814815D01*
X209870611Y-968803D01*
X209609869Y-1141006D01*
X209298167Y-1239001D01*
X208956285Y-1260526D01*
X208605004Y-1203315D01*
X208396383Y-1129395D01*
X208248552Y-1071355D01*
X208162116Y-1058157D01*
X208108961Y-1086568D01*
X208101092Y-1095449D01*
X208084312Y-1185718D01*
X208121164Y-1316677D01*
X208197029Y-1453752D01*
X208297288Y-1562369D01*
X208299107Y-1563760D01*
X208442195Y-1641183D01*
X208655678Y-1719347D01*
X208908798Y-1789457D01*
X209170798Y-1842717D01*
X209358100Y-1866613D01*
X209726400Y-1898108D01*
X209726117Y-3122554D01*
X209724107Y-3570338D01*
X209717335Y-3927898D01*
X209704345Y-4206556D01*
X209683680Y-4417633D01*
X209653882Y-4572452D01*
X209613496Y-4682334D01*
X209561063Y-4758602D01*
X209509923Y-4802702D01*
X209490860Y-4810705D01*
X209454993Y-4818147D01*
X209398798Y-4825048D01*
X209318752Y-4831428D01*
X209211330Y-4837307D01*
X209073010Y-4842705D01*
X208900265Y-4847642D01*
X208689574Y-4852137D01*
X208437412Y-4856211D01*
X208140254Y-4859884D01*
X207794578Y-4863176D01*
X207396859Y-4866106D01*
X206943573Y-4868695D01*
X206431196Y-4870962D01*
X205856205Y-4872928D01*
X205215075Y-4874613D01*
X204504283Y-4876036D01*
X203720304Y-4877217D01*
X202859615Y-4878177D01*
X201918692Y-4878935D01*
X200894011Y-4879511D01*
X199782047Y-4879926D01*
X198579278Y-4880199D01*
X197282179Y-4880350D01*
X195887225Y-4880399D01*
X195795897Y-4880400D01*
X182192800Y-4880400D01*
X182192800Y-5388400D01*
X195769100Y-5387188D01*
X197065471Y-5386900D01*
X198316997Y-5386279D01*
X199520369Y-5385337D01*
X200672275Y-5384085D01*
X201769403Y-5382535D01*
X202808445Y-5380697D01*
X203786087Y-5378584D01*
X204699020Y-5376206D01*
X205543932Y-5373575D01*
X206317513Y-5370703D01*
X207016451Y-5367600D01*
X207637435Y-5364279D01*
X208177155Y-5360750D01*
X208632300Y-5357025D01*
X208999558Y-5353116D01*
X209275619Y-5349034D01*
X209457171Y-5344789D01*
X209540905Y-5340395D01*
X209544669Y-5339760D01*
X209809346Y-5236823D01*
X210007519Y-5061083D01*
X210107400Y-4902521D01*
X210137315Y-4836904D01*
X210161011Y-4762800D01*
X210179388Y-4667620D01*
X210193344Y-4538773D01*
X210203777Y-4363669D01*
X210211585Y-4129719D01*
X210217667Y-3824333D01*
X210222921Y-3434921D01*
X210224970Y-3254800D01*
X210230771Y-2873510D01*
X210239102Y-2528065D01*
X210249416Y-2231289D01*
X210261170Y-1996007D01*
X210273820Y-1835045D01*
X210286820Y-1761228D01*
X210288470Y-1758739D01*
X210302435Y-1793288D01*
X210314153Y-1923520D01*
X210323437Y-2143541D01*
X210330102Y-2447453D01*
X210333961Y-2829363D01*
X210334885Y-3231939D01*
X210334059Y-3671700D01*
X210331849Y-4022054D01*
X210327585Y-4295194D01*
X210320596Y-4503312D01*
X210310211Y-4658599D01*
X210295760Y-4773248D01*
X210276571Y-4859448D01*
X210251973Y-4929394D01*
X210239986Y-4956600D01*
X210074782Y-5214290D01*
X209857713Y-5390943D01*
X209760361Y-5436132D01*
X209706403Y-5442292D01*
X209577094Y-5448048D01*
X209370894Y-5453407D01*
X209086266Y-5458375D01*
X208721672Y-5462957D01*
X208275573Y-5467160D01*
X207746430Y-5470990D01*
X207132707Y-5474452D01*
X206432863Y-5477553D01*
X205645361Y-5480298D01*
X204768663Y-5482694D01*
X203801230Y-5484747D01*
X202741524Y-5486462D01*
X201588007Y-5487846D01*
X200339140Y-5488905D01*
X198993385Y-5489644D01*
X197549204Y-5490069D01*
X196005058Y-5490188D01*
X195904661Y-5490185D01*
X194509290Y-5490144D01*
X193211949Y-5490134D01*
X192009067Y-5490181D01*
X190897074Y-5490310D01*
X189872400Y-5490550D01*
X188931473Y-5490926D01*
X188070724Y-5491465D01*
X187286582Y-5492193D01*
X186575477Y-5493137D01*
X185933839Y-5494322D01*
X185358096Y-5495777D01*
X184844679Y-5497526D01*
X184390018Y-5499598D01*
X183990541Y-5502017D01*
X183642679Y-5504810D01*
X183342861Y-5508005D01*
X183087516Y-5511627D01*
X182873075Y-5515703D01*
X182695967Y-5520260D01*
X182552621Y-5525323D01*
X182439467Y-5530919D01*
X182352935Y-5537076D01*
X182289454Y-5543818D01*
X182245455Y-5551174D01*
X182217365Y-5559168D01*
X182201616Y-5567828D01*
X182194637Y-5577180D01*
X182192857Y-5587251D01*
X182192800Y-5591835D01*
X182193421Y-5602209D01*
X182197660Y-5611852D01*
X182209082Y-5620786D01*
X182231252Y-5629036D01*
X182267735Y-5636623D01*
X182322096Y-5643572D01*
X182397900Y-5649905D01*
X182498711Y-5655645D01*
X182628095Y-5660816D01*
X182789616Y-5665440D01*
X182986840Y-5669541D01*
X183223331Y-5673141D01*
X183502654Y-5676264D01*
X183828374Y-5678933D01*
X184204056Y-5681170D01*
X184633265Y-5683000D01*
X185119566Y-5684444D01*
X185666524Y-5685527D01*
X186277703Y-5686270D01*
X186956669Y-5686698D01*
X187706986Y-5686833D01*
X188532220Y-5686699D01*
X189435935Y-5686318D01*
X190421696Y-5685713D01*
X191493068Y-5684908D01*
X192653616Y-5683926D01*
X193906905Y-5682789D01*
X195256500Y-5681521D01*
X195946900Y-5680866D01*
X209701000Y-5667800D01*
X209913958Y-5553968D01*
X210165845Y-5365675D01*
X210369778Y-5104740D01*
X210446020Y-4956374D01*
X210467305Y-4873354D01*
X210485599Y-4724991D01*
X210501266Y-4504373D01*
X210514672Y-4204586D01*
X210526182Y-3818717D01*
X210536163Y-3339853D01*
X210538406Y-3208171D01*
X210546930Y-2742338D01*
X210555921Y-2369398D01*
X210565876Y-2080642D01*
X210577292Y-1867365D01*
X210590664Y-1720858D01*
X210606491Y-1632414D01*
X210625267Y-1593326D01*
X210630666Y-1590183D01*
X210648936Y-1600990D01*
X210663249Y-1652789D01*
X210673873Y-1754362D01*
X210681072Y-1914494D01*
X210685115Y-2141968D01*
X210686269Y-2445567D01*
X210684800Y-2834075D01*
X210681466Y-3262411D01*
X210677149Y-3722292D01*
X210672816Y-4092250D01*
X210667644Y-4383955D01*
X210660811Y-4609082D01*
X210651492Y-4779302D01*
X210638866Y-4906289D01*
X210622109Y-5001714D01*
X210600398Y-5077251D01*
X210572909Y-5144572D01*
X210544580Y-5203661D01*
X210367894Y-5450787D01*
X210114068Y-5643886D01*
X209797726Y-5772546D01*
X209718902Y-5791662D01*
X209648147Y-5797879D01*
X209494973Y-5803692D01*
X209258212Y-5809106D01*
X208936696Y-5814126D01*
X208529258Y-5818757D01*
X208034731Y-5823002D01*
X207451946Y-5826866D01*
X206779736Y-5830354D01*
X206016933Y-5833471D01*
X205162370Y-5836221D01*
X204214879Y-5838608D01*
X203173292Y-5840637D01*
X202036442Y-5842312D01*
X200803161Y-5843638D01*
X199472281Y-5844621D01*
X198042635Y-5845263D01*
X196513056Y-5845570D01*
X195830100Y-5845600D01*
X194426696Y-5845644D01*
X193121418Y-5845792D01*
X191910792Y-5846062D01*
X190791345Y-5846474D01*
X189759601Y-5847047D01*
X188812088Y-5847800D01*
X187945332Y-5848754D01*
X187155858Y-5849926D01*
X186440193Y-5851337D01*
X185794863Y-5853007D01*
X185216393Y-5854954D01*
X184701311Y-5857198D01*
X184246141Y-5859758D01*
X183847411Y-5862654D01*
X183501646Y-5865906D01*
X183205372Y-5869532D01*
X182955116Y-5873552D01*
X182747403Y-5877985D01*
X182578759Y-5882851D01*
X182445711Y-5888170D01*
X182344785Y-5893960D01*
X182272507Y-5900241D01*
X182225403Y-5907033D01*
X182199999Y-5914355D01*
X182192800Y-5921800D01*
X182200838Y-5929608D01*
X182227256Y-5936870D01*
X182275513Y-5943606D01*
X182349070Y-5949833D01*
X182451386Y-5955570D01*
X182585920Y-5960836D01*
X182756130Y-5965650D01*
X182965477Y-5970031D01*
X183217420Y-5973997D01*
X183515418Y-5977567D01*
X183862930Y-5980759D01*
X184263416Y-5983594D01*
X184720335Y-5986088D01*
X185237146Y-5988262D01*
X185817309Y-5990133D01*
X186464282Y-5991721D01*
X187181526Y-5993045D01*
X187972499Y-5994122D01*
X188840661Y-5994972D01*
X189789471Y-5995614D01*
X190822388Y-5996066D01*
X191942873Y-5996346D01*
X193154383Y-5996475D01*
X194460378Y-5996470D01*
X195864318Y-5996351D01*
X195946900Y-5996341D01*
X197346337Y-5996154D01*
X198647804Y-5995924D01*
X199854930Y-5995628D01*
X200971345Y-5995242D01*
X202000679Y-5994739D01*
X202946563Y-5994097D01*
X203812625Y-5993289D01*
X204602495Y-5992293D01*
X205319804Y-5991082D01*
X205968181Y-5989634D01*
X206551255Y-5987922D01*
X207072657Y-5985922D01*
X207536017Y-5983610D01*
X207944963Y-5980962D01*
X208303126Y-5977952D01*
X208614137Y-5974556D01*
X208881623Y-5970750D01*
X209109216Y-5966509D01*
X209300545Y-5961808D01*
X209459239Y-5956623D01*
X209588929Y-5950929D01*
X209693245Y-5944702D01*
X209775815Y-5937916D01*
X209840271Y-5930549D01*
X209890241Y-5922574D01*
X209929356Y-5913967D01*
X209961245Y-5904705D01*
X209971124Y-5901388D01*
X210280189Y-5742764D01*
X210543089Y-5503244D01*
X210708752Y-5261400D01*
X210737689Y-5204290D01*
X210761173Y-5143645D01*
X210779880Y-5068518D01*
X210794486Y-4967965D01*
X210805667Y-4831039D01*
X210814101Y-4646795D01*
X210820463Y-4404287D01*
X210825430Y-4092571D01*
X210829678Y-3700700D01*
X210833705Y-3239390D01*
X210848809Y-1420580D01*
X211017096Y-1200112D01*
X211185099Y-914883D01*
X211292609Y-573570D01*
X211342146Y-165275D01*
X211342168Y206522D01*
X211306223Y604935D01*
X211298262Y637639D01*
X210337979Y637639D01*
X210311337Y552932D01*
X210239039Y509977D01*
X210114304Y489891D01*
X210094700Y488049D01*
X209900019Y478929D01*
X209671715Y480027D01*
X209553849Y485266D01*
X209368211Y495843D01*
X209207781Y502792D01*
X209134749Y504400D01*
X209065155Y513149D01*
X209029531Y556188D01*
X209016667Y658703D01*
X209015200Y773037D01*
X209050579Y1069852D01*
X209149977Y1310452D01*
X209303290Y1485006D01*
X209500411Y1583681D01*
X209731235Y1596645D01*
X209837975Y1573526D01*
X210037888Y1471736D01*
X210180920Y1296769D01*
X210274352Y1039339D01*
X210281433Y1007839D01*
X210325750Y782981D01*
X210337979Y637639D01*
X211298262Y637639D01*
X211227186Y929591D01*
X211093511Y1197668D01*
X210893652Y1426344D01*
X210616063Y1632799D01*
X210249198Y1834210D01*
X210247656Y1834969D01*
X209868965Y1973818D01*
X209480454Y2029431D01*
X209100499Y2003397D01*
D11*
G04 #@! TO.C,D44*
X258842000Y14824000D02*
X258842000Y10924000D01*
X260842000Y14824000D02*
X260842000Y10924000D01*
X258842000Y14824000D02*
X260842000Y14824000D01*
G04 #@! TO.C,D65*
X250968000Y53558000D02*
X250968000Y49658000D01*
X252968000Y53558000D02*
X252968000Y49658000D01*
X250968000Y53558000D02*
X252968000Y53558000D01*
G04 #@! TO.C,D60*
X231461861Y55348214D02*
X231461861Y51448214D01*
X233461861Y55348214D02*
X233461861Y51448214D01*
X231461861Y55348214D02*
X233461861Y55348214D01*
G04 #@! TO.C,D6*
X-6588000Y90260000D02*
X-6588000Y86360000D01*
X-4588000Y90260000D02*
X-4588000Y86360000D01*
X-6588000Y90260000D02*
X-4588000Y90260000D01*
G04 #@! TO.C,Y1*
X61232800Y51055000D02*
X57232800Y51055000D01*
X61232800Y54355000D02*
X61232800Y51055000D01*
G04 #@! TO.C,R6*
X53725578Y32183000D02*
X53208422Y32183000D01*
X53725578Y33603000D02*
X53208422Y33603000D01*
G04 #@! TO.C,R5*
X-577322Y89460000D02*
X-1094478Y89460000D01*
X-577322Y90880000D02*
X-1094478Y90880000D01*
G04 #@! TO.C,R4*
X6853422Y89533800D02*
X7370578Y89533800D01*
X6853422Y88113800D02*
X7370578Y88113800D01*
G04 #@! TO.C,R3*
X-1726000Y78280522D02*
X-1726000Y78797678D01*
X-306000Y78280522D02*
X-306000Y78797678D01*
G04 #@! TO.C,R2*
X255200Y78280522D02*
X255200Y78797678D01*
X1675200Y78280522D02*
X1675200Y78797678D01*
G04 #@! TO.C,R1*
X55119200Y57701922D02*
X55119200Y58219078D01*
X56539200Y57701922D02*
X56539200Y58219078D01*
D12*
G04 #@! TO.C,J1*
X45720000Y68580000D02*
X45720000Y63500000D01*
X53340000Y68580000D02*
X45720000Y68580000D01*
X53340000Y63500000D02*
X53340000Y68580000D01*
X45720000Y63500000D02*
X53340000Y63500000D01*
D11*
G04 #@! TO.C,F1*
X12577536Y85898400D02*
X13781664Y85898400D01*
X12577536Y84078400D02*
X13781664Y84078400D01*
D13*
G04 #@! TO.C,D79*
X409600Y84013200D02*
X409600Y84213200D01*
X109600Y84013200D02*
X409600Y84013200D01*
X409600Y87213200D02*
X209600Y87213200D01*
X409600Y87013200D02*
X409600Y87213200D01*
X-1190400Y87213200D02*
X-1190400Y87013200D01*
X-890400Y87213200D02*
X-1190400Y87213200D01*
X-1190400Y84313200D02*
X-1390400Y84313200D01*
X-1190400Y84263200D02*
X-1190400Y84313200D01*
X-940400Y84013200D02*
X-1190400Y84263200D01*
X-790400Y84013200D02*
X-940400Y84013200D01*
D11*
G04 #@! TO.C,C8*
X59830612Y42292704D02*
X60196296Y42658388D01*
X60834704Y41288612D02*
X61200388Y41654296D01*
G04 #@! TO.C,C7*
X43731922Y53542000D02*
X44249078Y53542000D01*
X43731922Y52122000D02*
X44249078Y52122000D01*
G04 #@! TO.C,C6*
X42822335Y60237413D02*
X43339491Y60237413D01*
X42822335Y58817413D02*
X43339491Y58817413D01*
G04 #@! TO.C,C5*
X59315878Y54687400D02*
X58798722Y54687400D01*
X59315878Y56107400D02*
X58798722Y56107400D01*
G04 #@! TO.C,C4*
X63041600Y52940478D02*
X63041600Y52423322D01*
X61621600Y52940478D02*
X61621600Y52423322D01*
G04 #@! TO.C,C3*
X55020978Y54509600D02*
X54503822Y54509600D01*
X55020978Y55929600D02*
X54503822Y55929600D01*
G04 #@! TO.C,C2*
X41781296Y42241112D02*
X41415612Y42606796D01*
X42785388Y43245204D02*
X42419704Y43610888D01*
G04 #@! TO.C,C1*
X40915975Y48801883D02*
X40550291Y48436199D01*
X39911883Y49805975D02*
X39546199Y49440291D01*
D14*
G04 #@! TO.C,U1*
X44294431Y45059786D02*
X43392870Y45961348D01*
X51206400Y37334645D02*
X50729103Y37811942D01*
X58524955Y44653200D02*
X58047658Y45130497D01*
X51206400Y51971755D02*
X51683697Y51494458D01*
X43887845Y44653200D02*
X44365142Y44175903D01*
X51206400Y51971755D02*
X50729103Y51494458D01*
X58524955Y44653200D02*
X58047658Y44175903D01*
X51206400Y37334645D02*
X51683697Y37811942D01*
X43887845Y44653200D02*
X44294431Y45059786D01*
D11*
G04 #@! TO.C,D88*
X332769374Y92045672D02*
X332769374Y88145672D01*
X334769374Y92045672D02*
X334769374Y88145672D01*
X332769374Y92045672D02*
X334769374Y92045672D01*
G04 #@! TO.C,D87*
X314976000Y55336000D02*
X314976000Y51436000D01*
X316976000Y55336000D02*
X316976000Y51436000D01*
X314976000Y55336000D02*
X316976000Y55336000D01*
G04 #@! TO.C,D86*
X332084946Y15790132D02*
X332084946Y11890132D01*
X334084946Y15790132D02*
X334084946Y11890132D01*
X332084946Y15790132D02*
X334084946Y15790132D01*
G04 #@! TO.C,D85*
X318700000Y34254000D02*
X318700000Y30354000D01*
X320700000Y34254000D02*
X320700000Y30354000D01*
X318700000Y34254000D02*
X320700000Y34254000D01*
G04 #@! TO.C,D84*
X321072000Y72354000D02*
X321072000Y68454000D01*
X323072000Y72354000D02*
X323072000Y68454000D01*
X321072000Y72354000D02*
X323072000Y72354000D01*
G04 #@! TO.C,D83*
X300244000Y90260000D02*
X300244000Y86360000D01*
X302244000Y90260000D02*
X302244000Y86360000D01*
X300244000Y90260000D02*
X302244000Y90260000D01*
G04 #@! TO.C,D82*
X313071000Y16093000D02*
X313071000Y12193000D01*
X315071000Y16093000D02*
X315071000Y12193000D01*
X313071000Y16093000D02*
X315071000Y16093000D01*
G04 #@! TO.C,D78*
X297704000Y70956000D02*
X297704000Y67056000D01*
X299704000Y70956000D02*
X299704000Y67056000D01*
X297704000Y70956000D02*
X299704000Y70956000D01*
G04 #@! TO.C,D77*
X294072321Y91991021D02*
X294072321Y88091021D01*
X296072321Y91991021D02*
X296072321Y88091021D01*
X294072321Y91991021D02*
X296072321Y91991021D01*
G04 #@! TO.C,D76*
X290592000Y35778000D02*
X290592000Y31878000D01*
X292592000Y35778000D02*
X292592000Y31878000D01*
X290592000Y35778000D02*
X292592000Y35778000D01*
G04 #@! TO.C,D75*
X297958000Y14697000D02*
X297958000Y10797000D01*
X299958000Y14697000D02*
X299958000Y10797000D01*
X297958000Y14697000D02*
X299958000Y14697000D01*
G04 #@! TO.C,D74*
X289068000Y53558000D02*
X289068000Y49658000D01*
X291068000Y53558000D02*
X291068000Y49658000D01*
X289068000Y53558000D02*
X291068000Y53558000D01*
G04 #@! TO.C,D73*
X278400000Y72354000D02*
X278400000Y68454000D01*
X280400000Y72354000D02*
X280400000Y68454000D01*
X278400000Y72354000D02*
X280400000Y72354000D01*
G04 #@! TO.C,D72*
X274844000Y90134000D02*
X274844000Y86234000D01*
X276844000Y90134000D02*
X276844000Y86234000D01*
X274844000Y90134000D02*
X276844000Y90134000D01*
G04 #@! TO.C,D71*
X244110000Y15713000D02*
X244110000Y11813000D01*
X246110000Y15713000D02*
X246110000Y11813000D01*
X244110000Y15713000D02*
X246110000Y15713000D01*
G04 #@! TO.C,D70*
X273320000Y37176000D02*
X273320000Y33276000D01*
X275320000Y37176000D02*
X275320000Y33276000D01*
X273320000Y37176000D02*
X275320000Y37176000D01*
G04 #@! TO.C,D69*
X269648335Y55369629D02*
X269648335Y51469629D01*
X271648335Y55369629D02*
X271648335Y51469629D01*
X269648335Y55369629D02*
X271648335Y55369629D01*
G04 #@! TO.C,D68*
X265700000Y70956000D02*
X265700000Y67056000D01*
X267700000Y70956000D02*
X267700000Y67056000D01*
X265700000Y70956000D02*
X267700000Y70956000D01*
G04 #@! TO.C,D67*
X255855982Y91941485D02*
X255855982Y88041485D01*
X257855982Y91941485D02*
X257855982Y88041485D01*
X255855982Y91941485D02*
X257855982Y91941485D01*
G04 #@! TO.C,D66*
X260620000Y35778000D02*
X260620000Y31878000D01*
X262620000Y35778000D02*
X262620000Y31878000D01*
X260620000Y35778000D02*
X262620000Y35778000D01*
G04 #@! TO.C,D64*
X246904000Y72354000D02*
X246904000Y68454000D01*
X248904000Y72354000D02*
X248904000Y68454000D01*
X246904000Y72354000D02*
X248904000Y72354000D01*
G04 #@! TO.C,D63*
X236940440Y90119988D02*
X236940440Y86219988D01*
X238940440Y90119988D02*
X238940440Y86219988D01*
X236940440Y90119988D02*
X238940440Y90119988D01*
G04 #@! TO.C,D61*
X241316000Y37180303D02*
X241316000Y33280303D01*
X243316000Y37180303D02*
X243316000Y33280303D01*
X241316000Y37180303D02*
X243316000Y37180303D01*
G04 #@! TO.C,D59*
X227600000Y70956000D02*
X227600000Y67056000D01*
X229600000Y70956000D02*
X229600000Y67056000D01*
X227600000Y70956000D02*
X229600000Y70956000D01*
G04 #@! TO.C,D58*
X217940828Y91969508D02*
X217940828Y88069508D01*
X219940828Y91969508D02*
X219940828Y88069508D01*
X217940828Y91969508D02*
X219940828Y91969508D01*
G04 #@! TO.C,D57*
X222520000Y35778000D02*
X222520000Y31878000D01*
X224520000Y35778000D02*
X224520000Y31878000D01*
X222520000Y35778000D02*
X224520000Y35778000D01*
G04 #@! TO.C,D56*
X212868000Y53558000D02*
X212868000Y49658000D01*
X214868000Y53558000D02*
X214868000Y49658000D01*
X212868000Y53558000D02*
X214868000Y53558000D01*
G04 #@! TO.C,D55*
X208296000Y72354000D02*
X208296000Y68454000D01*
X210296000Y72354000D02*
X210296000Y68454000D01*
X208296000Y72354000D02*
X210296000Y72354000D01*
G04 #@! TO.C,D54*
X199003846Y90134000D02*
X199003846Y86234000D01*
X201003846Y90134000D02*
X201003846Y86234000D01*
X199003846Y90134000D02*
X201003846Y90134000D01*
G04 #@! TO.C,D53*
X199406000Y15712000D02*
X199406000Y11812000D01*
X201406000Y15712000D02*
X201406000Y11812000D01*
X199406000Y15712000D02*
X201406000Y15712000D01*
G04 #@! TO.C,D52*
X203231923Y36921548D02*
X203231923Y33021548D01*
X205231923Y36921548D02*
X205231923Y33021548D01*
X203231923Y36921548D02*
X205231923Y36921548D01*
G04 #@! TO.C,D51*
X193539062Y55471296D02*
X193539062Y51571296D01*
X195539062Y55471296D02*
X195539062Y51571296D01*
X193539062Y55471296D02*
X195539062Y55471296D01*
G04 #@! TO.C,D50*
X189500000Y70956000D02*
X189500000Y67056000D01*
X191500000Y70956000D02*
X191500000Y67056000D01*
X189500000Y70956000D02*
X191500000Y70956000D01*
G04 #@! TO.C,D49*
X179836096Y92018261D02*
X179836096Y88118261D01*
X181836096Y92018261D02*
X181836096Y88118261D01*
X179836096Y92018261D02*
X181836096Y92018261D01*
G04 #@! TO.C,D48*
X184928000Y35904000D02*
X184928000Y32004000D01*
X186928000Y35904000D02*
X186928000Y32004000D01*
X184928000Y35904000D02*
X186928000Y35904000D01*
G04 #@! TO.C,D47*
X175276000Y53558000D02*
X175276000Y49658000D01*
X177276000Y53558000D02*
X177276000Y49658000D01*
X175276000Y53558000D02*
X177276000Y53558000D01*
G04 #@! TO.C,D46*
X170167682Y72291097D02*
X170167682Y68391097D01*
X172167682Y72291097D02*
X172167682Y68391097D01*
X170167682Y72291097D02*
X172167682Y72291097D01*
G04 #@! TO.C,D45*
X160544000Y90134000D02*
X160544000Y86234000D01*
X162544000Y90134000D02*
X162544000Y86234000D01*
X160544000Y90134000D02*
X162544000Y90134000D01*
G04 #@! TO.C,D43*
X165116000Y36920000D02*
X165116000Y33020000D01*
X167116000Y36920000D02*
X167116000Y33020000D01*
X165116000Y36920000D02*
X167116000Y36920000D01*
G04 #@! TO.C,D42*
X155407152Y55480050D02*
X155407152Y51580050D01*
X157407152Y55480050D02*
X157407152Y51580050D01*
X155407152Y55480050D02*
X157407152Y55480050D01*
G04 #@! TO.C,D41*
X151400000Y70956000D02*
X151400000Y67056000D01*
X153400000Y70956000D02*
X153400000Y67056000D01*
X151400000Y70956000D02*
X153400000Y70956000D01*
G04 #@! TO.C,D40*
X141735991Y91984633D02*
X141735991Y88084633D01*
X143735991Y91984633D02*
X143735991Y88084633D01*
X141735991Y91984633D02*
X143735991Y91984633D01*
G04 #@! TO.C,D39*
X146320000Y35904000D02*
X146320000Y32004000D01*
X148320000Y35904000D02*
X148320000Y32004000D01*
X146320000Y35904000D02*
X148320000Y35904000D01*
G04 #@! TO.C,D38*
X136956227Y53518600D02*
X136956227Y49618600D01*
X138956227Y53518600D02*
X138956227Y49618600D01*
X136956227Y53518600D02*
X138956227Y53518600D01*
G04 #@! TO.C,D37*
X132096000Y72354000D02*
X132096000Y68454000D01*
X134096000Y72354000D02*
X134096000Y68454000D01*
X132096000Y72354000D02*
X134096000Y72354000D01*
G04 #@! TO.C,D36*
X122672581Y90306169D02*
X122672581Y86406169D01*
X124672581Y90306169D02*
X124672581Y86406169D01*
X122672581Y90306169D02*
X124672581Y90306169D01*
G04 #@! TO.C,D35*
X118380000Y13552000D02*
X118380000Y9652000D01*
X120380000Y13552000D02*
X120380000Y9652000D01*
X118380000Y13552000D02*
X120380000Y13552000D01*
G04 #@! TO.C,D34*
X127016000Y36920000D02*
X127016000Y33020000D01*
X129016000Y36920000D02*
X129016000Y33020000D01*
X127016000Y36920000D02*
X129016000Y36920000D01*
G04 #@! TO.C,D33*
X117650577Y55505173D02*
X117650577Y51605173D01*
X119650577Y55505173D02*
X119650577Y51605173D01*
X117650577Y55505173D02*
X119650577Y55505173D01*
G04 #@! TO.C,D32*
X113094404Y70939064D02*
X113094404Y67039064D01*
X115094404Y70939064D02*
X115094404Y67039064D01*
X113094404Y70939064D02*
X115094404Y70939064D01*
G04 #@! TO.C,D31*
X103666244Y92041354D02*
X103666244Y88141354D01*
X105666244Y92041354D02*
X105666244Y88141354D01*
X103666244Y92041354D02*
X105666244Y92041354D01*
G04 #@! TO.C,D30*
X95520000Y15966000D02*
X95520000Y12066000D01*
X97520000Y15966000D02*
X97520000Y12066000D01*
X95520000Y15966000D02*
X97520000Y15966000D01*
G04 #@! TO.C,D29*
X108220000Y35904000D02*
X108220000Y32004000D01*
X110220000Y35904000D02*
X110220000Y32004000D01*
X108220000Y35904000D02*
X110220000Y35904000D01*
G04 #@! TO.C,D28*
X98800714Y53510479D02*
X98800714Y49610479D01*
X100800714Y53510479D02*
X100800714Y49610479D01*
X98800714Y53510479D02*
X100800714Y53510479D01*
G04 #@! TO.C,D27*
X93996000Y72354000D02*
X93996000Y68454000D01*
X95996000Y72354000D02*
X95996000Y68454000D01*
X93996000Y72354000D02*
X95996000Y72354000D01*
G04 #@! TO.C,D26*
X84852000Y90260000D02*
X84852000Y86360000D01*
X86852000Y90260000D02*
X86852000Y86360000D01*
X84852000Y90260000D02*
X86852000Y90260000D01*
G04 #@! TO.C,D25*
X55896000Y16092000D02*
X55896000Y12192000D01*
X57896000Y16092000D02*
X57896000Y12192000D01*
X55896000Y16092000D02*
X57896000Y16092000D01*
G04 #@! TO.C,D24*
X77212251Y36838443D02*
X77212251Y32938443D01*
X79212251Y36838443D02*
X79212251Y32938443D01*
X77212251Y36838443D02*
X79212251Y36838443D01*
G04 #@! TO.C,D23*
X72622053Y55399894D02*
X72622053Y51499894D01*
X74622053Y55399894D02*
X74622053Y51499894D01*
X72622053Y55399894D02*
X74622053Y55399894D01*
G04 #@! TO.C,D22*
X70120000Y70956000D02*
X70120000Y67056000D01*
X72120000Y70956000D02*
X72120000Y67056000D01*
X70120000Y70956000D02*
X72120000Y70956000D01*
G04 #@! TO.C,D21*
X65385865Y92002356D02*
X65385865Y88102356D01*
X67385865Y92002356D02*
X67385865Y88102356D01*
X65385865Y92002356D02*
X67385865Y92002356D01*
G04 #@! TO.C,D20*
X-5064000Y17998000D02*
X-5064000Y14098000D01*
X-3064000Y17998000D02*
X-3064000Y14098000D01*
X-5064000Y17998000D02*
X-3064000Y17998000D01*
G04 #@! TO.C,D19*
X31512000Y35652000D02*
X31512000Y31752000D01*
X33512000Y35652000D02*
X33512000Y31752000D01*
X31512000Y35652000D02*
X33512000Y35652000D01*
G04 #@! TO.C,D18*
X31512000Y53558000D02*
X31512000Y49658000D01*
X33512000Y53558000D02*
X33512000Y49658000D01*
X31512000Y53558000D02*
X33512000Y53558000D01*
G04 #@! TO.C,D17*
X31246111Y72331002D02*
X31246111Y68431002D01*
X33246111Y72331002D02*
X33246111Y68431002D01*
X31246111Y72331002D02*
X33246111Y72331002D01*
G04 #@! TO.C,D16*
X31512000Y90260000D02*
X31512000Y86360000D01*
X33512000Y90260000D02*
X33512000Y86360000D01*
X31512000Y90260000D02*
X33512000Y90260000D01*
G04 #@! TO.C,D15*
X12700310Y16076862D02*
X12700310Y12176862D01*
X14700310Y16076862D02*
X14700310Y12176862D01*
X12700310Y16076862D02*
X14700310Y16076862D01*
G04 #@! TO.C,D14*
X12716000Y36794000D02*
X12716000Y32894000D01*
X14716000Y36794000D02*
X14716000Y32894000D01*
X12716000Y36794000D02*
X14716000Y36794000D01*
G04 #@! TO.C,D13*
X12208000Y55464000D02*
X12208000Y51564000D01*
X14208000Y55464000D02*
X14208000Y51564000D01*
X12208000Y55464000D02*
X14208000Y55464000D01*
G04 #@! TO.C,D12*
X12208000Y70956000D02*
X12208000Y67056000D01*
X14208000Y70956000D02*
X14208000Y67056000D01*
X12208000Y70956000D02*
X14208000Y70956000D01*
G04 #@! TO.C,D11*
X12192360Y91986879D02*
X12192360Y88086879D01*
X14192360Y91986879D02*
X14192360Y88086879D01*
X12192360Y91986879D02*
X14192360Y91986879D01*
G04 #@! TO.C,D10*
X31766000Y17998000D02*
X31766000Y14098000D01*
X33766000Y17998000D02*
X33766000Y14098000D01*
X31766000Y17998000D02*
X33766000Y17998000D01*
G04 #@! TO.C,D9*
X-6484225Y35693471D02*
X-6484225Y31793471D01*
X-4484225Y35693471D02*
X-4484225Y31793471D01*
X-6484225Y35693471D02*
X-4484225Y35693471D01*
G04 #@! TO.C,D8*
X-6588000Y53558000D02*
X-6588000Y49658000D01*
X-4588000Y53558000D02*
X-4588000Y49658000D01*
X-6588000Y53558000D02*
X-4588000Y53558000D01*
G04 #@! TO.C,D7*
X-6588000Y72480000D02*
X-6588000Y68580000D01*
X-4588000Y72480000D02*
X-4588000Y68580000D01*
X-6588000Y72480000D02*
X-4588000Y72480000D01*
G04 #@! TO.C,D5*
X-23384000Y14640000D02*
X-23384000Y18540000D01*
X-25384000Y14640000D02*
X-25384000Y18540000D01*
X-23384000Y14640000D02*
X-25384000Y14640000D01*
G04 #@! TO.C,D4*
X-22844000Y14950000D02*
X-22844000Y11050000D01*
X-20844000Y14950000D02*
X-20844000Y11050000D01*
X-22844000Y14950000D02*
X-20844000Y14950000D01*
G04 #@! TO.C,D3*
X-23384000Y54264000D02*
X-23384000Y58164000D01*
X-25384000Y54264000D02*
X-25384000Y58164000D01*
X-23384000Y54264000D02*
X-25384000Y54264000D01*
G04 #@! TO.C,D2*
X-25384000Y53558000D02*
X-25384000Y49658000D01*
X-23384000Y53558000D02*
X-23384000Y49658000D01*
X-25384000Y53558000D02*
X-23384000Y53558000D01*
G04 #@! TO.C,D1*
X-25907745Y92054134D02*
X-25907745Y88154134D01*
X-23907745Y92054134D02*
X-23907745Y88154134D01*
X-25907745Y92054134D02*
X-23907745Y92054134D01*
G04 #@! TO.C,D44*
D14*
X258294380Y13788285D02*
X257294380Y13788285D01*
X257294380Y13550190D01*
X257342000Y13407333D01*
X257437238Y13312095D01*
X257532476Y13264476D01*
X257722952Y13216857D01*
X257865809Y13216857D01*
X258056285Y13264476D01*
X258151523Y13312095D01*
X258246761Y13407333D01*
X258294380Y13550190D01*
X258294380Y13788285D01*
X257627714Y12359714D02*
X258294380Y12359714D01*
X257246761Y12597809D02*
X257961047Y12835904D01*
X257961047Y12216857D01*
X257627714Y11407333D02*
X258294380Y11407333D01*
X257246761Y11645428D02*
X257961047Y11883523D01*
X257961047Y11264476D01*
G04 #@! TO.C,D65*
X250420380Y52522285D02*
X249420380Y52522285D01*
X249420380Y52284190D01*
X249468000Y52141333D01*
X249563238Y52046095D01*
X249658476Y51998476D01*
X249848952Y51950857D01*
X249991809Y51950857D01*
X250182285Y51998476D01*
X250277523Y52046095D01*
X250372761Y52141333D01*
X250420380Y52284190D01*
X250420380Y52522285D01*
X249420380Y51093714D02*
X249420380Y51284190D01*
X249468000Y51379428D01*
X249515619Y51427047D01*
X249658476Y51522285D01*
X249848952Y51569904D01*
X250229904Y51569904D01*
X250325142Y51522285D01*
X250372761Y51474666D01*
X250420380Y51379428D01*
X250420380Y51188952D01*
X250372761Y51093714D01*
X250325142Y51046095D01*
X250229904Y50998476D01*
X249991809Y50998476D01*
X249896571Y51046095D01*
X249848952Y51093714D01*
X249801333Y51188952D01*
X249801333Y51379428D01*
X249848952Y51474666D01*
X249896571Y51522285D01*
X249991809Y51569904D01*
X249420380Y50093714D02*
X249420380Y50569904D01*
X249896571Y50617523D01*
X249848952Y50569904D01*
X249801333Y50474666D01*
X249801333Y50236571D01*
X249848952Y50141333D01*
X249896571Y50093714D01*
X249991809Y50046095D01*
X250229904Y50046095D01*
X250325142Y50093714D01*
X250372761Y50141333D01*
X250420380Y50236571D01*
X250420380Y50474666D01*
X250372761Y50569904D01*
X250325142Y50617523D01*
G04 #@! TO.C,D60*
X230914241Y54312499D02*
X229914241Y54312499D01*
X229914241Y54074404D01*
X229961861Y53931547D01*
X230057099Y53836309D01*
X230152337Y53788690D01*
X230342813Y53741071D01*
X230485670Y53741071D01*
X230676146Y53788690D01*
X230771384Y53836309D01*
X230866622Y53931547D01*
X230914241Y54074404D01*
X230914241Y54312499D01*
X229914241Y52883928D02*
X229914241Y53074404D01*
X229961861Y53169642D01*
X230009480Y53217261D01*
X230152337Y53312499D01*
X230342813Y53360118D01*
X230723765Y53360118D01*
X230819003Y53312499D01*
X230866622Y53264880D01*
X230914241Y53169642D01*
X230914241Y52979166D01*
X230866622Y52883928D01*
X230819003Y52836309D01*
X230723765Y52788690D01*
X230485670Y52788690D01*
X230390432Y52836309D01*
X230342813Y52883928D01*
X230295194Y52979166D01*
X230295194Y53169642D01*
X230342813Y53264880D01*
X230390432Y53312499D01*
X230485670Y53360118D01*
X229914241Y52169642D02*
X229914241Y52074404D01*
X229961861Y51979166D01*
X230009480Y51931547D01*
X230104718Y51883928D01*
X230295194Y51836309D01*
X230533289Y51836309D01*
X230723765Y51883928D01*
X230819003Y51931547D01*
X230866622Y51979166D01*
X230914241Y52074404D01*
X230914241Y52169642D01*
X230866622Y52264880D01*
X230819003Y52312499D01*
X230723765Y52360118D01*
X230533289Y52407737D01*
X230295194Y52407737D01*
X230104718Y52360118D01*
X230009480Y52312499D01*
X229961861Y52264880D01*
X229914241Y52169642D01*
G04 #@! TO.C,D6*
X-7135619Y88748095D02*
X-8135619Y88748095D01*
X-8135619Y88510000D01*
X-8088000Y88367142D01*
X-7992761Y88271904D01*
X-7897523Y88224285D01*
X-7707047Y88176666D01*
X-7564190Y88176666D01*
X-7373714Y88224285D01*
X-7278476Y88271904D01*
X-7183238Y88367142D01*
X-7135619Y88510000D01*
X-7135619Y88748095D01*
X-8135619Y87319523D02*
X-8135619Y87510000D01*
X-8088000Y87605238D01*
X-8040380Y87652857D01*
X-7897523Y87748095D01*
X-7707047Y87795714D01*
X-7326095Y87795714D01*
X-7230857Y87748095D01*
X-7183238Y87700476D01*
X-7135619Y87605238D01*
X-7135619Y87414761D01*
X-7183238Y87319523D01*
X-7230857Y87271904D01*
X-7326095Y87224285D01*
X-7564190Y87224285D01*
X-7659428Y87271904D01*
X-7707047Y87319523D01*
X-7754666Y87414761D01*
X-7754666Y87605238D01*
X-7707047Y87700476D01*
X-7659428Y87748095D01*
X-7564190Y87795714D01*
G04 #@! TO.C,Y1*
X59708990Y55178809D02*
X59708990Y54702619D01*
X60042323Y55702619D02*
X59708990Y55178809D01*
X59375657Y55702619D01*
X58518514Y54702619D02*
X59089942Y54702619D01*
X58804228Y54702619D02*
X58804228Y55702619D01*
X58899466Y55559761D01*
X58994704Y55464523D01*
X59089942Y55416904D01*
G04 #@! TO.C,USB1*
X6386295Y90357619D02*
X6386295Y89548095D01*
X6338676Y89452857D01*
X6291057Y89405238D01*
X6195819Y89357619D01*
X6005342Y89357619D01*
X5910104Y89405238D01*
X5862485Y89452857D01*
X5814866Y89548095D01*
X5814866Y90357619D01*
X5386295Y89405238D02*
X5243438Y89357619D01*
X5005342Y89357619D01*
X4910104Y89405238D01*
X4862485Y89452857D01*
X4814866Y89548095D01*
X4814866Y89643333D01*
X4862485Y89738571D01*
X4910104Y89786190D01*
X5005342Y89833809D01*
X5195819Y89881428D01*
X5291057Y89929047D01*
X5338676Y89976666D01*
X5386295Y90071904D01*
X5386295Y90167142D01*
X5338676Y90262380D01*
X5291057Y90310000D01*
X5195819Y90357619D01*
X4957723Y90357619D01*
X4814866Y90310000D01*
X4052961Y89881428D02*
X3910104Y89833809D01*
X3862485Y89786190D01*
X3814866Y89690952D01*
X3814866Y89548095D01*
X3862485Y89452857D01*
X3910104Y89405238D01*
X4005342Y89357619D01*
X4386295Y89357619D01*
X4386295Y90357619D01*
X4052961Y90357619D01*
X3957723Y90310000D01*
X3910104Y90262380D01*
X3862485Y90167142D01*
X3862485Y90071904D01*
X3910104Y89976666D01*
X3957723Y89929047D01*
X4052961Y89881428D01*
X4386295Y89881428D01*
X2862485Y89357619D02*
X3433914Y89357619D01*
X3148199Y89357619D02*
X3148199Y90357619D01*
X3243438Y90214761D01*
X3338676Y90119523D01*
X3433914Y90071904D01*
G04 #@! TO.C,R6*
X53633666Y34090619D02*
X53967000Y34566809D01*
X54205095Y34090619D02*
X54205095Y35090619D01*
X53824142Y35090619D01*
X53728904Y35043000D01*
X53681285Y34995380D01*
X53633666Y34900142D01*
X53633666Y34757285D01*
X53681285Y34662047D01*
X53728904Y34614428D01*
X53824142Y34566809D01*
X54205095Y34566809D01*
X52776523Y35090619D02*
X52967000Y35090619D01*
X53062238Y35043000D01*
X53109857Y34995380D01*
X53205095Y34852523D01*
X53252714Y34662047D01*
X53252714Y34281095D01*
X53205095Y34185857D01*
X53157476Y34138238D01*
X53062238Y34090619D01*
X52871761Y34090619D01*
X52776523Y34138238D01*
X52728904Y34185857D01*
X52681285Y34281095D01*
X52681285Y34519190D01*
X52728904Y34614428D01*
X52776523Y34662047D01*
X52871761Y34709666D01*
X53062238Y34709666D01*
X53157476Y34662047D01*
X53205095Y34614428D01*
X53252714Y34519190D01*
G04 #@! TO.C,R5*
X-669233Y91367619D02*
X-335900Y91843809D01*
X-97804Y91367619D02*
X-97804Y92367619D01*
X-478757Y92367619D01*
X-573995Y92320000D01*
X-621614Y92272380D01*
X-669233Y92177142D01*
X-669233Y92034285D01*
X-621614Y91939047D01*
X-573995Y91891428D01*
X-478757Y91843809D01*
X-97804Y91843809D01*
X-1573995Y92367619D02*
X-1097804Y92367619D01*
X-1050185Y91891428D01*
X-1097804Y91939047D01*
X-1193042Y91986666D01*
X-1431138Y91986666D01*
X-1526376Y91939047D01*
X-1573995Y91891428D01*
X-1621614Y91796190D01*
X-1621614Y91558095D01*
X-1573995Y91462857D01*
X-1526376Y91415238D01*
X-1431138Y91367619D01*
X-1193042Y91367619D01*
X-1097804Y91415238D01*
X-1050185Y91462857D01*
G04 #@! TO.C,R4*
X7278666Y86721419D02*
X7612000Y87197609D01*
X7850095Y86721419D02*
X7850095Y87721419D01*
X7469142Y87721419D01*
X7373904Y87673800D01*
X7326285Y87626180D01*
X7278666Y87530942D01*
X7278666Y87388085D01*
X7326285Y87292847D01*
X7373904Y87245228D01*
X7469142Y87197609D01*
X7850095Y87197609D01*
X6421523Y87388085D02*
X6421523Y86721419D01*
X6659619Y87769038D02*
X6897714Y87054752D01*
X6278666Y87054752D01*
G04 #@! TO.C,R3*
X-798533Y75648319D02*
X-465200Y76124509D01*
X-227104Y75648319D02*
X-227104Y76648319D01*
X-608057Y76648319D01*
X-703295Y76600700D01*
X-750914Y76553080D01*
X-798533Y76457842D01*
X-798533Y76314985D01*
X-750914Y76219747D01*
X-703295Y76172128D01*
X-608057Y76124509D01*
X-227104Y76124509D01*
X-1131866Y76648319D02*
X-1750914Y76648319D01*
X-1417580Y76267366D01*
X-1560438Y76267366D01*
X-1655676Y76219747D01*
X-1703295Y76172128D01*
X-1750914Y76076890D01*
X-1750914Y75838795D01*
X-1703295Y75743557D01*
X-1655676Y75695938D01*
X-1560438Y75648319D01*
X-1274723Y75648319D01*
X-1179485Y75695938D01*
X-1131866Y75743557D01*
G04 #@! TO.C,R2*
X1233466Y75648319D02*
X1566800Y76124509D01*
X1804895Y75648319D02*
X1804895Y76648319D01*
X1423942Y76648319D01*
X1328704Y76600700D01*
X1281085Y76553080D01*
X1233466Y76457842D01*
X1233466Y76314985D01*
X1281085Y76219747D01*
X1328704Y76172128D01*
X1423942Y76124509D01*
X1804895Y76124509D01*
X852514Y76553080D02*
X804895Y76600700D01*
X709657Y76648319D01*
X471561Y76648319D01*
X376323Y76600700D01*
X328704Y76553080D01*
X281085Y76457842D01*
X281085Y76362604D01*
X328704Y76219747D01*
X900133Y75648319D01*
X281085Y75648319D01*
G04 #@! TO.C,R1*
X57931580Y58127166D02*
X57455390Y58460500D01*
X57931580Y58698595D02*
X56931580Y58698595D01*
X56931580Y58317642D01*
X56979200Y58222404D01*
X57026819Y58174785D01*
X57122057Y58127166D01*
X57264914Y58127166D01*
X57360152Y58174785D01*
X57407771Y58222404D01*
X57455390Y58317642D01*
X57455390Y58698595D01*
X57931580Y57174785D02*
X57931580Y57746214D01*
X57931580Y57460500D02*
X56931580Y57460500D01*
X57074438Y57555738D01*
X57169676Y57650976D01*
X57217295Y57746214D01*
G04 #@! TO.C,J1*
D15*
X49792467Y66471196D02*
X49792467Y65908766D01*
X49829962Y65796280D01*
X49904953Y65721289D01*
X50017439Y65683794D01*
X50092430Y65683794D01*
X49005065Y65683794D02*
X49455009Y65683794D01*
X49230037Y65683794D02*
X49230037Y66471196D01*
X49305028Y66358710D01*
X49380018Y66283719D01*
X49455009Y66246224D01*
G04 #@! TO.C,F1*
D14*
X13512933Y83239828D02*
X13846266Y83239828D01*
X13846266Y82716019D02*
X13846266Y83716019D01*
X13370076Y83716019D01*
X12465314Y82716019D02*
X13036742Y82716019D01*
X12751028Y82716019D02*
X12751028Y83716019D01*
X12846266Y83573161D01*
X12941504Y83477923D01*
X13036742Y83430304D01*
G04 #@! TO.C,D79*
X823885Y81910819D02*
X823885Y82910819D01*
X585790Y82910819D01*
X442933Y82863200D01*
X347695Y82767961D01*
X300076Y82672723D01*
X252457Y82482247D01*
X252457Y82339390D01*
X300076Y82148914D01*
X347695Y82053676D01*
X442933Y81958438D01*
X585790Y81910819D01*
X823885Y81910819D01*
X-80876Y82910819D02*
X-747542Y82910819D01*
X-318971Y81910819D01*
X-1176114Y81910819D02*
X-1366590Y81910819D01*
X-1461828Y81958438D01*
X-1509447Y82006057D01*
X-1604685Y82148914D01*
X-1652304Y82339390D01*
X-1652304Y82720342D01*
X-1604685Y82815580D01*
X-1557066Y82863200D01*
X-1461828Y82910819D01*
X-1271352Y82910819D01*
X-1176114Y82863200D01*
X-1128495Y82815580D01*
X-1080876Y82720342D01*
X-1080876Y82482247D01*
X-1128495Y82387009D01*
X-1176114Y82339390D01*
X-1271352Y82291771D01*
X-1461828Y82291771D01*
X-1557066Y82339390D01*
X-1604685Y82387009D01*
X-1652304Y82482247D01*
G04 #@! TO.C,C8*
X62052615Y40672086D02*
X62119958Y40672086D01*
X62254645Y40739430D01*
X62321989Y40806773D01*
X62389332Y40941461D01*
X62389332Y41076148D01*
X62355661Y41177163D01*
X62254645Y41345522D01*
X62153630Y41446537D01*
X61985271Y41547552D01*
X61884256Y41581224D01*
X61749569Y41581224D01*
X61614882Y41513880D01*
X61547538Y41446537D01*
X61480195Y41311850D01*
X61480195Y41244506D01*
X61311836Y40604743D02*
X61345508Y40705758D01*
X61345508Y40773102D01*
X61311836Y40874117D01*
X61278164Y40907789D01*
X61177149Y40941461D01*
X61109806Y40941461D01*
X61008790Y40907789D01*
X60874103Y40773102D01*
X60840432Y40672086D01*
X60840432Y40604743D01*
X60874103Y40503728D01*
X60907775Y40470056D01*
X61008790Y40436384D01*
X61076134Y40436384D01*
X61177149Y40470056D01*
X61311836Y40604743D01*
X61412851Y40638415D01*
X61480195Y40638415D01*
X61581210Y40604743D01*
X61715897Y40470056D01*
X61749569Y40369041D01*
X61749569Y40301697D01*
X61715897Y40200682D01*
X61581210Y40065995D01*
X61480195Y40032323D01*
X61412851Y40032323D01*
X61311836Y40065995D01*
X61177149Y40200682D01*
X61143477Y40301697D01*
X61143477Y40369041D01*
X61177149Y40470056D01*
G04 #@! TO.C,C7*
X44157166Y50824857D02*
X44204785Y50777238D01*
X44347642Y50729619D01*
X44442880Y50729619D01*
X44585738Y50777238D01*
X44680976Y50872476D01*
X44728595Y50967714D01*
X44776214Y51158190D01*
X44776214Y51301047D01*
X44728595Y51491523D01*
X44680976Y51586761D01*
X44585738Y51682000D01*
X44442880Y51729619D01*
X44347642Y51729619D01*
X44204785Y51682000D01*
X44157166Y51634380D01*
X43823833Y51729619D02*
X43157166Y51729619D01*
X43585738Y50729619D01*
G04 #@! TO.C,C6*
X43247579Y57520270D02*
X43295198Y57472651D01*
X43438055Y57425032D01*
X43533293Y57425032D01*
X43676151Y57472651D01*
X43771389Y57567889D01*
X43819008Y57663127D01*
X43866627Y57853603D01*
X43866627Y57996460D01*
X43819008Y58186936D01*
X43771389Y58282174D01*
X43676151Y58377413D01*
X43533293Y58425032D01*
X43438055Y58425032D01*
X43295198Y58377413D01*
X43247579Y58329793D01*
X42390436Y58425032D02*
X42580913Y58425032D01*
X42676151Y58377413D01*
X42723770Y58329793D01*
X42819008Y58186936D01*
X42866627Y57996460D01*
X42866627Y57615508D01*
X42819008Y57520270D01*
X42771389Y57472651D01*
X42676151Y57425032D01*
X42485674Y57425032D01*
X42390436Y57472651D01*
X42342817Y57520270D01*
X42295198Y57615508D01*
X42295198Y57853603D01*
X42342817Y57948841D01*
X42390436Y57996460D01*
X42485674Y58044079D01*
X42676151Y58044079D01*
X42771389Y57996460D01*
X42819008Y57948841D01*
X42866627Y57853603D01*
G04 #@! TO.C,C5*
X59223966Y56690257D02*
X59271585Y56642638D01*
X59414442Y56595019D01*
X59509680Y56595019D01*
X59652538Y56642638D01*
X59747776Y56737876D01*
X59795395Y56833114D01*
X59843014Y57023590D01*
X59843014Y57166447D01*
X59795395Y57356923D01*
X59747776Y57452161D01*
X59652538Y57547400D01*
X59509680Y57595019D01*
X59414442Y57595019D01*
X59271585Y57547400D01*
X59223966Y57499780D01*
X58319204Y57595019D02*
X58795395Y57595019D01*
X58843014Y57118828D01*
X58795395Y57166447D01*
X58700157Y57214066D01*
X58462061Y57214066D01*
X58366823Y57166447D01*
X58319204Y57118828D01*
X58271585Y57023590D01*
X58271585Y56785495D01*
X58319204Y56690257D01*
X58366823Y56642638D01*
X58462061Y56595019D01*
X58700157Y56595019D01*
X58795395Y56642638D01*
X58843014Y56690257D01*
G04 #@! TO.C,C4*
X61038742Y52848566D02*
X61086361Y52896185D01*
X61133980Y53039042D01*
X61133980Y53134280D01*
X61086361Y53277138D01*
X60991123Y53372376D01*
X60895885Y53419995D01*
X60705409Y53467614D01*
X60562552Y53467614D01*
X60372076Y53419995D01*
X60276838Y53372376D01*
X60181600Y53277138D01*
X60133980Y53134280D01*
X60133980Y53039042D01*
X60181600Y52896185D01*
X60229219Y52848566D01*
X60467314Y51991423D02*
X61133980Y51991423D01*
X60086361Y52229519D02*
X60800647Y52467614D01*
X60800647Y51848566D01*
G04 #@! TO.C,C3*
X54929066Y56512457D02*
X54976685Y56464838D01*
X55119542Y56417219D01*
X55214780Y56417219D01*
X55357638Y56464838D01*
X55452876Y56560076D01*
X55500495Y56655314D01*
X55548114Y56845790D01*
X55548114Y56988647D01*
X55500495Y57179123D01*
X55452876Y57274361D01*
X55357638Y57369600D01*
X55214780Y57417219D01*
X55119542Y57417219D01*
X54976685Y57369600D01*
X54929066Y57321980D01*
X54595733Y57417219D02*
X53976685Y57417219D01*
X54310019Y57036266D01*
X54167161Y57036266D01*
X54071923Y56988647D01*
X54024304Y56941028D01*
X53976685Y56845790D01*
X53976685Y56607695D01*
X54024304Y56512457D01*
X54071923Y56464838D01*
X54167161Y56417219D01*
X54452876Y56417219D01*
X54548114Y56464838D01*
X54595733Y56512457D01*
G04 #@! TO.C,C2*
X43132538Y43722336D02*
X43132538Y43654993D01*
X43199882Y43520306D01*
X43267225Y43452962D01*
X43401913Y43385619D01*
X43536600Y43385619D01*
X43637615Y43419290D01*
X43805974Y43520306D01*
X43906989Y43621321D01*
X44008004Y43789680D01*
X44041676Y43890695D01*
X44041676Y44025382D01*
X43974332Y44160069D01*
X43906989Y44227413D01*
X43772302Y44294756D01*
X43704958Y44294756D01*
X43435584Y44564130D02*
X43435584Y44631474D01*
X43401913Y44732489D01*
X43233554Y44900848D01*
X43132538Y44934519D01*
X43065195Y44934519D01*
X42964180Y44900848D01*
X42896836Y44833504D01*
X42829493Y44698817D01*
X42829493Y43890695D01*
X42391760Y44328428D01*
G04 #@! TO.C,C1*
X39434750Y50153125D02*
X39502093Y50153125D01*
X39636780Y50220469D01*
X39704124Y50287812D01*
X39771467Y50422500D01*
X39771467Y50557187D01*
X39737796Y50658202D01*
X39636780Y50826561D01*
X39535765Y50927576D01*
X39367406Y51028591D01*
X39266391Y51062263D01*
X39131704Y51062263D01*
X38997017Y50994919D01*
X38929673Y50927576D01*
X38862330Y50792889D01*
X38862330Y50725545D01*
X38828658Y49412347D02*
X39232719Y49816408D01*
X39030689Y49614377D02*
X38323582Y50321484D01*
X38491941Y50287813D01*
X38626628Y50287812D01*
X38727643Y50321484D01*
G04 #@! TO.C,U1*
X46864427Y39233731D02*
X46292007Y38661311D01*
X46190992Y38627639D01*
X46123648Y38627639D01*
X46022633Y38661311D01*
X45887946Y38795998D01*
X45854274Y38897013D01*
X45854274Y38964357D01*
X45887946Y39065372D01*
X46460366Y39637792D01*
X45046152Y39637792D02*
X45450213Y39233731D01*
X45248183Y39435761D02*
X45955289Y40142868D01*
X45921618Y39974509D01*
X45921618Y39839822D01*
X45955289Y39738807D01*
G04 #@! TO.C,D88*
X332221754Y91009957D02*
X331221754Y91009957D01*
X331221754Y90771862D01*
X331269374Y90629005D01*
X331364612Y90533767D01*
X331459850Y90486148D01*
X331650326Y90438529D01*
X331793183Y90438529D01*
X331983659Y90486148D01*
X332078897Y90533767D01*
X332174135Y90629005D01*
X332221754Y90771862D01*
X332221754Y91009957D01*
X331650326Y89867100D02*
X331602707Y89962338D01*
X331555088Y90009957D01*
X331459850Y90057576D01*
X331412231Y90057576D01*
X331316993Y90009957D01*
X331269374Y89962338D01*
X331221754Y89867100D01*
X331221754Y89676624D01*
X331269374Y89581386D01*
X331316993Y89533767D01*
X331412231Y89486148D01*
X331459850Y89486148D01*
X331555088Y89533767D01*
X331602707Y89581386D01*
X331650326Y89676624D01*
X331650326Y89867100D01*
X331697945Y89962338D01*
X331745564Y90009957D01*
X331840802Y90057576D01*
X332031278Y90057576D01*
X332126516Y90009957D01*
X332174135Y89962338D01*
X332221754Y89867100D01*
X332221754Y89676624D01*
X332174135Y89581386D01*
X332126516Y89533767D01*
X332031278Y89486148D01*
X331840802Y89486148D01*
X331745564Y89533767D01*
X331697945Y89581386D01*
X331650326Y89676624D01*
X331650326Y88914719D02*
X331602707Y89009957D01*
X331555088Y89057576D01*
X331459850Y89105195D01*
X331412231Y89105195D01*
X331316993Y89057576D01*
X331269374Y89009957D01*
X331221754Y88914719D01*
X331221754Y88724243D01*
X331269374Y88629005D01*
X331316993Y88581386D01*
X331412231Y88533767D01*
X331459850Y88533767D01*
X331555088Y88581386D01*
X331602707Y88629005D01*
X331650326Y88724243D01*
X331650326Y88914719D01*
X331697945Y89009957D01*
X331745564Y89057576D01*
X331840802Y89105195D01*
X332031278Y89105195D01*
X332126516Y89057576D01*
X332174135Y89009957D01*
X332221754Y88914719D01*
X332221754Y88724243D01*
X332174135Y88629005D01*
X332126516Y88581386D01*
X332031278Y88533767D01*
X331840802Y88533767D01*
X331745564Y88581386D01*
X331697945Y88629005D01*
X331650326Y88724243D01*
G04 #@! TO.C,D87*
X314428380Y54300285D02*
X313428380Y54300285D01*
X313428380Y54062190D01*
X313476000Y53919333D01*
X313571238Y53824095D01*
X313666476Y53776476D01*
X313856952Y53728857D01*
X313999809Y53728857D01*
X314190285Y53776476D01*
X314285523Y53824095D01*
X314380761Y53919333D01*
X314428380Y54062190D01*
X314428380Y54300285D01*
X313856952Y53157428D02*
X313809333Y53252666D01*
X313761714Y53300285D01*
X313666476Y53347904D01*
X313618857Y53347904D01*
X313523619Y53300285D01*
X313476000Y53252666D01*
X313428380Y53157428D01*
X313428380Y52966952D01*
X313476000Y52871714D01*
X313523619Y52824095D01*
X313618857Y52776476D01*
X313666476Y52776476D01*
X313761714Y52824095D01*
X313809333Y52871714D01*
X313856952Y52966952D01*
X313856952Y53157428D01*
X313904571Y53252666D01*
X313952190Y53300285D01*
X314047428Y53347904D01*
X314237904Y53347904D01*
X314333142Y53300285D01*
X314380761Y53252666D01*
X314428380Y53157428D01*
X314428380Y52966952D01*
X314380761Y52871714D01*
X314333142Y52824095D01*
X314237904Y52776476D01*
X314047428Y52776476D01*
X313952190Y52824095D01*
X313904571Y52871714D01*
X313856952Y52966952D01*
X313428380Y52443142D02*
X313428380Y51776476D01*
X314428380Y52205047D01*
G04 #@! TO.C,D86*
X331537326Y14754417D02*
X330537326Y14754417D01*
X330537326Y14516322D01*
X330584946Y14373465D01*
X330680184Y14278227D01*
X330775422Y14230608D01*
X330965898Y14182989D01*
X331108755Y14182989D01*
X331299231Y14230608D01*
X331394469Y14278227D01*
X331489707Y14373465D01*
X331537326Y14516322D01*
X331537326Y14754417D01*
X330965898Y13611560D02*
X330918279Y13706798D01*
X330870660Y13754417D01*
X330775422Y13802036D01*
X330727803Y13802036D01*
X330632565Y13754417D01*
X330584946Y13706798D01*
X330537326Y13611560D01*
X330537326Y13421084D01*
X330584946Y13325846D01*
X330632565Y13278227D01*
X330727803Y13230608D01*
X330775422Y13230608D01*
X330870660Y13278227D01*
X330918279Y13325846D01*
X330965898Y13421084D01*
X330965898Y13611560D01*
X331013517Y13706798D01*
X331061136Y13754417D01*
X331156374Y13802036D01*
X331346850Y13802036D01*
X331442088Y13754417D01*
X331489707Y13706798D01*
X331537326Y13611560D01*
X331537326Y13421084D01*
X331489707Y13325846D01*
X331442088Y13278227D01*
X331346850Y13230608D01*
X331156374Y13230608D01*
X331061136Y13278227D01*
X331013517Y13325846D01*
X330965898Y13421084D01*
X330537326Y12373465D02*
X330537326Y12563941D01*
X330584946Y12659179D01*
X330632565Y12706798D01*
X330775422Y12802036D01*
X330965898Y12849655D01*
X331346850Y12849655D01*
X331442088Y12802036D01*
X331489707Y12754417D01*
X331537326Y12659179D01*
X331537326Y12468703D01*
X331489707Y12373465D01*
X331442088Y12325846D01*
X331346850Y12278227D01*
X331108755Y12278227D01*
X331013517Y12325846D01*
X330965898Y12373465D01*
X330918279Y12468703D01*
X330918279Y12659179D01*
X330965898Y12754417D01*
X331013517Y12802036D01*
X331108755Y12849655D01*
G04 #@! TO.C,D85*
X318152380Y33218285D02*
X317152380Y33218285D01*
X317152380Y32980190D01*
X317200000Y32837333D01*
X317295238Y32742095D01*
X317390476Y32694476D01*
X317580952Y32646857D01*
X317723809Y32646857D01*
X317914285Y32694476D01*
X318009523Y32742095D01*
X318104761Y32837333D01*
X318152380Y32980190D01*
X318152380Y33218285D01*
X317580952Y32075428D02*
X317533333Y32170666D01*
X317485714Y32218285D01*
X317390476Y32265904D01*
X317342857Y32265904D01*
X317247619Y32218285D01*
X317200000Y32170666D01*
X317152380Y32075428D01*
X317152380Y31884952D01*
X317200000Y31789714D01*
X317247619Y31742095D01*
X317342857Y31694476D01*
X317390476Y31694476D01*
X317485714Y31742095D01*
X317533333Y31789714D01*
X317580952Y31884952D01*
X317580952Y32075428D01*
X317628571Y32170666D01*
X317676190Y32218285D01*
X317771428Y32265904D01*
X317961904Y32265904D01*
X318057142Y32218285D01*
X318104761Y32170666D01*
X318152380Y32075428D01*
X318152380Y31884952D01*
X318104761Y31789714D01*
X318057142Y31742095D01*
X317961904Y31694476D01*
X317771428Y31694476D01*
X317676190Y31742095D01*
X317628571Y31789714D01*
X317580952Y31884952D01*
X317152380Y30789714D02*
X317152380Y31265904D01*
X317628571Y31313523D01*
X317580952Y31265904D01*
X317533333Y31170666D01*
X317533333Y30932571D01*
X317580952Y30837333D01*
X317628571Y30789714D01*
X317723809Y30742095D01*
X317961904Y30742095D01*
X318057142Y30789714D01*
X318104761Y30837333D01*
X318152380Y30932571D01*
X318152380Y31170666D01*
X318104761Y31265904D01*
X318057142Y31313523D01*
G04 #@! TO.C,D84*
X320524380Y71318285D02*
X319524380Y71318285D01*
X319524380Y71080190D01*
X319572000Y70937333D01*
X319667238Y70842095D01*
X319762476Y70794476D01*
X319952952Y70746857D01*
X320095809Y70746857D01*
X320286285Y70794476D01*
X320381523Y70842095D01*
X320476761Y70937333D01*
X320524380Y71080190D01*
X320524380Y71318285D01*
X319952952Y70175428D02*
X319905333Y70270666D01*
X319857714Y70318285D01*
X319762476Y70365904D01*
X319714857Y70365904D01*
X319619619Y70318285D01*
X319572000Y70270666D01*
X319524380Y70175428D01*
X319524380Y69984952D01*
X319572000Y69889714D01*
X319619619Y69842095D01*
X319714857Y69794476D01*
X319762476Y69794476D01*
X319857714Y69842095D01*
X319905333Y69889714D01*
X319952952Y69984952D01*
X319952952Y70175428D01*
X320000571Y70270666D01*
X320048190Y70318285D01*
X320143428Y70365904D01*
X320333904Y70365904D01*
X320429142Y70318285D01*
X320476761Y70270666D01*
X320524380Y70175428D01*
X320524380Y69984952D01*
X320476761Y69889714D01*
X320429142Y69842095D01*
X320333904Y69794476D01*
X320143428Y69794476D01*
X320048190Y69842095D01*
X320000571Y69889714D01*
X319952952Y69984952D01*
X319857714Y68937333D02*
X320524380Y68937333D01*
X319476761Y69175428D02*
X320191047Y69413523D01*
X320191047Y68794476D01*
G04 #@! TO.C,D83*
X299696380Y89224285D02*
X298696380Y89224285D01*
X298696380Y88986190D01*
X298744000Y88843333D01*
X298839238Y88748095D01*
X298934476Y88700476D01*
X299124952Y88652857D01*
X299267809Y88652857D01*
X299458285Y88700476D01*
X299553523Y88748095D01*
X299648761Y88843333D01*
X299696380Y88986190D01*
X299696380Y89224285D01*
X299124952Y88081428D02*
X299077333Y88176666D01*
X299029714Y88224285D01*
X298934476Y88271904D01*
X298886857Y88271904D01*
X298791619Y88224285D01*
X298744000Y88176666D01*
X298696380Y88081428D01*
X298696380Y87890952D01*
X298744000Y87795714D01*
X298791619Y87748095D01*
X298886857Y87700476D01*
X298934476Y87700476D01*
X299029714Y87748095D01*
X299077333Y87795714D01*
X299124952Y87890952D01*
X299124952Y88081428D01*
X299172571Y88176666D01*
X299220190Y88224285D01*
X299315428Y88271904D01*
X299505904Y88271904D01*
X299601142Y88224285D01*
X299648761Y88176666D01*
X299696380Y88081428D01*
X299696380Y87890952D01*
X299648761Y87795714D01*
X299601142Y87748095D01*
X299505904Y87700476D01*
X299315428Y87700476D01*
X299220190Y87748095D01*
X299172571Y87795714D01*
X299124952Y87890952D01*
X298696380Y87367142D02*
X298696380Y86748095D01*
X299077333Y87081428D01*
X299077333Y86938571D01*
X299124952Y86843333D01*
X299172571Y86795714D01*
X299267809Y86748095D01*
X299505904Y86748095D01*
X299601142Y86795714D01*
X299648761Y86843333D01*
X299696380Y86938571D01*
X299696380Y87224285D01*
X299648761Y87319523D01*
X299601142Y87367142D01*
G04 #@! TO.C,D82*
X312523380Y15057285D02*
X311523380Y15057285D01*
X311523380Y14819190D01*
X311571000Y14676333D01*
X311666238Y14581095D01*
X311761476Y14533476D01*
X311951952Y14485857D01*
X312094809Y14485857D01*
X312285285Y14533476D01*
X312380523Y14581095D01*
X312475761Y14676333D01*
X312523380Y14819190D01*
X312523380Y15057285D01*
X311951952Y13914428D02*
X311904333Y14009666D01*
X311856714Y14057285D01*
X311761476Y14104904D01*
X311713857Y14104904D01*
X311618619Y14057285D01*
X311571000Y14009666D01*
X311523380Y13914428D01*
X311523380Y13723952D01*
X311571000Y13628714D01*
X311618619Y13581095D01*
X311713857Y13533476D01*
X311761476Y13533476D01*
X311856714Y13581095D01*
X311904333Y13628714D01*
X311951952Y13723952D01*
X311951952Y13914428D01*
X311999571Y14009666D01*
X312047190Y14057285D01*
X312142428Y14104904D01*
X312332904Y14104904D01*
X312428142Y14057285D01*
X312475761Y14009666D01*
X312523380Y13914428D01*
X312523380Y13723952D01*
X312475761Y13628714D01*
X312428142Y13581095D01*
X312332904Y13533476D01*
X312142428Y13533476D01*
X312047190Y13581095D01*
X311999571Y13628714D01*
X311951952Y13723952D01*
X311618619Y13152523D02*
X311571000Y13104904D01*
X311523380Y13009666D01*
X311523380Y12771571D01*
X311571000Y12676333D01*
X311618619Y12628714D01*
X311713857Y12581095D01*
X311809095Y12581095D01*
X311951952Y12628714D01*
X312523380Y13200142D01*
X312523380Y12581095D01*
G04 #@! TO.C,D78*
X297156380Y69920285D02*
X296156380Y69920285D01*
X296156380Y69682190D01*
X296204000Y69539333D01*
X296299238Y69444095D01*
X296394476Y69396476D01*
X296584952Y69348857D01*
X296727809Y69348857D01*
X296918285Y69396476D01*
X297013523Y69444095D01*
X297108761Y69539333D01*
X297156380Y69682190D01*
X297156380Y69920285D01*
X296156380Y69015523D02*
X296156380Y68348857D01*
X297156380Y68777428D01*
X296584952Y67825047D02*
X296537333Y67920285D01*
X296489714Y67967904D01*
X296394476Y68015523D01*
X296346857Y68015523D01*
X296251619Y67967904D01*
X296204000Y67920285D01*
X296156380Y67825047D01*
X296156380Y67634571D01*
X296204000Y67539333D01*
X296251619Y67491714D01*
X296346857Y67444095D01*
X296394476Y67444095D01*
X296489714Y67491714D01*
X296537333Y67539333D01*
X296584952Y67634571D01*
X296584952Y67825047D01*
X296632571Y67920285D01*
X296680190Y67967904D01*
X296775428Y68015523D01*
X296965904Y68015523D01*
X297061142Y67967904D01*
X297108761Y67920285D01*
X297156380Y67825047D01*
X297156380Y67634571D01*
X297108761Y67539333D01*
X297061142Y67491714D01*
X296965904Y67444095D01*
X296775428Y67444095D01*
X296680190Y67491714D01*
X296632571Y67539333D01*
X296584952Y67634571D01*
G04 #@! TO.C,D77*
X293524701Y90955306D02*
X292524701Y90955306D01*
X292524701Y90717211D01*
X292572321Y90574354D01*
X292667559Y90479116D01*
X292762797Y90431497D01*
X292953273Y90383878D01*
X293096130Y90383878D01*
X293286606Y90431497D01*
X293381844Y90479116D01*
X293477082Y90574354D01*
X293524701Y90717211D01*
X293524701Y90955306D01*
X292524701Y90050544D02*
X292524701Y89383878D01*
X293524701Y89812449D01*
X292524701Y89098163D02*
X292524701Y88431497D01*
X293524701Y88860068D01*
G04 #@! TO.C,D76*
X290044380Y34742285D02*
X289044380Y34742285D01*
X289044380Y34504190D01*
X289092000Y34361333D01*
X289187238Y34266095D01*
X289282476Y34218476D01*
X289472952Y34170857D01*
X289615809Y34170857D01*
X289806285Y34218476D01*
X289901523Y34266095D01*
X289996761Y34361333D01*
X290044380Y34504190D01*
X290044380Y34742285D01*
X289044380Y33837523D02*
X289044380Y33170857D01*
X290044380Y33599428D01*
X289044380Y32361333D02*
X289044380Y32551809D01*
X289092000Y32647047D01*
X289139619Y32694666D01*
X289282476Y32789904D01*
X289472952Y32837523D01*
X289853904Y32837523D01*
X289949142Y32789904D01*
X289996761Y32742285D01*
X290044380Y32647047D01*
X290044380Y32456571D01*
X289996761Y32361333D01*
X289949142Y32313714D01*
X289853904Y32266095D01*
X289615809Y32266095D01*
X289520571Y32313714D01*
X289472952Y32361333D01*
X289425333Y32456571D01*
X289425333Y32647047D01*
X289472952Y32742285D01*
X289520571Y32789904D01*
X289615809Y32837523D01*
G04 #@! TO.C,D75*
X297410380Y13661285D02*
X296410380Y13661285D01*
X296410380Y13423190D01*
X296458000Y13280333D01*
X296553238Y13185095D01*
X296648476Y13137476D01*
X296838952Y13089857D01*
X296981809Y13089857D01*
X297172285Y13137476D01*
X297267523Y13185095D01*
X297362761Y13280333D01*
X297410380Y13423190D01*
X297410380Y13661285D01*
X296410380Y12756523D02*
X296410380Y12089857D01*
X297410380Y12518428D01*
X296410380Y11232714D02*
X296410380Y11708904D01*
X296886571Y11756523D01*
X296838952Y11708904D01*
X296791333Y11613666D01*
X296791333Y11375571D01*
X296838952Y11280333D01*
X296886571Y11232714D01*
X296981809Y11185095D01*
X297219904Y11185095D01*
X297315142Y11232714D01*
X297362761Y11280333D01*
X297410380Y11375571D01*
X297410380Y11613666D01*
X297362761Y11708904D01*
X297315142Y11756523D01*
G04 #@! TO.C,D74*
X288520380Y52522285D02*
X287520380Y52522285D01*
X287520380Y52284190D01*
X287568000Y52141333D01*
X287663238Y52046095D01*
X287758476Y51998476D01*
X287948952Y51950857D01*
X288091809Y51950857D01*
X288282285Y51998476D01*
X288377523Y52046095D01*
X288472761Y52141333D01*
X288520380Y52284190D01*
X288520380Y52522285D01*
X287520380Y51617523D02*
X287520380Y50950857D01*
X288520380Y51379428D01*
X287853714Y50141333D02*
X288520380Y50141333D01*
X287472761Y50379428D02*
X288187047Y50617523D01*
X288187047Y49998476D01*
G04 #@! TO.C,D73*
X277852380Y71318285D02*
X276852380Y71318285D01*
X276852380Y71080190D01*
X276900000Y70937333D01*
X276995238Y70842095D01*
X277090476Y70794476D01*
X277280952Y70746857D01*
X277423809Y70746857D01*
X277614285Y70794476D01*
X277709523Y70842095D01*
X277804761Y70937333D01*
X277852380Y71080190D01*
X277852380Y71318285D01*
X276852380Y70413523D02*
X276852380Y69746857D01*
X277852380Y70175428D01*
X276852380Y69461142D02*
X276852380Y68842095D01*
X277233333Y69175428D01*
X277233333Y69032571D01*
X277280952Y68937333D01*
X277328571Y68889714D01*
X277423809Y68842095D01*
X277661904Y68842095D01*
X277757142Y68889714D01*
X277804761Y68937333D01*
X277852380Y69032571D01*
X277852380Y69318285D01*
X277804761Y69413523D01*
X277757142Y69461142D01*
G04 #@! TO.C,D72*
X274296380Y89098285D02*
X273296380Y89098285D01*
X273296380Y88860190D01*
X273344000Y88717333D01*
X273439238Y88622095D01*
X273534476Y88574476D01*
X273724952Y88526857D01*
X273867809Y88526857D01*
X274058285Y88574476D01*
X274153523Y88622095D01*
X274248761Y88717333D01*
X274296380Y88860190D01*
X274296380Y89098285D01*
X273296380Y88193523D02*
X273296380Y87526857D01*
X274296380Y87955428D01*
X273391619Y87193523D02*
X273344000Y87145904D01*
X273296380Y87050666D01*
X273296380Y86812571D01*
X273344000Y86717333D01*
X273391619Y86669714D01*
X273486857Y86622095D01*
X273582095Y86622095D01*
X273724952Y86669714D01*
X274296380Y87241142D01*
X274296380Y86622095D01*
G04 #@! TO.C,D71*
X243562380Y14677285D02*
X242562380Y14677285D01*
X242562380Y14439190D01*
X242610000Y14296333D01*
X242705238Y14201095D01*
X242800476Y14153476D01*
X242990952Y14105857D01*
X243133809Y14105857D01*
X243324285Y14153476D01*
X243419523Y14201095D01*
X243514761Y14296333D01*
X243562380Y14439190D01*
X243562380Y14677285D01*
X242562380Y13772523D02*
X242562380Y13105857D01*
X243562380Y13534428D01*
X243562380Y12201095D02*
X243562380Y12772523D01*
X243562380Y12486809D02*
X242562380Y12486809D01*
X242705238Y12582047D01*
X242800476Y12677285D01*
X242848095Y12772523D01*
G04 #@! TO.C,D70*
X272772380Y36140285D02*
X271772380Y36140285D01*
X271772380Y35902190D01*
X271820000Y35759333D01*
X271915238Y35664095D01*
X272010476Y35616476D01*
X272200952Y35568857D01*
X272343809Y35568857D01*
X272534285Y35616476D01*
X272629523Y35664095D01*
X272724761Y35759333D01*
X272772380Y35902190D01*
X272772380Y36140285D01*
X271772380Y35235523D02*
X271772380Y34568857D01*
X272772380Y34997428D01*
X271772380Y33997428D02*
X271772380Y33902190D01*
X271820000Y33806952D01*
X271867619Y33759333D01*
X271962857Y33711714D01*
X272153333Y33664095D01*
X272391428Y33664095D01*
X272581904Y33711714D01*
X272677142Y33759333D01*
X272724761Y33806952D01*
X272772380Y33902190D01*
X272772380Y33997428D01*
X272724761Y34092666D01*
X272677142Y34140285D01*
X272581904Y34187904D01*
X272391428Y34235523D01*
X272153333Y34235523D01*
X271962857Y34187904D01*
X271867619Y34140285D01*
X271820000Y34092666D01*
X271772380Y33997428D01*
G04 #@! TO.C,D69*
X269100715Y54333914D02*
X268100715Y54333914D01*
X268100715Y54095819D01*
X268148335Y53952962D01*
X268243573Y53857724D01*
X268338811Y53810105D01*
X268529287Y53762486D01*
X268672144Y53762486D01*
X268862620Y53810105D01*
X268957858Y53857724D01*
X269053096Y53952962D01*
X269100715Y54095819D01*
X269100715Y54333914D01*
X268100715Y52905343D02*
X268100715Y53095819D01*
X268148335Y53191057D01*
X268195954Y53238676D01*
X268338811Y53333914D01*
X268529287Y53381533D01*
X268910239Y53381533D01*
X269005477Y53333914D01*
X269053096Y53286295D01*
X269100715Y53191057D01*
X269100715Y53000581D01*
X269053096Y52905343D01*
X269005477Y52857724D01*
X268910239Y52810105D01*
X268672144Y52810105D01*
X268576906Y52857724D01*
X268529287Y52905343D01*
X268481668Y53000581D01*
X268481668Y53191057D01*
X268529287Y53286295D01*
X268576906Y53333914D01*
X268672144Y53381533D01*
X269100715Y52333914D02*
X269100715Y52143438D01*
X269053096Y52048200D01*
X269005477Y52000581D01*
X268862620Y51905343D01*
X268672144Y51857724D01*
X268291192Y51857724D01*
X268195954Y51905343D01*
X268148335Y51952962D01*
X268100715Y52048200D01*
X268100715Y52238676D01*
X268148335Y52333914D01*
X268195954Y52381533D01*
X268291192Y52429152D01*
X268529287Y52429152D01*
X268624525Y52381533D01*
X268672144Y52333914D01*
X268719763Y52238676D01*
X268719763Y52048200D01*
X268672144Y51952962D01*
X268624525Y51905343D01*
X268529287Y51857724D01*
G04 #@! TO.C,D68*
X265152380Y69920285D02*
X264152380Y69920285D01*
X264152380Y69682190D01*
X264200000Y69539333D01*
X264295238Y69444095D01*
X264390476Y69396476D01*
X264580952Y69348857D01*
X264723809Y69348857D01*
X264914285Y69396476D01*
X265009523Y69444095D01*
X265104761Y69539333D01*
X265152380Y69682190D01*
X265152380Y69920285D01*
X264152380Y68491714D02*
X264152380Y68682190D01*
X264200000Y68777428D01*
X264247619Y68825047D01*
X264390476Y68920285D01*
X264580952Y68967904D01*
X264961904Y68967904D01*
X265057142Y68920285D01*
X265104761Y68872666D01*
X265152380Y68777428D01*
X265152380Y68586952D01*
X265104761Y68491714D01*
X265057142Y68444095D01*
X264961904Y68396476D01*
X264723809Y68396476D01*
X264628571Y68444095D01*
X264580952Y68491714D01*
X264533333Y68586952D01*
X264533333Y68777428D01*
X264580952Y68872666D01*
X264628571Y68920285D01*
X264723809Y68967904D01*
X264580952Y67825047D02*
X264533333Y67920285D01*
X264485714Y67967904D01*
X264390476Y68015523D01*
X264342857Y68015523D01*
X264247619Y67967904D01*
X264200000Y67920285D01*
X264152380Y67825047D01*
X264152380Y67634571D01*
X264200000Y67539333D01*
X264247619Y67491714D01*
X264342857Y67444095D01*
X264390476Y67444095D01*
X264485714Y67491714D01*
X264533333Y67539333D01*
X264580952Y67634571D01*
X264580952Y67825047D01*
X264628571Y67920285D01*
X264676190Y67967904D01*
X264771428Y68015523D01*
X264961904Y68015523D01*
X265057142Y67967904D01*
X265104761Y67920285D01*
X265152380Y67825047D01*
X265152380Y67634571D01*
X265104761Y67539333D01*
X265057142Y67491714D01*
X264961904Y67444095D01*
X264771428Y67444095D01*
X264676190Y67491714D01*
X264628571Y67539333D01*
X264580952Y67634571D01*
G04 #@! TO.C,D67*
X255308362Y90905770D02*
X254308362Y90905770D01*
X254308362Y90667675D01*
X254355982Y90524818D01*
X254451220Y90429580D01*
X254546458Y90381961D01*
X254736934Y90334342D01*
X254879791Y90334342D01*
X255070267Y90381961D01*
X255165505Y90429580D01*
X255260743Y90524818D01*
X255308362Y90667675D01*
X255308362Y90905770D01*
X254308362Y89477199D02*
X254308362Y89667675D01*
X254355982Y89762913D01*
X254403601Y89810532D01*
X254546458Y89905770D01*
X254736934Y89953389D01*
X255117886Y89953389D01*
X255213124Y89905770D01*
X255260743Y89858151D01*
X255308362Y89762913D01*
X255308362Y89572437D01*
X255260743Y89477199D01*
X255213124Y89429580D01*
X255117886Y89381961D01*
X254879791Y89381961D01*
X254784553Y89429580D01*
X254736934Y89477199D01*
X254689315Y89572437D01*
X254689315Y89762913D01*
X254736934Y89858151D01*
X254784553Y89905770D01*
X254879791Y89953389D01*
X254308362Y89048627D02*
X254308362Y88381961D01*
X255308362Y88810532D01*
G04 #@! TO.C,D66*
X260072380Y34742285D02*
X259072380Y34742285D01*
X259072380Y34504190D01*
X259120000Y34361333D01*
X259215238Y34266095D01*
X259310476Y34218476D01*
X259500952Y34170857D01*
X259643809Y34170857D01*
X259834285Y34218476D01*
X259929523Y34266095D01*
X260024761Y34361333D01*
X260072380Y34504190D01*
X260072380Y34742285D01*
X259072380Y33313714D02*
X259072380Y33504190D01*
X259120000Y33599428D01*
X259167619Y33647047D01*
X259310476Y33742285D01*
X259500952Y33789904D01*
X259881904Y33789904D01*
X259977142Y33742285D01*
X260024761Y33694666D01*
X260072380Y33599428D01*
X260072380Y33408952D01*
X260024761Y33313714D01*
X259977142Y33266095D01*
X259881904Y33218476D01*
X259643809Y33218476D01*
X259548571Y33266095D01*
X259500952Y33313714D01*
X259453333Y33408952D01*
X259453333Y33599428D01*
X259500952Y33694666D01*
X259548571Y33742285D01*
X259643809Y33789904D01*
X259072380Y32361333D02*
X259072380Y32551809D01*
X259120000Y32647047D01*
X259167619Y32694666D01*
X259310476Y32789904D01*
X259500952Y32837523D01*
X259881904Y32837523D01*
X259977142Y32789904D01*
X260024761Y32742285D01*
X260072380Y32647047D01*
X260072380Y32456571D01*
X260024761Y32361333D01*
X259977142Y32313714D01*
X259881904Y32266095D01*
X259643809Y32266095D01*
X259548571Y32313714D01*
X259500952Y32361333D01*
X259453333Y32456571D01*
X259453333Y32647047D01*
X259500952Y32742285D01*
X259548571Y32789904D01*
X259643809Y32837523D01*
G04 #@! TO.C,D64*
X246356380Y71318285D02*
X245356380Y71318285D01*
X245356380Y71080190D01*
X245404000Y70937333D01*
X245499238Y70842095D01*
X245594476Y70794476D01*
X245784952Y70746857D01*
X245927809Y70746857D01*
X246118285Y70794476D01*
X246213523Y70842095D01*
X246308761Y70937333D01*
X246356380Y71080190D01*
X246356380Y71318285D01*
X245356380Y69889714D02*
X245356380Y70080190D01*
X245404000Y70175428D01*
X245451619Y70223047D01*
X245594476Y70318285D01*
X245784952Y70365904D01*
X246165904Y70365904D01*
X246261142Y70318285D01*
X246308761Y70270666D01*
X246356380Y70175428D01*
X246356380Y69984952D01*
X246308761Y69889714D01*
X246261142Y69842095D01*
X246165904Y69794476D01*
X245927809Y69794476D01*
X245832571Y69842095D01*
X245784952Y69889714D01*
X245737333Y69984952D01*
X245737333Y70175428D01*
X245784952Y70270666D01*
X245832571Y70318285D01*
X245927809Y70365904D01*
X245689714Y68937333D02*
X246356380Y68937333D01*
X245308761Y69175428D02*
X246023047Y69413523D01*
X246023047Y68794476D01*
G04 #@! TO.C,D63*
X236392820Y89084273D02*
X235392820Y89084273D01*
X235392820Y88846178D01*
X235440440Y88703321D01*
X235535678Y88608083D01*
X235630916Y88560464D01*
X235821392Y88512845D01*
X235964249Y88512845D01*
X236154725Y88560464D01*
X236249963Y88608083D01*
X236345201Y88703321D01*
X236392820Y88846178D01*
X236392820Y89084273D01*
X235392820Y87655702D02*
X235392820Y87846178D01*
X235440440Y87941416D01*
X235488059Y87989035D01*
X235630916Y88084273D01*
X235821392Y88131892D01*
X236202344Y88131892D01*
X236297582Y88084273D01*
X236345201Y88036654D01*
X236392820Y87941416D01*
X236392820Y87750940D01*
X236345201Y87655702D01*
X236297582Y87608083D01*
X236202344Y87560464D01*
X235964249Y87560464D01*
X235869011Y87608083D01*
X235821392Y87655702D01*
X235773773Y87750940D01*
X235773773Y87941416D01*
X235821392Y88036654D01*
X235869011Y88084273D01*
X235964249Y88131892D01*
X235392820Y87227130D02*
X235392820Y86608083D01*
X235773773Y86941416D01*
X235773773Y86798559D01*
X235821392Y86703321D01*
X235869011Y86655702D01*
X235964249Y86608083D01*
X236202344Y86608083D01*
X236297582Y86655702D01*
X236345201Y86703321D01*
X236392820Y86798559D01*
X236392820Y87084273D01*
X236345201Y87179511D01*
X236297582Y87227130D01*
G04 #@! TO.C,D61*
X240768380Y36144588D02*
X239768380Y36144588D01*
X239768380Y35906493D01*
X239816000Y35763636D01*
X239911238Y35668398D01*
X240006476Y35620779D01*
X240196952Y35573160D01*
X240339809Y35573160D01*
X240530285Y35620779D01*
X240625523Y35668398D01*
X240720761Y35763636D01*
X240768380Y35906493D01*
X240768380Y36144588D01*
X239768380Y34716017D02*
X239768380Y34906493D01*
X239816000Y35001731D01*
X239863619Y35049350D01*
X240006476Y35144588D01*
X240196952Y35192207D01*
X240577904Y35192207D01*
X240673142Y35144588D01*
X240720761Y35096969D01*
X240768380Y35001731D01*
X240768380Y34811255D01*
X240720761Y34716017D01*
X240673142Y34668398D01*
X240577904Y34620779D01*
X240339809Y34620779D01*
X240244571Y34668398D01*
X240196952Y34716017D01*
X240149333Y34811255D01*
X240149333Y35001731D01*
X240196952Y35096969D01*
X240244571Y35144588D01*
X240339809Y35192207D01*
X240768380Y33668398D02*
X240768380Y34239826D01*
X240768380Y33954112D02*
X239768380Y33954112D01*
X239911238Y34049350D01*
X240006476Y34144588D01*
X240054095Y34239826D01*
G04 #@! TO.C,D59*
X227052380Y69920285D02*
X226052380Y69920285D01*
X226052380Y69682190D01*
X226100000Y69539333D01*
X226195238Y69444095D01*
X226290476Y69396476D01*
X226480952Y69348857D01*
X226623809Y69348857D01*
X226814285Y69396476D01*
X226909523Y69444095D01*
X227004761Y69539333D01*
X227052380Y69682190D01*
X227052380Y69920285D01*
X226052380Y68444095D02*
X226052380Y68920285D01*
X226528571Y68967904D01*
X226480952Y68920285D01*
X226433333Y68825047D01*
X226433333Y68586952D01*
X226480952Y68491714D01*
X226528571Y68444095D01*
X226623809Y68396476D01*
X226861904Y68396476D01*
X226957142Y68444095D01*
X227004761Y68491714D01*
X227052380Y68586952D01*
X227052380Y68825047D01*
X227004761Y68920285D01*
X226957142Y68967904D01*
X227052380Y67920285D02*
X227052380Y67729809D01*
X227004761Y67634571D01*
X226957142Y67586952D01*
X226814285Y67491714D01*
X226623809Y67444095D01*
X226242857Y67444095D01*
X226147619Y67491714D01*
X226100000Y67539333D01*
X226052380Y67634571D01*
X226052380Y67825047D01*
X226100000Y67920285D01*
X226147619Y67967904D01*
X226242857Y68015523D01*
X226480952Y68015523D01*
X226576190Y67967904D01*
X226623809Y67920285D01*
X226671428Y67825047D01*
X226671428Y67634571D01*
X226623809Y67539333D01*
X226576190Y67491714D01*
X226480952Y67444095D01*
G04 #@! TO.C,D58*
X217393208Y90933793D02*
X216393208Y90933793D01*
X216393208Y90695698D01*
X216440828Y90552841D01*
X216536066Y90457603D01*
X216631304Y90409984D01*
X216821780Y90362365D01*
X216964637Y90362365D01*
X217155113Y90409984D01*
X217250351Y90457603D01*
X217345589Y90552841D01*
X217393208Y90695698D01*
X217393208Y90933793D01*
X216393208Y89457603D02*
X216393208Y89933793D01*
X216869399Y89981412D01*
X216821780Y89933793D01*
X216774161Y89838555D01*
X216774161Y89600460D01*
X216821780Y89505222D01*
X216869399Y89457603D01*
X216964637Y89409984D01*
X217202732Y89409984D01*
X217297970Y89457603D01*
X217345589Y89505222D01*
X217393208Y89600460D01*
X217393208Y89838555D01*
X217345589Y89933793D01*
X217297970Y89981412D01*
X216821780Y88838555D02*
X216774161Y88933793D01*
X216726542Y88981412D01*
X216631304Y89029031D01*
X216583685Y89029031D01*
X216488447Y88981412D01*
X216440828Y88933793D01*
X216393208Y88838555D01*
X216393208Y88648079D01*
X216440828Y88552841D01*
X216488447Y88505222D01*
X216583685Y88457603D01*
X216631304Y88457603D01*
X216726542Y88505222D01*
X216774161Y88552841D01*
X216821780Y88648079D01*
X216821780Y88838555D01*
X216869399Y88933793D01*
X216917018Y88981412D01*
X217012256Y89029031D01*
X217202732Y89029031D01*
X217297970Y88981412D01*
X217345589Y88933793D01*
X217393208Y88838555D01*
X217393208Y88648079D01*
X217345589Y88552841D01*
X217297970Y88505222D01*
X217202732Y88457603D01*
X217012256Y88457603D01*
X216917018Y88505222D01*
X216869399Y88552841D01*
X216821780Y88648079D01*
G04 #@! TO.C,D57*
X221972380Y34742285D02*
X220972380Y34742285D01*
X220972380Y34504190D01*
X221020000Y34361333D01*
X221115238Y34266095D01*
X221210476Y34218476D01*
X221400952Y34170857D01*
X221543809Y34170857D01*
X221734285Y34218476D01*
X221829523Y34266095D01*
X221924761Y34361333D01*
X221972380Y34504190D01*
X221972380Y34742285D01*
X220972380Y33266095D02*
X220972380Y33742285D01*
X221448571Y33789904D01*
X221400952Y33742285D01*
X221353333Y33647047D01*
X221353333Y33408952D01*
X221400952Y33313714D01*
X221448571Y33266095D01*
X221543809Y33218476D01*
X221781904Y33218476D01*
X221877142Y33266095D01*
X221924761Y33313714D01*
X221972380Y33408952D01*
X221972380Y33647047D01*
X221924761Y33742285D01*
X221877142Y33789904D01*
X220972380Y32885142D02*
X220972380Y32218476D01*
X221972380Y32647047D01*
G04 #@! TO.C,D56*
X212320380Y52522285D02*
X211320380Y52522285D01*
X211320380Y52284190D01*
X211368000Y52141333D01*
X211463238Y52046095D01*
X211558476Y51998476D01*
X211748952Y51950857D01*
X211891809Y51950857D01*
X212082285Y51998476D01*
X212177523Y52046095D01*
X212272761Y52141333D01*
X212320380Y52284190D01*
X212320380Y52522285D01*
X211320380Y51046095D02*
X211320380Y51522285D01*
X211796571Y51569904D01*
X211748952Y51522285D01*
X211701333Y51427047D01*
X211701333Y51188952D01*
X211748952Y51093714D01*
X211796571Y51046095D01*
X211891809Y50998476D01*
X212129904Y50998476D01*
X212225142Y51046095D01*
X212272761Y51093714D01*
X212320380Y51188952D01*
X212320380Y51427047D01*
X212272761Y51522285D01*
X212225142Y51569904D01*
X211320380Y50141333D02*
X211320380Y50331809D01*
X211368000Y50427047D01*
X211415619Y50474666D01*
X211558476Y50569904D01*
X211748952Y50617523D01*
X212129904Y50617523D01*
X212225142Y50569904D01*
X212272761Y50522285D01*
X212320380Y50427047D01*
X212320380Y50236571D01*
X212272761Y50141333D01*
X212225142Y50093714D01*
X212129904Y50046095D01*
X211891809Y50046095D01*
X211796571Y50093714D01*
X211748952Y50141333D01*
X211701333Y50236571D01*
X211701333Y50427047D01*
X211748952Y50522285D01*
X211796571Y50569904D01*
X211891809Y50617523D01*
G04 #@! TO.C,D55*
X207748380Y71318285D02*
X206748380Y71318285D01*
X206748380Y71080190D01*
X206796000Y70937333D01*
X206891238Y70842095D01*
X206986476Y70794476D01*
X207176952Y70746857D01*
X207319809Y70746857D01*
X207510285Y70794476D01*
X207605523Y70842095D01*
X207700761Y70937333D01*
X207748380Y71080190D01*
X207748380Y71318285D01*
X206748380Y69842095D02*
X206748380Y70318285D01*
X207224571Y70365904D01*
X207176952Y70318285D01*
X207129333Y70223047D01*
X207129333Y69984952D01*
X207176952Y69889714D01*
X207224571Y69842095D01*
X207319809Y69794476D01*
X207557904Y69794476D01*
X207653142Y69842095D01*
X207700761Y69889714D01*
X207748380Y69984952D01*
X207748380Y70223047D01*
X207700761Y70318285D01*
X207653142Y70365904D01*
X206748380Y68889714D02*
X206748380Y69365904D01*
X207224571Y69413523D01*
X207176952Y69365904D01*
X207129333Y69270666D01*
X207129333Y69032571D01*
X207176952Y68937333D01*
X207224571Y68889714D01*
X207319809Y68842095D01*
X207557904Y68842095D01*
X207653142Y68889714D01*
X207700761Y68937333D01*
X207748380Y69032571D01*
X207748380Y69270666D01*
X207700761Y69365904D01*
X207653142Y69413523D01*
G04 #@! TO.C,D54*
X198456226Y89098285D02*
X197456226Y89098285D01*
X197456226Y88860190D01*
X197503846Y88717333D01*
X197599084Y88622095D01*
X197694322Y88574476D01*
X197884798Y88526857D01*
X198027655Y88526857D01*
X198218131Y88574476D01*
X198313369Y88622095D01*
X198408607Y88717333D01*
X198456226Y88860190D01*
X198456226Y89098285D01*
X197456226Y87622095D02*
X197456226Y88098285D01*
X197932417Y88145904D01*
X197884798Y88098285D01*
X197837179Y88003047D01*
X197837179Y87764952D01*
X197884798Y87669714D01*
X197932417Y87622095D01*
X198027655Y87574476D01*
X198265750Y87574476D01*
X198360988Y87622095D01*
X198408607Y87669714D01*
X198456226Y87764952D01*
X198456226Y88003047D01*
X198408607Y88098285D01*
X198360988Y88145904D01*
X197789560Y86717333D02*
X198456226Y86717333D01*
X197408607Y86955428D02*
X198122893Y87193523D01*
X198122893Y86574476D01*
G04 #@! TO.C,D53*
X198858380Y14676285D02*
X197858380Y14676285D01*
X197858380Y14438190D01*
X197906000Y14295333D01*
X198001238Y14200095D01*
X198096476Y14152476D01*
X198286952Y14104857D01*
X198429809Y14104857D01*
X198620285Y14152476D01*
X198715523Y14200095D01*
X198810761Y14295333D01*
X198858380Y14438190D01*
X198858380Y14676285D01*
X197858380Y13200095D02*
X197858380Y13676285D01*
X198334571Y13723904D01*
X198286952Y13676285D01*
X198239333Y13581047D01*
X198239333Y13342952D01*
X198286952Y13247714D01*
X198334571Y13200095D01*
X198429809Y13152476D01*
X198667904Y13152476D01*
X198763142Y13200095D01*
X198810761Y13247714D01*
X198858380Y13342952D01*
X198858380Y13581047D01*
X198810761Y13676285D01*
X198763142Y13723904D01*
X197858380Y12819142D02*
X197858380Y12200095D01*
X198239333Y12533428D01*
X198239333Y12390571D01*
X198286952Y12295333D01*
X198334571Y12247714D01*
X198429809Y12200095D01*
X198667904Y12200095D01*
X198763142Y12247714D01*
X198810761Y12295333D01*
X198858380Y12390571D01*
X198858380Y12676285D01*
X198810761Y12771523D01*
X198763142Y12819142D01*
G04 #@! TO.C,D52*
X202684303Y35885833D02*
X201684303Y35885833D01*
X201684303Y35647738D01*
X201731923Y35504881D01*
X201827161Y35409643D01*
X201922399Y35362024D01*
X202112875Y35314405D01*
X202255732Y35314405D01*
X202446208Y35362024D01*
X202541446Y35409643D01*
X202636684Y35504881D01*
X202684303Y35647738D01*
X202684303Y35885833D01*
X201684303Y34409643D02*
X201684303Y34885833D01*
X202160494Y34933452D01*
X202112875Y34885833D01*
X202065256Y34790595D01*
X202065256Y34552500D01*
X202112875Y34457262D01*
X202160494Y34409643D01*
X202255732Y34362024D01*
X202493827Y34362024D01*
X202589065Y34409643D01*
X202636684Y34457262D01*
X202684303Y34552500D01*
X202684303Y34790595D01*
X202636684Y34885833D01*
X202589065Y34933452D01*
X201779542Y33981071D02*
X201731923Y33933452D01*
X201684303Y33838214D01*
X201684303Y33600119D01*
X201731923Y33504881D01*
X201779542Y33457262D01*
X201874780Y33409643D01*
X201970018Y33409643D01*
X202112875Y33457262D01*
X202684303Y34028690D01*
X202684303Y33409643D01*
G04 #@! TO.C,D51*
X192991442Y54435581D02*
X191991442Y54435581D01*
X191991442Y54197486D01*
X192039062Y54054629D01*
X192134300Y53959391D01*
X192229538Y53911772D01*
X192420014Y53864153D01*
X192562871Y53864153D01*
X192753347Y53911772D01*
X192848585Y53959391D01*
X192943823Y54054629D01*
X192991442Y54197486D01*
X192991442Y54435581D01*
X191991442Y52959391D02*
X191991442Y53435581D01*
X192467633Y53483200D01*
X192420014Y53435581D01*
X192372395Y53340343D01*
X192372395Y53102248D01*
X192420014Y53007010D01*
X192467633Y52959391D01*
X192562871Y52911772D01*
X192800966Y52911772D01*
X192896204Y52959391D01*
X192943823Y53007010D01*
X192991442Y53102248D01*
X192991442Y53340343D01*
X192943823Y53435581D01*
X192896204Y53483200D01*
X192991442Y51959391D02*
X192991442Y52530819D01*
X192991442Y52245105D02*
X191991442Y52245105D01*
X192134300Y52340343D01*
X192229538Y52435581D01*
X192277157Y52530819D01*
G04 #@! TO.C,D50*
X188952380Y69920285D02*
X187952380Y69920285D01*
X187952380Y69682190D01*
X188000000Y69539333D01*
X188095238Y69444095D01*
X188190476Y69396476D01*
X188380952Y69348857D01*
X188523809Y69348857D01*
X188714285Y69396476D01*
X188809523Y69444095D01*
X188904761Y69539333D01*
X188952380Y69682190D01*
X188952380Y69920285D01*
X187952380Y68444095D02*
X187952380Y68920285D01*
X188428571Y68967904D01*
X188380952Y68920285D01*
X188333333Y68825047D01*
X188333333Y68586952D01*
X188380952Y68491714D01*
X188428571Y68444095D01*
X188523809Y68396476D01*
X188761904Y68396476D01*
X188857142Y68444095D01*
X188904761Y68491714D01*
X188952380Y68586952D01*
X188952380Y68825047D01*
X188904761Y68920285D01*
X188857142Y68967904D01*
X187952380Y67777428D02*
X187952380Y67682190D01*
X188000000Y67586952D01*
X188047619Y67539333D01*
X188142857Y67491714D01*
X188333333Y67444095D01*
X188571428Y67444095D01*
X188761904Y67491714D01*
X188857142Y67539333D01*
X188904761Y67586952D01*
X188952380Y67682190D01*
X188952380Y67777428D01*
X188904761Y67872666D01*
X188857142Y67920285D01*
X188761904Y67967904D01*
X188571428Y68015523D01*
X188333333Y68015523D01*
X188142857Y67967904D01*
X188047619Y67920285D01*
X188000000Y67872666D01*
X187952380Y67777428D01*
G04 #@! TO.C,D49*
X179288476Y90982546D02*
X178288476Y90982546D01*
X178288476Y90744451D01*
X178336096Y90601594D01*
X178431334Y90506356D01*
X178526572Y90458737D01*
X178717048Y90411118D01*
X178859905Y90411118D01*
X179050381Y90458737D01*
X179145619Y90506356D01*
X179240857Y90601594D01*
X179288476Y90744451D01*
X179288476Y90982546D01*
X178621810Y89553975D02*
X179288476Y89553975D01*
X178240857Y89792070D02*
X178955143Y90030165D01*
X178955143Y89411118D01*
X179288476Y88982546D02*
X179288476Y88792070D01*
X179240857Y88696832D01*
X179193238Y88649213D01*
X179050381Y88553975D01*
X178859905Y88506356D01*
X178478953Y88506356D01*
X178383715Y88553975D01*
X178336096Y88601594D01*
X178288476Y88696832D01*
X178288476Y88887308D01*
X178336096Y88982546D01*
X178383715Y89030165D01*
X178478953Y89077784D01*
X178717048Y89077784D01*
X178812286Y89030165D01*
X178859905Y88982546D01*
X178907524Y88887308D01*
X178907524Y88696832D01*
X178859905Y88601594D01*
X178812286Y88553975D01*
X178717048Y88506356D01*
G04 #@! TO.C,D48*
X184380380Y34868285D02*
X183380380Y34868285D01*
X183380380Y34630190D01*
X183428000Y34487333D01*
X183523238Y34392095D01*
X183618476Y34344476D01*
X183808952Y34296857D01*
X183951809Y34296857D01*
X184142285Y34344476D01*
X184237523Y34392095D01*
X184332761Y34487333D01*
X184380380Y34630190D01*
X184380380Y34868285D01*
X183713714Y33439714D02*
X184380380Y33439714D01*
X183332761Y33677809D02*
X184047047Y33915904D01*
X184047047Y33296857D01*
X183808952Y32773047D02*
X183761333Y32868285D01*
X183713714Y32915904D01*
X183618476Y32963523D01*
X183570857Y32963523D01*
X183475619Y32915904D01*
X183428000Y32868285D01*
X183380380Y32773047D01*
X183380380Y32582571D01*
X183428000Y32487333D01*
X183475619Y32439714D01*
X183570857Y32392095D01*
X183618476Y32392095D01*
X183713714Y32439714D01*
X183761333Y32487333D01*
X183808952Y32582571D01*
X183808952Y32773047D01*
X183856571Y32868285D01*
X183904190Y32915904D01*
X183999428Y32963523D01*
X184189904Y32963523D01*
X184285142Y32915904D01*
X184332761Y32868285D01*
X184380380Y32773047D01*
X184380380Y32582571D01*
X184332761Y32487333D01*
X184285142Y32439714D01*
X184189904Y32392095D01*
X183999428Y32392095D01*
X183904190Y32439714D01*
X183856571Y32487333D01*
X183808952Y32582571D01*
G04 #@! TO.C,D47*
X174728380Y52522285D02*
X173728380Y52522285D01*
X173728380Y52284190D01*
X173776000Y52141333D01*
X173871238Y52046095D01*
X173966476Y51998476D01*
X174156952Y51950857D01*
X174299809Y51950857D01*
X174490285Y51998476D01*
X174585523Y52046095D01*
X174680761Y52141333D01*
X174728380Y52284190D01*
X174728380Y52522285D01*
X174061714Y51093714D02*
X174728380Y51093714D01*
X173680761Y51331809D02*
X174395047Y51569904D01*
X174395047Y50950857D01*
X173728380Y50665142D02*
X173728380Y49998476D01*
X174728380Y50427047D01*
G04 #@! TO.C,D46*
X169620062Y71255382D02*
X168620062Y71255382D01*
X168620062Y71017287D01*
X168667682Y70874430D01*
X168762920Y70779192D01*
X168858158Y70731573D01*
X169048634Y70683954D01*
X169191491Y70683954D01*
X169381967Y70731573D01*
X169477205Y70779192D01*
X169572443Y70874430D01*
X169620062Y71017287D01*
X169620062Y71255382D01*
X168953396Y69826811D02*
X169620062Y69826811D01*
X168572443Y70064906D02*
X169286729Y70303001D01*
X169286729Y69683954D01*
X168620062Y68874430D02*
X168620062Y69064906D01*
X168667682Y69160144D01*
X168715301Y69207763D01*
X168858158Y69303001D01*
X169048634Y69350620D01*
X169429586Y69350620D01*
X169524824Y69303001D01*
X169572443Y69255382D01*
X169620062Y69160144D01*
X169620062Y68969668D01*
X169572443Y68874430D01*
X169524824Y68826811D01*
X169429586Y68779192D01*
X169191491Y68779192D01*
X169096253Y68826811D01*
X169048634Y68874430D01*
X169001015Y68969668D01*
X169001015Y69160144D01*
X169048634Y69255382D01*
X169096253Y69303001D01*
X169191491Y69350620D01*
G04 #@! TO.C,D45*
X159996380Y89098285D02*
X158996380Y89098285D01*
X158996380Y88860190D01*
X159044000Y88717333D01*
X159139238Y88622095D01*
X159234476Y88574476D01*
X159424952Y88526857D01*
X159567809Y88526857D01*
X159758285Y88574476D01*
X159853523Y88622095D01*
X159948761Y88717333D01*
X159996380Y88860190D01*
X159996380Y89098285D01*
X159329714Y87669714D02*
X159996380Y87669714D01*
X158948761Y87907809D02*
X159663047Y88145904D01*
X159663047Y87526857D01*
X158996380Y86669714D02*
X158996380Y87145904D01*
X159472571Y87193523D01*
X159424952Y87145904D01*
X159377333Y87050666D01*
X159377333Y86812571D01*
X159424952Y86717333D01*
X159472571Y86669714D01*
X159567809Y86622095D01*
X159805904Y86622095D01*
X159901142Y86669714D01*
X159948761Y86717333D01*
X159996380Y86812571D01*
X159996380Y87050666D01*
X159948761Y87145904D01*
X159901142Y87193523D01*
G04 #@! TO.C,D43*
X164568380Y35884285D02*
X163568380Y35884285D01*
X163568380Y35646190D01*
X163616000Y35503333D01*
X163711238Y35408095D01*
X163806476Y35360476D01*
X163996952Y35312857D01*
X164139809Y35312857D01*
X164330285Y35360476D01*
X164425523Y35408095D01*
X164520761Y35503333D01*
X164568380Y35646190D01*
X164568380Y35884285D01*
X163901714Y34455714D02*
X164568380Y34455714D01*
X163520761Y34693809D02*
X164235047Y34931904D01*
X164235047Y34312857D01*
X163568380Y34027142D02*
X163568380Y33408095D01*
X163949333Y33741428D01*
X163949333Y33598571D01*
X163996952Y33503333D01*
X164044571Y33455714D01*
X164139809Y33408095D01*
X164377904Y33408095D01*
X164473142Y33455714D01*
X164520761Y33503333D01*
X164568380Y33598571D01*
X164568380Y33884285D01*
X164520761Y33979523D01*
X164473142Y34027142D01*
G04 #@! TO.C,D42*
X154859532Y54444335D02*
X153859532Y54444335D01*
X153859532Y54206240D01*
X153907152Y54063383D01*
X154002390Y53968145D01*
X154097628Y53920526D01*
X154288104Y53872907D01*
X154430961Y53872907D01*
X154621437Y53920526D01*
X154716675Y53968145D01*
X154811913Y54063383D01*
X154859532Y54206240D01*
X154859532Y54444335D01*
X154192866Y53015764D02*
X154859532Y53015764D01*
X153811913Y53253859D02*
X154526199Y53491954D01*
X154526199Y52872907D01*
X153954771Y52539573D02*
X153907152Y52491954D01*
X153859532Y52396716D01*
X153859532Y52158621D01*
X153907152Y52063383D01*
X153954771Y52015764D01*
X154050009Y51968145D01*
X154145247Y51968145D01*
X154288104Y52015764D01*
X154859532Y52587192D01*
X154859532Y51968145D01*
G04 #@! TO.C,D41*
X150852380Y69920285D02*
X149852380Y69920285D01*
X149852380Y69682190D01*
X149900000Y69539333D01*
X149995238Y69444095D01*
X150090476Y69396476D01*
X150280952Y69348857D01*
X150423809Y69348857D01*
X150614285Y69396476D01*
X150709523Y69444095D01*
X150804761Y69539333D01*
X150852380Y69682190D01*
X150852380Y69920285D01*
X150185714Y68491714D02*
X150852380Y68491714D01*
X149804761Y68729809D02*
X150519047Y68967904D01*
X150519047Y68348857D01*
X150852380Y67444095D02*
X150852380Y68015523D01*
X150852380Y67729809D02*
X149852380Y67729809D01*
X149995238Y67825047D01*
X150090476Y67920285D01*
X150138095Y68015523D01*
G04 #@! TO.C,D40*
X141188371Y90948918D02*
X140188371Y90948918D01*
X140188371Y90710823D01*
X140235991Y90567966D01*
X140331229Y90472728D01*
X140426467Y90425109D01*
X140616943Y90377490D01*
X140759800Y90377490D01*
X140950276Y90425109D01*
X141045514Y90472728D01*
X141140752Y90567966D01*
X141188371Y90710823D01*
X141188371Y90948918D01*
X140521705Y89520347D02*
X141188371Y89520347D01*
X140140752Y89758442D02*
X140855038Y89996537D01*
X140855038Y89377490D01*
X140188371Y88806061D02*
X140188371Y88710823D01*
X140235991Y88615585D01*
X140283610Y88567966D01*
X140378848Y88520347D01*
X140569324Y88472728D01*
X140807419Y88472728D01*
X140997895Y88520347D01*
X141093133Y88567966D01*
X141140752Y88615585D01*
X141188371Y88710823D01*
X141188371Y88806061D01*
X141140752Y88901299D01*
X141093133Y88948918D01*
X140997895Y88996537D01*
X140807419Y89044156D01*
X140569324Y89044156D01*
X140378848Y88996537D01*
X140283610Y88948918D01*
X140235991Y88901299D01*
X140188371Y88806061D01*
G04 #@! TO.C,D39*
X145772380Y34868285D02*
X144772380Y34868285D01*
X144772380Y34630190D01*
X144820000Y34487333D01*
X144915238Y34392095D01*
X145010476Y34344476D01*
X145200952Y34296857D01*
X145343809Y34296857D01*
X145534285Y34344476D01*
X145629523Y34392095D01*
X145724761Y34487333D01*
X145772380Y34630190D01*
X145772380Y34868285D01*
X144772380Y33963523D02*
X144772380Y33344476D01*
X145153333Y33677809D01*
X145153333Y33534952D01*
X145200952Y33439714D01*
X145248571Y33392095D01*
X145343809Y33344476D01*
X145581904Y33344476D01*
X145677142Y33392095D01*
X145724761Y33439714D01*
X145772380Y33534952D01*
X145772380Y33820666D01*
X145724761Y33915904D01*
X145677142Y33963523D01*
X145772380Y32868285D02*
X145772380Y32677809D01*
X145724761Y32582571D01*
X145677142Y32534952D01*
X145534285Y32439714D01*
X145343809Y32392095D01*
X144962857Y32392095D01*
X144867619Y32439714D01*
X144820000Y32487333D01*
X144772380Y32582571D01*
X144772380Y32773047D01*
X144820000Y32868285D01*
X144867619Y32915904D01*
X144962857Y32963523D01*
X145200952Y32963523D01*
X145296190Y32915904D01*
X145343809Y32868285D01*
X145391428Y32773047D01*
X145391428Y32582571D01*
X145343809Y32487333D01*
X145296190Y32439714D01*
X145200952Y32392095D01*
G04 #@! TO.C,D38*
X136408607Y52482885D02*
X135408607Y52482885D01*
X135408607Y52244790D01*
X135456227Y52101933D01*
X135551465Y52006695D01*
X135646703Y51959076D01*
X135837179Y51911457D01*
X135980036Y51911457D01*
X136170512Y51959076D01*
X136265750Y52006695D01*
X136360988Y52101933D01*
X136408607Y52244790D01*
X136408607Y52482885D01*
X135408607Y51578123D02*
X135408607Y50959076D01*
X135789560Y51292409D01*
X135789560Y51149552D01*
X135837179Y51054314D01*
X135884798Y51006695D01*
X135980036Y50959076D01*
X136218131Y50959076D01*
X136313369Y51006695D01*
X136360988Y51054314D01*
X136408607Y51149552D01*
X136408607Y51435266D01*
X136360988Y51530504D01*
X136313369Y51578123D01*
X135837179Y50387647D02*
X135789560Y50482885D01*
X135741941Y50530504D01*
X135646703Y50578123D01*
X135599084Y50578123D01*
X135503846Y50530504D01*
X135456227Y50482885D01*
X135408607Y50387647D01*
X135408607Y50197171D01*
X135456227Y50101933D01*
X135503846Y50054314D01*
X135599084Y50006695D01*
X135646703Y50006695D01*
X135741941Y50054314D01*
X135789560Y50101933D01*
X135837179Y50197171D01*
X135837179Y50387647D01*
X135884798Y50482885D01*
X135932417Y50530504D01*
X136027655Y50578123D01*
X136218131Y50578123D01*
X136313369Y50530504D01*
X136360988Y50482885D01*
X136408607Y50387647D01*
X136408607Y50197171D01*
X136360988Y50101933D01*
X136313369Y50054314D01*
X136218131Y50006695D01*
X136027655Y50006695D01*
X135932417Y50054314D01*
X135884798Y50101933D01*
X135837179Y50197171D01*
G04 #@! TO.C,D37*
X131548380Y71318285D02*
X130548380Y71318285D01*
X130548380Y71080190D01*
X130596000Y70937333D01*
X130691238Y70842095D01*
X130786476Y70794476D01*
X130976952Y70746857D01*
X131119809Y70746857D01*
X131310285Y70794476D01*
X131405523Y70842095D01*
X131500761Y70937333D01*
X131548380Y71080190D01*
X131548380Y71318285D01*
X130548380Y70413523D02*
X130548380Y69794476D01*
X130929333Y70127809D01*
X130929333Y69984952D01*
X130976952Y69889714D01*
X131024571Y69842095D01*
X131119809Y69794476D01*
X131357904Y69794476D01*
X131453142Y69842095D01*
X131500761Y69889714D01*
X131548380Y69984952D01*
X131548380Y70270666D01*
X131500761Y70365904D01*
X131453142Y70413523D01*
X130548380Y69461142D02*
X130548380Y68794476D01*
X131548380Y69223047D01*
G04 #@! TO.C,D36*
X122124961Y89270454D02*
X121124961Y89270454D01*
X121124961Y89032359D01*
X121172581Y88889502D01*
X121267819Y88794264D01*
X121363057Y88746645D01*
X121553533Y88699026D01*
X121696390Y88699026D01*
X121886866Y88746645D01*
X121982104Y88794264D01*
X122077342Y88889502D01*
X122124961Y89032359D01*
X122124961Y89270454D01*
X121124961Y88365692D02*
X121124961Y87746645D01*
X121505914Y88079978D01*
X121505914Y87937121D01*
X121553533Y87841883D01*
X121601152Y87794264D01*
X121696390Y87746645D01*
X121934485Y87746645D01*
X122029723Y87794264D01*
X122077342Y87841883D01*
X122124961Y87937121D01*
X122124961Y88222835D01*
X122077342Y88318073D01*
X122029723Y88365692D01*
X121124961Y86889502D02*
X121124961Y87079978D01*
X121172581Y87175216D01*
X121220200Y87222835D01*
X121363057Y87318073D01*
X121553533Y87365692D01*
X121934485Y87365692D01*
X122029723Y87318073D01*
X122077342Y87270454D01*
X122124961Y87175216D01*
X122124961Y86984740D01*
X122077342Y86889502D01*
X122029723Y86841883D01*
X121934485Y86794264D01*
X121696390Y86794264D01*
X121601152Y86841883D01*
X121553533Y86889502D01*
X121505914Y86984740D01*
X121505914Y87175216D01*
X121553533Y87270454D01*
X121601152Y87318073D01*
X121696390Y87365692D01*
G04 #@! TO.C,D35*
X117832380Y12516285D02*
X116832380Y12516285D01*
X116832380Y12278190D01*
X116880000Y12135333D01*
X116975238Y12040095D01*
X117070476Y11992476D01*
X117260952Y11944857D01*
X117403809Y11944857D01*
X117594285Y11992476D01*
X117689523Y12040095D01*
X117784761Y12135333D01*
X117832380Y12278190D01*
X117832380Y12516285D01*
X116832380Y11611523D02*
X116832380Y10992476D01*
X117213333Y11325809D01*
X117213333Y11182952D01*
X117260952Y11087714D01*
X117308571Y11040095D01*
X117403809Y10992476D01*
X117641904Y10992476D01*
X117737142Y11040095D01*
X117784761Y11087714D01*
X117832380Y11182952D01*
X117832380Y11468666D01*
X117784761Y11563904D01*
X117737142Y11611523D01*
X116832380Y10087714D02*
X116832380Y10563904D01*
X117308571Y10611523D01*
X117260952Y10563904D01*
X117213333Y10468666D01*
X117213333Y10230571D01*
X117260952Y10135333D01*
X117308571Y10087714D01*
X117403809Y10040095D01*
X117641904Y10040095D01*
X117737142Y10087714D01*
X117784761Y10135333D01*
X117832380Y10230571D01*
X117832380Y10468666D01*
X117784761Y10563904D01*
X117737142Y10611523D01*
G04 #@! TO.C,D34*
X126468380Y35884285D02*
X125468380Y35884285D01*
X125468380Y35646190D01*
X125516000Y35503333D01*
X125611238Y35408095D01*
X125706476Y35360476D01*
X125896952Y35312857D01*
X126039809Y35312857D01*
X126230285Y35360476D01*
X126325523Y35408095D01*
X126420761Y35503333D01*
X126468380Y35646190D01*
X126468380Y35884285D01*
X125468380Y34979523D02*
X125468380Y34360476D01*
X125849333Y34693809D01*
X125849333Y34550952D01*
X125896952Y34455714D01*
X125944571Y34408095D01*
X126039809Y34360476D01*
X126277904Y34360476D01*
X126373142Y34408095D01*
X126420761Y34455714D01*
X126468380Y34550952D01*
X126468380Y34836666D01*
X126420761Y34931904D01*
X126373142Y34979523D01*
X125801714Y33503333D02*
X126468380Y33503333D01*
X125420761Y33741428D02*
X126135047Y33979523D01*
X126135047Y33360476D01*
G04 #@! TO.C,D33*
X117102957Y54469458D02*
X116102957Y54469458D01*
X116102957Y54231363D01*
X116150577Y54088506D01*
X116245815Y53993268D01*
X116341053Y53945649D01*
X116531529Y53898030D01*
X116674386Y53898030D01*
X116864862Y53945649D01*
X116960100Y53993268D01*
X117055338Y54088506D01*
X117102957Y54231363D01*
X117102957Y54469458D01*
X116102957Y53564696D02*
X116102957Y52945649D01*
X116483910Y53278982D01*
X116483910Y53136125D01*
X116531529Y53040887D01*
X116579148Y52993268D01*
X116674386Y52945649D01*
X116912481Y52945649D01*
X117007719Y52993268D01*
X117055338Y53040887D01*
X117102957Y53136125D01*
X117102957Y53421839D01*
X117055338Y53517077D01*
X117007719Y53564696D01*
X116102957Y52612315D02*
X116102957Y51993268D01*
X116483910Y52326601D01*
X116483910Y52183744D01*
X116531529Y52088506D01*
X116579148Y52040887D01*
X116674386Y51993268D01*
X116912481Y51993268D01*
X117007719Y52040887D01*
X117055338Y52088506D01*
X117102957Y52183744D01*
X117102957Y52469458D01*
X117055338Y52564696D01*
X117007719Y52612315D01*
G04 #@! TO.C,D32*
X112546784Y69903349D02*
X111546784Y69903349D01*
X111546784Y69665254D01*
X111594404Y69522397D01*
X111689642Y69427159D01*
X111784880Y69379540D01*
X111975356Y69331921D01*
X112118213Y69331921D01*
X112308689Y69379540D01*
X112403927Y69427159D01*
X112499165Y69522397D01*
X112546784Y69665254D01*
X112546784Y69903349D01*
X111546784Y68998587D02*
X111546784Y68379540D01*
X111927737Y68712873D01*
X111927737Y68570016D01*
X111975356Y68474778D01*
X112022975Y68427159D01*
X112118213Y68379540D01*
X112356308Y68379540D01*
X112451546Y68427159D01*
X112499165Y68474778D01*
X112546784Y68570016D01*
X112546784Y68855730D01*
X112499165Y68950968D01*
X112451546Y68998587D01*
X111642023Y67998587D02*
X111594404Y67950968D01*
X111546784Y67855730D01*
X111546784Y67617635D01*
X111594404Y67522397D01*
X111642023Y67474778D01*
X111737261Y67427159D01*
X111832499Y67427159D01*
X111975356Y67474778D01*
X112546784Y68046206D01*
X112546784Y67427159D01*
G04 #@! TO.C,D31*
X103118624Y91005639D02*
X102118624Y91005639D01*
X102118624Y90767544D01*
X102166244Y90624687D01*
X102261482Y90529449D01*
X102356720Y90481830D01*
X102547196Y90434211D01*
X102690053Y90434211D01*
X102880529Y90481830D01*
X102975767Y90529449D01*
X103071005Y90624687D01*
X103118624Y90767544D01*
X103118624Y91005639D01*
X102118624Y90100877D02*
X102118624Y89481830D01*
X102499577Y89815163D01*
X102499577Y89672306D01*
X102547196Y89577068D01*
X102594815Y89529449D01*
X102690053Y89481830D01*
X102928148Y89481830D01*
X103023386Y89529449D01*
X103071005Y89577068D01*
X103118624Y89672306D01*
X103118624Y89958020D01*
X103071005Y90053258D01*
X103023386Y90100877D01*
X103118624Y88529449D02*
X103118624Y89100877D01*
X103118624Y88815163D02*
X102118624Y88815163D01*
X102261482Y88910401D01*
X102356720Y89005639D01*
X102404339Y89100877D01*
G04 #@! TO.C,D30*
X94972380Y14930285D02*
X93972380Y14930285D01*
X93972380Y14692190D01*
X94020000Y14549333D01*
X94115238Y14454095D01*
X94210476Y14406476D01*
X94400952Y14358857D01*
X94543809Y14358857D01*
X94734285Y14406476D01*
X94829523Y14454095D01*
X94924761Y14549333D01*
X94972380Y14692190D01*
X94972380Y14930285D01*
X93972380Y14025523D02*
X93972380Y13406476D01*
X94353333Y13739809D01*
X94353333Y13596952D01*
X94400952Y13501714D01*
X94448571Y13454095D01*
X94543809Y13406476D01*
X94781904Y13406476D01*
X94877142Y13454095D01*
X94924761Y13501714D01*
X94972380Y13596952D01*
X94972380Y13882666D01*
X94924761Y13977904D01*
X94877142Y14025523D01*
X93972380Y12787428D02*
X93972380Y12692190D01*
X94020000Y12596952D01*
X94067619Y12549333D01*
X94162857Y12501714D01*
X94353333Y12454095D01*
X94591428Y12454095D01*
X94781904Y12501714D01*
X94877142Y12549333D01*
X94924761Y12596952D01*
X94972380Y12692190D01*
X94972380Y12787428D01*
X94924761Y12882666D01*
X94877142Y12930285D01*
X94781904Y12977904D01*
X94591428Y13025523D01*
X94353333Y13025523D01*
X94162857Y12977904D01*
X94067619Y12930285D01*
X94020000Y12882666D01*
X93972380Y12787428D01*
G04 #@! TO.C,D29*
X107672380Y34868285D02*
X106672380Y34868285D01*
X106672380Y34630190D01*
X106720000Y34487333D01*
X106815238Y34392095D01*
X106910476Y34344476D01*
X107100952Y34296857D01*
X107243809Y34296857D01*
X107434285Y34344476D01*
X107529523Y34392095D01*
X107624761Y34487333D01*
X107672380Y34630190D01*
X107672380Y34868285D01*
X106767619Y33915904D02*
X106720000Y33868285D01*
X106672380Y33773047D01*
X106672380Y33534952D01*
X106720000Y33439714D01*
X106767619Y33392095D01*
X106862857Y33344476D01*
X106958095Y33344476D01*
X107100952Y33392095D01*
X107672380Y33963523D01*
X107672380Y33344476D01*
X107672380Y32868285D02*
X107672380Y32677809D01*
X107624761Y32582571D01*
X107577142Y32534952D01*
X107434285Y32439714D01*
X107243809Y32392095D01*
X106862857Y32392095D01*
X106767619Y32439714D01*
X106720000Y32487333D01*
X106672380Y32582571D01*
X106672380Y32773047D01*
X106720000Y32868285D01*
X106767619Y32915904D01*
X106862857Y32963523D01*
X107100952Y32963523D01*
X107196190Y32915904D01*
X107243809Y32868285D01*
X107291428Y32773047D01*
X107291428Y32582571D01*
X107243809Y32487333D01*
X107196190Y32439714D01*
X107100952Y32392095D01*
G04 #@! TO.C,D28*
X98253094Y52474764D02*
X97253094Y52474764D01*
X97253094Y52236669D01*
X97300714Y52093812D01*
X97395952Y51998574D01*
X97491190Y51950955D01*
X97681666Y51903336D01*
X97824523Y51903336D01*
X98014999Y51950955D01*
X98110237Y51998574D01*
X98205475Y52093812D01*
X98253094Y52236669D01*
X98253094Y52474764D01*
X97348333Y51522383D02*
X97300714Y51474764D01*
X97253094Y51379526D01*
X97253094Y51141431D01*
X97300714Y51046193D01*
X97348333Y50998574D01*
X97443571Y50950955D01*
X97538809Y50950955D01*
X97681666Y50998574D01*
X98253094Y51570002D01*
X98253094Y50950955D01*
X97681666Y50379526D02*
X97634047Y50474764D01*
X97586428Y50522383D01*
X97491190Y50570002D01*
X97443571Y50570002D01*
X97348333Y50522383D01*
X97300714Y50474764D01*
X97253094Y50379526D01*
X97253094Y50189050D01*
X97300714Y50093812D01*
X97348333Y50046193D01*
X97443571Y49998574D01*
X97491190Y49998574D01*
X97586428Y50046193D01*
X97634047Y50093812D01*
X97681666Y50189050D01*
X97681666Y50379526D01*
X97729285Y50474764D01*
X97776904Y50522383D01*
X97872142Y50570002D01*
X98062618Y50570002D01*
X98157856Y50522383D01*
X98205475Y50474764D01*
X98253094Y50379526D01*
X98253094Y50189050D01*
X98205475Y50093812D01*
X98157856Y50046193D01*
X98062618Y49998574D01*
X97872142Y49998574D01*
X97776904Y50046193D01*
X97729285Y50093812D01*
X97681666Y50189050D01*
G04 #@! TO.C,D27*
X93448380Y71318285D02*
X92448380Y71318285D01*
X92448380Y71080190D01*
X92496000Y70937333D01*
X92591238Y70842095D01*
X92686476Y70794476D01*
X92876952Y70746857D01*
X93019809Y70746857D01*
X93210285Y70794476D01*
X93305523Y70842095D01*
X93400761Y70937333D01*
X93448380Y71080190D01*
X93448380Y71318285D01*
X92543619Y70365904D02*
X92496000Y70318285D01*
X92448380Y70223047D01*
X92448380Y69984952D01*
X92496000Y69889714D01*
X92543619Y69842095D01*
X92638857Y69794476D01*
X92734095Y69794476D01*
X92876952Y69842095D01*
X93448380Y70413523D01*
X93448380Y69794476D01*
X92448380Y69461142D02*
X92448380Y68794476D01*
X93448380Y69223047D01*
G04 #@! TO.C,D26*
X84304380Y89224285D02*
X83304380Y89224285D01*
X83304380Y88986190D01*
X83352000Y88843333D01*
X83447238Y88748095D01*
X83542476Y88700476D01*
X83732952Y88652857D01*
X83875809Y88652857D01*
X84066285Y88700476D01*
X84161523Y88748095D01*
X84256761Y88843333D01*
X84304380Y88986190D01*
X84304380Y89224285D01*
X83399619Y88271904D02*
X83352000Y88224285D01*
X83304380Y88129047D01*
X83304380Y87890952D01*
X83352000Y87795714D01*
X83399619Y87748095D01*
X83494857Y87700476D01*
X83590095Y87700476D01*
X83732952Y87748095D01*
X84304380Y88319523D01*
X84304380Y87700476D01*
X83304380Y86843333D02*
X83304380Y87033809D01*
X83352000Y87129047D01*
X83399619Y87176666D01*
X83542476Y87271904D01*
X83732952Y87319523D01*
X84113904Y87319523D01*
X84209142Y87271904D01*
X84256761Y87224285D01*
X84304380Y87129047D01*
X84304380Y86938571D01*
X84256761Y86843333D01*
X84209142Y86795714D01*
X84113904Y86748095D01*
X83875809Y86748095D01*
X83780571Y86795714D01*
X83732952Y86843333D01*
X83685333Y86938571D01*
X83685333Y87129047D01*
X83732952Y87224285D01*
X83780571Y87271904D01*
X83875809Y87319523D01*
G04 #@! TO.C,D25*
X55348380Y15056285D02*
X54348380Y15056285D01*
X54348380Y14818190D01*
X54396000Y14675333D01*
X54491238Y14580095D01*
X54586476Y14532476D01*
X54776952Y14484857D01*
X54919809Y14484857D01*
X55110285Y14532476D01*
X55205523Y14580095D01*
X55300761Y14675333D01*
X55348380Y14818190D01*
X55348380Y15056285D01*
X54443619Y14103904D02*
X54396000Y14056285D01*
X54348380Y13961047D01*
X54348380Y13722952D01*
X54396000Y13627714D01*
X54443619Y13580095D01*
X54538857Y13532476D01*
X54634095Y13532476D01*
X54776952Y13580095D01*
X55348380Y14151523D01*
X55348380Y13532476D01*
X54348380Y12627714D02*
X54348380Y13103904D01*
X54824571Y13151523D01*
X54776952Y13103904D01*
X54729333Y13008666D01*
X54729333Y12770571D01*
X54776952Y12675333D01*
X54824571Y12627714D01*
X54919809Y12580095D01*
X55157904Y12580095D01*
X55253142Y12627714D01*
X55300761Y12675333D01*
X55348380Y12770571D01*
X55348380Y13008666D01*
X55300761Y13103904D01*
X55253142Y13151523D01*
G04 #@! TO.C,D24*
X76664631Y35802728D02*
X75664631Y35802728D01*
X75664631Y35564633D01*
X75712251Y35421776D01*
X75807489Y35326538D01*
X75902727Y35278919D01*
X76093203Y35231300D01*
X76236060Y35231300D01*
X76426536Y35278919D01*
X76521774Y35326538D01*
X76617012Y35421776D01*
X76664631Y35564633D01*
X76664631Y35802728D01*
X75759870Y34850347D02*
X75712251Y34802728D01*
X75664631Y34707490D01*
X75664631Y34469395D01*
X75712251Y34374157D01*
X75759870Y34326538D01*
X75855108Y34278919D01*
X75950346Y34278919D01*
X76093203Y34326538D01*
X76664631Y34897966D01*
X76664631Y34278919D01*
X75997965Y33421776D02*
X76664631Y33421776D01*
X75617012Y33659871D02*
X76331298Y33897966D01*
X76331298Y33278919D01*
G04 #@! TO.C,D23*
X72074433Y54364179D02*
X71074433Y54364179D01*
X71074433Y54126084D01*
X71122053Y53983227D01*
X71217291Y53887989D01*
X71312529Y53840370D01*
X71503005Y53792751D01*
X71645862Y53792751D01*
X71836338Y53840370D01*
X71931576Y53887989D01*
X72026814Y53983227D01*
X72074433Y54126084D01*
X72074433Y54364179D01*
X71169672Y53411798D02*
X71122053Y53364179D01*
X71074433Y53268941D01*
X71074433Y53030846D01*
X71122053Y52935608D01*
X71169672Y52887989D01*
X71264910Y52840370D01*
X71360148Y52840370D01*
X71503005Y52887989D01*
X72074433Y53459417D01*
X72074433Y52840370D01*
X71074433Y52507036D02*
X71074433Y51887989D01*
X71455386Y52221322D01*
X71455386Y52078465D01*
X71503005Y51983227D01*
X71550624Y51935608D01*
X71645862Y51887989D01*
X71883957Y51887989D01*
X71979195Y51935608D01*
X72026814Y51983227D01*
X72074433Y52078465D01*
X72074433Y52364179D01*
X72026814Y52459417D01*
X71979195Y52507036D01*
G04 #@! TO.C,D22*
X69572380Y69920285D02*
X68572380Y69920285D01*
X68572380Y69682190D01*
X68620000Y69539333D01*
X68715238Y69444095D01*
X68810476Y69396476D01*
X69000952Y69348857D01*
X69143809Y69348857D01*
X69334285Y69396476D01*
X69429523Y69444095D01*
X69524761Y69539333D01*
X69572380Y69682190D01*
X69572380Y69920285D01*
X68667619Y68967904D02*
X68620000Y68920285D01*
X68572380Y68825047D01*
X68572380Y68586952D01*
X68620000Y68491714D01*
X68667619Y68444095D01*
X68762857Y68396476D01*
X68858095Y68396476D01*
X69000952Y68444095D01*
X69572380Y69015523D01*
X69572380Y68396476D01*
X68667619Y68015523D02*
X68620000Y67967904D01*
X68572380Y67872666D01*
X68572380Y67634571D01*
X68620000Y67539333D01*
X68667619Y67491714D01*
X68762857Y67444095D01*
X68858095Y67444095D01*
X69000952Y67491714D01*
X69572380Y68063142D01*
X69572380Y67444095D01*
G04 #@! TO.C,D21*
X64838245Y90966641D02*
X63838245Y90966641D01*
X63838245Y90728546D01*
X63885865Y90585689D01*
X63981103Y90490451D01*
X64076341Y90442832D01*
X64266817Y90395213D01*
X64409674Y90395213D01*
X64600150Y90442832D01*
X64695388Y90490451D01*
X64790626Y90585689D01*
X64838245Y90728546D01*
X64838245Y90966641D01*
X63933484Y90014260D02*
X63885865Y89966641D01*
X63838245Y89871403D01*
X63838245Y89633308D01*
X63885865Y89538070D01*
X63933484Y89490451D01*
X64028722Y89442832D01*
X64123960Y89442832D01*
X64266817Y89490451D01*
X64838245Y90061879D01*
X64838245Y89442832D01*
X64838245Y88490451D02*
X64838245Y89061879D01*
X64838245Y88776165D02*
X63838245Y88776165D01*
X63981103Y88871403D01*
X64076341Y88966641D01*
X64123960Y89061879D01*
G04 #@! TO.C,D20*
X-5611619Y16962285D02*
X-6611619Y16962285D01*
X-6611619Y16724190D01*
X-6564000Y16581333D01*
X-6468761Y16486095D01*
X-6373523Y16438476D01*
X-6183047Y16390857D01*
X-6040190Y16390857D01*
X-5849714Y16438476D01*
X-5754476Y16486095D01*
X-5659238Y16581333D01*
X-5611619Y16724190D01*
X-5611619Y16962285D01*
X-6516380Y16009904D02*
X-6564000Y15962285D01*
X-6611619Y15867047D01*
X-6611619Y15628952D01*
X-6564000Y15533714D01*
X-6516380Y15486095D01*
X-6421142Y15438476D01*
X-6325904Y15438476D01*
X-6183047Y15486095D01*
X-5611619Y16057523D01*
X-5611619Y15438476D01*
X-6611619Y14819428D02*
X-6611619Y14724190D01*
X-6564000Y14628952D01*
X-6516380Y14581333D01*
X-6421142Y14533714D01*
X-6230666Y14486095D01*
X-5992571Y14486095D01*
X-5802095Y14533714D01*
X-5706857Y14581333D01*
X-5659238Y14628952D01*
X-5611619Y14724190D01*
X-5611619Y14819428D01*
X-5659238Y14914666D01*
X-5706857Y14962285D01*
X-5802095Y15009904D01*
X-5992571Y15057523D01*
X-6230666Y15057523D01*
X-6421142Y15009904D01*
X-6516380Y14962285D01*
X-6564000Y14914666D01*
X-6611619Y14819428D01*
G04 #@! TO.C,D19*
X30964380Y34616285D02*
X29964380Y34616285D01*
X29964380Y34378190D01*
X30012000Y34235333D01*
X30107238Y34140095D01*
X30202476Y34092476D01*
X30392952Y34044857D01*
X30535809Y34044857D01*
X30726285Y34092476D01*
X30821523Y34140095D01*
X30916761Y34235333D01*
X30964380Y34378190D01*
X30964380Y34616285D01*
X30964380Y33092476D02*
X30964380Y33663904D01*
X30964380Y33378190D02*
X29964380Y33378190D01*
X30107238Y33473428D01*
X30202476Y33568666D01*
X30250095Y33663904D01*
X30964380Y32616285D02*
X30964380Y32425809D01*
X30916761Y32330571D01*
X30869142Y32282952D01*
X30726285Y32187714D01*
X30535809Y32140095D01*
X30154857Y32140095D01*
X30059619Y32187714D01*
X30012000Y32235333D01*
X29964380Y32330571D01*
X29964380Y32521047D01*
X30012000Y32616285D01*
X30059619Y32663904D01*
X30154857Y32711523D01*
X30392952Y32711523D01*
X30488190Y32663904D01*
X30535809Y32616285D01*
X30583428Y32521047D01*
X30583428Y32330571D01*
X30535809Y32235333D01*
X30488190Y32187714D01*
X30392952Y32140095D01*
G04 #@! TO.C,D18*
X30964380Y52522285D02*
X29964380Y52522285D01*
X29964380Y52284190D01*
X30012000Y52141333D01*
X30107238Y52046095D01*
X30202476Y51998476D01*
X30392952Y51950857D01*
X30535809Y51950857D01*
X30726285Y51998476D01*
X30821523Y52046095D01*
X30916761Y52141333D01*
X30964380Y52284190D01*
X30964380Y52522285D01*
X30964380Y50998476D02*
X30964380Y51569904D01*
X30964380Y51284190D02*
X29964380Y51284190D01*
X30107238Y51379428D01*
X30202476Y51474666D01*
X30250095Y51569904D01*
X30392952Y50427047D02*
X30345333Y50522285D01*
X30297714Y50569904D01*
X30202476Y50617523D01*
X30154857Y50617523D01*
X30059619Y50569904D01*
X30012000Y50522285D01*
X29964380Y50427047D01*
X29964380Y50236571D01*
X30012000Y50141333D01*
X30059619Y50093714D01*
X30154857Y50046095D01*
X30202476Y50046095D01*
X30297714Y50093714D01*
X30345333Y50141333D01*
X30392952Y50236571D01*
X30392952Y50427047D01*
X30440571Y50522285D01*
X30488190Y50569904D01*
X30583428Y50617523D01*
X30773904Y50617523D01*
X30869142Y50569904D01*
X30916761Y50522285D01*
X30964380Y50427047D01*
X30964380Y50236571D01*
X30916761Y50141333D01*
X30869142Y50093714D01*
X30773904Y50046095D01*
X30583428Y50046095D01*
X30488190Y50093714D01*
X30440571Y50141333D01*
X30392952Y50236571D01*
G04 #@! TO.C,D17*
X30698491Y71295287D02*
X29698491Y71295287D01*
X29698491Y71057192D01*
X29746111Y70914335D01*
X29841349Y70819097D01*
X29936587Y70771478D01*
X30127063Y70723859D01*
X30269920Y70723859D01*
X30460396Y70771478D01*
X30555634Y70819097D01*
X30650872Y70914335D01*
X30698491Y71057192D01*
X30698491Y71295287D01*
X30698491Y69771478D02*
X30698491Y70342906D01*
X30698491Y70057192D02*
X29698491Y70057192D01*
X29841349Y70152430D01*
X29936587Y70247668D01*
X29984206Y70342906D01*
X29698491Y69438144D02*
X29698491Y68771478D01*
X30698491Y69200049D01*
G04 #@! TO.C,D16*
X30964380Y89224285D02*
X29964380Y89224285D01*
X29964380Y88986190D01*
X30012000Y88843333D01*
X30107238Y88748095D01*
X30202476Y88700476D01*
X30392952Y88652857D01*
X30535809Y88652857D01*
X30726285Y88700476D01*
X30821523Y88748095D01*
X30916761Y88843333D01*
X30964380Y88986190D01*
X30964380Y89224285D01*
X30964380Y87700476D02*
X30964380Y88271904D01*
X30964380Y87986190D02*
X29964380Y87986190D01*
X30107238Y88081428D01*
X30202476Y88176666D01*
X30250095Y88271904D01*
X29964380Y86843333D02*
X29964380Y87033809D01*
X30012000Y87129047D01*
X30059619Y87176666D01*
X30202476Y87271904D01*
X30392952Y87319523D01*
X30773904Y87319523D01*
X30869142Y87271904D01*
X30916761Y87224285D01*
X30964380Y87129047D01*
X30964380Y86938571D01*
X30916761Y86843333D01*
X30869142Y86795714D01*
X30773904Y86748095D01*
X30535809Y86748095D01*
X30440571Y86795714D01*
X30392952Y86843333D01*
X30345333Y86938571D01*
X30345333Y87129047D01*
X30392952Y87224285D01*
X30440571Y87271904D01*
X30535809Y87319523D01*
G04 #@! TO.C,D15*
X12152690Y15041147D02*
X11152690Y15041147D01*
X11152690Y14803052D01*
X11200310Y14660195D01*
X11295548Y14564957D01*
X11390786Y14517338D01*
X11581262Y14469719D01*
X11724119Y14469719D01*
X11914595Y14517338D01*
X12009833Y14564957D01*
X12105071Y14660195D01*
X12152690Y14803052D01*
X12152690Y15041147D01*
X12152690Y13517338D02*
X12152690Y14088766D01*
X12152690Y13803052D02*
X11152690Y13803052D01*
X11295548Y13898290D01*
X11390786Y13993528D01*
X11438405Y14088766D01*
X11152690Y12612576D02*
X11152690Y13088766D01*
X11628881Y13136385D01*
X11581262Y13088766D01*
X11533643Y12993528D01*
X11533643Y12755433D01*
X11581262Y12660195D01*
X11628881Y12612576D01*
X11724119Y12564957D01*
X11962214Y12564957D01*
X12057452Y12612576D01*
X12105071Y12660195D01*
X12152690Y12755433D01*
X12152690Y12993528D01*
X12105071Y13088766D01*
X12057452Y13136385D01*
G04 #@! TO.C,D14*
X12168380Y35758285D02*
X11168380Y35758285D01*
X11168380Y35520190D01*
X11216000Y35377333D01*
X11311238Y35282095D01*
X11406476Y35234476D01*
X11596952Y35186857D01*
X11739809Y35186857D01*
X11930285Y35234476D01*
X12025523Y35282095D01*
X12120761Y35377333D01*
X12168380Y35520190D01*
X12168380Y35758285D01*
X12168380Y34234476D02*
X12168380Y34805904D01*
X12168380Y34520190D02*
X11168380Y34520190D01*
X11311238Y34615428D01*
X11406476Y34710666D01*
X11454095Y34805904D01*
X11501714Y33377333D02*
X12168380Y33377333D01*
X11120761Y33615428D02*
X11835047Y33853523D01*
X11835047Y33234476D01*
G04 #@! TO.C,D13*
X11660380Y54428285D02*
X10660380Y54428285D01*
X10660380Y54190190D01*
X10708000Y54047333D01*
X10803238Y53952095D01*
X10898476Y53904476D01*
X11088952Y53856857D01*
X11231809Y53856857D01*
X11422285Y53904476D01*
X11517523Y53952095D01*
X11612761Y54047333D01*
X11660380Y54190190D01*
X11660380Y54428285D01*
X11660380Y52904476D02*
X11660380Y53475904D01*
X11660380Y53190190D02*
X10660380Y53190190D01*
X10803238Y53285428D01*
X10898476Y53380666D01*
X10946095Y53475904D01*
X10660380Y52571142D02*
X10660380Y51952095D01*
X11041333Y52285428D01*
X11041333Y52142571D01*
X11088952Y52047333D01*
X11136571Y51999714D01*
X11231809Y51952095D01*
X11469904Y51952095D01*
X11565142Y51999714D01*
X11612761Y52047333D01*
X11660380Y52142571D01*
X11660380Y52428285D01*
X11612761Y52523523D01*
X11565142Y52571142D01*
G04 #@! TO.C,D12*
X11660380Y69920285D02*
X10660380Y69920285D01*
X10660380Y69682190D01*
X10708000Y69539333D01*
X10803238Y69444095D01*
X10898476Y69396476D01*
X11088952Y69348857D01*
X11231809Y69348857D01*
X11422285Y69396476D01*
X11517523Y69444095D01*
X11612761Y69539333D01*
X11660380Y69682190D01*
X11660380Y69920285D01*
X11660380Y68396476D02*
X11660380Y68967904D01*
X11660380Y68682190D02*
X10660380Y68682190D01*
X10803238Y68777428D01*
X10898476Y68872666D01*
X10946095Y68967904D01*
X10755619Y68015523D02*
X10708000Y67967904D01*
X10660380Y67872666D01*
X10660380Y67634571D01*
X10708000Y67539333D01*
X10755619Y67491714D01*
X10850857Y67444095D01*
X10946095Y67444095D01*
X11088952Y67491714D01*
X11660380Y68063142D01*
X11660380Y67444095D01*
G04 #@! TO.C,D11*
X11644740Y90951164D02*
X10644740Y90951164D01*
X10644740Y90713069D01*
X10692360Y90570212D01*
X10787598Y90474974D01*
X10882836Y90427355D01*
X11073312Y90379736D01*
X11216169Y90379736D01*
X11406645Y90427355D01*
X11501883Y90474974D01*
X11597121Y90570212D01*
X11644740Y90713069D01*
X11644740Y90951164D01*
X11644740Y89427355D02*
X11644740Y89998783D01*
X11644740Y89713069D02*
X10644740Y89713069D01*
X10787598Y89808307D01*
X10882836Y89903545D01*
X10930455Y89998783D01*
X11644740Y88474974D02*
X11644740Y89046402D01*
X11644740Y88760688D02*
X10644740Y88760688D01*
X10787598Y88855926D01*
X10882836Y88951164D01*
X10930455Y89046402D01*
G04 #@! TO.C,D10*
X31218380Y16962285D02*
X30218380Y16962285D01*
X30218380Y16724190D01*
X30266000Y16581333D01*
X30361238Y16486095D01*
X30456476Y16438476D01*
X30646952Y16390857D01*
X30789809Y16390857D01*
X30980285Y16438476D01*
X31075523Y16486095D01*
X31170761Y16581333D01*
X31218380Y16724190D01*
X31218380Y16962285D01*
X31218380Y15438476D02*
X31218380Y16009904D01*
X31218380Y15724190D02*
X30218380Y15724190D01*
X30361238Y15819428D01*
X30456476Y15914666D01*
X30504095Y16009904D01*
X30218380Y14819428D02*
X30218380Y14724190D01*
X30266000Y14628952D01*
X30313619Y14581333D01*
X30408857Y14533714D01*
X30599333Y14486095D01*
X30837428Y14486095D01*
X31027904Y14533714D01*
X31123142Y14581333D01*
X31170761Y14628952D01*
X31218380Y14724190D01*
X31218380Y14819428D01*
X31170761Y14914666D01*
X31123142Y14962285D01*
X31027904Y15009904D01*
X30837428Y15057523D01*
X30599333Y15057523D01*
X30408857Y15009904D01*
X30313619Y14962285D01*
X30266000Y14914666D01*
X30218380Y14819428D01*
G04 #@! TO.C,D9*
X-7031844Y34181566D02*
X-8031844Y34181566D01*
X-8031844Y33943471D01*
X-7984225Y33800613D01*
X-7888986Y33705375D01*
X-7793748Y33657756D01*
X-7603272Y33610137D01*
X-7460415Y33610137D01*
X-7269939Y33657756D01*
X-7174701Y33705375D01*
X-7079463Y33800613D01*
X-7031844Y33943471D01*
X-7031844Y34181566D01*
X-7031844Y33133947D02*
X-7031844Y32943471D01*
X-7079463Y32848232D01*
X-7127082Y32800613D01*
X-7269939Y32705375D01*
X-7460415Y32657756D01*
X-7841367Y32657756D01*
X-7936605Y32705375D01*
X-7984225Y32752994D01*
X-8031844Y32848232D01*
X-8031844Y33038709D01*
X-7984225Y33133947D01*
X-7936605Y33181566D01*
X-7841367Y33229185D01*
X-7603272Y33229185D01*
X-7508034Y33181566D01*
X-7460415Y33133947D01*
X-7412796Y33038709D01*
X-7412796Y32848232D01*
X-7460415Y32752994D01*
X-7508034Y32705375D01*
X-7603272Y32657756D01*
G04 #@! TO.C,D8*
X-7135619Y52046095D02*
X-8135619Y52046095D01*
X-8135619Y51808000D01*
X-8088000Y51665142D01*
X-7992761Y51569904D01*
X-7897523Y51522285D01*
X-7707047Y51474666D01*
X-7564190Y51474666D01*
X-7373714Y51522285D01*
X-7278476Y51569904D01*
X-7183238Y51665142D01*
X-7135619Y51808000D01*
X-7135619Y52046095D01*
X-7707047Y50903238D02*
X-7754666Y50998476D01*
X-7802285Y51046095D01*
X-7897523Y51093714D01*
X-7945142Y51093714D01*
X-8040380Y51046095D01*
X-8088000Y50998476D01*
X-8135619Y50903238D01*
X-8135619Y50712761D01*
X-8088000Y50617523D01*
X-8040380Y50569904D01*
X-7945142Y50522285D01*
X-7897523Y50522285D01*
X-7802285Y50569904D01*
X-7754666Y50617523D01*
X-7707047Y50712761D01*
X-7707047Y50903238D01*
X-7659428Y50998476D01*
X-7611809Y51046095D01*
X-7516571Y51093714D01*
X-7326095Y51093714D01*
X-7230857Y51046095D01*
X-7183238Y50998476D01*
X-7135619Y50903238D01*
X-7135619Y50712761D01*
X-7183238Y50617523D01*
X-7230857Y50569904D01*
X-7326095Y50522285D01*
X-7516571Y50522285D01*
X-7611809Y50569904D01*
X-7659428Y50617523D01*
X-7707047Y50712761D01*
G04 #@! TO.C,D7*
X-7135619Y70968095D02*
X-8135619Y70968095D01*
X-8135619Y70730000D01*
X-8088000Y70587142D01*
X-7992761Y70491904D01*
X-7897523Y70444285D01*
X-7707047Y70396666D01*
X-7564190Y70396666D01*
X-7373714Y70444285D01*
X-7278476Y70491904D01*
X-7183238Y70587142D01*
X-7135619Y70730000D01*
X-7135619Y70968095D01*
X-8135619Y70063333D02*
X-8135619Y69396666D01*
X-7135619Y69825238D01*
G04 #@! TO.C,D5*
X-21931619Y17628095D02*
X-22931619Y17628095D01*
X-22931619Y17390000D01*
X-22884000Y17247142D01*
X-22788761Y17151904D01*
X-22693523Y17104285D01*
X-22503047Y17056666D01*
X-22360190Y17056666D01*
X-22169714Y17104285D01*
X-22074476Y17151904D01*
X-21979238Y17247142D01*
X-21931619Y17390000D01*
X-21931619Y17628095D01*
X-22931619Y16151904D02*
X-22931619Y16628095D01*
X-22455428Y16675714D01*
X-22503047Y16628095D01*
X-22550666Y16532857D01*
X-22550666Y16294761D01*
X-22503047Y16199523D01*
X-22455428Y16151904D01*
X-22360190Y16104285D01*
X-22122095Y16104285D01*
X-22026857Y16151904D01*
X-21979238Y16199523D01*
X-21931619Y16294761D01*
X-21931619Y16532857D01*
X-21979238Y16628095D01*
X-22026857Y16675714D01*
G04 #@! TO.C,D4*
X-23391619Y13438095D02*
X-24391619Y13438095D01*
X-24391619Y13200000D01*
X-24344000Y13057142D01*
X-24248761Y12961904D01*
X-24153523Y12914285D01*
X-23963047Y12866666D01*
X-23820190Y12866666D01*
X-23629714Y12914285D01*
X-23534476Y12961904D01*
X-23439238Y13057142D01*
X-23391619Y13200000D01*
X-23391619Y13438095D01*
X-24058285Y12009523D02*
X-23391619Y12009523D01*
X-24439238Y12247619D02*
X-23724952Y12485714D01*
X-23724952Y11866666D01*
G04 #@! TO.C,D3*
X-21931619Y57252095D02*
X-22931619Y57252095D01*
X-22931619Y57014000D01*
X-22884000Y56871142D01*
X-22788761Y56775904D01*
X-22693523Y56728285D01*
X-22503047Y56680666D01*
X-22360190Y56680666D01*
X-22169714Y56728285D01*
X-22074476Y56775904D01*
X-21979238Y56871142D01*
X-21931619Y57014000D01*
X-21931619Y57252095D01*
X-22931619Y56347333D02*
X-22931619Y55728285D01*
X-22550666Y56061619D01*
X-22550666Y55918761D01*
X-22503047Y55823523D01*
X-22455428Y55775904D01*
X-22360190Y55728285D01*
X-22122095Y55728285D01*
X-22026857Y55775904D01*
X-21979238Y55823523D01*
X-21931619Y55918761D01*
X-21931619Y56204476D01*
X-21979238Y56299714D01*
X-22026857Y56347333D01*
G04 #@! TO.C,D2*
X-25931619Y52046095D02*
X-26931619Y52046095D01*
X-26931619Y51808000D01*
X-26884000Y51665142D01*
X-26788761Y51569904D01*
X-26693523Y51522285D01*
X-26503047Y51474666D01*
X-26360190Y51474666D01*
X-26169714Y51522285D01*
X-26074476Y51569904D01*
X-25979238Y51665142D01*
X-25931619Y51808000D01*
X-25931619Y52046095D01*
X-26836380Y51093714D02*
X-26884000Y51046095D01*
X-26931619Y50950857D01*
X-26931619Y50712761D01*
X-26884000Y50617523D01*
X-26836380Y50569904D01*
X-26741142Y50522285D01*
X-26645904Y50522285D01*
X-26503047Y50569904D01*
X-25931619Y51141333D01*
X-25931619Y50522285D01*
G04 #@! TO.C,D1*
X-26455364Y90542229D02*
X-27455364Y90542229D01*
X-27455364Y90304134D01*
X-27407745Y90161276D01*
X-27312506Y90066038D01*
X-27217268Y90018419D01*
X-27026792Y89970800D01*
X-26883935Y89970800D01*
X-26693459Y90018419D01*
X-26598221Y90066038D01*
X-26502983Y90161276D01*
X-26455364Y90304134D01*
X-26455364Y90542229D01*
X-26455364Y89018419D02*
X-26455364Y89589848D01*
X-26455364Y89304134D02*
X-27455364Y89304134D01*
X-27312506Y89399372D01*
X-27217268Y89494610D01*
X-27169649Y89589848D01*
G04 #@! TD*
M02*
