G04 #@! TF.GenerationSoftware,KiCad,Pcbnew,(5.1.6)-1*
G04 #@! TF.CreationDate,2020-07-18T03:31:17-04:00*
G04 #@! TF.ProjectId,southpawpcb,736f7574-6870-4617-9770-63622e6b6963,rev?*
G04 #@! TF.SameCoordinates,Original*
G04 #@! TF.FileFunction,Paste,Top*
G04 #@! TF.FilePolarity,Positive*
%FSLAX46Y46*%
G04 Gerber Fmt 4.6, Leading zero omitted, Abs format (unit mm)*
G04 Created by KiCad (PCBNEW (5.1.6)-1) date 2020-07-18 03:31:17*
%MOMM*%
%LPD*%
G01*
G04 APERTURE LIST*
%ADD10R,1.200000X1.200000*%
G04 APERTURE END LIST*
D10*
G04 #@! TO.C,D7*
X100869000Y92099000D03*
X97719000Y92099000D03*
G04 #@! TD*
G04 #@! TO.C,D48*
X226306000Y53999000D03*
X229456000Y53999000D03*
G04 #@! TD*
G04 #@! TO.C,D72*
X92956000Y15899000D03*
X96106000Y15899000D03*
G04 #@! TD*
G04 #@! TO.C,D39*
X24669200Y53999000D03*
X21519200Y53999000D03*
G04 #@! TD*
G04 #@! TO.C,D2*
X12446000Y81102000D03*
X12446000Y84252000D03*
G04 #@! TD*
G04 #@! TO.C,D50*
X264406000Y53999000D03*
X267556000Y53999000D03*
G04 #@! TD*
G04 #@! TO.C,D21*
X24669200Y73049000D03*
X21519200Y73049000D03*
G04 #@! TD*
G04 #@! TO.C,D53*
X-16580800Y34949000D03*
X-13430800Y34949000D03*
G04 #@! TD*
G04 #@! TO.C,D26*
X126294000Y73049000D03*
X129444000Y73049000D03*
G04 #@! TD*
G04 #@! TO.C,D60*
X143732000Y34949000D03*
X140582000Y34949000D03*
G04 #@! TD*
G04 #@! TO.C,D42*
X112006000Y53999000D03*
X115156000Y53999000D03*
G04 #@! TD*
G04 #@! TO.C,D4*
X40569200Y92099000D03*
X43719200Y92099000D03*
G04 #@! TD*
G04 #@! TO.C,D3*
X24669200Y92099000D03*
X21519200Y92099000D03*
G04 #@! TD*
G04 #@! TO.C,D25*
X110394000Y73049000D03*
X107244000Y73049000D03*
G04 #@! TD*
G04 #@! TO.C,D71*
X72294000Y15899000D03*
X69144000Y15899000D03*
G04 #@! TD*
G04 #@! TO.C,D78*
X335038000Y4799000D03*
X335038000Y7949000D03*
G04 #@! TD*
G04 #@! TO.C,D77*
X310419000Y15899000D03*
X307269000Y15899000D03*
G04 #@! TD*
G04 #@! TO.C,D45*
X172306000Y53999000D03*
X169156000Y53999000D03*
G04 #@! TD*
G04 #@! TO.C,D16*
X269169000Y92099000D03*
X272319000Y92099000D03*
G04 #@! TD*
G04 #@! TO.C,D22*
X32619200Y52424000D03*
X32619200Y55574000D03*
G04 #@! TD*
G04 #@! TO.C,D10*
X165969000Y80999000D03*
X165969000Y84149000D03*
G04 #@! TD*
G04 #@! TO.C,D54*
X5619200Y34949000D03*
X2469200Y34949000D03*
G04 #@! TD*
G04 #@! TO.C,D19*
X-13430800Y73049000D03*
X-16580800Y73049000D03*
G04 #@! TD*
G04 #@! TO.C,D57*
X74675000Y34949000D03*
X71525000Y34949000D03*
G04 #@! TD*
G04 #@! TO.C,D47*
X210406000Y53999000D03*
X207256000Y53999000D03*
G04 #@! TD*
G04 #@! TO.C,D15*
X261219000Y84149000D03*
X261219000Y80999000D03*
G04 #@! TD*
G04 #@! TO.C,D67*
X273932000Y34949000D03*
X277082000Y34949000D03*
G04 #@! TD*
G04 #@! TO.C,D36*
X319175000Y73049000D03*
X322325000Y73049000D03*
G04 #@! TD*
G04 #@! TO.C,D62*
X181832000Y34949000D03*
X178682000Y34949000D03*
G04 #@! TD*
G04 #@! TO.C,D61*
X162782000Y34949000D03*
X159632000Y34949000D03*
G04 #@! TD*
G04 #@! TO.C,D52*
X314413000Y53999000D03*
X317563000Y53999000D03*
G04 #@! TD*
G04 #@! TO.C,D37*
X-13430800Y53999000D03*
X-16580800Y53999000D03*
G04 #@! TD*
G04 #@! TO.C,D65*
X238982000Y34949000D03*
X235832000Y34949000D03*
G04 #@! TD*
G04 #@! TO.C,D14*
X234219000Y92099000D03*
X231069000Y92099000D03*
G04 #@! TD*
G04 #@! TO.C,D68*
X315182000Y34949000D03*
X312032000Y34949000D03*
G04 #@! TD*
G04 #@! TO.C,D18*
X316794000Y92099000D03*
X319944000Y92099000D03*
G04 #@! TD*
G04 #@! TO.C,D38*
X2469200Y53999000D03*
X5619200Y53999000D03*
G04 #@! TD*
G04 #@! TO.C,D12*
X192969000Y92099000D03*
X196119000Y92099000D03*
G04 #@! TD*
G04 #@! TO.C,D58*
X102482000Y34949000D03*
X105632000Y34949000D03*
G04 #@! TD*
G04 #@! TO.C,D34*
X278694000Y73049000D03*
X281844000Y73049000D03*
G04 #@! TD*
G04 #@! TO.C,D20*
X2469200Y73049000D03*
X5619200Y73049000D03*
G04 #@! TD*
G04 #@! TO.C,D69*
X-3905800Y15899000D03*
X-7055800Y15899000D03*
G04 #@! TD*
G04 #@! TO.C,D40*
X66763000Y53999000D03*
X69913000Y53999000D03*
G04 #@! TD*
G04 #@! TO.C,D56*
X33337500Y14324000D03*
X33337500Y17474000D03*
G04 #@! TD*
G04 #@! TO.C,D23*
X67532000Y73049000D03*
X64382000Y73049000D03*
G04 #@! TD*
G04 #@! TO.C,D17*
X291369000Y92099000D03*
X288219000Y92099000D03*
G04 #@! TD*
G04 #@! TO.C,D32*
X240594000Y73049000D03*
X243744000Y73049000D03*
G04 #@! TD*
G04 #@! TO.C,D31*
X224694000Y73049000D03*
X221544000Y73049000D03*
G04 #@! TD*
G04 #@! TO.C,D9*
X138969000Y92099000D03*
X135819000Y92099000D03*
G04 #@! TD*
G04 #@! TO.C,D64*
X216782000Y34949000D03*
X219932000Y34949000D03*
G04 #@! TD*
G04 #@! TO.C,D74*
X181063000Y15899000D03*
X184213000Y15899000D03*
G04 #@! TD*
G04 #@! TO.C,D76*
X276313000Y15899000D03*
X279463000Y15899000D03*
G04 #@! TD*
G04 #@! TO.C,D49*
X248506000Y53999000D03*
X245356000Y53999000D03*
G04 #@! TD*
G04 #@! TO.C,D70*
X24669200Y15899000D03*
X21519200Y15899000D03*
G04 #@! TD*
G04 #@! TO.C,D75*
X252500000Y15899000D03*
X255650000Y15899000D03*
G04 #@! TD*
G04 #@! TO.C,D8*
X116769000Y92099000D03*
X119919000Y92099000D03*
G04 #@! TD*
G04 #@! TO.C,D28*
X167544000Y73049000D03*
X164394000Y73049000D03*
G04 #@! TD*
G04 #@! TO.C,D13*
X215169000Y92099000D03*
X212019000Y92099000D03*
G04 #@! TD*
G04 #@! TO.C,D66*
X258032000Y34949000D03*
X254882000Y34949000D03*
G04 #@! TD*
G04 #@! TO.C,D6*
X78669000Y92099000D03*
X81819000Y92099000D03*
G04 #@! TD*
G04 #@! TO.C,D44*
X150106000Y53999000D03*
X153256000Y53999000D03*
G04 #@! TD*
G04 #@! TO.C,D46*
X188206000Y53999000D03*
X191356000Y53999000D03*
G04 #@! TD*
G04 #@! TO.C,D51*
X286606000Y53999000D03*
X283456000Y53999000D03*
G04 #@! TD*
G04 #@! TO.C,D11*
X177069000Y92099000D03*
X173919000Y92099000D03*
G04 #@! TD*
G04 #@! TO.C,D63*
X197732000Y34949000D03*
X200882000Y34949000D03*
G04 #@! TD*
G04 #@! TO.C,D29*
X186594000Y73049000D03*
X183444000Y73049000D03*
G04 #@! TD*
G04 #@! TO.C,D55*
X24669200Y34949000D03*
X21519200Y34949000D03*
G04 #@! TD*
G04 #@! TO.C,D5*
X70719000Y84149000D03*
X70719000Y80999000D03*
G04 #@! TD*
G04 #@! TO.C,D43*
X134206000Y53999000D03*
X131056000Y53999000D03*
G04 #@! TD*
G04 #@! TO.C,D73*
X109625000Y15899000D03*
X112775000Y15899000D03*
G04 #@! TD*
G04 #@! TO.C,D33*
X262794000Y73049000D03*
X259644000Y73049000D03*
G04 #@! TD*
G04 #@! TO.C,D30*
X202494000Y73049000D03*
X205644000Y73049000D03*
G04 #@! TD*
G04 #@! TO.C,D35*
X298513000Y73049000D03*
X295363000Y73049000D03*
G04 #@! TD*
G04 #@! TO.C,D24*
X88194000Y73049000D03*
X91344000Y73049000D03*
G04 #@! TD*
G04 #@! TO.C,D59*
X121532000Y34949000D03*
X124682000Y34949000D03*
G04 #@! TD*
G04 #@! TO.C,D41*
X96106000Y53999000D03*
X92956000Y53999000D03*
G04 #@! TD*
G04 #@! TO.C,D1*
X-13430800Y92099000D03*
X-16580800Y92099000D03*
G04 #@! TD*
G04 #@! TO.C,D27*
X145344000Y73049000D03*
X148494000Y73049000D03*
G04 #@! TD*
M02*
