G04 #@! TF.GenerationSoftware,KiCad,Pcbnew,(5.1.6)-1*
G04 #@! TF.CreationDate,2020-07-18T03:31:17-04:00*
G04 #@! TF.ProjectId,southpawpcb,736f7574-6870-4617-9770-63622e6b6963,rev?*
G04 #@! TF.SameCoordinates,Original*
G04 #@! TF.FileFunction,Paste,Bot*
G04 #@! TF.FilePolarity,Positive*
%FSLAX46Y46*%
G04 Gerber Fmt 4.6, Leading zero omitted, Abs format (unit mm)*
G04 Created by KiCad (PCBNEW (5.1.6)-1) date 2020-07-18 03:31:17*
%MOMM*%
%LPD*%
G01*
G04 APERTURE LIST*
%ADD10R,0.700000X1.000000*%
%ADD11R,0.700000X0.600000*%
%ADD12R,1.200000X1.400000*%
%ADD13R,0.300000X1.450000*%
%ADD14R,0.600000X1.450000*%
%ADD15C,0.100000*%
%ADD16R,1.200000X1.200000*%
%ADD17R,1.000000X1.700000*%
G04 APERTURE END LIST*
G04 #@! TO.C,C1*
G36*
G01*
X155326816Y15919081D02*
X154681581Y16564316D01*
G75*
G02*
X154681581Y16909030I172357J172357D01*
G01*
X155026296Y17253745D01*
G75*
G02*
X155371010Y17253745I172357J-172357D01*
G01*
X156016245Y16608510D01*
G75*
G02*
X156016245Y16263796I-172357J-172357D01*
G01*
X155671530Y15919081D01*
G75*
G02*
X155326816Y15919081I-172357J172357D01*
G01*
G37*
G36*
G01*
X154000990Y14593255D02*
X153355755Y15238490D01*
G75*
G02*
X153355755Y15583204I172357J172357D01*
G01*
X153700470Y15927919D01*
G75*
G02*
X154045184Y15927919I172357J-172357D01*
G01*
X154690419Y15282684D01*
G75*
G02*
X154690419Y14937970I-172357J-172357D01*
G01*
X154345704Y14593255D01*
G75*
G02*
X154000990Y14593255I-172357J172357D01*
G01*
G37*
G04 #@! TD*
G04 #@! TO.C,C8*
G36*
G01*
X154310816Y-893419D02*
X153665581Y-248184D01*
G75*
G02*
X153665581Y96530I172357J172357D01*
G01*
X154010296Y441245D01*
G75*
G02*
X154355010Y441245I172357J-172357D01*
G01*
X155000245Y-203990D01*
G75*
G02*
X155000245Y-548704I-172357J-172357D01*
G01*
X154655530Y-893419D01*
G75*
G02*
X154310816Y-893419I-172357J172357D01*
G01*
G37*
G36*
G01*
X152984990Y-2219245D02*
X152339755Y-1574010D01*
G75*
G02*
X152339755Y-1229296I172357J172357D01*
G01*
X152684470Y-884581D01*
G75*
G02*
X153029184Y-884581I172357J-172357D01*
G01*
X153674419Y-1529816D01*
G75*
G02*
X153674419Y-1874530I-172357J-172357D01*
G01*
X153329704Y-2219245D01*
G75*
G02*
X152984990Y-2219245I-172357J172357D01*
G01*
G37*
G04 #@! TD*
G04 #@! TO.C,C2*
G36*
G01*
X159761581Y3247684D02*
X160406816Y3892919D01*
G75*
G02*
X160751530Y3892919I172357J-172357D01*
G01*
X161096245Y3548204D01*
G75*
G02*
X161096245Y3203490I-172357J-172357D01*
G01*
X160451010Y2558255D01*
G75*
G02*
X160106296Y2558255I-172357J172357D01*
G01*
X159761581Y2902970D01*
G75*
G02*
X159761581Y3247684I172357J172357D01*
G01*
G37*
G36*
G01*
X158435755Y4573510D02*
X159080990Y5218745D01*
G75*
G02*
X159425704Y5218745I172357J-172357D01*
G01*
X159770419Y4874030D01*
G75*
G02*
X159770419Y4529316I-172357J-172357D01*
G01*
X159125184Y3884081D01*
G75*
G02*
X158780470Y3884081I-172357J172357D01*
G01*
X158435755Y4228796D01*
G75*
G02*
X158435755Y4573510I172357J172357D01*
G01*
G37*
G04 #@! TD*
D10*
G04 #@! TO.C,D79*
X6874000Y78625000D03*
D11*
X8874000Y80325000D03*
X8874000Y78425000D03*
X6874000Y80325000D03*
G04 #@! TD*
G04 #@! TO.C,C7*
G36*
G01*
X144404816Y884581D02*
X143759581Y1529816D01*
G75*
G02*
X143759581Y1874530I172357J172357D01*
G01*
X144104296Y2219245D01*
G75*
G02*
X144449010Y2219245I172357J-172357D01*
G01*
X145094245Y1574010D01*
G75*
G02*
X145094245Y1229296I-172357J-172357D01*
G01*
X144749530Y884581D01*
G75*
G02*
X144404816Y884581I-172357J172357D01*
G01*
G37*
G36*
G01*
X143078990Y-441245D02*
X142433755Y203990D01*
G75*
G02*
X142433755Y548704I172357J172357D01*
G01*
X142778470Y893419D01*
G75*
G02*
X143123184Y893419I172357J-172357D01*
G01*
X143768419Y248184D01*
G75*
G02*
X143768419Y-96530I-172357J-172357D01*
G01*
X143423704Y-441245D01*
G75*
G02*
X143078990Y-441245I-172357J172357D01*
G01*
G37*
G04 #@! TD*
G04 #@! TO.C,C6*
G36*
G01*
X135306750Y5519000D02*
X136219250Y5519000D01*
G75*
G02*
X136463000Y5275250I0J-243750D01*
G01*
X136463000Y4787750D01*
G75*
G02*
X136219250Y4544000I-243750J0D01*
G01*
X135306750Y4544000D01*
G75*
G02*
X135063000Y4787750I0J243750D01*
G01*
X135063000Y5275250D01*
G75*
G02*
X135306750Y5519000I243750J0D01*
G01*
G37*
G36*
G01*
X135306750Y7394000D02*
X136219250Y7394000D01*
G75*
G02*
X136463000Y7150250I0J-243750D01*
G01*
X136463000Y6662750D01*
G75*
G02*
X136219250Y6419000I-243750J0D01*
G01*
X135306750Y6419000D01*
G75*
G02*
X135063000Y6662750I0J243750D01*
G01*
X135063000Y7150250D01*
G75*
G02*
X135306750Y7394000I243750J0D01*
G01*
G37*
G04 #@! TD*
G04 #@! TO.C,C5*
G36*
G01*
X140437550Y15367300D02*
X141350050Y15367300D01*
G75*
G02*
X141593800Y15123550I0J-243750D01*
G01*
X141593800Y14636050D01*
G75*
G02*
X141350050Y14392300I-243750J0D01*
G01*
X140437550Y14392300D01*
G75*
G02*
X140193800Y14636050I0J243750D01*
G01*
X140193800Y15123550D01*
G75*
G02*
X140437550Y15367300I243750J0D01*
G01*
G37*
G36*
G01*
X140437550Y13492300D02*
X141350050Y13492300D01*
G75*
G02*
X141593800Y13248550I0J-243750D01*
G01*
X141593800Y12761050D01*
G75*
G02*
X141350050Y12517300I-243750J0D01*
G01*
X140437550Y12517300D01*
G75*
G02*
X140193800Y12761050I0J243750D01*
G01*
X140193800Y13248550D01*
G75*
G02*
X140437550Y13492300I243750J0D01*
G01*
G37*
G04 #@! TD*
G04 #@! TO.C,C4*
G36*
G01*
X144165500Y17196750D02*
X144165500Y18109250D01*
G75*
G02*
X144409250Y18353000I243750J0D01*
G01*
X144896750Y18353000D01*
G75*
G02*
X145140500Y18109250I0J-243750D01*
G01*
X145140500Y17196750D01*
G75*
G02*
X144896750Y16953000I-243750J0D01*
G01*
X144409250Y16953000D01*
G75*
G02*
X144165500Y17196750I0J243750D01*
G01*
G37*
G36*
G01*
X142290500Y17196750D02*
X142290500Y18109250D01*
G75*
G02*
X142534250Y18353000I243750J0D01*
G01*
X143021750Y18353000D01*
G75*
G02*
X143265500Y18109250I0J-243750D01*
G01*
X143265500Y17196750D01*
G75*
G02*
X143021750Y16953000I-243750J0D01*
G01*
X142534250Y16953000D01*
G75*
G02*
X142290500Y17196750I0J243750D01*
G01*
G37*
G04 #@! TD*
G04 #@! TO.C,C3*
G36*
G01*
X142600500Y11124250D02*
X142600500Y10211750D01*
G75*
G02*
X142356750Y9968000I-243750J0D01*
G01*
X141869250Y9968000D01*
G75*
G02*
X141625500Y10211750I0J243750D01*
G01*
X141625500Y11124250D01*
G75*
G02*
X141869250Y11368000I243750J0D01*
G01*
X142356750Y11368000D01*
G75*
G02*
X142600500Y11124250I0J-243750D01*
G01*
G37*
G36*
G01*
X140725500Y11124250D02*
X140725500Y10211750D01*
G75*
G02*
X140481750Y9968000I-243750J0D01*
G01*
X139994250Y9968000D01*
G75*
G02*
X139750500Y10211750I0J243750D01*
G01*
X139750500Y11124250D01*
G75*
G02*
X139994250Y11368000I243750J0D01*
G01*
X140481750Y11368000D01*
G75*
G02*
X140725500Y11124250I0J-243750D01*
G01*
G37*
G04 #@! TD*
D12*
G04 #@! TO.C,Y1*
X144526000Y15494000D03*
X144526000Y13294000D03*
X142826000Y13294000D03*
X142826000Y15494000D03*
G04 #@! TD*
D13*
G04 #@! TO.C,USB1*
X4449000Y91238000D03*
X4949000Y91238000D03*
X5449000Y91238000D03*
X3949000Y91238000D03*
X5949000Y91238000D03*
X3449000Y91238000D03*
X6449000Y91238000D03*
X2949000Y91238000D03*
D14*
X2249000Y91238000D03*
X7149000Y91238000D03*
X1474000Y91238000D03*
X7924000Y91238000D03*
G04 #@! TD*
D15*
G04 #@! TO.C,U1*
G36*
X149274542Y-439970D02*
G01*
X148885634Y-51062D01*
X149946294Y1009598D01*
X150335202Y620690D01*
X149274542Y-439970D01*
G37*
G36*
X148708857Y125716D02*
G01*
X148319949Y514624D01*
X149380609Y1575284D01*
X149769517Y1186376D01*
X148708857Y125716D01*
G37*
G36*
X148143172Y691401D02*
G01*
X147754264Y1080309D01*
X148814924Y2140969D01*
X149203832Y1752061D01*
X148143172Y691401D01*
G37*
G36*
X147577486Y1257086D02*
G01*
X147188578Y1645994D01*
X148249238Y2706654D01*
X148638146Y2317746D01*
X147577486Y1257086D01*
G37*
G36*
X147011801Y1822772D02*
G01*
X146622893Y2211680D01*
X147683553Y3272340D01*
X148072461Y2883432D01*
X147011801Y1822772D01*
G37*
G36*
X146446115Y2388457D02*
G01*
X146057207Y2777365D01*
X147117867Y3838025D01*
X147506775Y3449117D01*
X146446115Y2388457D01*
G37*
G36*
X145880430Y2954143D02*
G01*
X145491522Y3343051D01*
X146552182Y4403711D01*
X146941090Y4014803D01*
X145880430Y2954143D01*
G37*
G36*
X145314744Y3519828D02*
G01*
X144925836Y3908736D01*
X145986496Y4969396D01*
X146375404Y4580488D01*
X145314744Y3519828D01*
G37*
G36*
X144749059Y4085514D02*
G01*
X144360151Y4474422D01*
X145420811Y5535082D01*
X145809719Y5146174D01*
X144749059Y4085514D01*
G37*
G36*
X144183374Y4651199D02*
G01*
X143794466Y5040107D01*
X144855126Y6100767D01*
X145244034Y5711859D01*
X144183374Y4651199D01*
G37*
G36*
X143617688Y5216884D02*
G01*
X143228780Y5605792D01*
X144289440Y6666452D01*
X144678348Y6277544D01*
X143617688Y5216884D01*
G37*
G36*
X143228780Y8681708D02*
G01*
X143617688Y9070616D01*
X144678348Y8009956D01*
X144289440Y7621048D01*
X143228780Y8681708D01*
G37*
G36*
X143794466Y9247393D02*
G01*
X144183374Y9636301D01*
X145244034Y8575641D01*
X144855126Y8186733D01*
X143794466Y9247393D01*
G37*
G36*
X144360151Y9813078D02*
G01*
X144749059Y10201986D01*
X145809719Y9141326D01*
X145420811Y8752418D01*
X144360151Y9813078D01*
G37*
G36*
X144925836Y10378764D02*
G01*
X145314744Y10767672D01*
X146375404Y9707012D01*
X145986496Y9318104D01*
X144925836Y10378764D01*
G37*
G36*
X145491522Y10944449D02*
G01*
X145880430Y11333357D01*
X146941090Y10272697D01*
X146552182Y9883789D01*
X145491522Y10944449D01*
G37*
G36*
X146057207Y11510135D02*
G01*
X146446115Y11899043D01*
X147506775Y10838383D01*
X147117867Y10449475D01*
X146057207Y11510135D01*
G37*
G36*
X146622893Y12075820D02*
G01*
X147011801Y12464728D01*
X148072461Y11404068D01*
X147683553Y11015160D01*
X146622893Y12075820D01*
G37*
G36*
X147188578Y12641506D02*
G01*
X147577486Y13030414D01*
X148638146Y11969754D01*
X148249238Y11580846D01*
X147188578Y12641506D01*
G37*
G36*
X147754264Y13207191D02*
G01*
X148143172Y13596099D01*
X149203832Y12535439D01*
X148814924Y12146531D01*
X147754264Y13207191D01*
G37*
G36*
X148319949Y13772876D02*
G01*
X148708857Y14161784D01*
X149769517Y13101124D01*
X149380609Y12712216D01*
X148319949Y13772876D01*
G37*
G36*
X148885634Y14338562D02*
G01*
X149274542Y14727470D01*
X150335202Y13666810D01*
X149946294Y13277902D01*
X148885634Y14338562D01*
G37*
G36*
X151678706Y13277902D02*
G01*
X151289798Y13666810D01*
X152350458Y14727470D01*
X152739366Y14338562D01*
X151678706Y13277902D01*
G37*
G36*
X152244391Y12712216D02*
G01*
X151855483Y13101124D01*
X152916143Y14161784D01*
X153305051Y13772876D01*
X152244391Y12712216D01*
G37*
G36*
X152810076Y12146531D02*
G01*
X152421168Y12535439D01*
X153481828Y13596099D01*
X153870736Y13207191D01*
X152810076Y12146531D01*
G37*
G36*
X153375762Y11580846D02*
G01*
X152986854Y11969754D01*
X154047514Y13030414D01*
X154436422Y12641506D01*
X153375762Y11580846D01*
G37*
G36*
X153941447Y11015160D02*
G01*
X153552539Y11404068D01*
X154613199Y12464728D01*
X155002107Y12075820D01*
X153941447Y11015160D01*
G37*
G36*
X154507133Y10449475D02*
G01*
X154118225Y10838383D01*
X155178885Y11899043D01*
X155567793Y11510135D01*
X154507133Y10449475D01*
G37*
G36*
X155072818Y9883789D02*
G01*
X154683910Y10272697D01*
X155744570Y11333357D01*
X156133478Y10944449D01*
X155072818Y9883789D01*
G37*
G36*
X155638504Y9318104D02*
G01*
X155249596Y9707012D01*
X156310256Y10767672D01*
X156699164Y10378764D01*
X155638504Y9318104D01*
G37*
G36*
X156204189Y8752418D02*
G01*
X155815281Y9141326D01*
X156875941Y10201986D01*
X157264849Y9813078D01*
X156204189Y8752418D01*
G37*
G36*
X156769874Y8186733D02*
G01*
X156380966Y8575641D01*
X157441626Y9636301D01*
X157830534Y9247393D01*
X156769874Y8186733D01*
G37*
G36*
X157335560Y7621048D02*
G01*
X156946652Y8009956D01*
X158007312Y9070616D01*
X158396220Y8681708D01*
X157335560Y7621048D01*
G37*
G36*
X156946652Y6277544D02*
G01*
X157335560Y6666452D01*
X158396220Y5605792D01*
X158007312Y5216884D01*
X156946652Y6277544D01*
G37*
G36*
X156380966Y5711859D02*
G01*
X156769874Y6100767D01*
X157830534Y5040107D01*
X157441626Y4651199D01*
X156380966Y5711859D01*
G37*
G36*
X155815281Y5146174D02*
G01*
X156204189Y5535082D01*
X157264849Y4474422D01*
X156875941Y4085514D01*
X155815281Y5146174D01*
G37*
G36*
X155249596Y4580488D02*
G01*
X155638504Y4969396D01*
X156699164Y3908736D01*
X156310256Y3519828D01*
X155249596Y4580488D01*
G37*
G36*
X154683910Y4014803D02*
G01*
X155072818Y4403711D01*
X156133478Y3343051D01*
X155744570Y2954143D01*
X154683910Y4014803D01*
G37*
G36*
X154118225Y3449117D02*
G01*
X154507133Y3838025D01*
X155567793Y2777365D01*
X155178885Y2388457D01*
X154118225Y3449117D01*
G37*
G36*
X153552539Y2883432D02*
G01*
X153941447Y3272340D01*
X155002107Y2211680D01*
X154613199Y1822772D01*
X153552539Y2883432D01*
G37*
G36*
X152986854Y2317746D02*
G01*
X153375762Y2706654D01*
X154436422Y1645994D01*
X154047514Y1257086D01*
X152986854Y2317746D01*
G37*
G36*
X152421168Y1752061D02*
G01*
X152810076Y2140969D01*
X153870736Y1080309D01*
X153481828Y691401D01*
X152421168Y1752061D01*
G37*
G36*
X151855483Y1186376D02*
G01*
X152244391Y1575284D01*
X153305051Y514624D01*
X152916143Y125716D01*
X151855483Y1186376D01*
G37*
G36*
X151289798Y620690D02*
G01*
X151678706Y1009598D01*
X152739366Y-51062D01*
X152350458Y-439970D01*
X151289798Y620690D01*
G37*
G04 #@! TD*
G04 #@! TO.C,R6*
G36*
G01*
X161195332Y9121903D02*
X160550097Y8476668D01*
G75*
G02*
X160205383Y8476668I-172357J172357D01*
G01*
X159860668Y8821383D01*
G75*
G02*
X159860668Y9166097I172357J172357D01*
G01*
X160505903Y9811332D01*
G75*
G02*
X160850617Y9811332I172357J-172357D01*
G01*
X161195332Y9466617D01*
G75*
G02*
X161195332Y9121903I-172357J-172357D01*
G01*
G37*
G36*
G01*
X159869506Y10447729D02*
X159224271Y9802494D01*
G75*
G02*
X158879557Y9802494I-172357J172357D01*
G01*
X158534842Y10147209D01*
G75*
G02*
X158534842Y10491923I172357J172357D01*
G01*
X159180077Y11137158D01*
G75*
G02*
X159524791Y11137158I172357J-172357D01*
G01*
X159869506Y10792443D01*
G75*
G02*
X159869506Y10447729I-172357J-172357D01*
G01*
G37*
G04 #@! TD*
G04 #@! TO.C,R5*
G36*
G01*
X2235500Y89737250D02*
X2235500Y88824750D01*
G75*
G02*
X1991750Y88581000I-243750J0D01*
G01*
X1504250Y88581000D01*
G75*
G02*
X1260500Y88824750I0J243750D01*
G01*
X1260500Y89737250D01*
G75*
G02*
X1504250Y89981000I243750J0D01*
G01*
X1991750Y89981000D01*
G75*
G02*
X2235500Y89737250I0J-243750D01*
G01*
G37*
G36*
G01*
X360500Y89737250D02*
X360500Y88824750D01*
G75*
G02*
X116750Y88581000I-243750J0D01*
G01*
X-370750Y88581000D01*
G75*
G02*
X-614500Y88824750I0J243750D01*
G01*
X-614500Y89737250D01*
G75*
G02*
X-370750Y89981000I243750J0D01*
G01*
X116750Y89981000D01*
G75*
G02*
X360500Y89737250I0J-243750D01*
G01*
G37*
G04 #@! TD*
G04 #@! TO.C,R4*
G36*
G01*
X11861500Y90221750D02*
X11861500Y91134250D01*
G75*
G02*
X12105250Y91378000I243750J0D01*
G01*
X12592750Y91378000D01*
G75*
G02*
X12836500Y91134250I0J-243750D01*
G01*
X12836500Y90221750D01*
G75*
G02*
X12592750Y89978000I-243750J0D01*
G01*
X12105250Y89978000D01*
G75*
G02*
X11861500Y90221750I0J243750D01*
G01*
G37*
G36*
G01*
X13736500Y90221750D02*
X13736500Y91134250D01*
G75*
G02*
X13980250Y91378000I243750J0D01*
G01*
X14467750Y91378000D01*
G75*
G02*
X14711500Y91134250I0J-243750D01*
G01*
X14711500Y90221750D01*
G75*
G02*
X14467750Y89978000I-243750J0D01*
G01*
X13980250Y89978000D01*
G75*
G02*
X13736500Y90221750I0J243750D01*
G01*
G37*
G04 #@! TD*
G04 #@! TO.C,R3*
G36*
G01*
X13314500Y74751250D02*
X13314500Y73838750D01*
G75*
G02*
X13070750Y73595000I-243750J0D01*
G01*
X12583250Y73595000D01*
G75*
G02*
X12339500Y73838750I0J243750D01*
G01*
X12339500Y74751250D01*
G75*
G02*
X12583250Y74995000I243750J0D01*
G01*
X13070750Y74995000D01*
G75*
G02*
X13314500Y74751250I0J-243750D01*
G01*
G37*
G36*
G01*
X11439500Y74751250D02*
X11439500Y73838750D01*
G75*
G02*
X11195750Y73595000I-243750J0D01*
G01*
X10708250Y73595000D01*
G75*
G02*
X10464500Y73838750I0J243750D01*
G01*
X10464500Y74751250D01*
G75*
G02*
X10708250Y74995000I243750J0D01*
G01*
X11195750Y74995000D01*
G75*
G02*
X11439500Y74751250I0J-243750D01*
G01*
G37*
G04 #@! TD*
G04 #@! TO.C,R2*
G36*
G01*
X13284500Y76910250D02*
X13284500Y75997750D01*
G75*
G02*
X13040750Y75754000I-243750J0D01*
G01*
X12553250Y75754000D01*
G75*
G02*
X12309500Y75997750I0J243750D01*
G01*
X12309500Y76910250D01*
G75*
G02*
X12553250Y77154000I243750J0D01*
G01*
X13040750Y77154000D01*
G75*
G02*
X13284500Y76910250I0J-243750D01*
G01*
G37*
G36*
G01*
X11409500Y76910250D02*
X11409500Y75997750D01*
G75*
G02*
X11165750Y75754000I-243750J0D01*
G01*
X10678250Y75754000D01*
G75*
G02*
X10434500Y75997750I0J243750D01*
G01*
X10434500Y76910250D01*
G75*
G02*
X10678250Y77154000I243750J0D01*
G01*
X11165750Y77154000D01*
G75*
G02*
X11409500Y76910250I0J-243750D01*
G01*
G37*
G04 #@! TD*
G04 #@! TO.C,R1*
G36*
G01*
X138632250Y6576000D02*
X137719750Y6576000D01*
G75*
G02*
X137476000Y6819750I0J243750D01*
G01*
X137476000Y7307250D01*
G75*
G02*
X137719750Y7551000I243750J0D01*
G01*
X138632250Y7551000D01*
G75*
G02*
X138876000Y7307250I0J-243750D01*
G01*
X138876000Y6819750D01*
G75*
G02*
X138632250Y6576000I-243750J0D01*
G01*
G37*
G36*
G01*
X138632250Y8451000D02*
X137719750Y8451000D01*
G75*
G02*
X137476000Y8694750I0J243750D01*
G01*
X137476000Y9182250D01*
G75*
G02*
X137719750Y9426000I243750J0D01*
G01*
X138632250Y9426000D01*
G75*
G02*
X138876000Y9182250I0J-243750D01*
G01*
X138876000Y8694750D01*
G75*
G02*
X138632250Y8451000I-243750J0D01*
G01*
G37*
G04 #@! TD*
G04 #@! TO.C,F1*
G36*
G01*
X10418000Y92466000D02*
X10418000Y93716000D01*
G75*
G02*
X10668000Y93966000I250000J0D01*
G01*
X11418000Y93966000D01*
G75*
G02*
X11668000Y93716000I0J-250000D01*
G01*
X11668000Y92466000D01*
G75*
G02*
X11418000Y92216000I-250000J0D01*
G01*
X10668000Y92216000D01*
G75*
G02*
X10418000Y92466000I0J250000D01*
G01*
G37*
G36*
G01*
X13218000Y92466000D02*
X13218000Y93716000D01*
G75*
G02*
X13468000Y93966000I250000J0D01*
G01*
X14218000Y93966000D01*
G75*
G02*
X14468000Y93716000I0J-250000D01*
G01*
X14468000Y92466000D01*
G75*
G02*
X14218000Y92216000I-250000J0D01*
G01*
X13468000Y92216000D01*
G75*
G02*
X13218000Y92466000I0J250000D01*
G01*
G37*
G04 #@! TD*
D16*
G04 #@! TO.C,D7*
X97719000Y92099000D03*
X100869000Y92099000D03*
G04 #@! TD*
G04 #@! TO.C,D48*
X229456000Y53999000D03*
X226306000Y53999000D03*
G04 #@! TD*
G04 #@! TO.C,D72*
X96106000Y15899000D03*
X92956000Y15899000D03*
G04 #@! TD*
G04 #@! TO.C,D39*
X21519200Y53999000D03*
X24669200Y53999000D03*
G04 #@! TD*
G04 #@! TO.C,D2*
X12446000Y84252000D03*
X12446000Y81102000D03*
G04 #@! TD*
G04 #@! TO.C,D50*
X267556000Y53999000D03*
X264406000Y53999000D03*
G04 #@! TD*
G04 #@! TO.C,D21*
X21519200Y73049000D03*
X24669200Y73049000D03*
G04 #@! TD*
G04 #@! TO.C,D53*
X-13430800Y34949000D03*
X-16580800Y34949000D03*
G04 #@! TD*
G04 #@! TO.C,D26*
X129444000Y73049000D03*
X126294000Y73049000D03*
G04 #@! TD*
G04 #@! TO.C,D60*
X140582000Y34949000D03*
X143732000Y34949000D03*
G04 #@! TD*
G04 #@! TO.C,D42*
X115156000Y53999000D03*
X112006000Y53999000D03*
G04 #@! TD*
G04 #@! TO.C,D4*
X43719200Y92099000D03*
X40569200Y92099000D03*
G04 #@! TD*
G04 #@! TO.C,D3*
X21519200Y92099000D03*
X24669200Y92099000D03*
G04 #@! TD*
G04 #@! TO.C,D25*
X107244000Y73049000D03*
X110394000Y73049000D03*
G04 #@! TD*
G04 #@! TO.C,D71*
X69144000Y15899000D03*
X72294000Y15899000D03*
G04 #@! TD*
G04 #@! TO.C,D78*
X335038000Y7949000D03*
X335038000Y4799000D03*
G04 #@! TD*
G04 #@! TO.C,D77*
X307269000Y15899000D03*
X310419000Y15899000D03*
G04 #@! TD*
G04 #@! TO.C,D45*
X169156000Y53999000D03*
X172306000Y53999000D03*
G04 #@! TD*
G04 #@! TO.C,D16*
X272319000Y92099000D03*
X269169000Y92099000D03*
G04 #@! TD*
G04 #@! TO.C,D22*
X32619200Y55574000D03*
X32619200Y52424000D03*
G04 #@! TD*
G04 #@! TO.C,D10*
X165969000Y84149000D03*
X165969000Y80999000D03*
G04 #@! TD*
G04 #@! TO.C,D54*
X2469200Y34949000D03*
X5619200Y34949000D03*
G04 #@! TD*
G04 #@! TO.C,D19*
X-16580800Y73049000D03*
X-13430800Y73049000D03*
G04 #@! TD*
G04 #@! TO.C,D57*
X71525000Y34949000D03*
X74675000Y34949000D03*
G04 #@! TD*
G04 #@! TO.C,D47*
X207256000Y53999000D03*
X210406000Y53999000D03*
G04 #@! TD*
G04 #@! TO.C,D15*
X261219000Y80999000D03*
X261219000Y84149000D03*
G04 #@! TD*
G04 #@! TO.C,D67*
X277082000Y34949000D03*
X273932000Y34949000D03*
G04 #@! TD*
G04 #@! TO.C,D36*
X322325000Y73049000D03*
X319175000Y73049000D03*
G04 #@! TD*
G04 #@! TO.C,D62*
X178682000Y34949000D03*
X181832000Y34949000D03*
G04 #@! TD*
G04 #@! TO.C,D61*
X159632000Y34949000D03*
X162782000Y34949000D03*
G04 #@! TD*
G04 #@! TO.C,D52*
X317563000Y53999000D03*
X314413000Y53999000D03*
G04 #@! TD*
G04 #@! TO.C,D37*
X-16580800Y53999000D03*
X-13430800Y53999000D03*
G04 #@! TD*
G04 #@! TO.C,D65*
X235832000Y34949000D03*
X238982000Y34949000D03*
G04 #@! TD*
G04 #@! TO.C,D14*
X231069000Y92099000D03*
X234219000Y92099000D03*
G04 #@! TD*
G04 #@! TO.C,D68*
X312032000Y34949000D03*
X315182000Y34949000D03*
G04 #@! TD*
G04 #@! TO.C,D18*
X319944000Y92099000D03*
X316794000Y92099000D03*
G04 #@! TD*
G04 #@! TO.C,D38*
X5619200Y53999000D03*
X2469200Y53999000D03*
G04 #@! TD*
G04 #@! TO.C,D12*
X196119000Y92099000D03*
X192969000Y92099000D03*
G04 #@! TD*
G04 #@! TO.C,D58*
X105632000Y34949000D03*
X102482000Y34949000D03*
G04 #@! TD*
G04 #@! TO.C,D34*
X281844000Y73049000D03*
X278694000Y73049000D03*
G04 #@! TD*
G04 #@! TO.C,D20*
X5619200Y73049000D03*
X2469200Y73049000D03*
G04 #@! TD*
G04 #@! TO.C,D69*
X-7055800Y15899000D03*
X-3905800Y15899000D03*
G04 #@! TD*
D17*
G04 #@! TO.C,SW1*
X30719200Y92867800D03*
X30719200Y86567800D03*
X34519200Y92867800D03*
X34519200Y86567800D03*
G04 #@! TD*
D16*
G04 #@! TO.C,D40*
X69913000Y53999000D03*
X66763000Y53999000D03*
G04 #@! TD*
G04 #@! TO.C,D56*
X33337500Y17474000D03*
X33337500Y14324000D03*
G04 #@! TD*
G04 #@! TO.C,D23*
X64382000Y73049000D03*
X67532000Y73049000D03*
G04 #@! TD*
G04 #@! TO.C,D17*
X288219000Y92099000D03*
X291369000Y92099000D03*
G04 #@! TD*
G04 #@! TO.C,D32*
X243744000Y73049000D03*
X240594000Y73049000D03*
G04 #@! TD*
G04 #@! TO.C,D31*
X221544000Y73049000D03*
X224694000Y73049000D03*
G04 #@! TD*
G04 #@! TO.C,D9*
X135819000Y92099000D03*
X138969000Y92099000D03*
G04 #@! TD*
G04 #@! TO.C,D64*
X219932000Y34949000D03*
X216782000Y34949000D03*
G04 #@! TD*
G04 #@! TO.C,D74*
X184213000Y15899000D03*
X181063000Y15899000D03*
G04 #@! TD*
G04 #@! TO.C,D76*
X279463000Y15899000D03*
X276313000Y15899000D03*
G04 #@! TD*
G04 #@! TO.C,D49*
X245356000Y53999000D03*
X248506000Y53999000D03*
G04 #@! TD*
G04 #@! TO.C,D70*
X21519200Y15899000D03*
X24669200Y15899000D03*
G04 #@! TD*
G04 #@! TO.C,D75*
X255650000Y15899000D03*
X252500000Y15899000D03*
G04 #@! TD*
G04 #@! TO.C,D8*
X119919000Y92099000D03*
X116769000Y92099000D03*
G04 #@! TD*
G04 #@! TO.C,D28*
X164394000Y73049000D03*
X167544000Y73049000D03*
G04 #@! TD*
G04 #@! TO.C,D13*
X212019000Y92099000D03*
X215169000Y92099000D03*
G04 #@! TD*
G04 #@! TO.C,D66*
X254882000Y34949000D03*
X258032000Y34949000D03*
G04 #@! TD*
G04 #@! TO.C,D6*
X81819000Y92099000D03*
X78669000Y92099000D03*
G04 #@! TD*
G04 #@! TO.C,D44*
X153256000Y53999000D03*
X150106000Y53999000D03*
G04 #@! TD*
G04 #@! TO.C,D46*
X191356000Y53999000D03*
X188206000Y53999000D03*
G04 #@! TD*
G04 #@! TO.C,D51*
X283456000Y53999000D03*
X286606000Y53999000D03*
G04 #@! TD*
G04 #@! TO.C,D11*
X173919000Y92099000D03*
X177069000Y92099000D03*
G04 #@! TD*
G04 #@! TO.C,D63*
X200882000Y34949000D03*
X197732000Y34949000D03*
G04 #@! TD*
G04 #@! TO.C,D29*
X183444000Y73049000D03*
X186594000Y73049000D03*
G04 #@! TD*
G04 #@! TO.C,D55*
X21519200Y34949000D03*
X24669200Y34949000D03*
G04 #@! TD*
G04 #@! TO.C,D5*
X70719000Y80999000D03*
X70719000Y84149000D03*
G04 #@! TD*
G04 #@! TO.C,D43*
X131056000Y53999000D03*
X134206000Y53999000D03*
G04 #@! TD*
G04 #@! TO.C,D73*
X112775000Y15899000D03*
X109625000Y15899000D03*
G04 #@! TD*
G04 #@! TO.C,D33*
X259644000Y73049000D03*
X262794000Y73049000D03*
G04 #@! TD*
G04 #@! TO.C,D30*
X205644000Y73049000D03*
X202494000Y73049000D03*
G04 #@! TD*
G04 #@! TO.C,D35*
X295363000Y73049000D03*
X298513000Y73049000D03*
G04 #@! TD*
G04 #@! TO.C,D24*
X91344000Y73049000D03*
X88194000Y73049000D03*
G04 #@! TD*
G04 #@! TO.C,D59*
X124682000Y34949000D03*
X121532000Y34949000D03*
G04 #@! TD*
G04 #@! TO.C,D41*
X92956000Y53999000D03*
X96106000Y53999000D03*
G04 #@! TD*
G04 #@! TO.C,D1*
X-16580800Y92099000D03*
X-13430800Y92099000D03*
G04 #@! TD*
G04 #@! TO.C,D27*
X148494000Y73049000D03*
X145344000Y73049000D03*
G04 #@! TD*
M02*
