M48
; DRILL file {KiCad (5.1.4)-1} date 7/18/2020 23:48:52
; FORMAT={-:-/ absolute / inch / decimal}
; #@! TF.CreationDate,2020-07-18T23:48:52-04:00
; #@! TF.GenerationSoftware,Kicad,Pcbnew,(5.1.4)-1
; #@! TF.FileFunction,Plated,1,2,PTH
FMAT,2
INCH
T1C0.0157
T2C0.0236
T3C0.0276
T4C0.0579
%
G90
G05
T1
X-0.0312Y3.0312
X0.4062Y0.5312
X0.41Y3.5436
X0.42Y3.165
X0.5Y2.5
X0.5Y1.8438
X0.5296Y0.0938
X0.5582Y2.8125
X0.5582Y1.25
X0.575Y3.495
X0.575Y3.11
X0.5934Y-0.0316
X0.6756Y1.8941
X0.6772Y2.6425
X0.68Y3.17
X1.1562Y1.375
X1.3152Y0.0736
X1.375Y1.4375
X1.4062Y1.4688
X1.5938Y0.1875
X1.8438Y0.2812
X2.1875Y0.1562
X2.25Y1.8438
X2.375Y0.0914
X2.6562Y1.5
X2.8125Y0.1562
X3.1875Y-0.1875
X3.2812Y0.0938
X3.7188Y1.5312
X4.375Y0.0938
X4.5579Y0.4421
X5.125Y1.5625
X5.24Y0.16
X5.4428Y0.2
X5.5281Y0.2719
X5.56Y0.345
X5.5664Y0.0764
X5.6102Y0.1264
X5.6768Y0.1232
X5.6875Y0.875
X5.715Y-0.195
X5.7188Y-0.12
X5.75Y0.625
X5.7812Y0.6562
X5.8Y1.13
X5.8Y0.9
X5.865Y1.3576
X5.8654Y0.7
X5.9041Y-0.0959
X5.905Y2.275
X5.9054Y1.4384
X5.9062Y0.8438
X5.925Y1.125
X5.9375Y0.5938
X5.9375Y0.5938
X5.9688Y0.75
X6.0761Y0.5394
X6.1158Y0.0221
X6.1232Y0.5387
X6.155Y0.86
X6.175Y0.625
X6.1875Y1.5
X6.2142Y-0.0358
X6.2188Y1.5312
X6.25Y2.6562
X6.25Y1.5625
X6.2786Y2.61
X6.28Y0.5286
X6.285Y1.595
X6.295Y0.285
X6.3Y0.67
X6.3125Y1.5
X6.3438Y1.5312
X6.345Y0.26
X6.3474Y0.5036
X6.355Y0.425
X6.375Y1.5625
X6.375Y0.5974
X6.4062Y0.1875
X6.41Y2.285
X6.41Y1.5911
X6.4207Y0.4707
X6.5009Y0.4309
X6.53Y1.955
X6.5312Y-0.1875
X6.5451Y0.1167
X6.5552Y0.0663
X6.6573Y0.5688
X6.69Y1.635
X6.6937Y0.5938
X6.7132Y-0.0955
X6.75Y1.975
X6.7706Y0.5579
X6.7961Y-0.0938
X6.8125Y0.0
X6.8362Y0.6892
X6.9062Y0.8125
X6.9432Y0.0084
X6.9688Y0.6562
X7.1562Y1.6875
X7.1562Y0.5
X7.625Y0.6875
X7.7188Y0.7188
X7.75Y0.4688
X7.8287Y0.1412
X7.875Y0.8125
X7.9688Y0.2188
X8.0358Y0.2454
X8.0625Y0.375
X8.125Y0.875
X8.125Y0.375
X8.1649Y0.3745
X8.4062Y0.7812
X8.4062Y0.7188
X8.4375Y0.8125
X8.4688Y0.7188
X8.5Y0.75
X9.0312Y1.4688
X9.48Y-0.09
X9.655Y0.295
X9.75Y1.5
X9.7748Y0.0781
X9.8125Y0.875
X10.4688Y1.5312
X10.8438Y-0.0786
X12.4017Y1.5892
X12.6875Y2.0
X12.7454Y2.0579
X12.8438Y0.5938
T3
X-0.7443Y1.3759
X-0.4372Y1.3759
X5.2557Y3.6259
X5.5628Y3.6259
X2.7244Y1.3759
X3.0315Y1.3759
X11.5369Y2.8759
X11.844Y2.8759
X8.8181Y2.1259
X9.1252Y2.1259
X9.3807Y2.8759
X9.6878Y2.8759
X6.5681Y2.1259
X6.8752Y2.1259
X-0.7443Y2.1259
X-0.4372Y2.1259
X11.2557Y3.6259
X11.5628Y3.6259
X1.2842Y2.2795
X1.2842Y1.9724
X10.8807Y2.8759
X11.1878Y2.8759
X0.49Y3.4085
X0.49Y3.1015
X4.3181Y2.1259
X4.6252Y2.1259
X9.0057Y3.6259
X9.3128Y3.6259
X0.7557Y1.3759
X1.0628Y1.3759
X6.3807Y2.8759
X6.6878Y2.8759
X0.0057Y2.1259
X0.3128Y2.1259
X7.6932Y1.3759
X8.0003Y1.3759
X10.7869Y0.6259
X11.094Y0.6259
X7.3181Y2.1259
X7.6252Y2.1259
X5.8181Y2.1259
X6.1252Y2.1259
X4.2244Y0.6259
X4.5315Y0.6259
X0.7557Y0.6259
X1.0628Y0.6259
X10.1307Y2.8759
X10.4378Y2.8759
X2.5369Y2.1259
X2.844Y2.1259
X-0.7443Y2.8759
X-0.4372Y2.8759
X4.8807Y2.8759
X5.1878Y2.8759
X13.1905Y0.4045
X13.1905Y0.0974
X10.6932Y1.3759
X11.0003Y1.3759
X3.5681Y0.6259
X3.8752Y0.6259
X12.1932Y1.3759
X12.5003Y1.3759
X0.7557Y2.1259
X1.0628Y2.1259
X2.4432Y2.8759
X2.7503Y2.8759
X10.5057Y3.6259
X10.8128Y3.6259
X3.9432Y1.3759
X4.2503Y1.3759
X10.3181Y2.1259
X10.6252Y2.1259
X7.8807Y2.8759
X8.1878Y2.8759
X12.3807Y3.6259
X12.6878Y3.6259
X0.0057Y1.3759
X0.3128Y1.3759
X3.7557Y3.6259
X4.0628Y3.6259
X7.1307Y2.8759
X7.4378Y2.8759
X9.9432Y1.3759
X10.2503Y1.3759
X2.6307Y0.6259
X2.9378Y0.6259
X7.5057Y3.6259
X7.8128Y3.6259
X12.4744Y2.8759
X12.7815Y2.8759
X5.0681Y2.1259
X5.3752Y2.1259
X4.1307Y2.8759
X4.4378Y2.8759
X11.0681Y2.1259
X11.3752Y2.1259
X9.1932Y1.3759
X9.5003Y1.3759
X6.1932Y1.3759
X6.5003Y1.3759
X7.0369Y0.6259
X7.344Y0.6259
X5.6307Y2.8759
X5.9378Y2.8759
X12.2869Y2.1259
X12.594Y2.1259
X9.8494Y0.6259
X10.1565Y0.6259
X0.7557Y2.8759
X1.0628Y2.8759
X8.6307Y2.8759
X8.9378Y2.8759
X8.2557Y3.6259
X8.5628Y3.6259
X5.4432Y1.3759
X5.7503Y1.3759
X1.3125Y0.7795
X1.3125Y0.4724
X10.2842Y3.4045
X10.2842Y3.0974
X12.0057Y0.6259
X12.3128Y0.6259
X2.7842Y3.4045
X2.7842Y3.0974
X8.4432Y1.3759
X8.7503Y1.3759
X0.0057Y2.8759
X0.3128Y2.8759
X1.5057Y3.6259
X1.8128Y3.6259
X-0.3693Y0.6259
X-0.0622Y0.6259
X3.3807Y2.8759
X3.6878Y2.8759
X0.7557Y3.6259
X1.0628Y3.6259
X4.6932Y1.3759
X5.0003Y1.3759
X8.0681Y2.1259
X8.3752Y2.1259
X3.5681Y2.1259
X3.8752Y2.1259
X3.0057Y3.6259
X3.3128Y3.6259
X6.9432Y1.3759
X7.2503Y1.3759
X6.7557Y3.6259
X7.0628Y3.6259
X9.5681Y2.1259
X9.8752Y2.1259
X-0.7443Y3.6259
X-0.4372Y3.6259
X6.5342Y3.4045
X6.5342Y3.0974
X4.5057Y3.6259
X4.8128Y3.6259
T4
X6.3842Y2.6009
X6.4358Y2.6584
X6.6326Y2.6781
X6.6342Y2.7009
X8.4467Y1.1009
X8.4983Y1.1584
X8.6952Y1.1781
X8.6967Y1.2009
X10.1342Y2.6009
X10.1858Y2.6584
X10.3826Y2.6781
X10.3842Y2.7009
X7.6967Y1.1009
X7.7483Y1.1584
X7.9452Y1.1781
X7.9467Y1.2009
X2.2592Y3.3509
X2.3108Y3.4084
X2.5076Y3.4281
X2.5092Y3.4509
X5.2592Y3.3509
X5.3108Y3.4084
X5.5076Y3.4281
X5.5092Y3.4509
X1.4592Y2.2259
X1.4821Y2.2244
X1.5017Y2.0275
X1.5592Y1.9759
X7.8842Y2.6009
X7.9358Y2.6584
X8.1326Y2.6781
X8.1342Y2.7009
X9.7592Y3.3509
X9.8108Y3.4084
X10.0076Y3.4281
X10.0092Y3.4509
X8.6342Y2.6009
X8.6858Y2.6584
X8.8826Y2.6781
X8.8842Y2.7009
X7.1342Y2.6009
X7.1858Y2.6584
X7.3826Y2.6781
X7.3842Y2.7009
X9.853Y0.3509
X9.9045Y0.4084
X10.1014Y0.4281
X10.103Y0.4509
X3.9467Y1.1009
X3.9983Y1.1584
X4.1952Y1.1781
X4.1967Y1.2009
X7.0405Y0.3509
X7.092Y0.4084
X7.2889Y0.4281
X7.2905Y0.4509
X3.5717Y1.8509
X3.6233Y1.9084
X3.8201Y1.9281
X3.8217Y1.9509
X9.1967Y1.1009
X9.2483Y1.1584
X9.4452Y1.1781
X9.4467Y1.2009
X8.0717Y1.8509
X8.1233Y1.9084
X8.3201Y1.9281
X8.3217Y1.9509
X12.2905Y1.8509
X12.342Y1.9084
X12.5389Y1.9281
X12.5405Y1.9509
X7.5092Y3.3509
X7.5608Y3.4084
X7.7576Y3.4281
X7.7592Y3.4509
X10.8842Y2.6009
X10.9358Y2.6584
X11.1326Y2.6781
X11.1342Y2.7009
X10.3217Y1.8509
X10.3733Y1.9084
X10.5701Y1.9281
X10.5717Y1.9509
X-0.7408Y1.1009
X-0.6892Y1.1584
X-0.4924Y1.1781
X-0.4908Y1.2009
X4.8842Y2.6009
X4.9358Y2.6584
X5.1326Y2.6781
X5.1342Y2.7009
X12.3842Y3.3509
X12.4358Y3.4084
X12.6326Y3.4281
X12.6342Y3.4509
X1.4592Y0.7259
X1.4821Y0.7244
X1.5017Y0.5275
X1.5592Y0.4759
X9.9467Y1.1009
X9.9983Y1.1584
X10.1952Y1.1781
X10.1967Y1.2009
X5.6342Y2.6009
X5.6858Y2.6584
X5.8826Y2.6781
X5.8842Y2.7009
X12.5717Y2.6009
X12.6233Y2.6584
X12.8201Y2.6781
X12.8217Y2.7009
X8.2592Y3.3509
X8.3108Y3.4084
X8.5076Y3.4281
X8.5092Y3.4509
X9.0092Y3.3509
X9.0608Y3.4084
X9.2576Y3.4281
X9.2592Y3.4509
X11.2592Y3.3509
X11.3108Y3.4084
X11.5076Y3.4281
X11.5092Y3.4509
X11.0717Y1.8509
X11.1233Y1.9084
X11.3201Y1.9281
X11.3217Y1.9509
X-0.7408Y1.8509
X-0.6892Y1.9084
X-0.4924Y1.9281
X-0.4908Y1.9509
X-0.7408Y3.3509
X-0.6892Y3.4084
X-0.4924Y3.4281
X-0.4908Y3.4509
X6.9467Y1.1009
X6.9983Y1.1584
X7.1952Y1.1781
X7.1967Y1.2009
X11.6342Y2.6009
X11.6858Y2.6584
X11.8826Y2.6781
X11.8842Y2.7009
X2.353Y0.3509
X2.4045Y0.4084
X2.6014Y0.4281
X2.603Y0.4509
X0.7592Y2.6009
X0.8108Y2.6584
X1.0076Y2.6781
X1.0092Y2.7009
X12.103Y1.1009
X12.1545Y1.1584
X12.3514Y1.1781
X12.353Y1.2009
X5.8217Y1.8509
X5.8733Y1.9084
X6.0701Y1.9281
X6.0717Y1.9509
X7.3217Y1.8509
X7.3733Y1.9084
X7.5701Y1.9281
X7.5717Y1.9509
X0.7592Y1.1009
X0.8108Y1.1584
X1.0076Y1.1781
X1.0092Y1.2009
X4.3217Y1.8509
X4.3733Y1.9084
X4.5701Y1.9281
X4.5717Y1.9509
X4.228Y0.3509
X4.2795Y0.4084
X4.4764Y0.4281
X4.478Y0.4509
X11.728Y0.3509
X11.7795Y0.4084
X11.9764Y0.4281
X11.978Y0.4509
X3.0092Y3.3509
X3.0608Y3.4084
X3.2576Y3.4281
X3.2592Y3.4509
X4.5092Y3.3509
X4.5608Y3.4084
X4.7576Y3.4281
X4.7592Y3.4509
X6.5717Y1.8509
X6.6233Y1.9084
X6.8201Y1.9281
X6.8217Y1.9509
X0.7592Y1.8509
X0.8108Y1.9084
X1.0076Y1.9281
X1.0092Y1.9509
X-0.3658Y0.3509
X-0.3142Y0.4084
X-0.1174Y0.4281
X-0.1158Y0.4509
X0.0092Y2.6009
X0.0608Y2.6584
X0.2576Y2.6781
X0.2592Y2.7009
X2.4467Y2.6009
X2.4983Y2.6584
X2.6952Y2.6781
X2.6967Y2.7009
X3.2905Y0.3509
X3.342Y0.4084
X3.5389Y0.4281
X3.5405Y0.4509
X0.7592Y0.3509
X0.8108Y0.4084
X1.0076Y0.4281
X1.0092Y0.4509
X9.3842Y2.6009
X9.4358Y2.6584
X9.6326Y2.6781
X9.6342Y2.7009
X0.0092Y1.1009
X0.0608Y1.1584
X0.2576Y1.1781
X0.2592Y1.2009
X10.5092Y3.3509
X10.5608Y3.4084
X10.7576Y3.4281
X10.7592Y3.4509
X0.7592Y3.3509
X0.8108Y3.4084
X1.0076Y3.4281
X1.0092Y3.4509
X2.728Y1.1009
X2.7795Y1.1584
X2.9764Y1.1781
X2.978Y1.2009
X9.5717Y1.8509
X9.6233Y1.9084
X9.8201Y1.9281
X9.8217Y1.9509
X5.0717Y1.8509
X5.1233Y1.9084
X5.3201Y1.9281
X5.3217Y1.9509
X6.7592Y3.3509
X6.8108Y3.4084
X7.0076Y3.4281
X7.0092Y3.4509
X10.7905Y0.3509
X10.842Y0.4084
X11.0389Y0.4281
X11.0405Y0.4509
X3.3842Y2.6009
X3.4358Y2.6584
X3.6326Y2.6781
X3.6342Y2.7009
X5.4467Y1.1009
X5.4983Y1.1584
X5.6952Y1.1781
X5.6967Y1.2009
X3.7592Y3.3509
X3.8108Y3.4084
X4.0076Y3.4281
X4.0092Y3.4509
X4.1342Y2.6009
X4.1858Y2.6584
X4.3826Y2.6781
X4.3842Y2.7009
X6.0092Y3.3509
X6.0608Y3.4084
X6.2576Y3.4281
X6.2592Y3.4509
X6.1967Y1.1009
X6.2483Y1.1584
X6.4452Y1.1781
X6.4467Y1.2009
X10.6967Y1.1009
X10.7483Y1.1584
X10.9452Y1.1781
X10.9467Y1.2009
X2.5405Y1.8509
X2.592Y1.9084
X2.7889Y1.9281
X2.7905Y1.9509
X0.0092Y3.3509
X0.0608Y3.4084
X0.2576Y3.4281
X0.2592Y3.4509
X0.0092Y1.8509
X0.0608Y1.9084
X0.2576Y1.9281
X0.2592Y1.9509
X4.6967Y1.1009
X4.7483Y1.1584
X4.9452Y1.1781
X4.9467Y1.2009
X12.6655Y0.3509
X12.717Y0.4084
X12.9139Y0.4281
X12.9155Y0.4509
X-0.7408Y2.6009
X-0.6892Y2.6584
X-0.4924Y2.6781
X-0.4908Y2.7009
X8.8217Y1.8509
X8.8733Y1.9084
X9.0701Y1.9281
X9.0717Y1.9509
X1.5092Y3.3509
X1.5608Y3.4084
X1.7576Y3.4281
X1.7592Y3.4509
T2
G00X0.0149Y3.8044
M15
G01X0.0149Y3.7808
M16
G05
G00X0.0149Y3.6497
M15
G01X0.0149Y3.6064
M16
G05
G00X0.3551Y3.8044
M15
G01X0.3551Y3.7808
M16
G05
G00X0.3551Y3.6497
M15
G01X0.3551Y3.6064
M16
G05
T0
M30
