M48
; DRILL file {KiCad (5.1.4)-1} date 7/18/2020 23:48:52
; FORMAT={-:-/ absolute / inch / decimal}
; #@! TF.CreationDate,2020-07-18T23:48:52-04:00
; #@! TF.GenerationSoftware,Kicad,Pcbnew,(5.1.4)-1
; #@! TF.FileFunction,NonPlated,1,2,NPTH
FMAT,2
INCH
T1C0.0256
T2C0.0689
T3C0.1200
T4C0.1570
%
G90
G05
T1
X0.0712Y3.6489
X0.2988Y3.6489
T2
X10.8342Y2.5009
X11.2342Y2.5009
X10.2717Y1.7509
X10.6717Y1.7509
X-0.7908Y1.0009
X-0.3908Y1.0009
X4.8342Y2.5009
X5.2342Y2.5009
X12.3342Y3.2509
X12.7342Y3.2509
X1.6592Y0.8259
X1.6592Y0.4259
X9.8967Y1.0009
X10.2967Y1.0009
X5.5842Y2.5009
X5.9842Y2.5009
X12.5217Y2.5009
X12.9217Y2.5009
X8.2092Y3.2509
X8.6092Y3.2509
X8.9592Y3.2509
X9.3592Y3.2509
X11.2092Y3.2509
X11.6092Y3.2509
X11.0217Y1.7509
X11.4217Y1.7509
X-0.7908Y1.7509
X-0.3908Y1.7509
X-0.7908Y3.2509
X-0.3908Y3.2509
X6.8967Y1.0009
X7.2967Y1.0009
X11.5842Y2.5009
X11.9842Y2.5009
X2.303Y0.2509
X2.703Y0.2509
X0.7092Y2.5009
X1.1092Y2.5009
X12.053Y1.0009
X12.453Y1.0009
X5.7717Y1.7509
X6.1717Y1.7509
X7.2717Y1.7509
X7.6717Y1.7509
X0.7092Y1.0009
X1.1092Y1.0009
X4.2717Y1.7509
X4.6717Y1.7509
X4.178Y0.2509
X4.578Y0.2509
X11.678Y0.2509
X12.078Y0.2509
X2.9592Y3.2509
X3.3592Y3.2509
X4.4592Y3.2509
X4.8592Y3.2509
X6.5217Y1.7509
X6.9217Y1.7509
X0.7092Y1.7509
X1.1092Y1.7509
X-0.4158Y0.2509
X-0.0158Y0.2509
X-0.0408Y2.5009
X0.3592Y2.5009
X2.3967Y2.5009
X2.7967Y2.5009
X3.2405Y0.2509
X3.6405Y0.2509
X0.7092Y0.2509
X1.1092Y0.2509
X9.3342Y2.5009
X9.7342Y2.5009
X-0.0408Y1.0009
X0.3592Y1.0009
X10.4592Y3.2509
X10.8592Y3.2509
X0.7092Y3.2509
X1.1092Y3.2509
X2.678Y1.0009
X3.078Y1.0009
X9.5217Y1.7509
X9.9217Y1.7509
X5.0217Y1.7509
X5.4217Y1.7509
X6.7092Y3.2509
X7.1092Y3.2509
X10.7405Y0.2509
X11.1405Y0.2509
X3.3342Y2.5009
X3.7342Y2.5009
X5.3967Y1.0009
X5.7967Y1.0009
X3.7092Y3.2509
X4.1092Y3.2509
X4.0842Y2.5009
X4.4842Y2.5009
X5.9592Y3.2509
X6.3592Y3.2509
X6.1467Y1.0009
X6.5467Y1.0009
X10.6467Y1.0009
X11.0467Y1.0009
X2.4905Y1.7509
X2.8905Y1.7509
X-0.0408Y3.2509
X0.3592Y3.2509
X-0.0408Y1.7509
X0.3592Y1.7509
X4.6467Y1.0009
X5.0467Y1.0009
X12.6155Y0.2509
X13.0155Y0.2509
X-0.7908Y2.5009
X-0.3908Y2.5009
X8.7717Y1.7509
X9.1717Y1.7509
X1.4592Y3.2509
X1.8592Y3.2509
X6.3342Y2.5009
X6.7342Y2.5009
X8.3967Y1.0009
X8.7967Y1.0009
X10.0842Y2.5009
X10.4842Y2.5009
X7.6467Y1.0009
X8.0467Y1.0009
X2.2092Y3.2509
X2.6092Y3.2509
X5.2092Y3.2509
X5.6092Y3.2509
X1.6592Y2.3259
X1.6592Y1.9259
X7.8342Y2.5009
X8.2342Y2.5009
X9.7092Y3.2509
X10.1092Y3.2509
X8.5842Y2.5009
X8.9842Y2.5009
X7.0842Y2.5009
X7.4842Y2.5009
X9.803Y0.2509
X10.203Y0.2509
X3.8967Y1.0009
X4.2967Y1.0009
X6.9905Y0.2509
X7.3905Y0.2509
X3.5217Y1.7509
X3.9217Y1.7509
X9.1467Y1.0009
X9.5467Y1.0009
X8.0217Y1.7509
X8.4217Y1.7509
X12.2405Y1.7509
X12.6405Y1.7509
X7.4592Y3.2509
X7.8592Y3.2509
T3
X1.3842Y2.5959
X1.3842Y1.6559
X5.222Y0.5259
X9.159Y0.5259
X11.9705Y2.0259
X12.9105Y2.0259
X12.0642Y3.5259
X13.0042Y3.5259
X1.3842Y1.0959
X1.3842Y0.1559
X11.783Y1.2759
X12.723Y1.2759
X-0.6858Y0.5259
X0.2542Y0.5259
X2.408Y1.2759
X3.348Y1.2759
T4
X6.5342Y2.5009
X8.5967Y1.0009
X10.2842Y2.5009
X7.8467Y1.0009
X2.4092Y3.2509
X5.4092Y3.2509
X1.6592Y2.1259
X1.9842Y2.5959
X1.9842Y1.6559
X8.0342Y2.5009
X9.9092Y3.2509
X8.7842Y2.5009
X7.2842Y2.5009
X10.003Y0.2509
X4.0967Y1.0009
X5.222Y-0.0741
X7.1905Y0.2509
X9.159Y-0.0741
X3.7217Y1.7509
X9.3467Y1.0009
X8.2217Y1.7509
X11.9705Y1.4259
X12.4405Y1.7509
X12.9105Y1.4259
X7.6592Y3.2509
X11.0342Y2.5009
X10.4717Y1.7509
X-0.5908Y1.0009
X5.0342Y2.5009
X12.0642Y2.9259
X12.5342Y3.2509
X13.0042Y2.9259
X1.6592Y0.6259
X1.9842Y1.0959
X1.9842Y0.1559
X10.0967Y1.0009
X5.7842Y2.5009
X12.7217Y2.5009
X8.4092Y3.2509
X9.1592Y3.2509
X11.4092Y3.2509
X11.2217Y1.7509
X-0.5908Y1.7509
X-0.5908Y3.2509
X7.0967Y1.0009
X11.7842Y2.5009
X2.503Y0.2509
X0.9092Y2.5009
X11.783Y0.6759
X12.253Y1.0009
X12.723Y0.6759
X5.9717Y1.7509
X7.4717Y1.7509
X0.9092Y1.0009
X4.4717Y1.7509
X4.378Y0.2509
X11.878Y0.2509
X3.1592Y3.2509
X4.6592Y3.2509
X6.7217Y1.7509
X0.9092Y1.7509
X-0.6858Y-0.0741
X-0.2158Y0.2509
X0.2542Y-0.0741
X0.1592Y2.5009
X2.5967Y2.5009
X3.4405Y0.2509
X0.9092Y0.2509
X9.5342Y2.5009
X0.1592Y1.0009
X10.6592Y3.2509
X0.9092Y3.2509
X2.408Y0.6759
X2.878Y1.0009
X3.348Y0.6759
X9.7217Y1.7509
X5.2217Y1.7509
X6.9092Y3.2509
X10.9405Y0.2509
X3.5342Y2.5009
X5.5967Y1.0009
X3.9092Y3.2509
X4.2842Y2.5009
X6.1592Y3.2509
X6.3467Y1.0009
X10.8467Y1.0009
X2.6905Y1.7509
X0.1592Y3.2509
X0.1592Y1.7509
X4.8467Y1.0009
X12.8155Y0.2509
X-0.5908Y2.5009
X8.9717Y1.7509
X1.6592Y3.2509
T0
M30
