G04 #@! TF.GenerationSoftware,KiCad,Pcbnew,(5.1.4)-1*
G04 #@! TF.CreationDate,2020-10-07T14:28:25-04:00*
G04 #@! TF.ProjectId,southpawplate,736f7574-6870-4617-9770-6c6174652e6b,rev?*
G04 #@! TF.SameCoordinates,Original*
G04 #@! TF.FileFunction,Profile,NP*
%FSLAX46Y46*%
G04 Gerber Fmt 4.6, Leading zero omitted, Abs format (unit mm)*
G04 Created by KiCad (PCBNEW (5.1.4)-1) date 2020-10-07 14:28:25*
%MOMM*%
%LPD*%
G04 APERTURE LIST*
%ADD10C,0.200000*%
%ADD11C,0.050000*%
G04 APERTURE END LIST*
D10*
X340162001Y-23200000D02*
X334162002Y-23162999D01*
X340662000Y-21662999D02*
X340662001Y-22700000D01*
X333662001Y-22663000D02*
X333662000Y-21663000D01*
X357038002Y-21162999D02*
X341162000Y-21162999D01*
X364538001Y-22663000D02*
X364538001Y-21662999D01*
X358038002Y-23162999D02*
X364038001Y-23163000D01*
X357538001Y-21663000D02*
X357538001Y-22663000D01*
X365625000Y-7663000D02*
X365625000Y-20662999D01*
X333075001Y-7163000D02*
X365125000Y-7163000D01*
X332575001Y-20662999D02*
X332575002Y-7662999D01*
X333162002Y-21163000D02*
X333075001Y-21162999D01*
X365038001Y-21162999D02*
X365125001Y-21163000D01*
X-8399999Y-51676001D02*
X-8400000Y-57676000D01*
X-6399999Y-34800000D02*
X-6400000Y-50675999D01*
X-8399999Y-27800000D02*
X-8400000Y-33800000D01*
X-6900000Y-27300000D02*
X-7899999Y-27300000D01*
X-6400000Y-26712999D02*
X-6399998Y-26800000D01*
X-6900000Y-58175999D02*
X-7899999Y-58176001D01*
X-6399999Y-58763000D02*
X-6399999Y-58676000D01*
X7100000Y-59263000D02*
X-5900000Y-59262999D01*
X7600001Y-26713000D02*
X7600001Y-58763001D01*
X-5899999Y-26213000D02*
X7100000Y-26212999D01*
X160368751Y-99363000D02*
X171125001Y-99363000D01*
X-7900000Y-34300000D02*
G75*
G02X-8400000Y-33800000I0J500000D01*
G01*
X64800001Y-96863000D02*
X64800001Y-83863000D01*
X-5900000Y-59262999D02*
G75*
G02X-6399999Y-58763000I0J499999D01*
G01*
X-8399999Y-51676001D02*
G75*
G02X-7900000Y-51176000I500000J1D01*
G01*
X32250001Y-97363000D02*
X32337001Y-97363000D01*
X-6399998Y-26800000D02*
G75*
G02X-6900000Y-27300000I-500001J1D01*
G01*
X-6899999Y-34300000D02*
G75*
G02X-6399999Y-34800000I0J-500000D01*
G01*
X-6400000Y-50675999D02*
G75*
G02X-6899999Y-51176000I-500000J-1D01*
G01*
X-7899999Y-34300000D02*
X-6900000Y-34300000D01*
X31750001Y-83863000D02*
X31750001Y-96863000D01*
X64300001Y-83363000D02*
X32250001Y-83363000D01*
X-6899999Y-51176000D02*
X-7900000Y-51176000D01*
X31750001Y-83863000D02*
G75*
G02X32250001Y-83363000I500000J0D01*
G01*
X-6900000Y-58175999D02*
G75*
G02X-6399999Y-58676000I0J-500001D01*
G01*
X-7899999Y-58176001D02*
G75*
G02X-8400000Y-57676000I0J500001D01*
G01*
X-8399999Y-27800000D02*
G75*
G02X-7899999Y-27300000I500000J0D01*
G01*
X7100000Y-26212999D02*
G75*
G02X7600001Y-26713000I0J-500001D01*
G01*
X64300001Y-83363000D02*
G75*
G02X64800001Y-83863000I0J-500000D01*
G01*
X32250001Y-97363000D02*
G75*
G02X31750001Y-96863000I0J500000D01*
G01*
X7600001Y-58763001D02*
G75*
G02X7100000Y-59263000I-500000J1D01*
G01*
X-6400000Y-26712999D02*
G75*
G02X-5899999Y-26213000I500000J-1D01*
G01*
X308475001Y-20662998D02*
G75*
G02X307975001Y-21163000I-500001J-1D01*
G01*
X307975001Y-7162999D02*
X294975001Y-7163000D01*
X313525001Y-7663000D02*
G75*
G02X314025001Y-7163000I500000J0D01*
G01*
X39837001Y-98863000D02*
G75*
G02X39337001Y-99363000I-500000J0D01*
G01*
X63713001Y-97863000D02*
G75*
G02X64213001Y-97363000I500000J0D01*
G01*
X64800000Y-96862999D02*
G75*
G02X64300001Y-97363000I-500000J-1D01*
G01*
X64213001Y-97363000D02*
X64300001Y-97363000D01*
X327025001Y-7163000D02*
X314025001Y-7163000D01*
X63713001Y-98863000D02*
X63713001Y-97862999D01*
X358038002Y-23162999D02*
G75*
G02X357538001Y-22663000I-1J500000D01*
G01*
X33337001Y-99363000D02*
X39337001Y-99363000D01*
X33337000Y-99362999D02*
G75*
G02X32837001Y-98863000I0J499999D01*
G01*
X277806251Y-83863000D02*
X277806251Y-98863000D01*
X57213001Y-99363000D02*
X63213001Y-99363000D01*
X364538001Y-22663000D02*
G75*
G02X364038001Y-23163000I-500000J0D01*
G01*
X291306251Y-83363000D02*
G75*
G02X291806251Y-83863000I0J-500000D01*
G01*
X291306251Y-83363000D02*
X278306251Y-83363000D01*
X365625000Y-20662999D02*
G75*
G02X365125001Y-21163000I-500000J-1D01*
G01*
X327025000Y-7162999D02*
G75*
G02X327525001Y-7663000I0J-500001D01*
G01*
X334162002Y-23162999D02*
G75*
G02X333662001Y-22663000I-1J500000D01*
G01*
X332575002Y-7662999D02*
G75*
G02X333075001Y-7163000I499999J0D01*
G01*
X39837001Y-97863000D02*
G75*
G02X40337001Y-97363000I500000J0D01*
G01*
X32337000Y-97362999D02*
G75*
G02X32837001Y-97863000I0J-500001D01*
G01*
X333162002Y-21163000D02*
G75*
G02X333662000Y-21663000I-1J-499999D01*
G01*
X364538001Y-21662999D02*
G75*
G02X365038001Y-21162999I500000J0D01*
G01*
X278306251Y-99363000D02*
X291306251Y-99363000D01*
X291806251Y-98863000D02*
X291806251Y-83863000D01*
X327525001Y-20663000D02*
G75*
G02X327025001Y-21163000I-500000J0D01*
G01*
X291806251Y-98863000D02*
G75*
G02X291306251Y-99363000I-500000J0D01*
G01*
X327525001Y-20662999D02*
X327525001Y-7663000D01*
X294475001Y-7663000D02*
G75*
G02X294975001Y-7163000I500000J0D01*
G01*
X63713001Y-98863000D02*
G75*
G02X63213001Y-99363000I-500000J0D01*
G01*
X57213001Y-99363000D02*
G75*
G02X56713001Y-98863000I0J500000D01*
G01*
X307975002Y-7162999D02*
G75*
G02X308475001Y-7663000I-1J-500000D01*
G01*
X56713001Y-97863000D02*
X56713001Y-98863000D01*
X56213000Y-97362999D02*
G75*
G02X56713001Y-97863000I0J-500001D01*
G01*
X40337001Y-97363000D02*
X56213001Y-97363000D01*
X39837001Y-98863000D02*
X39837001Y-97863000D01*
X357038002Y-21162999D02*
G75*
G02X357538001Y-21663000I-1J-500000D01*
G01*
X340662001Y-22700000D02*
G75*
G02X340162001Y-23200000I-500000J0D01*
G01*
X340662000Y-21662999D02*
G75*
G02X341162000Y-21162999I500000J0D01*
G01*
X314025001Y-21163000D02*
X327025001Y-21163000D01*
X277806251Y-83863000D02*
G75*
G02X278306251Y-83363000I500000J0D01*
G01*
X314024999Y-21162999D02*
G75*
G02X313525001Y-20662999I1J499999D01*
G01*
X32837001Y-97863000D02*
X32837001Y-98863000D01*
X333075001Y-21162999D02*
G75*
G02X332575001Y-20662999I0J500000D01*
G01*
X294475001Y-7663000D02*
X294475001Y-20662999D01*
X294974999Y-21162999D02*
G75*
G02X294475001Y-20662999I1J499999D01*
G01*
X294975001Y-21163000D02*
X307975001Y-21163000D01*
X278306251Y-99363000D02*
G75*
G02X277806251Y-98863000I0J500000D01*
G01*
X365125000Y-7163000D02*
G75*
G02X365625000Y-7663000I0J-500000D01*
G01*
X313525001Y-7663000D02*
X313525001Y-20662999D01*
X156075001Y-20663000D02*
G75*
G02X155575001Y-21163000I-500000J0D01*
G01*
X180175001Y-7663000D02*
G75*
G02X180675001Y-7163000I500000J0D01*
G01*
X175125001Y-20662999D02*
X175125001Y-7663000D01*
X212725001Y-7162999D02*
X199725001Y-7163000D01*
X161624999Y-21162999D02*
G75*
G02X161125001Y-20662999I1J499999D01*
G01*
X288925001Y-7163000D02*
X275925001Y-7163000D01*
X275425001Y-7663000D02*
G75*
G02X275925001Y-7163000I500000J0D01*
G01*
X256874999Y-21162999D02*
G75*
G02X256375001Y-20662999I1J499999D01*
G01*
X194175001Y-20662999D02*
X194175001Y-7663000D01*
X142575001Y-21162999D02*
G75*
G02X142075001Y-20662999I0J500000D01*
G01*
X270375001Y-20662999D02*
X270375001Y-7663000D01*
X275924999Y-21162999D02*
G75*
G02X275425001Y-20662999I1J499999D01*
G01*
X155575002Y-7162999D02*
G75*
G02X156075001Y-7663000I-1J-500000D01*
G01*
X199724999Y-21162999D02*
G75*
G02X199225001Y-20662999I1J499999D01*
G01*
X288925002Y-7162999D02*
G75*
G02X289425001Y-7663000I-1J-500000D01*
G01*
X174625001Y-7162999D02*
X161625001Y-7163000D01*
X256875001Y-21163000D02*
X269875001Y-21163000D01*
X194175001Y-20662998D02*
G75*
G02X193675001Y-21163000I-500001J-1D01*
G01*
X269875002Y-7162999D02*
G75*
G02X270375001Y-7663000I-1J-500000D01*
G01*
X142575001Y-21163000D02*
X155575001Y-21163000D01*
X232275001Y-20662999D02*
X232275001Y-7663000D01*
X161625001Y-21163000D02*
X174625001Y-21163000D01*
X308475001Y-20662999D02*
X308475001Y-7663000D01*
X237325001Y-7663000D02*
X237325001Y-20662999D01*
X250825001Y-7163000D02*
X237825001Y-7163000D01*
X289425001Y-20662998D02*
G75*
G02X288925001Y-21163000I-500001J-1D01*
G01*
X231775002Y-7162999D02*
G75*
G02X232275001Y-7663000I-1J-500000D01*
G01*
X275925001Y-21163000D02*
X288925001Y-21163000D01*
X289425001Y-20662999D02*
X289425001Y-7663000D01*
X231775001Y-7163000D02*
X218775001Y-7163000D01*
X237325001Y-7663000D02*
G75*
G02X237825001Y-7163000I500000J0D01*
G01*
X232275002Y-20662999D02*
G75*
G02X231775001Y-21163000I-500001J0D01*
G01*
X269875001Y-7163000D02*
X256875001Y-7163000D01*
X218275001Y-7663000D02*
G75*
G02X218775001Y-7163000I500000J0D01*
G01*
X213225001Y-20662998D02*
G75*
G02X212725001Y-21163000I-500001J-1D01*
G01*
X193675001Y-7162999D02*
X180675001Y-7163000D01*
X193675002Y-7162999D02*
G75*
G02X194175001Y-7663000I-1J-500000D01*
G01*
X161125001Y-7663000D02*
X161125001Y-20662999D01*
X161125001Y-7663000D02*
G75*
G02X161625001Y-7163000I500000J0D01*
G01*
X275425001Y-7663000D02*
X275425001Y-20662999D01*
X237825000Y-21163000D02*
G75*
G02X237325001Y-20662999I1J500000D01*
G01*
X180674999Y-21162999D02*
G75*
G02X180175001Y-20662999I1J499999D01*
G01*
X213225001Y-20662999D02*
X213225001Y-7663000D01*
X270375001Y-20662998D02*
G75*
G02X269875001Y-21163000I-500001J-1D01*
G01*
X199225001Y-7663000D02*
G75*
G02X199725001Y-7163000I500000J0D01*
G01*
X237825001Y-21163000D02*
X250825001Y-21163000D01*
X256375001Y-7663000D02*
X256375001Y-20662999D01*
X250825002Y-7162999D02*
G75*
G02X251325001Y-7663000I-1J-500000D01*
G01*
X256375001Y-7663000D02*
G75*
G02X256875001Y-7163000I500000J0D01*
G01*
X174625002Y-7162999D02*
G75*
G02X175125001Y-7663000I-1J-500000D01*
G01*
X218775001Y-21163000D02*
X231775001Y-21163000D01*
X218275001Y-7663000D02*
X218275001Y-20662999D01*
X212725002Y-7162999D02*
G75*
G02X213225001Y-7663000I-1J-500000D01*
G01*
X180675001Y-21163000D02*
X193675001Y-21163000D01*
X142075001Y-7663000D02*
X142075001Y-20662999D01*
X175125001Y-20662998D02*
G75*
G02X174625001Y-21163000I-500001J-1D01*
G01*
X251325001Y-20662999D02*
X251325001Y-7663000D01*
X199225001Y-7663000D02*
X199225001Y-20662999D01*
X180175001Y-7663000D02*
X180175001Y-20662999D01*
X155575001Y-7162999D02*
X142575001Y-7163000D01*
X251325002Y-20662999D02*
G75*
G02X250825001Y-21163000I-500001J0D01*
G01*
X218775000Y-21163000D02*
G75*
G02X218275001Y-20662999I1J500000D01*
G01*
X199725001Y-21163000D02*
X212725001Y-21163000D01*
X142075001Y-7663000D02*
G75*
G02X142575001Y-7163000I500000J0D01*
G01*
X117975001Y-20662999D02*
X117975001Y-7663000D01*
X26650001Y-20662999D02*
X26650001Y-7663000D01*
X7600001Y-20662999D02*
X7600001Y-7663000D01*
X320381251Y-77813000D02*
G75*
G02X319881251Y-78313000I-500000J0D01*
G01*
X-6399999Y-7663000D02*
G75*
G02X-5899999Y-7163000I500000J0D01*
G01*
X103975001Y-7663000D02*
X103975001Y-20662999D01*
X98925001Y-20663000D02*
G75*
G02X98425001Y-21163000I-500000J0D01*
G01*
X12650001Y-7663000D02*
X12650001Y-20662999D01*
X137025001Y-20663000D02*
G75*
G02X136525001Y-21163000I-500000J0D01*
G01*
X123525001Y-21162999D02*
G75*
G02X123025001Y-20662999I0J500000D01*
G01*
X26150002Y-7162999D02*
G75*
G02X26650001Y-7663000I-1J-500000D01*
G01*
X123025001Y-7663000D02*
X123025001Y-20662999D01*
X123025001Y-7663000D02*
G75*
G02X123525001Y-7163000I500000J0D01*
G01*
X136525001Y-7162999D02*
X123525001Y-7163000D01*
X31700001Y-7663000D02*
X31700001Y-20662999D01*
X26150001Y-7163000D02*
X13150001Y-7163000D01*
X85425001Y-21163000D02*
X98425001Y-21163000D01*
X31700001Y-7663000D02*
G75*
G02X32200001Y-7163000I500000J0D01*
G01*
X136525002Y-7162999D02*
G75*
G02X137025001Y-7663000I-1J-500000D01*
G01*
X13150001Y-21163000D02*
X26150001Y-21163000D01*
X-6399999Y-7663000D02*
X-6399999Y-20662999D01*
X299737500Y-78312999D02*
G75*
G02X299237501Y-77813000I0J499999D01*
G01*
X32200001Y-21162999D02*
G75*
G02X31700001Y-20662999I0J500000D01*
G01*
X299737501Y-78313000D02*
X319881251Y-78313000D01*
X104475001Y-21163000D02*
X117475001Y-21163000D01*
X104475001Y-21162999D02*
G75*
G02X103975001Y-20662999I0J500000D01*
G01*
X51250001Y-21162999D02*
X64250001Y-21163000D01*
X-5899999Y-21162999D02*
G75*
G02X-6399999Y-20662999I0J500000D01*
G01*
X117475001Y-7163000D02*
G75*
G02X117975001Y-7663000I0J-500000D01*
G01*
X7100000Y-7162999D02*
X-5899999Y-7163000D01*
X103975002Y-7662999D02*
G75*
G02X104475001Y-7163000I499999J0D01*
G01*
X45200001Y-7163000D02*
X32200001Y-7163000D01*
X7100000Y-7162999D02*
G75*
G02X7600001Y-7663000I0J-500001D01*
G01*
X319881250Y-64313000D02*
G75*
G02X320381250Y-64813000I0J-500000D01*
G01*
X299237501Y-64813000D02*
G75*
G02X299737501Y-64313000I500000J0D01*
G01*
X85425001Y-21162999D02*
G75*
G02X84925001Y-20662999I0J500000D01*
G01*
X84925001Y-7663000D02*
X84925001Y-20662999D01*
X13150000Y-21163000D02*
G75*
G02X12650001Y-20662999I1J500000D01*
G01*
X50750002Y-7662999D02*
G75*
G02X51250001Y-7163000I499999J0D01*
G01*
X51250000Y-21163000D02*
G75*
G02X50750001Y-20662999I1J500000D01*
G01*
X117475001Y-7163000D02*
X104475001Y-7163000D01*
X84925001Y-7662998D02*
G75*
G02X85425001Y-7163000I499999J-1D01*
G01*
X98425001Y-7163000D02*
G75*
G02X98925001Y-7663000I0J-500000D01*
G01*
X64750001Y-20662999D02*
X64750001Y-7663000D01*
X-5899999Y-21163000D02*
X7100000Y-21163000D01*
X12650002Y-7662999D02*
G75*
G02X13150001Y-7163000I499999J0D01*
G01*
X64750002Y-20662999D02*
G75*
G02X64250001Y-21163000I-500001J0D01*
G01*
X7600001Y-20662999D02*
G75*
G02X7100000Y-21163000I-500001J0D01*
G01*
X50750001Y-7663000D02*
X50750001Y-20662999D01*
X64250001Y-7163000D02*
X51250001Y-7163000D01*
X320381250Y-77813000D02*
X320381250Y-64813000D01*
X45700001Y-20663000D02*
G75*
G02X45200001Y-21163000I-500000J0D01*
G01*
X32200001Y-21162999D02*
X45200001Y-21163000D01*
X64250001Y-7163000D02*
G75*
G02X64750001Y-7663000I0J-500000D01*
G01*
X299237501Y-64813000D02*
X299237501Y-77813000D01*
X156075001Y-20662999D02*
X156075001Y-7663000D01*
X137025001Y-20662999D02*
X137025001Y-7663000D01*
X98425001Y-7162999D02*
X85425001Y-7163000D01*
X98925001Y-20662999D02*
X98925001Y-7663000D01*
X45700001Y-20662999D02*
X45700001Y-7663000D01*
X123525001Y-21163000D02*
X136525001Y-21163000D01*
X26650002Y-20662999D02*
G75*
G02X26150001Y-21163000I-500001J0D01*
G01*
X117975002Y-20662999D02*
G75*
G02X117475001Y-21163000I-500001J0D01*
G01*
X45200002Y-7162999D02*
G75*
G02X45700001Y-7663000I-1J-500000D01*
G01*
X103687501Y-96863000D02*
G75*
G02X103187501Y-97363000I-500000J0D01*
G01*
X266868751Y-98863000D02*
G75*
G02X266368751Y-99363000I-500000J0D01*
G01*
X127000000Y-83363000D02*
X111618751Y-83363000D01*
X171625001Y-98863000D02*
X171625001Y-84863000D01*
X266368752Y-84362999D02*
G75*
G02X266868751Y-84863000I-1J-500000D01*
G01*
X319881251Y-64313000D02*
X299737501Y-64313000D01*
X294187502Y-77812999D02*
G75*
G02X293687501Y-78313000I-500001J0D01*
G01*
X280687501Y-78313000D02*
X293687501Y-78313000D01*
X259868751Y-84863000D02*
X259868751Y-98863000D01*
X280187501Y-64813000D02*
G75*
G02X280687501Y-64313000I500000J0D01*
G01*
X231775001Y-83363000D02*
X206868751Y-83363000D01*
X231775002Y-83362999D02*
G75*
G02X232275001Y-83863000I-1J-500000D01*
G01*
X232275001Y-96863000D02*
X232275001Y-83863000D01*
X134931252Y-83862999D02*
G75*
G02X135431251Y-83363000I499999J0D01*
G01*
X293687502Y-64312999D02*
G75*
G02X294187501Y-64813000I-1J-500000D01*
G01*
X280687501Y-78313000D02*
G75*
G02X280187501Y-77813000I0J500000D01*
G01*
X280187501Y-64813000D02*
X280187501Y-77813000D01*
X160368751Y-99363000D02*
G75*
G02X159868751Y-98863000I0J500000D01*
G01*
X127000000Y-83363000D02*
G75*
G02X127500000Y-83863000I0J-500000D01*
G01*
X206368751Y-83863000D02*
X206368751Y-96863000D01*
X135431251Y-97363000D02*
X150812501Y-97363000D01*
X266368751Y-84362999D02*
X260368751Y-84363000D01*
X103187501Y-83363000D02*
G75*
G02X103687501Y-83863000I0J-500000D01*
G01*
X103187501Y-83363000D02*
X87806251Y-83363000D01*
X26650001Y-96863000D02*
X26650001Y-83863000D01*
X111118751Y-83863000D02*
X111118751Y-96863000D01*
X151312502Y-96862999D02*
G75*
G02X150812501Y-97363000I-500001J0D01*
G01*
X206868751Y-97363000D02*
X231775001Y-97363000D01*
X87806251Y-97363000D02*
G75*
G02X87306251Y-96863000I0J500000D01*
G01*
X151312501Y-96863000D02*
X151312501Y-83863000D01*
X26150001Y-83363000D02*
G75*
G02X26650001Y-83863000I0J-500000D01*
G01*
X13150001Y-97363000D02*
G75*
G02X12650001Y-96863000I0J500000D01*
G01*
X293687501Y-64313000D02*
X280687501Y-64313000D01*
X150812501Y-83363000D02*
G75*
G02X151312501Y-83863000I0J-500000D01*
G01*
X127500000Y-96863000D02*
G75*
G02X127000000Y-97363000I-500000J0D01*
G01*
X260368751Y-99363000D02*
X266368751Y-99363000D01*
X111618751Y-97363000D02*
X127000000Y-97363000D01*
X135431251Y-97363000D02*
G75*
G02X134931251Y-96863000I0J500000D01*
G01*
X260368751Y-99363000D02*
G75*
G02X259868751Y-98863000I0J500000D01*
G01*
X87306251Y-83862998D02*
G75*
G02X87806251Y-83363000I499999J-1D01*
G01*
X111618752Y-97362999D02*
G75*
G02X111118751Y-96863000I-1J500000D01*
G01*
X159868751Y-84863000D02*
G75*
G02X160368751Y-84363000I500000J0D01*
G01*
X87306251Y-83863000D02*
X87306251Y-96863000D01*
X171125002Y-84362999D02*
G75*
G02X171625001Y-84863000I-1J-500000D01*
G01*
X111118751Y-83862998D02*
G75*
G02X111618751Y-83363000I499999J-1D01*
G01*
X232275001Y-96863000D02*
G75*
G02X231775001Y-97363000I-500000J0D01*
G01*
X26650002Y-96862999D02*
G75*
G02X26150001Y-97363000I-500001J0D01*
G01*
X87806251Y-97363000D02*
X103187501Y-97363000D01*
X103687501Y-96863000D02*
X103687501Y-83863000D01*
X12650001Y-83863000D02*
X12650001Y-96863000D01*
X26150001Y-83363000D02*
X13150001Y-83363000D01*
X171625001Y-98863000D02*
G75*
G02X171125001Y-99363000I-500000J0D01*
G01*
X206868750Y-97362999D02*
G75*
G02X206368751Y-96863000I0J499999D01*
G01*
X159868751Y-84863000D02*
X159868751Y-98863000D01*
X259868751Y-84863000D02*
G75*
G02X260368751Y-84363000I500000J0D01*
G01*
X206368751Y-83863000D02*
G75*
G02X206868751Y-83363000I500000J0D01*
G01*
X13150001Y-97363000D02*
X26150001Y-97363000D01*
X171125001Y-84362999D02*
X160368751Y-84363000D01*
X150812501Y-83363000D02*
X135431251Y-83363000D01*
X294187501Y-77813000D02*
X294187501Y-64813000D01*
X12650001Y-83862998D02*
G75*
G02X13150001Y-83363000I499999J-1D01*
G01*
X134931251Y-83863000D02*
X134931251Y-96863000D01*
X127500000Y-96863000D02*
X127500000Y-83863000D01*
X64250001Y-26213000D02*
X51250001Y-26213000D01*
X90187501Y-40213000D02*
X103187501Y-40213000D01*
X223537501Y-78313000D02*
X236537501Y-78313000D01*
X266868751Y-98863000D02*
X266868751Y-84863000D01*
X223037501Y-64813000D02*
G75*
G02X223537501Y-64313000I500000J0D01*
G01*
X274637501Y-64313000D02*
X261637500Y-64313000D01*
X242587501Y-78313000D02*
X255587501Y-78313000D01*
X90187501Y-40212999D02*
G75*
G02X89687500Y-39713000I-1J500000D01*
G01*
X64750001Y-39713000D02*
X64750001Y-26713000D01*
X133050002Y-40212999D02*
G75*
G02X132550001Y-39713000I-1J500000D01*
G01*
X236537502Y-64312999D02*
G75*
G02X237037501Y-64813000I-1J-500000D01*
G01*
X256087502Y-77812999D02*
G75*
G02X255587501Y-78313000I-500001J0D01*
G01*
X133050001Y-40213000D02*
X146050001Y-40213000D01*
X255587501Y-64313000D02*
X242587501Y-64313000D01*
X237037501Y-77813000D02*
X237037501Y-64813000D01*
X127000000Y-26212999D02*
X114000001Y-26213000D01*
X89687500Y-26713000D02*
X89687500Y-39713000D01*
X64750001Y-39713000D02*
G75*
G02X64250001Y-40213000I-500000J0D01*
G01*
X223037501Y-64813000D02*
X223037501Y-77813000D01*
X64250001Y-26213000D02*
G75*
G02X64750001Y-26713000I0J-500000D01*
G01*
X237037501Y-77812998D02*
G75*
G02X236537501Y-78313000I-500001J-1D01*
G01*
X223537500Y-78312999D02*
G75*
G02X223037501Y-77813000I0J499999D01*
G01*
X113500002Y-26712999D02*
G75*
G02X114000001Y-26213000I499999J0D01*
G01*
X236537501Y-64313000D02*
X223537501Y-64313000D01*
X255587502Y-64312999D02*
G75*
G02X256087501Y-64813000I-1J-500000D01*
G01*
X256087501Y-77813000D02*
X256087501Y-64813000D01*
X242587501Y-78313000D02*
G75*
G02X242087501Y-77813000I0J500000D01*
G01*
X84087501Y-26713000D02*
X84087501Y-39713000D01*
X103687501Y-39713000D02*
G75*
G02X103187501Y-40213000I-500000J0D01*
G01*
X242087501Y-64813000D02*
X242087501Y-77813000D01*
X274637501Y-64313000D02*
G75*
G02X275137501Y-64813000I0J-500000D01*
G01*
X242087501Y-64813000D02*
G75*
G02X242587501Y-64313000I500000J0D01*
G01*
X275137501Y-77813000D02*
X275137501Y-64813000D01*
X275137501Y-77812998D02*
G75*
G02X274637501Y-78313000I-500001J-1D01*
G01*
X51250001Y-40213000D02*
X64250001Y-40213000D01*
X89687500Y-26712999D02*
G75*
G02X90187501Y-26213000I500000J-1D01*
G01*
X261637500Y-78313000D02*
X274637501Y-78313000D01*
X103187501Y-26212999D02*
X90187501Y-26213000D01*
X127000001Y-26212999D02*
G75*
G02X127500000Y-26713000I-1J-500000D01*
G01*
X84087501Y-26713000D02*
G75*
G02X84587501Y-26213000I500000J0D01*
G01*
X261137500Y-64813000D02*
G75*
G02X261637500Y-64313000I500000J0D01*
G01*
X103187502Y-26212999D02*
G75*
G02X103687501Y-26713000I-1J-500000D01*
G01*
X103687501Y-39713000D02*
X103687501Y-26713000D01*
X114000001Y-40213000D02*
X127000000Y-40213000D01*
X261137500Y-64813000D02*
X261137500Y-77813000D01*
X85587502Y-26212999D02*
G75*
G02X86087501Y-26713000I-1J-500000D01*
G01*
X86087501Y-39713000D02*
G75*
G02X85587501Y-40213000I-500000J0D01*
G01*
X132550001Y-26713000D02*
X132550001Y-39713000D01*
X84587502Y-40212999D02*
G75*
G02X84087501Y-39713000I-1J500000D01*
G01*
X85587501Y-26212999D02*
X84587501Y-26213000D01*
X127500000Y-39713000D02*
X127500000Y-26713000D01*
X114000001Y-40213000D02*
G75*
G02X113500001Y-39713000I0J500000D01*
G01*
X113500001Y-26713000D02*
X113500001Y-39713000D01*
X127500000Y-39713000D02*
G75*
G02X127000000Y-40213000I-500000J0D01*
G01*
X146050002Y-26212999D02*
G75*
G02X146550001Y-26713000I-1J-500000D01*
G01*
X261637500Y-78313000D02*
G75*
G02X261137500Y-77813000I0J500000D01*
G01*
X86087501Y-39713000D02*
X86087501Y-26713000D01*
X84587501Y-40213000D02*
X85587501Y-40213000D01*
X50750001Y-26713000D02*
X50750001Y-39713000D01*
X146550001Y-39713000D02*
G75*
G02X146050001Y-40213000I-500000J0D01*
G01*
X50750001Y-26712998D02*
G75*
G02X51250001Y-26213000I499999J-1D01*
G01*
X132550001Y-26713000D02*
G75*
G02X133050001Y-26213000I500000J0D01*
G01*
X51250001Y-40213000D02*
G75*
G02X50750001Y-39713000I0J500000D01*
G01*
X146550001Y-39713000D02*
X146550001Y-26713000D01*
X151600001Y-26713000D02*
X151600001Y-39713000D01*
X184650001Y-39712998D02*
G75*
G02X184150001Y-40213000I-500001J-1D01*
G01*
X266400001Y-40213000D02*
G75*
G02X265900001Y-39713000I0J500000D01*
G01*
X165600001Y-39713000D02*
X165600001Y-26713000D01*
X170650001Y-26713000D02*
G75*
G02X171150001Y-26213000I500000J0D01*
G01*
X279400002Y-26212999D02*
G75*
G02X279900001Y-26713000I-1J-500000D01*
G01*
X171150001Y-40213000D02*
G75*
G02X170650001Y-39713000I0J500000D01*
G01*
X165600001Y-39712998D02*
G75*
G02X165100001Y-40213000I-500001J-1D01*
G01*
X146050001Y-26212999D02*
X133050001Y-26213000D01*
X26150001Y-26213000D02*
G75*
G02X26650001Y-26713000I0J-500000D01*
G01*
X266400001Y-40213000D02*
X279400001Y-40213000D01*
X26650001Y-39713000D02*
X26650001Y-26713000D01*
X26650001Y-39713000D02*
G75*
G02X26150001Y-40213000I-500000J0D01*
G01*
X13150001Y-40213000D02*
X26150001Y-40213000D01*
X203700002Y-39712999D02*
G75*
G02X203200001Y-40213000I-500001J0D01*
G01*
X279900002Y-39712999D02*
G75*
G02X279400001Y-40213000I-500001J0D01*
G01*
X31700001Y-26713000D02*
G75*
G02X32200001Y-26213000I500000J0D01*
G01*
X190200001Y-40213000D02*
X203200001Y-40213000D01*
X13150001Y-40213000D02*
G75*
G02X12650001Y-39713000I0J500000D01*
G01*
X152100001Y-40213000D02*
X165100001Y-40213000D01*
X203200002Y-26212999D02*
G75*
G02X203700001Y-26713000I-1J-500000D01*
G01*
X165100002Y-26212999D02*
G75*
G02X165600001Y-26713000I-1J-500000D01*
G01*
X222250001Y-26212999D02*
X209250001Y-26213000D01*
X12650001Y-26713000D02*
X12650001Y-39713000D01*
X12650001Y-26713000D02*
G75*
G02X13150001Y-26213000I500000J0D01*
G01*
X26150001Y-26213000D02*
X13150001Y-26213000D01*
X108787501Y-26213000D02*
G75*
G02X109287501Y-26713000I0J-500000D01*
G01*
X279400001Y-26212999D02*
X266400001Y-26213000D01*
X32200001Y-40213000D02*
X45200001Y-40213000D01*
X45200001Y-26213000D02*
G75*
G02X45700001Y-26713000I0J-500000D01*
G01*
X45700001Y-39713000D02*
X45700001Y-26713000D01*
X45200001Y-26213000D02*
X32200001Y-26213000D01*
X190200001Y-40213000D02*
G75*
G02X189700001Y-39713000I0J500000D01*
G01*
X152100002Y-40212999D02*
G75*
G02X151600001Y-39713000I-1J500000D01*
G01*
X184650001Y-39713000D02*
X184650001Y-26713000D01*
X109287501Y-39713000D02*
G75*
G02X108787501Y-40213000I-500000J0D01*
G01*
X203700001Y-39713000D02*
X203700001Y-26713000D01*
X171150001Y-40213000D02*
X184150001Y-40213000D01*
X222750001Y-39713000D02*
X222750001Y-26713000D01*
X109287501Y-39713000D02*
X109287501Y-26713000D01*
X45700001Y-39713000D02*
G75*
G02X45200001Y-40213000I-500000J0D01*
G01*
X32200001Y-40213000D02*
G75*
G02X31700001Y-39713000I0J500000D01*
G01*
X107787501Y-40213000D02*
X108787501Y-40213000D01*
X209250001Y-40213000D02*
G75*
G02X208750001Y-39713000I0J500000D01*
G01*
X265900001Y-26713000D02*
G75*
G02X266400001Y-26213000I500000J0D01*
G01*
X279900001Y-39713000D02*
X279900001Y-26713000D01*
X107287501Y-26713000D02*
X107287501Y-39713000D01*
X265900001Y-26713000D02*
X265900001Y-39713000D01*
X108787501Y-26212999D02*
X107787501Y-26213000D01*
X222250002Y-26212999D02*
G75*
G02X222750001Y-26713000I-1J-500000D01*
G01*
X222750002Y-39712999D02*
G75*
G02X222250001Y-40213000I-500001J0D01*
G01*
X208750001Y-26713000D02*
X208750001Y-39713000D01*
X208750001Y-26713000D02*
G75*
G02X209250001Y-26213000I500000J0D01*
G01*
X107787502Y-40212999D02*
G75*
G02X107287501Y-39713000I-1J500000D01*
G01*
X209250001Y-40213000D02*
X222250001Y-40213000D01*
X107287501Y-26713000D02*
G75*
G02X107787501Y-26213000I500000J0D01*
G01*
X189700001Y-26713000D02*
G75*
G02X190200001Y-26213000I500000J0D01*
G01*
X165100001Y-26212999D02*
X152100001Y-26213000D01*
X184150002Y-26212999D02*
G75*
G02X184650001Y-26713000I-1J-500000D01*
G01*
X170650001Y-26713000D02*
X170650001Y-39713000D01*
X151600001Y-26713000D02*
G75*
G02X152100001Y-26213000I500000J0D01*
G01*
X203200001Y-26213000D02*
X190200001Y-26213000D01*
X31700001Y-26713000D02*
X31700001Y-39713000D01*
X189700001Y-26713000D02*
X189700001Y-39713000D01*
X247350001Y-40213000D02*
X260350001Y-40213000D01*
X64750001Y-58763000D02*
X64750001Y-45763000D01*
X304500001Y-40213000D02*
G75*
G02X304000001Y-39713000I0J500000D01*
G01*
X364962502Y-40212999D02*
G75*
G02X364462501Y-39713000I-1J500000D01*
G01*
X64250001Y-45263000D02*
X51250001Y-45263000D01*
X298950002Y-39712999D02*
G75*
G02X298450001Y-40213000I-500001J0D01*
G01*
X13150001Y-59263000D02*
X26150001Y-59263000D01*
X12650001Y-45763000D02*
G75*
G02X13150001Y-45263000I500000J0D01*
G01*
X51250001Y-59263000D02*
G75*
G02X50750001Y-58763000I0J500000D01*
G01*
X184150001Y-26213000D02*
X171150001Y-26213000D01*
X298450001Y-26212999D02*
X285450001Y-26213000D01*
X298450002Y-26212999D02*
G75*
G02X298950001Y-26713000I-1J-500000D01*
G01*
X304000001Y-26713000D02*
G75*
G02X304500001Y-26213000I500000J0D01*
G01*
X45200001Y-45263000D02*
X32200001Y-45263000D01*
X285450001Y-40213000D02*
X298450001Y-40213000D01*
X318000001Y-39713000D02*
G75*
G02X317500001Y-40213000I-500000J0D01*
G01*
X285450001Y-40213000D02*
G75*
G02X284950001Y-39713000I0J500000D01*
G01*
X365962501Y-26213000D02*
X364962501Y-26213000D01*
X284950001Y-26713000D02*
G75*
G02X285450001Y-26213000I500000J0D01*
G01*
X246850001Y-26713000D02*
X246850001Y-39713000D01*
X32200001Y-59263000D02*
G75*
G02X31700001Y-58763000I0J500000D01*
G01*
X50750001Y-45763000D02*
G75*
G02X51250001Y-45263000I500000J0D01*
G01*
X241300002Y-26212999D02*
G75*
G02X241800001Y-26713000I-1J-500000D01*
G01*
X26650001Y-58763000D02*
G75*
G02X26150001Y-59263000I-500000J0D01*
G01*
X241800002Y-39712999D02*
G75*
G02X241300001Y-40213000I-500001J0D01*
G01*
X284950001Y-26713000D02*
X284950001Y-39713000D01*
X32200001Y-59263000D02*
X45200001Y-59263000D01*
X260850002Y-39712999D02*
G75*
G02X260350001Y-40213000I-500001J0D01*
G01*
X247350001Y-40213000D02*
G75*
G02X246850001Y-39713000I0J500000D01*
G01*
X45700001Y-58763000D02*
G75*
G02X45200001Y-59263000I-500000J0D01*
G01*
X241800001Y-39713000D02*
X241800001Y-26713000D01*
X227800001Y-26713000D02*
X227800001Y-39713000D01*
X45700001Y-58763000D02*
X45700001Y-45763000D01*
X26150001Y-45263000D02*
G75*
G02X26650001Y-45763000I0J-500000D01*
G01*
X31700001Y-45763000D02*
X31700001Y-58763000D01*
X64750001Y-58763000D02*
G75*
G02X64250001Y-59263000I-500000J0D01*
G01*
X51250001Y-59263000D02*
X64250001Y-59263000D01*
X317500001Y-26213000D02*
G75*
G02X318000001Y-26713000I0J-500000D01*
G01*
X318000001Y-39713000D02*
X318000001Y-26713000D01*
X260850001Y-39713000D02*
X260850001Y-26713000D01*
X260350002Y-26212999D02*
G75*
G02X260850001Y-26713000I-1J-500000D01*
G01*
X366462500Y-39713000D02*
X366462500Y-26713000D01*
X364462501Y-26712998D02*
G75*
G02X364962501Y-26213000I499999J-1D01*
G01*
X13150001Y-59263000D02*
G75*
G02X12650001Y-58763000I0J500000D01*
G01*
X364962501Y-40213000D02*
X365962501Y-40213000D01*
X246850001Y-26713000D02*
G75*
G02X247350001Y-26213000I500000J0D01*
G01*
X228300001Y-40213000D02*
X241300001Y-40213000D01*
X12650001Y-45763000D02*
X12650001Y-58763000D01*
X227800001Y-26713000D02*
G75*
G02X228300001Y-26213000I500000J0D01*
G01*
X304500001Y-40213000D02*
X317500001Y-40213000D01*
X45200001Y-45263000D02*
G75*
G02X45700001Y-45763000I0J-500000D01*
G01*
X364462501Y-26713000D02*
X364462501Y-39713000D01*
X317500001Y-26213000D02*
X304500001Y-26213000D01*
X260350001Y-26212999D02*
X247350001Y-26213000D01*
X365962500Y-26213000D02*
G75*
G02X366462500Y-26713000I0J-500000D01*
G01*
X50750001Y-45763000D02*
X50750001Y-58763000D01*
X228300001Y-40213000D02*
G75*
G02X227800001Y-39713000I0J500000D01*
G01*
X26650001Y-58763000D02*
X26650001Y-45763000D01*
X64250001Y-45263000D02*
G75*
G02X64750001Y-45763000I0J-500000D01*
G01*
X366462501Y-39713000D02*
G75*
G02X365962501Y-40213000I-500000J0D01*
G01*
X241300001Y-26213000D02*
X228300001Y-26213000D01*
X304000001Y-26713000D02*
X304000001Y-39713000D01*
X31700001Y-45763000D02*
G75*
G02X32200001Y-45263000I500000J0D01*
G01*
X298950001Y-39713000D02*
X298950001Y-26713000D01*
X189412501Y-58762998D02*
G75*
G02X188912501Y-59263000I-500001J-1D01*
G01*
X194462501Y-45763000D02*
G75*
G02X194962501Y-45263000I500000J0D01*
G01*
X207962501Y-45263000D02*
X194962501Y-45263000D01*
X105568751Y-45262999D02*
X92568751Y-45263000D01*
X341262501Y-26713000D02*
X341262501Y-39713000D01*
X323550002Y-40212999D02*
G75*
G02X323050001Y-39713000I-1J500000D01*
G01*
X337050001Y-26713000D02*
X337050001Y-39713000D01*
X26150001Y-45263000D02*
X13150001Y-45263000D01*
X323050001Y-39713000D02*
X323050001Y-26713000D01*
X131762501Y-45263000D02*
X118762501Y-45263000D01*
X208462502Y-58762999D02*
G75*
G02X207962501Y-59263000I-500001J0D01*
G01*
X341762502Y-40212999D02*
G75*
G02X341262501Y-39713000I-1J500000D01*
G01*
X132262501Y-58763000D02*
X132262501Y-45763000D01*
X131762500Y-45262999D02*
G75*
G02X132262501Y-45763000I0J-500001D01*
G01*
X341262501Y-26712998D02*
G75*
G02X341762501Y-26213000I499999J-1D01*
G01*
X337050001Y-39713000D02*
G75*
G02X336550001Y-40213000I-500000J0D01*
G01*
X336550000Y-26212999D02*
G75*
G02X337050001Y-26713000I0J-500001D01*
G01*
X323550001Y-26213000D02*
X336550001Y-26213000D01*
X118262501Y-45763000D02*
X118262501Y-58763000D01*
X151312501Y-58763000D02*
X151312501Y-45763000D01*
X347362502Y-40212999D02*
G75*
G02X346862501Y-39713000I-1J500000D01*
G01*
X194462501Y-45763000D02*
X194462501Y-58763000D01*
X347362501Y-40213000D02*
X360362501Y-40213000D01*
X105568751Y-45263000D02*
G75*
G02X106068751Y-45763000I0J-500000D01*
G01*
X188912502Y-45262999D02*
G75*
G02X189412501Y-45763000I-1J-500000D01*
G01*
X175912500Y-59262999D02*
G75*
G02X175412501Y-58763000I0J499999D01*
G01*
X360362500Y-26213000D02*
G75*
G02X360862500Y-26713000I0J-500000D01*
G01*
X92068751Y-45763000D02*
X92068751Y-58763000D01*
X208462501Y-58763000D02*
X208462501Y-45763000D01*
X118762501Y-59263000D02*
X131762501Y-59263000D01*
X175412501Y-45763000D02*
G75*
G02X175912501Y-45263000I500000J0D01*
G01*
X137312501Y-45763000D02*
X137312501Y-58763000D01*
X137812501Y-59263000D02*
G75*
G02X137312501Y-58763000I0J500000D01*
G01*
X137812501Y-59263000D02*
X150812501Y-59263000D01*
X346862501Y-26712998D02*
G75*
G02X347362501Y-26213000I499999J-1D01*
G01*
X336550001Y-40213000D02*
X323550001Y-40212999D01*
X342762500Y-26212999D02*
G75*
G02X343262501Y-26713000I0J-500001D01*
G01*
X106068752Y-58762999D02*
G75*
G02X105568751Y-59263000I-500001J0D01*
G01*
X175412501Y-45763000D02*
X175412501Y-58763000D01*
X323050002Y-26712999D02*
G75*
G02X323550001Y-26213000I499999J0D01*
G01*
X92568751Y-59263000D02*
X105568751Y-59263000D01*
X360862500Y-39713000D02*
X360862500Y-26713000D01*
X360862501Y-39713000D02*
G75*
G02X360362501Y-40213000I-500000J0D01*
G01*
X341762501Y-40212999D02*
X342762501Y-40213000D01*
X188912501Y-45262999D02*
X175912501Y-45263000D01*
X207962502Y-45262999D02*
G75*
G02X208462501Y-45763000I-1J-500000D01*
G01*
X360362501Y-26213000D02*
X347362501Y-26213000D01*
X150812501Y-45263000D02*
G75*
G02X151312501Y-45763000I0J-500000D01*
G01*
X175912501Y-59263000D02*
X188912501Y-59263000D01*
X189412501Y-58763000D02*
X189412501Y-45763000D01*
X194962500Y-59262999D02*
G75*
G02X194462501Y-58763000I0J499999D01*
G01*
X151312502Y-58762999D02*
G75*
G02X150812501Y-59263000I-500001J0D01*
G01*
X343262501Y-39713000D02*
X343262501Y-26713000D01*
X118762501Y-59263000D02*
G75*
G02X118262501Y-58763000I0J500000D01*
G01*
X346862501Y-26713000D02*
X346862501Y-39713000D01*
X132262501Y-58763000D02*
G75*
G02X131762501Y-59263000I-500000J0D01*
G01*
X118262501Y-45763000D02*
G75*
G02X118762501Y-45263000I500000J0D01*
G01*
X343262501Y-39713000D02*
G75*
G02X342762501Y-40213000I-500000J0D01*
G01*
X92068751Y-45763000D02*
G75*
G02X92568751Y-45263000I500000J0D01*
G01*
X92568751Y-59263000D02*
G75*
G02X92068751Y-58763000I0J500000D01*
G01*
X342762501Y-26213000D02*
X341762501Y-26213000D01*
X137312501Y-45763000D02*
G75*
G02X137812501Y-45263000I500000J0D01*
G01*
X194962501Y-59263000D02*
X207962501Y-59263000D01*
X106068751Y-58763000D02*
X106068751Y-45763000D01*
X284162501Y-45262999D02*
X271162501Y-45263000D01*
X309262501Y-59263000D02*
G75*
G02X308762501Y-58763000I0J500000D01*
G01*
X265612501Y-58763000D02*
X265612501Y-45763000D01*
X271162502Y-59262999D02*
G75*
G02X270662501Y-58763000I-1J500000D01*
G01*
X355656752Y-61262999D02*
G75*
G02X355156751Y-60763000I-1J500000D01*
G01*
X308762501Y-45763000D02*
G75*
G02X309262501Y-45263000I500000J0D01*
G01*
X308762501Y-45763000D02*
X308762501Y-58763000D01*
X355156751Y-46763000D02*
X355156751Y-60763000D01*
X88468751Y-58763000D02*
X88468751Y-45763000D01*
X88468751Y-58763000D02*
G75*
G02X87968751Y-59263000I-500000J0D01*
G01*
X265112502Y-45262999D02*
G75*
G02X265612501Y-45763000I-1J-500000D01*
G01*
X111668751Y-58763000D02*
X111668751Y-45763000D01*
X156362501Y-45763000D02*
X156362501Y-58763000D01*
X252112501Y-59263000D02*
X265112501Y-59263000D01*
X111668751Y-58763000D02*
G75*
G02X111168751Y-59263000I-500000J0D01*
G01*
X265112501Y-45263000D02*
X252112501Y-45263000D01*
X110168752Y-59262999D02*
G75*
G02X109668751Y-58763000I-1J500000D01*
G01*
X252112501Y-59263000D02*
G75*
G02X251612501Y-58763000I0J500000D01*
G01*
X251612501Y-45763000D02*
X251612501Y-58763000D01*
X355156752Y-46762999D02*
G75*
G02X355656751Y-46263000I499999J0D01*
G01*
X156862501Y-59263000D02*
X169862501Y-59263000D01*
X355656751Y-61262999D02*
X361656751Y-61263000D01*
X322262501Y-45263000D02*
X309262501Y-45263000D01*
X353218751Y-45263000D02*
G75*
G02X353718751Y-45763000I0J-500000D01*
G01*
X156362501Y-45763000D02*
G75*
G02X156862501Y-45263000I500000J0D01*
G01*
X169862502Y-45262999D02*
G75*
G02X170362501Y-45763000I-1J-500000D01*
G01*
X339718751Y-45762998D02*
G75*
G02X340218751Y-45263000I499999J-1D01*
G01*
X362156751Y-60763000D02*
G75*
G02X361656751Y-61263000I-500000J0D01*
G01*
X150812501Y-45263000D02*
X137812501Y-45263000D01*
X87968750Y-45262999D02*
G75*
G02X88468751Y-45763000I0J-500001D01*
G01*
X86968751Y-59263000D02*
X87968751Y-59263000D01*
X86968752Y-59263000D02*
G75*
G02X86468750Y-58763000I-1J500001D01*
G01*
X284162502Y-45262999D02*
G75*
G02X284662501Y-45763000I-1J-500000D01*
G01*
X339718751Y-45763000D02*
X339718751Y-58763000D01*
X251612501Y-45763000D02*
G75*
G02X252112501Y-45263000I500000J0D01*
G01*
X86468750Y-45763000D02*
X86468750Y-58763000D01*
X109668751Y-45763000D02*
X109668751Y-58763000D01*
X322262500Y-45263000D02*
G75*
G02X322762500Y-45763000I0J-500000D01*
G01*
X309262501Y-59263000D02*
X322262501Y-59263000D01*
X340218752Y-59262999D02*
G75*
G02X339718751Y-58763000I-1J500000D01*
G01*
X322762501Y-58763000D02*
G75*
G02X322262501Y-59263000I-500000J0D01*
G01*
X265612501Y-58762998D02*
G75*
G02X265112501Y-59263000I-500001J-1D01*
G01*
X86468750Y-45762999D02*
G75*
G02X86968751Y-45263000I500000J-1D01*
G01*
X353718751Y-58763000D02*
X353718751Y-45763000D01*
X362156750Y-60763000D02*
X362156750Y-46763000D01*
X353718751Y-58763000D02*
G75*
G02X353218751Y-59263000I-500000J0D01*
G01*
X87968751Y-45262999D02*
X86968751Y-45263000D01*
X361656750Y-46263000D02*
G75*
G02X362156750Y-46763000I0J-500000D01*
G01*
X111168751Y-45263000D02*
G75*
G02X111668751Y-45763000I0J-500000D01*
G01*
X110168751Y-59263000D02*
X111168751Y-59263000D01*
X340218751Y-59262999D02*
X353218751Y-59263000D01*
X353218751Y-45263000D02*
X340218751Y-45263000D01*
X284662501Y-58763000D02*
X284662501Y-45763000D01*
X109668751Y-45763000D02*
G75*
G02X110168751Y-45263000I500000J0D01*
G01*
X111168751Y-45263000D02*
X110168751Y-45263000D01*
X170362501Y-58762998D02*
G75*
G02X169862501Y-59263000I-500001J-1D01*
G01*
X270662501Y-45763000D02*
G75*
G02X271162501Y-45263000I500000J0D01*
G01*
X270662501Y-45763000D02*
X270662501Y-58763000D01*
X322762500Y-58763000D02*
X322762500Y-45763000D01*
X170362501Y-58763000D02*
X170362501Y-45763000D01*
X271162501Y-59263000D02*
X284162501Y-59263000D01*
X156862501Y-59263000D02*
G75*
G02X156362501Y-58763000I0J500000D01*
G01*
X169862501Y-45262999D02*
X156862501Y-45263000D01*
X284662501Y-58762998D02*
G75*
G02X284162501Y-59263000I-500001J-1D01*
G01*
X338280751Y-60763000D02*
X338280751Y-46763000D01*
X338280751Y-60763000D02*
G75*
G02X337780751Y-61263000I-500000J0D01*
G01*
X45700001Y-77813000D02*
G75*
G02X45200001Y-78313000I-500000J0D01*
G01*
X227512501Y-58763000D02*
X227512501Y-45763000D01*
X233062501Y-59263000D02*
X246062501Y-59263000D01*
X290212501Y-59263000D02*
G75*
G02X289712501Y-58763000I0J500000D01*
G01*
X233062501Y-59263000D02*
G75*
G02X232562501Y-58763000I0J500000D01*
G01*
X12650001Y-64813000D02*
X12650001Y-77813000D01*
X361656751Y-46263000D02*
X355656751Y-46263000D01*
X214012501Y-59263000D02*
X227012501Y-59263000D01*
X213512501Y-45763000D02*
X213512501Y-58763000D01*
X51250001Y-78313000D02*
G75*
G02X50750001Y-77813000I0J500000D01*
G01*
X303712501Y-58762998D02*
G75*
G02X303212501Y-59263000I-500001J-1D01*
G01*
X64250001Y-64313000D02*
X51250001Y-64313000D01*
X50750001Y-64812998D02*
G75*
G02X51250001Y-64313000I499999J-1D01*
G01*
X289712501Y-45763000D02*
X289712501Y-58763000D01*
X331780752Y-61262999D02*
G75*
G02X331280751Y-60763000I-1J500000D01*
G01*
X337780751Y-46263000D02*
G75*
G02X338280751Y-46763000I0J-500000D01*
G01*
X246062502Y-45262999D02*
G75*
G02X246562501Y-45763000I-1J-500000D01*
G01*
X232562501Y-45763000D02*
G75*
G02X233062501Y-45263000I500000J0D01*
G01*
X303712501Y-58763000D02*
X303712501Y-45763000D01*
X26650001Y-77813000D02*
X26650001Y-64813000D01*
X13150001Y-78313000D02*
G75*
G02X12650001Y-77813000I0J500000D01*
G01*
X64750001Y-77813000D02*
G75*
G02X64250001Y-78313000I-500000J0D01*
G01*
X64250001Y-64313000D02*
G75*
G02X64750001Y-64813000I0J-500000D01*
G01*
X64750001Y-77813000D02*
X64750001Y-64813000D01*
X337780751Y-46263000D02*
X331780751Y-46263000D01*
X331280752Y-46762999D02*
G75*
G02X331780751Y-46263000I499999J0D01*
G01*
X213512501Y-45763000D02*
G75*
G02X214012501Y-45263000I500000J0D01*
G01*
X232562501Y-45763000D02*
X232562501Y-58763000D01*
X26150001Y-64313000D02*
G75*
G02X26650001Y-64813000I0J-500000D01*
G01*
X246062501Y-45263000D02*
X233062501Y-45263000D01*
X290212501Y-59263000D02*
X303212501Y-59263000D01*
X289712501Y-45763000D02*
G75*
G02X290212501Y-45263000I500000J0D01*
G01*
X303212502Y-45262999D02*
G75*
G02X303712501Y-45763000I-1J-500000D01*
G01*
X26650001Y-77813000D02*
G75*
G02X26150001Y-78313000I-500000J0D01*
G01*
X13150001Y-78313000D02*
X26150001Y-78313000D01*
X331780751Y-61262999D02*
X337780751Y-61263000D01*
X45200001Y-64313000D02*
G75*
G02X45700001Y-64813000I0J-500000D01*
G01*
X50750001Y-64813000D02*
X50750001Y-77813000D01*
X26150001Y-64313000D02*
X13150001Y-64313000D01*
X45700001Y-77813000D02*
X45700001Y-64813000D01*
X331280751Y-46763000D02*
X331280751Y-60763000D01*
X246562501Y-58763000D02*
X246562501Y-45763000D01*
X227012501Y-45262999D02*
X214012501Y-45263000D01*
X227012502Y-45262999D02*
G75*
G02X227512501Y-45763000I-1J-500000D01*
G01*
X227512502Y-58762999D02*
G75*
G02X227012501Y-59263000I-500001J0D01*
G01*
X214012500Y-59262999D02*
G75*
G02X213512501Y-58763000I0J499999D01*
G01*
X246562501Y-58762998D02*
G75*
G02X246062501Y-59263000I-500001J-1D01*
G01*
X51250001Y-78313000D02*
X64250001Y-78313000D01*
X303212501Y-45262999D02*
X290212501Y-45263000D01*
X12650001Y-64812998D02*
G75*
G02X13150001Y-64313000I499999J-1D01*
G01*
X141287501Y-64313000D02*
X128287501Y-64313000D01*
X160337502Y-64312999D02*
G75*
G02X160837501Y-64813000I-1J-500000D01*
G01*
X217987501Y-77812998D02*
G75*
G02X217487501Y-78313000I-500001J-1D01*
G01*
X160837501Y-77813000D02*
X160837501Y-64813000D01*
X88393251Y-65813000D02*
G75*
G02X88893251Y-65313000I500000J0D01*
G01*
X185437500Y-78312999D02*
G75*
G02X184937501Y-77813000I0J499999D01*
G01*
X198437501Y-64313000D02*
X185437501Y-64313000D01*
X198937501Y-77813000D02*
X198937501Y-64813000D01*
X32200001Y-78313000D02*
X45200001Y-78313000D01*
X32200001Y-78313000D02*
G75*
G02X31700001Y-77813000I0J500000D01*
G01*
X31700001Y-64813000D02*
X31700001Y-77813000D01*
X119269251Y-79813000D02*
G75*
G02X118769251Y-80313000I-500000J0D01*
G01*
X95393251Y-79813000D02*
X95393251Y-65813000D01*
X166387500Y-78312999D02*
G75*
G02X165887501Y-77813000I0J499999D01*
G01*
X31700001Y-64813000D02*
G75*
G02X32200001Y-64313000I500000J0D01*
G01*
X45200001Y-64313000D02*
X32200001Y-64313000D01*
X110331251Y-64313000D02*
G75*
G02X110831251Y-64813000I0J-500000D01*
G01*
X165887501Y-64813000D02*
X165887501Y-77813000D01*
X165887501Y-64813000D02*
G75*
G02X166387501Y-64313000I500000J0D01*
G01*
X96831251Y-64812998D02*
G75*
G02X97331251Y-64313000I499999J-1D01*
G01*
X185437501Y-78313000D02*
X198437501Y-78313000D01*
X160837501Y-77812998D02*
G75*
G02X160337501Y-78313000I-500001J-1D01*
G01*
X147337501Y-78313000D02*
X160337501Y-78313000D01*
X88393251Y-65813000D02*
X88393251Y-79813000D01*
X112769251Y-80313000D02*
X118769251Y-80313000D01*
X110831251Y-77813000D02*
X110831251Y-64813000D01*
X179887501Y-77813000D02*
X179887501Y-64813000D01*
X97331251Y-78313000D02*
X110331251Y-78313000D01*
X112269251Y-65813000D02*
X112269251Y-79813000D01*
X217487502Y-64312999D02*
G75*
G02X217987501Y-64813000I-1J-500000D01*
G01*
X179387502Y-64312999D02*
G75*
G02X179887501Y-64813000I-1J-500000D01*
G01*
X184937501Y-64813000D02*
G75*
G02X185437501Y-64313000I500000J0D01*
G01*
X88893251Y-80313000D02*
X94893251Y-80313000D01*
X217987501Y-77813000D02*
X217987501Y-64813000D01*
X179387501Y-64313000D02*
X166387501Y-64313000D01*
X110831252Y-77812999D02*
G75*
G02X110331251Y-78313000I-500001J0D01*
G01*
X128287501Y-78313000D02*
X141287501Y-78313000D01*
X127787502Y-64812999D02*
G75*
G02X128287501Y-64313000I499999J0D01*
G01*
X160337501Y-64313000D02*
X147337501Y-64313000D01*
X184937501Y-64813000D02*
X184937501Y-77813000D01*
X127787501Y-64813000D02*
X127787501Y-77813000D01*
X166387501Y-78313000D02*
X179387501Y-78313000D01*
X97331251Y-78313000D02*
G75*
G02X96831251Y-77813000I0J500000D01*
G01*
X94893251Y-65312999D02*
X88893251Y-65313000D01*
X147337501Y-78313000D02*
G75*
G02X146837501Y-77813000I0J500000D01*
G01*
X146837501Y-64813000D02*
X146837501Y-77813000D01*
X96831251Y-64813000D02*
X96831251Y-77813000D01*
X198437502Y-64312999D02*
G75*
G02X198937501Y-64813000I-1J-500000D01*
G01*
X112269252Y-65812999D02*
G75*
G02X112769251Y-65313000I499999J0D01*
G01*
X146837502Y-64812999D02*
G75*
G02X147337501Y-64313000I499999J0D01*
G01*
X198937501Y-77812998D02*
G75*
G02X198437501Y-78313000I-500001J-1D01*
G01*
X179887501Y-77812998D02*
G75*
G02X179387501Y-78313000I-500001J-1D01*
G01*
X95393251Y-79813000D02*
G75*
G02X94893251Y-80313000I-500000J0D01*
G01*
X110331251Y-64313000D02*
X97331251Y-64313000D01*
X112769251Y-80313000D02*
G75*
G02X112269251Y-79813000I0J500000D01*
G01*
X141287501Y-64313000D02*
G75*
G02X141787501Y-64813000I0J-500000D01*
G01*
X141787501Y-77813000D02*
X141787501Y-64813000D01*
X88893251Y-80313000D02*
G75*
G02X88393251Y-79813000I0J500000D01*
G01*
X128287501Y-78313000D02*
G75*
G02X127787501Y-77813000I0J500000D01*
G01*
X118769251Y-65312999D02*
X112769251Y-65313000D01*
X118769251Y-65313000D02*
G75*
G02X119269251Y-65813000I0J-500000D01*
G01*
X94893252Y-65312999D02*
G75*
G02X95393251Y-65813000I-1J-500000D01*
G01*
X119269251Y-79813000D02*
X119269251Y-65813000D01*
X141787501Y-77813000D02*
G75*
G02X141287501Y-78313000I-500000J0D01*
G01*
X204487501Y-78313000D02*
X217487501Y-78313000D01*
X204487500Y-78312999D02*
G75*
G02X203987501Y-77813000I0J499999D01*
G01*
X203987501Y-64813000D02*
X203987501Y-77813000D01*
X365125000Y-83363000D02*
G75*
G02X365625000Y-83863000I0J-500000D01*
G01*
X203987501Y-64813000D02*
G75*
G02X204487501Y-64313000I500000J0D01*
G01*
X217487501Y-64313000D02*
X204487501Y-64313000D01*
X7100000Y-64313000D02*
X-5899999Y-64313000D01*
X-6400000Y-88775999D02*
G75*
G02X-6900000Y-89275999I-500000J0D01*
G01*
X-8400000Y-89776000D02*
X-8400000Y-95775999D01*
X-6399999Y-64900001D02*
G75*
G02X-6900000Y-65400000I-500000J1D01*
G01*
X365625000Y-96863000D02*
X365625000Y-83863000D01*
X365125001Y-64313000D02*
X327018251Y-64313000D01*
X365625000Y-96862999D02*
G75*
G02X365125001Y-97363000I-500000J-1D01*
G01*
X-7899999Y-72400000D02*
X-6900000Y-72400000D01*
X294975001Y-97363000D02*
X365125001Y-97363000D01*
X7600000Y-96863000D02*
G75*
G02X7100000Y-97363000I-500000J0D01*
G01*
X327018252Y-80312999D02*
G75*
G02X326518251Y-79813000I-1J500000D01*
G01*
X-6900000Y-65400000D02*
X-7899999Y-65400000D01*
X-6900000Y-89275999D02*
X-7899999Y-89275999D01*
X327018251Y-80312999D02*
X365125001Y-80313000D01*
X294975001Y-97363000D02*
G75*
G02X294475001Y-96863000I0J500000D01*
G01*
X294475001Y-83863000D02*
X294475001Y-96863000D01*
X365625001Y-79813000D02*
G75*
G02X365125001Y-80313000I-500000J0D01*
G01*
X294475001Y-83863000D02*
G75*
G02X294975001Y-83363000I500000J0D01*
G01*
X365625001Y-79813000D02*
X365625000Y-64813000D01*
X326518251Y-64813000D02*
X326518251Y-79813000D01*
X-7899999Y-96276000D02*
X-6900000Y-96275999D01*
X-7899999Y-96276000D02*
G75*
G02X-8400000Y-95775999I0J500001D01*
G01*
X-6399999Y-72900000D02*
X-6400000Y-88775999D01*
X-6899999Y-72400000D02*
G75*
G02X-6399999Y-72900000I0J-500000D01*
G01*
X-5900000Y-97362999D02*
G75*
G02X-6399999Y-96863000I0J499999D01*
G01*
X7600001Y-96863000D02*
X7600001Y-64813000D01*
X365125001Y-83363000D02*
X294975001Y-83363000D01*
X-6400000Y-64812999D02*
G75*
G02X-5899999Y-64313000I500000J-1D01*
G01*
X365125000Y-64313000D02*
G75*
G02X365625000Y-64813000I0J-500000D01*
G01*
X326518252Y-64812999D02*
G75*
G02X327018251Y-64313000I499999J0D01*
G01*
X-6399999Y-64813000D02*
X-6399999Y-64900000D01*
X-7900000Y-72399999D02*
G75*
G02X-8399999Y-71900000I0J499999D01*
G01*
X7100001Y-64313000D02*
G75*
G02X7600001Y-64813000I0J-500000D01*
G01*
X-5899999Y-97363000D02*
X7100000Y-97363000D01*
X-6399999Y-96775999D02*
X-6399999Y-96863000D01*
X-8400000Y-89776000D02*
G75*
G02X-7899999Y-89275999I500001J0D01*
G01*
X-6899999Y-96275999D02*
G75*
G02X-6399999Y-96775999I0J-500000D01*
G01*
X-8399999Y-65900000D02*
X-8399999Y-71900000D01*
X-8400000Y-65899999D02*
G75*
G02X-7899999Y-65400000I500000J-1D01*
G01*
D11*
X-13618750Y-108537500D02*
X1381250Y-108537500D01*
X1381250Y1000000D02*
X-13618750Y1000000D01*
X280200000Y-104450000D02*
G75*
G03X280200000Y-104450000I-950000J0D01*
G01*
X188050000Y-104450000D02*
G75*
G03X188050000Y-104450000I-950000J0D01*
G01*
X95900000Y-104450000D02*
G75*
G03X95900000Y-104450000I-950000J0D01*
G01*
X280200000Y-2800000D02*
G75*
G03X280200000Y-2800000I-950000J0D01*
G01*
X95900000Y-2800000D02*
G75*
G03X95900000Y-2800000I-950000J0D01*
G01*
X188050000Y-2800000D02*
G75*
G03X188050000Y-2800000I-950000J0D01*
G01*
X-11250000Y-104450000D02*
G75*
G03X-11250000Y-104450000I-950000J0D01*
G01*
X-11250000Y-2800000D02*
G75*
G03X-11250000Y-2800000I-950000J0D01*
G01*
X372350000Y-2800000D02*
G75*
G03X372350000Y-2800000I-950000J0D01*
G01*
X372350000Y-104450000D02*
G75*
G03X372350000Y-104450000I-950000J0D01*
G01*
X375237500Y-1381250D02*
X375237500Y-106156250D01*
X-16000000Y-106156250D02*
X-16000000Y-1381250D01*
X370475000Y-108537500D02*
X372856250Y-108537500D01*
X370475000Y1000000D02*
X372856250Y1000000D01*
X363331250Y1000000D02*
X370475000Y1000000D01*
X363331250Y-108537500D02*
X370475000Y-108537500D01*
X372856250Y1000000D02*
G75*
G02X375237500Y-1381250I0J-2381250D01*
G01*
X375237500Y-106156250D02*
G75*
G02X372856250Y-108537500I-2381250J0D01*
G01*
X-13618750Y-108537500D02*
G75*
G02X-16000000Y-106156250I0J2381250D01*
G01*
X-16000000Y-1381250D02*
G75*
G02X-13618750Y1000000I2381250J0D01*
G01*
X363331250Y-108537500D02*
X1381250Y-108537500D01*
X1381250Y1000000D02*
X363331250Y1000000D01*
M02*
