G04 #@! TF.GenerationSoftware,KiCad,Pcbnew,(5.1.4)-1*
G04 #@! TF.CreationDate,2020-10-07T14:28:25-04:00*
G04 #@! TF.ProjectId,southpawplate,736f7574-6870-4617-9770-6c6174652e6b,rev?*
G04 #@! TF.SameCoordinates,Original*
G04 #@! TF.FileFunction,Soldermask,Top*
G04 #@! TF.FilePolarity,Negative*
%FSLAX46Y46*%
G04 Gerber Fmt 4.6, Leading zero omitted, Abs format (unit mm)*
G04 Created by KiCad (PCBNEW (5.1.4)-1) date 2020-10-07 14:28:25*
%MOMM*%
%LPD*%
G04 APERTURE LIST*
%ADD10C,0.010000*%
G04 APERTURE END LIST*
D10*
G04 #@! TO.C,G\002A\002A\002A*
G36*
X21041376Y-103599162D02*
G01*
X21109110Y-103755304D01*
X21086570Y-103922843D01*
X21079708Y-103943207D01*
X21024196Y-104070003D01*
X20919350Y-104280735D01*
X20775471Y-104556823D01*
X20602860Y-104879687D01*
X20411819Y-105230745D01*
X20212647Y-105591417D01*
X20015647Y-105943122D01*
X19831119Y-106267280D01*
X19669364Y-106545309D01*
X19540682Y-106758628D01*
X19455376Y-106888658D01*
X19430446Y-106918125D01*
X19240808Y-106992171D01*
X19026303Y-106956046D01*
X18923129Y-106898649D01*
X18804177Y-106744850D01*
X18782521Y-106628774D01*
X18812156Y-106521108D01*
X18894491Y-106322585D01*
X19020179Y-106053162D01*
X19179876Y-105732793D01*
X19364235Y-105381435D01*
X19383054Y-105346500D01*
X19983066Y-104235250D01*
X19313699Y-104203500D01*
X19004520Y-104185625D01*
X18797253Y-104163543D01*
X18666814Y-104132135D01*
X18588119Y-104086278D01*
X18554416Y-104048488D01*
X18471611Y-103862998D01*
X18507363Y-103676287D01*
X18563350Y-103582629D01*
X18603509Y-103532316D01*
X18655529Y-103495644D01*
X18738286Y-103470458D01*
X18870654Y-103454605D01*
X19071510Y-103445930D01*
X19359729Y-103442281D01*
X19754186Y-103441502D01*
X19800136Y-103441500D01*
X20938072Y-103441500D01*
X21041376Y-103599162D01*
X21041376Y-103599162D01*
G37*
X21041376Y-103599162D02*
X21109110Y-103755304D01*
X21086570Y-103922843D01*
X21079708Y-103943207D01*
X21024196Y-104070003D01*
X20919350Y-104280735D01*
X20775471Y-104556823D01*
X20602860Y-104879687D01*
X20411819Y-105230745D01*
X20212647Y-105591417D01*
X20015647Y-105943122D01*
X19831119Y-106267280D01*
X19669364Y-106545309D01*
X19540682Y-106758628D01*
X19455376Y-106888658D01*
X19430446Y-106918125D01*
X19240808Y-106992171D01*
X19026303Y-106956046D01*
X18923129Y-106898649D01*
X18804177Y-106744850D01*
X18782521Y-106628774D01*
X18812156Y-106521108D01*
X18894491Y-106322585D01*
X19020179Y-106053162D01*
X19179876Y-105732793D01*
X19364235Y-105381435D01*
X19383054Y-105346500D01*
X19983066Y-104235250D01*
X19313699Y-104203500D01*
X19004520Y-104185625D01*
X18797253Y-104163543D01*
X18666814Y-104132135D01*
X18588119Y-104086278D01*
X18554416Y-104048488D01*
X18471611Y-103862998D01*
X18507363Y-103676287D01*
X18563350Y-103582629D01*
X18603509Y-103532316D01*
X18655529Y-103495644D01*
X18738286Y-103470458D01*
X18870654Y-103454605D01*
X19071510Y-103445930D01*
X19359729Y-103442281D01*
X19754186Y-103441502D01*
X19800136Y-103441500D01*
X20938072Y-103441500D01*
X21041376Y-103599162D01*
G36*
X10763510Y-103472758D02*
G01*
X10940143Y-103510219D01*
X11082892Y-103580407D01*
X11204964Y-103670643D01*
X11521372Y-103987187D01*
X11713344Y-104327217D01*
X11765499Y-104522478D01*
X11773921Y-104932582D01*
X11667283Y-105322229D01*
X11456422Y-105665675D01*
X11176951Y-105920593D01*
X11048400Y-105998025D01*
X10915784Y-106044912D01*
X10742064Y-106068592D01*
X10490200Y-106076403D01*
X10388777Y-106076750D01*
X9828500Y-106076750D01*
X9828500Y-106382549D01*
X9810961Y-106655572D01*
X9749319Y-106825216D01*
X9630030Y-106911370D01*
X9453041Y-106934000D01*
X9274904Y-106911784D01*
X9147859Y-106856992D01*
X9133955Y-106843516D01*
X9105721Y-106762927D01*
X9086571Y-106593910D01*
X9076093Y-106326617D01*
X9073878Y-105951197D01*
X9078555Y-105516047D01*
X9090353Y-104775000D01*
X9863136Y-104775000D01*
X9884281Y-104978726D01*
X9965301Y-105122566D01*
X10039859Y-105194489D01*
X10271764Y-105324367D01*
X10514437Y-105342177D01*
X10737451Y-105248546D01*
X10815782Y-105178477D01*
X10929635Y-104982903D01*
X10971573Y-104750727D01*
X10936204Y-104534638D01*
X10890105Y-104451997D01*
X10687215Y-104278869D01*
X10446132Y-104212347D01*
X10199533Y-104256139D01*
X10039859Y-104355510D01*
X9917274Y-104492957D01*
X9868284Y-104657726D01*
X9863136Y-104775000D01*
X9090353Y-104775000D01*
X9098250Y-104279062D01*
X9298174Y-104003292D01*
X9560545Y-103716230D01*
X9862498Y-103537511D01*
X10225537Y-103457353D01*
X10506464Y-103453563D01*
X10763510Y-103472758D01*
X10763510Y-103472758D01*
G37*
X10763510Y-103472758D02*
X10940143Y-103510219D01*
X11082892Y-103580407D01*
X11204964Y-103670643D01*
X11521372Y-103987187D01*
X11713344Y-104327217D01*
X11765499Y-104522478D01*
X11773921Y-104932582D01*
X11667283Y-105322229D01*
X11456422Y-105665675D01*
X11176951Y-105920593D01*
X11048400Y-105998025D01*
X10915784Y-106044912D01*
X10742064Y-106068592D01*
X10490200Y-106076403D01*
X10388777Y-106076750D01*
X9828500Y-106076750D01*
X9828500Y-106382549D01*
X9810961Y-106655572D01*
X9749319Y-106825216D01*
X9630030Y-106911370D01*
X9453041Y-106934000D01*
X9274904Y-106911784D01*
X9147859Y-106856992D01*
X9133955Y-106843516D01*
X9105721Y-106762927D01*
X9086571Y-106593910D01*
X9076093Y-106326617D01*
X9073878Y-105951197D01*
X9078555Y-105516047D01*
X9090353Y-104775000D01*
X9863136Y-104775000D01*
X9884281Y-104978726D01*
X9965301Y-105122566D01*
X10039859Y-105194489D01*
X10271764Y-105324367D01*
X10514437Y-105342177D01*
X10737451Y-105248546D01*
X10815782Y-105178477D01*
X10929635Y-104982903D01*
X10971573Y-104750727D01*
X10936204Y-104534638D01*
X10890105Y-104451997D01*
X10687215Y-104278869D01*
X10446132Y-104212347D01*
X10199533Y-104256139D01*
X10039859Y-104355510D01*
X9917274Y-104492957D01*
X9868284Y-104657726D01*
X9863136Y-104775000D01*
X9090353Y-104775000D01*
X9098250Y-104279062D01*
X9298174Y-104003292D01*
X9560545Y-103716230D01*
X9862498Y-103537511D01*
X10225537Y-103457353D01*
X10506464Y-103453563D01*
X10763510Y-103472758D01*
G36*
X22476033Y-103378000D02*
G01*
X22828997Y-103379910D01*
X23077202Y-103387425D01*
X23242854Y-103403223D01*
X23348162Y-103429979D01*
X23415331Y-103470371D01*
X23439408Y-103494125D01*
X23530685Y-103674883D01*
X23525564Y-103873456D01*
X23428374Y-104034908D01*
X23337967Y-104088449D01*
X23193491Y-104121121D01*
X22968605Y-104136886D01*
X22729874Y-104139999D01*
X22456253Y-104141205D01*
X22285421Y-104149221D01*
X22193168Y-104170647D01*
X22155283Y-104212084D01*
X22147557Y-104280129D01*
X22147500Y-104298750D01*
X22155045Y-104385090D01*
X22197094Y-104432623D01*
X22302767Y-104452896D01*
X22501184Y-104457456D01*
X22547817Y-104457500D01*
X22806375Y-104469347D01*
X23000862Y-104515810D01*
X23192891Y-104613272D01*
X23237166Y-104640798D01*
X23515605Y-104885763D01*
X23699995Y-105191410D01*
X23790335Y-105533078D01*
X23786626Y-105886105D01*
X23688868Y-106225828D01*
X23497060Y-106527585D01*
X23237166Y-106750701D01*
X23033228Y-106862684D01*
X22840368Y-106917086D01*
X22593655Y-106931309D01*
X22563692Y-106931193D01*
X22190762Y-106892237D01*
X21948811Y-106806619D01*
X21729308Y-106657379D01*
X21543663Y-106471612D01*
X21420284Y-106282458D01*
X21385500Y-106149507D01*
X21432923Y-105928071D01*
X21558868Y-105786846D01*
X21738849Y-105731756D01*
X21948381Y-105768727D01*
X22162976Y-105903685D01*
X22211000Y-105949750D01*
X22392209Y-106108841D01*
X22543625Y-106162316D01*
X22697891Y-106115152D01*
X22805686Y-106040391D01*
X22939435Y-105880362D01*
X22973000Y-105695749D01*
X22937795Y-105493516D01*
X22823992Y-105352062D01*
X22619312Y-105264555D01*
X22311474Y-105224163D01*
X22117028Y-105219499D01*
X21833519Y-105214538D01*
X21634687Y-105186913D01*
X21505527Y-105117511D01*
X21431034Y-104987221D01*
X21396204Y-104776929D01*
X21386031Y-104467524D01*
X21385500Y-104287716D01*
X21386864Y-103957917D01*
X21402738Y-103719297D01*
X21450792Y-103557114D01*
X21548697Y-103456628D01*
X21714125Y-103403099D01*
X21964745Y-103381784D01*
X22318230Y-103377943D01*
X22476033Y-103378000D01*
X22476033Y-103378000D01*
G37*
X22476033Y-103378000D02*
X22828997Y-103379910D01*
X23077202Y-103387425D01*
X23242854Y-103403223D01*
X23348162Y-103429979D01*
X23415331Y-103470371D01*
X23439408Y-103494125D01*
X23530685Y-103674883D01*
X23525564Y-103873456D01*
X23428374Y-104034908D01*
X23337967Y-104088449D01*
X23193491Y-104121121D01*
X22968605Y-104136886D01*
X22729874Y-104139999D01*
X22456253Y-104141205D01*
X22285421Y-104149221D01*
X22193168Y-104170647D01*
X22155283Y-104212084D01*
X22147557Y-104280129D01*
X22147500Y-104298750D01*
X22155045Y-104385090D01*
X22197094Y-104432623D01*
X22302767Y-104452896D01*
X22501184Y-104457456D01*
X22547817Y-104457500D01*
X22806375Y-104469347D01*
X23000862Y-104515810D01*
X23192891Y-104613272D01*
X23237166Y-104640798D01*
X23515605Y-104885763D01*
X23699995Y-105191410D01*
X23790335Y-105533078D01*
X23786626Y-105886105D01*
X23688868Y-106225828D01*
X23497060Y-106527585D01*
X23237166Y-106750701D01*
X23033228Y-106862684D01*
X22840368Y-106917086D01*
X22593655Y-106931309D01*
X22563692Y-106931193D01*
X22190762Y-106892237D01*
X21948811Y-106806619D01*
X21729308Y-106657379D01*
X21543663Y-106471612D01*
X21420284Y-106282458D01*
X21385500Y-106149507D01*
X21432923Y-105928071D01*
X21558868Y-105786846D01*
X21738849Y-105731756D01*
X21948381Y-105768727D01*
X22162976Y-105903685D01*
X22211000Y-105949750D01*
X22392209Y-106108841D01*
X22543625Y-106162316D01*
X22697891Y-106115152D01*
X22805686Y-106040391D01*
X22939435Y-105880362D01*
X22973000Y-105695749D01*
X22937795Y-105493516D01*
X22823992Y-105352062D01*
X22619312Y-105264555D01*
X22311474Y-105224163D01*
X22117028Y-105219499D01*
X21833519Y-105214538D01*
X21634687Y-105186913D01*
X21505527Y-105117511D01*
X21431034Y-104987221D01*
X21396204Y-104776929D01*
X21386031Y-104467524D01*
X21385500Y-104287716D01*
X21386864Y-103957917D01*
X21402738Y-103719297D01*
X21450792Y-103557114D01*
X21548697Y-103456628D01*
X21714125Y-103403099D01*
X21964745Y-103381784D01*
X22318230Y-103377943D01*
X22476033Y-103378000D01*
G36*
X-3841855Y-103466474D02*
G01*
X-3566245Y-103540769D01*
X-3519846Y-103562320D01*
X-3194816Y-103792123D01*
X-2962720Y-104086142D01*
X-2823610Y-104422804D01*
X-2777540Y-104780537D01*
X-2824564Y-105137770D01*
X-2964735Y-105472930D01*
X-3198107Y-105764445D01*
X-3513834Y-105985241D01*
X-3819032Y-106083775D01*
X-4173083Y-106111417D01*
X-4523269Y-106069048D01*
X-4806352Y-105963625D01*
X-4985774Y-105836085D01*
X-5126745Y-105691521D01*
X-5154298Y-105650079D01*
X-5211846Y-105523606D01*
X-5198768Y-105424518D01*
X-5118076Y-105301785D01*
X-4942340Y-105143382D01*
X-4745908Y-105110173D01*
X-4532111Y-105202643D01*
X-4516426Y-105213950D01*
X-4268026Y-105332213D01*
X-4021805Y-105325407D01*
X-3791319Y-105194478D01*
X-3755616Y-105160884D01*
X-3601273Y-104938592D01*
X-3573389Y-104711397D01*
X-3671964Y-104486104D01*
X-3755616Y-104389115D01*
X-3908836Y-104258456D01*
X-4054076Y-104196409D01*
X-4208853Y-104208722D01*
X-4390686Y-104301141D01*
X-4617094Y-104479413D01*
X-4905593Y-104749285D01*
X-4931875Y-104775000D01*
X-5186391Y-105019632D01*
X-5373562Y-105185137D01*
X-5512443Y-105285466D01*
X-5622093Y-105334571D01*
X-5712536Y-105346500D01*
X-5931222Y-105296901D01*
X-6068884Y-105158294D01*
X-6110000Y-104975585D01*
X-6087516Y-104877869D01*
X-6011778Y-104752023D01*
X-5870361Y-104582161D01*
X-5650839Y-104352395D01*
X-5522625Y-104224596D01*
X-5282405Y-103995094D01*
X-5055020Y-103791315D01*
X-4865182Y-103634555D01*
X-4737602Y-103546114D01*
X-4732029Y-103543225D01*
X-4478942Y-103466848D01*
X-4164152Y-103441548D01*
X-3841855Y-103466474D01*
X-3841855Y-103466474D01*
G37*
X-3841855Y-103466474D02*
X-3566245Y-103540769D01*
X-3519846Y-103562320D01*
X-3194816Y-103792123D01*
X-2962720Y-104086142D01*
X-2823610Y-104422804D01*
X-2777540Y-104780537D01*
X-2824564Y-105137770D01*
X-2964735Y-105472930D01*
X-3198107Y-105764445D01*
X-3513834Y-105985241D01*
X-3819032Y-106083775D01*
X-4173083Y-106111417D01*
X-4523269Y-106069048D01*
X-4806352Y-105963625D01*
X-4985774Y-105836085D01*
X-5126745Y-105691521D01*
X-5154298Y-105650079D01*
X-5211846Y-105523606D01*
X-5198768Y-105424518D01*
X-5118076Y-105301785D01*
X-4942340Y-105143382D01*
X-4745908Y-105110173D01*
X-4532111Y-105202643D01*
X-4516426Y-105213950D01*
X-4268026Y-105332213D01*
X-4021805Y-105325407D01*
X-3791319Y-105194478D01*
X-3755616Y-105160884D01*
X-3601273Y-104938592D01*
X-3573389Y-104711397D01*
X-3671964Y-104486104D01*
X-3755616Y-104389115D01*
X-3908836Y-104258456D01*
X-4054076Y-104196409D01*
X-4208853Y-104208722D01*
X-4390686Y-104301141D01*
X-4617094Y-104479413D01*
X-4905593Y-104749285D01*
X-4931875Y-104775000D01*
X-5186391Y-105019632D01*
X-5373562Y-105185137D01*
X-5512443Y-105285466D01*
X-5622093Y-105334571D01*
X-5712536Y-105346500D01*
X-5931222Y-105296901D01*
X-6068884Y-105158294D01*
X-6110000Y-104975585D01*
X-6087516Y-104877869D01*
X-6011778Y-104752023D01*
X-5870361Y-104582161D01*
X-5650839Y-104352395D01*
X-5522625Y-104224596D01*
X-5282405Y-103995094D01*
X-5055020Y-103791315D01*
X-4865182Y-103634555D01*
X-4737602Y-103546114D01*
X-4732029Y-103543225D01*
X-4478942Y-103466848D01*
X-4164152Y-103441548D01*
X-3841855Y-103466474D01*
G36*
X-767719Y-103497425D02*
G01*
X-464168Y-103617076D01*
X-386737Y-103665671D01*
X-92747Y-103937073D01*
X89445Y-104262505D01*
X164088Y-104651121D01*
X163586Y-104851638D01*
X87773Y-105273614D01*
X-85395Y-105617652D01*
X-347737Y-105875988D01*
X-691068Y-106040853D01*
X-1107208Y-106104484D01*
X-1157000Y-106104969D01*
X-1406933Y-106091150D01*
X-1633463Y-106056788D01*
X-1760250Y-106019569D01*
X-1935220Y-105915728D01*
X-2111916Y-105772465D01*
X-2131272Y-105753500D01*
X-2375133Y-105426577D01*
X-2507766Y-105066326D01*
X-2527587Y-104771985D01*
X-1728500Y-104771985D01*
X-1675471Y-105024758D01*
X-1535189Y-105211845D01*
X-1335860Y-105320453D01*
X-1105692Y-105337790D01*
X-872894Y-105251065D01*
X-796860Y-105194489D01*
X-674275Y-105057042D01*
X-625285Y-104892273D01*
X-620137Y-104775000D01*
X-671718Y-104517357D01*
X-808945Y-104331452D01*
X-1005539Y-104229002D01*
X-1235226Y-104221724D01*
X-1471728Y-104321334D01*
X-1533128Y-104367894D01*
X-1672081Y-104517101D01*
X-1724633Y-104683877D01*
X-1728500Y-104771985D01*
X-2527587Y-104771985D01*
X-2532876Y-104693452D01*
X-2454167Y-104328661D01*
X-2275344Y-103992656D01*
X-2000111Y-103706142D01*
X-1734726Y-103537238D01*
X-1450314Y-103452997D01*
X-1112206Y-103441229D01*
X-767719Y-103497425D01*
X-767719Y-103497425D01*
G37*
X-767719Y-103497425D02*
X-464168Y-103617076D01*
X-386737Y-103665671D01*
X-92747Y-103937073D01*
X89445Y-104262505D01*
X164088Y-104651121D01*
X163586Y-104851638D01*
X87773Y-105273614D01*
X-85395Y-105617652D01*
X-347737Y-105875988D01*
X-691068Y-106040853D01*
X-1107208Y-106104484D01*
X-1157000Y-106104969D01*
X-1406933Y-106091150D01*
X-1633463Y-106056788D01*
X-1760250Y-106019569D01*
X-1935220Y-105915728D01*
X-2111916Y-105772465D01*
X-2131272Y-105753500D01*
X-2375133Y-105426577D01*
X-2507766Y-105066326D01*
X-2527587Y-104771985D01*
X-1728500Y-104771985D01*
X-1675471Y-105024758D01*
X-1535189Y-105211845D01*
X-1335860Y-105320453D01*
X-1105692Y-105337790D01*
X-872894Y-105251065D01*
X-796860Y-105194489D01*
X-674275Y-105057042D01*
X-625285Y-104892273D01*
X-620137Y-104775000D01*
X-671718Y-104517357D01*
X-808945Y-104331452D01*
X-1005539Y-104229002D01*
X-1235226Y-104221724D01*
X-1471728Y-104321334D01*
X-1533128Y-104367894D01*
X-1672081Y-104517101D01*
X-1724633Y-104683877D01*
X-1728500Y-104771985D01*
X-2527587Y-104771985D01*
X-2532876Y-104693452D01*
X-2454167Y-104328661D01*
X-2275344Y-103992656D01*
X-2000111Y-103706142D01*
X-1734726Y-103537238D01*
X-1450314Y-103452997D01*
X-1112206Y-103441229D01*
X-767719Y-103497425D01*
G36*
X1046735Y-103473472D02*
G01*
X1114324Y-103520875D01*
X1143409Y-103614525D01*
X1171024Y-103804599D01*
X1193483Y-104060539D01*
X1204336Y-104267000D01*
X1226512Y-104633868D01*
X1265419Y-104896321D01*
X1328827Y-105076624D01*
X1424502Y-105197045D01*
X1557190Y-105278481D01*
X1820008Y-105342625D01*
X2060537Y-105282335D01*
X2188961Y-105193353D01*
X2266352Y-105120690D01*
X2318723Y-105043253D01*
X2352488Y-104934373D01*
X2374057Y-104767378D01*
X2389844Y-104515596D01*
X2398877Y-104320228D01*
X2415981Y-104024993D01*
X2438064Y-103773404D01*
X2462095Y-103594537D01*
X2482122Y-103520874D01*
X2586459Y-103459970D01*
X2754118Y-103444326D01*
X2930513Y-103472020D01*
X3061055Y-103541127D01*
X3061214Y-103541285D01*
X3106104Y-103612370D01*
X3135845Y-103733694D01*
X3153038Y-103927353D01*
X3160287Y-104215447D01*
X3161000Y-104388548D01*
X3158221Y-104722257D01*
X3146909Y-104960069D01*
X3122600Y-105133022D01*
X3080830Y-105272153D01*
X3017135Y-105408500D01*
X3013249Y-105415887D01*
X2865980Y-105627307D01*
X2671161Y-105826622D01*
X2596498Y-105885218D01*
X2425273Y-105991551D01*
X2257380Y-106053130D01*
X2042743Y-106084410D01*
X1871123Y-106094631D01*
X1561015Y-106094574D01*
X1341410Y-106059615D01*
X1224250Y-106012272D01*
X887750Y-105769835D01*
X627843Y-105456552D01*
X550887Y-105314750D01*
X489454Y-105116061D01*
X447444Y-104848075D01*
X424932Y-104542084D01*
X421994Y-104229379D01*
X438705Y-103941252D01*
X475140Y-103708996D01*
X531375Y-103563901D01*
X546625Y-103546591D01*
X696410Y-103469380D01*
X881934Y-103444155D01*
X1046735Y-103473472D01*
X1046735Y-103473472D01*
G37*
X1046735Y-103473472D02*
X1114324Y-103520875D01*
X1143409Y-103614525D01*
X1171024Y-103804599D01*
X1193483Y-104060539D01*
X1204336Y-104267000D01*
X1226512Y-104633868D01*
X1265419Y-104896321D01*
X1328827Y-105076624D01*
X1424502Y-105197045D01*
X1557190Y-105278481D01*
X1820008Y-105342625D01*
X2060537Y-105282335D01*
X2188961Y-105193353D01*
X2266352Y-105120690D01*
X2318723Y-105043253D01*
X2352488Y-104934373D01*
X2374057Y-104767378D01*
X2389844Y-104515596D01*
X2398877Y-104320228D01*
X2415981Y-104024993D01*
X2438064Y-103773404D01*
X2462095Y-103594537D01*
X2482122Y-103520874D01*
X2586459Y-103459970D01*
X2754118Y-103444326D01*
X2930513Y-103472020D01*
X3061055Y-103541127D01*
X3061214Y-103541285D01*
X3106104Y-103612370D01*
X3135845Y-103733694D01*
X3153038Y-103927353D01*
X3160287Y-104215447D01*
X3161000Y-104388548D01*
X3158221Y-104722257D01*
X3146909Y-104960069D01*
X3122600Y-105133022D01*
X3080830Y-105272153D01*
X3017135Y-105408500D01*
X3013249Y-105415887D01*
X2865980Y-105627307D01*
X2671161Y-105826622D01*
X2596498Y-105885218D01*
X2425273Y-105991551D01*
X2257380Y-106053130D01*
X2042743Y-106084410D01*
X1871123Y-106094631D01*
X1561015Y-106094574D01*
X1341410Y-106059615D01*
X1224250Y-106012272D01*
X887750Y-105769835D01*
X627843Y-105456552D01*
X550887Y-105314750D01*
X489454Y-105116061D01*
X447444Y-104848075D01*
X424932Y-104542084D01*
X421994Y-104229379D01*
X438705Y-103941252D01*
X475140Y-103708996D01*
X531375Y-103563901D01*
X546625Y-103546591D01*
X696410Y-103469380D01*
X881934Y-103444155D01*
X1046735Y-103473472D01*
G36*
X4031269Y-102633445D02*
G01*
X4161231Y-102689246D01*
X4164299Y-102692199D01*
X4209593Y-102797584D01*
X4236887Y-102977040D01*
X4240500Y-103073199D01*
X4240500Y-103378000D01*
X4802158Y-103378000D01*
X5135633Y-103390028D01*
X5361631Y-103432130D01*
X5497915Y-103513328D01*
X5562253Y-103642646D01*
X5574000Y-103770033D01*
X5547160Y-103929564D01*
X5455582Y-104038429D01*
X5282682Y-104104379D01*
X5011871Y-104135167D01*
X4782431Y-104140000D01*
X4223112Y-104140000D01*
X4257356Y-104566603D01*
X4283388Y-104807592D01*
X4324701Y-104964319D01*
X4397724Y-105079517D01*
X4489301Y-105169853D01*
X4699442Y-105307473D01*
X4915526Y-105334984D01*
X5164362Y-105253630D01*
X5254370Y-105205334D01*
X5497151Y-105114473D01*
X5705696Y-105130683D01*
X5860728Y-105249503D01*
X5916771Y-105358585D01*
X5931106Y-105560833D01*
X5839776Y-105741910D01*
X5663331Y-105894728D01*
X5422324Y-106012197D01*
X5137306Y-106087228D01*
X4828828Y-106112731D01*
X4517442Y-106081618D01*
X4223699Y-105986798D01*
X4171112Y-105960749D01*
X3960114Y-105813753D01*
X3760611Y-105618904D01*
X3700750Y-105542756D01*
X3510250Y-105272512D01*
X3490555Y-104034739D01*
X3485733Y-103554187D01*
X3488799Y-103190564D01*
X3500163Y-102934022D01*
X3520237Y-102774711D01*
X3545955Y-102706483D01*
X3664734Y-102643424D01*
X3846138Y-102618624D01*
X4031269Y-102633445D01*
X4031269Y-102633445D01*
G37*
X4031269Y-102633445D02*
X4161231Y-102689246D01*
X4164299Y-102692199D01*
X4209593Y-102797584D01*
X4236887Y-102977040D01*
X4240500Y-103073199D01*
X4240500Y-103378000D01*
X4802158Y-103378000D01*
X5135633Y-103390028D01*
X5361631Y-103432130D01*
X5497915Y-103513328D01*
X5562253Y-103642646D01*
X5574000Y-103770033D01*
X5547160Y-103929564D01*
X5455582Y-104038429D01*
X5282682Y-104104379D01*
X5011871Y-104135167D01*
X4782431Y-104140000D01*
X4223112Y-104140000D01*
X4257356Y-104566603D01*
X4283388Y-104807592D01*
X4324701Y-104964319D01*
X4397724Y-105079517D01*
X4489301Y-105169853D01*
X4699442Y-105307473D01*
X4915526Y-105334984D01*
X5164362Y-105253630D01*
X5254370Y-105205334D01*
X5497151Y-105114473D01*
X5705696Y-105130683D01*
X5860728Y-105249503D01*
X5916771Y-105358585D01*
X5931106Y-105560833D01*
X5839776Y-105741910D01*
X5663331Y-105894728D01*
X5422324Y-106012197D01*
X5137306Y-106087228D01*
X4828828Y-106112731D01*
X4517442Y-106081618D01*
X4223699Y-105986798D01*
X4171112Y-105960749D01*
X3960114Y-105813753D01*
X3760611Y-105618904D01*
X3700750Y-105542756D01*
X3510250Y-105272512D01*
X3490555Y-104034739D01*
X3485733Y-103554187D01*
X3488799Y-103190564D01*
X3500163Y-102934022D01*
X3520237Y-102774711D01*
X3545955Y-102706483D01*
X3664734Y-102643424D01*
X3846138Y-102618624D01*
X4031269Y-102633445D01*
G36*
X6730424Y-102677707D02*
G01*
X6802408Y-102732125D01*
X6881062Y-102901794D01*
X6907500Y-103162825D01*
X6907500Y-103477401D01*
X7346201Y-103452612D01*
X7722927Y-103453893D01*
X8016746Y-103514486D01*
X8262714Y-103646650D01*
X8485080Y-103850843D01*
X8649080Y-104054339D01*
X8761667Y-104266893D01*
X8831309Y-104518211D01*
X8866470Y-104837996D01*
X8875645Y-105221245D01*
X8865694Y-105581787D01*
X8830053Y-105833660D01*
X8760782Y-105993952D01*
X8649938Y-106079748D01*
X8489579Y-106108134D01*
X8463250Y-106108500D01*
X8298804Y-106088211D01*
X8183056Y-106015918D01*
X8108338Y-105874477D01*
X8066986Y-105646747D01*
X8051333Y-105315583D01*
X8050500Y-105185501D01*
X8048772Y-104892792D01*
X8039259Y-104697479D01*
X8015462Y-104569963D01*
X7970886Y-104480646D01*
X7899033Y-104399930D01*
X7872400Y-104374130D01*
X7646393Y-104231973D01*
X7405389Y-104212805D01*
X7167655Y-104317050D01*
X7117538Y-104356646D01*
X7041004Y-104428280D01*
X6988942Y-104504393D01*
X6955186Y-104611178D01*
X6933566Y-104774828D01*
X6917916Y-105021539D01*
X6907622Y-105248101D01*
X6889375Y-105592862D01*
X6863020Y-105830512D01*
X6818692Y-105980928D01*
X6746527Y-106063986D01*
X6636661Y-106099563D01*
X6481109Y-106107527D01*
X6291681Y-106067978D01*
X6211234Y-105985674D01*
X6188531Y-105880815D01*
X6170444Y-105674007D01*
X6156906Y-105386574D01*
X6147848Y-105039840D01*
X6143203Y-104655129D01*
X6142904Y-104253766D01*
X6146882Y-103857074D01*
X6155070Y-103486378D01*
X6167399Y-103163003D01*
X6183803Y-102908272D01*
X6204213Y-102743509D01*
X6221700Y-102692199D01*
X6363262Y-102627087D01*
X6552986Y-102623641D01*
X6730424Y-102677707D01*
X6730424Y-102677707D01*
G37*
X6730424Y-102677707D02*
X6802408Y-102732125D01*
X6881062Y-102901794D01*
X6907500Y-103162825D01*
X6907500Y-103477401D01*
X7346201Y-103452612D01*
X7722927Y-103453893D01*
X8016746Y-103514486D01*
X8262714Y-103646650D01*
X8485080Y-103850843D01*
X8649080Y-104054339D01*
X8761667Y-104266893D01*
X8831309Y-104518211D01*
X8866470Y-104837996D01*
X8875645Y-105221245D01*
X8865694Y-105581787D01*
X8830053Y-105833660D01*
X8760782Y-105993952D01*
X8649938Y-106079748D01*
X8489579Y-106108134D01*
X8463250Y-106108500D01*
X8298804Y-106088211D01*
X8183056Y-106015918D01*
X8108338Y-105874477D01*
X8066986Y-105646747D01*
X8051333Y-105315583D01*
X8050500Y-105185501D01*
X8048772Y-104892792D01*
X8039259Y-104697479D01*
X8015462Y-104569963D01*
X7970886Y-104480646D01*
X7899033Y-104399930D01*
X7872400Y-104374130D01*
X7646393Y-104231973D01*
X7405389Y-104212805D01*
X7167655Y-104317050D01*
X7117538Y-104356646D01*
X7041004Y-104428280D01*
X6988942Y-104504393D01*
X6955186Y-104611178D01*
X6933566Y-104774828D01*
X6917916Y-105021539D01*
X6907622Y-105248101D01*
X6889375Y-105592862D01*
X6863020Y-105830512D01*
X6818692Y-105980928D01*
X6746527Y-106063986D01*
X6636661Y-106099563D01*
X6481109Y-106107527D01*
X6291681Y-106067978D01*
X6211234Y-105985674D01*
X6188531Y-105880815D01*
X6170444Y-105674007D01*
X6156906Y-105386574D01*
X6147848Y-105039840D01*
X6143203Y-104655129D01*
X6142904Y-104253766D01*
X6146882Y-103857074D01*
X6155070Y-103486378D01*
X6167399Y-103163003D01*
X6183803Y-102908272D01*
X6204213Y-102743509D01*
X6221700Y-102692199D01*
X6363262Y-102627087D01*
X6552986Y-102623641D01*
X6730424Y-102677707D01*
G36*
X13591469Y-103450740D02*
G01*
X13772308Y-103489913D01*
X13945308Y-103576194D01*
X14055525Y-103647875D01*
X14272552Y-103815933D01*
X14428811Y-103996739D01*
X14534437Y-104215361D01*
X14599566Y-104496863D01*
X14634334Y-104866315D01*
X14643816Y-105102848D01*
X14649807Y-105483025D01*
X14638373Y-105754456D01*
X14602990Y-105934929D01*
X14537137Y-106042227D01*
X14434290Y-106094138D01*
X14287927Y-106108446D01*
X14275013Y-106108500D01*
X14107123Y-106094196D01*
X14000487Y-106058703D01*
X13989249Y-106047426D01*
X13900942Y-106019002D01*
X13790868Y-106047426D01*
X13568617Y-106094252D01*
X13284667Y-106104906D01*
X12995148Y-106081624D01*
X12756187Y-106026642D01*
X12702272Y-106004065D01*
X12401960Y-105792387D01*
X12157351Y-105497176D01*
X11990878Y-105153893D01*
X11924976Y-104797996D01*
X11924913Y-104792581D01*
X12749518Y-104792581D01*
X12801349Y-105000664D01*
X12920778Y-105178164D01*
X13090742Y-105303517D01*
X13294176Y-105355163D01*
X13514016Y-105311540D01*
X13615619Y-105253779D01*
X13785466Y-105067271D01*
X13862265Y-104832970D01*
X13832548Y-104593491D01*
X13827952Y-104581970D01*
X13679528Y-104358412D01*
X13476274Y-104230398D01*
X13246793Y-104204555D01*
X13019688Y-104287508D01*
X12916909Y-104370909D01*
X12782350Y-104575475D01*
X12749518Y-104792581D01*
X11924913Y-104792581D01*
X11924708Y-104775000D01*
X11979241Y-104439210D01*
X12127231Y-104105585D01*
X12345259Y-103810343D01*
X12609908Y-103589701D01*
X12731585Y-103527042D01*
X12906410Y-103480940D01*
X13148044Y-103449883D01*
X13343534Y-103441500D01*
X13591469Y-103450740D01*
X13591469Y-103450740D01*
G37*
X13591469Y-103450740D02*
X13772308Y-103489913D01*
X13945308Y-103576194D01*
X14055525Y-103647875D01*
X14272552Y-103815933D01*
X14428811Y-103996739D01*
X14534437Y-104215361D01*
X14599566Y-104496863D01*
X14634334Y-104866315D01*
X14643816Y-105102848D01*
X14649807Y-105483025D01*
X14638373Y-105754456D01*
X14602990Y-105934929D01*
X14537137Y-106042227D01*
X14434290Y-106094138D01*
X14287927Y-106108446D01*
X14275013Y-106108500D01*
X14107123Y-106094196D01*
X14000487Y-106058703D01*
X13989249Y-106047426D01*
X13900942Y-106019002D01*
X13790868Y-106047426D01*
X13568617Y-106094252D01*
X13284667Y-106104906D01*
X12995148Y-106081624D01*
X12756187Y-106026642D01*
X12702272Y-106004065D01*
X12401960Y-105792387D01*
X12157351Y-105497176D01*
X11990878Y-105153893D01*
X11924976Y-104797996D01*
X11924913Y-104792581D01*
X12749518Y-104792581D01*
X12801349Y-105000664D01*
X12920778Y-105178164D01*
X13090742Y-105303517D01*
X13294176Y-105355163D01*
X13514016Y-105311540D01*
X13615619Y-105253779D01*
X13785466Y-105067271D01*
X13862265Y-104832970D01*
X13832548Y-104593491D01*
X13827952Y-104581970D01*
X13679528Y-104358412D01*
X13476274Y-104230398D01*
X13246793Y-104204555D01*
X13019688Y-104287508D01*
X12916909Y-104370909D01*
X12782350Y-104575475D01*
X12749518Y-104792581D01*
X11924913Y-104792581D01*
X11924708Y-104775000D01*
X11979241Y-104439210D01*
X12127231Y-104105585D01*
X12345259Y-103810343D01*
X12609908Y-103589701D01*
X12731585Y-103527042D01*
X12906410Y-103480940D01*
X13148044Y-103449883D01*
X13343534Y-103441500D01*
X13591469Y-103450740D01*
G36*
X15502970Y-103448536D02*
G01*
X15646194Y-103507187D01*
X15657799Y-103517699D01*
X15695631Y-103621718D01*
X15720514Y-103846543D01*
X15732647Y-104194439D01*
X15734000Y-104398924D01*
X15738777Y-104776781D01*
X15756540Y-105044015D01*
X15792433Y-105216763D01*
X15851602Y-105311162D01*
X15939192Y-105343346D01*
X16032574Y-105335259D01*
X16091347Y-105304831D01*
X16130596Y-105223802D01*
X16157059Y-105067140D01*
X16177475Y-104809818D01*
X16178500Y-104793176D01*
X16200586Y-104544124D01*
X16231161Y-104343094D01*
X16264569Y-104224649D01*
X16273750Y-104210904D01*
X16454386Y-104114806D01*
X16663366Y-104117442D01*
X16817514Y-104193820D01*
X16898592Y-104275425D01*
X16949859Y-104381968D01*
X16981383Y-104547045D01*
X17003228Y-104804252D01*
X17004000Y-104816249D01*
X17025021Y-105073067D01*
X17052500Y-105228356D01*
X17093598Y-105307587D01*
X17149925Y-105335265D01*
X17263795Y-105341038D01*
X17345150Y-105297434D01*
X17399138Y-105188316D01*
X17430902Y-104997548D01*
X17445588Y-104708993D01*
X17448500Y-104398924D01*
X17451739Y-104030929D01*
X17466100Y-103771203D01*
X17498552Y-103601086D01*
X17556059Y-103501914D01*
X17645588Y-103455026D01*
X17774108Y-103441760D01*
X17805914Y-103441500D01*
X17954585Y-103451511D01*
X18061874Y-103493235D01*
X18134418Y-103584204D01*
X18178850Y-103741952D01*
X18201806Y-103984013D01*
X18209921Y-104327919D01*
X18210500Y-104510651D01*
X18203881Y-104939779D01*
X18179510Y-105264554D01*
X18130614Y-105507148D01*
X18050420Y-105689733D01*
X17932154Y-105834482D01*
X17769043Y-105963565D01*
X17766032Y-105965625D01*
X17557323Y-106057252D01*
X17293528Y-106105387D01*
X17023547Y-106107519D01*
X16796279Y-106061139D01*
X16714827Y-106019594D01*
X16600094Y-105963071D01*
X16497083Y-105998076D01*
X16466312Y-106019594D01*
X16293327Y-106086253D01*
X16049549Y-106109544D01*
X15782899Y-106091216D01*
X15541300Y-106033018D01*
X15431794Y-105981843D01*
X15262900Y-105863641D01*
X15140438Y-105731537D01*
X15057278Y-105563545D01*
X15006294Y-105337679D01*
X14980356Y-105031952D01*
X14972335Y-104624378D01*
X14972237Y-104564450D01*
X14976767Y-104232703D01*
X14989357Y-103939866D01*
X15008227Y-103713104D01*
X15031598Y-103579580D01*
X15037734Y-103564325D01*
X15144414Y-103481190D01*
X15317601Y-103441232D01*
X15502970Y-103448536D01*
X15502970Y-103448536D01*
G37*
X15502970Y-103448536D02*
X15646194Y-103507187D01*
X15657799Y-103517699D01*
X15695631Y-103621718D01*
X15720514Y-103846543D01*
X15732647Y-104194439D01*
X15734000Y-104398924D01*
X15738777Y-104776781D01*
X15756540Y-105044015D01*
X15792433Y-105216763D01*
X15851602Y-105311162D01*
X15939192Y-105343346D01*
X16032574Y-105335259D01*
X16091347Y-105304831D01*
X16130596Y-105223802D01*
X16157059Y-105067140D01*
X16177475Y-104809818D01*
X16178500Y-104793176D01*
X16200586Y-104544124D01*
X16231161Y-104343094D01*
X16264569Y-104224649D01*
X16273750Y-104210904D01*
X16454386Y-104114806D01*
X16663366Y-104117442D01*
X16817514Y-104193820D01*
X16898592Y-104275425D01*
X16949859Y-104381968D01*
X16981383Y-104547045D01*
X17003228Y-104804252D01*
X17004000Y-104816249D01*
X17025021Y-105073067D01*
X17052500Y-105228356D01*
X17093598Y-105307587D01*
X17149925Y-105335265D01*
X17263795Y-105341038D01*
X17345150Y-105297434D01*
X17399138Y-105188316D01*
X17430902Y-104997548D01*
X17445588Y-104708993D01*
X17448500Y-104398924D01*
X17451739Y-104030929D01*
X17466100Y-103771203D01*
X17498552Y-103601086D01*
X17556059Y-103501914D01*
X17645588Y-103455026D01*
X17774108Y-103441760D01*
X17805914Y-103441500D01*
X17954585Y-103451511D01*
X18061874Y-103493235D01*
X18134418Y-103584204D01*
X18178850Y-103741952D01*
X18201806Y-103984013D01*
X18209921Y-104327919D01*
X18210500Y-104510651D01*
X18203881Y-104939779D01*
X18179510Y-105264554D01*
X18130614Y-105507148D01*
X18050420Y-105689733D01*
X17932154Y-105834482D01*
X17769043Y-105963565D01*
X17766032Y-105965625D01*
X17557323Y-106057252D01*
X17293528Y-106105387D01*
X17023547Y-106107519D01*
X16796279Y-106061139D01*
X16714827Y-106019594D01*
X16600094Y-105963071D01*
X16497083Y-105998076D01*
X16466312Y-106019594D01*
X16293327Y-106086253D01*
X16049549Y-106109544D01*
X15782899Y-106091216D01*
X15541300Y-106033018D01*
X15431794Y-105981843D01*
X15262900Y-105863641D01*
X15140438Y-105731537D01*
X15057278Y-105563545D01*
X15006294Y-105337679D01*
X14980356Y-105031952D01*
X14972335Y-104624378D01*
X14972237Y-104564450D01*
X14976767Y-104232703D01*
X14989357Y-103939866D01*
X15008227Y-103713104D01*
X15031598Y-103579580D01*
X15037734Y-103564325D01*
X15144414Y-103481190D01*
X15317601Y-103441232D01*
X15502970Y-103448536D01*
G04 #@! TD*
M02*
