G04 #@! TF.GenerationSoftware,KiCad,Pcbnew,(5.1.4)-1*
G04 #@! TF.CreationDate,2020-10-07T14:28:25-04:00*
G04 #@! TF.ProjectId,southpawplate,736f7574-6870-4617-9770-6c6174652e6b,rev?*
G04 #@! TF.SameCoordinates,Original*
G04 #@! TF.FileFunction,Legend,Top*
G04 #@! TF.FilePolarity,Positive*
%FSLAX46Y46*%
G04 Gerber Fmt 4.6, Leading zero omitted, Abs format (unit mm)*
G04 Created by KiCad (PCBNEW (5.1.4)-1) date 2020-10-07 14:28:25*
%MOMM*%
%LPD*%
G04 APERTURE LIST*
%ADD10C,0.010000*%
G04 APERTURE END LIST*
D10*
G04 #@! TO.C,G\002A\002A\002A*
G36*
X29932012Y-102043911D02*
G01*
X30221020Y-102098357D01*
X30407703Y-102163405D01*
X30629634Y-102301432D01*
X30828292Y-102484343D01*
X30972772Y-102681562D01*
X31008602Y-102757950D01*
X31050386Y-102969589D01*
X31044462Y-103223113D01*
X30993886Y-103472401D01*
X30954249Y-103577891D01*
X30805559Y-103819418D01*
X30562733Y-104095941D01*
X30225528Y-104407687D01*
X29793700Y-104754888D01*
X29385767Y-105054201D01*
X28553734Y-105644600D01*
X29543279Y-105658348D01*
X30532824Y-105672097D01*
X30423909Y-106217148D01*
X30314994Y-106762200D01*
X28546207Y-106775564D01*
X28067937Y-106778655D01*
X27682195Y-106779759D01*
X27379922Y-106778579D01*
X27152060Y-106774818D01*
X26989551Y-106768181D01*
X26883336Y-106758370D01*
X26824357Y-106745089D01*
X26803555Y-106728042D01*
X26804423Y-106718559D01*
X26827610Y-106628796D01*
X26855611Y-106481443D01*
X26868496Y-106400992D01*
X26883628Y-106309995D01*
X26905163Y-106232161D01*
X26942796Y-106156872D01*
X27006222Y-106073510D01*
X27105138Y-105971456D01*
X27249239Y-105840092D01*
X27448222Y-105668798D01*
X27711782Y-105446956D01*
X27830200Y-105347767D01*
X28205604Y-105030883D01*
X28512667Y-104765524D01*
X28763220Y-104540807D01*
X28969095Y-104345849D01*
X29142124Y-104169765D01*
X29294137Y-104001673D01*
X29296271Y-103999211D01*
X29504808Y-103734113D01*
X29639449Y-103496785D01*
X29711955Y-103260361D01*
X29734084Y-102999155D01*
X29728312Y-102814669D01*
X29702651Y-102696609D01*
X29647067Y-102610278D01*
X29611128Y-102573950D01*
X29528618Y-102509457D01*
X29435858Y-102477703D01*
X29299038Y-102471420D01*
X29164466Y-102477932D01*
X28888042Y-102520842D01*
X28678108Y-102619726D01*
X28511412Y-102790451D01*
X28382651Y-103011427D01*
X28300695Y-103207514D01*
X28251153Y-103409806D01*
X28224273Y-103661200D01*
X28220591Y-103724332D01*
X28201984Y-103959056D01*
X28175905Y-104093898D01*
X28142068Y-104130324D01*
X28141175Y-104130008D01*
X28063537Y-104107743D01*
X27921075Y-104072560D01*
X27785950Y-104041417D01*
X27487701Y-103974680D01*
X27511901Y-103636459D01*
X27576509Y-103274864D01*
X27709333Y-102924313D01*
X27894836Y-102624449D01*
X27921069Y-102592369D01*
X28096415Y-102436422D01*
X28341267Y-102286803D01*
X28624004Y-102159657D01*
X28913009Y-102071128D01*
X28962221Y-102060741D01*
X29269937Y-102022782D01*
X29604093Y-102017946D01*
X29932012Y-102043911D01*
X29932012Y-102043911D01*
G37*
X29932012Y-102043911D02*
X30221020Y-102098357D01*
X30407703Y-102163405D01*
X30629634Y-102301432D01*
X30828292Y-102484343D01*
X30972772Y-102681562D01*
X31008602Y-102757950D01*
X31050386Y-102969589D01*
X31044462Y-103223113D01*
X30993886Y-103472401D01*
X30954249Y-103577891D01*
X30805559Y-103819418D01*
X30562733Y-104095941D01*
X30225528Y-104407687D01*
X29793700Y-104754888D01*
X29385767Y-105054201D01*
X28553734Y-105644600D01*
X29543279Y-105658348D01*
X30532824Y-105672097D01*
X30423909Y-106217148D01*
X30314994Y-106762200D01*
X28546207Y-106775564D01*
X28067937Y-106778655D01*
X27682195Y-106779759D01*
X27379922Y-106778579D01*
X27152060Y-106774818D01*
X26989551Y-106768181D01*
X26883336Y-106758370D01*
X26824357Y-106745089D01*
X26803555Y-106728042D01*
X26804423Y-106718559D01*
X26827610Y-106628796D01*
X26855611Y-106481443D01*
X26868496Y-106400992D01*
X26883628Y-106309995D01*
X26905163Y-106232161D01*
X26942796Y-106156872D01*
X27006222Y-106073510D01*
X27105138Y-105971456D01*
X27249239Y-105840092D01*
X27448222Y-105668798D01*
X27711782Y-105446956D01*
X27830200Y-105347767D01*
X28205604Y-105030883D01*
X28512667Y-104765524D01*
X28763220Y-104540807D01*
X28969095Y-104345849D01*
X29142124Y-104169765D01*
X29294137Y-104001673D01*
X29296271Y-103999211D01*
X29504808Y-103734113D01*
X29639449Y-103496785D01*
X29711955Y-103260361D01*
X29734084Y-102999155D01*
X29728312Y-102814669D01*
X29702651Y-102696609D01*
X29647067Y-102610278D01*
X29611128Y-102573950D01*
X29528618Y-102509457D01*
X29435858Y-102477703D01*
X29299038Y-102471420D01*
X29164466Y-102477932D01*
X28888042Y-102520842D01*
X28678108Y-102619726D01*
X28511412Y-102790451D01*
X28382651Y-103011427D01*
X28300695Y-103207514D01*
X28251153Y-103409806D01*
X28224273Y-103661200D01*
X28220591Y-103724332D01*
X28201984Y-103959056D01*
X28175905Y-104093898D01*
X28142068Y-104130324D01*
X28141175Y-104130008D01*
X28063537Y-104107743D01*
X27921075Y-104072560D01*
X27785950Y-104041417D01*
X27487701Y-103974680D01*
X27511901Y-103636459D01*
X27576509Y-103274864D01*
X27709333Y-102924313D01*
X27894836Y-102624449D01*
X27921069Y-102592369D01*
X28096415Y-102436422D01*
X28341267Y-102286803D01*
X28624004Y-102159657D01*
X28913009Y-102071128D01*
X28962221Y-102060741D01*
X29269937Y-102022782D01*
X29604093Y-102017946D01*
X29932012Y-102043911D01*
G36*
X24667900Y-103293625D02*
G01*
X25341000Y-103307800D01*
X25468000Y-104400000D01*
X25507118Y-104719201D01*
X25545458Y-105000753D01*
X25580744Y-105230279D01*
X25610699Y-105393401D01*
X25633047Y-105475743D01*
X25639455Y-105482821D01*
X25674437Y-105437007D01*
X25748913Y-105313343D01*
X25855901Y-105124324D01*
X25988419Y-104882446D01*
X26139485Y-104600204D01*
X26249753Y-104390621D01*
X26815596Y-103307800D01*
X27005398Y-103307800D01*
X27131457Y-103313993D01*
X27203141Y-103329313D01*
X27207900Y-103333606D01*
X27187635Y-103382645D01*
X27124416Y-103511311D01*
X27023364Y-103709726D01*
X26889601Y-103968009D01*
X26728249Y-104276283D01*
X26544430Y-104624670D01*
X26343265Y-105003289D01*
X26306200Y-105072781D01*
X25391800Y-106786149D01*
X24948267Y-106786874D01*
X24734676Y-106785549D01*
X24601693Y-106777331D01*
X24528344Y-106757141D01*
X24493652Y-106719897D01*
X24479391Y-106673300D01*
X24465964Y-106595789D01*
X24440760Y-106434646D01*
X24405913Y-106204592D01*
X24363558Y-105920345D01*
X24315830Y-105596628D01*
X24264862Y-105248158D01*
X24212789Y-104889658D01*
X24161746Y-104535846D01*
X24113868Y-104201444D01*
X24071288Y-103901171D01*
X24036141Y-103649747D01*
X24010561Y-103461892D01*
X23996684Y-103352328D01*
X23994800Y-103331358D01*
X24044578Y-103309002D01*
X24190536Y-103295398D01*
X24427606Y-103290830D01*
X24667900Y-103293625D01*
X24667900Y-103293625D01*
G37*
X24667900Y-103293625D02*
X25341000Y-103307800D01*
X25468000Y-104400000D01*
X25507118Y-104719201D01*
X25545458Y-105000753D01*
X25580744Y-105230279D01*
X25610699Y-105393401D01*
X25633047Y-105475743D01*
X25639455Y-105482821D01*
X25674437Y-105437007D01*
X25748913Y-105313343D01*
X25855901Y-105124324D01*
X25988419Y-104882446D01*
X26139485Y-104600204D01*
X26249753Y-104390621D01*
X26815596Y-103307800D01*
X27005398Y-103307800D01*
X27131457Y-103313993D01*
X27203141Y-103329313D01*
X27207900Y-103333606D01*
X27187635Y-103382645D01*
X27124416Y-103511311D01*
X27023364Y-103709726D01*
X26889601Y-103968009D01*
X26728249Y-104276283D01*
X26544430Y-104624670D01*
X26343265Y-105003289D01*
X26306200Y-105072781D01*
X25391800Y-106786149D01*
X24948267Y-106786874D01*
X24734676Y-106785549D01*
X24601693Y-106777331D01*
X24528344Y-106757141D01*
X24493652Y-106719897D01*
X24479391Y-106673300D01*
X24465964Y-106595789D01*
X24440760Y-106434646D01*
X24405913Y-106204592D01*
X24363558Y-105920345D01*
X24315830Y-105596628D01*
X24264862Y-105248158D01*
X24212789Y-104889658D01*
X24161746Y-104535846D01*
X24113868Y-104201444D01*
X24071288Y-103901171D01*
X24036141Y-103649747D01*
X24010561Y-103461892D01*
X23996684Y-103352328D01*
X23994800Y-103331358D01*
X24044578Y-103309002D01*
X24190536Y-103295398D01*
X24427606Y-103290830D01*
X24667900Y-103293625D01*
G04 #@! TD*
M02*
