M48
; DRILL file {KiCad (5.1.4)-1} date 9/27/2020 5:36:20
; FORMAT={-:-/ absolute / inch / decimal}
; #@! TF.CreationDate,2020-09-27T05:36:20-04:00
; #@! TF.GenerationSoftware,Kicad,Pcbnew,(5.1.4)-1
; #@! TF.FileFunction,NonPlated,1,2,NPTH
FMAT,2
INCH
T1C0.0689
T2C0.1200
T3C0.1570
%
G90
G05
T1
X6.52Y1.75
X6.92Y1.75
X12.5232Y0.2512
X12.9232Y0.2512
X2.3Y0.25
X2.7Y0.25
X-0.9645Y2.325
X-0.9645Y1.925
X10.46Y3.25
X10.86Y3.25
X6.145Y1.0
X6.545Y1.0
X9.8035Y0.2504
X10.2035Y0.2504
X8.21Y3.25
X8.61Y3.25
X12.6165Y0.2528
X13.0165Y0.2528
X10.7433Y0.2524
X11.1433Y0.2524
X11.5831Y2.5006
X11.9831Y2.5006
X4.835Y2.5
X5.235Y2.5
X-1.1645Y1.0
X-0.7645Y1.0
X12.5214Y2.5008
X12.9214Y2.5008
X12.7102Y0.2528
X13.1102Y0.2528
X4.27Y0.25
X4.67Y0.25
X-0.4145Y3.25
X-0.0145Y3.25
X10.93Y1.0
X11.33Y1.0
X9.71Y3.25
X10.11Y3.25
X4.175Y0.25
X4.575Y0.25
X1.0855Y3.25
X1.4855Y3.25
X1.0855Y1.0
X1.4855Y1.0
X11.6795Y0.2524
X12.0795Y0.2524
X11.2091Y0.2512
X11.6091Y0.2512
X4.085Y2.5
X4.485Y2.5
X2.208Y3.25
X2.608Y3.25
X-1.1645Y3.25
X-0.7645Y3.25
X9.145Y1.0
X9.545Y1.0
X3.235Y0.25
X3.635Y0.25
X-0.4145Y1.0
X-0.0145Y1.0
X7.835Y2.5
X8.235Y2.5
X5.395Y1.0
X5.795Y1.0
X2.4885Y1.7499
X2.8885Y1.7499
X7.27Y1.75
X7.67Y1.75
X12.3332Y3.2502
X12.7332Y3.2502
X10.835Y2.5
X11.235Y2.5
X6.335Y2.5
X6.735Y2.5
X6.9882Y0.2506
X7.3882Y0.2506
X10.6457Y0.25
X11.0457Y0.25
X5.77Y1.75
X6.17Y1.75
X12.71Y3.25
X13.11Y3.25
X8.7701Y1.7486
X9.1701Y1.7486
X11.21Y3.25
X11.61Y3.25
X7.46Y3.25
X7.86Y3.25
X4.645Y1.0
X5.045Y1.0
X0.3355Y0.25
X0.7355Y0.25
X10.645Y1.0
X11.045Y1.0
X5.585Y2.5
X5.985Y2.5
X-0.4145Y2.5
X-0.0145Y2.5
X6.71Y3.25
X7.11Y3.25
X9.7059Y0.2504
X10.1059Y0.2504
X11.02Y1.75
X11.42Y1.75
X5.02Y1.75
X5.42Y1.75
X-1.1645Y0.25
X-0.7645Y0.25
X9.895Y1.0
X10.295Y1.0
X3.33Y0.25
X3.73Y0.25
X0.3355Y2.5
X0.7355Y2.5
X11.585Y0.2496
X11.985Y0.2496
X3.335Y2.5
X3.735Y2.5
X0.7094Y0.252
X1.1094Y0.252
X0.3355Y1.0
X0.7355Y1.0
X8.395Y1.0
X8.795Y1.0
X3.7087Y3.25
X4.1087Y3.25
X2.675Y1.0
X3.075Y1.0
X-0.4145Y1.75
X-0.0145Y1.75
X8.02Y1.75
X8.42Y1.75
X0.3355Y3.25
X0.7355Y3.25
X7.085Y2.5
X7.485Y2.5
X11.96Y3.25
X12.36Y3.25
X10.4591Y0.2516
X10.8591Y0.2516
X11.9594Y1.0008
X12.3594Y1.0008
X5.96Y3.25
X6.36Y3.25
X-0.9645Y0.825
X-0.9645Y0.425
X10.085Y2.5
X10.485Y2.5
X6.895Y1.0
X7.295Y1.0
X12.71Y1.0
X13.11Y1.0
X11.9591Y0.2512
X12.3591Y0.2512
X11.6764Y1.0024
X12.0764Y1.0024
X8.96Y3.25
X9.36Y3.25
X3.895Y1.0
X4.295Y1.0
X0.3355Y1.75
X0.7355Y1.75
X7.455Y0.25
X7.855Y0.25
X12.0516Y1.0008
X12.4516Y1.0008
X4.46Y3.25
X4.86Y3.25
X1.0855Y2.5
X1.4855Y2.5
X12.2408Y1.7508
X12.6408Y1.7508
X10.27Y1.75
X10.67Y1.75
X4.27Y1.75
X4.67Y1.75
X-1.1645Y2.5
X-0.7645Y2.5
X9.5197Y1.7512
X9.9197Y1.7512
X3.52Y1.75
X3.92Y1.75
X2.395Y2.5
X2.795Y2.5
X9.335Y2.5
X9.735Y2.5
X2.9578Y3.2493
X3.3578Y3.2493
X2.395Y0.25
X2.795Y0.25
X1.0855Y0.25
X1.4855Y0.25
X8.585Y2.5
X8.985Y2.5
X-0.4145Y0.25
X-0.0145Y0.25
X5.21Y3.25
X5.61Y3.25
X1.0855Y1.75
X1.4855Y1.75
X-1.1645Y1.75
X-0.7645Y1.75
X7.645Y1.0
X8.045Y1.0
T2
X12.0645Y3.5252
X13.002Y3.5252
X5.2197Y-0.0244
X9.1567Y-0.0244
X0.4407Y-0.023
X1.3782Y-0.023
X2.4062Y1.275
X3.3438Y1.275
X-1.2395Y1.0938
X-1.2395Y0.1562
X5.405Y-0.025
X9.905Y-0.025
X11.7828Y1.2758
X12.7203Y1.2758
X11.972Y2.0258
X12.9095Y2.0258
X-1.2395Y2.5938
X-1.2395Y1.6562
T3
X12.8165Y0.2528
X10.9433Y0.2524
X11.7831Y2.5006
X5.035Y2.5
X-0.9645Y1.0
X12.7214Y2.5008
X12.9102Y0.2528
X4.47Y0.25
X-0.2145Y3.25
X11.13Y1.0
X9.91Y3.25
X4.375Y0.25
X1.2855Y3.25
X1.2855Y1.0
X11.8795Y0.2524
X11.4091Y0.2512
X4.285Y2.5
X2.408Y3.25
X-0.9645Y3.25
X9.345Y1.0
X3.435Y0.25
X-0.2145Y1.0
X8.035Y2.5
X5.595Y1.0
X2.6885Y1.7499
X7.47Y1.75
X12.0645Y2.9252
X12.5332Y3.2502
X13.002Y2.9252
X11.035Y2.5
X6.535Y2.5
X5.2197Y0.5756
X7.1882Y0.2506
X9.1567Y0.5756
X10.8457Y0.25
X5.97Y1.75
X12.91Y3.25
X8.9701Y1.7486
X11.41Y3.25
X7.66Y3.25
X4.845Y1.0
X0.5355Y0.25
X10.845Y1.0
X5.785Y2.5
X-0.2145Y2.5
X6.91Y3.25
X9.9059Y0.2504
X11.22Y1.75
X5.22Y1.75
X-0.9645Y0.25
X10.095Y1.0
X3.53Y0.25
X0.5355Y2.5
X11.785Y0.2496
X3.535Y2.5
X0.4407Y0.577
X0.9094Y0.252
X1.3782Y0.577
X0.5355Y1.0
X8.595Y1.0
X3.9087Y3.25
X2.4062Y0.675
X2.875Y1.0
X3.3438Y0.675
X-0.2145Y1.75
X8.22Y1.75
X0.5355Y3.25
X7.285Y2.5
X12.16Y3.25
X10.6591Y0.2516
X12.1594Y1.0008
X6.16Y3.25
X-0.9645Y0.625
X-0.6395Y1.0938
X-0.6395Y0.1562
X10.285Y2.5
X7.095Y1.0
X12.91Y1.0
X12.1591Y0.2512
X11.8764Y1.0024
X9.16Y3.25
X4.095Y1.0
X0.5355Y1.75
X5.405Y0.575
X7.655Y0.25
X9.905Y0.575
X11.7828Y0.6758
X12.2516Y1.0008
X12.7203Y0.6758
X4.66Y3.25
X1.2855Y2.5
X11.972Y1.4258
X12.4408Y1.7508
X12.9095Y1.4258
X10.47Y1.75
X4.47Y1.75
X-0.9645Y2.5
X9.7197Y1.7512
X3.72Y1.75
X2.595Y2.5
X9.535Y2.5
X3.1578Y3.2493
X2.595Y0.25
X1.2855Y0.25
X8.785Y2.5
X-0.2145Y0.25
X5.41Y3.25
X1.2855Y1.75
X-0.9645Y1.75
X7.845Y1.0
X6.72Y1.75
X12.7232Y0.2512
X2.5Y0.25
X-0.9645Y2.125
X-0.6395Y2.5938
X-0.6395Y1.6562
X10.66Y3.25
X6.345Y1.0
X10.0035Y0.2504
X8.41Y3.25
T0
M30
