G04 #@! TF.GenerationSoftware,KiCad,Pcbnew,(5.1.4)-1*
G04 #@! TF.CreationDate,2020-10-17T07:59:48-04:00*
G04 #@! TF.ProjectId,southpaw daughter board,736f7574-6870-4617-9720-646175676874,rev?*
G04 #@! TF.SameCoordinates,Original*
G04 #@! TF.FileFunction,Soldermask,Bot*
G04 #@! TF.FilePolarity,Negative*
%FSLAX46Y46*%
G04 Gerber Fmt 4.6, Leading zero omitted, Abs format (unit mm)*
G04 Created by KiCad (PCBNEW (5.1.4)-1) date 2020-10-17 07:59:48*
%MOMM*%
%LPD*%
G04 APERTURE LIST*
%ADD10C,1.850000*%
%ADD11C,2.100000*%
%ADD12C,4.087800*%
%ADD13C,2.350000*%
%ADD14C,3.148000*%
%ADD15R,1.300000X1.900000*%
%ADD16R,0.700000X1.650000*%
%ADD17R,1.300000X1.000000*%
%ADD18R,1.500000X1.300000*%
%ADD19C,0.100000*%
%ADD20C,1.075000*%
%ADD21C,1.408000*%
%ADD22C,0.650000*%
G04 APERTURE END LIST*
D10*
G04 #@! TO.C,MX51*
X256690000Y6360000D03*
X246530000Y6360000D03*
D11*
X247800000Y8900000D03*
D12*
X251610000Y6360000D03*
D11*
X254150000Y11440000D03*
G04 #@! TD*
D13*
G04 #@! TO.C,MX19*
X35191000Y87630000D03*
D12*
X32651000Y82550000D03*
D13*
X28841000Y85090000D03*
D10*
X27571000Y82550000D03*
X37731000Y82550000D03*
G04 #@! TD*
D13*
G04 #@! TO.C,MX13*
X25640000Y11480000D03*
D12*
X23100000Y6400000D03*
D13*
X19290000Y8940000D03*
D10*
X18020000Y6400000D03*
X28180000Y6400000D03*
D14*
X11193750Y-585000D03*
X35006250Y-585000D03*
D12*
X11193750Y14655000D03*
X35006250Y14655000D03*
G04 #@! TD*
D11*
G04 #@! TO.C,MX29*
X68453000Y11430000D03*
D12*
X65913000Y6350000D03*
D11*
X62103000Y8890000D03*
D10*
X60833000Y6350000D03*
X70993000Y6350000D03*
G04 #@! TD*
D11*
G04 #@! TO.C,MX24*
X66040000Y11430000D03*
D12*
X63500000Y6350000D03*
D11*
X59690000Y8890000D03*
D10*
X58420000Y6350000D03*
X68580000Y6350000D03*
G04 #@! TD*
D13*
G04 #@! TO.C,MX14*
X16141000Y87630000D03*
D12*
X13601000Y82550000D03*
D13*
X9791000Y85090000D03*
D10*
X8521000Y82550000D03*
X18681000Y82550000D03*
G04 #@! TD*
D15*
G04 #@! TO.C,J2*
X6825200Y79999000D03*
X1225200Y79999000D03*
D16*
X2525200Y76124000D03*
X3525200Y76124000D03*
X5525200Y76124000D03*
X4525200Y76124000D03*
G04 #@! TD*
D17*
G04 #@! TO.C,D44*
X259842000Y10924000D03*
X259842000Y14224000D03*
G04 #@! TD*
D11*
G04 #@! TO.C,MX101*
X273280000Y11470000D03*
D12*
X270740000Y6390000D03*
D11*
X266930000Y8930000D03*
D10*
X265660000Y6390000D03*
X275820000Y6390000D03*
G04 #@! TD*
D13*
G04 #@! TO.C,MX60*
X185120100Y11445000D03*
D12*
X182580100Y6365000D03*
D13*
X178770100Y8905000D03*
D10*
X177500100Y6365000D03*
X187660100Y6365000D03*
D14*
X132580200Y-620000D03*
X232580000Y-620000D03*
D12*
X132580200Y14620000D03*
X232580000Y14620000D03*
G04 #@! TD*
D13*
G04 #@! TO.C,MX61*
X196977000Y11430000D03*
D12*
X194437000Y6350000D03*
D13*
X190627000Y8890000D03*
D10*
X189357000Y6350000D03*
X199517000Y6350000D03*
D14*
X137287000Y-635000D03*
X251587000Y-635000D03*
D12*
X137287000Y14605000D03*
X251587000Y14605000D03*
G04 #@! TD*
D13*
G04 #@! TO.C,MX98*
X318535192Y49549869D03*
D12*
X315995192Y44469869D03*
D13*
X312185192Y47009869D03*
D10*
X310915192Y44469869D03*
X321075192Y44469869D03*
D14*
X304088942Y51454869D03*
X327901442Y51454869D03*
D12*
X304088942Y36214869D03*
X327901442Y36214869D03*
G04 #@! TD*
D17*
G04 #@! TO.C,D65*
X251968000Y49658000D03*
X251968000Y52958000D03*
G04 #@! TD*
G04 #@! TO.C,D60*
X232461861Y51448214D03*
X232461861Y54748214D03*
G04 #@! TD*
D13*
G04 #@! TO.C,MX68*
X230381206Y49494246D03*
D12*
X227841206Y44414246D03*
D13*
X224031206Y46954246D03*
D10*
X222761206Y44414246D03*
X232921206Y44414246D03*
G04 #@! TD*
D17*
G04 #@! TO.C,D6*
X100000Y85350000D03*
X100000Y88650000D03*
G04 #@! TD*
D13*
G04 #@! TO.C,MX38*
X101820341Y87629283D03*
D12*
X99280341Y82549283D03*
D13*
X95470341Y85089283D03*
D10*
X94200341Y82549283D03*
X104360341Y82549283D03*
G04 #@! TD*
D13*
G04 #@! TO.C,MX56*
X178054000Y87630000D03*
D12*
X175514000Y82550000D03*
D13*
X171704000Y85090000D03*
D10*
X170434000Y82550000D03*
X180594000Y82550000D03*
G04 #@! TD*
G04 #@! TO.C,MX93*
X306820000Y6410000D03*
X296660000Y6410000D03*
D11*
X297930000Y8950000D03*
D12*
X301740000Y6410000D03*
D11*
X304280000Y11490000D03*
G04 #@! TD*
D10*
G04 #@! TO.C,MX88*
X313920000Y6380000D03*
X303760000Y6380000D03*
D11*
X305030000Y8920000D03*
D12*
X308840000Y6380000D03*
D11*
X311380000Y11460000D03*
G04 #@! TD*
D10*
G04 #@! TO.C,MX104*
X304420000Y6340000D03*
X294260000Y6340000D03*
D11*
X295530000Y8880000D03*
D12*
X299340000Y6340000D03*
D11*
X301880000Y11420000D03*
G04 #@! TD*
D13*
G04 #@! TO.C,MX28*
X285242000Y30480000D03*
D12*
X282702000Y25400000D03*
D13*
X278892000Y27940000D03*
D10*
X277622000Y25400000D03*
X287782000Y25400000D03*
G04 #@! TD*
D13*
G04 #@! TO.C,MX12*
X-2909000Y11430000D03*
D12*
X-5449000Y6350000D03*
D13*
X-9259000Y8890000D03*
D10*
X-10529000Y6350000D03*
X-369000Y6350000D03*
G04 #@! TD*
D13*
G04 #@! TO.C,MX97*
X325664788Y68599096D03*
D12*
X323124788Y63519096D03*
D13*
X319314788Y66059096D03*
D10*
X318044788Y63519096D03*
X328204788Y63519096D03*
G04 #@! TD*
D11*
G04 #@! TO.C,MX81*
X280500000Y11490000D03*
D12*
X277960000Y6410000D03*
D11*
X274150000Y8950000D03*
D10*
X272880000Y6410000D03*
X283040000Y6410000D03*
G04 #@! TD*
D18*
G04 #@! TO.C,Y1*
X60332800Y53555000D03*
X58132800Y53555000D03*
X58132800Y51855000D03*
X60332800Y51855000D03*
G04 #@! TD*
D19*
G04 #@! TO.C,R6*
G36*
X52824592Y33641706D02*
G01*
X52850681Y33637836D01*
X52876264Y33631428D01*
X52901096Y33622543D01*
X52924938Y33611266D01*
X52947560Y33597707D01*
X52968743Y33581997D01*
X52988285Y33564285D01*
X53005997Y33544743D01*
X53021707Y33523560D01*
X53035266Y33500938D01*
X53046543Y33477096D01*
X53055428Y33452264D01*
X53061836Y33426681D01*
X53065706Y33400592D01*
X53067000Y33374250D01*
X53067000Y32411750D01*
X53065706Y32385408D01*
X53061836Y32359319D01*
X53055428Y32333736D01*
X53046543Y32308904D01*
X53035266Y32285062D01*
X53021707Y32262440D01*
X53005997Y32241257D01*
X52988285Y32221715D01*
X52968743Y32204003D01*
X52947560Y32188293D01*
X52924938Y32174734D01*
X52901096Y32163457D01*
X52876264Y32154572D01*
X52850681Y32148164D01*
X52824592Y32144294D01*
X52798250Y32143000D01*
X52260750Y32143000D01*
X52234408Y32144294D01*
X52208319Y32148164D01*
X52182736Y32154572D01*
X52157904Y32163457D01*
X52134062Y32174734D01*
X52111440Y32188293D01*
X52090257Y32204003D01*
X52070715Y32221715D01*
X52053003Y32241257D01*
X52037293Y32262440D01*
X52023734Y32285062D01*
X52012457Y32308904D01*
X52003572Y32333736D01*
X51997164Y32359319D01*
X51993294Y32385408D01*
X51992000Y32411750D01*
X51992000Y33374250D01*
X51993294Y33400592D01*
X51997164Y33426681D01*
X52003572Y33452264D01*
X52012457Y33477096D01*
X52023734Y33500938D01*
X52037293Y33523560D01*
X52053003Y33544743D01*
X52070715Y33564285D01*
X52090257Y33581997D01*
X52111440Y33597707D01*
X52134062Y33611266D01*
X52157904Y33622543D01*
X52182736Y33631428D01*
X52208319Y33637836D01*
X52234408Y33641706D01*
X52260750Y33643000D01*
X52798250Y33643000D01*
X52824592Y33641706D01*
X52824592Y33641706D01*
G37*
D20*
X52529500Y32893000D03*
D19*
G36*
X54699592Y33641706D02*
G01*
X54725681Y33637836D01*
X54751264Y33631428D01*
X54776096Y33622543D01*
X54799938Y33611266D01*
X54822560Y33597707D01*
X54843743Y33581997D01*
X54863285Y33564285D01*
X54880997Y33544743D01*
X54896707Y33523560D01*
X54910266Y33500938D01*
X54921543Y33477096D01*
X54930428Y33452264D01*
X54936836Y33426681D01*
X54940706Y33400592D01*
X54942000Y33374250D01*
X54942000Y32411750D01*
X54940706Y32385408D01*
X54936836Y32359319D01*
X54930428Y32333736D01*
X54921543Y32308904D01*
X54910266Y32285062D01*
X54896707Y32262440D01*
X54880997Y32241257D01*
X54863285Y32221715D01*
X54843743Y32204003D01*
X54822560Y32188293D01*
X54799938Y32174734D01*
X54776096Y32163457D01*
X54751264Y32154572D01*
X54725681Y32148164D01*
X54699592Y32144294D01*
X54673250Y32143000D01*
X54135750Y32143000D01*
X54109408Y32144294D01*
X54083319Y32148164D01*
X54057736Y32154572D01*
X54032904Y32163457D01*
X54009062Y32174734D01*
X53986440Y32188293D01*
X53965257Y32204003D01*
X53945715Y32221715D01*
X53928003Y32241257D01*
X53912293Y32262440D01*
X53898734Y32285062D01*
X53887457Y32308904D01*
X53878572Y32333736D01*
X53872164Y32359319D01*
X53868294Y32385408D01*
X53867000Y32411750D01*
X53867000Y33374250D01*
X53868294Y33400592D01*
X53872164Y33426681D01*
X53878572Y33452264D01*
X53887457Y33477096D01*
X53898734Y33500938D01*
X53912293Y33523560D01*
X53928003Y33544743D01*
X53945715Y33564285D01*
X53965257Y33581997D01*
X53986440Y33597707D01*
X54009062Y33611266D01*
X54032904Y33622543D01*
X54057736Y33631428D01*
X54083319Y33637836D01*
X54109408Y33641706D01*
X54135750Y33643000D01*
X54673250Y33643000D01*
X54699592Y33641706D01*
X54699592Y33641706D01*
G37*
D20*
X54404500Y32893000D03*
G04 #@! TD*
D19*
G04 #@! TO.C,R3*
G36*
X7901692Y73900706D02*
G01*
X7927781Y73896836D01*
X7953364Y73890428D01*
X7978196Y73881543D01*
X8002038Y73870266D01*
X8024660Y73856707D01*
X8045843Y73840997D01*
X8065385Y73823285D01*
X8083097Y73803743D01*
X8098807Y73782560D01*
X8112366Y73759938D01*
X8123643Y73736096D01*
X8132528Y73711264D01*
X8138936Y73685681D01*
X8142806Y73659592D01*
X8144100Y73633250D01*
X8144100Y72670750D01*
X8142806Y72644408D01*
X8138936Y72618319D01*
X8132528Y72592736D01*
X8123643Y72567904D01*
X8112366Y72544062D01*
X8098807Y72521440D01*
X8083097Y72500257D01*
X8065385Y72480715D01*
X8045843Y72463003D01*
X8024660Y72447293D01*
X8002038Y72433734D01*
X7978196Y72422457D01*
X7953364Y72413572D01*
X7927781Y72407164D01*
X7901692Y72403294D01*
X7875350Y72402000D01*
X7337850Y72402000D01*
X7311508Y72403294D01*
X7285419Y72407164D01*
X7259836Y72413572D01*
X7235004Y72422457D01*
X7211162Y72433734D01*
X7188540Y72447293D01*
X7167357Y72463003D01*
X7147815Y72480715D01*
X7130103Y72500257D01*
X7114393Y72521440D01*
X7100834Y72544062D01*
X7089557Y72567904D01*
X7080672Y72592736D01*
X7074264Y72618319D01*
X7070394Y72644408D01*
X7069100Y72670750D01*
X7069100Y73633250D01*
X7070394Y73659592D01*
X7074264Y73685681D01*
X7080672Y73711264D01*
X7089557Y73736096D01*
X7100834Y73759938D01*
X7114393Y73782560D01*
X7130103Y73803743D01*
X7147815Y73823285D01*
X7167357Y73840997D01*
X7188540Y73856707D01*
X7211162Y73870266D01*
X7235004Y73881543D01*
X7259836Y73890428D01*
X7285419Y73896836D01*
X7311508Y73900706D01*
X7337850Y73902000D01*
X7875350Y73902000D01*
X7901692Y73900706D01*
X7901692Y73900706D01*
G37*
D20*
X7606600Y73152000D03*
D19*
G36*
X9776692Y73900706D02*
G01*
X9802781Y73896836D01*
X9828364Y73890428D01*
X9853196Y73881543D01*
X9877038Y73870266D01*
X9899660Y73856707D01*
X9920843Y73840997D01*
X9940385Y73823285D01*
X9958097Y73803743D01*
X9973807Y73782560D01*
X9987366Y73759938D01*
X9998643Y73736096D01*
X10007528Y73711264D01*
X10013936Y73685681D01*
X10017806Y73659592D01*
X10019100Y73633250D01*
X10019100Y72670750D01*
X10017806Y72644408D01*
X10013936Y72618319D01*
X10007528Y72592736D01*
X9998643Y72567904D01*
X9987366Y72544062D01*
X9973807Y72521440D01*
X9958097Y72500257D01*
X9940385Y72480715D01*
X9920843Y72463003D01*
X9899660Y72447293D01*
X9877038Y72433734D01*
X9853196Y72422457D01*
X9828364Y72413572D01*
X9802781Y72407164D01*
X9776692Y72403294D01*
X9750350Y72402000D01*
X9212850Y72402000D01*
X9186508Y72403294D01*
X9160419Y72407164D01*
X9134836Y72413572D01*
X9110004Y72422457D01*
X9086162Y72433734D01*
X9063540Y72447293D01*
X9042357Y72463003D01*
X9022815Y72480715D01*
X9005103Y72500257D01*
X8989393Y72521440D01*
X8975834Y72544062D01*
X8964557Y72567904D01*
X8955672Y72592736D01*
X8949264Y72618319D01*
X8945394Y72644408D01*
X8944100Y72670750D01*
X8944100Y73633250D01*
X8945394Y73659592D01*
X8949264Y73685681D01*
X8955672Y73711264D01*
X8964557Y73736096D01*
X8975834Y73759938D01*
X8989393Y73782560D01*
X9005103Y73803743D01*
X9022815Y73823285D01*
X9042357Y73840997D01*
X9063540Y73856707D01*
X9086162Y73870266D01*
X9110004Y73881543D01*
X9134836Y73890428D01*
X9160419Y73896836D01*
X9186508Y73900706D01*
X9212850Y73902000D01*
X9750350Y73902000D01*
X9776692Y73900706D01*
X9776692Y73900706D01*
G37*
D20*
X9481600Y73152000D03*
G04 #@! TD*
D19*
G04 #@! TO.C,R2*
G36*
X7901692Y75958106D02*
G01*
X7927781Y75954236D01*
X7953364Y75947828D01*
X7978196Y75938943D01*
X8002038Y75927666D01*
X8024660Y75914107D01*
X8045843Y75898397D01*
X8065385Y75880685D01*
X8083097Y75861143D01*
X8098807Y75839960D01*
X8112366Y75817338D01*
X8123643Y75793496D01*
X8132528Y75768664D01*
X8138936Y75743081D01*
X8142806Y75716992D01*
X8144100Y75690650D01*
X8144100Y74728150D01*
X8142806Y74701808D01*
X8138936Y74675719D01*
X8132528Y74650136D01*
X8123643Y74625304D01*
X8112366Y74601462D01*
X8098807Y74578840D01*
X8083097Y74557657D01*
X8065385Y74538115D01*
X8045843Y74520403D01*
X8024660Y74504693D01*
X8002038Y74491134D01*
X7978196Y74479857D01*
X7953364Y74470972D01*
X7927781Y74464564D01*
X7901692Y74460694D01*
X7875350Y74459400D01*
X7337850Y74459400D01*
X7311508Y74460694D01*
X7285419Y74464564D01*
X7259836Y74470972D01*
X7235004Y74479857D01*
X7211162Y74491134D01*
X7188540Y74504693D01*
X7167357Y74520403D01*
X7147815Y74538115D01*
X7130103Y74557657D01*
X7114393Y74578840D01*
X7100834Y74601462D01*
X7089557Y74625304D01*
X7080672Y74650136D01*
X7074264Y74675719D01*
X7070394Y74701808D01*
X7069100Y74728150D01*
X7069100Y75690650D01*
X7070394Y75716992D01*
X7074264Y75743081D01*
X7080672Y75768664D01*
X7089557Y75793496D01*
X7100834Y75817338D01*
X7114393Y75839960D01*
X7130103Y75861143D01*
X7147815Y75880685D01*
X7167357Y75898397D01*
X7188540Y75914107D01*
X7211162Y75927666D01*
X7235004Y75938943D01*
X7259836Y75947828D01*
X7285419Y75954236D01*
X7311508Y75958106D01*
X7337850Y75959400D01*
X7875350Y75959400D01*
X7901692Y75958106D01*
X7901692Y75958106D01*
G37*
D20*
X7606600Y75209400D03*
D19*
G36*
X9776692Y75958106D02*
G01*
X9802781Y75954236D01*
X9828364Y75947828D01*
X9853196Y75938943D01*
X9877038Y75927666D01*
X9899660Y75914107D01*
X9920843Y75898397D01*
X9940385Y75880685D01*
X9958097Y75861143D01*
X9973807Y75839960D01*
X9987366Y75817338D01*
X9998643Y75793496D01*
X10007528Y75768664D01*
X10013936Y75743081D01*
X10017806Y75716992D01*
X10019100Y75690650D01*
X10019100Y74728150D01*
X10017806Y74701808D01*
X10013936Y74675719D01*
X10007528Y74650136D01*
X9998643Y74625304D01*
X9987366Y74601462D01*
X9973807Y74578840D01*
X9958097Y74557657D01*
X9940385Y74538115D01*
X9920843Y74520403D01*
X9899660Y74504693D01*
X9877038Y74491134D01*
X9853196Y74479857D01*
X9828364Y74470972D01*
X9802781Y74464564D01*
X9776692Y74460694D01*
X9750350Y74459400D01*
X9212850Y74459400D01*
X9186508Y74460694D01*
X9160419Y74464564D01*
X9134836Y74470972D01*
X9110004Y74479857D01*
X9086162Y74491134D01*
X9063540Y74504693D01*
X9042357Y74520403D01*
X9022815Y74538115D01*
X9005103Y74557657D01*
X8989393Y74578840D01*
X8975834Y74601462D01*
X8964557Y74625304D01*
X8955672Y74650136D01*
X8949264Y74675719D01*
X8945394Y74701808D01*
X8944100Y74728150D01*
X8944100Y75690650D01*
X8945394Y75716992D01*
X8949264Y75743081D01*
X8955672Y75768664D01*
X8964557Y75793496D01*
X8975834Y75817338D01*
X8989393Y75839960D01*
X9005103Y75861143D01*
X9022815Y75880685D01*
X9042357Y75898397D01*
X9063540Y75914107D01*
X9086162Y75927666D01*
X9110004Y75938943D01*
X9134836Y75947828D01*
X9160419Y75954236D01*
X9186508Y75958106D01*
X9212850Y75959400D01*
X9750350Y75959400D01*
X9776692Y75958106D01*
X9776692Y75958106D01*
G37*
D20*
X9481600Y75209400D03*
G04 #@! TD*
D19*
G04 #@! TO.C,R1*
G36*
X56336792Y59434206D02*
G01*
X56362881Y59430336D01*
X56388464Y59423928D01*
X56413296Y59415043D01*
X56437138Y59403766D01*
X56459760Y59390207D01*
X56480943Y59374497D01*
X56500485Y59356785D01*
X56518197Y59337243D01*
X56533907Y59316060D01*
X56547466Y59293438D01*
X56558743Y59269596D01*
X56567628Y59244764D01*
X56574036Y59219181D01*
X56577906Y59193092D01*
X56579200Y59166750D01*
X56579200Y58629250D01*
X56577906Y58602908D01*
X56574036Y58576819D01*
X56567628Y58551236D01*
X56558743Y58526404D01*
X56547466Y58502562D01*
X56533907Y58479940D01*
X56518197Y58458757D01*
X56500485Y58439215D01*
X56480943Y58421503D01*
X56459760Y58405793D01*
X56437138Y58392234D01*
X56413296Y58380957D01*
X56388464Y58372072D01*
X56362881Y58365664D01*
X56336792Y58361794D01*
X56310450Y58360500D01*
X55347950Y58360500D01*
X55321608Y58361794D01*
X55295519Y58365664D01*
X55269936Y58372072D01*
X55245104Y58380957D01*
X55221262Y58392234D01*
X55198640Y58405793D01*
X55177457Y58421503D01*
X55157915Y58439215D01*
X55140203Y58458757D01*
X55124493Y58479940D01*
X55110934Y58502562D01*
X55099657Y58526404D01*
X55090772Y58551236D01*
X55084364Y58576819D01*
X55080494Y58602908D01*
X55079200Y58629250D01*
X55079200Y59166750D01*
X55080494Y59193092D01*
X55084364Y59219181D01*
X55090772Y59244764D01*
X55099657Y59269596D01*
X55110934Y59293438D01*
X55124493Y59316060D01*
X55140203Y59337243D01*
X55157915Y59356785D01*
X55177457Y59374497D01*
X55198640Y59390207D01*
X55221262Y59403766D01*
X55245104Y59415043D01*
X55269936Y59423928D01*
X55295519Y59430336D01*
X55321608Y59434206D01*
X55347950Y59435500D01*
X56310450Y59435500D01*
X56336792Y59434206D01*
X56336792Y59434206D01*
G37*
D20*
X55829200Y58898000D03*
D19*
G36*
X56336792Y57559206D02*
G01*
X56362881Y57555336D01*
X56388464Y57548928D01*
X56413296Y57540043D01*
X56437138Y57528766D01*
X56459760Y57515207D01*
X56480943Y57499497D01*
X56500485Y57481785D01*
X56518197Y57462243D01*
X56533907Y57441060D01*
X56547466Y57418438D01*
X56558743Y57394596D01*
X56567628Y57369764D01*
X56574036Y57344181D01*
X56577906Y57318092D01*
X56579200Y57291750D01*
X56579200Y56754250D01*
X56577906Y56727908D01*
X56574036Y56701819D01*
X56567628Y56676236D01*
X56558743Y56651404D01*
X56547466Y56627562D01*
X56533907Y56604940D01*
X56518197Y56583757D01*
X56500485Y56564215D01*
X56480943Y56546503D01*
X56459760Y56530793D01*
X56437138Y56517234D01*
X56413296Y56505957D01*
X56388464Y56497072D01*
X56362881Y56490664D01*
X56336792Y56486794D01*
X56310450Y56485500D01*
X55347950Y56485500D01*
X55321608Y56486794D01*
X55295519Y56490664D01*
X55269936Y56497072D01*
X55245104Y56505957D01*
X55221262Y56517234D01*
X55198640Y56530793D01*
X55177457Y56546503D01*
X55157915Y56564215D01*
X55140203Y56583757D01*
X55124493Y56604940D01*
X55110934Y56627562D01*
X55099657Y56651404D01*
X55090772Y56676236D01*
X55084364Y56701819D01*
X55080494Y56727908D01*
X55079200Y56754250D01*
X55079200Y57291750D01*
X55080494Y57318092D01*
X55084364Y57344181D01*
X55090772Y57369764D01*
X55099657Y57394596D01*
X55110934Y57418438D01*
X55124493Y57441060D01*
X55140203Y57462243D01*
X55157915Y57481785D01*
X55177457Y57499497D01*
X55198640Y57515207D01*
X55221262Y57528766D01*
X55245104Y57540043D01*
X55269936Y57548928D01*
X55295519Y57555336D01*
X55321608Y57559206D01*
X55347950Y57560500D01*
X56310450Y57560500D01*
X56336792Y57559206D01*
X56336792Y57559206D01*
G37*
D20*
X55829200Y57023000D03*
G04 #@! TD*
D21*
G04 #@! TO.C,J1*
X52070000Y64770000D03*
X52070000Y67310000D03*
X46990000Y67310000D03*
X46990000Y64770000D03*
X49530000Y67310000D03*
X49530000Y64770000D03*
G04 #@! TD*
D19*
G04 #@! TO.C,C8*
G36*
X61054495Y43434199D02*
G01*
X61080584Y43430329D01*
X61106167Y43423921D01*
X61130999Y43415036D01*
X61154841Y43403759D01*
X61177463Y43390200D01*
X61198646Y43374490D01*
X61218188Y43356778D01*
X61898778Y42676188D01*
X61916490Y42656646D01*
X61932200Y42635463D01*
X61945759Y42612841D01*
X61957036Y42588999D01*
X61965921Y42564167D01*
X61972329Y42538584D01*
X61976199Y42512495D01*
X61977493Y42486153D01*
X61976199Y42459811D01*
X61972329Y42433722D01*
X61965921Y42408139D01*
X61957036Y42383307D01*
X61945759Y42359465D01*
X61932200Y42336843D01*
X61916490Y42315660D01*
X61898778Y42296118D01*
X61518708Y41916048D01*
X61499166Y41898336D01*
X61477983Y41882626D01*
X61455361Y41869067D01*
X61431519Y41857790D01*
X61406687Y41848905D01*
X61381104Y41842497D01*
X61355015Y41838627D01*
X61328673Y41837333D01*
X61302331Y41838627D01*
X61276242Y41842497D01*
X61250659Y41848905D01*
X61225827Y41857790D01*
X61201985Y41869067D01*
X61179363Y41882626D01*
X61158180Y41898336D01*
X61138638Y41916048D01*
X60458048Y42596638D01*
X60440336Y42616180D01*
X60424626Y42637363D01*
X60411067Y42659985D01*
X60399790Y42683827D01*
X60390905Y42708659D01*
X60384497Y42734242D01*
X60380627Y42760331D01*
X60379333Y42786673D01*
X60380627Y42813015D01*
X60384497Y42839104D01*
X60390905Y42864687D01*
X60399790Y42889519D01*
X60411067Y42913361D01*
X60424626Y42935983D01*
X60440336Y42957166D01*
X60458048Y42976708D01*
X60838118Y43356778D01*
X60857660Y43374490D01*
X60878843Y43390200D01*
X60901465Y43403759D01*
X60925307Y43415036D01*
X60950139Y43423921D01*
X60975722Y43430329D01*
X61001811Y43434199D01*
X61028153Y43435493D01*
X61054495Y43434199D01*
X61054495Y43434199D01*
G37*
D20*
X61178413Y42636413D03*
D19*
G36*
X59728669Y42108373D02*
G01*
X59754758Y42104503D01*
X59780341Y42098095D01*
X59805173Y42089210D01*
X59829015Y42077933D01*
X59851637Y42064374D01*
X59872820Y42048664D01*
X59892362Y42030952D01*
X60572952Y41350362D01*
X60590664Y41330820D01*
X60606374Y41309637D01*
X60619933Y41287015D01*
X60631210Y41263173D01*
X60640095Y41238341D01*
X60646503Y41212758D01*
X60650373Y41186669D01*
X60651667Y41160327D01*
X60650373Y41133985D01*
X60646503Y41107896D01*
X60640095Y41082313D01*
X60631210Y41057481D01*
X60619933Y41033639D01*
X60606374Y41011017D01*
X60590664Y40989834D01*
X60572952Y40970292D01*
X60192882Y40590222D01*
X60173340Y40572510D01*
X60152157Y40556800D01*
X60129535Y40543241D01*
X60105693Y40531964D01*
X60080861Y40523079D01*
X60055278Y40516671D01*
X60029189Y40512801D01*
X60002847Y40511507D01*
X59976505Y40512801D01*
X59950416Y40516671D01*
X59924833Y40523079D01*
X59900001Y40531964D01*
X59876159Y40543241D01*
X59853537Y40556800D01*
X59832354Y40572510D01*
X59812812Y40590222D01*
X59132222Y41270812D01*
X59114510Y41290354D01*
X59098800Y41311537D01*
X59085241Y41334159D01*
X59073964Y41358001D01*
X59065079Y41382833D01*
X59058671Y41408416D01*
X59054801Y41434505D01*
X59053507Y41460847D01*
X59054801Y41487189D01*
X59058671Y41513278D01*
X59065079Y41538861D01*
X59073964Y41563693D01*
X59085241Y41587535D01*
X59098800Y41610157D01*
X59114510Y41631340D01*
X59132222Y41650882D01*
X59512292Y42030952D01*
X59531834Y42048664D01*
X59553017Y42064374D01*
X59575639Y42077933D01*
X59599481Y42089210D01*
X59624313Y42098095D01*
X59649896Y42104503D01*
X59675985Y42108373D01*
X59702327Y42109667D01*
X59728669Y42108373D01*
X59728669Y42108373D01*
G37*
D20*
X59852587Y41310587D03*
G04 #@! TD*
D19*
G04 #@! TO.C,C7*
G36*
X45223092Y53580706D02*
G01*
X45249181Y53576836D01*
X45274764Y53570428D01*
X45299596Y53561543D01*
X45323438Y53550266D01*
X45346060Y53536707D01*
X45367243Y53520997D01*
X45386785Y53503285D01*
X45404497Y53483743D01*
X45420207Y53462560D01*
X45433766Y53439938D01*
X45445043Y53416096D01*
X45453928Y53391264D01*
X45460336Y53365681D01*
X45464206Y53339592D01*
X45465500Y53313250D01*
X45465500Y52350750D01*
X45464206Y52324408D01*
X45460336Y52298319D01*
X45453928Y52272736D01*
X45445043Y52247904D01*
X45433766Y52224062D01*
X45420207Y52201440D01*
X45404497Y52180257D01*
X45386785Y52160715D01*
X45367243Y52143003D01*
X45346060Y52127293D01*
X45323438Y52113734D01*
X45299596Y52102457D01*
X45274764Y52093572D01*
X45249181Y52087164D01*
X45223092Y52083294D01*
X45196750Y52082000D01*
X44659250Y52082000D01*
X44632908Y52083294D01*
X44606819Y52087164D01*
X44581236Y52093572D01*
X44556404Y52102457D01*
X44532562Y52113734D01*
X44509940Y52127293D01*
X44488757Y52143003D01*
X44469215Y52160715D01*
X44451503Y52180257D01*
X44435793Y52201440D01*
X44422234Y52224062D01*
X44410957Y52247904D01*
X44402072Y52272736D01*
X44395664Y52298319D01*
X44391794Y52324408D01*
X44390500Y52350750D01*
X44390500Y53313250D01*
X44391794Y53339592D01*
X44395664Y53365681D01*
X44402072Y53391264D01*
X44410957Y53416096D01*
X44422234Y53439938D01*
X44435793Y53462560D01*
X44451503Y53483743D01*
X44469215Y53503285D01*
X44488757Y53520997D01*
X44509940Y53536707D01*
X44532562Y53550266D01*
X44556404Y53561543D01*
X44581236Y53570428D01*
X44606819Y53576836D01*
X44632908Y53580706D01*
X44659250Y53582000D01*
X45196750Y53582000D01*
X45223092Y53580706D01*
X45223092Y53580706D01*
G37*
D20*
X44928000Y52832000D03*
D19*
G36*
X43348092Y53580706D02*
G01*
X43374181Y53576836D01*
X43399764Y53570428D01*
X43424596Y53561543D01*
X43448438Y53550266D01*
X43471060Y53536707D01*
X43492243Y53520997D01*
X43511785Y53503285D01*
X43529497Y53483743D01*
X43545207Y53462560D01*
X43558766Y53439938D01*
X43570043Y53416096D01*
X43578928Y53391264D01*
X43585336Y53365681D01*
X43589206Y53339592D01*
X43590500Y53313250D01*
X43590500Y52350750D01*
X43589206Y52324408D01*
X43585336Y52298319D01*
X43578928Y52272736D01*
X43570043Y52247904D01*
X43558766Y52224062D01*
X43545207Y52201440D01*
X43529497Y52180257D01*
X43511785Y52160715D01*
X43492243Y52143003D01*
X43471060Y52127293D01*
X43448438Y52113734D01*
X43424596Y52102457D01*
X43399764Y52093572D01*
X43374181Y52087164D01*
X43348092Y52083294D01*
X43321750Y52082000D01*
X42784250Y52082000D01*
X42757908Y52083294D01*
X42731819Y52087164D01*
X42706236Y52093572D01*
X42681404Y52102457D01*
X42657562Y52113734D01*
X42634940Y52127293D01*
X42613757Y52143003D01*
X42594215Y52160715D01*
X42576503Y52180257D01*
X42560793Y52201440D01*
X42547234Y52224062D01*
X42535957Y52247904D01*
X42527072Y52272736D01*
X42520664Y52298319D01*
X42516794Y52324408D01*
X42515500Y52350750D01*
X42515500Y53313250D01*
X42516794Y53339592D01*
X42520664Y53365681D01*
X42527072Y53391264D01*
X42535957Y53416096D01*
X42547234Y53439938D01*
X42560793Y53462560D01*
X42576503Y53483743D01*
X42594215Y53503285D01*
X42613757Y53520997D01*
X42634940Y53536707D01*
X42657562Y53550266D01*
X42681404Y53561543D01*
X42706236Y53570428D01*
X42731819Y53576836D01*
X42757908Y53580706D01*
X42784250Y53582000D01*
X43321750Y53582000D01*
X43348092Y53580706D01*
X43348092Y53580706D01*
G37*
D20*
X43053000Y52832000D03*
G04 #@! TD*
D19*
G04 #@! TO.C,C6*
G36*
X44313505Y60276119D02*
G01*
X44339594Y60272249D01*
X44365177Y60265841D01*
X44390009Y60256956D01*
X44413851Y60245679D01*
X44436473Y60232120D01*
X44457656Y60216410D01*
X44477198Y60198698D01*
X44494910Y60179156D01*
X44510620Y60157973D01*
X44524179Y60135351D01*
X44535456Y60111509D01*
X44544341Y60086677D01*
X44550749Y60061094D01*
X44554619Y60035005D01*
X44555913Y60008663D01*
X44555913Y59046163D01*
X44554619Y59019821D01*
X44550749Y58993732D01*
X44544341Y58968149D01*
X44535456Y58943317D01*
X44524179Y58919475D01*
X44510620Y58896853D01*
X44494910Y58875670D01*
X44477198Y58856128D01*
X44457656Y58838416D01*
X44436473Y58822706D01*
X44413851Y58809147D01*
X44390009Y58797870D01*
X44365177Y58788985D01*
X44339594Y58782577D01*
X44313505Y58778707D01*
X44287163Y58777413D01*
X43749663Y58777413D01*
X43723321Y58778707D01*
X43697232Y58782577D01*
X43671649Y58788985D01*
X43646817Y58797870D01*
X43622975Y58809147D01*
X43600353Y58822706D01*
X43579170Y58838416D01*
X43559628Y58856128D01*
X43541916Y58875670D01*
X43526206Y58896853D01*
X43512647Y58919475D01*
X43501370Y58943317D01*
X43492485Y58968149D01*
X43486077Y58993732D01*
X43482207Y59019821D01*
X43480913Y59046163D01*
X43480913Y60008663D01*
X43482207Y60035005D01*
X43486077Y60061094D01*
X43492485Y60086677D01*
X43501370Y60111509D01*
X43512647Y60135351D01*
X43526206Y60157973D01*
X43541916Y60179156D01*
X43559628Y60198698D01*
X43579170Y60216410D01*
X43600353Y60232120D01*
X43622975Y60245679D01*
X43646817Y60256956D01*
X43671649Y60265841D01*
X43697232Y60272249D01*
X43723321Y60276119D01*
X43749663Y60277413D01*
X44287163Y60277413D01*
X44313505Y60276119D01*
X44313505Y60276119D01*
G37*
D20*
X44018413Y59527413D03*
D19*
G36*
X42438505Y60276119D02*
G01*
X42464594Y60272249D01*
X42490177Y60265841D01*
X42515009Y60256956D01*
X42538851Y60245679D01*
X42561473Y60232120D01*
X42582656Y60216410D01*
X42602198Y60198698D01*
X42619910Y60179156D01*
X42635620Y60157973D01*
X42649179Y60135351D01*
X42660456Y60111509D01*
X42669341Y60086677D01*
X42675749Y60061094D01*
X42679619Y60035005D01*
X42680913Y60008663D01*
X42680913Y59046163D01*
X42679619Y59019821D01*
X42675749Y58993732D01*
X42669341Y58968149D01*
X42660456Y58943317D01*
X42649179Y58919475D01*
X42635620Y58896853D01*
X42619910Y58875670D01*
X42602198Y58856128D01*
X42582656Y58838416D01*
X42561473Y58822706D01*
X42538851Y58809147D01*
X42515009Y58797870D01*
X42490177Y58788985D01*
X42464594Y58782577D01*
X42438505Y58778707D01*
X42412163Y58777413D01*
X41874663Y58777413D01*
X41848321Y58778707D01*
X41822232Y58782577D01*
X41796649Y58788985D01*
X41771817Y58797870D01*
X41747975Y58809147D01*
X41725353Y58822706D01*
X41704170Y58838416D01*
X41684628Y58856128D01*
X41666916Y58875670D01*
X41651206Y58896853D01*
X41637647Y58919475D01*
X41626370Y58943317D01*
X41617485Y58968149D01*
X41611077Y58993732D01*
X41607207Y59019821D01*
X41605913Y59046163D01*
X41605913Y60008663D01*
X41607207Y60035005D01*
X41611077Y60061094D01*
X41617485Y60086677D01*
X41626370Y60111509D01*
X41637647Y60135351D01*
X41651206Y60157973D01*
X41666916Y60179156D01*
X41684628Y60198698D01*
X41704170Y60216410D01*
X41725353Y60232120D01*
X41747975Y60245679D01*
X41771817Y60256956D01*
X41796649Y60265841D01*
X41822232Y60272249D01*
X41848321Y60276119D01*
X41874663Y60277413D01*
X42412163Y60277413D01*
X42438505Y60276119D01*
X42438505Y60276119D01*
G37*
D20*
X42143413Y59527413D03*
G04 #@! TD*
D19*
G04 #@! TO.C,C5*
G36*
X58414892Y56146106D02*
G01*
X58440981Y56142236D01*
X58466564Y56135828D01*
X58491396Y56126943D01*
X58515238Y56115666D01*
X58537860Y56102107D01*
X58559043Y56086397D01*
X58578585Y56068685D01*
X58596297Y56049143D01*
X58612007Y56027960D01*
X58625566Y56005338D01*
X58636843Y55981496D01*
X58645728Y55956664D01*
X58652136Y55931081D01*
X58656006Y55904992D01*
X58657300Y55878650D01*
X58657300Y54916150D01*
X58656006Y54889808D01*
X58652136Y54863719D01*
X58645728Y54838136D01*
X58636843Y54813304D01*
X58625566Y54789462D01*
X58612007Y54766840D01*
X58596297Y54745657D01*
X58578585Y54726115D01*
X58559043Y54708403D01*
X58537860Y54692693D01*
X58515238Y54679134D01*
X58491396Y54667857D01*
X58466564Y54658972D01*
X58440981Y54652564D01*
X58414892Y54648694D01*
X58388550Y54647400D01*
X57851050Y54647400D01*
X57824708Y54648694D01*
X57798619Y54652564D01*
X57773036Y54658972D01*
X57748204Y54667857D01*
X57724362Y54679134D01*
X57701740Y54692693D01*
X57680557Y54708403D01*
X57661015Y54726115D01*
X57643303Y54745657D01*
X57627593Y54766840D01*
X57614034Y54789462D01*
X57602757Y54813304D01*
X57593872Y54838136D01*
X57587464Y54863719D01*
X57583594Y54889808D01*
X57582300Y54916150D01*
X57582300Y55878650D01*
X57583594Y55904992D01*
X57587464Y55931081D01*
X57593872Y55956664D01*
X57602757Y55981496D01*
X57614034Y56005338D01*
X57627593Y56027960D01*
X57643303Y56049143D01*
X57661015Y56068685D01*
X57680557Y56086397D01*
X57701740Y56102107D01*
X57724362Y56115666D01*
X57748204Y56126943D01*
X57773036Y56135828D01*
X57798619Y56142236D01*
X57824708Y56146106D01*
X57851050Y56147400D01*
X58388550Y56147400D01*
X58414892Y56146106D01*
X58414892Y56146106D01*
G37*
D20*
X58119800Y55397400D03*
D19*
G36*
X60289892Y56146106D02*
G01*
X60315981Y56142236D01*
X60341564Y56135828D01*
X60366396Y56126943D01*
X60390238Y56115666D01*
X60412860Y56102107D01*
X60434043Y56086397D01*
X60453585Y56068685D01*
X60471297Y56049143D01*
X60487007Y56027960D01*
X60500566Y56005338D01*
X60511843Y55981496D01*
X60520728Y55956664D01*
X60527136Y55931081D01*
X60531006Y55904992D01*
X60532300Y55878650D01*
X60532300Y54916150D01*
X60531006Y54889808D01*
X60527136Y54863719D01*
X60520728Y54838136D01*
X60511843Y54813304D01*
X60500566Y54789462D01*
X60487007Y54766840D01*
X60471297Y54745657D01*
X60453585Y54726115D01*
X60434043Y54708403D01*
X60412860Y54692693D01*
X60390238Y54679134D01*
X60366396Y54667857D01*
X60341564Y54658972D01*
X60315981Y54652564D01*
X60289892Y54648694D01*
X60263550Y54647400D01*
X59726050Y54647400D01*
X59699708Y54648694D01*
X59673619Y54652564D01*
X59648036Y54658972D01*
X59623204Y54667857D01*
X59599362Y54679134D01*
X59576740Y54692693D01*
X59555557Y54708403D01*
X59536015Y54726115D01*
X59518303Y54745657D01*
X59502593Y54766840D01*
X59489034Y54789462D01*
X59477757Y54813304D01*
X59468872Y54838136D01*
X59462464Y54863719D01*
X59458594Y54889808D01*
X59457300Y54916150D01*
X59457300Y55878650D01*
X59458594Y55904992D01*
X59462464Y55931081D01*
X59468872Y55956664D01*
X59477757Y55981496D01*
X59489034Y56005338D01*
X59502593Y56027960D01*
X59518303Y56049143D01*
X59536015Y56068685D01*
X59555557Y56086397D01*
X59576740Y56102107D01*
X59599362Y56115666D01*
X59623204Y56126943D01*
X59648036Y56135828D01*
X59673619Y56142236D01*
X59699708Y56146106D01*
X59726050Y56147400D01*
X60263550Y56147400D01*
X60289892Y56146106D01*
X60289892Y56146106D01*
G37*
D20*
X59994800Y55397400D03*
G04 #@! TD*
D19*
G04 #@! TO.C,C4*
G36*
X62839192Y52280606D02*
G01*
X62865281Y52276736D01*
X62890864Y52270328D01*
X62915696Y52261443D01*
X62939538Y52250166D01*
X62962160Y52236607D01*
X62983343Y52220897D01*
X63002885Y52203185D01*
X63020597Y52183643D01*
X63036307Y52162460D01*
X63049866Y52139838D01*
X63061143Y52115996D01*
X63070028Y52091164D01*
X63076436Y52065581D01*
X63080306Y52039492D01*
X63081600Y52013150D01*
X63081600Y51475650D01*
X63080306Y51449308D01*
X63076436Y51423219D01*
X63070028Y51397636D01*
X63061143Y51372804D01*
X63049866Y51348962D01*
X63036307Y51326340D01*
X63020597Y51305157D01*
X63002885Y51285615D01*
X62983343Y51267903D01*
X62962160Y51252193D01*
X62939538Y51238634D01*
X62915696Y51227357D01*
X62890864Y51218472D01*
X62865281Y51212064D01*
X62839192Y51208194D01*
X62812850Y51206900D01*
X61850350Y51206900D01*
X61824008Y51208194D01*
X61797919Y51212064D01*
X61772336Y51218472D01*
X61747504Y51227357D01*
X61723662Y51238634D01*
X61701040Y51252193D01*
X61679857Y51267903D01*
X61660315Y51285615D01*
X61642603Y51305157D01*
X61626893Y51326340D01*
X61613334Y51348962D01*
X61602057Y51372804D01*
X61593172Y51397636D01*
X61586764Y51423219D01*
X61582894Y51449308D01*
X61581600Y51475650D01*
X61581600Y52013150D01*
X61582894Y52039492D01*
X61586764Y52065581D01*
X61593172Y52091164D01*
X61602057Y52115996D01*
X61613334Y52139838D01*
X61626893Y52162460D01*
X61642603Y52183643D01*
X61660315Y52203185D01*
X61679857Y52220897D01*
X61701040Y52236607D01*
X61723662Y52250166D01*
X61747504Y52261443D01*
X61772336Y52270328D01*
X61797919Y52276736D01*
X61824008Y52280606D01*
X61850350Y52281900D01*
X62812850Y52281900D01*
X62839192Y52280606D01*
X62839192Y52280606D01*
G37*
D20*
X62331600Y51744400D03*
D19*
G36*
X62839192Y54155606D02*
G01*
X62865281Y54151736D01*
X62890864Y54145328D01*
X62915696Y54136443D01*
X62939538Y54125166D01*
X62962160Y54111607D01*
X62983343Y54095897D01*
X63002885Y54078185D01*
X63020597Y54058643D01*
X63036307Y54037460D01*
X63049866Y54014838D01*
X63061143Y53990996D01*
X63070028Y53966164D01*
X63076436Y53940581D01*
X63080306Y53914492D01*
X63081600Y53888150D01*
X63081600Y53350650D01*
X63080306Y53324308D01*
X63076436Y53298219D01*
X63070028Y53272636D01*
X63061143Y53247804D01*
X63049866Y53223962D01*
X63036307Y53201340D01*
X63020597Y53180157D01*
X63002885Y53160615D01*
X62983343Y53142903D01*
X62962160Y53127193D01*
X62939538Y53113634D01*
X62915696Y53102357D01*
X62890864Y53093472D01*
X62865281Y53087064D01*
X62839192Y53083194D01*
X62812850Y53081900D01*
X61850350Y53081900D01*
X61824008Y53083194D01*
X61797919Y53087064D01*
X61772336Y53093472D01*
X61747504Y53102357D01*
X61723662Y53113634D01*
X61701040Y53127193D01*
X61679857Y53142903D01*
X61660315Y53160615D01*
X61642603Y53180157D01*
X61626893Y53201340D01*
X61613334Y53223962D01*
X61602057Y53247804D01*
X61593172Y53272636D01*
X61586764Y53298219D01*
X61582894Y53324308D01*
X61581600Y53350650D01*
X61581600Y53888150D01*
X61582894Y53914492D01*
X61586764Y53940581D01*
X61593172Y53966164D01*
X61602057Y53990996D01*
X61613334Y54014838D01*
X61626893Y54037460D01*
X61642603Y54058643D01*
X61660315Y54078185D01*
X61679857Y54095897D01*
X61701040Y54111607D01*
X61723662Y54125166D01*
X61747504Y54136443D01*
X61772336Y54145328D01*
X61797919Y54151736D01*
X61824008Y54155606D01*
X61850350Y54156900D01*
X62812850Y54156900D01*
X62839192Y54155606D01*
X62839192Y54155606D01*
G37*
D20*
X62331600Y53619400D03*
G04 #@! TD*
D19*
G04 #@! TO.C,C3*
G36*
X54119992Y55968306D02*
G01*
X54146081Y55964436D01*
X54171664Y55958028D01*
X54196496Y55949143D01*
X54220338Y55937866D01*
X54242960Y55924307D01*
X54264143Y55908597D01*
X54283685Y55890885D01*
X54301397Y55871343D01*
X54317107Y55850160D01*
X54330666Y55827538D01*
X54341943Y55803696D01*
X54350828Y55778864D01*
X54357236Y55753281D01*
X54361106Y55727192D01*
X54362400Y55700850D01*
X54362400Y54738350D01*
X54361106Y54712008D01*
X54357236Y54685919D01*
X54350828Y54660336D01*
X54341943Y54635504D01*
X54330666Y54611662D01*
X54317107Y54589040D01*
X54301397Y54567857D01*
X54283685Y54548315D01*
X54264143Y54530603D01*
X54242960Y54514893D01*
X54220338Y54501334D01*
X54196496Y54490057D01*
X54171664Y54481172D01*
X54146081Y54474764D01*
X54119992Y54470894D01*
X54093650Y54469600D01*
X53556150Y54469600D01*
X53529808Y54470894D01*
X53503719Y54474764D01*
X53478136Y54481172D01*
X53453304Y54490057D01*
X53429462Y54501334D01*
X53406840Y54514893D01*
X53385657Y54530603D01*
X53366115Y54548315D01*
X53348403Y54567857D01*
X53332693Y54589040D01*
X53319134Y54611662D01*
X53307857Y54635504D01*
X53298972Y54660336D01*
X53292564Y54685919D01*
X53288694Y54712008D01*
X53287400Y54738350D01*
X53287400Y55700850D01*
X53288694Y55727192D01*
X53292564Y55753281D01*
X53298972Y55778864D01*
X53307857Y55803696D01*
X53319134Y55827538D01*
X53332693Y55850160D01*
X53348403Y55871343D01*
X53366115Y55890885D01*
X53385657Y55908597D01*
X53406840Y55924307D01*
X53429462Y55937866D01*
X53453304Y55949143D01*
X53478136Y55958028D01*
X53503719Y55964436D01*
X53529808Y55968306D01*
X53556150Y55969600D01*
X54093650Y55969600D01*
X54119992Y55968306D01*
X54119992Y55968306D01*
G37*
D20*
X53824900Y55219600D03*
D19*
G36*
X55994992Y55968306D02*
G01*
X56021081Y55964436D01*
X56046664Y55958028D01*
X56071496Y55949143D01*
X56095338Y55937866D01*
X56117960Y55924307D01*
X56139143Y55908597D01*
X56158685Y55890885D01*
X56176397Y55871343D01*
X56192107Y55850160D01*
X56205666Y55827538D01*
X56216943Y55803696D01*
X56225828Y55778864D01*
X56232236Y55753281D01*
X56236106Y55727192D01*
X56237400Y55700850D01*
X56237400Y54738350D01*
X56236106Y54712008D01*
X56232236Y54685919D01*
X56225828Y54660336D01*
X56216943Y54635504D01*
X56205666Y54611662D01*
X56192107Y54589040D01*
X56176397Y54567857D01*
X56158685Y54548315D01*
X56139143Y54530603D01*
X56117960Y54514893D01*
X56095338Y54501334D01*
X56071496Y54490057D01*
X56046664Y54481172D01*
X56021081Y54474764D01*
X55994992Y54470894D01*
X55968650Y54469600D01*
X55431150Y54469600D01*
X55404808Y54470894D01*
X55378719Y54474764D01*
X55353136Y54481172D01*
X55328304Y54490057D01*
X55304462Y54501334D01*
X55281840Y54514893D01*
X55260657Y54530603D01*
X55241115Y54548315D01*
X55223403Y54567857D01*
X55207693Y54589040D01*
X55194134Y54611662D01*
X55182857Y54635504D01*
X55173972Y54660336D01*
X55167564Y54685919D01*
X55163694Y54712008D01*
X55162400Y54738350D01*
X55162400Y55700850D01*
X55163694Y55727192D01*
X55167564Y55753281D01*
X55173972Y55778864D01*
X55182857Y55803696D01*
X55194134Y55827538D01*
X55207693Y55850160D01*
X55223403Y55871343D01*
X55241115Y55890885D01*
X55260657Y55908597D01*
X55281840Y55924307D01*
X55304462Y55937866D01*
X55328304Y55949143D01*
X55353136Y55958028D01*
X55378719Y55964436D01*
X55404808Y55968306D01*
X55431150Y55969600D01*
X55968650Y55969600D01*
X55994992Y55968306D01*
X55994992Y55968306D01*
G37*
D20*
X55699900Y55219600D03*
G04 #@! TD*
D19*
G04 #@! TO.C,C2*
G36*
X41614189Y44386699D02*
G01*
X41640278Y44382829D01*
X41665861Y44376421D01*
X41690693Y44367536D01*
X41714535Y44356259D01*
X41737157Y44342700D01*
X41758340Y44326990D01*
X41777882Y44309278D01*
X42157952Y43929208D01*
X42175664Y43909666D01*
X42191374Y43888483D01*
X42204933Y43865861D01*
X42216210Y43842019D01*
X42225095Y43817187D01*
X42231503Y43791604D01*
X42235373Y43765515D01*
X42236667Y43739173D01*
X42235373Y43712831D01*
X42231503Y43686742D01*
X42225095Y43661159D01*
X42216210Y43636327D01*
X42204933Y43612485D01*
X42191374Y43589863D01*
X42175664Y43568680D01*
X42157952Y43549138D01*
X41477362Y42868548D01*
X41457820Y42850836D01*
X41436637Y42835126D01*
X41414015Y42821567D01*
X41390173Y42810290D01*
X41365341Y42801405D01*
X41339758Y42794997D01*
X41313669Y42791127D01*
X41287327Y42789833D01*
X41260985Y42791127D01*
X41234896Y42794997D01*
X41209313Y42801405D01*
X41184481Y42810290D01*
X41160639Y42821567D01*
X41138017Y42835126D01*
X41116834Y42850836D01*
X41097292Y42868548D01*
X40717222Y43248618D01*
X40699510Y43268160D01*
X40683800Y43289343D01*
X40670241Y43311965D01*
X40658964Y43335807D01*
X40650079Y43360639D01*
X40643671Y43386222D01*
X40639801Y43412311D01*
X40638507Y43438653D01*
X40639801Y43464995D01*
X40643671Y43491084D01*
X40650079Y43516667D01*
X40658964Y43541499D01*
X40670241Y43565341D01*
X40683800Y43587963D01*
X40699510Y43609146D01*
X40717222Y43628688D01*
X41397812Y44309278D01*
X41417354Y44326990D01*
X41438537Y44342700D01*
X41461159Y44356259D01*
X41485001Y44367536D01*
X41509833Y44376421D01*
X41535416Y44382829D01*
X41561505Y44386699D01*
X41587847Y44387993D01*
X41614189Y44386699D01*
X41614189Y44386699D01*
G37*
D20*
X41437587Y43588913D03*
D19*
G36*
X42940015Y43060873D02*
G01*
X42966104Y43057003D01*
X42991687Y43050595D01*
X43016519Y43041710D01*
X43040361Y43030433D01*
X43062983Y43016874D01*
X43084166Y43001164D01*
X43103708Y42983452D01*
X43483778Y42603382D01*
X43501490Y42583840D01*
X43517200Y42562657D01*
X43530759Y42540035D01*
X43542036Y42516193D01*
X43550921Y42491361D01*
X43557329Y42465778D01*
X43561199Y42439689D01*
X43562493Y42413347D01*
X43561199Y42387005D01*
X43557329Y42360916D01*
X43550921Y42335333D01*
X43542036Y42310501D01*
X43530759Y42286659D01*
X43517200Y42264037D01*
X43501490Y42242854D01*
X43483778Y42223312D01*
X42803188Y41542722D01*
X42783646Y41525010D01*
X42762463Y41509300D01*
X42739841Y41495741D01*
X42715999Y41484464D01*
X42691167Y41475579D01*
X42665584Y41469171D01*
X42639495Y41465301D01*
X42613153Y41464007D01*
X42586811Y41465301D01*
X42560722Y41469171D01*
X42535139Y41475579D01*
X42510307Y41484464D01*
X42486465Y41495741D01*
X42463843Y41509300D01*
X42442660Y41525010D01*
X42423118Y41542722D01*
X42043048Y41922792D01*
X42025336Y41942334D01*
X42009626Y41963517D01*
X41996067Y41986139D01*
X41984790Y42009981D01*
X41975905Y42034813D01*
X41969497Y42060396D01*
X41965627Y42086485D01*
X41964333Y42112827D01*
X41965627Y42139169D01*
X41969497Y42165258D01*
X41975905Y42190841D01*
X41984790Y42215673D01*
X41996067Y42239515D01*
X42009626Y42262137D01*
X42025336Y42283320D01*
X42043048Y42302862D01*
X42723638Y42983452D01*
X42743180Y43001164D01*
X42764363Y43016874D01*
X42786985Y43030433D01*
X42810827Y43041710D01*
X42835659Y43050595D01*
X42861242Y43057003D01*
X42887331Y43060873D01*
X42913673Y43062167D01*
X42940015Y43060873D01*
X42940015Y43060873D01*
G37*
D20*
X42763413Y42263087D03*
G04 #@! TD*
D19*
G04 #@! TO.C,C1*
G36*
X39444256Y49255960D02*
G01*
X39470345Y49252090D01*
X39495928Y49245682D01*
X39520760Y49236797D01*
X39544602Y49225520D01*
X39567224Y49211961D01*
X39588407Y49196251D01*
X39607949Y49178539D01*
X40288539Y48497949D01*
X40306251Y48478407D01*
X40321961Y48457224D01*
X40335520Y48434602D01*
X40346797Y48410760D01*
X40355682Y48385928D01*
X40362090Y48360345D01*
X40365960Y48334256D01*
X40367254Y48307914D01*
X40365960Y48281572D01*
X40362090Y48255483D01*
X40355682Y48229900D01*
X40346797Y48205068D01*
X40335520Y48181226D01*
X40321961Y48158604D01*
X40306251Y48137421D01*
X40288539Y48117879D01*
X39908469Y47737809D01*
X39888927Y47720097D01*
X39867744Y47704387D01*
X39845122Y47690828D01*
X39821280Y47679551D01*
X39796448Y47670666D01*
X39770865Y47664258D01*
X39744776Y47660388D01*
X39718434Y47659094D01*
X39692092Y47660388D01*
X39666003Y47664258D01*
X39640420Y47670666D01*
X39615588Y47679551D01*
X39591746Y47690828D01*
X39569124Y47704387D01*
X39547941Y47720097D01*
X39528399Y47737809D01*
X38847809Y48418399D01*
X38830097Y48437941D01*
X38814387Y48459124D01*
X38800828Y48481746D01*
X38789551Y48505588D01*
X38780666Y48530420D01*
X38774258Y48556003D01*
X38770388Y48582092D01*
X38769094Y48608434D01*
X38770388Y48634776D01*
X38774258Y48660865D01*
X38780666Y48686448D01*
X38789551Y48711280D01*
X38800828Y48735122D01*
X38814387Y48757744D01*
X38830097Y48778927D01*
X38847809Y48798469D01*
X39227879Y49178539D01*
X39247421Y49196251D01*
X39268604Y49211961D01*
X39291226Y49225520D01*
X39315068Y49236797D01*
X39339900Y49245682D01*
X39365483Y49252090D01*
X39391572Y49255960D01*
X39417914Y49257254D01*
X39444256Y49255960D01*
X39444256Y49255960D01*
G37*
D20*
X39568174Y48458174D03*
D19*
G36*
X40770082Y50581786D02*
G01*
X40796171Y50577916D01*
X40821754Y50571508D01*
X40846586Y50562623D01*
X40870428Y50551346D01*
X40893050Y50537787D01*
X40914233Y50522077D01*
X40933775Y50504365D01*
X41614365Y49823775D01*
X41632077Y49804233D01*
X41647787Y49783050D01*
X41661346Y49760428D01*
X41672623Y49736586D01*
X41681508Y49711754D01*
X41687916Y49686171D01*
X41691786Y49660082D01*
X41693080Y49633740D01*
X41691786Y49607398D01*
X41687916Y49581309D01*
X41681508Y49555726D01*
X41672623Y49530894D01*
X41661346Y49507052D01*
X41647787Y49484430D01*
X41632077Y49463247D01*
X41614365Y49443705D01*
X41234295Y49063635D01*
X41214753Y49045923D01*
X41193570Y49030213D01*
X41170948Y49016654D01*
X41147106Y49005377D01*
X41122274Y48996492D01*
X41096691Y48990084D01*
X41070602Y48986214D01*
X41044260Y48984920D01*
X41017918Y48986214D01*
X40991829Y48990084D01*
X40966246Y48996492D01*
X40941414Y49005377D01*
X40917572Y49016654D01*
X40894950Y49030213D01*
X40873767Y49045923D01*
X40854225Y49063635D01*
X40173635Y49744225D01*
X40155923Y49763767D01*
X40140213Y49784950D01*
X40126654Y49807572D01*
X40115377Y49831414D01*
X40106492Y49856246D01*
X40100084Y49881829D01*
X40096214Y49907918D01*
X40094920Y49934260D01*
X40096214Y49960602D01*
X40100084Y49986691D01*
X40106492Y50012274D01*
X40115377Y50037106D01*
X40126654Y50060948D01*
X40140213Y50083570D01*
X40155923Y50104753D01*
X40173635Y50124295D01*
X40553705Y50504365D01*
X40573247Y50522077D01*
X40594430Y50537787D01*
X40617052Y50551346D01*
X40640894Y50562623D01*
X40665726Y50571508D01*
X40691309Y50577916D01*
X40717398Y50581786D01*
X40743740Y50583080D01*
X40770082Y50581786D01*
X40770082Y50581786D01*
G37*
D20*
X40894000Y49784000D03*
G04 #@! TD*
D22*
G04 #@! TO.C,U1*
X44347464Y43451118D03*
D19*
G36*
X44683340Y44246613D02*
G01*
X45142959Y43786994D01*
X44011588Y42655623D01*
X43551969Y43115242D01*
X44683340Y44246613D01*
X44683340Y44246613D01*
G37*
D22*
X44913150Y42885433D03*
D19*
G36*
X45249026Y43680928D02*
G01*
X45708645Y43221309D01*
X44577274Y42089938D01*
X44117655Y42549557D01*
X45249026Y43680928D01*
X45249026Y43680928D01*
G37*
D22*
X45478835Y42319748D03*
D19*
G36*
X45814711Y43115243D02*
G01*
X46274330Y42655624D01*
X45142959Y41524253D01*
X44683340Y41983872D01*
X45814711Y43115243D01*
X45814711Y43115243D01*
G37*
D22*
X46044520Y41754062D03*
D19*
G36*
X46380396Y42549557D02*
G01*
X46840015Y42089938D01*
X45708644Y40958567D01*
X45249025Y41418186D01*
X46380396Y42549557D01*
X46380396Y42549557D01*
G37*
D22*
X46610206Y41188377D03*
D19*
G36*
X46946082Y41983872D02*
G01*
X47405701Y41524253D01*
X46274330Y40392882D01*
X45814711Y40852501D01*
X46946082Y41983872D01*
X46946082Y41983872D01*
G37*
D22*
X47175891Y40622691D03*
D19*
G36*
X47511767Y41418186D02*
G01*
X47971386Y40958567D01*
X46840015Y39827196D01*
X46380396Y40286815D01*
X47511767Y41418186D01*
X47511767Y41418186D01*
G37*
D22*
X47741577Y40057006D03*
D19*
G36*
X48077453Y40852501D02*
G01*
X48537072Y40392882D01*
X47405701Y39261511D01*
X46946082Y39721130D01*
X48077453Y40852501D01*
X48077453Y40852501D01*
G37*
D22*
X48307262Y39491320D03*
D19*
G36*
X48643138Y40286815D02*
G01*
X49102757Y39827196D01*
X47971386Y38695825D01*
X47511767Y39155444D01*
X48643138Y40286815D01*
X48643138Y40286815D01*
G37*
D22*
X48872948Y38925635D03*
D19*
G36*
X49208824Y39721130D02*
G01*
X49668443Y39261511D01*
X48537072Y38130140D01*
X48077453Y38589759D01*
X49208824Y39721130D01*
X49208824Y39721130D01*
G37*
D22*
X49438633Y38359950D03*
D19*
G36*
X49774509Y39155445D02*
G01*
X50234128Y38695826D01*
X49102757Y37564455D01*
X48643138Y38024074D01*
X49774509Y39155445D01*
X49774509Y39155445D01*
G37*
D22*
X50004318Y37794264D03*
D19*
G36*
X50340194Y38589759D02*
G01*
X50799813Y38130140D01*
X49668442Y36998769D01*
X49208823Y37458388D01*
X50340194Y38589759D01*
X50340194Y38589759D01*
G37*
D22*
X52408482Y37794264D03*
D19*
G36*
X51612987Y38130140D02*
G01*
X52072606Y38589759D01*
X53203977Y37458388D01*
X52744358Y36998769D01*
X51612987Y38130140D01*
X51612987Y38130140D01*
G37*
D22*
X52974167Y38359950D03*
D19*
G36*
X52178672Y38695826D02*
G01*
X52638291Y39155445D01*
X53769662Y38024074D01*
X53310043Y37564455D01*
X52178672Y38695826D01*
X52178672Y38695826D01*
G37*
D22*
X53539852Y38925635D03*
D19*
G36*
X52744357Y39261511D02*
G01*
X53203976Y39721130D01*
X54335347Y38589759D01*
X53875728Y38130140D01*
X52744357Y39261511D01*
X52744357Y39261511D01*
G37*
D22*
X54105538Y39491320D03*
D19*
G36*
X53310043Y39827196D02*
G01*
X53769662Y40286815D01*
X54901033Y39155444D01*
X54441414Y38695825D01*
X53310043Y39827196D01*
X53310043Y39827196D01*
G37*
D22*
X54671223Y40057006D03*
D19*
G36*
X53875728Y40392882D02*
G01*
X54335347Y40852501D01*
X55466718Y39721130D01*
X55007099Y39261511D01*
X53875728Y40392882D01*
X53875728Y40392882D01*
G37*
D22*
X55236909Y40622691D03*
D19*
G36*
X54441414Y40958567D02*
G01*
X54901033Y41418186D01*
X56032404Y40286815D01*
X55572785Y39827196D01*
X54441414Y40958567D01*
X54441414Y40958567D01*
G37*
D22*
X55802594Y41188377D03*
D19*
G36*
X55007099Y41524253D02*
G01*
X55466718Y41983872D01*
X56598089Y40852501D01*
X56138470Y40392882D01*
X55007099Y41524253D01*
X55007099Y41524253D01*
G37*
D22*
X56368280Y41754062D03*
D19*
G36*
X55572785Y42089938D02*
G01*
X56032404Y42549557D01*
X57163775Y41418186D01*
X56704156Y40958567D01*
X55572785Y42089938D01*
X55572785Y42089938D01*
G37*
D22*
X56933965Y42319748D03*
D19*
G36*
X56138470Y42655624D02*
G01*
X56598089Y43115243D01*
X57729460Y41983872D01*
X57269841Y41524253D01*
X56138470Y42655624D01*
X56138470Y42655624D01*
G37*
D22*
X57499650Y42885433D03*
D19*
G36*
X56704155Y43221309D02*
G01*
X57163774Y43680928D01*
X58295145Y42549557D01*
X57835526Y42089938D01*
X56704155Y43221309D01*
X56704155Y43221309D01*
G37*
D22*
X58065336Y43451118D03*
D19*
G36*
X57269841Y43786994D02*
G01*
X57729460Y44246613D01*
X58860831Y43115242D01*
X58401212Y42655623D01*
X57269841Y43786994D01*
X57269841Y43786994D01*
G37*
D22*
X58065336Y45855282D03*
D19*
G36*
X58401212Y46650777D02*
G01*
X58860831Y46191158D01*
X57729460Y45059787D01*
X57269841Y45519406D01*
X58401212Y46650777D01*
X58401212Y46650777D01*
G37*
D22*
X57499650Y46420967D03*
D19*
G36*
X57835526Y47216462D02*
G01*
X58295145Y46756843D01*
X57163774Y45625472D01*
X56704155Y46085091D01*
X57835526Y47216462D01*
X57835526Y47216462D01*
G37*
D22*
X56933965Y46986652D03*
D19*
G36*
X57269841Y47782147D02*
G01*
X57729460Y47322528D01*
X56598089Y46191157D01*
X56138470Y46650776D01*
X57269841Y47782147D01*
X57269841Y47782147D01*
G37*
D22*
X56368280Y47552338D03*
D19*
G36*
X56704156Y48347833D02*
G01*
X57163775Y47888214D01*
X56032404Y46756843D01*
X55572785Y47216462D01*
X56704156Y48347833D01*
X56704156Y48347833D01*
G37*
D22*
X55802594Y48118023D03*
D19*
G36*
X56138470Y48913518D02*
G01*
X56598089Y48453899D01*
X55466718Y47322528D01*
X55007099Y47782147D01*
X56138470Y48913518D01*
X56138470Y48913518D01*
G37*
D22*
X55236909Y48683709D03*
D19*
G36*
X55572785Y49479204D02*
G01*
X56032404Y49019585D01*
X54901033Y47888214D01*
X54441414Y48347833D01*
X55572785Y49479204D01*
X55572785Y49479204D01*
G37*
D22*
X54671223Y49249394D03*
D19*
G36*
X55007099Y50044889D02*
G01*
X55466718Y49585270D01*
X54335347Y48453899D01*
X53875728Y48913518D01*
X55007099Y50044889D01*
X55007099Y50044889D01*
G37*
D22*
X54105538Y49815080D03*
D19*
G36*
X54441414Y50610575D02*
G01*
X54901033Y50150956D01*
X53769662Y49019585D01*
X53310043Y49479204D01*
X54441414Y50610575D01*
X54441414Y50610575D01*
G37*
D22*
X53539852Y50380765D03*
D19*
G36*
X53875728Y51176260D02*
G01*
X54335347Y50716641D01*
X53203976Y49585270D01*
X52744357Y50044889D01*
X53875728Y51176260D01*
X53875728Y51176260D01*
G37*
D22*
X52974167Y50946450D03*
D19*
G36*
X53310043Y51741945D02*
G01*
X53769662Y51282326D01*
X52638291Y50150955D01*
X52178672Y50610574D01*
X53310043Y51741945D01*
X53310043Y51741945D01*
G37*
D22*
X52408482Y51512136D03*
D19*
G36*
X52744358Y52307631D02*
G01*
X53203977Y51848012D01*
X52072606Y50716641D01*
X51612987Y51176260D01*
X52744358Y52307631D01*
X52744358Y52307631D01*
G37*
D22*
X50004318Y51512136D03*
D19*
G36*
X49208823Y51848012D02*
G01*
X49668442Y52307631D01*
X50799813Y51176260D01*
X50340194Y50716641D01*
X49208823Y51848012D01*
X49208823Y51848012D01*
G37*
D22*
X49438633Y50946450D03*
D19*
G36*
X48643138Y51282326D02*
G01*
X49102757Y51741945D01*
X50234128Y50610574D01*
X49774509Y50150955D01*
X48643138Y51282326D01*
X48643138Y51282326D01*
G37*
D22*
X48872948Y50380765D03*
D19*
G36*
X48077453Y50716641D02*
G01*
X48537072Y51176260D01*
X49668443Y50044889D01*
X49208824Y49585270D01*
X48077453Y50716641D01*
X48077453Y50716641D01*
G37*
D22*
X48307262Y49815080D03*
D19*
G36*
X47511767Y50150956D02*
G01*
X47971386Y50610575D01*
X49102757Y49479204D01*
X48643138Y49019585D01*
X47511767Y50150956D01*
X47511767Y50150956D01*
G37*
D22*
X47741577Y49249394D03*
D19*
G36*
X46946082Y49585270D02*
G01*
X47405701Y50044889D01*
X48537072Y48913518D01*
X48077453Y48453899D01*
X46946082Y49585270D01*
X46946082Y49585270D01*
G37*
D22*
X47175891Y48683709D03*
D19*
G36*
X46380396Y49019585D02*
G01*
X46840015Y49479204D01*
X47971386Y48347833D01*
X47511767Y47888214D01*
X46380396Y49019585D01*
X46380396Y49019585D01*
G37*
D22*
X46610206Y48118023D03*
D19*
G36*
X45814711Y48453899D02*
G01*
X46274330Y48913518D01*
X47405701Y47782147D01*
X46946082Y47322528D01*
X45814711Y48453899D01*
X45814711Y48453899D01*
G37*
D22*
X46044520Y47552338D03*
D19*
G36*
X45249025Y47888214D02*
G01*
X45708644Y48347833D01*
X46840015Y47216462D01*
X46380396Y46756843D01*
X45249025Y47888214D01*
X45249025Y47888214D01*
G37*
D22*
X45478835Y46986652D03*
D19*
G36*
X44683340Y47322528D02*
G01*
X45142959Y47782147D01*
X46274330Y46650776D01*
X45814711Y46191157D01*
X44683340Y47322528D01*
X44683340Y47322528D01*
G37*
D22*
X44913150Y46420967D03*
D19*
G36*
X44117655Y46756843D02*
G01*
X44577274Y47216462D01*
X45708645Y46085091D01*
X45249026Y45625472D01*
X44117655Y46756843D01*
X44117655Y46756843D01*
G37*
D22*
X44347464Y45855282D03*
D19*
G36*
X43551969Y46191158D02*
G01*
X44011588Y46650777D01*
X45142959Y45519406D01*
X44683340Y45059787D01*
X43551969Y46191158D01*
X43551969Y46191158D01*
G37*
G04 #@! TD*
D13*
G04 #@! TO.C,MX103*
X330454000Y87630000D03*
D12*
X327914000Y82550000D03*
D13*
X324104000Y85090000D03*
D10*
X322834000Y82550000D03*
X332994000Y82550000D03*
G04 #@! TD*
D13*
G04 #@! TO.C,MX102*
X320883779Y87636296D03*
D12*
X318343779Y82556296D03*
D13*
X314533779Y85096296D03*
D10*
X313263779Y82556296D03*
X323423779Y82556296D03*
D14*
X306437529Y89541296D03*
X330250029Y89541296D03*
D12*
X306437529Y74301296D03*
X330250029Y74301296D03*
G04 #@! TD*
D10*
G04 #@! TO.C,MX100*
X328250000Y6380000D03*
X318090000Y6380000D03*
D11*
X319360000Y8920000D03*
D12*
X323170000Y6380000D03*
D11*
X325710000Y11460000D03*
G04 #@! TD*
D13*
G04 #@! TO.C,MX99*
X330454000Y30480000D03*
D12*
X327914000Y25400000D03*
D13*
X324104000Y27940000D03*
D10*
X322834000Y25400000D03*
X332994000Y25400000D03*
G04 #@! TD*
D13*
G04 #@! TO.C,MX96*
X311404000Y87630000D03*
D12*
X308864000Y82550000D03*
D13*
X305054000Y85090000D03*
D10*
X303784000Y82550000D03*
X313944000Y82550000D03*
G04 #@! TD*
D11*
G04 #@! TO.C,MX95*
X328080000Y11500000D03*
D12*
X325540000Y6420000D03*
D11*
X321730000Y8960000D03*
D10*
X320460000Y6420000D03*
X330620000Y6420000D03*
G04 #@! TD*
G04 #@! TO.C,MX94*
X333000000Y6420000D03*
X322840000Y6420000D03*
D11*
X324110000Y8960000D03*
D12*
X327920000Y6420000D03*
D11*
X330460000Y11500000D03*
G04 #@! TD*
G04 #@! TO.C,MX92*
X311390000Y30500000D03*
D12*
X308850000Y25420000D03*
D11*
X305040000Y27960000D03*
D10*
X303770000Y25420000D03*
X313930000Y25420000D03*
G04 #@! TD*
D13*
G04 #@! TO.C,MX90*
X301830998Y68594483D03*
D12*
X299290998Y63514483D03*
D13*
X295480998Y66054483D03*
D10*
X294210998Y63514483D03*
X304370998Y63514483D03*
G04 #@! TD*
D13*
G04 #@! TO.C,MX89*
X292354000Y87630000D03*
D12*
X289814000Y82550000D03*
D13*
X286004000Y85090000D03*
D10*
X284734000Y82550000D03*
X294894000Y82550000D03*
G04 #@! TD*
D11*
G04 #@! TO.C,MX87*
X304200000Y30540000D03*
D12*
X301660000Y25460000D03*
D13*
X297850000Y28000000D03*
D10*
X296580000Y25460000D03*
X306740000Y25460000D03*
G04 #@! TD*
G04 #@! TO.C,MX86*
X294870000Y6380000D03*
X284710000Y6380000D03*
D13*
X285980000Y8920000D03*
D12*
X289790000Y6380000D03*
D13*
X292330000Y11460000D03*
G04 #@! TD*
D12*
G04 #@! TO.C,MX85*
X323096250Y17165000D03*
X299283750Y17165000D03*
D14*
X323096250Y32405000D03*
X299283750Y32405000D03*
D10*
X316270000Y25420000D03*
X306110000Y25420000D03*
D11*
X307380000Y27960000D03*
D12*
X311190000Y25420000D03*
D11*
X313730000Y30500000D03*
G04 #@! TD*
D13*
G04 #@! TO.C,MX84*
X287528000Y49530000D03*
D12*
X284988000Y44450000D03*
D13*
X281178000Y46990000D03*
D10*
X279908000Y44450000D03*
X290068000Y44450000D03*
G04 #@! TD*
D13*
G04 #@! TO.C,MX83*
X282829000Y68580000D03*
D12*
X280289000Y63500000D03*
D13*
X276479000Y66040000D03*
D10*
X275209000Y63500000D03*
X285369000Y63500000D03*
G04 #@! TD*
D13*
G04 #@! TO.C,MX82*
X273304000Y87630000D03*
D12*
X270764000Y82550000D03*
D13*
X266954000Y85090000D03*
D10*
X265684000Y82550000D03*
X275844000Y82550000D03*
G04 #@! TD*
D11*
G04 #@! TO.C,MX80*
X278020000Y11430000D03*
D12*
X275480000Y6350000D03*
D11*
X271670000Y8890000D03*
D10*
X270400000Y6350000D03*
X280560000Y6350000D03*
G04 #@! TD*
D13*
G04 #@! TO.C,MX79*
X278003000Y30480000D03*
D12*
X275463000Y25400000D03*
D13*
X271653000Y27940000D03*
D10*
X270383000Y25400000D03*
X280543000Y25400000D03*
G04 #@! TD*
D13*
G04 #@! TO.C,MX78*
X268478000Y49530000D03*
D12*
X265938000Y44450000D03*
D13*
X262128000Y46990000D03*
D10*
X260858000Y44450000D03*
X271018000Y44450000D03*
G04 #@! TD*
D13*
G04 #@! TO.C,MX77*
X263779000Y68580000D03*
D12*
X261239000Y63500000D03*
D13*
X257429000Y66040000D03*
D10*
X256159000Y63500000D03*
X266319000Y63500000D03*
G04 #@! TD*
D13*
G04 #@! TO.C,MX76*
X254254000Y87630000D03*
D12*
X251714000Y82550000D03*
D13*
X247904000Y85090000D03*
D10*
X246634000Y82550000D03*
X256794000Y82550000D03*
G04 #@! TD*
D11*
G04 #@! TO.C,MX75*
X256630000Y11440000D03*
D12*
X254090000Y6360000D03*
D11*
X250280000Y8900000D03*
D10*
X249010000Y6360000D03*
X259170000Y6360000D03*
G04 #@! TD*
D13*
G04 #@! TO.C,MX74*
X258953000Y30480000D03*
D12*
X256413000Y25400000D03*
D13*
X252603000Y27940000D03*
D10*
X251333000Y25400000D03*
X261493000Y25400000D03*
G04 #@! TD*
D13*
G04 #@! TO.C,MX73*
X249421586Y49561515D03*
D12*
X246881586Y44481515D03*
D13*
X243071586Y47021515D03*
D10*
X241801586Y44481515D03*
X251961586Y44481515D03*
G04 #@! TD*
D13*
G04 #@! TO.C,MX72*
X244729000Y68580000D03*
D12*
X242189000Y63500000D03*
D13*
X238379000Y66040000D03*
D10*
X237109000Y63500000D03*
X247269000Y63500000D03*
G04 #@! TD*
D13*
G04 #@! TO.C,MX71*
X235204000Y87630000D03*
D12*
X232664000Y82550000D03*
D13*
X228854000Y85090000D03*
D10*
X227584000Y82550000D03*
X237744000Y82550000D03*
G04 #@! TD*
D13*
G04 #@! TO.C,MX69*
X239903000Y30480000D03*
D12*
X237363000Y25400000D03*
D13*
X233553000Y27940000D03*
D10*
X232283000Y25400000D03*
X242443000Y25400000D03*
G04 #@! TD*
D13*
G04 #@! TO.C,MX67*
X225679000Y68580000D03*
D12*
X223139000Y63500000D03*
D13*
X219329000Y66040000D03*
D10*
X218059000Y63500000D03*
X228219000Y63500000D03*
G04 #@! TD*
D13*
G04 #@! TO.C,MX66*
X216154000Y87630000D03*
D12*
X213614000Y82550000D03*
D13*
X209804000Y85090000D03*
D10*
X208534000Y82550000D03*
X218694000Y82550000D03*
G04 #@! TD*
D13*
G04 #@! TO.C,MX65*
X220853000Y30480000D03*
D12*
X218313000Y25400000D03*
D13*
X214503000Y27940000D03*
D10*
X213233000Y25400000D03*
X223393000Y25400000D03*
G04 #@! TD*
G04 #@! TO.C,MX64*
X213868000Y44450000D03*
X203708000Y44450000D03*
D13*
X204978000Y46990000D03*
D12*
X208788000Y44450000D03*
D13*
X211328000Y49530000D03*
G04 #@! TD*
G04 #@! TO.C,MX63*
X206629000Y68580000D03*
D12*
X204089000Y63500000D03*
D13*
X200279000Y66040000D03*
D10*
X199009000Y63500000D03*
X209169000Y63500000D03*
G04 #@! TD*
D13*
G04 #@! TO.C,MX62*
X197104000Y87630000D03*
D12*
X194564000Y82550000D03*
D13*
X190754000Y85090000D03*
D10*
X189484000Y82550000D03*
X199644000Y82550000D03*
G04 #@! TD*
D13*
G04 #@! TO.C,MX59*
X201803000Y30480000D03*
D12*
X199263000Y25400000D03*
D13*
X195453000Y27940000D03*
D10*
X194183000Y25400000D03*
X204343000Y25400000D03*
G04 #@! TD*
D13*
G04 #@! TO.C,MX58*
X192278000Y49530000D03*
D12*
X189738000Y44450000D03*
D13*
X185928000Y46990000D03*
D10*
X184658000Y44450000D03*
X194818000Y44450000D03*
G04 #@! TD*
D13*
G04 #@! TO.C,MX57*
X187579000Y68580000D03*
D12*
X185039000Y63500000D03*
D13*
X181229000Y66040000D03*
D10*
X179959000Y63500000D03*
X190119000Y63500000D03*
G04 #@! TD*
D13*
G04 #@! TO.C,MX55*
X182753000Y30480000D03*
D12*
X180213000Y25400000D03*
D13*
X176403000Y27940000D03*
D10*
X175133000Y25400000D03*
X185293000Y25400000D03*
G04 #@! TD*
D13*
G04 #@! TO.C,MX54*
X173228000Y49530000D03*
D12*
X170688000Y44450000D03*
D13*
X166878000Y46990000D03*
D10*
X165608000Y44450000D03*
X175768000Y44450000D03*
G04 #@! TD*
D13*
G04 #@! TO.C,MX53*
X168529000Y68580000D03*
D12*
X165989000Y63500000D03*
D13*
X162179000Y66040000D03*
D10*
X160909000Y63500000D03*
X171069000Y63500000D03*
G04 #@! TD*
D13*
G04 #@! TO.C,MX52*
X159004000Y87630000D03*
D12*
X156464000Y82550000D03*
D13*
X152654000Y85090000D03*
D10*
X151384000Y82550000D03*
X161544000Y82550000D03*
G04 #@! TD*
D13*
G04 #@! TO.C,MX50*
X163703000Y30480000D03*
D12*
X161163000Y25400000D03*
D13*
X157353000Y27940000D03*
D10*
X156083000Y25400000D03*
X166243000Y25400000D03*
G04 #@! TD*
D13*
G04 #@! TO.C,MX49*
X154178000Y49530000D03*
D12*
X151638000Y44450000D03*
D13*
X147828000Y46990000D03*
D10*
X146558000Y44450000D03*
X156718000Y44450000D03*
G04 #@! TD*
D13*
G04 #@! TO.C,MX48*
X149479000Y68580000D03*
D12*
X146939000Y63500000D03*
D13*
X143129000Y66040000D03*
D10*
X141859000Y63500000D03*
X152019000Y63500000D03*
G04 #@! TD*
D13*
G04 #@! TO.C,MX47*
X139954000Y87630000D03*
D12*
X137414000Y82550000D03*
D13*
X133604000Y85090000D03*
D10*
X132334000Y82550000D03*
X142494000Y82550000D03*
G04 #@! TD*
D13*
G04 #@! TO.C,MX46*
X144653000Y30480000D03*
D12*
X142113000Y25400000D03*
D13*
X138303000Y27940000D03*
D10*
X137033000Y25400000D03*
X147193000Y25400000D03*
G04 #@! TD*
D13*
G04 #@! TO.C,MX45*
X135128000Y49530000D03*
D12*
X132588000Y44450000D03*
D13*
X128778000Y46990000D03*
D10*
X127508000Y44450000D03*
X137668000Y44450000D03*
G04 #@! TD*
D13*
G04 #@! TO.C,MX44*
X130429000Y68580000D03*
D12*
X127889000Y63500000D03*
D13*
X124079000Y66040000D03*
D10*
X122809000Y63500000D03*
X132969000Y63500000D03*
G04 #@! TD*
D13*
G04 #@! TO.C,MX43*
X120904000Y87630000D03*
D12*
X118364000Y82550000D03*
D13*
X114554000Y85090000D03*
D10*
X113284000Y82550000D03*
X123444000Y82550000D03*
G04 #@! TD*
D11*
G04 #@! TO.C,MX42*
X116078000Y11430000D03*
D12*
X113538000Y6350000D03*
D11*
X109728000Y8890000D03*
D10*
X108458000Y6350000D03*
X118618000Y6350000D03*
G04 #@! TD*
D13*
G04 #@! TO.C,MX41*
X125603000Y30480000D03*
D12*
X123063000Y25400000D03*
D13*
X119253000Y27940000D03*
D10*
X117983000Y25400000D03*
X128143000Y25400000D03*
G04 #@! TD*
D13*
G04 #@! TO.C,MX40*
X116078000Y49530000D03*
D12*
X113538000Y44450000D03*
D13*
X109728000Y46990000D03*
D10*
X108458000Y44450000D03*
X118618000Y44450000D03*
G04 #@! TD*
D13*
G04 #@! TO.C,MX39*
X111379000Y68580000D03*
D12*
X108839000Y63500000D03*
D13*
X105029000Y66040000D03*
D10*
X103759000Y63500000D03*
X113919000Y63500000D03*
G04 #@! TD*
D11*
G04 #@! TO.C,MX37*
X113665000Y11430000D03*
D12*
X111125000Y6350000D03*
D11*
X107315000Y8890000D03*
D10*
X106045000Y6350000D03*
X116205000Y6350000D03*
G04 #@! TD*
D11*
G04 #@! TO.C,MX36*
X92202000Y11430000D03*
D12*
X89662000Y6350000D03*
D11*
X85852000Y8890000D03*
D10*
X84582000Y6350000D03*
X94742000Y6350000D03*
G04 #@! TD*
D13*
G04 #@! TO.C,MX35*
X106553000Y30480000D03*
D12*
X104013000Y25400000D03*
D13*
X100203000Y27940000D03*
D10*
X98933000Y25400000D03*
X109093000Y25400000D03*
G04 #@! TD*
D13*
G04 #@! TO.C,MX34*
X97028000Y49530000D03*
D12*
X94488000Y44450000D03*
D13*
X90678000Y46990000D03*
D10*
X89408000Y44450000D03*
X99568000Y44450000D03*
G04 #@! TD*
D13*
G04 #@! TO.C,MX33*
X92329000Y68580000D03*
D12*
X89789000Y63500000D03*
D13*
X85979000Y66040000D03*
D10*
X84709000Y63500000D03*
X94869000Y63500000D03*
G04 #@! TD*
D13*
G04 #@! TO.C,MX32*
X82747937Y87612005D03*
D12*
X80207937Y82532005D03*
D13*
X76397937Y85072005D03*
D10*
X75127937Y82532005D03*
X85287937Y82532005D03*
G04 #@! TD*
D11*
G04 #@! TO.C,MX31*
X89789000Y11430000D03*
D12*
X87249000Y6350000D03*
D11*
X83439000Y8890000D03*
D10*
X82169000Y6350000D03*
X92329000Y6350000D03*
G04 #@! TD*
D13*
G04 #@! TO.C,MX30*
X75565000Y30480000D03*
D12*
X73025000Y25400000D03*
D13*
X69215000Y27940000D03*
D10*
X67945000Y25400000D03*
X78105000Y25400000D03*
D14*
X61118750Y32385000D03*
X84931250Y32385000D03*
D12*
X61118750Y17145000D03*
X84931250Y17145000D03*
G04 #@! TD*
D13*
G04 #@! TO.C,MX27*
X70828579Y49527006D03*
D12*
X68288579Y44447006D03*
D13*
X64478579Y46987006D03*
D10*
X63208579Y44447006D03*
X73368579Y44447006D03*
G04 #@! TD*
D13*
G04 #@! TO.C,MX26*
X68453000Y68580000D03*
D12*
X65913000Y63500000D03*
D13*
X62103000Y66040000D03*
D10*
X60833000Y63500000D03*
X70993000Y63500000D03*
G04 #@! TD*
D13*
G04 #@! TO.C,MX25*
X63702065Y87630000D03*
D12*
X61162065Y82550000D03*
D13*
X57352065Y85090000D03*
D10*
X56082065Y82550000D03*
X66242065Y82550000D03*
G04 #@! TD*
D13*
G04 #@! TO.C,MX23*
X35191000Y11430000D03*
D12*
X32651000Y6350000D03*
D13*
X28841000Y8890000D03*
D10*
X27571000Y6350000D03*
X37731000Y6350000D03*
G04 #@! TD*
D13*
G04 #@! TO.C,MX22*
X35191000Y30480000D03*
D12*
X32651000Y25400000D03*
D13*
X28841000Y27940000D03*
D10*
X27571000Y25400000D03*
X37731000Y25400000D03*
G04 #@! TD*
D13*
G04 #@! TO.C,MX21*
X35191000Y49530000D03*
D12*
X32651000Y44450000D03*
D13*
X28841000Y46990000D03*
D10*
X27571000Y44450000D03*
X37731000Y44450000D03*
G04 #@! TD*
D13*
G04 #@! TO.C,MX20*
X35191000Y68580000D03*
D12*
X32651000Y63500000D03*
D13*
X28841000Y66040000D03*
D10*
X27571000Y63500000D03*
X37731000Y63500000D03*
G04 #@! TD*
D13*
G04 #@! TO.C,MX18*
X16141000Y11430000D03*
D12*
X13601000Y6350000D03*
D13*
X9791000Y8890000D03*
D10*
X8521000Y6350000D03*
X18681000Y6350000D03*
G04 #@! TD*
D13*
G04 #@! TO.C,MX17*
X16141000Y30480000D03*
D12*
X13601000Y25400000D03*
D13*
X9791000Y27940000D03*
D10*
X8521000Y25400000D03*
X18681000Y25400000D03*
G04 #@! TD*
D13*
G04 #@! TO.C,MX16*
X16141000Y49530000D03*
D12*
X13601000Y44450000D03*
D13*
X9791000Y46990000D03*
D10*
X8521000Y44450000D03*
X18681000Y44450000D03*
G04 #@! TD*
D13*
G04 #@! TO.C,MX15*
X16141000Y68580000D03*
D12*
X13601000Y63500000D03*
D13*
X9791000Y66040000D03*
D10*
X8521000Y63500000D03*
X18681000Y63500000D03*
G04 #@! TD*
D13*
G04 #@! TO.C,MX11*
X-2909000Y30480000D03*
D12*
X-5449000Y25400000D03*
D13*
X-9259000Y27940000D03*
D10*
X-10529000Y25400000D03*
X-369000Y25400000D03*
G04 #@! TD*
D13*
G04 #@! TO.C,MX10*
X-2909000Y49530000D03*
D12*
X-5449000Y44450000D03*
D13*
X-9259000Y46990000D03*
D10*
X-10529000Y44450000D03*
X-369000Y44450000D03*
G04 #@! TD*
D13*
G04 #@! TO.C,MX9*
X-2909000Y68580000D03*
D12*
X-5449000Y63500000D03*
D13*
X-9259000Y66040000D03*
D10*
X-10529000Y63500000D03*
X-369000Y63500000D03*
G04 #@! TD*
D13*
G04 #@! TO.C,MX8*
X-2909000Y87630000D03*
D12*
X-5449000Y82550000D03*
D13*
X-9259000Y85090000D03*
D10*
X-10529000Y82550000D03*
X-369000Y82550000D03*
G04 #@! TD*
D13*
G04 #@! TO.C,MX7*
X-21959000Y30480000D03*
D12*
X-24499000Y25400000D03*
D13*
X-28309000Y27940000D03*
D10*
X-29579000Y25400000D03*
X-19419000Y25400000D03*
G04 #@! TD*
D13*
G04 #@! TO.C,MX6*
X-21959000Y11430000D03*
D12*
X-24499000Y6350000D03*
D13*
X-28309000Y8890000D03*
D10*
X-29579000Y6350000D03*
X-19419000Y6350000D03*
G04 #@! TD*
D13*
G04 #@! TO.C,MX5*
X-21959000Y68580000D03*
D12*
X-24499000Y63500000D03*
D13*
X-28309000Y66040000D03*
D10*
X-29579000Y63500000D03*
X-19419000Y63500000D03*
G04 #@! TD*
D13*
G04 #@! TO.C,MX4*
X-21959000Y49530000D03*
D12*
X-24499000Y44450000D03*
D13*
X-28309000Y46990000D03*
D10*
X-29579000Y44450000D03*
X-19419000Y44450000D03*
G04 #@! TD*
D13*
G04 #@! TO.C,MX3*
X-21959000Y87630000D03*
D12*
X-24499000Y82550000D03*
D13*
X-28309000Y85090000D03*
D10*
X-29579000Y82550000D03*
X-19419000Y82550000D03*
G04 #@! TD*
D13*
G04 #@! TO.C,MX2*
X-29579000Y18415000D03*
D12*
X-24499000Y15875000D03*
D13*
X-27039000Y12065000D03*
D10*
X-24499000Y10795000D03*
X-24499000Y20955000D03*
D14*
X-31484000Y3968750D03*
X-31484000Y27781250D03*
D12*
X-16244000Y3968750D03*
X-16244000Y27781250D03*
G04 #@! TD*
D13*
G04 #@! TO.C,MX1*
X-29579000Y56515000D03*
D12*
X-24499000Y53975000D03*
D13*
X-27039000Y50165000D03*
D10*
X-24499000Y48895000D03*
X-24499000Y59055000D03*
D14*
X-31484000Y42068750D03*
X-31484000Y65881250D03*
D12*
X-16244000Y42068750D03*
X-16244000Y65881250D03*
G04 #@! TD*
D17*
G04 #@! TO.C,D88*
X326700000Y86850000D03*
X326700000Y90150000D03*
G04 #@! TD*
G04 #@! TO.C,D87*
X315976000Y51436000D03*
X315976000Y54736000D03*
G04 #@! TD*
G04 #@! TO.C,D86*
X333084946Y11890132D03*
X333084946Y15190132D03*
G04 #@! TD*
G04 #@! TO.C,D85*
X319600000Y30354000D03*
X319600000Y33654000D03*
G04 #@! TD*
G04 #@! TO.C,D84*
X322072000Y68454000D03*
X322072000Y71754000D03*
G04 #@! TD*
G04 #@! TO.C,D83*
X301400000Y84750000D03*
X301400000Y88050000D03*
G04 #@! TD*
G04 #@! TO.C,D82*
X314071000Y12193000D03*
X314071000Y15493000D03*
G04 #@! TD*
G04 #@! TO.C,D78*
X298704000Y67056000D03*
X298704000Y70356000D03*
G04 #@! TD*
G04 #@! TO.C,D77*
X295072321Y86850000D03*
X295072321Y90150000D03*
G04 #@! TD*
G04 #@! TO.C,D76*
X291592000Y31878000D03*
X291592000Y35178000D03*
G04 #@! TD*
G04 #@! TO.C,D75*
X298958000Y10797000D03*
X298958000Y14097000D03*
G04 #@! TD*
G04 #@! TO.C,D74*
X290068000Y49658000D03*
X290068000Y52958000D03*
G04 #@! TD*
G04 #@! TO.C,D73*
X279400000Y68454000D03*
X279400000Y71754000D03*
G04 #@! TD*
G04 #@! TO.C,D72*
X275900000Y85050000D03*
X275900000Y88350000D03*
G04 #@! TD*
G04 #@! TO.C,D71*
X245110000Y11813000D03*
X245110000Y15113000D03*
G04 #@! TD*
G04 #@! TO.C,D70*
X274320000Y33276000D03*
X274320000Y36576000D03*
G04 #@! TD*
G04 #@! TO.C,D69*
X270648335Y51469629D03*
X270648335Y54769629D03*
G04 #@! TD*
G04 #@! TO.C,D68*
X266700000Y67056000D03*
X266700000Y70356000D03*
G04 #@! TD*
G04 #@! TO.C,D67*
X257000000Y86750000D03*
X257000000Y90050000D03*
G04 #@! TD*
G04 #@! TO.C,D66*
X261620000Y31878000D03*
X261620000Y35178000D03*
G04 #@! TD*
G04 #@! TO.C,D64*
X247904000Y68454000D03*
X247904000Y71754000D03*
G04 #@! TD*
G04 #@! TO.C,D63*
X237900000Y85450000D03*
X237900000Y88750000D03*
G04 #@! TD*
G04 #@! TO.C,D61*
X242316000Y33280303D03*
X242316000Y36580303D03*
G04 #@! TD*
G04 #@! TO.C,D59*
X228600000Y67056000D03*
X228600000Y70356000D03*
G04 #@! TD*
G04 #@! TO.C,D58*
X219100000Y86750000D03*
X219100000Y90050000D03*
G04 #@! TD*
G04 #@! TO.C,D57*
X223520000Y31878000D03*
X223520000Y35178000D03*
G04 #@! TD*
G04 #@! TO.C,D56*
X213868000Y49658000D03*
X213868000Y52958000D03*
G04 #@! TD*
G04 #@! TO.C,D55*
X209296000Y68454000D03*
X209296000Y71754000D03*
G04 #@! TD*
G04 #@! TO.C,D54*
X200100000Y85350000D03*
X200100000Y88650000D03*
G04 #@! TD*
G04 #@! TO.C,D53*
X200406000Y11812000D03*
X200406000Y15112000D03*
G04 #@! TD*
G04 #@! TO.C,D52*
X204231923Y33021548D03*
X204231923Y36321548D03*
G04 #@! TD*
G04 #@! TO.C,D51*
X194539062Y51571296D03*
X194539062Y54871296D03*
G04 #@! TD*
G04 #@! TO.C,D50*
X190500000Y67056000D03*
X190500000Y70356000D03*
G04 #@! TD*
G04 #@! TO.C,D49*
X180900000Y86750000D03*
X180900000Y90050000D03*
G04 #@! TD*
G04 #@! TO.C,D48*
X185928000Y32004000D03*
X185928000Y35304000D03*
G04 #@! TD*
G04 #@! TO.C,D47*
X176276000Y49658000D03*
X176276000Y52958000D03*
G04 #@! TD*
G04 #@! TO.C,D46*
X171167682Y68391097D03*
X171167682Y71691097D03*
G04 #@! TD*
G04 #@! TO.C,D45*
X161700000Y85150000D03*
X161700000Y88450000D03*
G04 #@! TD*
G04 #@! TO.C,D43*
X166116000Y33020000D03*
X166116000Y36320000D03*
G04 #@! TD*
G04 #@! TO.C,D42*
X156407152Y51580050D03*
X156407152Y54880050D03*
G04 #@! TD*
G04 #@! TO.C,D41*
X152400000Y67056000D03*
X152400000Y70356000D03*
G04 #@! TD*
G04 #@! TO.C,D40*
X142800000Y86850000D03*
X142800000Y90150000D03*
G04 #@! TD*
G04 #@! TO.C,D39*
X147320000Y32004000D03*
X147320000Y35304000D03*
G04 #@! TD*
G04 #@! TO.C,D38*
X137956227Y49618600D03*
X137956227Y52918600D03*
G04 #@! TD*
G04 #@! TO.C,D37*
X133096000Y68454000D03*
X133096000Y71754000D03*
G04 #@! TD*
G04 #@! TO.C,D36*
X123900000Y85250000D03*
X123900000Y88550000D03*
G04 #@! TD*
G04 #@! TO.C,D35*
X119380000Y9652000D03*
X119380000Y12952000D03*
G04 #@! TD*
G04 #@! TO.C,D34*
X128016000Y33020000D03*
X128016000Y36320000D03*
G04 #@! TD*
G04 #@! TO.C,D33*
X118650577Y51605173D03*
X118650577Y54905173D03*
G04 #@! TD*
G04 #@! TO.C,D32*
X114094404Y67039064D03*
X114094404Y70339064D03*
G04 #@! TD*
G04 #@! TO.C,D31*
X104666244Y86850000D03*
X104666244Y90150000D03*
G04 #@! TD*
G04 #@! TO.C,D30*
X96520000Y12066000D03*
X96520000Y15366000D03*
G04 #@! TD*
G04 #@! TO.C,D29*
X109220000Y32004000D03*
X109220000Y35304000D03*
G04 #@! TD*
G04 #@! TO.C,D28*
X99800714Y49610479D03*
X99800714Y52910479D03*
G04 #@! TD*
G04 #@! TO.C,D27*
X94996000Y68454000D03*
X94996000Y71754000D03*
G04 #@! TD*
G04 #@! TO.C,D26*
X86000000Y84850000D03*
X86000000Y88150000D03*
G04 #@! TD*
G04 #@! TO.C,D25*
X56896000Y12192000D03*
X56896000Y15492000D03*
G04 #@! TD*
G04 #@! TO.C,D24*
X78212251Y32938443D03*
X78212251Y36238443D03*
G04 #@! TD*
G04 #@! TO.C,D23*
X73622053Y51499894D03*
X73622053Y54799894D03*
G04 #@! TD*
G04 #@! TO.C,D22*
X71120000Y67056000D03*
X71120000Y70356000D03*
G04 #@! TD*
G04 #@! TO.C,D21*
X66400000Y86850000D03*
X66400000Y90150000D03*
G04 #@! TD*
G04 #@! TO.C,D20*
X1536000Y14098000D03*
X1536000Y17398000D03*
G04 #@! TD*
G04 #@! TO.C,D19*
X38112000Y31752000D03*
X38112000Y35052000D03*
G04 #@! TD*
G04 #@! TO.C,D18*
X31800000Y49700000D03*
X31800000Y53000000D03*
G04 #@! TD*
G04 #@! TO.C,D17*
X37846111Y68431002D03*
X37846111Y71731002D03*
G04 #@! TD*
G04 #@! TO.C,D16*
X38112000Y85450000D03*
X38112000Y88750000D03*
G04 #@! TD*
G04 #@! TO.C,D15*
X19300310Y12176862D03*
X19300310Y15476862D03*
G04 #@! TD*
G04 #@! TO.C,D14*
X19316000Y32894000D03*
X19316000Y36194000D03*
G04 #@! TD*
G04 #@! TO.C,D13*
X18808000Y51564000D03*
X18808000Y54864000D03*
G04 #@! TD*
G04 #@! TO.C,D12*
X18808000Y67056000D03*
X18808000Y70356000D03*
G04 #@! TD*
G04 #@! TO.C,D11*
X18792360Y87050000D03*
X18792360Y90350000D03*
G04 #@! TD*
G04 #@! TO.C,D10*
X38366000Y14098000D03*
X38366000Y17398000D03*
G04 #@! TD*
G04 #@! TO.C,D9*
X115775Y31793471D03*
X115775Y35093471D03*
G04 #@! TD*
G04 #@! TO.C,D8*
X12000Y49658000D03*
X12000Y52958000D03*
G04 #@! TD*
G04 #@! TO.C,D7*
X12000Y68580000D03*
X12000Y71880000D03*
G04 #@! TD*
G04 #@! TO.C,D5*
X-18784000Y18540000D03*
X-18784000Y15240000D03*
G04 #@! TD*
G04 #@! TO.C,D4*
X-16244000Y11050000D03*
X-16244000Y14350000D03*
G04 #@! TD*
G04 #@! TO.C,D3*
X-18784000Y58164000D03*
X-18784000Y54864000D03*
G04 #@! TD*
G04 #@! TO.C,D2*
X-18784000Y49658000D03*
X-18784000Y52958000D03*
G04 #@! TD*
G04 #@! TO.C,D1*
X-19000000Y86950000D03*
X-19000000Y90250000D03*
G04 #@! TD*
M02*
