G04 #@! TF.GenerationSoftware,KiCad,Pcbnew,(5.1.4)-1*
G04 #@! TF.CreationDate,2020-09-27T05:36:18-04:00*
G04 #@! TF.ProjectId,southpaw daughter board,736f7574-6870-4617-9720-646175676874,rev?*
G04 #@! TF.SameCoordinates,Original*
G04 #@! TF.FileFunction,Paste,Bot*
G04 #@! TF.FilePolarity,Positive*
%FSLAX46Y46*%
G04 Gerber Fmt 4.6, Leading zero omitted, Abs format (unit mm)*
G04 Created by KiCad (PCBNEW (5.1.4)-1) date 2020-09-27 05:36:18*
%MOMM*%
%LPD*%
G04 APERTURE LIST*
%ADD10R,1.200000X1.800000*%
%ADD11R,0.600000X1.550000*%
%ADD12R,1.200000X0.900000*%
%ADD13R,1.400000X1.200000*%
%ADD14C,0.100000*%
%ADD15C,0.975000*%
%ADD16C,0.550000*%
G04 APERTURE END LIST*
D10*
G04 #@! TO.C,J2*
X6825200Y79999000D03*
X1225200Y79999000D03*
D11*
X2525200Y76124000D03*
X3525200Y76124000D03*
X5525200Y76124000D03*
X4525200Y76124000D03*
G04 #@! TD*
D12*
G04 #@! TO.C,D44*
X259842000Y10924000D03*
X259842000Y14224000D03*
G04 #@! TD*
G04 #@! TO.C,D65*
X251968000Y49658000D03*
X251968000Y52958000D03*
G04 #@! TD*
G04 #@! TO.C,D60*
X232461861Y51448214D03*
X232461861Y54748214D03*
G04 #@! TD*
G04 #@! TO.C,D6*
X100000Y85350000D03*
X100000Y88650000D03*
G04 #@! TD*
D13*
G04 #@! TO.C,Y1*
X60332800Y53555000D03*
X58132800Y53555000D03*
X58132800Y51855000D03*
X60332800Y51855000D03*
G04 #@! TD*
D14*
G04 #@! TO.C,R6*
G36*
X52797142Y33591826D02*
G01*
X52820803Y33588316D01*
X52844007Y33582504D01*
X52866529Y33574446D01*
X52888153Y33564218D01*
X52908670Y33551921D01*
X52927883Y33537671D01*
X52945607Y33521607D01*
X52961671Y33503883D01*
X52975921Y33484670D01*
X52988218Y33464153D01*
X52998446Y33442529D01*
X53006504Y33420007D01*
X53012316Y33396803D01*
X53015826Y33373142D01*
X53017000Y33349250D01*
X53017000Y32436750D01*
X53015826Y32412858D01*
X53012316Y32389197D01*
X53006504Y32365993D01*
X52998446Y32343471D01*
X52988218Y32321847D01*
X52975921Y32301330D01*
X52961671Y32282117D01*
X52945607Y32264393D01*
X52927883Y32248329D01*
X52908670Y32234079D01*
X52888153Y32221782D01*
X52866529Y32211554D01*
X52844007Y32203496D01*
X52820803Y32197684D01*
X52797142Y32194174D01*
X52773250Y32193000D01*
X52285750Y32193000D01*
X52261858Y32194174D01*
X52238197Y32197684D01*
X52214993Y32203496D01*
X52192471Y32211554D01*
X52170847Y32221782D01*
X52150330Y32234079D01*
X52131117Y32248329D01*
X52113393Y32264393D01*
X52097329Y32282117D01*
X52083079Y32301330D01*
X52070782Y32321847D01*
X52060554Y32343471D01*
X52052496Y32365993D01*
X52046684Y32389197D01*
X52043174Y32412858D01*
X52042000Y32436750D01*
X52042000Y33349250D01*
X52043174Y33373142D01*
X52046684Y33396803D01*
X52052496Y33420007D01*
X52060554Y33442529D01*
X52070782Y33464153D01*
X52083079Y33484670D01*
X52097329Y33503883D01*
X52113393Y33521607D01*
X52131117Y33537671D01*
X52150330Y33551921D01*
X52170847Y33564218D01*
X52192471Y33574446D01*
X52214993Y33582504D01*
X52238197Y33588316D01*
X52261858Y33591826D01*
X52285750Y33593000D01*
X52773250Y33593000D01*
X52797142Y33591826D01*
X52797142Y33591826D01*
G37*
D15*
X52529500Y32893000D03*
D14*
G36*
X54672142Y33591826D02*
G01*
X54695803Y33588316D01*
X54719007Y33582504D01*
X54741529Y33574446D01*
X54763153Y33564218D01*
X54783670Y33551921D01*
X54802883Y33537671D01*
X54820607Y33521607D01*
X54836671Y33503883D01*
X54850921Y33484670D01*
X54863218Y33464153D01*
X54873446Y33442529D01*
X54881504Y33420007D01*
X54887316Y33396803D01*
X54890826Y33373142D01*
X54892000Y33349250D01*
X54892000Y32436750D01*
X54890826Y32412858D01*
X54887316Y32389197D01*
X54881504Y32365993D01*
X54873446Y32343471D01*
X54863218Y32321847D01*
X54850921Y32301330D01*
X54836671Y32282117D01*
X54820607Y32264393D01*
X54802883Y32248329D01*
X54783670Y32234079D01*
X54763153Y32221782D01*
X54741529Y32211554D01*
X54719007Y32203496D01*
X54695803Y32197684D01*
X54672142Y32194174D01*
X54648250Y32193000D01*
X54160750Y32193000D01*
X54136858Y32194174D01*
X54113197Y32197684D01*
X54089993Y32203496D01*
X54067471Y32211554D01*
X54045847Y32221782D01*
X54025330Y32234079D01*
X54006117Y32248329D01*
X53988393Y32264393D01*
X53972329Y32282117D01*
X53958079Y32301330D01*
X53945782Y32321847D01*
X53935554Y32343471D01*
X53927496Y32365993D01*
X53921684Y32389197D01*
X53918174Y32412858D01*
X53917000Y32436750D01*
X53917000Y33349250D01*
X53918174Y33373142D01*
X53921684Y33396803D01*
X53927496Y33420007D01*
X53935554Y33442529D01*
X53945782Y33464153D01*
X53958079Y33484670D01*
X53972329Y33503883D01*
X53988393Y33521607D01*
X54006117Y33537671D01*
X54025330Y33551921D01*
X54045847Y33564218D01*
X54067471Y33574446D01*
X54089993Y33582504D01*
X54113197Y33588316D01*
X54136858Y33591826D01*
X54160750Y33593000D01*
X54648250Y33593000D01*
X54672142Y33591826D01*
X54672142Y33591826D01*
G37*
D15*
X54404500Y32893000D03*
G04 #@! TD*
D14*
G04 #@! TO.C,R3*
G36*
X7874242Y73850826D02*
G01*
X7897903Y73847316D01*
X7921107Y73841504D01*
X7943629Y73833446D01*
X7965253Y73823218D01*
X7985770Y73810921D01*
X8004983Y73796671D01*
X8022707Y73780607D01*
X8038771Y73762883D01*
X8053021Y73743670D01*
X8065318Y73723153D01*
X8075546Y73701529D01*
X8083604Y73679007D01*
X8089416Y73655803D01*
X8092926Y73632142D01*
X8094100Y73608250D01*
X8094100Y72695750D01*
X8092926Y72671858D01*
X8089416Y72648197D01*
X8083604Y72624993D01*
X8075546Y72602471D01*
X8065318Y72580847D01*
X8053021Y72560330D01*
X8038771Y72541117D01*
X8022707Y72523393D01*
X8004983Y72507329D01*
X7985770Y72493079D01*
X7965253Y72480782D01*
X7943629Y72470554D01*
X7921107Y72462496D01*
X7897903Y72456684D01*
X7874242Y72453174D01*
X7850350Y72452000D01*
X7362850Y72452000D01*
X7338958Y72453174D01*
X7315297Y72456684D01*
X7292093Y72462496D01*
X7269571Y72470554D01*
X7247947Y72480782D01*
X7227430Y72493079D01*
X7208217Y72507329D01*
X7190493Y72523393D01*
X7174429Y72541117D01*
X7160179Y72560330D01*
X7147882Y72580847D01*
X7137654Y72602471D01*
X7129596Y72624993D01*
X7123784Y72648197D01*
X7120274Y72671858D01*
X7119100Y72695750D01*
X7119100Y73608250D01*
X7120274Y73632142D01*
X7123784Y73655803D01*
X7129596Y73679007D01*
X7137654Y73701529D01*
X7147882Y73723153D01*
X7160179Y73743670D01*
X7174429Y73762883D01*
X7190493Y73780607D01*
X7208217Y73796671D01*
X7227430Y73810921D01*
X7247947Y73823218D01*
X7269571Y73833446D01*
X7292093Y73841504D01*
X7315297Y73847316D01*
X7338958Y73850826D01*
X7362850Y73852000D01*
X7850350Y73852000D01*
X7874242Y73850826D01*
X7874242Y73850826D01*
G37*
D15*
X7606600Y73152000D03*
D14*
G36*
X9749242Y73850826D02*
G01*
X9772903Y73847316D01*
X9796107Y73841504D01*
X9818629Y73833446D01*
X9840253Y73823218D01*
X9860770Y73810921D01*
X9879983Y73796671D01*
X9897707Y73780607D01*
X9913771Y73762883D01*
X9928021Y73743670D01*
X9940318Y73723153D01*
X9950546Y73701529D01*
X9958604Y73679007D01*
X9964416Y73655803D01*
X9967926Y73632142D01*
X9969100Y73608250D01*
X9969100Y72695750D01*
X9967926Y72671858D01*
X9964416Y72648197D01*
X9958604Y72624993D01*
X9950546Y72602471D01*
X9940318Y72580847D01*
X9928021Y72560330D01*
X9913771Y72541117D01*
X9897707Y72523393D01*
X9879983Y72507329D01*
X9860770Y72493079D01*
X9840253Y72480782D01*
X9818629Y72470554D01*
X9796107Y72462496D01*
X9772903Y72456684D01*
X9749242Y72453174D01*
X9725350Y72452000D01*
X9237850Y72452000D01*
X9213958Y72453174D01*
X9190297Y72456684D01*
X9167093Y72462496D01*
X9144571Y72470554D01*
X9122947Y72480782D01*
X9102430Y72493079D01*
X9083217Y72507329D01*
X9065493Y72523393D01*
X9049429Y72541117D01*
X9035179Y72560330D01*
X9022882Y72580847D01*
X9012654Y72602471D01*
X9004596Y72624993D01*
X8998784Y72648197D01*
X8995274Y72671858D01*
X8994100Y72695750D01*
X8994100Y73608250D01*
X8995274Y73632142D01*
X8998784Y73655803D01*
X9004596Y73679007D01*
X9012654Y73701529D01*
X9022882Y73723153D01*
X9035179Y73743670D01*
X9049429Y73762883D01*
X9065493Y73780607D01*
X9083217Y73796671D01*
X9102430Y73810921D01*
X9122947Y73823218D01*
X9144571Y73833446D01*
X9167093Y73841504D01*
X9190297Y73847316D01*
X9213958Y73850826D01*
X9237850Y73852000D01*
X9725350Y73852000D01*
X9749242Y73850826D01*
X9749242Y73850826D01*
G37*
D15*
X9481600Y73152000D03*
G04 #@! TD*
D14*
G04 #@! TO.C,R2*
G36*
X7874242Y75908226D02*
G01*
X7897903Y75904716D01*
X7921107Y75898904D01*
X7943629Y75890846D01*
X7965253Y75880618D01*
X7985770Y75868321D01*
X8004983Y75854071D01*
X8022707Y75838007D01*
X8038771Y75820283D01*
X8053021Y75801070D01*
X8065318Y75780553D01*
X8075546Y75758929D01*
X8083604Y75736407D01*
X8089416Y75713203D01*
X8092926Y75689542D01*
X8094100Y75665650D01*
X8094100Y74753150D01*
X8092926Y74729258D01*
X8089416Y74705597D01*
X8083604Y74682393D01*
X8075546Y74659871D01*
X8065318Y74638247D01*
X8053021Y74617730D01*
X8038771Y74598517D01*
X8022707Y74580793D01*
X8004983Y74564729D01*
X7985770Y74550479D01*
X7965253Y74538182D01*
X7943629Y74527954D01*
X7921107Y74519896D01*
X7897903Y74514084D01*
X7874242Y74510574D01*
X7850350Y74509400D01*
X7362850Y74509400D01*
X7338958Y74510574D01*
X7315297Y74514084D01*
X7292093Y74519896D01*
X7269571Y74527954D01*
X7247947Y74538182D01*
X7227430Y74550479D01*
X7208217Y74564729D01*
X7190493Y74580793D01*
X7174429Y74598517D01*
X7160179Y74617730D01*
X7147882Y74638247D01*
X7137654Y74659871D01*
X7129596Y74682393D01*
X7123784Y74705597D01*
X7120274Y74729258D01*
X7119100Y74753150D01*
X7119100Y75665650D01*
X7120274Y75689542D01*
X7123784Y75713203D01*
X7129596Y75736407D01*
X7137654Y75758929D01*
X7147882Y75780553D01*
X7160179Y75801070D01*
X7174429Y75820283D01*
X7190493Y75838007D01*
X7208217Y75854071D01*
X7227430Y75868321D01*
X7247947Y75880618D01*
X7269571Y75890846D01*
X7292093Y75898904D01*
X7315297Y75904716D01*
X7338958Y75908226D01*
X7362850Y75909400D01*
X7850350Y75909400D01*
X7874242Y75908226D01*
X7874242Y75908226D01*
G37*
D15*
X7606600Y75209400D03*
D14*
G36*
X9749242Y75908226D02*
G01*
X9772903Y75904716D01*
X9796107Y75898904D01*
X9818629Y75890846D01*
X9840253Y75880618D01*
X9860770Y75868321D01*
X9879983Y75854071D01*
X9897707Y75838007D01*
X9913771Y75820283D01*
X9928021Y75801070D01*
X9940318Y75780553D01*
X9950546Y75758929D01*
X9958604Y75736407D01*
X9964416Y75713203D01*
X9967926Y75689542D01*
X9969100Y75665650D01*
X9969100Y74753150D01*
X9967926Y74729258D01*
X9964416Y74705597D01*
X9958604Y74682393D01*
X9950546Y74659871D01*
X9940318Y74638247D01*
X9928021Y74617730D01*
X9913771Y74598517D01*
X9897707Y74580793D01*
X9879983Y74564729D01*
X9860770Y74550479D01*
X9840253Y74538182D01*
X9818629Y74527954D01*
X9796107Y74519896D01*
X9772903Y74514084D01*
X9749242Y74510574D01*
X9725350Y74509400D01*
X9237850Y74509400D01*
X9213958Y74510574D01*
X9190297Y74514084D01*
X9167093Y74519896D01*
X9144571Y74527954D01*
X9122947Y74538182D01*
X9102430Y74550479D01*
X9083217Y74564729D01*
X9065493Y74580793D01*
X9049429Y74598517D01*
X9035179Y74617730D01*
X9022882Y74638247D01*
X9012654Y74659871D01*
X9004596Y74682393D01*
X8998784Y74705597D01*
X8995274Y74729258D01*
X8994100Y74753150D01*
X8994100Y75665650D01*
X8995274Y75689542D01*
X8998784Y75713203D01*
X9004596Y75736407D01*
X9012654Y75758929D01*
X9022882Y75780553D01*
X9035179Y75801070D01*
X9049429Y75820283D01*
X9065493Y75838007D01*
X9083217Y75854071D01*
X9102430Y75868321D01*
X9122947Y75880618D01*
X9144571Y75890846D01*
X9167093Y75898904D01*
X9190297Y75904716D01*
X9213958Y75908226D01*
X9237850Y75909400D01*
X9725350Y75909400D01*
X9749242Y75908226D01*
X9749242Y75908226D01*
G37*
D15*
X9481600Y75209400D03*
G04 #@! TD*
D14*
G04 #@! TO.C,R1*
G36*
X56309342Y59384326D02*
G01*
X56333003Y59380816D01*
X56356207Y59375004D01*
X56378729Y59366946D01*
X56400353Y59356718D01*
X56420870Y59344421D01*
X56440083Y59330171D01*
X56457807Y59314107D01*
X56473871Y59296383D01*
X56488121Y59277170D01*
X56500418Y59256653D01*
X56510646Y59235029D01*
X56518704Y59212507D01*
X56524516Y59189303D01*
X56528026Y59165642D01*
X56529200Y59141750D01*
X56529200Y58654250D01*
X56528026Y58630358D01*
X56524516Y58606697D01*
X56518704Y58583493D01*
X56510646Y58560971D01*
X56500418Y58539347D01*
X56488121Y58518830D01*
X56473871Y58499617D01*
X56457807Y58481893D01*
X56440083Y58465829D01*
X56420870Y58451579D01*
X56400353Y58439282D01*
X56378729Y58429054D01*
X56356207Y58420996D01*
X56333003Y58415184D01*
X56309342Y58411674D01*
X56285450Y58410500D01*
X55372950Y58410500D01*
X55349058Y58411674D01*
X55325397Y58415184D01*
X55302193Y58420996D01*
X55279671Y58429054D01*
X55258047Y58439282D01*
X55237530Y58451579D01*
X55218317Y58465829D01*
X55200593Y58481893D01*
X55184529Y58499617D01*
X55170279Y58518830D01*
X55157982Y58539347D01*
X55147754Y58560971D01*
X55139696Y58583493D01*
X55133884Y58606697D01*
X55130374Y58630358D01*
X55129200Y58654250D01*
X55129200Y59141750D01*
X55130374Y59165642D01*
X55133884Y59189303D01*
X55139696Y59212507D01*
X55147754Y59235029D01*
X55157982Y59256653D01*
X55170279Y59277170D01*
X55184529Y59296383D01*
X55200593Y59314107D01*
X55218317Y59330171D01*
X55237530Y59344421D01*
X55258047Y59356718D01*
X55279671Y59366946D01*
X55302193Y59375004D01*
X55325397Y59380816D01*
X55349058Y59384326D01*
X55372950Y59385500D01*
X56285450Y59385500D01*
X56309342Y59384326D01*
X56309342Y59384326D01*
G37*
D15*
X55829200Y58898000D03*
D14*
G36*
X56309342Y57509326D02*
G01*
X56333003Y57505816D01*
X56356207Y57500004D01*
X56378729Y57491946D01*
X56400353Y57481718D01*
X56420870Y57469421D01*
X56440083Y57455171D01*
X56457807Y57439107D01*
X56473871Y57421383D01*
X56488121Y57402170D01*
X56500418Y57381653D01*
X56510646Y57360029D01*
X56518704Y57337507D01*
X56524516Y57314303D01*
X56528026Y57290642D01*
X56529200Y57266750D01*
X56529200Y56779250D01*
X56528026Y56755358D01*
X56524516Y56731697D01*
X56518704Y56708493D01*
X56510646Y56685971D01*
X56500418Y56664347D01*
X56488121Y56643830D01*
X56473871Y56624617D01*
X56457807Y56606893D01*
X56440083Y56590829D01*
X56420870Y56576579D01*
X56400353Y56564282D01*
X56378729Y56554054D01*
X56356207Y56545996D01*
X56333003Y56540184D01*
X56309342Y56536674D01*
X56285450Y56535500D01*
X55372950Y56535500D01*
X55349058Y56536674D01*
X55325397Y56540184D01*
X55302193Y56545996D01*
X55279671Y56554054D01*
X55258047Y56564282D01*
X55237530Y56576579D01*
X55218317Y56590829D01*
X55200593Y56606893D01*
X55184529Y56624617D01*
X55170279Y56643830D01*
X55157982Y56664347D01*
X55147754Y56685971D01*
X55139696Y56708493D01*
X55133884Y56731697D01*
X55130374Y56755358D01*
X55129200Y56779250D01*
X55129200Y57266750D01*
X55130374Y57290642D01*
X55133884Y57314303D01*
X55139696Y57337507D01*
X55147754Y57360029D01*
X55157982Y57381653D01*
X55170279Y57402170D01*
X55184529Y57421383D01*
X55200593Y57439107D01*
X55218317Y57455171D01*
X55237530Y57469421D01*
X55258047Y57481718D01*
X55279671Y57491946D01*
X55302193Y57500004D01*
X55325397Y57505816D01*
X55349058Y57509326D01*
X55372950Y57510500D01*
X56285450Y57510500D01*
X56309342Y57509326D01*
X56309342Y57509326D01*
G37*
D15*
X55829200Y57023000D03*
G04 #@! TD*
D14*
G04 #@! TO.C,C8*
G36*
X61052045Y43373964D02*
G01*
X61075706Y43370454D01*
X61098910Y43364642D01*
X61121432Y43356584D01*
X61143056Y43346356D01*
X61163573Y43334059D01*
X61182786Y43319809D01*
X61200510Y43303745D01*
X61845745Y42658510D01*
X61861809Y42640786D01*
X61876059Y42621573D01*
X61888356Y42601056D01*
X61898584Y42579432D01*
X61906642Y42556910D01*
X61912454Y42533706D01*
X61915964Y42510045D01*
X61917138Y42486153D01*
X61915964Y42462261D01*
X61912454Y42438600D01*
X61906642Y42415396D01*
X61898584Y42392874D01*
X61888356Y42371250D01*
X61876059Y42350733D01*
X61861809Y42331520D01*
X61845745Y42313796D01*
X61501030Y41969081D01*
X61483306Y41953017D01*
X61464093Y41938767D01*
X61443576Y41926470D01*
X61421952Y41916242D01*
X61399430Y41908184D01*
X61376226Y41902372D01*
X61352565Y41898862D01*
X61328673Y41897688D01*
X61304781Y41898862D01*
X61281120Y41902372D01*
X61257916Y41908184D01*
X61235394Y41916242D01*
X61213770Y41926470D01*
X61193253Y41938767D01*
X61174040Y41953017D01*
X61156316Y41969081D01*
X60511081Y42614316D01*
X60495017Y42632040D01*
X60480767Y42651253D01*
X60468470Y42671770D01*
X60458242Y42693394D01*
X60450184Y42715916D01*
X60444372Y42739120D01*
X60440862Y42762781D01*
X60439688Y42786673D01*
X60440862Y42810565D01*
X60444372Y42834226D01*
X60450184Y42857430D01*
X60458242Y42879952D01*
X60468470Y42901576D01*
X60480767Y42922093D01*
X60495017Y42941306D01*
X60511081Y42959030D01*
X60855796Y43303745D01*
X60873520Y43319809D01*
X60892733Y43334059D01*
X60913250Y43346356D01*
X60934874Y43356584D01*
X60957396Y43364642D01*
X60980600Y43370454D01*
X61004261Y43373964D01*
X61028153Y43375138D01*
X61052045Y43373964D01*
X61052045Y43373964D01*
G37*
D15*
X61178413Y42636413D03*
D14*
G36*
X59726219Y42048138D02*
G01*
X59749880Y42044628D01*
X59773084Y42038816D01*
X59795606Y42030758D01*
X59817230Y42020530D01*
X59837747Y42008233D01*
X59856960Y41993983D01*
X59874684Y41977919D01*
X60519919Y41332684D01*
X60535983Y41314960D01*
X60550233Y41295747D01*
X60562530Y41275230D01*
X60572758Y41253606D01*
X60580816Y41231084D01*
X60586628Y41207880D01*
X60590138Y41184219D01*
X60591312Y41160327D01*
X60590138Y41136435D01*
X60586628Y41112774D01*
X60580816Y41089570D01*
X60572758Y41067048D01*
X60562530Y41045424D01*
X60550233Y41024907D01*
X60535983Y41005694D01*
X60519919Y40987970D01*
X60175204Y40643255D01*
X60157480Y40627191D01*
X60138267Y40612941D01*
X60117750Y40600644D01*
X60096126Y40590416D01*
X60073604Y40582358D01*
X60050400Y40576546D01*
X60026739Y40573036D01*
X60002847Y40571862D01*
X59978955Y40573036D01*
X59955294Y40576546D01*
X59932090Y40582358D01*
X59909568Y40590416D01*
X59887944Y40600644D01*
X59867427Y40612941D01*
X59848214Y40627191D01*
X59830490Y40643255D01*
X59185255Y41288490D01*
X59169191Y41306214D01*
X59154941Y41325427D01*
X59142644Y41345944D01*
X59132416Y41367568D01*
X59124358Y41390090D01*
X59118546Y41413294D01*
X59115036Y41436955D01*
X59113862Y41460847D01*
X59115036Y41484739D01*
X59118546Y41508400D01*
X59124358Y41531604D01*
X59132416Y41554126D01*
X59142644Y41575750D01*
X59154941Y41596267D01*
X59169191Y41615480D01*
X59185255Y41633204D01*
X59529970Y41977919D01*
X59547694Y41993983D01*
X59566907Y42008233D01*
X59587424Y42020530D01*
X59609048Y42030758D01*
X59631570Y42038816D01*
X59654774Y42044628D01*
X59678435Y42048138D01*
X59702327Y42049312D01*
X59726219Y42048138D01*
X59726219Y42048138D01*
G37*
D15*
X59852587Y41310587D03*
G04 #@! TD*
D14*
G04 #@! TO.C,C7*
G36*
X45195642Y53530826D02*
G01*
X45219303Y53527316D01*
X45242507Y53521504D01*
X45265029Y53513446D01*
X45286653Y53503218D01*
X45307170Y53490921D01*
X45326383Y53476671D01*
X45344107Y53460607D01*
X45360171Y53442883D01*
X45374421Y53423670D01*
X45386718Y53403153D01*
X45396946Y53381529D01*
X45405004Y53359007D01*
X45410816Y53335803D01*
X45414326Y53312142D01*
X45415500Y53288250D01*
X45415500Y52375750D01*
X45414326Y52351858D01*
X45410816Y52328197D01*
X45405004Y52304993D01*
X45396946Y52282471D01*
X45386718Y52260847D01*
X45374421Y52240330D01*
X45360171Y52221117D01*
X45344107Y52203393D01*
X45326383Y52187329D01*
X45307170Y52173079D01*
X45286653Y52160782D01*
X45265029Y52150554D01*
X45242507Y52142496D01*
X45219303Y52136684D01*
X45195642Y52133174D01*
X45171750Y52132000D01*
X44684250Y52132000D01*
X44660358Y52133174D01*
X44636697Y52136684D01*
X44613493Y52142496D01*
X44590971Y52150554D01*
X44569347Y52160782D01*
X44548830Y52173079D01*
X44529617Y52187329D01*
X44511893Y52203393D01*
X44495829Y52221117D01*
X44481579Y52240330D01*
X44469282Y52260847D01*
X44459054Y52282471D01*
X44450996Y52304993D01*
X44445184Y52328197D01*
X44441674Y52351858D01*
X44440500Y52375750D01*
X44440500Y53288250D01*
X44441674Y53312142D01*
X44445184Y53335803D01*
X44450996Y53359007D01*
X44459054Y53381529D01*
X44469282Y53403153D01*
X44481579Y53423670D01*
X44495829Y53442883D01*
X44511893Y53460607D01*
X44529617Y53476671D01*
X44548830Y53490921D01*
X44569347Y53503218D01*
X44590971Y53513446D01*
X44613493Y53521504D01*
X44636697Y53527316D01*
X44660358Y53530826D01*
X44684250Y53532000D01*
X45171750Y53532000D01*
X45195642Y53530826D01*
X45195642Y53530826D01*
G37*
D15*
X44928000Y52832000D03*
D14*
G36*
X43320642Y53530826D02*
G01*
X43344303Y53527316D01*
X43367507Y53521504D01*
X43390029Y53513446D01*
X43411653Y53503218D01*
X43432170Y53490921D01*
X43451383Y53476671D01*
X43469107Y53460607D01*
X43485171Y53442883D01*
X43499421Y53423670D01*
X43511718Y53403153D01*
X43521946Y53381529D01*
X43530004Y53359007D01*
X43535816Y53335803D01*
X43539326Y53312142D01*
X43540500Y53288250D01*
X43540500Y52375750D01*
X43539326Y52351858D01*
X43535816Y52328197D01*
X43530004Y52304993D01*
X43521946Y52282471D01*
X43511718Y52260847D01*
X43499421Y52240330D01*
X43485171Y52221117D01*
X43469107Y52203393D01*
X43451383Y52187329D01*
X43432170Y52173079D01*
X43411653Y52160782D01*
X43390029Y52150554D01*
X43367507Y52142496D01*
X43344303Y52136684D01*
X43320642Y52133174D01*
X43296750Y52132000D01*
X42809250Y52132000D01*
X42785358Y52133174D01*
X42761697Y52136684D01*
X42738493Y52142496D01*
X42715971Y52150554D01*
X42694347Y52160782D01*
X42673830Y52173079D01*
X42654617Y52187329D01*
X42636893Y52203393D01*
X42620829Y52221117D01*
X42606579Y52240330D01*
X42594282Y52260847D01*
X42584054Y52282471D01*
X42575996Y52304993D01*
X42570184Y52328197D01*
X42566674Y52351858D01*
X42565500Y52375750D01*
X42565500Y53288250D01*
X42566674Y53312142D01*
X42570184Y53335803D01*
X42575996Y53359007D01*
X42584054Y53381529D01*
X42594282Y53403153D01*
X42606579Y53423670D01*
X42620829Y53442883D01*
X42636893Y53460607D01*
X42654617Y53476671D01*
X42673830Y53490921D01*
X42694347Y53503218D01*
X42715971Y53513446D01*
X42738493Y53521504D01*
X42761697Y53527316D01*
X42785358Y53530826D01*
X42809250Y53532000D01*
X43296750Y53532000D01*
X43320642Y53530826D01*
X43320642Y53530826D01*
G37*
D15*
X43053000Y52832000D03*
G04 #@! TD*
D14*
G04 #@! TO.C,C6*
G36*
X44286055Y60226239D02*
G01*
X44309716Y60222729D01*
X44332920Y60216917D01*
X44355442Y60208859D01*
X44377066Y60198631D01*
X44397583Y60186334D01*
X44416796Y60172084D01*
X44434520Y60156020D01*
X44450584Y60138296D01*
X44464834Y60119083D01*
X44477131Y60098566D01*
X44487359Y60076942D01*
X44495417Y60054420D01*
X44501229Y60031216D01*
X44504739Y60007555D01*
X44505913Y59983663D01*
X44505913Y59071163D01*
X44504739Y59047271D01*
X44501229Y59023610D01*
X44495417Y59000406D01*
X44487359Y58977884D01*
X44477131Y58956260D01*
X44464834Y58935743D01*
X44450584Y58916530D01*
X44434520Y58898806D01*
X44416796Y58882742D01*
X44397583Y58868492D01*
X44377066Y58856195D01*
X44355442Y58845967D01*
X44332920Y58837909D01*
X44309716Y58832097D01*
X44286055Y58828587D01*
X44262163Y58827413D01*
X43774663Y58827413D01*
X43750771Y58828587D01*
X43727110Y58832097D01*
X43703906Y58837909D01*
X43681384Y58845967D01*
X43659760Y58856195D01*
X43639243Y58868492D01*
X43620030Y58882742D01*
X43602306Y58898806D01*
X43586242Y58916530D01*
X43571992Y58935743D01*
X43559695Y58956260D01*
X43549467Y58977884D01*
X43541409Y59000406D01*
X43535597Y59023610D01*
X43532087Y59047271D01*
X43530913Y59071163D01*
X43530913Y59983663D01*
X43532087Y60007555D01*
X43535597Y60031216D01*
X43541409Y60054420D01*
X43549467Y60076942D01*
X43559695Y60098566D01*
X43571992Y60119083D01*
X43586242Y60138296D01*
X43602306Y60156020D01*
X43620030Y60172084D01*
X43639243Y60186334D01*
X43659760Y60198631D01*
X43681384Y60208859D01*
X43703906Y60216917D01*
X43727110Y60222729D01*
X43750771Y60226239D01*
X43774663Y60227413D01*
X44262163Y60227413D01*
X44286055Y60226239D01*
X44286055Y60226239D01*
G37*
D15*
X44018413Y59527413D03*
D14*
G36*
X42411055Y60226239D02*
G01*
X42434716Y60222729D01*
X42457920Y60216917D01*
X42480442Y60208859D01*
X42502066Y60198631D01*
X42522583Y60186334D01*
X42541796Y60172084D01*
X42559520Y60156020D01*
X42575584Y60138296D01*
X42589834Y60119083D01*
X42602131Y60098566D01*
X42612359Y60076942D01*
X42620417Y60054420D01*
X42626229Y60031216D01*
X42629739Y60007555D01*
X42630913Y59983663D01*
X42630913Y59071163D01*
X42629739Y59047271D01*
X42626229Y59023610D01*
X42620417Y59000406D01*
X42612359Y58977884D01*
X42602131Y58956260D01*
X42589834Y58935743D01*
X42575584Y58916530D01*
X42559520Y58898806D01*
X42541796Y58882742D01*
X42522583Y58868492D01*
X42502066Y58856195D01*
X42480442Y58845967D01*
X42457920Y58837909D01*
X42434716Y58832097D01*
X42411055Y58828587D01*
X42387163Y58827413D01*
X41899663Y58827413D01*
X41875771Y58828587D01*
X41852110Y58832097D01*
X41828906Y58837909D01*
X41806384Y58845967D01*
X41784760Y58856195D01*
X41764243Y58868492D01*
X41745030Y58882742D01*
X41727306Y58898806D01*
X41711242Y58916530D01*
X41696992Y58935743D01*
X41684695Y58956260D01*
X41674467Y58977884D01*
X41666409Y59000406D01*
X41660597Y59023610D01*
X41657087Y59047271D01*
X41655913Y59071163D01*
X41655913Y59983663D01*
X41657087Y60007555D01*
X41660597Y60031216D01*
X41666409Y60054420D01*
X41674467Y60076942D01*
X41684695Y60098566D01*
X41696992Y60119083D01*
X41711242Y60138296D01*
X41727306Y60156020D01*
X41745030Y60172084D01*
X41764243Y60186334D01*
X41784760Y60198631D01*
X41806384Y60208859D01*
X41828906Y60216917D01*
X41852110Y60222729D01*
X41875771Y60226239D01*
X41899663Y60227413D01*
X42387163Y60227413D01*
X42411055Y60226239D01*
X42411055Y60226239D01*
G37*
D15*
X42143413Y59527413D03*
G04 #@! TD*
D14*
G04 #@! TO.C,C5*
G36*
X58387442Y56096226D02*
G01*
X58411103Y56092716D01*
X58434307Y56086904D01*
X58456829Y56078846D01*
X58478453Y56068618D01*
X58498970Y56056321D01*
X58518183Y56042071D01*
X58535907Y56026007D01*
X58551971Y56008283D01*
X58566221Y55989070D01*
X58578518Y55968553D01*
X58588746Y55946929D01*
X58596804Y55924407D01*
X58602616Y55901203D01*
X58606126Y55877542D01*
X58607300Y55853650D01*
X58607300Y54941150D01*
X58606126Y54917258D01*
X58602616Y54893597D01*
X58596804Y54870393D01*
X58588746Y54847871D01*
X58578518Y54826247D01*
X58566221Y54805730D01*
X58551971Y54786517D01*
X58535907Y54768793D01*
X58518183Y54752729D01*
X58498970Y54738479D01*
X58478453Y54726182D01*
X58456829Y54715954D01*
X58434307Y54707896D01*
X58411103Y54702084D01*
X58387442Y54698574D01*
X58363550Y54697400D01*
X57876050Y54697400D01*
X57852158Y54698574D01*
X57828497Y54702084D01*
X57805293Y54707896D01*
X57782771Y54715954D01*
X57761147Y54726182D01*
X57740630Y54738479D01*
X57721417Y54752729D01*
X57703693Y54768793D01*
X57687629Y54786517D01*
X57673379Y54805730D01*
X57661082Y54826247D01*
X57650854Y54847871D01*
X57642796Y54870393D01*
X57636984Y54893597D01*
X57633474Y54917258D01*
X57632300Y54941150D01*
X57632300Y55853650D01*
X57633474Y55877542D01*
X57636984Y55901203D01*
X57642796Y55924407D01*
X57650854Y55946929D01*
X57661082Y55968553D01*
X57673379Y55989070D01*
X57687629Y56008283D01*
X57703693Y56026007D01*
X57721417Y56042071D01*
X57740630Y56056321D01*
X57761147Y56068618D01*
X57782771Y56078846D01*
X57805293Y56086904D01*
X57828497Y56092716D01*
X57852158Y56096226D01*
X57876050Y56097400D01*
X58363550Y56097400D01*
X58387442Y56096226D01*
X58387442Y56096226D01*
G37*
D15*
X58119800Y55397400D03*
D14*
G36*
X60262442Y56096226D02*
G01*
X60286103Y56092716D01*
X60309307Y56086904D01*
X60331829Y56078846D01*
X60353453Y56068618D01*
X60373970Y56056321D01*
X60393183Y56042071D01*
X60410907Y56026007D01*
X60426971Y56008283D01*
X60441221Y55989070D01*
X60453518Y55968553D01*
X60463746Y55946929D01*
X60471804Y55924407D01*
X60477616Y55901203D01*
X60481126Y55877542D01*
X60482300Y55853650D01*
X60482300Y54941150D01*
X60481126Y54917258D01*
X60477616Y54893597D01*
X60471804Y54870393D01*
X60463746Y54847871D01*
X60453518Y54826247D01*
X60441221Y54805730D01*
X60426971Y54786517D01*
X60410907Y54768793D01*
X60393183Y54752729D01*
X60373970Y54738479D01*
X60353453Y54726182D01*
X60331829Y54715954D01*
X60309307Y54707896D01*
X60286103Y54702084D01*
X60262442Y54698574D01*
X60238550Y54697400D01*
X59751050Y54697400D01*
X59727158Y54698574D01*
X59703497Y54702084D01*
X59680293Y54707896D01*
X59657771Y54715954D01*
X59636147Y54726182D01*
X59615630Y54738479D01*
X59596417Y54752729D01*
X59578693Y54768793D01*
X59562629Y54786517D01*
X59548379Y54805730D01*
X59536082Y54826247D01*
X59525854Y54847871D01*
X59517796Y54870393D01*
X59511984Y54893597D01*
X59508474Y54917258D01*
X59507300Y54941150D01*
X59507300Y55853650D01*
X59508474Y55877542D01*
X59511984Y55901203D01*
X59517796Y55924407D01*
X59525854Y55946929D01*
X59536082Y55968553D01*
X59548379Y55989070D01*
X59562629Y56008283D01*
X59578693Y56026007D01*
X59596417Y56042071D01*
X59615630Y56056321D01*
X59636147Y56068618D01*
X59657771Y56078846D01*
X59680293Y56086904D01*
X59703497Y56092716D01*
X59727158Y56096226D01*
X59751050Y56097400D01*
X60238550Y56097400D01*
X60262442Y56096226D01*
X60262442Y56096226D01*
G37*
D15*
X59994800Y55397400D03*
G04 #@! TD*
D14*
G04 #@! TO.C,C4*
G36*
X62811742Y52230726D02*
G01*
X62835403Y52227216D01*
X62858607Y52221404D01*
X62881129Y52213346D01*
X62902753Y52203118D01*
X62923270Y52190821D01*
X62942483Y52176571D01*
X62960207Y52160507D01*
X62976271Y52142783D01*
X62990521Y52123570D01*
X63002818Y52103053D01*
X63013046Y52081429D01*
X63021104Y52058907D01*
X63026916Y52035703D01*
X63030426Y52012042D01*
X63031600Y51988150D01*
X63031600Y51500650D01*
X63030426Y51476758D01*
X63026916Y51453097D01*
X63021104Y51429893D01*
X63013046Y51407371D01*
X63002818Y51385747D01*
X62990521Y51365230D01*
X62976271Y51346017D01*
X62960207Y51328293D01*
X62942483Y51312229D01*
X62923270Y51297979D01*
X62902753Y51285682D01*
X62881129Y51275454D01*
X62858607Y51267396D01*
X62835403Y51261584D01*
X62811742Y51258074D01*
X62787850Y51256900D01*
X61875350Y51256900D01*
X61851458Y51258074D01*
X61827797Y51261584D01*
X61804593Y51267396D01*
X61782071Y51275454D01*
X61760447Y51285682D01*
X61739930Y51297979D01*
X61720717Y51312229D01*
X61702993Y51328293D01*
X61686929Y51346017D01*
X61672679Y51365230D01*
X61660382Y51385747D01*
X61650154Y51407371D01*
X61642096Y51429893D01*
X61636284Y51453097D01*
X61632774Y51476758D01*
X61631600Y51500650D01*
X61631600Y51988150D01*
X61632774Y52012042D01*
X61636284Y52035703D01*
X61642096Y52058907D01*
X61650154Y52081429D01*
X61660382Y52103053D01*
X61672679Y52123570D01*
X61686929Y52142783D01*
X61702993Y52160507D01*
X61720717Y52176571D01*
X61739930Y52190821D01*
X61760447Y52203118D01*
X61782071Y52213346D01*
X61804593Y52221404D01*
X61827797Y52227216D01*
X61851458Y52230726D01*
X61875350Y52231900D01*
X62787850Y52231900D01*
X62811742Y52230726D01*
X62811742Y52230726D01*
G37*
D15*
X62331600Y51744400D03*
D14*
G36*
X62811742Y54105726D02*
G01*
X62835403Y54102216D01*
X62858607Y54096404D01*
X62881129Y54088346D01*
X62902753Y54078118D01*
X62923270Y54065821D01*
X62942483Y54051571D01*
X62960207Y54035507D01*
X62976271Y54017783D01*
X62990521Y53998570D01*
X63002818Y53978053D01*
X63013046Y53956429D01*
X63021104Y53933907D01*
X63026916Y53910703D01*
X63030426Y53887042D01*
X63031600Y53863150D01*
X63031600Y53375650D01*
X63030426Y53351758D01*
X63026916Y53328097D01*
X63021104Y53304893D01*
X63013046Y53282371D01*
X63002818Y53260747D01*
X62990521Y53240230D01*
X62976271Y53221017D01*
X62960207Y53203293D01*
X62942483Y53187229D01*
X62923270Y53172979D01*
X62902753Y53160682D01*
X62881129Y53150454D01*
X62858607Y53142396D01*
X62835403Y53136584D01*
X62811742Y53133074D01*
X62787850Y53131900D01*
X61875350Y53131900D01*
X61851458Y53133074D01*
X61827797Y53136584D01*
X61804593Y53142396D01*
X61782071Y53150454D01*
X61760447Y53160682D01*
X61739930Y53172979D01*
X61720717Y53187229D01*
X61702993Y53203293D01*
X61686929Y53221017D01*
X61672679Y53240230D01*
X61660382Y53260747D01*
X61650154Y53282371D01*
X61642096Y53304893D01*
X61636284Y53328097D01*
X61632774Y53351758D01*
X61631600Y53375650D01*
X61631600Y53863150D01*
X61632774Y53887042D01*
X61636284Y53910703D01*
X61642096Y53933907D01*
X61650154Y53956429D01*
X61660382Y53978053D01*
X61672679Y53998570D01*
X61686929Y54017783D01*
X61702993Y54035507D01*
X61720717Y54051571D01*
X61739930Y54065821D01*
X61760447Y54078118D01*
X61782071Y54088346D01*
X61804593Y54096404D01*
X61827797Y54102216D01*
X61851458Y54105726D01*
X61875350Y54106900D01*
X62787850Y54106900D01*
X62811742Y54105726D01*
X62811742Y54105726D01*
G37*
D15*
X62331600Y53619400D03*
G04 #@! TD*
D14*
G04 #@! TO.C,C3*
G36*
X54092542Y55918426D02*
G01*
X54116203Y55914916D01*
X54139407Y55909104D01*
X54161929Y55901046D01*
X54183553Y55890818D01*
X54204070Y55878521D01*
X54223283Y55864271D01*
X54241007Y55848207D01*
X54257071Y55830483D01*
X54271321Y55811270D01*
X54283618Y55790753D01*
X54293846Y55769129D01*
X54301904Y55746607D01*
X54307716Y55723403D01*
X54311226Y55699742D01*
X54312400Y55675850D01*
X54312400Y54763350D01*
X54311226Y54739458D01*
X54307716Y54715797D01*
X54301904Y54692593D01*
X54293846Y54670071D01*
X54283618Y54648447D01*
X54271321Y54627930D01*
X54257071Y54608717D01*
X54241007Y54590993D01*
X54223283Y54574929D01*
X54204070Y54560679D01*
X54183553Y54548382D01*
X54161929Y54538154D01*
X54139407Y54530096D01*
X54116203Y54524284D01*
X54092542Y54520774D01*
X54068650Y54519600D01*
X53581150Y54519600D01*
X53557258Y54520774D01*
X53533597Y54524284D01*
X53510393Y54530096D01*
X53487871Y54538154D01*
X53466247Y54548382D01*
X53445730Y54560679D01*
X53426517Y54574929D01*
X53408793Y54590993D01*
X53392729Y54608717D01*
X53378479Y54627930D01*
X53366182Y54648447D01*
X53355954Y54670071D01*
X53347896Y54692593D01*
X53342084Y54715797D01*
X53338574Y54739458D01*
X53337400Y54763350D01*
X53337400Y55675850D01*
X53338574Y55699742D01*
X53342084Y55723403D01*
X53347896Y55746607D01*
X53355954Y55769129D01*
X53366182Y55790753D01*
X53378479Y55811270D01*
X53392729Y55830483D01*
X53408793Y55848207D01*
X53426517Y55864271D01*
X53445730Y55878521D01*
X53466247Y55890818D01*
X53487871Y55901046D01*
X53510393Y55909104D01*
X53533597Y55914916D01*
X53557258Y55918426D01*
X53581150Y55919600D01*
X54068650Y55919600D01*
X54092542Y55918426D01*
X54092542Y55918426D01*
G37*
D15*
X53824900Y55219600D03*
D14*
G36*
X55967542Y55918426D02*
G01*
X55991203Y55914916D01*
X56014407Y55909104D01*
X56036929Y55901046D01*
X56058553Y55890818D01*
X56079070Y55878521D01*
X56098283Y55864271D01*
X56116007Y55848207D01*
X56132071Y55830483D01*
X56146321Y55811270D01*
X56158618Y55790753D01*
X56168846Y55769129D01*
X56176904Y55746607D01*
X56182716Y55723403D01*
X56186226Y55699742D01*
X56187400Y55675850D01*
X56187400Y54763350D01*
X56186226Y54739458D01*
X56182716Y54715797D01*
X56176904Y54692593D01*
X56168846Y54670071D01*
X56158618Y54648447D01*
X56146321Y54627930D01*
X56132071Y54608717D01*
X56116007Y54590993D01*
X56098283Y54574929D01*
X56079070Y54560679D01*
X56058553Y54548382D01*
X56036929Y54538154D01*
X56014407Y54530096D01*
X55991203Y54524284D01*
X55967542Y54520774D01*
X55943650Y54519600D01*
X55456150Y54519600D01*
X55432258Y54520774D01*
X55408597Y54524284D01*
X55385393Y54530096D01*
X55362871Y54538154D01*
X55341247Y54548382D01*
X55320730Y54560679D01*
X55301517Y54574929D01*
X55283793Y54590993D01*
X55267729Y54608717D01*
X55253479Y54627930D01*
X55241182Y54648447D01*
X55230954Y54670071D01*
X55222896Y54692593D01*
X55217084Y54715797D01*
X55213574Y54739458D01*
X55212400Y54763350D01*
X55212400Y55675850D01*
X55213574Y55699742D01*
X55217084Y55723403D01*
X55222896Y55746607D01*
X55230954Y55769129D01*
X55241182Y55790753D01*
X55253479Y55811270D01*
X55267729Y55830483D01*
X55283793Y55848207D01*
X55301517Y55864271D01*
X55320730Y55878521D01*
X55341247Y55890818D01*
X55362871Y55901046D01*
X55385393Y55909104D01*
X55408597Y55914916D01*
X55432258Y55918426D01*
X55456150Y55919600D01*
X55943650Y55919600D01*
X55967542Y55918426D01*
X55967542Y55918426D01*
G37*
D15*
X55699900Y55219600D03*
G04 #@! TD*
D14*
G04 #@! TO.C,C2*
G36*
X41611739Y44326464D02*
G01*
X41635400Y44322954D01*
X41658604Y44317142D01*
X41681126Y44309084D01*
X41702750Y44298856D01*
X41723267Y44286559D01*
X41742480Y44272309D01*
X41760204Y44256245D01*
X42104919Y43911530D01*
X42120983Y43893806D01*
X42135233Y43874593D01*
X42147530Y43854076D01*
X42157758Y43832452D01*
X42165816Y43809930D01*
X42171628Y43786726D01*
X42175138Y43763065D01*
X42176312Y43739173D01*
X42175138Y43715281D01*
X42171628Y43691620D01*
X42165816Y43668416D01*
X42157758Y43645894D01*
X42147530Y43624270D01*
X42135233Y43603753D01*
X42120983Y43584540D01*
X42104919Y43566816D01*
X41459684Y42921581D01*
X41441960Y42905517D01*
X41422747Y42891267D01*
X41402230Y42878970D01*
X41380606Y42868742D01*
X41358084Y42860684D01*
X41334880Y42854872D01*
X41311219Y42851362D01*
X41287327Y42850188D01*
X41263435Y42851362D01*
X41239774Y42854872D01*
X41216570Y42860684D01*
X41194048Y42868742D01*
X41172424Y42878970D01*
X41151907Y42891267D01*
X41132694Y42905517D01*
X41114970Y42921581D01*
X40770255Y43266296D01*
X40754191Y43284020D01*
X40739941Y43303233D01*
X40727644Y43323750D01*
X40717416Y43345374D01*
X40709358Y43367896D01*
X40703546Y43391100D01*
X40700036Y43414761D01*
X40698862Y43438653D01*
X40700036Y43462545D01*
X40703546Y43486206D01*
X40709358Y43509410D01*
X40717416Y43531932D01*
X40727644Y43553556D01*
X40739941Y43574073D01*
X40754191Y43593286D01*
X40770255Y43611010D01*
X41415490Y44256245D01*
X41433214Y44272309D01*
X41452427Y44286559D01*
X41472944Y44298856D01*
X41494568Y44309084D01*
X41517090Y44317142D01*
X41540294Y44322954D01*
X41563955Y44326464D01*
X41587847Y44327638D01*
X41611739Y44326464D01*
X41611739Y44326464D01*
G37*
D15*
X41437587Y43588913D03*
D14*
G36*
X42937565Y43000638D02*
G01*
X42961226Y42997128D01*
X42984430Y42991316D01*
X43006952Y42983258D01*
X43028576Y42973030D01*
X43049093Y42960733D01*
X43068306Y42946483D01*
X43086030Y42930419D01*
X43430745Y42585704D01*
X43446809Y42567980D01*
X43461059Y42548767D01*
X43473356Y42528250D01*
X43483584Y42506626D01*
X43491642Y42484104D01*
X43497454Y42460900D01*
X43500964Y42437239D01*
X43502138Y42413347D01*
X43500964Y42389455D01*
X43497454Y42365794D01*
X43491642Y42342590D01*
X43483584Y42320068D01*
X43473356Y42298444D01*
X43461059Y42277927D01*
X43446809Y42258714D01*
X43430745Y42240990D01*
X42785510Y41595755D01*
X42767786Y41579691D01*
X42748573Y41565441D01*
X42728056Y41553144D01*
X42706432Y41542916D01*
X42683910Y41534858D01*
X42660706Y41529046D01*
X42637045Y41525536D01*
X42613153Y41524362D01*
X42589261Y41525536D01*
X42565600Y41529046D01*
X42542396Y41534858D01*
X42519874Y41542916D01*
X42498250Y41553144D01*
X42477733Y41565441D01*
X42458520Y41579691D01*
X42440796Y41595755D01*
X42096081Y41940470D01*
X42080017Y41958194D01*
X42065767Y41977407D01*
X42053470Y41997924D01*
X42043242Y42019548D01*
X42035184Y42042070D01*
X42029372Y42065274D01*
X42025862Y42088935D01*
X42024688Y42112827D01*
X42025862Y42136719D01*
X42029372Y42160380D01*
X42035184Y42183584D01*
X42043242Y42206106D01*
X42053470Y42227730D01*
X42065767Y42248247D01*
X42080017Y42267460D01*
X42096081Y42285184D01*
X42741316Y42930419D01*
X42759040Y42946483D01*
X42778253Y42960733D01*
X42798770Y42973030D01*
X42820394Y42983258D01*
X42842916Y42991316D01*
X42866120Y42997128D01*
X42889781Y43000638D01*
X42913673Y43001812D01*
X42937565Y43000638D01*
X42937565Y43000638D01*
G37*
D15*
X42763413Y42263087D03*
G04 #@! TD*
D14*
G04 #@! TO.C,C1*
G36*
X39441806Y49195725D02*
G01*
X39465467Y49192215D01*
X39488671Y49186403D01*
X39511193Y49178345D01*
X39532817Y49168117D01*
X39553334Y49155820D01*
X39572547Y49141570D01*
X39590271Y49125506D01*
X40235506Y48480271D01*
X40251570Y48462547D01*
X40265820Y48443334D01*
X40278117Y48422817D01*
X40288345Y48401193D01*
X40296403Y48378671D01*
X40302215Y48355467D01*
X40305725Y48331806D01*
X40306899Y48307914D01*
X40305725Y48284022D01*
X40302215Y48260361D01*
X40296403Y48237157D01*
X40288345Y48214635D01*
X40278117Y48193011D01*
X40265820Y48172494D01*
X40251570Y48153281D01*
X40235506Y48135557D01*
X39890791Y47790842D01*
X39873067Y47774778D01*
X39853854Y47760528D01*
X39833337Y47748231D01*
X39811713Y47738003D01*
X39789191Y47729945D01*
X39765987Y47724133D01*
X39742326Y47720623D01*
X39718434Y47719449D01*
X39694542Y47720623D01*
X39670881Y47724133D01*
X39647677Y47729945D01*
X39625155Y47738003D01*
X39603531Y47748231D01*
X39583014Y47760528D01*
X39563801Y47774778D01*
X39546077Y47790842D01*
X38900842Y48436077D01*
X38884778Y48453801D01*
X38870528Y48473014D01*
X38858231Y48493531D01*
X38848003Y48515155D01*
X38839945Y48537677D01*
X38834133Y48560881D01*
X38830623Y48584542D01*
X38829449Y48608434D01*
X38830623Y48632326D01*
X38834133Y48655987D01*
X38839945Y48679191D01*
X38848003Y48701713D01*
X38858231Y48723337D01*
X38870528Y48743854D01*
X38884778Y48763067D01*
X38900842Y48780791D01*
X39245557Y49125506D01*
X39263281Y49141570D01*
X39282494Y49155820D01*
X39303011Y49168117D01*
X39324635Y49178345D01*
X39347157Y49186403D01*
X39370361Y49192215D01*
X39394022Y49195725D01*
X39417914Y49196899D01*
X39441806Y49195725D01*
X39441806Y49195725D01*
G37*
D15*
X39568174Y48458174D03*
D14*
G36*
X40767632Y50521551D02*
G01*
X40791293Y50518041D01*
X40814497Y50512229D01*
X40837019Y50504171D01*
X40858643Y50493943D01*
X40879160Y50481646D01*
X40898373Y50467396D01*
X40916097Y50451332D01*
X41561332Y49806097D01*
X41577396Y49788373D01*
X41591646Y49769160D01*
X41603943Y49748643D01*
X41614171Y49727019D01*
X41622229Y49704497D01*
X41628041Y49681293D01*
X41631551Y49657632D01*
X41632725Y49633740D01*
X41631551Y49609848D01*
X41628041Y49586187D01*
X41622229Y49562983D01*
X41614171Y49540461D01*
X41603943Y49518837D01*
X41591646Y49498320D01*
X41577396Y49479107D01*
X41561332Y49461383D01*
X41216617Y49116668D01*
X41198893Y49100604D01*
X41179680Y49086354D01*
X41159163Y49074057D01*
X41137539Y49063829D01*
X41115017Y49055771D01*
X41091813Y49049959D01*
X41068152Y49046449D01*
X41044260Y49045275D01*
X41020368Y49046449D01*
X40996707Y49049959D01*
X40973503Y49055771D01*
X40950981Y49063829D01*
X40929357Y49074057D01*
X40908840Y49086354D01*
X40889627Y49100604D01*
X40871903Y49116668D01*
X40226668Y49761903D01*
X40210604Y49779627D01*
X40196354Y49798840D01*
X40184057Y49819357D01*
X40173829Y49840981D01*
X40165771Y49863503D01*
X40159959Y49886707D01*
X40156449Y49910368D01*
X40155275Y49934260D01*
X40156449Y49958152D01*
X40159959Y49981813D01*
X40165771Y50005017D01*
X40173829Y50027539D01*
X40184057Y50049163D01*
X40196354Y50069680D01*
X40210604Y50088893D01*
X40226668Y50106617D01*
X40571383Y50451332D01*
X40589107Y50467396D01*
X40608320Y50481646D01*
X40628837Y50493943D01*
X40650461Y50504171D01*
X40672983Y50512229D01*
X40696187Y50518041D01*
X40719848Y50521551D01*
X40743740Y50522725D01*
X40767632Y50521551D01*
X40767632Y50521551D01*
G37*
D15*
X40894000Y49784000D03*
G04 #@! TD*
D16*
G04 #@! TO.C,U1*
X44347464Y43451118D03*
D14*
G36*
X44683340Y44175902D02*
G01*
X45072248Y43786994D01*
X44011588Y42726334D01*
X43622680Y43115242D01*
X44683340Y44175902D01*
X44683340Y44175902D01*
G37*
D16*
X44913150Y42885433D03*
D14*
G36*
X45249026Y43610217D02*
G01*
X45637934Y43221309D01*
X44577274Y42160649D01*
X44188366Y42549557D01*
X45249026Y43610217D01*
X45249026Y43610217D01*
G37*
D16*
X45478835Y42319748D03*
D14*
G36*
X45814711Y43044532D02*
G01*
X46203619Y42655624D01*
X45142959Y41594964D01*
X44754051Y41983872D01*
X45814711Y43044532D01*
X45814711Y43044532D01*
G37*
D16*
X46044520Y41754062D03*
D14*
G36*
X46380396Y42478846D02*
G01*
X46769304Y42089938D01*
X45708644Y41029278D01*
X45319736Y41418186D01*
X46380396Y42478846D01*
X46380396Y42478846D01*
G37*
D16*
X46610206Y41188377D03*
D14*
G36*
X46946082Y41913161D02*
G01*
X47334990Y41524253D01*
X46274330Y40463593D01*
X45885422Y40852501D01*
X46946082Y41913161D01*
X46946082Y41913161D01*
G37*
D16*
X47175891Y40622691D03*
D14*
G36*
X47511767Y41347475D02*
G01*
X47900675Y40958567D01*
X46840015Y39897907D01*
X46451107Y40286815D01*
X47511767Y41347475D01*
X47511767Y41347475D01*
G37*
D16*
X47741577Y40057006D03*
D14*
G36*
X48077453Y40781790D02*
G01*
X48466361Y40392882D01*
X47405701Y39332222D01*
X47016793Y39721130D01*
X48077453Y40781790D01*
X48077453Y40781790D01*
G37*
D16*
X48307262Y39491320D03*
D14*
G36*
X48643138Y40216104D02*
G01*
X49032046Y39827196D01*
X47971386Y38766536D01*
X47582478Y39155444D01*
X48643138Y40216104D01*
X48643138Y40216104D01*
G37*
D16*
X48872948Y38925635D03*
D14*
G36*
X49208824Y39650419D02*
G01*
X49597732Y39261511D01*
X48537072Y38200851D01*
X48148164Y38589759D01*
X49208824Y39650419D01*
X49208824Y39650419D01*
G37*
D16*
X49438633Y38359950D03*
D14*
G36*
X49774509Y39084734D02*
G01*
X50163417Y38695826D01*
X49102757Y37635166D01*
X48713849Y38024074D01*
X49774509Y39084734D01*
X49774509Y39084734D01*
G37*
D16*
X50004318Y37794264D03*
D14*
G36*
X50340194Y38519048D02*
G01*
X50729102Y38130140D01*
X49668442Y37069480D01*
X49279534Y37458388D01*
X50340194Y38519048D01*
X50340194Y38519048D01*
G37*
D16*
X52408482Y37794264D03*
D14*
G36*
X51683698Y38130140D02*
G01*
X52072606Y38519048D01*
X53133266Y37458388D01*
X52744358Y37069480D01*
X51683698Y38130140D01*
X51683698Y38130140D01*
G37*
D16*
X52974167Y38359950D03*
D14*
G36*
X52249383Y38695826D02*
G01*
X52638291Y39084734D01*
X53698951Y38024074D01*
X53310043Y37635166D01*
X52249383Y38695826D01*
X52249383Y38695826D01*
G37*
D16*
X53539852Y38925635D03*
D14*
G36*
X52815068Y39261511D02*
G01*
X53203976Y39650419D01*
X54264636Y38589759D01*
X53875728Y38200851D01*
X52815068Y39261511D01*
X52815068Y39261511D01*
G37*
D16*
X54105538Y39491320D03*
D14*
G36*
X53380754Y39827196D02*
G01*
X53769662Y40216104D01*
X54830322Y39155444D01*
X54441414Y38766536D01*
X53380754Y39827196D01*
X53380754Y39827196D01*
G37*
D16*
X54671223Y40057006D03*
D14*
G36*
X53946439Y40392882D02*
G01*
X54335347Y40781790D01*
X55396007Y39721130D01*
X55007099Y39332222D01*
X53946439Y40392882D01*
X53946439Y40392882D01*
G37*
D16*
X55236909Y40622691D03*
D14*
G36*
X54512125Y40958567D02*
G01*
X54901033Y41347475D01*
X55961693Y40286815D01*
X55572785Y39897907D01*
X54512125Y40958567D01*
X54512125Y40958567D01*
G37*
D16*
X55802594Y41188377D03*
D14*
G36*
X55077810Y41524253D02*
G01*
X55466718Y41913161D01*
X56527378Y40852501D01*
X56138470Y40463593D01*
X55077810Y41524253D01*
X55077810Y41524253D01*
G37*
D16*
X56368280Y41754062D03*
D14*
G36*
X55643496Y42089938D02*
G01*
X56032404Y42478846D01*
X57093064Y41418186D01*
X56704156Y41029278D01*
X55643496Y42089938D01*
X55643496Y42089938D01*
G37*
D16*
X56933965Y42319748D03*
D14*
G36*
X56209181Y42655624D02*
G01*
X56598089Y43044532D01*
X57658749Y41983872D01*
X57269841Y41594964D01*
X56209181Y42655624D01*
X56209181Y42655624D01*
G37*
D16*
X57499650Y42885433D03*
D14*
G36*
X56774866Y43221309D02*
G01*
X57163774Y43610217D01*
X58224434Y42549557D01*
X57835526Y42160649D01*
X56774866Y43221309D01*
X56774866Y43221309D01*
G37*
D16*
X58065336Y43451118D03*
D14*
G36*
X57340552Y43786994D02*
G01*
X57729460Y44175902D01*
X58790120Y43115242D01*
X58401212Y42726334D01*
X57340552Y43786994D01*
X57340552Y43786994D01*
G37*
D16*
X58065336Y45855282D03*
D14*
G36*
X58401212Y46580066D02*
G01*
X58790120Y46191158D01*
X57729460Y45130498D01*
X57340552Y45519406D01*
X58401212Y46580066D01*
X58401212Y46580066D01*
G37*
D16*
X57499650Y46420967D03*
D14*
G36*
X57835526Y47145751D02*
G01*
X58224434Y46756843D01*
X57163774Y45696183D01*
X56774866Y46085091D01*
X57835526Y47145751D01*
X57835526Y47145751D01*
G37*
D16*
X56933965Y46986652D03*
D14*
G36*
X57269841Y47711436D02*
G01*
X57658749Y47322528D01*
X56598089Y46261868D01*
X56209181Y46650776D01*
X57269841Y47711436D01*
X57269841Y47711436D01*
G37*
D16*
X56368280Y47552338D03*
D14*
G36*
X56704156Y48277122D02*
G01*
X57093064Y47888214D01*
X56032404Y46827554D01*
X55643496Y47216462D01*
X56704156Y48277122D01*
X56704156Y48277122D01*
G37*
D16*
X55802594Y48118023D03*
D14*
G36*
X56138470Y48842807D02*
G01*
X56527378Y48453899D01*
X55466718Y47393239D01*
X55077810Y47782147D01*
X56138470Y48842807D01*
X56138470Y48842807D01*
G37*
D16*
X55236909Y48683709D03*
D14*
G36*
X55572785Y49408493D02*
G01*
X55961693Y49019585D01*
X54901033Y47958925D01*
X54512125Y48347833D01*
X55572785Y49408493D01*
X55572785Y49408493D01*
G37*
D16*
X54671223Y49249394D03*
D14*
G36*
X55007099Y49974178D02*
G01*
X55396007Y49585270D01*
X54335347Y48524610D01*
X53946439Y48913518D01*
X55007099Y49974178D01*
X55007099Y49974178D01*
G37*
D16*
X54105538Y49815080D03*
D14*
G36*
X54441414Y50539864D02*
G01*
X54830322Y50150956D01*
X53769662Y49090296D01*
X53380754Y49479204D01*
X54441414Y50539864D01*
X54441414Y50539864D01*
G37*
D16*
X53539852Y50380765D03*
D14*
G36*
X53875728Y51105549D02*
G01*
X54264636Y50716641D01*
X53203976Y49655981D01*
X52815068Y50044889D01*
X53875728Y51105549D01*
X53875728Y51105549D01*
G37*
D16*
X52974167Y50946450D03*
D14*
G36*
X53310043Y51671234D02*
G01*
X53698951Y51282326D01*
X52638291Y50221666D01*
X52249383Y50610574D01*
X53310043Y51671234D01*
X53310043Y51671234D01*
G37*
D16*
X52408482Y51512136D03*
D14*
G36*
X52744358Y52236920D02*
G01*
X53133266Y51848012D01*
X52072606Y50787352D01*
X51683698Y51176260D01*
X52744358Y52236920D01*
X52744358Y52236920D01*
G37*
D16*
X50004318Y51512136D03*
D14*
G36*
X49279534Y51848012D02*
G01*
X49668442Y52236920D01*
X50729102Y51176260D01*
X50340194Y50787352D01*
X49279534Y51848012D01*
X49279534Y51848012D01*
G37*
D16*
X49438633Y50946450D03*
D14*
G36*
X48713849Y51282326D02*
G01*
X49102757Y51671234D01*
X50163417Y50610574D01*
X49774509Y50221666D01*
X48713849Y51282326D01*
X48713849Y51282326D01*
G37*
D16*
X48872948Y50380765D03*
D14*
G36*
X48148164Y50716641D02*
G01*
X48537072Y51105549D01*
X49597732Y50044889D01*
X49208824Y49655981D01*
X48148164Y50716641D01*
X48148164Y50716641D01*
G37*
D16*
X48307262Y49815080D03*
D14*
G36*
X47582478Y50150956D02*
G01*
X47971386Y50539864D01*
X49032046Y49479204D01*
X48643138Y49090296D01*
X47582478Y50150956D01*
X47582478Y50150956D01*
G37*
D16*
X47741577Y49249394D03*
D14*
G36*
X47016793Y49585270D02*
G01*
X47405701Y49974178D01*
X48466361Y48913518D01*
X48077453Y48524610D01*
X47016793Y49585270D01*
X47016793Y49585270D01*
G37*
D16*
X47175891Y48683709D03*
D14*
G36*
X46451107Y49019585D02*
G01*
X46840015Y49408493D01*
X47900675Y48347833D01*
X47511767Y47958925D01*
X46451107Y49019585D01*
X46451107Y49019585D01*
G37*
D16*
X46610206Y48118023D03*
D14*
G36*
X45885422Y48453899D02*
G01*
X46274330Y48842807D01*
X47334990Y47782147D01*
X46946082Y47393239D01*
X45885422Y48453899D01*
X45885422Y48453899D01*
G37*
D16*
X46044520Y47552338D03*
D14*
G36*
X45319736Y47888214D02*
G01*
X45708644Y48277122D01*
X46769304Y47216462D01*
X46380396Y46827554D01*
X45319736Y47888214D01*
X45319736Y47888214D01*
G37*
D16*
X45478835Y46986652D03*
D14*
G36*
X44754051Y47322528D02*
G01*
X45142959Y47711436D01*
X46203619Y46650776D01*
X45814711Y46261868D01*
X44754051Y47322528D01*
X44754051Y47322528D01*
G37*
D16*
X44913150Y46420967D03*
D14*
G36*
X44188366Y46756843D02*
G01*
X44577274Y47145751D01*
X45637934Y46085091D01*
X45249026Y45696183D01*
X44188366Y46756843D01*
X44188366Y46756843D01*
G37*
D16*
X44347464Y45855282D03*
D14*
G36*
X43622680Y46191158D02*
G01*
X44011588Y46580066D01*
X45072248Y45519406D01*
X44683340Y45130498D01*
X43622680Y46191158D01*
X43622680Y46191158D01*
G37*
G04 #@! TD*
D12*
G04 #@! TO.C,D88*
X326700000Y86850000D03*
X326700000Y90150000D03*
G04 #@! TD*
G04 #@! TO.C,D87*
X315976000Y51436000D03*
X315976000Y54736000D03*
G04 #@! TD*
G04 #@! TO.C,D86*
X333084946Y11890132D03*
X333084946Y15190132D03*
G04 #@! TD*
G04 #@! TO.C,D85*
X319600000Y30354000D03*
X319600000Y33654000D03*
G04 #@! TD*
G04 #@! TO.C,D84*
X322072000Y68454000D03*
X322072000Y71754000D03*
G04 #@! TD*
G04 #@! TO.C,D83*
X301400000Y84750000D03*
X301400000Y88050000D03*
G04 #@! TD*
G04 #@! TO.C,D82*
X314071000Y12193000D03*
X314071000Y15493000D03*
G04 #@! TD*
G04 #@! TO.C,D78*
X298704000Y67056000D03*
X298704000Y70356000D03*
G04 #@! TD*
G04 #@! TO.C,D77*
X295072321Y86850000D03*
X295072321Y90150000D03*
G04 #@! TD*
G04 #@! TO.C,D76*
X291592000Y31878000D03*
X291592000Y35178000D03*
G04 #@! TD*
G04 #@! TO.C,D75*
X298958000Y10797000D03*
X298958000Y14097000D03*
G04 #@! TD*
G04 #@! TO.C,D74*
X290068000Y49658000D03*
X290068000Y52958000D03*
G04 #@! TD*
G04 #@! TO.C,D73*
X279400000Y68454000D03*
X279400000Y71754000D03*
G04 #@! TD*
G04 #@! TO.C,D72*
X275900000Y85050000D03*
X275900000Y88350000D03*
G04 #@! TD*
G04 #@! TO.C,D71*
X245110000Y11813000D03*
X245110000Y15113000D03*
G04 #@! TD*
G04 #@! TO.C,D70*
X274320000Y33276000D03*
X274320000Y36576000D03*
G04 #@! TD*
G04 #@! TO.C,D69*
X270648335Y51469629D03*
X270648335Y54769629D03*
G04 #@! TD*
G04 #@! TO.C,D68*
X266700000Y67056000D03*
X266700000Y70356000D03*
G04 #@! TD*
G04 #@! TO.C,D67*
X257000000Y86750000D03*
X257000000Y90050000D03*
G04 #@! TD*
G04 #@! TO.C,D66*
X261620000Y31878000D03*
X261620000Y35178000D03*
G04 #@! TD*
G04 #@! TO.C,D64*
X247904000Y68454000D03*
X247904000Y71754000D03*
G04 #@! TD*
G04 #@! TO.C,D63*
X237900000Y85450000D03*
X237900000Y88750000D03*
G04 #@! TD*
G04 #@! TO.C,D61*
X242316000Y33280303D03*
X242316000Y36580303D03*
G04 #@! TD*
G04 #@! TO.C,D59*
X228600000Y67056000D03*
X228600000Y70356000D03*
G04 #@! TD*
G04 #@! TO.C,D58*
X219100000Y86750000D03*
X219100000Y90050000D03*
G04 #@! TD*
G04 #@! TO.C,D57*
X223520000Y31878000D03*
X223520000Y35178000D03*
G04 #@! TD*
G04 #@! TO.C,D56*
X213868000Y49658000D03*
X213868000Y52958000D03*
G04 #@! TD*
G04 #@! TO.C,D55*
X209296000Y68454000D03*
X209296000Y71754000D03*
G04 #@! TD*
G04 #@! TO.C,D54*
X200100000Y85350000D03*
X200100000Y88650000D03*
G04 #@! TD*
G04 #@! TO.C,D53*
X200406000Y11812000D03*
X200406000Y15112000D03*
G04 #@! TD*
G04 #@! TO.C,D52*
X204231923Y33021548D03*
X204231923Y36321548D03*
G04 #@! TD*
G04 #@! TO.C,D51*
X194539062Y51571296D03*
X194539062Y54871296D03*
G04 #@! TD*
G04 #@! TO.C,D50*
X190500000Y67056000D03*
X190500000Y70356000D03*
G04 #@! TD*
G04 #@! TO.C,D49*
X180900000Y86750000D03*
X180900000Y90050000D03*
G04 #@! TD*
G04 #@! TO.C,D48*
X185928000Y32004000D03*
X185928000Y35304000D03*
G04 #@! TD*
G04 #@! TO.C,D47*
X176276000Y49658000D03*
X176276000Y52958000D03*
G04 #@! TD*
G04 #@! TO.C,D46*
X171167682Y68391097D03*
X171167682Y71691097D03*
G04 #@! TD*
G04 #@! TO.C,D45*
X161700000Y85150000D03*
X161700000Y88450000D03*
G04 #@! TD*
G04 #@! TO.C,D43*
X166116000Y33020000D03*
X166116000Y36320000D03*
G04 #@! TD*
G04 #@! TO.C,D42*
X156407152Y51580050D03*
X156407152Y54880050D03*
G04 #@! TD*
G04 #@! TO.C,D41*
X152400000Y67056000D03*
X152400000Y70356000D03*
G04 #@! TD*
G04 #@! TO.C,D40*
X142800000Y86850000D03*
X142800000Y90150000D03*
G04 #@! TD*
G04 #@! TO.C,D39*
X147320000Y32004000D03*
X147320000Y35304000D03*
G04 #@! TD*
G04 #@! TO.C,D38*
X137956227Y49618600D03*
X137956227Y52918600D03*
G04 #@! TD*
G04 #@! TO.C,D37*
X133096000Y68454000D03*
X133096000Y71754000D03*
G04 #@! TD*
G04 #@! TO.C,D36*
X123900000Y85250000D03*
X123900000Y88550000D03*
G04 #@! TD*
G04 #@! TO.C,D35*
X119380000Y9652000D03*
X119380000Y12952000D03*
G04 #@! TD*
G04 #@! TO.C,D34*
X128016000Y33020000D03*
X128016000Y36320000D03*
G04 #@! TD*
G04 #@! TO.C,D33*
X118650577Y51605173D03*
X118650577Y54905173D03*
G04 #@! TD*
G04 #@! TO.C,D32*
X114094404Y67039064D03*
X114094404Y70339064D03*
G04 #@! TD*
G04 #@! TO.C,D31*
X104666244Y86850000D03*
X104666244Y90150000D03*
G04 #@! TD*
G04 #@! TO.C,D30*
X96520000Y12066000D03*
X96520000Y15366000D03*
G04 #@! TD*
G04 #@! TO.C,D29*
X109220000Y32004000D03*
X109220000Y35304000D03*
G04 #@! TD*
G04 #@! TO.C,D28*
X99800714Y49610479D03*
X99800714Y52910479D03*
G04 #@! TD*
G04 #@! TO.C,D27*
X94996000Y68454000D03*
X94996000Y71754000D03*
G04 #@! TD*
G04 #@! TO.C,D26*
X86000000Y84850000D03*
X86000000Y88150000D03*
G04 #@! TD*
G04 #@! TO.C,D25*
X56896000Y12192000D03*
X56896000Y15492000D03*
G04 #@! TD*
G04 #@! TO.C,D24*
X78212251Y32938443D03*
X78212251Y36238443D03*
G04 #@! TD*
G04 #@! TO.C,D23*
X73622053Y51499894D03*
X73622053Y54799894D03*
G04 #@! TD*
G04 #@! TO.C,D22*
X71120000Y67056000D03*
X71120000Y70356000D03*
G04 #@! TD*
G04 #@! TO.C,D21*
X66400000Y86850000D03*
X66400000Y90150000D03*
G04 #@! TD*
G04 #@! TO.C,D20*
X1536000Y14098000D03*
X1536000Y17398000D03*
G04 #@! TD*
G04 #@! TO.C,D19*
X38112000Y31752000D03*
X38112000Y35052000D03*
G04 #@! TD*
G04 #@! TO.C,D18*
X31800000Y49700000D03*
X31800000Y53000000D03*
G04 #@! TD*
G04 #@! TO.C,D17*
X37846111Y68431002D03*
X37846111Y71731002D03*
G04 #@! TD*
G04 #@! TO.C,D16*
X38112000Y85450000D03*
X38112000Y88750000D03*
G04 #@! TD*
G04 #@! TO.C,D15*
X19300310Y12176862D03*
X19300310Y15476862D03*
G04 #@! TD*
G04 #@! TO.C,D14*
X19316000Y32894000D03*
X19316000Y36194000D03*
G04 #@! TD*
G04 #@! TO.C,D13*
X18808000Y51564000D03*
X18808000Y54864000D03*
G04 #@! TD*
G04 #@! TO.C,D12*
X18808000Y67056000D03*
X18808000Y70356000D03*
G04 #@! TD*
G04 #@! TO.C,D11*
X18792360Y87050000D03*
X18792360Y90350000D03*
G04 #@! TD*
G04 #@! TO.C,D10*
X38366000Y14098000D03*
X38366000Y17398000D03*
G04 #@! TD*
G04 #@! TO.C,D9*
X115775Y31793471D03*
X115775Y35093471D03*
G04 #@! TD*
G04 #@! TO.C,D8*
X12000Y49658000D03*
X12000Y52958000D03*
G04 #@! TD*
G04 #@! TO.C,D7*
X12000Y68580000D03*
X12000Y71880000D03*
G04 #@! TD*
G04 #@! TO.C,D5*
X-18784000Y18540000D03*
X-18784000Y15240000D03*
G04 #@! TD*
G04 #@! TO.C,D4*
X-16244000Y11050000D03*
X-16244000Y14350000D03*
G04 #@! TD*
G04 #@! TO.C,D3*
X-18784000Y58164000D03*
X-18784000Y54864000D03*
G04 #@! TD*
G04 #@! TO.C,D2*
X-18784000Y49658000D03*
X-18784000Y52958000D03*
G04 #@! TD*
G04 #@! TO.C,D1*
X-19000000Y86950000D03*
X-19000000Y90250000D03*
G04 #@! TD*
M02*
