G04 #@! TF.GenerationSoftware,KiCad,Pcbnew,(5.1.4)-1*
G04 #@! TF.CreationDate,2020-09-27T05:36:18-04:00*
G04 #@! TF.ProjectId,southpaw daughter board,736f7574-6870-4617-9720-646175676874,rev?*
G04 #@! TF.SameCoordinates,Original*
G04 #@! TF.FileFunction,Soldermask,Top*
G04 #@! TF.FilePolarity,Negative*
%FSLAX46Y46*%
G04 Gerber Fmt 4.6, Leading zero omitted, Abs format (unit mm)*
G04 Created by KiCad (PCBNEW (5.1.4)-1) date 2020-09-27 05:36:18*
%MOMM*%
%LPD*%
G04 APERTURE LIST*
%ADD10C,1.850000*%
%ADD11C,4.087800*%
%ADD12C,3.148000*%
%ADD13C,1.408000*%
G04 APERTURE END LIST*
D10*
G04 #@! TO.C,MX51*
X256690000Y6360000D03*
X246530000Y6360000D03*
D11*
X251610000Y6360000D03*
G04 #@! TD*
G04 #@! TO.C,MX19*
X32651000Y82550000D03*
D10*
X27571000Y82550000D03*
X37731000Y82550000D03*
G04 #@! TD*
D11*
G04 #@! TO.C,MX13*
X23100000Y6400000D03*
D10*
X18020000Y6400000D03*
X28180000Y6400000D03*
D12*
X11193750Y-585000D03*
X35006250Y-585000D03*
D11*
X11193750Y14655000D03*
X35006250Y14655000D03*
G04 #@! TD*
G04 #@! TO.C,MX29*
X65913000Y6350000D03*
D10*
X60833000Y6350000D03*
X70993000Y6350000D03*
G04 #@! TD*
D11*
G04 #@! TO.C,MX24*
X63500000Y6350000D03*
D10*
X58420000Y6350000D03*
X68580000Y6350000D03*
G04 #@! TD*
D11*
G04 #@! TO.C,MX14*
X13601000Y82550000D03*
D10*
X8521000Y82550000D03*
X18681000Y82550000D03*
G04 #@! TD*
D11*
G04 #@! TO.C,MX101*
X270740000Y6390000D03*
D10*
X265660000Y6390000D03*
X275820000Y6390000D03*
G04 #@! TD*
D11*
G04 #@! TO.C,MX60*
X182580100Y6365000D03*
D10*
X177500100Y6365000D03*
X187660100Y6365000D03*
D12*
X132580200Y-620000D03*
X232580000Y-620000D03*
D11*
X132580200Y14620000D03*
X232580000Y14620000D03*
G04 #@! TD*
G04 #@! TO.C,MX61*
X194437000Y6350000D03*
D10*
X189357000Y6350000D03*
X199517000Y6350000D03*
D12*
X137287000Y-635000D03*
X251587000Y-635000D03*
D11*
X137287000Y14605000D03*
X251587000Y14605000D03*
G04 #@! TD*
G04 #@! TO.C,MX98*
X315995192Y44469869D03*
D10*
X310915192Y44469869D03*
X321075192Y44469869D03*
D12*
X304088942Y51454869D03*
X327901442Y51454869D03*
D11*
X304088942Y36214869D03*
X327901442Y36214869D03*
G04 #@! TD*
G04 #@! TO.C,MX68*
X227841206Y44414246D03*
D10*
X222761206Y44414246D03*
X232921206Y44414246D03*
G04 #@! TD*
D11*
G04 #@! TO.C,MX38*
X99280341Y82549283D03*
D10*
X94200341Y82549283D03*
X104360341Y82549283D03*
G04 #@! TD*
D11*
G04 #@! TO.C,MX56*
X175514000Y82550000D03*
D10*
X170434000Y82550000D03*
X180594000Y82550000D03*
G04 #@! TD*
G04 #@! TO.C,MX93*
X306820000Y6410000D03*
X296660000Y6410000D03*
D11*
X301740000Y6410000D03*
G04 #@! TD*
D10*
G04 #@! TO.C,MX88*
X313920000Y6380000D03*
X303760000Y6380000D03*
D11*
X308840000Y6380000D03*
G04 #@! TD*
D10*
G04 #@! TO.C,MX104*
X304420000Y6340000D03*
X294260000Y6340000D03*
D11*
X299340000Y6340000D03*
G04 #@! TD*
G04 #@! TO.C,MX28*
X282702000Y25400000D03*
D10*
X277622000Y25400000D03*
X287782000Y25400000D03*
G04 #@! TD*
D11*
G04 #@! TO.C,MX12*
X-5449000Y6350000D03*
D10*
X-10529000Y6350000D03*
X-369000Y6350000D03*
G04 #@! TD*
D11*
G04 #@! TO.C,MX97*
X323124788Y63519096D03*
D10*
X318044788Y63519096D03*
X328204788Y63519096D03*
G04 #@! TD*
D11*
G04 #@! TO.C,MX81*
X277960000Y6410000D03*
D10*
X272880000Y6410000D03*
X283040000Y6410000D03*
G04 #@! TD*
D13*
G04 #@! TO.C,J1*
X52070000Y64770000D03*
X52070000Y67310000D03*
X46990000Y67310000D03*
X46990000Y64770000D03*
X49530000Y67310000D03*
X49530000Y64770000D03*
G04 #@! TD*
D11*
G04 #@! TO.C,MX103*
X327914000Y82550000D03*
D10*
X322834000Y82550000D03*
X332994000Y82550000D03*
G04 #@! TD*
D11*
G04 #@! TO.C,MX102*
X318343779Y82556296D03*
D10*
X313263779Y82556296D03*
X323423779Y82556296D03*
D12*
X306437529Y89541296D03*
X330250029Y89541296D03*
D11*
X306437529Y74301296D03*
X330250029Y74301296D03*
G04 #@! TD*
D10*
G04 #@! TO.C,MX100*
X328250000Y6380000D03*
X318090000Y6380000D03*
D11*
X323170000Y6380000D03*
G04 #@! TD*
G04 #@! TO.C,MX99*
X327914000Y25400000D03*
D10*
X322834000Y25400000D03*
X332994000Y25400000D03*
G04 #@! TD*
D11*
G04 #@! TO.C,MX96*
X308864000Y82550000D03*
D10*
X303784000Y82550000D03*
X313944000Y82550000D03*
G04 #@! TD*
D11*
G04 #@! TO.C,MX95*
X325540000Y6420000D03*
D10*
X320460000Y6420000D03*
X330620000Y6420000D03*
G04 #@! TD*
G04 #@! TO.C,MX94*
X333000000Y6420000D03*
X322840000Y6420000D03*
D11*
X327920000Y6420000D03*
G04 #@! TD*
G04 #@! TO.C,MX92*
X308850000Y25420000D03*
D10*
X303770000Y25420000D03*
X313930000Y25420000D03*
G04 #@! TD*
D11*
G04 #@! TO.C,MX90*
X299290998Y63514483D03*
D10*
X294210998Y63514483D03*
X304370998Y63514483D03*
G04 #@! TD*
D11*
G04 #@! TO.C,MX89*
X289814000Y82550000D03*
D10*
X284734000Y82550000D03*
X294894000Y82550000D03*
G04 #@! TD*
D11*
G04 #@! TO.C,MX87*
X301660000Y25460000D03*
D10*
X296580000Y25460000D03*
X306740000Y25460000D03*
G04 #@! TD*
G04 #@! TO.C,MX86*
X294870000Y6380000D03*
X284710000Y6380000D03*
D11*
X289790000Y6380000D03*
G04 #@! TD*
G04 #@! TO.C,MX85*
X323096250Y17165000D03*
X299283750Y17165000D03*
D12*
X323096250Y32405000D03*
X299283750Y32405000D03*
D10*
X316270000Y25420000D03*
X306110000Y25420000D03*
D11*
X311190000Y25420000D03*
G04 #@! TD*
G04 #@! TO.C,MX84*
X284988000Y44450000D03*
D10*
X279908000Y44450000D03*
X290068000Y44450000D03*
G04 #@! TD*
D11*
G04 #@! TO.C,MX83*
X280289000Y63500000D03*
D10*
X275209000Y63500000D03*
X285369000Y63500000D03*
G04 #@! TD*
D11*
G04 #@! TO.C,MX82*
X270764000Y82550000D03*
D10*
X265684000Y82550000D03*
X275844000Y82550000D03*
G04 #@! TD*
D11*
G04 #@! TO.C,MX80*
X275480000Y6350000D03*
D10*
X270400000Y6350000D03*
X280560000Y6350000D03*
G04 #@! TD*
D11*
G04 #@! TO.C,MX79*
X275463000Y25400000D03*
D10*
X270383000Y25400000D03*
X280543000Y25400000D03*
G04 #@! TD*
D11*
G04 #@! TO.C,MX78*
X265938000Y44450000D03*
D10*
X260858000Y44450000D03*
X271018000Y44450000D03*
G04 #@! TD*
D11*
G04 #@! TO.C,MX77*
X261239000Y63500000D03*
D10*
X256159000Y63500000D03*
X266319000Y63500000D03*
G04 #@! TD*
D11*
G04 #@! TO.C,MX76*
X251714000Y82550000D03*
D10*
X246634000Y82550000D03*
X256794000Y82550000D03*
G04 #@! TD*
D11*
G04 #@! TO.C,MX75*
X254090000Y6360000D03*
D10*
X249010000Y6360000D03*
X259170000Y6360000D03*
G04 #@! TD*
D11*
G04 #@! TO.C,MX74*
X256413000Y25400000D03*
D10*
X251333000Y25400000D03*
X261493000Y25400000D03*
G04 #@! TD*
D11*
G04 #@! TO.C,MX73*
X246881586Y44481515D03*
D10*
X241801586Y44481515D03*
X251961586Y44481515D03*
G04 #@! TD*
D11*
G04 #@! TO.C,MX72*
X242189000Y63500000D03*
D10*
X237109000Y63500000D03*
X247269000Y63500000D03*
G04 #@! TD*
D11*
G04 #@! TO.C,MX71*
X232664000Y82550000D03*
D10*
X227584000Y82550000D03*
X237744000Y82550000D03*
G04 #@! TD*
D11*
G04 #@! TO.C,MX69*
X237363000Y25400000D03*
D10*
X232283000Y25400000D03*
X242443000Y25400000D03*
G04 #@! TD*
D11*
G04 #@! TO.C,MX67*
X223139000Y63500000D03*
D10*
X218059000Y63500000D03*
X228219000Y63500000D03*
G04 #@! TD*
D11*
G04 #@! TO.C,MX66*
X213614000Y82550000D03*
D10*
X208534000Y82550000D03*
X218694000Y82550000D03*
G04 #@! TD*
D11*
G04 #@! TO.C,MX65*
X218313000Y25400000D03*
D10*
X213233000Y25400000D03*
X223393000Y25400000D03*
G04 #@! TD*
G04 #@! TO.C,MX64*
X213868000Y44450000D03*
X203708000Y44450000D03*
D11*
X208788000Y44450000D03*
G04 #@! TD*
G04 #@! TO.C,MX63*
X204089000Y63500000D03*
D10*
X199009000Y63500000D03*
X209169000Y63500000D03*
G04 #@! TD*
D11*
G04 #@! TO.C,MX62*
X194564000Y82550000D03*
D10*
X189484000Y82550000D03*
X199644000Y82550000D03*
G04 #@! TD*
D11*
G04 #@! TO.C,MX59*
X199263000Y25400000D03*
D10*
X194183000Y25400000D03*
X204343000Y25400000D03*
G04 #@! TD*
D11*
G04 #@! TO.C,MX58*
X189738000Y44450000D03*
D10*
X184658000Y44450000D03*
X194818000Y44450000D03*
G04 #@! TD*
D11*
G04 #@! TO.C,MX57*
X185039000Y63500000D03*
D10*
X179959000Y63500000D03*
X190119000Y63500000D03*
G04 #@! TD*
D11*
G04 #@! TO.C,MX55*
X180213000Y25400000D03*
D10*
X175133000Y25400000D03*
X185293000Y25400000D03*
G04 #@! TD*
D11*
G04 #@! TO.C,MX54*
X170688000Y44450000D03*
D10*
X165608000Y44450000D03*
X175768000Y44450000D03*
G04 #@! TD*
D11*
G04 #@! TO.C,MX53*
X165989000Y63500000D03*
D10*
X160909000Y63500000D03*
X171069000Y63500000D03*
G04 #@! TD*
D11*
G04 #@! TO.C,MX52*
X156464000Y82550000D03*
D10*
X151384000Y82550000D03*
X161544000Y82550000D03*
G04 #@! TD*
D11*
G04 #@! TO.C,MX50*
X161163000Y25400000D03*
D10*
X156083000Y25400000D03*
X166243000Y25400000D03*
G04 #@! TD*
D11*
G04 #@! TO.C,MX49*
X151638000Y44450000D03*
D10*
X146558000Y44450000D03*
X156718000Y44450000D03*
G04 #@! TD*
D11*
G04 #@! TO.C,MX48*
X146939000Y63500000D03*
D10*
X141859000Y63500000D03*
X152019000Y63500000D03*
G04 #@! TD*
D11*
G04 #@! TO.C,MX47*
X137414000Y82550000D03*
D10*
X132334000Y82550000D03*
X142494000Y82550000D03*
G04 #@! TD*
D11*
G04 #@! TO.C,MX46*
X142113000Y25400000D03*
D10*
X137033000Y25400000D03*
X147193000Y25400000D03*
G04 #@! TD*
D11*
G04 #@! TO.C,MX45*
X132588000Y44450000D03*
D10*
X127508000Y44450000D03*
X137668000Y44450000D03*
G04 #@! TD*
D11*
G04 #@! TO.C,MX44*
X127889000Y63500000D03*
D10*
X122809000Y63500000D03*
X132969000Y63500000D03*
G04 #@! TD*
D11*
G04 #@! TO.C,MX43*
X118364000Y82550000D03*
D10*
X113284000Y82550000D03*
X123444000Y82550000D03*
G04 #@! TD*
D11*
G04 #@! TO.C,MX42*
X113538000Y6350000D03*
D10*
X108458000Y6350000D03*
X118618000Y6350000D03*
G04 #@! TD*
D11*
G04 #@! TO.C,MX41*
X123063000Y25400000D03*
D10*
X117983000Y25400000D03*
X128143000Y25400000D03*
G04 #@! TD*
D11*
G04 #@! TO.C,MX40*
X113538000Y44450000D03*
D10*
X108458000Y44450000D03*
X118618000Y44450000D03*
G04 #@! TD*
D11*
G04 #@! TO.C,MX39*
X108839000Y63500000D03*
D10*
X103759000Y63500000D03*
X113919000Y63500000D03*
G04 #@! TD*
D11*
G04 #@! TO.C,MX37*
X111125000Y6350000D03*
D10*
X106045000Y6350000D03*
X116205000Y6350000D03*
G04 #@! TD*
D11*
G04 #@! TO.C,MX36*
X89662000Y6350000D03*
D10*
X84582000Y6350000D03*
X94742000Y6350000D03*
G04 #@! TD*
D11*
G04 #@! TO.C,MX35*
X104013000Y25400000D03*
D10*
X98933000Y25400000D03*
X109093000Y25400000D03*
G04 #@! TD*
D11*
G04 #@! TO.C,MX34*
X94488000Y44450000D03*
D10*
X89408000Y44450000D03*
X99568000Y44450000D03*
G04 #@! TD*
D11*
G04 #@! TO.C,MX33*
X89789000Y63500000D03*
D10*
X84709000Y63500000D03*
X94869000Y63500000D03*
G04 #@! TD*
D11*
G04 #@! TO.C,MX32*
X80207937Y82532005D03*
D10*
X75127937Y82532005D03*
X85287937Y82532005D03*
G04 #@! TD*
D11*
G04 #@! TO.C,MX31*
X87249000Y6350000D03*
D10*
X82169000Y6350000D03*
X92329000Y6350000D03*
G04 #@! TD*
D11*
G04 #@! TO.C,MX30*
X73025000Y25400000D03*
D10*
X67945000Y25400000D03*
X78105000Y25400000D03*
D12*
X61118750Y32385000D03*
X84931250Y32385000D03*
D11*
X61118750Y17145000D03*
X84931250Y17145000D03*
G04 #@! TD*
G04 #@! TO.C,MX27*
X68288579Y44447006D03*
D10*
X63208579Y44447006D03*
X73368579Y44447006D03*
G04 #@! TD*
D11*
G04 #@! TO.C,MX26*
X65913000Y63500000D03*
D10*
X60833000Y63500000D03*
X70993000Y63500000D03*
G04 #@! TD*
D11*
G04 #@! TO.C,MX25*
X61162065Y82550000D03*
D10*
X56082065Y82550000D03*
X66242065Y82550000D03*
G04 #@! TD*
D11*
G04 #@! TO.C,MX23*
X32651000Y6350000D03*
D10*
X27571000Y6350000D03*
X37731000Y6350000D03*
G04 #@! TD*
D11*
G04 #@! TO.C,MX22*
X32651000Y25400000D03*
D10*
X27571000Y25400000D03*
X37731000Y25400000D03*
G04 #@! TD*
D11*
G04 #@! TO.C,MX21*
X32651000Y44450000D03*
D10*
X27571000Y44450000D03*
X37731000Y44450000D03*
G04 #@! TD*
D11*
G04 #@! TO.C,MX20*
X32651000Y63500000D03*
D10*
X27571000Y63500000D03*
X37731000Y63500000D03*
G04 #@! TD*
D11*
G04 #@! TO.C,MX18*
X13601000Y6350000D03*
D10*
X8521000Y6350000D03*
X18681000Y6350000D03*
G04 #@! TD*
D11*
G04 #@! TO.C,MX17*
X13601000Y25400000D03*
D10*
X8521000Y25400000D03*
X18681000Y25400000D03*
G04 #@! TD*
D11*
G04 #@! TO.C,MX16*
X13601000Y44450000D03*
D10*
X8521000Y44450000D03*
X18681000Y44450000D03*
G04 #@! TD*
D11*
G04 #@! TO.C,MX15*
X13601000Y63500000D03*
D10*
X8521000Y63500000D03*
X18681000Y63500000D03*
G04 #@! TD*
D11*
G04 #@! TO.C,MX11*
X-5449000Y25400000D03*
D10*
X-10529000Y25400000D03*
X-369000Y25400000D03*
G04 #@! TD*
D11*
G04 #@! TO.C,MX10*
X-5449000Y44450000D03*
D10*
X-10529000Y44450000D03*
X-369000Y44450000D03*
G04 #@! TD*
D11*
G04 #@! TO.C,MX9*
X-5449000Y63500000D03*
D10*
X-10529000Y63500000D03*
X-369000Y63500000D03*
G04 #@! TD*
D11*
G04 #@! TO.C,MX8*
X-5449000Y82550000D03*
D10*
X-10529000Y82550000D03*
X-369000Y82550000D03*
G04 #@! TD*
D11*
G04 #@! TO.C,MX7*
X-24499000Y25400000D03*
D10*
X-29579000Y25400000D03*
X-19419000Y25400000D03*
G04 #@! TD*
D11*
G04 #@! TO.C,MX6*
X-24499000Y6350000D03*
D10*
X-29579000Y6350000D03*
X-19419000Y6350000D03*
G04 #@! TD*
D11*
G04 #@! TO.C,MX5*
X-24499000Y63500000D03*
D10*
X-29579000Y63500000D03*
X-19419000Y63500000D03*
G04 #@! TD*
D11*
G04 #@! TO.C,MX4*
X-24499000Y44450000D03*
D10*
X-29579000Y44450000D03*
X-19419000Y44450000D03*
G04 #@! TD*
D11*
G04 #@! TO.C,MX3*
X-24499000Y82550000D03*
D10*
X-29579000Y82550000D03*
X-19419000Y82550000D03*
G04 #@! TD*
D11*
G04 #@! TO.C,MX2*
X-24499000Y15875000D03*
D10*
X-24499000Y10795000D03*
X-24499000Y20955000D03*
D12*
X-31484000Y3968750D03*
X-31484000Y27781250D03*
D11*
X-16244000Y3968750D03*
X-16244000Y27781250D03*
G04 #@! TD*
G04 #@! TO.C,MX1*
X-24499000Y53975000D03*
D10*
X-24499000Y48895000D03*
X-24499000Y59055000D03*
D12*
X-31484000Y42068750D03*
X-31484000Y65881250D03*
D11*
X-16244000Y42068750D03*
X-16244000Y65881250D03*
G04 #@! TD*
M02*
