G04 #@! TF.GenerationSoftware,KiCad,Pcbnew,(5.1.4)-1*
G04 #@! TF.CreationDate,2020-09-27T05:36:18-04:00*
G04 #@! TF.ProjectId,southpaw daughter board,736f7574-6870-4617-9720-646175676874,rev?*
G04 #@! TF.SameCoordinates,Original*
G04 #@! TF.FileFunction,Legend,Bot*
G04 #@! TF.FilePolarity,Positive*
%FSLAX46Y46*%
G04 Gerber Fmt 4.6, Leading zero omitted, Abs format (unit mm)*
G04 Created by KiCad (PCBNEW (5.1.4)-1) date 2020-09-27 05:36:18*
%MOMM*%
%LPD*%
G04 APERTURE LIST*
%ADD10C,0.010000*%
%ADD11C,0.150000*%
%ADD12C,0.120000*%
%ADD13C,0.127000*%
%ADD14C,0.015000*%
G04 APERTURE END LIST*
D10*
G04 #@! TO.C,G\002A\002A\002A*
G36*
X218198902Y8513435D02*
G01*
X218193509Y8458745D01*
X218188987Y8313887D01*
X218185433Y8090289D01*
X218182945Y7799379D01*
X218181618Y7452588D01*
X218181550Y7061343D01*
X218182838Y6637073D01*
X218182891Y6625504D01*
X218191564Y4762257D01*
X217998282Y4916790D01*
X217899845Y5003254D01*
X217746348Y5147510D01*
X217553457Y5334408D01*
X217336836Y5548796D01*
X217144600Y5742491D01*
X216484200Y6413660D01*
X215442778Y6426200D01*
X215442789Y6261100D01*
X215453542Y6146932D01*
X215503376Y6102323D01*
X215582500Y6095717D01*
X215753194Y6081524D01*
X215918244Y6033264D01*
X216095465Y5941325D01*
X216302669Y5796094D01*
X216557666Y5587960D01*
X216615750Y5538127D01*
X216809454Y5368729D01*
X216973477Y5221097D01*
X217093253Y5108661D01*
X217154213Y5044850D01*
X217158746Y5037565D01*
X217130876Y4988438D01*
X217045532Y4877302D01*
X216913962Y4716982D01*
X216747413Y4520303D01*
X216557133Y4300089D01*
X216354367Y4069164D01*
X216150365Y3840354D01*
X215956372Y3626482D01*
X215783637Y3440374D01*
X215643407Y3294854D01*
X215558667Y3213100D01*
X215431515Y3115186D01*
X215319413Y3056000D01*
X215281937Y3048000D01*
X215216875Y3024238D01*
X215191051Y2936563D01*
X215188800Y2870200D01*
X215188800Y2692400D01*
X216546044Y2692400D01*
X216952832Y3187700D01*
X217162003Y3435639D01*
X217401182Y3708668D01*
X217635652Y3967591D01*
X217773921Y4114800D01*
X218188223Y4546600D01*
X218174412Y3852273D01*
X218166561Y3595606D01*
X218154661Y3375695D01*
X218140172Y3212384D01*
X218124554Y3125514D01*
X218120365Y3117772D01*
X218049364Y3088489D01*
X217915675Y3060382D01*
X217840965Y3050099D01*
X217695461Y3028160D01*
X217622550Y2991885D01*
X217593494Y2919575D01*
X217585882Y2857500D01*
X217569963Y2692400D01*
X219760800Y2692400D01*
X219760800Y2870200D01*
X219755842Y2979751D01*
X219722460Y3031418D01*
X219632896Y3046961D01*
X219533988Y3048000D01*
X219373764Y3060859D01*
X219283559Y3106257D01*
X219254588Y3146261D01*
X219244076Y3215731D01*
X219234837Y3373942D01*
X219226893Y3608042D01*
X219220269Y3905178D01*
X219214986Y4252500D01*
X219211069Y4637156D01*
X219208541Y5046293D01*
X219207424Y5467060D01*
X219207743Y5886606D01*
X219209519Y6292078D01*
X219212778Y6670625D01*
X219217540Y7009394D01*
X219223831Y7295535D01*
X219231672Y7516196D01*
X219241088Y7658524D01*
X219246373Y7696200D01*
X219275411Y7789533D01*
X219331051Y7837306D01*
X219444033Y7858397D01*
X219519763Y7864084D01*
X219665378Y7877997D01*
X219736206Y7907051D01*
X219759019Y7969204D01*
X219760800Y8025761D01*
X219754188Y8108029D01*
X219721819Y8163114D01*
X219644895Y8199946D01*
X219504615Y8227456D01*
X219282182Y8254574D01*
X219278200Y8255015D01*
X219069804Y8289807D01*
X218821753Y8347932D01*
X218598493Y8413435D01*
X218418525Y8469364D01*
X218278753Y8505450D01*
X218204164Y8515439D01*
X218198902Y8513435D01*
X218198902Y8513435D01*
G37*
X218198902Y8513435D02*
X218193509Y8458745D01*
X218188987Y8313887D01*
X218185433Y8090289D01*
X218182945Y7799379D01*
X218181618Y7452588D01*
X218181550Y7061343D01*
X218182838Y6637073D01*
X218182891Y6625504D01*
X218191564Y4762257D01*
X217998282Y4916790D01*
X217899845Y5003254D01*
X217746348Y5147510D01*
X217553457Y5334408D01*
X217336836Y5548796D01*
X217144600Y5742491D01*
X216484200Y6413660D01*
X215442778Y6426200D01*
X215442789Y6261100D01*
X215453542Y6146932D01*
X215503376Y6102323D01*
X215582500Y6095717D01*
X215753194Y6081524D01*
X215918244Y6033264D01*
X216095465Y5941325D01*
X216302669Y5796094D01*
X216557666Y5587960D01*
X216615750Y5538127D01*
X216809454Y5368729D01*
X216973477Y5221097D01*
X217093253Y5108661D01*
X217154213Y5044850D01*
X217158746Y5037565D01*
X217130876Y4988438D01*
X217045532Y4877302D01*
X216913962Y4716982D01*
X216747413Y4520303D01*
X216557133Y4300089D01*
X216354367Y4069164D01*
X216150365Y3840354D01*
X215956372Y3626482D01*
X215783637Y3440374D01*
X215643407Y3294854D01*
X215558667Y3213100D01*
X215431515Y3115186D01*
X215319413Y3056000D01*
X215281937Y3048000D01*
X215216875Y3024238D01*
X215191051Y2936563D01*
X215188800Y2870200D01*
X215188800Y2692400D01*
X216546044Y2692400D01*
X216952832Y3187700D01*
X217162003Y3435639D01*
X217401182Y3708668D01*
X217635652Y3967591D01*
X217773921Y4114800D01*
X218188223Y4546600D01*
X218174412Y3852273D01*
X218166561Y3595606D01*
X218154661Y3375695D01*
X218140172Y3212384D01*
X218124554Y3125514D01*
X218120365Y3117772D01*
X218049364Y3088489D01*
X217915675Y3060382D01*
X217840965Y3050099D01*
X217695461Y3028160D01*
X217622550Y2991885D01*
X217593494Y2919575D01*
X217585882Y2857500D01*
X217569963Y2692400D01*
X219760800Y2692400D01*
X219760800Y2870200D01*
X219755842Y2979751D01*
X219722460Y3031418D01*
X219632896Y3046961D01*
X219533988Y3048000D01*
X219373764Y3060859D01*
X219283559Y3106257D01*
X219254588Y3146261D01*
X219244076Y3215731D01*
X219234837Y3373942D01*
X219226893Y3608042D01*
X219220269Y3905178D01*
X219214986Y4252500D01*
X219211069Y4637156D01*
X219208541Y5046293D01*
X219207424Y5467060D01*
X219207743Y5886606D01*
X219209519Y6292078D01*
X219212778Y6670625D01*
X219217540Y7009394D01*
X219223831Y7295535D01*
X219231672Y7516196D01*
X219241088Y7658524D01*
X219246373Y7696200D01*
X219275411Y7789533D01*
X219331051Y7837306D01*
X219444033Y7858397D01*
X219519763Y7864084D01*
X219665378Y7877997D01*
X219736206Y7907051D01*
X219759019Y7969204D01*
X219760800Y8025761D01*
X219754188Y8108029D01*
X219721819Y8163114D01*
X219644895Y8199946D01*
X219504615Y8227456D01*
X219282182Y8254574D01*
X219278200Y8255015D01*
X219069804Y8289807D01*
X218821753Y8347932D01*
X218598493Y8413435D01*
X218418525Y8469364D01*
X218278753Y8505450D01*
X218204164Y8515439D01*
X218198902Y8513435D01*
G36*
X222608010Y5784923D02*
G01*
X222475947Y5470385D01*
X222333757Y5137736D01*
X222195976Y4820613D01*
X222077135Y4552654D01*
X222044046Y4479642D01*
X221801054Y3947573D01*
X221524312Y4805887D01*
X221406335Y5172606D01*
X221317410Y5454528D01*
X221255470Y5663568D01*
X221218451Y5811647D01*
X221204285Y5910683D01*
X221210907Y5972594D01*
X221236250Y6009299D01*
X221278249Y6032716D01*
X221309527Y6044945D01*
X221466823Y6084203D01*
X221592908Y6096000D01*
X221695587Y6107414D01*
X221735785Y6162664D01*
X221742000Y6261796D01*
X221742000Y6427592D01*
X220116540Y6426200D01*
X220116470Y6261100D01*
X220126866Y6147179D01*
X220176835Y6102715D01*
X220263173Y6096000D01*
X220410287Y6065077D01*
X220513656Y6007100D01*
X220576761Y5916865D01*
X220664927Y5736099D01*
X220775423Y5471995D01*
X220905517Y5131747D01*
X221052477Y4722548D01*
X221213572Y4251591D01*
X221386070Y3726072D01*
X221420177Y3619809D01*
X221716600Y2693018D01*
X222377000Y2693820D01*
X222577399Y3188410D01*
X222673604Y3420044D01*
X222797908Y3710926D01*
X222935999Y4027979D01*
X223073565Y4338127D01*
X223109141Y4417236D01*
X223440484Y5151471D01*
X223715756Y4569636D01*
X223850813Y4278572D01*
X224003969Y3939689D01*
X224154574Y3599084D01*
X224260850Y3352800D01*
X224530671Y2717800D01*
X224860968Y2702838D01*
X225191266Y2687875D01*
X225246842Y2906038D01*
X225301756Y3115037D01*
X225375175Y3384937D01*
X225462308Y3699029D01*
X225558368Y4040603D01*
X225658565Y4392951D01*
X225758110Y4739363D01*
X225852214Y5063131D01*
X225936088Y5347544D01*
X226004943Y5575895D01*
X226053990Y5731473D01*
X226069743Y5777169D01*
X226129957Y5929007D01*
X226186905Y6011688D01*
X226271698Y6051661D01*
X226415449Y6075375D01*
X226421456Y6076172D01*
X226570904Y6099770D01*
X226643658Y6131147D01*
X226664021Y6189134D01*
X226659604Y6260709D01*
X226644200Y6411610D01*
X225539297Y6418905D01*
X224434393Y6426200D01*
X224434397Y6261100D01*
X224440720Y6157535D01*
X224478618Y6109814D01*
X224576498Y6096113D01*
X224650300Y6095223D01*
X224779757Y6093460D01*
X224874185Y6081011D01*
X224935044Y6045538D01*
X224963792Y5974702D01*
X224961888Y5856166D01*
X224930789Y5677592D01*
X224871954Y5426642D01*
X224786841Y5090980D01*
X224774642Y5043293D01*
X224697128Y4745677D01*
X224625796Y4482001D01*
X224565142Y4268077D01*
X224519659Y4119717D01*
X224493843Y4052733D01*
X224492658Y4051256D01*
X224462838Y4085473D01*
X224397868Y4201227D01*
X224303425Y4387018D01*
X224185187Y4631347D01*
X224048831Y4922716D01*
X223900035Y5249625D01*
X223890684Y5270456D01*
X223326736Y6527800D01*
X222928982Y6558134D01*
X222608010Y5784923D01*
X222608010Y5784923D01*
G37*
X222608010Y5784923D02*
X222475947Y5470385D01*
X222333757Y5137736D01*
X222195976Y4820613D01*
X222077135Y4552654D01*
X222044046Y4479642D01*
X221801054Y3947573D01*
X221524312Y4805887D01*
X221406335Y5172606D01*
X221317410Y5454528D01*
X221255470Y5663568D01*
X221218451Y5811647D01*
X221204285Y5910683D01*
X221210907Y5972594D01*
X221236250Y6009299D01*
X221278249Y6032716D01*
X221309527Y6044945D01*
X221466823Y6084203D01*
X221592908Y6096000D01*
X221695587Y6107414D01*
X221735785Y6162664D01*
X221742000Y6261796D01*
X221742000Y6427592D01*
X220116540Y6426200D01*
X220116470Y6261100D01*
X220126866Y6147179D01*
X220176835Y6102715D01*
X220263173Y6096000D01*
X220410287Y6065077D01*
X220513656Y6007100D01*
X220576761Y5916865D01*
X220664927Y5736099D01*
X220775423Y5471995D01*
X220905517Y5131747D01*
X221052477Y4722548D01*
X221213572Y4251591D01*
X221386070Y3726072D01*
X221420177Y3619809D01*
X221716600Y2693018D01*
X222377000Y2693820D01*
X222577399Y3188410D01*
X222673604Y3420044D01*
X222797908Y3710926D01*
X222935999Y4027979D01*
X223073565Y4338127D01*
X223109141Y4417236D01*
X223440484Y5151471D01*
X223715756Y4569636D01*
X223850813Y4278572D01*
X224003969Y3939689D01*
X224154574Y3599084D01*
X224260850Y3352800D01*
X224530671Y2717800D01*
X224860968Y2702838D01*
X225191266Y2687875D01*
X225246842Y2906038D01*
X225301756Y3115037D01*
X225375175Y3384937D01*
X225462308Y3699029D01*
X225558368Y4040603D01*
X225658565Y4392951D01*
X225758110Y4739363D01*
X225852214Y5063131D01*
X225936088Y5347544D01*
X226004943Y5575895D01*
X226053990Y5731473D01*
X226069743Y5777169D01*
X226129957Y5929007D01*
X226186905Y6011688D01*
X226271698Y6051661D01*
X226415449Y6075375D01*
X226421456Y6076172D01*
X226570904Y6099770D01*
X226643658Y6131147D01*
X226664021Y6189134D01*
X226659604Y6260709D01*
X226644200Y6411610D01*
X225539297Y6418905D01*
X224434393Y6426200D01*
X224434397Y6261100D01*
X224440720Y6157535D01*
X224478618Y6109814D01*
X224576498Y6096113D01*
X224650300Y6095223D01*
X224779757Y6093460D01*
X224874185Y6081011D01*
X224935044Y6045538D01*
X224963792Y5974702D01*
X224961888Y5856166D01*
X224930789Y5677592D01*
X224871954Y5426642D01*
X224786841Y5090980D01*
X224774642Y5043293D01*
X224697128Y4745677D01*
X224625796Y4482001D01*
X224565142Y4268077D01*
X224519659Y4119717D01*
X224493843Y4052733D01*
X224492658Y4051256D01*
X224462838Y4085473D01*
X224397868Y4201227D01*
X224303425Y4387018D01*
X224185187Y4631347D01*
X224048831Y4922716D01*
X223900035Y5249625D01*
X223890684Y5270456D01*
X223326736Y6527800D01*
X222928982Y6558134D01*
X222608010Y5784923D01*
G36*
X230886405Y6495390D02*
G01*
X230816955Y6463177D01*
X230809432Y6398807D01*
X230808486Y6256516D01*
X230813939Y6059755D01*
X230821198Y5907034D01*
X230841392Y5638772D01*
X230871214Y5463393D01*
X230917023Y5372235D01*
X230985181Y5356633D01*
X231082048Y5407924D01*
X231148885Y5460681D01*
X231346480Y5568400D01*
X231563087Y5593774D01*
X231774062Y5544193D01*
X231954761Y5427046D01*
X232080540Y5249722D01*
X232107447Y5173259D01*
X232129086Y5038693D01*
X232143651Y4836152D01*
X232151547Y4585382D01*
X232153177Y4306126D01*
X232148946Y4018131D01*
X232139257Y3741141D01*
X232124515Y3494902D01*
X232105124Y3299158D01*
X232081487Y3173655D01*
X232065853Y3140688D01*
X231980473Y3098746D01*
X231833778Y3062943D01*
X231735653Y3049293D01*
X231580573Y3029864D01*
X231499680Y2999721D01*
X231465859Y2940382D01*
X231454282Y2857500D01*
X231438363Y2692400D01*
X233730800Y2692400D01*
X233730800Y2870200D01*
X233725842Y2979751D01*
X233692460Y3031418D01*
X233602896Y3046961D01*
X233503988Y3048000D01*
X233343764Y3060859D01*
X233253559Y3106257D01*
X233224588Y3146261D01*
X233206425Y3230148D01*
X233191956Y3395594D01*
X233181125Y3625541D01*
X233173879Y3902928D01*
X233170164Y4210697D01*
X233169924Y4531788D01*
X233173106Y4849141D01*
X233179657Y5145697D01*
X233189520Y5404398D01*
X233202643Y5608183D01*
X233218972Y5739993D01*
X233232961Y5781041D01*
X233319037Y5819074D01*
X233460463Y5840361D01*
X233512361Y5842000D01*
X233648768Y5846561D01*
X233711850Y5874788D01*
X233729864Y5948497D01*
X233730800Y6010653D01*
X233730800Y6179305D01*
X233267324Y6241013D01*
X233018059Y6281411D01*
X232767974Y6333855D01*
X232561977Y6388641D01*
X232519785Y6402561D01*
X232361007Y6456161D01*
X232241650Y6492400D01*
X232195861Y6502400D01*
X232177341Y6455621D01*
X232163399Y6331316D01*
X232156396Y6153535D01*
X232156000Y6096442D01*
X232156000Y5690483D01*
X231866897Y6007542D01*
X231715551Y6167136D01*
X231573162Y6306354D01*
X231465594Y6400165D01*
X231447797Y6413166D01*
X231335568Y6460268D01*
X231181133Y6491533D01*
X231019682Y6504170D01*
X230886405Y6495390D01*
X230886405Y6495390D01*
G37*
X230886405Y6495390D02*
X230816955Y6463177D01*
X230809432Y6398807D01*
X230808486Y6256516D01*
X230813939Y6059755D01*
X230821198Y5907034D01*
X230841392Y5638772D01*
X230871214Y5463393D01*
X230917023Y5372235D01*
X230985181Y5356633D01*
X231082048Y5407924D01*
X231148885Y5460681D01*
X231346480Y5568400D01*
X231563087Y5593774D01*
X231774062Y5544193D01*
X231954761Y5427046D01*
X232080540Y5249722D01*
X232107447Y5173259D01*
X232129086Y5038693D01*
X232143651Y4836152D01*
X232151547Y4585382D01*
X232153177Y4306126D01*
X232148946Y4018131D01*
X232139257Y3741141D01*
X232124515Y3494902D01*
X232105124Y3299158D01*
X232081487Y3173655D01*
X232065853Y3140688D01*
X231980473Y3098746D01*
X231833778Y3062943D01*
X231735653Y3049293D01*
X231580573Y3029864D01*
X231499680Y2999721D01*
X231465859Y2940382D01*
X231454282Y2857500D01*
X231438363Y2692400D01*
X233730800Y2692400D01*
X233730800Y2870200D01*
X233725842Y2979751D01*
X233692460Y3031418D01*
X233602896Y3046961D01*
X233503988Y3048000D01*
X233343764Y3060859D01*
X233253559Y3106257D01*
X233224588Y3146261D01*
X233206425Y3230148D01*
X233191956Y3395594D01*
X233181125Y3625541D01*
X233173879Y3902928D01*
X233170164Y4210697D01*
X233169924Y4531788D01*
X233173106Y4849141D01*
X233179657Y5145697D01*
X233189520Y5404398D01*
X233202643Y5608183D01*
X233218972Y5739993D01*
X233232961Y5781041D01*
X233319037Y5819074D01*
X233460463Y5840361D01*
X233512361Y5842000D01*
X233648768Y5846561D01*
X233711850Y5874788D01*
X233729864Y5948497D01*
X233730800Y6010653D01*
X233730800Y6179305D01*
X233267324Y6241013D01*
X233018059Y6281411D01*
X232767974Y6333855D01*
X232561977Y6388641D01*
X232519785Y6402561D01*
X232361007Y6456161D01*
X232241650Y6492400D01*
X232195861Y6502400D01*
X232177341Y6455621D01*
X232163399Y6331316D01*
X232156396Y6153535D01*
X232156000Y6096442D01*
X232156000Y5690483D01*
X231866897Y6007542D01*
X231715551Y6167136D01*
X231573162Y6306354D01*
X231465594Y6400165D01*
X231447797Y6413166D01*
X231335568Y6460268D01*
X231181133Y6491533D01*
X231019682Y6504170D01*
X230886405Y6495390D01*
G36*
X238673721Y17013121D02*
G01*
X238451837Y16854337D01*
X238298483Y16639239D01*
X238216672Y16389168D01*
X238209419Y16125465D01*
X238279739Y15869469D01*
X238430644Y15642523D01*
X238474053Y15599445D01*
X238607601Y15476290D01*
X238607601Y11825121D01*
X238607600Y8173952D01*
X237972600Y8204200D01*
X237959342Y10360205D01*
X237946083Y12516210D01*
X238095926Y12671605D01*
X238260207Y12904312D01*
X238337170Y13154912D01*
X238335215Y13407766D01*
X238262739Y13647238D01*
X238128143Y13857691D01*
X237939826Y14023486D01*
X237706186Y14128986D01*
X237435624Y14158554D01*
X237305507Y14143193D01*
X237112813Y14067130D01*
X236917171Y13925154D01*
X236753694Y13745552D01*
X236695772Y13651996D01*
X236633897Y13449700D01*
X236626719Y13216305D01*
X236668339Y12983032D01*
X236752860Y12781103D01*
X236874387Y12641741D01*
X236888336Y12632455D01*
X236911097Y12613693D01*
X236929847Y12582368D01*
X236944975Y12529285D01*
X236956866Y12445247D01*
X236965908Y12321059D01*
X236972487Y12147525D01*
X236976991Y11915449D01*
X236979806Y11615634D01*
X236981320Y11238884D01*
X236981919Y10776004D01*
X236982001Y10406115D01*
X236982001Y8238269D01*
X236588301Y8205999D01*
X236103999Y8149750D01*
X235701517Y8063536D01*
X235363762Y7940604D01*
X235073642Y7774204D01*
X234814062Y7557584D01*
X234730624Y7472255D01*
X234462412Y7115976D01*
X234276102Y6706688D01*
X234170594Y6240789D01*
X234144786Y5714678D01*
X234150617Y5574046D01*
X234212401Y5071929D01*
X234341520Y4624711D01*
X234547240Y4203920D01*
X234648954Y4042739D01*
X234934859Y3669579D01*
X235251608Y3369088D01*
X235619456Y3126249D01*
X236058662Y2926042D01*
X236245400Y2859057D01*
X236358647Y2821528D01*
X236460659Y2791422D01*
X236564229Y2767777D01*
X236682145Y2749633D01*
X236827200Y2736028D01*
X237012182Y2726000D01*
X237249882Y2718588D01*
X237553091Y2712830D01*
X237934599Y2707766D01*
X238315500Y2703448D01*
X238770118Y2698598D01*
X239133381Y2695538D01*
X239415525Y2694761D01*
X239626787Y2696758D01*
X239777404Y2702023D01*
X239877612Y2711050D01*
X239937649Y2724330D01*
X239967750Y2742358D01*
X239978153Y2765625D01*
X239979200Y2783559D01*
X239936610Y2876085D01*
X239824235Y2982876D01*
X239783616Y3011531D01*
X239588032Y3140962D01*
X239551616Y4457802D01*
X239542902Y4863729D01*
X239538182Y5291243D01*
X239537901Y5418695D01*
X238379000Y5418695D01*
X238379000Y3175000D01*
X238074200Y3144572D01*
X237717752Y3128781D01*
X237333886Y3144508D01*
X236971596Y3188649D01*
X236791486Y3225841D01*
X236410765Y3370363D01*
X236083480Y3597110D01*
X235813078Y3899859D01*
X235603003Y4272385D01*
X235456701Y4708464D01*
X235377616Y5201873D01*
X235369195Y5746387D01*
X235371620Y5791000D01*
X235435305Y6290167D01*
X235563948Y6714010D01*
X235759473Y7064067D01*
X236023802Y7341876D01*
X236358860Y7548976D01*
X236766571Y7686905D01*
X237248860Y7757201D01*
X237807648Y7761402D01*
X237834365Y7760075D01*
X238044390Y7745649D01*
X238214809Y7727358D01*
X238320944Y7708168D01*
X238342365Y7698997D01*
X238349995Y7642103D01*
X238357086Y7494068D01*
X238363472Y7265348D01*
X238368983Y6966401D01*
X238373453Y6607684D01*
X238376712Y6199655D01*
X238378593Y5752770D01*
X238379000Y5418695D01*
X239537901Y5418695D01*
X239537223Y5725387D01*
X239539791Y6151206D01*
X239545653Y6553743D01*
X239554573Y6918044D01*
X239566320Y7229151D01*
X239580658Y7472110D01*
X239597355Y7631964D01*
X239601600Y7655875D01*
X239648698Y7740853D01*
X239762687Y7788691D01*
X239814510Y7798502D01*
X240018637Y7832534D01*
X240142559Y7862210D01*
X240206285Y7899876D01*
X240229830Y7957878D01*
X240233202Y8048562D01*
X240233200Y8056812D01*
X240233200Y8237687D01*
X239903000Y8202326D01*
X239572800Y8166964D01*
X239572800Y11848009D01*
X239572836Y12547395D01*
X239573075Y13152252D01*
X239573717Y13669655D01*
X239574964Y14106674D01*
X239577014Y14470382D01*
X239580067Y14767851D01*
X239584324Y15006153D01*
X239589985Y15192361D01*
X239597248Y15333547D01*
X239606315Y15436783D01*
X239617386Y15509142D01*
X239630659Y15557695D01*
X239646336Y15589515D01*
X239664616Y15611674D01*
X239679601Y15625707D01*
X239840809Y15834206D01*
X239921627Y16078806D01*
X239925258Y16337863D01*
X239854907Y16589734D01*
X239713779Y16812774D01*
X239505078Y16985341D01*
X239475910Y17001489D01*
X239205068Y17100833D01*
X238940825Y17103006D01*
X238673721Y17013121D01*
X238673721Y17013121D01*
G37*
X238673721Y17013121D02*
X238451837Y16854337D01*
X238298483Y16639239D01*
X238216672Y16389168D01*
X238209419Y16125465D01*
X238279739Y15869469D01*
X238430644Y15642523D01*
X238474053Y15599445D01*
X238607601Y15476290D01*
X238607601Y11825121D01*
X238607600Y8173952D01*
X237972600Y8204200D01*
X237959342Y10360205D01*
X237946083Y12516210D01*
X238095926Y12671605D01*
X238260207Y12904312D01*
X238337170Y13154912D01*
X238335215Y13407766D01*
X238262739Y13647238D01*
X238128143Y13857691D01*
X237939826Y14023486D01*
X237706186Y14128986D01*
X237435624Y14158554D01*
X237305507Y14143193D01*
X237112813Y14067130D01*
X236917171Y13925154D01*
X236753694Y13745552D01*
X236695772Y13651996D01*
X236633897Y13449700D01*
X236626719Y13216305D01*
X236668339Y12983032D01*
X236752860Y12781103D01*
X236874387Y12641741D01*
X236888336Y12632455D01*
X236911097Y12613693D01*
X236929847Y12582368D01*
X236944975Y12529285D01*
X236956866Y12445247D01*
X236965908Y12321059D01*
X236972487Y12147525D01*
X236976991Y11915449D01*
X236979806Y11615634D01*
X236981320Y11238884D01*
X236981919Y10776004D01*
X236982001Y10406115D01*
X236982001Y8238269D01*
X236588301Y8205999D01*
X236103999Y8149750D01*
X235701517Y8063536D01*
X235363762Y7940604D01*
X235073642Y7774204D01*
X234814062Y7557584D01*
X234730624Y7472255D01*
X234462412Y7115976D01*
X234276102Y6706688D01*
X234170594Y6240789D01*
X234144786Y5714678D01*
X234150617Y5574046D01*
X234212401Y5071929D01*
X234341520Y4624711D01*
X234547240Y4203920D01*
X234648954Y4042739D01*
X234934859Y3669579D01*
X235251608Y3369088D01*
X235619456Y3126249D01*
X236058662Y2926042D01*
X236245400Y2859057D01*
X236358647Y2821528D01*
X236460659Y2791422D01*
X236564229Y2767777D01*
X236682145Y2749633D01*
X236827200Y2736028D01*
X237012182Y2726000D01*
X237249882Y2718588D01*
X237553091Y2712830D01*
X237934599Y2707766D01*
X238315500Y2703448D01*
X238770118Y2698598D01*
X239133381Y2695538D01*
X239415525Y2694761D01*
X239626787Y2696758D01*
X239777404Y2702023D01*
X239877612Y2711050D01*
X239937649Y2724330D01*
X239967750Y2742358D01*
X239978153Y2765625D01*
X239979200Y2783559D01*
X239936610Y2876085D01*
X239824235Y2982876D01*
X239783616Y3011531D01*
X239588032Y3140962D01*
X239551616Y4457802D01*
X239542902Y4863729D01*
X239538182Y5291243D01*
X239537901Y5418695D01*
X238379000Y5418695D01*
X238379000Y3175000D01*
X238074200Y3144572D01*
X237717752Y3128781D01*
X237333886Y3144508D01*
X236971596Y3188649D01*
X236791486Y3225841D01*
X236410765Y3370363D01*
X236083480Y3597110D01*
X235813078Y3899859D01*
X235603003Y4272385D01*
X235456701Y4708464D01*
X235377616Y5201873D01*
X235369195Y5746387D01*
X235371620Y5791000D01*
X235435305Y6290167D01*
X235563948Y6714010D01*
X235759473Y7064067D01*
X236023802Y7341876D01*
X236358860Y7548976D01*
X236766571Y7686905D01*
X237248860Y7757201D01*
X237807648Y7761402D01*
X237834365Y7760075D01*
X238044390Y7745649D01*
X238214809Y7727358D01*
X238320944Y7708168D01*
X238342365Y7698997D01*
X238349995Y7642103D01*
X238357086Y7494068D01*
X238363472Y7265348D01*
X238368983Y6966401D01*
X238373453Y6607684D01*
X238376712Y6199655D01*
X238378593Y5752770D01*
X238379000Y5418695D01*
X239537901Y5418695D01*
X239537223Y5725387D01*
X239539791Y6151206D01*
X239545653Y6553743D01*
X239554573Y6918044D01*
X239566320Y7229151D01*
X239580658Y7472110D01*
X239597355Y7631964D01*
X239601600Y7655875D01*
X239648698Y7740853D01*
X239762687Y7788691D01*
X239814510Y7798502D01*
X240018637Y7832534D01*
X240142559Y7862210D01*
X240206285Y7899876D01*
X240229830Y7957878D01*
X240233202Y8048562D01*
X240233200Y8056812D01*
X240233200Y8237687D01*
X239903000Y8202326D01*
X239572800Y8166964D01*
X239572800Y11848009D01*
X239572836Y12547395D01*
X239573075Y13152252D01*
X239573717Y13669655D01*
X239574964Y14106674D01*
X239577014Y14470382D01*
X239580067Y14767851D01*
X239584324Y15006153D01*
X239589985Y15192361D01*
X239597248Y15333547D01*
X239606315Y15436783D01*
X239617386Y15509142D01*
X239630659Y15557695D01*
X239646336Y15589515D01*
X239664616Y15611674D01*
X239679601Y15625707D01*
X239840809Y15834206D01*
X239921627Y16078806D01*
X239925258Y16337863D01*
X239854907Y16589734D01*
X239713779Y16812774D01*
X239505078Y16985341D01*
X239475910Y17001489D01*
X239205068Y17100833D01*
X238940825Y17103006D01*
X238673721Y17013121D01*
G36*
X204088774Y6467020D02*
G01*
X203910864Y6430103D01*
X203743274Y6385399D01*
X203620210Y6349244D01*
X203569517Y6330050D01*
X203565596Y6275441D01*
X203568849Y6142370D01*
X203578487Y5953661D01*
X203586985Y5823553D01*
X203621397Y5334000D01*
X203791699Y5334000D01*
X203900147Y5340432D01*
X203948791Y5379082D01*
X203961569Y5478986D01*
X203962000Y5540540D01*
X203975368Y5700229D01*
X204008371Y5831221D01*
X204016889Y5849641D01*
X204130909Y5963808D01*
X204322769Y6046725D01*
X204571509Y6090829D01*
X204699492Y6096000D01*
X204993060Y6065794D01*
X205205128Y5975263D01*
X205335518Y5824537D01*
X205384053Y5613747D01*
X205384400Y5591340D01*
X205370092Y5473872D01*
X205319646Y5376048D01*
X205221779Y5291985D01*
X205065210Y5215800D01*
X204838656Y5141610D01*
X204530836Y5063533D01*
X204254019Y5001923D01*
X204040257Y4946488D01*
X203844053Y4879235D01*
X203704712Y4813820D01*
X203695219Y4807773D01*
X203505463Y4624299D01*
X203377045Y4380586D01*
X203311825Y4098767D01*
X203311664Y3800973D01*
X203378422Y3509337D01*
X203513959Y3245992D01*
X203558976Y3186967D01*
X203764038Y3001558D01*
X204042187Y2838939D01*
X204365617Y2709926D01*
X204706523Y2625337D01*
X205037100Y2595988D01*
X205076230Y2596739D01*
X205239372Y2609402D01*
X205436592Y2634279D01*
X205511400Y2646164D01*
X205720227Y2688072D01*
X205934706Y2740184D01*
X205994000Y2756759D01*
X206084115Y2781515D01*
X206147502Y2805020D01*
X206188358Y2843494D01*
X206210880Y2913159D01*
X206219265Y3030236D01*
X206217710Y3210944D01*
X206210411Y3471505D01*
X206207360Y3581400D01*
X206197200Y3962400D01*
X206025691Y3962400D01*
X205927468Y3958177D01*
X205873996Y3928927D01*
X205847969Y3849781D01*
X205832080Y3695870D01*
X205830979Y3682610D01*
X205781504Y3437540D01*
X205670861Y3260613D01*
X205484889Y3135095D01*
X205314663Y3072483D01*
X205000839Y3011970D01*
X204719347Y3020248D01*
X204482701Y3091766D01*
X204303417Y3220976D01*
X204194008Y3402327D01*
X204165200Y3582217D01*
X204179171Y3721172D01*
X204229370Y3833578D01*
X204328235Y3927588D01*
X204488199Y4011354D01*
X204721698Y4093027D01*
X205041166Y4180759D01*
X205101504Y4196007D01*
X205341726Y4262407D01*
X205561021Y4334115D01*
X205730542Y4401105D01*
X205805143Y4440494D01*
X206029606Y4648747D01*
X206170395Y4910055D01*
X206224324Y5215468D01*
X206193658Y5531592D01*
X206078891Y5848657D01*
X205882499Y6106020D01*
X205602645Y6305970D01*
X205553836Y6330918D01*
X205395084Y6401520D01*
X205245474Y6447148D01*
X205071730Y6474541D01*
X204840574Y6490434D01*
X204746970Y6494269D01*
X204384749Y6495375D01*
X204088774Y6467020D01*
X204088774Y6467020D01*
G37*
X204088774Y6467020D02*
X203910864Y6430103D01*
X203743274Y6385399D01*
X203620210Y6349244D01*
X203569517Y6330050D01*
X203565596Y6275441D01*
X203568849Y6142370D01*
X203578487Y5953661D01*
X203586985Y5823553D01*
X203621397Y5334000D01*
X203791699Y5334000D01*
X203900147Y5340432D01*
X203948791Y5379082D01*
X203961569Y5478986D01*
X203962000Y5540540D01*
X203975368Y5700229D01*
X204008371Y5831221D01*
X204016889Y5849641D01*
X204130909Y5963808D01*
X204322769Y6046725D01*
X204571509Y6090829D01*
X204699492Y6096000D01*
X204993060Y6065794D01*
X205205128Y5975263D01*
X205335518Y5824537D01*
X205384053Y5613747D01*
X205384400Y5591340D01*
X205370092Y5473872D01*
X205319646Y5376048D01*
X205221779Y5291985D01*
X205065210Y5215800D01*
X204838656Y5141610D01*
X204530836Y5063533D01*
X204254019Y5001923D01*
X204040257Y4946488D01*
X203844053Y4879235D01*
X203704712Y4813820D01*
X203695219Y4807773D01*
X203505463Y4624299D01*
X203377045Y4380586D01*
X203311825Y4098767D01*
X203311664Y3800973D01*
X203378422Y3509337D01*
X203513959Y3245992D01*
X203558976Y3186967D01*
X203764038Y3001558D01*
X204042187Y2838939D01*
X204365617Y2709926D01*
X204706523Y2625337D01*
X205037100Y2595988D01*
X205076230Y2596739D01*
X205239372Y2609402D01*
X205436592Y2634279D01*
X205511400Y2646164D01*
X205720227Y2688072D01*
X205934706Y2740184D01*
X205994000Y2756759D01*
X206084115Y2781515D01*
X206147502Y2805020D01*
X206188358Y2843494D01*
X206210880Y2913159D01*
X206219265Y3030236D01*
X206217710Y3210944D01*
X206210411Y3471505D01*
X206207360Y3581400D01*
X206197200Y3962400D01*
X206025691Y3962400D01*
X205927468Y3958177D01*
X205873996Y3928927D01*
X205847969Y3849781D01*
X205832080Y3695870D01*
X205830979Y3682610D01*
X205781504Y3437540D01*
X205670861Y3260613D01*
X205484889Y3135095D01*
X205314663Y3072483D01*
X205000839Y3011970D01*
X204719347Y3020248D01*
X204482701Y3091766D01*
X204303417Y3220976D01*
X204194008Y3402327D01*
X204165200Y3582217D01*
X204179171Y3721172D01*
X204229370Y3833578D01*
X204328235Y3927588D01*
X204488199Y4011354D01*
X204721698Y4093027D01*
X205041166Y4180759D01*
X205101504Y4196007D01*
X205341726Y4262407D01*
X205561021Y4334115D01*
X205730542Y4401105D01*
X205805143Y4440494D01*
X206029606Y4648747D01*
X206170395Y4910055D01*
X206224324Y5215468D01*
X206193658Y5531592D01*
X206078891Y5848657D01*
X205882499Y6106020D01*
X205602645Y6305970D01*
X205553836Y6330918D01*
X205395084Y6401520D01*
X205245474Y6447148D01*
X205071730Y6474541D01*
X204840574Y6490434D01*
X204746970Y6494269D01*
X204384749Y6495375D01*
X204088774Y6467020D01*
G36*
X212517029Y6480278D02*
G01*
X212167110Y6390950D01*
X211865680Y6222811D01*
X211771918Y6146854D01*
X211580321Y5940377D01*
X211453521Y5705495D01*
X211382732Y5419795D01*
X211359555Y5094793D01*
X211353400Y4701321D01*
X211607400Y4641537D01*
X211742971Y4621408D01*
X211957279Y4603576D01*
X212227467Y4589323D01*
X212530676Y4579930D01*
X212760102Y4576877D01*
X213051944Y4572919D01*
X213307334Y4564943D01*
X213509440Y4553842D01*
X213641432Y4540508D01*
X213686136Y4527778D01*
X213692699Y4443186D01*
X213664614Y4295636D01*
X213610907Y4113902D01*
X213540605Y3926758D01*
X213462737Y3762978D01*
X213428085Y3705249D01*
X213298138Y3552813D01*
X213129660Y3409001D01*
X213059188Y3362536D01*
X212924179Y3291268D01*
X212797741Y3250486D01*
X212643466Y3232656D01*
X212424950Y3230245D01*
X212420200Y3230297D01*
X212134763Y3246109D01*
X211912470Y3290398D01*
X211775983Y3341299D01*
X211599609Y3403891D01*
X211497331Y3398033D01*
X211466097Y3321381D01*
X211502851Y3171590D01*
X211514764Y3140860D01*
X211575992Y3026738D01*
X211668977Y2933674D01*
X211813145Y2848636D01*
X212027921Y2758593D01*
X212152433Y2713094D01*
X212353991Y2663765D01*
X212617354Y2629433D01*
X212903521Y2612386D01*
X213173495Y2614916D01*
X213388276Y2639312D01*
X213392764Y2640256D01*
X213767282Y2769456D01*
X214104702Y2981528D01*
X214385964Y3261253D01*
X214592010Y3593410D01*
X214595277Y3600582D01*
X214650700Y3753224D01*
X214688210Y3937702D01*
X214712014Y4180060D01*
X214722389Y4387798D01*
X214720152Y4835847D01*
X214700242Y4984532D01*
X213729433Y4984532D01*
X213481217Y4962332D01*
X213281841Y4953036D01*
X213050352Y4954084D01*
X212933449Y4959266D01*
X212747811Y4969843D01*
X212587381Y4976792D01*
X212514349Y4978400D01*
X212444615Y4987144D01*
X212409194Y5030224D01*
X212396861Y5132914D01*
X212395916Y5245100D01*
X212422743Y5488470D01*
X212493213Y5715323D01*
X212595346Y5896656D01*
X212707093Y5998410D01*
X212891673Y6054463D01*
X213107203Y6060068D01*
X213304345Y6016495D01*
X213373855Y5981222D01*
X213530166Y5830136D01*
X213635574Y5609610D01*
X213695546Y5307935D01*
X213697763Y5287540D01*
X213729433Y4984532D01*
X214700242Y4984532D01*
X214670691Y5205207D01*
X214565729Y5511025D01*
X214396989Y5768450D01*
X214156194Y5992632D01*
X213835066Y6198719D01*
X213691297Y6274909D01*
X213464682Y6382453D01*
X213280691Y6447125D01*
X213096610Y6481190D01*
X212927154Y6494319D01*
X212517029Y6480278D01*
X212517029Y6480278D01*
G37*
X212517029Y6480278D02*
X212167110Y6390950D01*
X211865680Y6222811D01*
X211771918Y6146854D01*
X211580321Y5940377D01*
X211453521Y5705495D01*
X211382732Y5419795D01*
X211359555Y5094793D01*
X211353400Y4701321D01*
X211607400Y4641537D01*
X211742971Y4621408D01*
X211957279Y4603576D01*
X212227467Y4589323D01*
X212530676Y4579930D01*
X212760102Y4576877D01*
X213051944Y4572919D01*
X213307334Y4564943D01*
X213509440Y4553842D01*
X213641432Y4540508D01*
X213686136Y4527778D01*
X213692699Y4443186D01*
X213664614Y4295636D01*
X213610907Y4113902D01*
X213540605Y3926758D01*
X213462737Y3762978D01*
X213428085Y3705249D01*
X213298138Y3552813D01*
X213129660Y3409001D01*
X213059188Y3362536D01*
X212924179Y3291268D01*
X212797741Y3250486D01*
X212643466Y3232656D01*
X212424950Y3230245D01*
X212420200Y3230297D01*
X212134763Y3246109D01*
X211912470Y3290398D01*
X211775983Y3341299D01*
X211599609Y3403891D01*
X211497331Y3398033D01*
X211466097Y3321381D01*
X211502851Y3171590D01*
X211514764Y3140860D01*
X211575992Y3026738D01*
X211668977Y2933674D01*
X211813145Y2848636D01*
X212027921Y2758593D01*
X212152433Y2713094D01*
X212353991Y2663765D01*
X212617354Y2629433D01*
X212903521Y2612386D01*
X213173495Y2614916D01*
X213388276Y2639312D01*
X213392764Y2640256D01*
X213767282Y2769456D01*
X214104702Y2981528D01*
X214385964Y3261253D01*
X214592010Y3593410D01*
X214595277Y3600582D01*
X214650700Y3753224D01*
X214688210Y3937702D01*
X214712014Y4180060D01*
X214722389Y4387798D01*
X214720152Y4835847D01*
X214700242Y4984532D01*
X213729433Y4984532D01*
X213481217Y4962332D01*
X213281841Y4953036D01*
X213050352Y4954084D01*
X212933449Y4959266D01*
X212747811Y4969843D01*
X212587381Y4976792D01*
X212514349Y4978400D01*
X212444615Y4987144D01*
X212409194Y5030224D01*
X212396861Y5132914D01*
X212395916Y5245100D01*
X212422743Y5488470D01*
X212493213Y5715323D01*
X212595346Y5896656D01*
X212707093Y5998410D01*
X212891673Y6054463D01*
X213107203Y6060068D01*
X213304345Y6016495D01*
X213373855Y5981222D01*
X213530166Y5830136D01*
X213635574Y5609610D01*
X213695546Y5307935D01*
X213697763Y5287540D01*
X213729433Y4984532D01*
X214700242Y4984532D01*
X214670691Y5205207D01*
X214565729Y5511025D01*
X214396989Y5768450D01*
X214156194Y5992632D01*
X213835066Y6198719D01*
X213691297Y6274909D01*
X213464682Y6382453D01*
X213280691Y6447125D01*
X213096610Y6481190D01*
X212927154Y6494319D01*
X212517029Y6480278D01*
G36*
X208889657Y6261100D02*
G01*
X208901847Y6145389D01*
X208951965Y6100456D01*
X209003900Y6095307D01*
X209202288Y6073950D01*
X209314058Y6010131D01*
X209346800Y5908128D01*
X209329352Y5829974D01*
X209281448Y5675753D01*
X209209756Y5463529D01*
X209120939Y5211368D01*
X209021664Y4937337D01*
X208918596Y4659502D01*
X208818400Y4395928D01*
X208727741Y4164682D01*
X208653285Y3983830D01*
X208601697Y3871438D01*
X208585940Y3845842D01*
X208556189Y3876758D01*
X208496103Y3986425D01*
X208412579Y4159062D01*
X208312514Y4378888D01*
X208202805Y4630122D01*
X208090350Y4896983D01*
X207982046Y5163690D01*
X207884789Y5414462D01*
X207808627Y5624380D01*
X207750279Y5797779D01*
X207724640Y5901351D01*
X207730782Y5961139D01*
X207767779Y6003187D01*
X207794410Y6023380D01*
X207914499Y6074701D01*
X208064328Y6096000D01*
X208179608Y6103925D01*
X208221918Y6146929D01*
X208219719Y6253613D01*
X208203800Y6411226D01*
X206705160Y6426200D01*
X206705180Y6261100D01*
X206720317Y6141433D01*
X206773802Y6097685D01*
X206795497Y6096000D01*
X206951342Y6046826D01*
X207097559Y5905796D01*
X207215914Y5700539D01*
X207260302Y5600502D01*
X207340201Y5419243D01*
X207450404Y5168622D01*
X207585702Y4860500D01*
X207740888Y4506738D01*
X207910754Y4119198D01*
X208090092Y3709739D01*
X208112918Y3657600D01*
X208351672Y3113313D01*
X208554371Y2654087D01*
X208725001Y2271607D01*
X208867550Y1957559D01*
X208986006Y1703628D01*
X209084357Y1501499D01*
X209166590Y1342858D01*
X209236693Y1219390D01*
X209298653Y1122780D01*
X209356458Y1044713D01*
X209379527Y1016558D01*
X209607369Y820093D01*
X209893938Y686248D01*
X210213115Y621753D01*
X210538779Y633341D01*
X210709117Y673915D01*
X210820952Y720209D01*
X210856175Y779224D01*
X210844197Y859229D01*
X210815597Y990532D01*
X210783290Y1165068D01*
X210772002Y1232946D01*
X210736256Y1412322D01*
X210695290Y1502969D01*
X210639117Y1517648D01*
X210576264Y1483082D01*
X210320495Y1341615D01*
X210075554Y1290878D01*
X209852588Y1331031D01*
X209662742Y1462236D01*
X209655608Y1469796D01*
X209572702Y1581214D01*
X209467289Y1753574D01*
X209358405Y1955099D01*
X209326933Y2018503D01*
X209129266Y2426079D01*
X209823971Y4180062D01*
X209983564Y4579896D01*
X210133977Y4950823D01*
X210270624Y5281970D01*
X210388917Y5562467D01*
X210484267Y5781441D01*
X210552087Y5928021D01*
X210587790Y5991333D01*
X210588606Y5992081D01*
X210684431Y6039248D01*
X210825006Y6076961D01*
X210840868Y6079706D01*
X210962813Y6109440D01*
X211013514Y6165007D01*
X211023213Y6267747D01*
X211023225Y6426200D01*
X208889714Y6426200D01*
X208889657Y6261100D01*
X208889657Y6261100D01*
G37*
X208889657Y6261100D02*
X208901847Y6145389D01*
X208951965Y6100456D01*
X209003900Y6095307D01*
X209202288Y6073950D01*
X209314058Y6010131D01*
X209346800Y5908128D01*
X209329352Y5829974D01*
X209281448Y5675753D01*
X209209756Y5463529D01*
X209120939Y5211368D01*
X209021664Y4937337D01*
X208918596Y4659502D01*
X208818400Y4395928D01*
X208727741Y4164682D01*
X208653285Y3983830D01*
X208601697Y3871438D01*
X208585940Y3845842D01*
X208556189Y3876758D01*
X208496103Y3986425D01*
X208412579Y4159062D01*
X208312514Y4378888D01*
X208202805Y4630122D01*
X208090350Y4896983D01*
X207982046Y5163690D01*
X207884789Y5414462D01*
X207808627Y5624380D01*
X207750279Y5797779D01*
X207724640Y5901351D01*
X207730782Y5961139D01*
X207767779Y6003187D01*
X207794410Y6023380D01*
X207914499Y6074701D01*
X208064328Y6096000D01*
X208179608Y6103925D01*
X208221918Y6146929D01*
X208219719Y6253613D01*
X208203800Y6411226D01*
X206705160Y6426200D01*
X206705180Y6261100D01*
X206720317Y6141433D01*
X206773802Y6097685D01*
X206795497Y6096000D01*
X206951342Y6046826D01*
X207097559Y5905796D01*
X207215914Y5700539D01*
X207260302Y5600502D01*
X207340201Y5419243D01*
X207450404Y5168622D01*
X207585702Y4860500D01*
X207740888Y4506738D01*
X207910754Y4119198D01*
X208090092Y3709739D01*
X208112918Y3657600D01*
X208351672Y3113313D01*
X208554371Y2654087D01*
X208725001Y2271607D01*
X208867550Y1957559D01*
X208986006Y1703628D01*
X209084357Y1501499D01*
X209166590Y1342858D01*
X209236693Y1219390D01*
X209298653Y1122780D01*
X209356458Y1044713D01*
X209379527Y1016558D01*
X209607369Y820093D01*
X209893938Y686248D01*
X210213115Y621753D01*
X210538779Y633341D01*
X210709117Y673915D01*
X210820952Y720209D01*
X210856175Y779224D01*
X210844197Y859229D01*
X210815597Y990532D01*
X210783290Y1165068D01*
X210772002Y1232946D01*
X210736256Y1412322D01*
X210695290Y1502969D01*
X210639117Y1517648D01*
X210576264Y1483082D01*
X210320495Y1341615D01*
X210075554Y1290878D01*
X209852588Y1331031D01*
X209662742Y1462236D01*
X209655608Y1469796D01*
X209572702Y1581214D01*
X209467289Y1753574D01*
X209358405Y1955099D01*
X209326933Y2018503D01*
X209129266Y2426079D01*
X209823971Y4180062D01*
X209983564Y4579896D01*
X210133977Y4950823D01*
X210270624Y5281970D01*
X210388917Y5562467D01*
X210484267Y5781441D01*
X210552087Y5928021D01*
X210587790Y5991333D01*
X210588606Y5992081D01*
X210684431Y6039248D01*
X210825006Y6076961D01*
X210840868Y6079706D01*
X210962813Y6109440D01*
X211013514Y6165007D01*
X211023213Y6267747D01*
X211023225Y6426200D01*
X208889714Y6426200D01*
X208889657Y6261100D01*
G36*
X228126499Y6477397D02*
G01*
X227773473Y6371308D01*
X227465752Y6186751D01*
X227420320Y6148616D01*
X227235742Y5951839D01*
X227108460Y5727061D01*
X227028915Y5451128D01*
X226987547Y5100887D01*
X226987517Y5100431D01*
X226961044Y4689062D01*
X227158222Y4648309D01*
X227270569Y4633953D01*
X227464734Y4618485D01*
X227720959Y4603087D01*
X228019490Y4588946D01*
X228340569Y4577246D01*
X228346000Y4577078D01*
X229336600Y4546600D01*
X229320138Y4368800D01*
X229268117Y4140780D01*
X229163547Y3889940D01*
X229027468Y3659185D01*
X228896611Y3505197D01*
X228635869Y3332994D01*
X228324167Y3234999D01*
X227982285Y3213474D01*
X227631004Y3270685D01*
X227422383Y3344605D01*
X227274552Y3402645D01*
X227188116Y3415843D01*
X227134961Y3387432D01*
X227127092Y3378551D01*
X227110312Y3288282D01*
X227147164Y3157323D01*
X227223029Y3020248D01*
X227323288Y2911631D01*
X227325107Y2910240D01*
X227468195Y2832817D01*
X227681678Y2754653D01*
X227934798Y2684543D01*
X228196798Y2631283D01*
X228384100Y2607387D01*
X228752400Y2575892D01*
X228752117Y1351446D01*
X228750107Y903662D01*
X228743335Y546102D01*
X228730345Y267444D01*
X228709680Y56367D01*
X228679882Y-98452D01*
X228639496Y-208334D01*
X228587063Y-284602D01*
X228535923Y-328702D01*
X228516860Y-336705D01*
X228480993Y-344147D01*
X228424798Y-351048D01*
X228344752Y-357428D01*
X228237330Y-363307D01*
X228099010Y-368705D01*
X227926265Y-373642D01*
X227715574Y-378137D01*
X227463412Y-382211D01*
X227166254Y-385884D01*
X226820578Y-389176D01*
X226422859Y-392106D01*
X225969573Y-394695D01*
X225457196Y-396962D01*
X224882205Y-398928D01*
X224241075Y-400613D01*
X223530283Y-402036D01*
X222746304Y-403217D01*
X221885615Y-404177D01*
X220944692Y-404935D01*
X219920011Y-405511D01*
X218808047Y-405926D01*
X217605278Y-406199D01*
X216308179Y-406350D01*
X214913225Y-406399D01*
X214821897Y-406400D01*
X201218800Y-406400D01*
X201218800Y-914400D01*
X214795100Y-913188D01*
X216091471Y-912900D01*
X217342997Y-912279D01*
X218546369Y-911337D01*
X219698275Y-910085D01*
X220795403Y-908535D01*
X221834445Y-906697D01*
X222812087Y-904584D01*
X223725020Y-902206D01*
X224569932Y-899575D01*
X225343513Y-896703D01*
X226042451Y-893600D01*
X226663435Y-890279D01*
X227203155Y-886750D01*
X227658300Y-883025D01*
X228025558Y-879116D01*
X228301619Y-875034D01*
X228483171Y-870789D01*
X228566905Y-866395D01*
X228570669Y-865760D01*
X228835346Y-762823D01*
X229033519Y-587083D01*
X229133400Y-428521D01*
X229163315Y-362904D01*
X229187011Y-288800D01*
X229205388Y-193620D01*
X229219344Y-64773D01*
X229229777Y110331D01*
X229237585Y344281D01*
X229243667Y649667D01*
X229248921Y1039079D01*
X229250970Y1219200D01*
X229256771Y1600490D01*
X229265102Y1945935D01*
X229275416Y2242711D01*
X229287170Y2477993D01*
X229299820Y2638955D01*
X229312820Y2712772D01*
X229314470Y2715261D01*
X229328435Y2680712D01*
X229340153Y2550480D01*
X229349437Y2330459D01*
X229356102Y2026547D01*
X229359961Y1644637D01*
X229360885Y1242061D01*
X229360059Y802300D01*
X229357849Y451946D01*
X229353585Y178806D01*
X229346596Y-29312D01*
X229336211Y-184599D01*
X229321760Y-299248D01*
X229302571Y-385448D01*
X229277973Y-455394D01*
X229265986Y-482600D01*
X229100782Y-740290D01*
X228883713Y-916943D01*
X228786361Y-962132D01*
X228732403Y-968292D01*
X228603094Y-974048D01*
X228396894Y-979407D01*
X228112266Y-984375D01*
X227747672Y-988957D01*
X227301573Y-993160D01*
X226772430Y-996990D01*
X226158707Y-1000452D01*
X225458863Y-1003553D01*
X224671361Y-1006298D01*
X223794663Y-1008694D01*
X222827230Y-1010747D01*
X221767524Y-1012462D01*
X220614007Y-1013846D01*
X219365140Y-1014905D01*
X218019385Y-1015644D01*
X216575204Y-1016069D01*
X215031058Y-1016188D01*
X214930661Y-1016185D01*
X213535290Y-1016144D01*
X212237949Y-1016134D01*
X211035067Y-1016181D01*
X209923074Y-1016310D01*
X208898400Y-1016550D01*
X207957473Y-1016926D01*
X207096724Y-1017465D01*
X206312582Y-1018193D01*
X205601477Y-1019137D01*
X204959839Y-1020322D01*
X204384096Y-1021777D01*
X203870679Y-1023526D01*
X203416018Y-1025598D01*
X203016541Y-1028017D01*
X202668679Y-1030810D01*
X202368861Y-1034005D01*
X202113516Y-1037627D01*
X201899075Y-1041703D01*
X201721967Y-1046260D01*
X201578621Y-1051323D01*
X201465467Y-1056919D01*
X201378935Y-1063076D01*
X201315454Y-1069818D01*
X201271455Y-1077174D01*
X201243365Y-1085168D01*
X201227616Y-1093828D01*
X201220637Y-1103180D01*
X201218857Y-1113251D01*
X201218800Y-1117835D01*
X201219421Y-1128209D01*
X201223660Y-1137852D01*
X201235082Y-1146786D01*
X201257252Y-1155036D01*
X201293735Y-1162623D01*
X201348096Y-1169572D01*
X201423900Y-1175905D01*
X201524711Y-1181645D01*
X201654095Y-1186816D01*
X201815616Y-1191440D01*
X202012840Y-1195541D01*
X202249331Y-1199141D01*
X202528654Y-1202264D01*
X202854374Y-1204933D01*
X203230056Y-1207170D01*
X203659265Y-1209000D01*
X204145566Y-1210444D01*
X204692524Y-1211527D01*
X205303703Y-1212270D01*
X205982669Y-1212698D01*
X206732986Y-1212833D01*
X207558220Y-1212699D01*
X208461935Y-1212318D01*
X209447696Y-1211713D01*
X210519068Y-1210908D01*
X211679616Y-1209926D01*
X212932905Y-1208789D01*
X214282500Y-1207521D01*
X214972900Y-1206866D01*
X228727000Y-1193800D01*
X228939958Y-1079968D01*
X229191845Y-891675D01*
X229395778Y-630740D01*
X229472020Y-482374D01*
X229493305Y-399354D01*
X229511599Y-250991D01*
X229527266Y-30373D01*
X229540672Y269414D01*
X229552182Y655283D01*
X229562163Y1134147D01*
X229564406Y1265829D01*
X229572930Y1731662D01*
X229581921Y2104602D01*
X229591876Y2393358D01*
X229603292Y2606635D01*
X229616664Y2753142D01*
X229632491Y2841586D01*
X229651267Y2880674D01*
X229656666Y2883817D01*
X229674936Y2873010D01*
X229689249Y2821211D01*
X229699873Y2719638D01*
X229707072Y2559506D01*
X229711115Y2332032D01*
X229712269Y2028433D01*
X229710800Y1639925D01*
X229707466Y1211589D01*
X229703149Y751708D01*
X229698816Y381750D01*
X229693644Y90045D01*
X229686811Y-135082D01*
X229677492Y-305302D01*
X229664866Y-432289D01*
X229648109Y-527714D01*
X229626398Y-603251D01*
X229598909Y-670572D01*
X229570580Y-729661D01*
X229393894Y-976787D01*
X229140068Y-1169886D01*
X228823726Y-1298546D01*
X228744902Y-1317662D01*
X228674147Y-1323879D01*
X228520973Y-1329692D01*
X228284212Y-1335106D01*
X227962696Y-1340126D01*
X227555258Y-1344757D01*
X227060731Y-1349002D01*
X226477946Y-1352866D01*
X225805736Y-1356354D01*
X225042933Y-1359471D01*
X224188370Y-1362221D01*
X223240879Y-1364608D01*
X222199292Y-1366637D01*
X221062442Y-1368312D01*
X219829161Y-1369638D01*
X218498281Y-1370621D01*
X217068635Y-1371263D01*
X215539056Y-1371570D01*
X214856100Y-1371600D01*
X213452696Y-1371644D01*
X212147418Y-1371792D01*
X210936792Y-1372062D01*
X209817345Y-1372474D01*
X208785601Y-1373047D01*
X207838088Y-1373800D01*
X206971332Y-1374754D01*
X206181858Y-1375926D01*
X205466193Y-1377337D01*
X204820863Y-1379007D01*
X204242393Y-1380954D01*
X203727311Y-1383198D01*
X203272141Y-1385758D01*
X202873411Y-1388654D01*
X202527646Y-1391906D01*
X202231372Y-1395532D01*
X201981116Y-1399552D01*
X201773403Y-1403985D01*
X201604759Y-1408851D01*
X201471711Y-1414170D01*
X201370785Y-1419960D01*
X201298507Y-1426241D01*
X201251403Y-1433033D01*
X201225999Y-1440355D01*
X201218800Y-1447800D01*
X201226838Y-1455608D01*
X201253256Y-1462870D01*
X201301513Y-1469606D01*
X201375070Y-1475833D01*
X201477386Y-1481570D01*
X201611920Y-1486836D01*
X201782130Y-1491650D01*
X201991477Y-1496031D01*
X202243420Y-1499997D01*
X202541418Y-1503567D01*
X202888930Y-1506759D01*
X203289416Y-1509594D01*
X203746335Y-1512088D01*
X204263146Y-1514262D01*
X204843309Y-1516133D01*
X205490282Y-1517721D01*
X206207526Y-1519045D01*
X206998499Y-1520122D01*
X207866661Y-1520972D01*
X208815471Y-1521614D01*
X209848388Y-1522066D01*
X210968873Y-1522346D01*
X212180383Y-1522475D01*
X213486378Y-1522470D01*
X214890318Y-1522351D01*
X214972900Y-1522341D01*
X216372337Y-1522154D01*
X217673804Y-1521924D01*
X218880930Y-1521628D01*
X219997345Y-1521242D01*
X221026679Y-1520739D01*
X221972563Y-1520097D01*
X222838625Y-1519289D01*
X223628495Y-1518293D01*
X224345804Y-1517082D01*
X224994181Y-1515634D01*
X225577255Y-1513922D01*
X226098657Y-1511922D01*
X226562017Y-1509610D01*
X226970963Y-1506962D01*
X227329126Y-1503952D01*
X227640137Y-1500556D01*
X227907623Y-1496750D01*
X228135216Y-1492509D01*
X228326545Y-1487808D01*
X228485239Y-1482623D01*
X228614929Y-1476929D01*
X228719245Y-1470702D01*
X228801815Y-1463916D01*
X228866271Y-1456549D01*
X228916241Y-1448574D01*
X228955356Y-1439967D01*
X228987245Y-1430705D01*
X228997124Y-1427388D01*
X229306189Y-1268764D01*
X229569089Y-1029244D01*
X229734752Y-787400D01*
X229763689Y-730290D01*
X229787173Y-669645D01*
X229805880Y-594518D01*
X229820486Y-493965D01*
X229831667Y-357039D01*
X229840101Y-172795D01*
X229846463Y69713D01*
X229851430Y381429D01*
X229855678Y773300D01*
X229859705Y1234610D01*
X229874809Y3053420D01*
X230043096Y3273888D01*
X230211099Y3559117D01*
X230318609Y3900430D01*
X230368146Y4308725D01*
X230368168Y4680522D01*
X230332223Y5078935D01*
X230324262Y5111639D01*
X229363979Y5111639D01*
X229337337Y5026932D01*
X229265039Y4983977D01*
X229140304Y4963891D01*
X229120700Y4962049D01*
X228926019Y4952929D01*
X228697715Y4954027D01*
X228579849Y4959266D01*
X228394211Y4969843D01*
X228233781Y4976792D01*
X228160749Y4978400D01*
X228091155Y4987149D01*
X228055531Y5030188D01*
X228042667Y5132703D01*
X228041200Y5247037D01*
X228076579Y5543852D01*
X228175977Y5784452D01*
X228329290Y5959006D01*
X228526411Y6057681D01*
X228757235Y6070645D01*
X228863975Y6047526D01*
X229063888Y5945736D01*
X229206920Y5770769D01*
X229300352Y5513339D01*
X229307433Y5481839D01*
X229351750Y5256981D01*
X229363979Y5111639D01*
X230324262Y5111639D01*
X230253186Y5403591D01*
X230119511Y5671668D01*
X229919652Y5900344D01*
X229642063Y6106799D01*
X229275198Y6308210D01*
X229273656Y6308969D01*
X228894965Y6447818D01*
X228506454Y6503431D01*
X228126499Y6477397D01*
X228126499Y6477397D01*
G37*
X228126499Y6477397D02*
X227773473Y6371308D01*
X227465752Y6186751D01*
X227420320Y6148616D01*
X227235742Y5951839D01*
X227108460Y5727061D01*
X227028915Y5451128D01*
X226987547Y5100887D01*
X226987517Y5100431D01*
X226961044Y4689062D01*
X227158222Y4648309D01*
X227270569Y4633953D01*
X227464734Y4618485D01*
X227720959Y4603087D01*
X228019490Y4588946D01*
X228340569Y4577246D01*
X228346000Y4577078D01*
X229336600Y4546600D01*
X229320138Y4368800D01*
X229268117Y4140780D01*
X229163547Y3889940D01*
X229027468Y3659185D01*
X228896611Y3505197D01*
X228635869Y3332994D01*
X228324167Y3234999D01*
X227982285Y3213474D01*
X227631004Y3270685D01*
X227422383Y3344605D01*
X227274552Y3402645D01*
X227188116Y3415843D01*
X227134961Y3387432D01*
X227127092Y3378551D01*
X227110312Y3288282D01*
X227147164Y3157323D01*
X227223029Y3020248D01*
X227323288Y2911631D01*
X227325107Y2910240D01*
X227468195Y2832817D01*
X227681678Y2754653D01*
X227934798Y2684543D01*
X228196798Y2631283D01*
X228384100Y2607387D01*
X228752400Y2575892D01*
X228752117Y1351446D01*
X228750107Y903662D01*
X228743335Y546102D01*
X228730345Y267444D01*
X228709680Y56367D01*
X228679882Y-98452D01*
X228639496Y-208334D01*
X228587063Y-284602D01*
X228535923Y-328702D01*
X228516860Y-336705D01*
X228480993Y-344147D01*
X228424798Y-351048D01*
X228344752Y-357428D01*
X228237330Y-363307D01*
X228099010Y-368705D01*
X227926265Y-373642D01*
X227715574Y-378137D01*
X227463412Y-382211D01*
X227166254Y-385884D01*
X226820578Y-389176D01*
X226422859Y-392106D01*
X225969573Y-394695D01*
X225457196Y-396962D01*
X224882205Y-398928D01*
X224241075Y-400613D01*
X223530283Y-402036D01*
X222746304Y-403217D01*
X221885615Y-404177D01*
X220944692Y-404935D01*
X219920011Y-405511D01*
X218808047Y-405926D01*
X217605278Y-406199D01*
X216308179Y-406350D01*
X214913225Y-406399D01*
X214821897Y-406400D01*
X201218800Y-406400D01*
X201218800Y-914400D01*
X214795100Y-913188D01*
X216091471Y-912900D01*
X217342997Y-912279D01*
X218546369Y-911337D01*
X219698275Y-910085D01*
X220795403Y-908535D01*
X221834445Y-906697D01*
X222812087Y-904584D01*
X223725020Y-902206D01*
X224569932Y-899575D01*
X225343513Y-896703D01*
X226042451Y-893600D01*
X226663435Y-890279D01*
X227203155Y-886750D01*
X227658300Y-883025D01*
X228025558Y-879116D01*
X228301619Y-875034D01*
X228483171Y-870789D01*
X228566905Y-866395D01*
X228570669Y-865760D01*
X228835346Y-762823D01*
X229033519Y-587083D01*
X229133400Y-428521D01*
X229163315Y-362904D01*
X229187011Y-288800D01*
X229205388Y-193620D01*
X229219344Y-64773D01*
X229229777Y110331D01*
X229237585Y344281D01*
X229243667Y649667D01*
X229248921Y1039079D01*
X229250970Y1219200D01*
X229256771Y1600490D01*
X229265102Y1945935D01*
X229275416Y2242711D01*
X229287170Y2477993D01*
X229299820Y2638955D01*
X229312820Y2712772D01*
X229314470Y2715261D01*
X229328435Y2680712D01*
X229340153Y2550480D01*
X229349437Y2330459D01*
X229356102Y2026547D01*
X229359961Y1644637D01*
X229360885Y1242061D01*
X229360059Y802300D01*
X229357849Y451946D01*
X229353585Y178806D01*
X229346596Y-29312D01*
X229336211Y-184599D01*
X229321760Y-299248D01*
X229302571Y-385448D01*
X229277973Y-455394D01*
X229265986Y-482600D01*
X229100782Y-740290D01*
X228883713Y-916943D01*
X228786361Y-962132D01*
X228732403Y-968292D01*
X228603094Y-974048D01*
X228396894Y-979407D01*
X228112266Y-984375D01*
X227747672Y-988957D01*
X227301573Y-993160D01*
X226772430Y-996990D01*
X226158707Y-1000452D01*
X225458863Y-1003553D01*
X224671361Y-1006298D01*
X223794663Y-1008694D01*
X222827230Y-1010747D01*
X221767524Y-1012462D01*
X220614007Y-1013846D01*
X219365140Y-1014905D01*
X218019385Y-1015644D01*
X216575204Y-1016069D01*
X215031058Y-1016188D01*
X214930661Y-1016185D01*
X213535290Y-1016144D01*
X212237949Y-1016134D01*
X211035067Y-1016181D01*
X209923074Y-1016310D01*
X208898400Y-1016550D01*
X207957473Y-1016926D01*
X207096724Y-1017465D01*
X206312582Y-1018193D01*
X205601477Y-1019137D01*
X204959839Y-1020322D01*
X204384096Y-1021777D01*
X203870679Y-1023526D01*
X203416018Y-1025598D01*
X203016541Y-1028017D01*
X202668679Y-1030810D01*
X202368861Y-1034005D01*
X202113516Y-1037627D01*
X201899075Y-1041703D01*
X201721967Y-1046260D01*
X201578621Y-1051323D01*
X201465467Y-1056919D01*
X201378935Y-1063076D01*
X201315454Y-1069818D01*
X201271455Y-1077174D01*
X201243365Y-1085168D01*
X201227616Y-1093828D01*
X201220637Y-1103180D01*
X201218857Y-1113251D01*
X201218800Y-1117835D01*
X201219421Y-1128209D01*
X201223660Y-1137852D01*
X201235082Y-1146786D01*
X201257252Y-1155036D01*
X201293735Y-1162623D01*
X201348096Y-1169572D01*
X201423900Y-1175905D01*
X201524711Y-1181645D01*
X201654095Y-1186816D01*
X201815616Y-1191440D01*
X202012840Y-1195541D01*
X202249331Y-1199141D01*
X202528654Y-1202264D01*
X202854374Y-1204933D01*
X203230056Y-1207170D01*
X203659265Y-1209000D01*
X204145566Y-1210444D01*
X204692524Y-1211527D01*
X205303703Y-1212270D01*
X205982669Y-1212698D01*
X206732986Y-1212833D01*
X207558220Y-1212699D01*
X208461935Y-1212318D01*
X209447696Y-1211713D01*
X210519068Y-1210908D01*
X211679616Y-1209926D01*
X212932905Y-1208789D01*
X214282500Y-1207521D01*
X214972900Y-1206866D01*
X228727000Y-1193800D01*
X228939958Y-1079968D01*
X229191845Y-891675D01*
X229395778Y-630740D01*
X229472020Y-482374D01*
X229493305Y-399354D01*
X229511599Y-250991D01*
X229527266Y-30373D01*
X229540672Y269414D01*
X229552182Y655283D01*
X229562163Y1134147D01*
X229564406Y1265829D01*
X229572930Y1731662D01*
X229581921Y2104602D01*
X229591876Y2393358D01*
X229603292Y2606635D01*
X229616664Y2753142D01*
X229632491Y2841586D01*
X229651267Y2880674D01*
X229656666Y2883817D01*
X229674936Y2873010D01*
X229689249Y2821211D01*
X229699873Y2719638D01*
X229707072Y2559506D01*
X229711115Y2332032D01*
X229712269Y2028433D01*
X229710800Y1639925D01*
X229707466Y1211589D01*
X229703149Y751708D01*
X229698816Y381750D01*
X229693644Y90045D01*
X229686811Y-135082D01*
X229677492Y-305302D01*
X229664866Y-432289D01*
X229648109Y-527714D01*
X229626398Y-603251D01*
X229598909Y-670572D01*
X229570580Y-729661D01*
X229393894Y-976787D01*
X229140068Y-1169886D01*
X228823726Y-1298546D01*
X228744902Y-1317662D01*
X228674147Y-1323879D01*
X228520973Y-1329692D01*
X228284212Y-1335106D01*
X227962696Y-1340126D01*
X227555258Y-1344757D01*
X227060731Y-1349002D01*
X226477946Y-1352866D01*
X225805736Y-1356354D01*
X225042933Y-1359471D01*
X224188370Y-1362221D01*
X223240879Y-1364608D01*
X222199292Y-1366637D01*
X221062442Y-1368312D01*
X219829161Y-1369638D01*
X218498281Y-1370621D01*
X217068635Y-1371263D01*
X215539056Y-1371570D01*
X214856100Y-1371600D01*
X213452696Y-1371644D01*
X212147418Y-1371792D01*
X210936792Y-1372062D01*
X209817345Y-1372474D01*
X208785601Y-1373047D01*
X207838088Y-1373800D01*
X206971332Y-1374754D01*
X206181858Y-1375926D01*
X205466193Y-1377337D01*
X204820863Y-1379007D01*
X204242393Y-1380954D01*
X203727311Y-1383198D01*
X203272141Y-1385758D01*
X202873411Y-1388654D01*
X202527646Y-1391906D01*
X202231372Y-1395532D01*
X201981116Y-1399552D01*
X201773403Y-1403985D01*
X201604759Y-1408851D01*
X201471711Y-1414170D01*
X201370785Y-1419960D01*
X201298507Y-1426241D01*
X201251403Y-1433033D01*
X201225999Y-1440355D01*
X201218800Y-1447800D01*
X201226838Y-1455608D01*
X201253256Y-1462870D01*
X201301513Y-1469606D01*
X201375070Y-1475833D01*
X201477386Y-1481570D01*
X201611920Y-1486836D01*
X201782130Y-1491650D01*
X201991477Y-1496031D01*
X202243420Y-1499997D01*
X202541418Y-1503567D01*
X202888930Y-1506759D01*
X203289416Y-1509594D01*
X203746335Y-1512088D01*
X204263146Y-1514262D01*
X204843309Y-1516133D01*
X205490282Y-1517721D01*
X206207526Y-1519045D01*
X206998499Y-1520122D01*
X207866661Y-1520972D01*
X208815471Y-1521614D01*
X209848388Y-1522066D01*
X210968873Y-1522346D01*
X212180383Y-1522475D01*
X213486378Y-1522470D01*
X214890318Y-1522351D01*
X214972900Y-1522341D01*
X216372337Y-1522154D01*
X217673804Y-1521924D01*
X218880930Y-1521628D01*
X219997345Y-1521242D01*
X221026679Y-1520739D01*
X221972563Y-1520097D01*
X222838625Y-1519289D01*
X223628495Y-1518293D01*
X224345804Y-1517082D01*
X224994181Y-1515634D01*
X225577255Y-1513922D01*
X226098657Y-1511922D01*
X226562017Y-1509610D01*
X226970963Y-1506962D01*
X227329126Y-1503952D01*
X227640137Y-1500556D01*
X227907623Y-1496750D01*
X228135216Y-1492509D01*
X228326545Y-1487808D01*
X228485239Y-1482623D01*
X228614929Y-1476929D01*
X228719245Y-1470702D01*
X228801815Y-1463916D01*
X228866271Y-1456549D01*
X228916241Y-1448574D01*
X228955356Y-1439967D01*
X228987245Y-1430705D01*
X228997124Y-1427388D01*
X229306189Y-1268764D01*
X229569089Y-1029244D01*
X229734752Y-787400D01*
X229763689Y-730290D01*
X229787173Y-669645D01*
X229805880Y-594518D01*
X229820486Y-493965D01*
X229831667Y-357039D01*
X229840101Y-172795D01*
X229846463Y69713D01*
X229851430Y381429D01*
X229855678Y773300D01*
X229859705Y1234610D01*
X229874809Y3053420D01*
X230043096Y3273888D01*
X230211099Y3559117D01*
X230318609Y3900430D01*
X230368146Y4308725D01*
X230368168Y4680522D01*
X230332223Y5078935D01*
X230324262Y5111639D01*
X229363979Y5111639D01*
X229337337Y5026932D01*
X229265039Y4983977D01*
X229140304Y4963891D01*
X229120700Y4962049D01*
X228926019Y4952929D01*
X228697715Y4954027D01*
X228579849Y4959266D01*
X228394211Y4969843D01*
X228233781Y4976792D01*
X228160749Y4978400D01*
X228091155Y4987149D01*
X228055531Y5030188D01*
X228042667Y5132703D01*
X228041200Y5247037D01*
X228076579Y5543852D01*
X228175977Y5784452D01*
X228329290Y5959006D01*
X228526411Y6057681D01*
X228757235Y6070645D01*
X228863975Y6047526D01*
X229063888Y5945736D01*
X229206920Y5770769D01*
X229300352Y5513339D01*
X229307433Y5481839D01*
X229351750Y5256981D01*
X229363979Y5111639D01*
X230324262Y5111639D01*
X230253186Y5403591D01*
X230119511Y5671668D01*
X229919652Y5900344D01*
X229642063Y6106799D01*
X229275198Y6308210D01*
X229273656Y6308969D01*
X228894965Y6447818D01*
X228506454Y6503431D01*
X228126499Y6477397D01*
D11*
G04 #@! TO.C,J2*
X1025200Y76499000D02*
X2025200Y76499000D01*
X1025200Y78899000D02*
X1025200Y76499000D01*
X6025200Y80699000D02*
X2025200Y80699000D01*
X7025200Y76499000D02*
X7025200Y78899000D01*
X6025200Y76499000D02*
X7025200Y76499000D01*
D12*
G04 #@! TO.C,D44*
X258842000Y14824000D02*
X258842000Y10924000D01*
X260842000Y14824000D02*
X260842000Y10924000D01*
X258842000Y14824000D02*
X260842000Y14824000D01*
G04 #@! TO.C,D65*
X250968000Y53558000D02*
X250968000Y49658000D01*
X252968000Y53558000D02*
X252968000Y49658000D01*
X250968000Y53558000D02*
X252968000Y53558000D01*
G04 #@! TO.C,D60*
X231461861Y55348214D02*
X231461861Y51448214D01*
X233461861Y55348214D02*
X233461861Y51448214D01*
X231461861Y55348214D02*
X233461861Y55348214D01*
G04 #@! TO.C,D6*
X-900000Y89250000D02*
X-900000Y85350000D01*
X1100000Y89250000D02*
X1100000Y85350000D01*
X-900000Y89250000D02*
X1100000Y89250000D01*
G04 #@! TO.C,Y1*
X61232800Y51055000D02*
X57232800Y51055000D01*
X61232800Y54355000D02*
X61232800Y51055000D01*
G04 #@! TO.C,R6*
X53725578Y32183000D02*
X53208422Y32183000D01*
X53725578Y33603000D02*
X53208422Y33603000D01*
G04 #@! TO.C,R3*
X8802678Y72442000D02*
X8285522Y72442000D01*
X8802678Y73862000D02*
X8285522Y73862000D01*
G04 #@! TO.C,R2*
X8802678Y74499400D02*
X8285522Y74499400D01*
X8802678Y75919400D02*
X8285522Y75919400D01*
G04 #@! TO.C,R1*
X55119200Y57701922D02*
X55119200Y58219078D01*
X56539200Y57701922D02*
X56539200Y58219078D01*
D13*
G04 #@! TO.C,J1*
X45720000Y68580000D02*
X45720000Y63500000D01*
X53340000Y68580000D02*
X45720000Y68580000D01*
X53340000Y63500000D02*
X53340000Y68580000D01*
X45720000Y63500000D02*
X53340000Y63500000D01*
D12*
G04 #@! TO.C,C8*
X59830612Y42292704D02*
X60196296Y42658388D01*
X60834704Y41288612D02*
X61200388Y41654296D01*
G04 #@! TO.C,C7*
X43731922Y53542000D02*
X44249078Y53542000D01*
X43731922Y52122000D02*
X44249078Y52122000D01*
G04 #@! TO.C,C6*
X42822335Y60237413D02*
X43339491Y60237413D01*
X42822335Y58817413D02*
X43339491Y58817413D01*
G04 #@! TO.C,C5*
X59315878Y54687400D02*
X58798722Y54687400D01*
X59315878Y56107400D02*
X58798722Y56107400D01*
G04 #@! TO.C,C4*
X63041600Y52940478D02*
X63041600Y52423322D01*
X61621600Y52940478D02*
X61621600Y52423322D01*
G04 #@! TO.C,C3*
X55020978Y54509600D02*
X54503822Y54509600D01*
X55020978Y55929600D02*
X54503822Y55929600D01*
G04 #@! TO.C,C2*
X41781296Y42241112D02*
X41415612Y42606796D01*
X42785388Y43245204D02*
X42419704Y43610888D01*
G04 #@! TO.C,C1*
X40915975Y48801883D02*
X40550291Y48436199D01*
X39911883Y49805975D02*
X39546199Y49440291D01*
D11*
G04 #@! TO.C,U1*
X44294431Y45059786D02*
X43392870Y45961348D01*
X51206400Y37334645D02*
X50729103Y37811942D01*
X58524955Y44653200D02*
X58047658Y45130497D01*
X51206400Y51971755D02*
X51683697Y51494458D01*
X43887845Y44653200D02*
X44365142Y44175903D01*
X51206400Y51971755D02*
X50729103Y51494458D01*
X58524955Y44653200D02*
X58047658Y44175903D01*
X51206400Y37334645D02*
X51683697Y37811942D01*
X43887845Y44653200D02*
X44294431Y45059786D01*
D12*
G04 #@! TO.C,D88*
X325700000Y90750000D02*
X325700000Y86850000D01*
X327700000Y90750000D02*
X327700000Y86850000D01*
X325700000Y90750000D02*
X327700000Y90750000D01*
G04 #@! TO.C,D87*
X314976000Y55336000D02*
X314976000Y51436000D01*
X316976000Y55336000D02*
X316976000Y51436000D01*
X314976000Y55336000D02*
X316976000Y55336000D01*
G04 #@! TO.C,D86*
X332084946Y15790132D02*
X332084946Y11890132D01*
X334084946Y15790132D02*
X334084946Y11890132D01*
X332084946Y15790132D02*
X334084946Y15790132D01*
G04 #@! TO.C,D85*
X318600000Y34254000D02*
X318600000Y30354000D01*
X320600000Y34254000D02*
X320600000Y30354000D01*
X318600000Y34254000D02*
X320600000Y34254000D01*
G04 #@! TO.C,D84*
X321072000Y72354000D02*
X321072000Y68454000D01*
X323072000Y72354000D02*
X323072000Y68454000D01*
X321072000Y72354000D02*
X323072000Y72354000D01*
G04 #@! TO.C,D83*
X300400000Y88650000D02*
X300400000Y84750000D01*
X302400000Y88650000D02*
X302400000Y84750000D01*
X300400000Y88650000D02*
X302400000Y88650000D01*
G04 #@! TO.C,D82*
X313071000Y16093000D02*
X313071000Y12193000D01*
X315071000Y16093000D02*
X315071000Y12193000D01*
X313071000Y16093000D02*
X315071000Y16093000D01*
G04 #@! TO.C,D78*
X297704000Y70956000D02*
X297704000Y67056000D01*
X299704000Y70956000D02*
X299704000Y67056000D01*
X297704000Y70956000D02*
X299704000Y70956000D01*
G04 #@! TO.C,D77*
X294072321Y90750000D02*
X294072321Y86850000D01*
X296072321Y90750000D02*
X296072321Y86850000D01*
X294072321Y90750000D02*
X296072321Y90750000D01*
G04 #@! TO.C,D76*
X290592000Y35778000D02*
X290592000Y31878000D01*
X292592000Y35778000D02*
X292592000Y31878000D01*
X290592000Y35778000D02*
X292592000Y35778000D01*
G04 #@! TO.C,D75*
X297958000Y14697000D02*
X297958000Y10797000D01*
X299958000Y14697000D02*
X299958000Y10797000D01*
X297958000Y14697000D02*
X299958000Y14697000D01*
G04 #@! TO.C,D74*
X289068000Y53558000D02*
X289068000Y49658000D01*
X291068000Y53558000D02*
X291068000Y49658000D01*
X289068000Y53558000D02*
X291068000Y53558000D01*
G04 #@! TO.C,D73*
X278400000Y72354000D02*
X278400000Y68454000D01*
X280400000Y72354000D02*
X280400000Y68454000D01*
X278400000Y72354000D02*
X280400000Y72354000D01*
G04 #@! TO.C,D72*
X274900000Y88950000D02*
X274900000Y85050000D01*
X276900000Y88950000D02*
X276900000Y85050000D01*
X274900000Y88950000D02*
X276900000Y88950000D01*
G04 #@! TO.C,D71*
X244110000Y15713000D02*
X244110000Y11813000D01*
X246110000Y15713000D02*
X246110000Y11813000D01*
X244110000Y15713000D02*
X246110000Y15713000D01*
G04 #@! TO.C,D70*
X273320000Y37176000D02*
X273320000Y33276000D01*
X275320000Y37176000D02*
X275320000Y33276000D01*
X273320000Y37176000D02*
X275320000Y37176000D01*
G04 #@! TO.C,D69*
X269648335Y55369629D02*
X269648335Y51469629D01*
X271648335Y55369629D02*
X271648335Y51469629D01*
X269648335Y55369629D02*
X271648335Y55369629D01*
G04 #@! TO.C,D68*
X265700000Y70956000D02*
X265700000Y67056000D01*
X267700000Y70956000D02*
X267700000Y67056000D01*
X265700000Y70956000D02*
X267700000Y70956000D01*
G04 #@! TO.C,D67*
X256000000Y90650000D02*
X256000000Y86750000D01*
X258000000Y90650000D02*
X258000000Y86750000D01*
X256000000Y90650000D02*
X258000000Y90650000D01*
G04 #@! TO.C,D66*
X260620000Y35778000D02*
X260620000Y31878000D01*
X262620000Y35778000D02*
X262620000Y31878000D01*
X260620000Y35778000D02*
X262620000Y35778000D01*
G04 #@! TO.C,D64*
X246904000Y72354000D02*
X246904000Y68454000D01*
X248904000Y72354000D02*
X248904000Y68454000D01*
X246904000Y72354000D02*
X248904000Y72354000D01*
G04 #@! TO.C,D63*
X236900000Y89350000D02*
X236900000Y85450000D01*
X238900000Y89350000D02*
X238900000Y85450000D01*
X236900000Y89350000D02*
X238900000Y89350000D01*
G04 #@! TO.C,D61*
X241316000Y37180303D02*
X241316000Y33280303D01*
X243316000Y37180303D02*
X243316000Y33280303D01*
X241316000Y37180303D02*
X243316000Y37180303D01*
G04 #@! TO.C,D59*
X227600000Y70956000D02*
X227600000Y67056000D01*
X229600000Y70956000D02*
X229600000Y67056000D01*
X227600000Y70956000D02*
X229600000Y70956000D01*
G04 #@! TO.C,D58*
X218100000Y90650000D02*
X218100000Y86750000D01*
X220100000Y90650000D02*
X220100000Y86750000D01*
X218100000Y90650000D02*
X220100000Y90650000D01*
G04 #@! TO.C,D57*
X222520000Y35778000D02*
X222520000Y31878000D01*
X224520000Y35778000D02*
X224520000Y31878000D01*
X222520000Y35778000D02*
X224520000Y35778000D01*
G04 #@! TO.C,D56*
X212868000Y53558000D02*
X212868000Y49658000D01*
X214868000Y53558000D02*
X214868000Y49658000D01*
X212868000Y53558000D02*
X214868000Y53558000D01*
G04 #@! TO.C,D55*
X208296000Y72354000D02*
X208296000Y68454000D01*
X210296000Y72354000D02*
X210296000Y68454000D01*
X208296000Y72354000D02*
X210296000Y72354000D01*
G04 #@! TO.C,D54*
X199100000Y89250000D02*
X199100000Y85350000D01*
X201100000Y89250000D02*
X201100000Y85350000D01*
X199100000Y89250000D02*
X201100000Y89250000D01*
G04 #@! TO.C,D53*
X199406000Y15712000D02*
X199406000Y11812000D01*
X201406000Y15712000D02*
X201406000Y11812000D01*
X199406000Y15712000D02*
X201406000Y15712000D01*
G04 #@! TO.C,D52*
X203231923Y36921548D02*
X203231923Y33021548D01*
X205231923Y36921548D02*
X205231923Y33021548D01*
X203231923Y36921548D02*
X205231923Y36921548D01*
G04 #@! TO.C,D51*
X193539062Y55471296D02*
X193539062Y51571296D01*
X195539062Y55471296D02*
X195539062Y51571296D01*
X193539062Y55471296D02*
X195539062Y55471296D01*
G04 #@! TO.C,D50*
X189500000Y70956000D02*
X189500000Y67056000D01*
X191500000Y70956000D02*
X191500000Y67056000D01*
X189500000Y70956000D02*
X191500000Y70956000D01*
G04 #@! TO.C,D49*
X179900000Y90650000D02*
X179900000Y86750000D01*
X181900000Y90650000D02*
X181900000Y86750000D01*
X179900000Y90650000D02*
X181900000Y90650000D01*
G04 #@! TO.C,D48*
X184928000Y35904000D02*
X184928000Y32004000D01*
X186928000Y35904000D02*
X186928000Y32004000D01*
X184928000Y35904000D02*
X186928000Y35904000D01*
G04 #@! TO.C,D47*
X175276000Y53558000D02*
X175276000Y49658000D01*
X177276000Y53558000D02*
X177276000Y49658000D01*
X175276000Y53558000D02*
X177276000Y53558000D01*
G04 #@! TO.C,D46*
X170167682Y72291097D02*
X170167682Y68391097D01*
X172167682Y72291097D02*
X172167682Y68391097D01*
X170167682Y72291097D02*
X172167682Y72291097D01*
G04 #@! TO.C,D45*
X160700000Y89050000D02*
X160700000Y85150000D01*
X162700000Y89050000D02*
X162700000Y85150000D01*
X160700000Y89050000D02*
X162700000Y89050000D01*
G04 #@! TO.C,D43*
X165116000Y36920000D02*
X165116000Y33020000D01*
X167116000Y36920000D02*
X167116000Y33020000D01*
X165116000Y36920000D02*
X167116000Y36920000D01*
G04 #@! TO.C,D42*
X155407152Y55480050D02*
X155407152Y51580050D01*
X157407152Y55480050D02*
X157407152Y51580050D01*
X155407152Y55480050D02*
X157407152Y55480050D01*
G04 #@! TO.C,D41*
X151400000Y70956000D02*
X151400000Y67056000D01*
X153400000Y70956000D02*
X153400000Y67056000D01*
X151400000Y70956000D02*
X153400000Y70956000D01*
G04 #@! TO.C,D40*
X141800000Y90750000D02*
X141800000Y86850000D01*
X143800000Y90750000D02*
X143800000Y86850000D01*
X141800000Y90750000D02*
X143800000Y90750000D01*
G04 #@! TO.C,D39*
X146320000Y35904000D02*
X146320000Y32004000D01*
X148320000Y35904000D02*
X148320000Y32004000D01*
X146320000Y35904000D02*
X148320000Y35904000D01*
G04 #@! TO.C,D38*
X136956227Y53518600D02*
X136956227Y49618600D01*
X138956227Y53518600D02*
X138956227Y49618600D01*
X136956227Y53518600D02*
X138956227Y53518600D01*
G04 #@! TO.C,D37*
X132096000Y72354000D02*
X132096000Y68454000D01*
X134096000Y72354000D02*
X134096000Y68454000D01*
X132096000Y72354000D02*
X134096000Y72354000D01*
G04 #@! TO.C,D36*
X122900000Y89150000D02*
X122900000Y85250000D01*
X124900000Y89150000D02*
X124900000Y85250000D01*
X122900000Y89150000D02*
X124900000Y89150000D01*
G04 #@! TO.C,D35*
X118380000Y13552000D02*
X118380000Y9652000D01*
X120380000Y13552000D02*
X120380000Y9652000D01*
X118380000Y13552000D02*
X120380000Y13552000D01*
G04 #@! TO.C,D34*
X127016000Y36920000D02*
X127016000Y33020000D01*
X129016000Y36920000D02*
X129016000Y33020000D01*
X127016000Y36920000D02*
X129016000Y36920000D01*
G04 #@! TO.C,D33*
X117650577Y55505173D02*
X117650577Y51605173D01*
X119650577Y55505173D02*
X119650577Y51605173D01*
X117650577Y55505173D02*
X119650577Y55505173D01*
G04 #@! TO.C,D32*
X113094404Y70939064D02*
X113094404Y67039064D01*
X115094404Y70939064D02*
X115094404Y67039064D01*
X113094404Y70939064D02*
X115094404Y70939064D01*
G04 #@! TO.C,D31*
X103666244Y90750000D02*
X103666244Y86850000D01*
X105666244Y90750000D02*
X105666244Y86850000D01*
X103666244Y90750000D02*
X105666244Y90750000D01*
G04 #@! TO.C,D30*
X95520000Y15966000D02*
X95520000Y12066000D01*
X97520000Y15966000D02*
X97520000Y12066000D01*
X95520000Y15966000D02*
X97520000Y15966000D01*
G04 #@! TO.C,D29*
X108220000Y35904000D02*
X108220000Y32004000D01*
X110220000Y35904000D02*
X110220000Y32004000D01*
X108220000Y35904000D02*
X110220000Y35904000D01*
G04 #@! TO.C,D28*
X98800714Y53510479D02*
X98800714Y49610479D01*
X100800714Y53510479D02*
X100800714Y49610479D01*
X98800714Y53510479D02*
X100800714Y53510479D01*
G04 #@! TO.C,D27*
X93996000Y72354000D02*
X93996000Y68454000D01*
X95996000Y72354000D02*
X95996000Y68454000D01*
X93996000Y72354000D02*
X95996000Y72354000D01*
G04 #@! TO.C,D26*
X85000000Y88750000D02*
X85000000Y84850000D01*
X87000000Y88750000D02*
X87000000Y84850000D01*
X85000000Y88750000D02*
X87000000Y88750000D01*
G04 #@! TO.C,D25*
X55896000Y16092000D02*
X55896000Y12192000D01*
X57896000Y16092000D02*
X57896000Y12192000D01*
X55896000Y16092000D02*
X57896000Y16092000D01*
G04 #@! TO.C,D24*
X77212251Y36838443D02*
X77212251Y32938443D01*
X79212251Y36838443D02*
X79212251Y32938443D01*
X77212251Y36838443D02*
X79212251Y36838443D01*
G04 #@! TO.C,D23*
X72622053Y55399894D02*
X72622053Y51499894D01*
X74622053Y55399894D02*
X74622053Y51499894D01*
X72622053Y55399894D02*
X74622053Y55399894D01*
G04 #@! TO.C,D22*
X70120000Y70956000D02*
X70120000Y67056000D01*
X72120000Y70956000D02*
X72120000Y67056000D01*
X70120000Y70956000D02*
X72120000Y70956000D01*
G04 #@! TO.C,D21*
X65400000Y90750000D02*
X65400000Y86850000D01*
X67400000Y90750000D02*
X67400000Y86850000D01*
X65400000Y90750000D02*
X67400000Y90750000D01*
G04 #@! TO.C,D20*
X536000Y17998000D02*
X536000Y14098000D01*
X2536000Y17998000D02*
X2536000Y14098000D01*
X536000Y17998000D02*
X2536000Y17998000D01*
G04 #@! TO.C,D19*
X37112000Y35652000D02*
X37112000Y31752000D01*
X39112000Y35652000D02*
X39112000Y31752000D01*
X37112000Y35652000D02*
X39112000Y35652000D01*
G04 #@! TO.C,D18*
X30800000Y53600000D02*
X30800000Y49700000D01*
X32800000Y53600000D02*
X32800000Y49700000D01*
X30800000Y53600000D02*
X32800000Y53600000D01*
G04 #@! TO.C,D17*
X36846111Y72331002D02*
X36846111Y68431002D01*
X38846111Y72331002D02*
X38846111Y68431002D01*
X36846111Y72331002D02*
X38846111Y72331002D01*
G04 #@! TO.C,D16*
X37112000Y89350000D02*
X37112000Y85450000D01*
X39112000Y89350000D02*
X39112000Y85450000D01*
X37112000Y89350000D02*
X39112000Y89350000D01*
G04 #@! TO.C,D15*
X18300310Y16076862D02*
X18300310Y12176862D01*
X20300310Y16076862D02*
X20300310Y12176862D01*
X18300310Y16076862D02*
X20300310Y16076862D01*
G04 #@! TO.C,D14*
X18316000Y36794000D02*
X18316000Y32894000D01*
X20316000Y36794000D02*
X20316000Y32894000D01*
X18316000Y36794000D02*
X20316000Y36794000D01*
G04 #@! TO.C,D13*
X17808000Y55464000D02*
X17808000Y51564000D01*
X19808000Y55464000D02*
X19808000Y51564000D01*
X17808000Y55464000D02*
X19808000Y55464000D01*
G04 #@! TO.C,D12*
X17808000Y70956000D02*
X17808000Y67056000D01*
X19808000Y70956000D02*
X19808000Y67056000D01*
X17808000Y70956000D02*
X19808000Y70956000D01*
G04 #@! TO.C,D11*
X17792360Y90950000D02*
X17792360Y87050000D01*
X19792360Y90950000D02*
X19792360Y87050000D01*
X17792360Y90950000D02*
X19792360Y90950000D01*
G04 #@! TO.C,D10*
X37366000Y17998000D02*
X37366000Y14098000D01*
X39366000Y17998000D02*
X39366000Y14098000D01*
X37366000Y17998000D02*
X39366000Y17998000D01*
G04 #@! TO.C,D9*
X-884225Y35693471D02*
X-884225Y31793471D01*
X1115775Y35693471D02*
X1115775Y31793471D01*
X-884225Y35693471D02*
X1115775Y35693471D01*
G04 #@! TO.C,D8*
X-988000Y53558000D02*
X-988000Y49658000D01*
X1012000Y53558000D02*
X1012000Y49658000D01*
X-988000Y53558000D02*
X1012000Y53558000D01*
G04 #@! TO.C,D7*
X-988000Y72480000D02*
X-988000Y68580000D01*
X1012000Y72480000D02*
X1012000Y68580000D01*
X-988000Y72480000D02*
X1012000Y72480000D01*
G04 #@! TO.C,D5*
X-17784000Y14640000D02*
X-17784000Y18540000D01*
X-19784000Y14640000D02*
X-19784000Y18540000D01*
X-17784000Y14640000D02*
X-19784000Y14640000D01*
G04 #@! TO.C,D4*
X-17244000Y14950000D02*
X-17244000Y11050000D01*
X-15244000Y14950000D02*
X-15244000Y11050000D01*
X-17244000Y14950000D02*
X-15244000Y14950000D01*
G04 #@! TO.C,D3*
X-17784000Y54264000D02*
X-17784000Y58164000D01*
X-19784000Y54264000D02*
X-19784000Y58164000D01*
X-17784000Y54264000D02*
X-19784000Y54264000D01*
G04 #@! TO.C,D2*
X-19784000Y53558000D02*
X-19784000Y49658000D01*
X-17784000Y53558000D02*
X-17784000Y49658000D01*
X-19784000Y53558000D02*
X-17784000Y53558000D01*
G04 #@! TO.C,D1*
X-20000000Y90850000D02*
X-20000000Y86950000D01*
X-18000000Y90850000D02*
X-18000000Y86950000D01*
X-20000000Y90850000D02*
X-18000000Y90850000D01*
G04 #@! TO.C,J2*
D11*
X4358533Y74946619D02*
X4358533Y74232333D01*
X4406152Y74089476D01*
X4501390Y73994238D01*
X4644247Y73946619D01*
X4739485Y73946619D01*
X3929961Y74851380D02*
X3882342Y74899000D01*
X3787104Y74946619D01*
X3549009Y74946619D01*
X3453771Y74899000D01*
X3406152Y74851380D01*
X3358533Y74756142D01*
X3358533Y74660904D01*
X3406152Y74518047D01*
X3977580Y73946619D01*
X3358533Y73946619D01*
G04 #@! TO.C,D44*
X258294380Y13788285D02*
X257294380Y13788285D01*
X257294380Y13550190D01*
X257342000Y13407333D01*
X257437238Y13312095D01*
X257532476Y13264476D01*
X257722952Y13216857D01*
X257865809Y13216857D01*
X258056285Y13264476D01*
X258151523Y13312095D01*
X258246761Y13407333D01*
X258294380Y13550190D01*
X258294380Y13788285D01*
X257627714Y12359714D02*
X258294380Y12359714D01*
X257246761Y12597809D02*
X257961047Y12835904D01*
X257961047Y12216857D01*
X257627714Y11407333D02*
X258294380Y11407333D01*
X257246761Y11645428D02*
X257961047Y11883523D01*
X257961047Y11264476D01*
G04 #@! TO.C,D65*
X250420380Y52522285D02*
X249420380Y52522285D01*
X249420380Y52284190D01*
X249468000Y52141333D01*
X249563238Y52046095D01*
X249658476Y51998476D01*
X249848952Y51950857D01*
X249991809Y51950857D01*
X250182285Y51998476D01*
X250277523Y52046095D01*
X250372761Y52141333D01*
X250420380Y52284190D01*
X250420380Y52522285D01*
X249420380Y51093714D02*
X249420380Y51284190D01*
X249468000Y51379428D01*
X249515619Y51427047D01*
X249658476Y51522285D01*
X249848952Y51569904D01*
X250229904Y51569904D01*
X250325142Y51522285D01*
X250372761Y51474666D01*
X250420380Y51379428D01*
X250420380Y51188952D01*
X250372761Y51093714D01*
X250325142Y51046095D01*
X250229904Y50998476D01*
X249991809Y50998476D01*
X249896571Y51046095D01*
X249848952Y51093714D01*
X249801333Y51188952D01*
X249801333Y51379428D01*
X249848952Y51474666D01*
X249896571Y51522285D01*
X249991809Y51569904D01*
X249420380Y50093714D02*
X249420380Y50569904D01*
X249896571Y50617523D01*
X249848952Y50569904D01*
X249801333Y50474666D01*
X249801333Y50236571D01*
X249848952Y50141333D01*
X249896571Y50093714D01*
X249991809Y50046095D01*
X250229904Y50046095D01*
X250325142Y50093714D01*
X250372761Y50141333D01*
X250420380Y50236571D01*
X250420380Y50474666D01*
X250372761Y50569904D01*
X250325142Y50617523D01*
G04 #@! TO.C,D60*
X230914241Y54312499D02*
X229914241Y54312499D01*
X229914241Y54074404D01*
X229961861Y53931547D01*
X230057099Y53836309D01*
X230152337Y53788690D01*
X230342813Y53741071D01*
X230485670Y53741071D01*
X230676146Y53788690D01*
X230771384Y53836309D01*
X230866622Y53931547D01*
X230914241Y54074404D01*
X230914241Y54312499D01*
X229914241Y52883928D02*
X229914241Y53074404D01*
X229961861Y53169642D01*
X230009480Y53217261D01*
X230152337Y53312499D01*
X230342813Y53360118D01*
X230723765Y53360118D01*
X230819003Y53312499D01*
X230866622Y53264880D01*
X230914241Y53169642D01*
X230914241Y52979166D01*
X230866622Y52883928D01*
X230819003Y52836309D01*
X230723765Y52788690D01*
X230485670Y52788690D01*
X230390432Y52836309D01*
X230342813Y52883928D01*
X230295194Y52979166D01*
X230295194Y53169642D01*
X230342813Y53264880D01*
X230390432Y53312499D01*
X230485670Y53360118D01*
X229914241Y52169642D02*
X229914241Y52074404D01*
X229961861Y51979166D01*
X230009480Y51931547D01*
X230104718Y51883928D01*
X230295194Y51836309D01*
X230533289Y51836309D01*
X230723765Y51883928D01*
X230819003Y51931547D01*
X230866622Y51979166D01*
X230914241Y52074404D01*
X230914241Y52169642D01*
X230866622Y52264880D01*
X230819003Y52312499D01*
X230723765Y52360118D01*
X230533289Y52407737D01*
X230295194Y52407737D01*
X230104718Y52360118D01*
X230009480Y52312499D01*
X229961861Y52264880D01*
X229914241Y52169642D01*
G04 #@! TO.C,D6*
X-1447619Y87738095D02*
X-2447619Y87738095D01*
X-2447619Y87500000D01*
X-2400000Y87357142D01*
X-2304761Y87261904D01*
X-2209523Y87214285D01*
X-2019047Y87166666D01*
X-1876190Y87166666D01*
X-1685714Y87214285D01*
X-1590476Y87261904D01*
X-1495238Y87357142D01*
X-1447619Y87500000D01*
X-1447619Y87738095D01*
X-2447619Y86309523D02*
X-2447619Y86500000D01*
X-2400000Y86595238D01*
X-2352380Y86642857D01*
X-2209523Y86738095D01*
X-2019047Y86785714D01*
X-1638095Y86785714D01*
X-1542857Y86738095D01*
X-1495238Y86690476D01*
X-1447619Y86595238D01*
X-1447619Y86404761D01*
X-1495238Y86309523D01*
X-1542857Y86261904D01*
X-1638095Y86214285D01*
X-1876190Y86214285D01*
X-1971428Y86261904D01*
X-2019047Y86309523D01*
X-2066666Y86404761D01*
X-2066666Y86595238D01*
X-2019047Y86690476D01*
X-1971428Y86738095D01*
X-1876190Y86785714D01*
G04 #@! TO.C,Y1*
X59708990Y55178809D02*
X59708990Y54702619D01*
X60042323Y55702619D02*
X59708990Y55178809D01*
X59375657Y55702619D01*
X58518514Y54702619D02*
X59089942Y54702619D01*
X58804228Y54702619D02*
X58804228Y55702619D01*
X58899466Y55559761D01*
X58994704Y55464523D01*
X59089942Y55416904D01*
G04 #@! TO.C,R6*
X53633666Y34090619D02*
X53967000Y34566809D01*
X54205095Y34090619D02*
X54205095Y35090619D01*
X53824142Y35090619D01*
X53728904Y35043000D01*
X53681285Y34995380D01*
X53633666Y34900142D01*
X53633666Y34757285D01*
X53681285Y34662047D01*
X53728904Y34614428D01*
X53824142Y34566809D01*
X54205095Y34566809D01*
X52776523Y35090619D02*
X52967000Y35090619D01*
X53062238Y35043000D01*
X53109857Y34995380D01*
X53205095Y34852523D01*
X53252714Y34662047D01*
X53252714Y34281095D01*
X53205095Y34185857D01*
X53157476Y34138238D01*
X53062238Y34090619D01*
X52871761Y34090619D01*
X52776523Y34138238D01*
X52728904Y34185857D01*
X52681285Y34281095D01*
X52681285Y34519190D01*
X52728904Y34614428D01*
X52776523Y34662047D01*
X52871761Y34709666D01*
X53062238Y34709666D01*
X53157476Y34662047D01*
X53205095Y34614428D01*
X53252714Y34519190D01*
G04 #@! TO.C,R3*
X11434880Y73369466D02*
X10958690Y73702800D01*
X11434880Y73940895D02*
X10434880Y73940895D01*
X10434880Y73559942D01*
X10482500Y73464704D01*
X10530119Y73417085D01*
X10625357Y73369466D01*
X10768214Y73369466D01*
X10863452Y73417085D01*
X10911071Y73464704D01*
X10958690Y73559942D01*
X10958690Y73940895D01*
X10434880Y73036133D02*
X10434880Y72417085D01*
X10815833Y72750419D01*
X10815833Y72607561D01*
X10863452Y72512323D01*
X10911071Y72464704D01*
X11006309Y72417085D01*
X11244404Y72417085D01*
X11339642Y72464704D01*
X11387261Y72512323D01*
X11434880Y72607561D01*
X11434880Y72893276D01*
X11387261Y72988514D01*
X11339642Y73036133D01*
G04 #@! TO.C,R2*
X11434880Y75477666D02*
X10958690Y75811000D01*
X11434880Y76049095D02*
X10434880Y76049095D01*
X10434880Y75668142D01*
X10482500Y75572904D01*
X10530119Y75525285D01*
X10625357Y75477666D01*
X10768214Y75477666D01*
X10863452Y75525285D01*
X10911071Y75572904D01*
X10958690Y75668142D01*
X10958690Y76049095D01*
X10530119Y75096714D02*
X10482500Y75049095D01*
X10434880Y74953857D01*
X10434880Y74715761D01*
X10482500Y74620523D01*
X10530119Y74572904D01*
X10625357Y74525285D01*
X10720595Y74525285D01*
X10863452Y74572904D01*
X11434880Y75144333D01*
X11434880Y74525285D01*
G04 #@! TO.C,R1*
X57931580Y58127166D02*
X57455390Y58460500D01*
X57931580Y58698595D02*
X56931580Y58698595D01*
X56931580Y58317642D01*
X56979200Y58222404D01*
X57026819Y58174785D01*
X57122057Y58127166D01*
X57264914Y58127166D01*
X57360152Y58174785D01*
X57407771Y58222404D01*
X57455390Y58317642D01*
X57455390Y58698595D01*
X57931580Y57174785D02*
X57931580Y57746214D01*
X57931580Y57460500D02*
X56931580Y57460500D01*
X57074438Y57555738D01*
X57169676Y57650976D01*
X57217295Y57746214D01*
G04 #@! TO.C,J1*
D14*
X49792467Y66471196D02*
X49792467Y65908766D01*
X49829962Y65796280D01*
X49904953Y65721289D01*
X50017439Y65683794D01*
X50092430Y65683794D01*
X49005065Y65683794D02*
X49455009Y65683794D01*
X49230037Y65683794D02*
X49230037Y66471196D01*
X49305028Y66358710D01*
X49380018Y66283719D01*
X49455009Y66246224D01*
G04 #@! TO.C,C8*
D11*
X62052615Y40672086D02*
X62119958Y40672086D01*
X62254645Y40739430D01*
X62321989Y40806773D01*
X62389332Y40941461D01*
X62389332Y41076148D01*
X62355661Y41177163D01*
X62254645Y41345522D01*
X62153630Y41446537D01*
X61985271Y41547552D01*
X61884256Y41581224D01*
X61749569Y41581224D01*
X61614882Y41513880D01*
X61547538Y41446537D01*
X61480195Y41311850D01*
X61480195Y41244506D01*
X61311836Y40604743D02*
X61345508Y40705758D01*
X61345508Y40773102D01*
X61311836Y40874117D01*
X61278164Y40907789D01*
X61177149Y40941461D01*
X61109806Y40941461D01*
X61008790Y40907789D01*
X60874103Y40773102D01*
X60840432Y40672086D01*
X60840432Y40604743D01*
X60874103Y40503728D01*
X60907775Y40470056D01*
X61008790Y40436384D01*
X61076134Y40436384D01*
X61177149Y40470056D01*
X61311836Y40604743D01*
X61412851Y40638415D01*
X61480195Y40638415D01*
X61581210Y40604743D01*
X61715897Y40470056D01*
X61749569Y40369041D01*
X61749569Y40301697D01*
X61715897Y40200682D01*
X61581210Y40065995D01*
X61480195Y40032323D01*
X61412851Y40032323D01*
X61311836Y40065995D01*
X61177149Y40200682D01*
X61143477Y40301697D01*
X61143477Y40369041D01*
X61177149Y40470056D01*
G04 #@! TO.C,C7*
X44157166Y50824857D02*
X44204785Y50777238D01*
X44347642Y50729619D01*
X44442880Y50729619D01*
X44585738Y50777238D01*
X44680976Y50872476D01*
X44728595Y50967714D01*
X44776214Y51158190D01*
X44776214Y51301047D01*
X44728595Y51491523D01*
X44680976Y51586761D01*
X44585738Y51682000D01*
X44442880Y51729619D01*
X44347642Y51729619D01*
X44204785Y51682000D01*
X44157166Y51634380D01*
X43823833Y51729619D02*
X43157166Y51729619D01*
X43585738Y50729619D01*
G04 #@! TO.C,C6*
X43247579Y57520270D02*
X43295198Y57472651D01*
X43438055Y57425032D01*
X43533293Y57425032D01*
X43676151Y57472651D01*
X43771389Y57567889D01*
X43819008Y57663127D01*
X43866627Y57853603D01*
X43866627Y57996460D01*
X43819008Y58186936D01*
X43771389Y58282174D01*
X43676151Y58377413D01*
X43533293Y58425032D01*
X43438055Y58425032D01*
X43295198Y58377413D01*
X43247579Y58329793D01*
X42390436Y58425032D02*
X42580913Y58425032D01*
X42676151Y58377413D01*
X42723770Y58329793D01*
X42819008Y58186936D01*
X42866627Y57996460D01*
X42866627Y57615508D01*
X42819008Y57520270D01*
X42771389Y57472651D01*
X42676151Y57425032D01*
X42485674Y57425032D01*
X42390436Y57472651D01*
X42342817Y57520270D01*
X42295198Y57615508D01*
X42295198Y57853603D01*
X42342817Y57948841D01*
X42390436Y57996460D01*
X42485674Y58044079D01*
X42676151Y58044079D01*
X42771389Y57996460D01*
X42819008Y57948841D01*
X42866627Y57853603D01*
G04 #@! TO.C,C5*
X59223966Y56690257D02*
X59271585Y56642638D01*
X59414442Y56595019D01*
X59509680Y56595019D01*
X59652538Y56642638D01*
X59747776Y56737876D01*
X59795395Y56833114D01*
X59843014Y57023590D01*
X59843014Y57166447D01*
X59795395Y57356923D01*
X59747776Y57452161D01*
X59652538Y57547400D01*
X59509680Y57595019D01*
X59414442Y57595019D01*
X59271585Y57547400D01*
X59223966Y57499780D01*
X58319204Y57595019D02*
X58795395Y57595019D01*
X58843014Y57118828D01*
X58795395Y57166447D01*
X58700157Y57214066D01*
X58462061Y57214066D01*
X58366823Y57166447D01*
X58319204Y57118828D01*
X58271585Y57023590D01*
X58271585Y56785495D01*
X58319204Y56690257D01*
X58366823Y56642638D01*
X58462061Y56595019D01*
X58700157Y56595019D01*
X58795395Y56642638D01*
X58843014Y56690257D01*
G04 #@! TO.C,C4*
X61038742Y52848566D02*
X61086361Y52896185D01*
X61133980Y53039042D01*
X61133980Y53134280D01*
X61086361Y53277138D01*
X60991123Y53372376D01*
X60895885Y53419995D01*
X60705409Y53467614D01*
X60562552Y53467614D01*
X60372076Y53419995D01*
X60276838Y53372376D01*
X60181600Y53277138D01*
X60133980Y53134280D01*
X60133980Y53039042D01*
X60181600Y52896185D01*
X60229219Y52848566D01*
X60467314Y51991423D02*
X61133980Y51991423D01*
X60086361Y52229519D02*
X60800647Y52467614D01*
X60800647Y51848566D01*
G04 #@! TO.C,C3*
X54929066Y56512457D02*
X54976685Y56464838D01*
X55119542Y56417219D01*
X55214780Y56417219D01*
X55357638Y56464838D01*
X55452876Y56560076D01*
X55500495Y56655314D01*
X55548114Y56845790D01*
X55548114Y56988647D01*
X55500495Y57179123D01*
X55452876Y57274361D01*
X55357638Y57369600D01*
X55214780Y57417219D01*
X55119542Y57417219D01*
X54976685Y57369600D01*
X54929066Y57321980D01*
X54595733Y57417219D02*
X53976685Y57417219D01*
X54310019Y57036266D01*
X54167161Y57036266D01*
X54071923Y56988647D01*
X54024304Y56941028D01*
X53976685Y56845790D01*
X53976685Y56607695D01*
X54024304Y56512457D01*
X54071923Y56464838D01*
X54167161Y56417219D01*
X54452876Y56417219D01*
X54548114Y56464838D01*
X54595733Y56512457D01*
G04 #@! TO.C,C2*
X43132538Y43722336D02*
X43132538Y43654993D01*
X43199882Y43520306D01*
X43267225Y43452962D01*
X43401913Y43385619D01*
X43536600Y43385619D01*
X43637615Y43419290D01*
X43805974Y43520306D01*
X43906989Y43621321D01*
X44008004Y43789680D01*
X44041676Y43890695D01*
X44041676Y44025382D01*
X43974332Y44160069D01*
X43906989Y44227413D01*
X43772302Y44294756D01*
X43704958Y44294756D01*
X43435584Y44564130D02*
X43435584Y44631474D01*
X43401913Y44732489D01*
X43233554Y44900848D01*
X43132538Y44934519D01*
X43065195Y44934519D01*
X42964180Y44900848D01*
X42896836Y44833504D01*
X42829493Y44698817D01*
X42829493Y43890695D01*
X42391760Y44328428D01*
G04 #@! TO.C,C1*
X39434750Y50153125D02*
X39502093Y50153125D01*
X39636780Y50220469D01*
X39704124Y50287812D01*
X39771467Y50422500D01*
X39771467Y50557187D01*
X39737796Y50658202D01*
X39636780Y50826561D01*
X39535765Y50927576D01*
X39367406Y51028591D01*
X39266391Y51062263D01*
X39131704Y51062263D01*
X38997017Y50994919D01*
X38929673Y50927576D01*
X38862330Y50792889D01*
X38862330Y50725545D01*
X38828658Y49412347D02*
X39232719Y49816408D01*
X39030689Y49614377D02*
X38323582Y50321484D01*
X38491941Y50287813D01*
X38626628Y50287812D01*
X38727643Y50321484D01*
G04 #@! TO.C,U1*
X46864427Y39233731D02*
X46292007Y38661311D01*
X46190992Y38627639D01*
X46123648Y38627639D01*
X46022633Y38661311D01*
X45887946Y38795998D01*
X45854274Y38897013D01*
X45854274Y38964357D01*
X45887946Y39065372D01*
X46460366Y39637792D01*
X45046152Y39637792D02*
X45450213Y39233731D01*
X45248183Y39435761D02*
X45955289Y40142868D01*
X45921618Y39974509D01*
X45921618Y39839822D01*
X45955289Y39738807D01*
G04 #@! TO.C,D88*
X325152380Y89714285D02*
X324152380Y89714285D01*
X324152380Y89476190D01*
X324200000Y89333333D01*
X324295238Y89238095D01*
X324390476Y89190476D01*
X324580952Y89142857D01*
X324723809Y89142857D01*
X324914285Y89190476D01*
X325009523Y89238095D01*
X325104761Y89333333D01*
X325152380Y89476190D01*
X325152380Y89714285D01*
X324580952Y88571428D02*
X324533333Y88666666D01*
X324485714Y88714285D01*
X324390476Y88761904D01*
X324342857Y88761904D01*
X324247619Y88714285D01*
X324200000Y88666666D01*
X324152380Y88571428D01*
X324152380Y88380952D01*
X324200000Y88285714D01*
X324247619Y88238095D01*
X324342857Y88190476D01*
X324390476Y88190476D01*
X324485714Y88238095D01*
X324533333Y88285714D01*
X324580952Y88380952D01*
X324580952Y88571428D01*
X324628571Y88666666D01*
X324676190Y88714285D01*
X324771428Y88761904D01*
X324961904Y88761904D01*
X325057142Y88714285D01*
X325104761Y88666666D01*
X325152380Y88571428D01*
X325152380Y88380952D01*
X325104761Y88285714D01*
X325057142Y88238095D01*
X324961904Y88190476D01*
X324771428Y88190476D01*
X324676190Y88238095D01*
X324628571Y88285714D01*
X324580952Y88380952D01*
X324580952Y87619047D02*
X324533333Y87714285D01*
X324485714Y87761904D01*
X324390476Y87809523D01*
X324342857Y87809523D01*
X324247619Y87761904D01*
X324200000Y87714285D01*
X324152380Y87619047D01*
X324152380Y87428571D01*
X324200000Y87333333D01*
X324247619Y87285714D01*
X324342857Y87238095D01*
X324390476Y87238095D01*
X324485714Y87285714D01*
X324533333Y87333333D01*
X324580952Y87428571D01*
X324580952Y87619047D01*
X324628571Y87714285D01*
X324676190Y87761904D01*
X324771428Y87809523D01*
X324961904Y87809523D01*
X325057142Y87761904D01*
X325104761Y87714285D01*
X325152380Y87619047D01*
X325152380Y87428571D01*
X325104761Y87333333D01*
X325057142Y87285714D01*
X324961904Y87238095D01*
X324771428Y87238095D01*
X324676190Y87285714D01*
X324628571Y87333333D01*
X324580952Y87428571D01*
G04 #@! TO.C,D87*
X314428380Y54300285D02*
X313428380Y54300285D01*
X313428380Y54062190D01*
X313476000Y53919333D01*
X313571238Y53824095D01*
X313666476Y53776476D01*
X313856952Y53728857D01*
X313999809Y53728857D01*
X314190285Y53776476D01*
X314285523Y53824095D01*
X314380761Y53919333D01*
X314428380Y54062190D01*
X314428380Y54300285D01*
X313856952Y53157428D02*
X313809333Y53252666D01*
X313761714Y53300285D01*
X313666476Y53347904D01*
X313618857Y53347904D01*
X313523619Y53300285D01*
X313476000Y53252666D01*
X313428380Y53157428D01*
X313428380Y52966952D01*
X313476000Y52871714D01*
X313523619Y52824095D01*
X313618857Y52776476D01*
X313666476Y52776476D01*
X313761714Y52824095D01*
X313809333Y52871714D01*
X313856952Y52966952D01*
X313856952Y53157428D01*
X313904571Y53252666D01*
X313952190Y53300285D01*
X314047428Y53347904D01*
X314237904Y53347904D01*
X314333142Y53300285D01*
X314380761Y53252666D01*
X314428380Y53157428D01*
X314428380Y52966952D01*
X314380761Y52871714D01*
X314333142Y52824095D01*
X314237904Y52776476D01*
X314047428Y52776476D01*
X313952190Y52824095D01*
X313904571Y52871714D01*
X313856952Y52966952D01*
X313428380Y52443142D02*
X313428380Y51776476D01*
X314428380Y52205047D01*
G04 #@! TO.C,D86*
X331537326Y14754417D02*
X330537326Y14754417D01*
X330537326Y14516322D01*
X330584946Y14373465D01*
X330680184Y14278227D01*
X330775422Y14230608D01*
X330965898Y14182989D01*
X331108755Y14182989D01*
X331299231Y14230608D01*
X331394469Y14278227D01*
X331489707Y14373465D01*
X331537326Y14516322D01*
X331537326Y14754417D01*
X330965898Y13611560D02*
X330918279Y13706798D01*
X330870660Y13754417D01*
X330775422Y13802036D01*
X330727803Y13802036D01*
X330632565Y13754417D01*
X330584946Y13706798D01*
X330537326Y13611560D01*
X330537326Y13421084D01*
X330584946Y13325846D01*
X330632565Y13278227D01*
X330727803Y13230608D01*
X330775422Y13230608D01*
X330870660Y13278227D01*
X330918279Y13325846D01*
X330965898Y13421084D01*
X330965898Y13611560D01*
X331013517Y13706798D01*
X331061136Y13754417D01*
X331156374Y13802036D01*
X331346850Y13802036D01*
X331442088Y13754417D01*
X331489707Y13706798D01*
X331537326Y13611560D01*
X331537326Y13421084D01*
X331489707Y13325846D01*
X331442088Y13278227D01*
X331346850Y13230608D01*
X331156374Y13230608D01*
X331061136Y13278227D01*
X331013517Y13325846D01*
X330965898Y13421084D01*
X330537326Y12373465D02*
X330537326Y12563941D01*
X330584946Y12659179D01*
X330632565Y12706798D01*
X330775422Y12802036D01*
X330965898Y12849655D01*
X331346850Y12849655D01*
X331442088Y12802036D01*
X331489707Y12754417D01*
X331537326Y12659179D01*
X331537326Y12468703D01*
X331489707Y12373465D01*
X331442088Y12325846D01*
X331346850Y12278227D01*
X331108755Y12278227D01*
X331013517Y12325846D01*
X330965898Y12373465D01*
X330918279Y12468703D01*
X330918279Y12659179D01*
X330965898Y12754417D01*
X331013517Y12802036D01*
X331108755Y12849655D01*
G04 #@! TO.C,D85*
X318052380Y33218285D02*
X317052380Y33218285D01*
X317052380Y32980190D01*
X317100000Y32837333D01*
X317195238Y32742095D01*
X317290476Y32694476D01*
X317480952Y32646857D01*
X317623809Y32646857D01*
X317814285Y32694476D01*
X317909523Y32742095D01*
X318004761Y32837333D01*
X318052380Y32980190D01*
X318052380Y33218285D01*
X317480952Y32075428D02*
X317433333Y32170666D01*
X317385714Y32218285D01*
X317290476Y32265904D01*
X317242857Y32265904D01*
X317147619Y32218285D01*
X317100000Y32170666D01*
X317052380Y32075428D01*
X317052380Y31884952D01*
X317100000Y31789714D01*
X317147619Y31742095D01*
X317242857Y31694476D01*
X317290476Y31694476D01*
X317385714Y31742095D01*
X317433333Y31789714D01*
X317480952Y31884952D01*
X317480952Y32075428D01*
X317528571Y32170666D01*
X317576190Y32218285D01*
X317671428Y32265904D01*
X317861904Y32265904D01*
X317957142Y32218285D01*
X318004761Y32170666D01*
X318052380Y32075428D01*
X318052380Y31884952D01*
X318004761Y31789714D01*
X317957142Y31742095D01*
X317861904Y31694476D01*
X317671428Y31694476D01*
X317576190Y31742095D01*
X317528571Y31789714D01*
X317480952Y31884952D01*
X317052380Y30789714D02*
X317052380Y31265904D01*
X317528571Y31313523D01*
X317480952Y31265904D01*
X317433333Y31170666D01*
X317433333Y30932571D01*
X317480952Y30837333D01*
X317528571Y30789714D01*
X317623809Y30742095D01*
X317861904Y30742095D01*
X317957142Y30789714D01*
X318004761Y30837333D01*
X318052380Y30932571D01*
X318052380Y31170666D01*
X318004761Y31265904D01*
X317957142Y31313523D01*
G04 #@! TO.C,D84*
X320524380Y71318285D02*
X319524380Y71318285D01*
X319524380Y71080190D01*
X319572000Y70937333D01*
X319667238Y70842095D01*
X319762476Y70794476D01*
X319952952Y70746857D01*
X320095809Y70746857D01*
X320286285Y70794476D01*
X320381523Y70842095D01*
X320476761Y70937333D01*
X320524380Y71080190D01*
X320524380Y71318285D01*
X319952952Y70175428D02*
X319905333Y70270666D01*
X319857714Y70318285D01*
X319762476Y70365904D01*
X319714857Y70365904D01*
X319619619Y70318285D01*
X319572000Y70270666D01*
X319524380Y70175428D01*
X319524380Y69984952D01*
X319572000Y69889714D01*
X319619619Y69842095D01*
X319714857Y69794476D01*
X319762476Y69794476D01*
X319857714Y69842095D01*
X319905333Y69889714D01*
X319952952Y69984952D01*
X319952952Y70175428D01*
X320000571Y70270666D01*
X320048190Y70318285D01*
X320143428Y70365904D01*
X320333904Y70365904D01*
X320429142Y70318285D01*
X320476761Y70270666D01*
X320524380Y70175428D01*
X320524380Y69984952D01*
X320476761Y69889714D01*
X320429142Y69842095D01*
X320333904Y69794476D01*
X320143428Y69794476D01*
X320048190Y69842095D01*
X320000571Y69889714D01*
X319952952Y69984952D01*
X319857714Y68937333D02*
X320524380Y68937333D01*
X319476761Y69175428D02*
X320191047Y69413523D01*
X320191047Y68794476D01*
G04 #@! TO.C,D83*
X299852380Y87614285D02*
X298852380Y87614285D01*
X298852380Y87376190D01*
X298900000Y87233333D01*
X298995238Y87138095D01*
X299090476Y87090476D01*
X299280952Y87042857D01*
X299423809Y87042857D01*
X299614285Y87090476D01*
X299709523Y87138095D01*
X299804761Y87233333D01*
X299852380Y87376190D01*
X299852380Y87614285D01*
X299280952Y86471428D02*
X299233333Y86566666D01*
X299185714Y86614285D01*
X299090476Y86661904D01*
X299042857Y86661904D01*
X298947619Y86614285D01*
X298900000Y86566666D01*
X298852380Y86471428D01*
X298852380Y86280952D01*
X298900000Y86185714D01*
X298947619Y86138095D01*
X299042857Y86090476D01*
X299090476Y86090476D01*
X299185714Y86138095D01*
X299233333Y86185714D01*
X299280952Y86280952D01*
X299280952Y86471428D01*
X299328571Y86566666D01*
X299376190Y86614285D01*
X299471428Y86661904D01*
X299661904Y86661904D01*
X299757142Y86614285D01*
X299804761Y86566666D01*
X299852380Y86471428D01*
X299852380Y86280952D01*
X299804761Y86185714D01*
X299757142Y86138095D01*
X299661904Y86090476D01*
X299471428Y86090476D01*
X299376190Y86138095D01*
X299328571Y86185714D01*
X299280952Y86280952D01*
X298852380Y85757142D02*
X298852380Y85138095D01*
X299233333Y85471428D01*
X299233333Y85328571D01*
X299280952Y85233333D01*
X299328571Y85185714D01*
X299423809Y85138095D01*
X299661904Y85138095D01*
X299757142Y85185714D01*
X299804761Y85233333D01*
X299852380Y85328571D01*
X299852380Y85614285D01*
X299804761Y85709523D01*
X299757142Y85757142D01*
G04 #@! TO.C,D82*
X312523380Y15057285D02*
X311523380Y15057285D01*
X311523380Y14819190D01*
X311571000Y14676333D01*
X311666238Y14581095D01*
X311761476Y14533476D01*
X311951952Y14485857D01*
X312094809Y14485857D01*
X312285285Y14533476D01*
X312380523Y14581095D01*
X312475761Y14676333D01*
X312523380Y14819190D01*
X312523380Y15057285D01*
X311951952Y13914428D02*
X311904333Y14009666D01*
X311856714Y14057285D01*
X311761476Y14104904D01*
X311713857Y14104904D01*
X311618619Y14057285D01*
X311571000Y14009666D01*
X311523380Y13914428D01*
X311523380Y13723952D01*
X311571000Y13628714D01*
X311618619Y13581095D01*
X311713857Y13533476D01*
X311761476Y13533476D01*
X311856714Y13581095D01*
X311904333Y13628714D01*
X311951952Y13723952D01*
X311951952Y13914428D01*
X311999571Y14009666D01*
X312047190Y14057285D01*
X312142428Y14104904D01*
X312332904Y14104904D01*
X312428142Y14057285D01*
X312475761Y14009666D01*
X312523380Y13914428D01*
X312523380Y13723952D01*
X312475761Y13628714D01*
X312428142Y13581095D01*
X312332904Y13533476D01*
X312142428Y13533476D01*
X312047190Y13581095D01*
X311999571Y13628714D01*
X311951952Y13723952D01*
X311618619Y13152523D02*
X311571000Y13104904D01*
X311523380Y13009666D01*
X311523380Y12771571D01*
X311571000Y12676333D01*
X311618619Y12628714D01*
X311713857Y12581095D01*
X311809095Y12581095D01*
X311951952Y12628714D01*
X312523380Y13200142D01*
X312523380Y12581095D01*
G04 #@! TO.C,D78*
X297156380Y69920285D02*
X296156380Y69920285D01*
X296156380Y69682190D01*
X296204000Y69539333D01*
X296299238Y69444095D01*
X296394476Y69396476D01*
X296584952Y69348857D01*
X296727809Y69348857D01*
X296918285Y69396476D01*
X297013523Y69444095D01*
X297108761Y69539333D01*
X297156380Y69682190D01*
X297156380Y69920285D01*
X296156380Y69015523D02*
X296156380Y68348857D01*
X297156380Y68777428D01*
X296584952Y67825047D02*
X296537333Y67920285D01*
X296489714Y67967904D01*
X296394476Y68015523D01*
X296346857Y68015523D01*
X296251619Y67967904D01*
X296204000Y67920285D01*
X296156380Y67825047D01*
X296156380Y67634571D01*
X296204000Y67539333D01*
X296251619Y67491714D01*
X296346857Y67444095D01*
X296394476Y67444095D01*
X296489714Y67491714D01*
X296537333Y67539333D01*
X296584952Y67634571D01*
X296584952Y67825047D01*
X296632571Y67920285D01*
X296680190Y67967904D01*
X296775428Y68015523D01*
X296965904Y68015523D01*
X297061142Y67967904D01*
X297108761Y67920285D01*
X297156380Y67825047D01*
X297156380Y67634571D01*
X297108761Y67539333D01*
X297061142Y67491714D01*
X296965904Y67444095D01*
X296775428Y67444095D01*
X296680190Y67491714D01*
X296632571Y67539333D01*
X296584952Y67634571D01*
G04 #@! TO.C,D77*
X293524701Y89714285D02*
X292524701Y89714285D01*
X292524701Y89476190D01*
X292572321Y89333333D01*
X292667559Y89238095D01*
X292762797Y89190476D01*
X292953273Y89142857D01*
X293096130Y89142857D01*
X293286606Y89190476D01*
X293381844Y89238095D01*
X293477082Y89333333D01*
X293524701Y89476190D01*
X293524701Y89714285D01*
X292524701Y88809523D02*
X292524701Y88142857D01*
X293524701Y88571428D01*
X292524701Y87857142D02*
X292524701Y87190476D01*
X293524701Y87619047D01*
G04 #@! TO.C,D76*
X290044380Y34742285D02*
X289044380Y34742285D01*
X289044380Y34504190D01*
X289092000Y34361333D01*
X289187238Y34266095D01*
X289282476Y34218476D01*
X289472952Y34170857D01*
X289615809Y34170857D01*
X289806285Y34218476D01*
X289901523Y34266095D01*
X289996761Y34361333D01*
X290044380Y34504190D01*
X290044380Y34742285D01*
X289044380Y33837523D02*
X289044380Y33170857D01*
X290044380Y33599428D01*
X289044380Y32361333D02*
X289044380Y32551809D01*
X289092000Y32647047D01*
X289139619Y32694666D01*
X289282476Y32789904D01*
X289472952Y32837523D01*
X289853904Y32837523D01*
X289949142Y32789904D01*
X289996761Y32742285D01*
X290044380Y32647047D01*
X290044380Y32456571D01*
X289996761Y32361333D01*
X289949142Y32313714D01*
X289853904Y32266095D01*
X289615809Y32266095D01*
X289520571Y32313714D01*
X289472952Y32361333D01*
X289425333Y32456571D01*
X289425333Y32647047D01*
X289472952Y32742285D01*
X289520571Y32789904D01*
X289615809Y32837523D01*
G04 #@! TO.C,D75*
X297410380Y13661285D02*
X296410380Y13661285D01*
X296410380Y13423190D01*
X296458000Y13280333D01*
X296553238Y13185095D01*
X296648476Y13137476D01*
X296838952Y13089857D01*
X296981809Y13089857D01*
X297172285Y13137476D01*
X297267523Y13185095D01*
X297362761Y13280333D01*
X297410380Y13423190D01*
X297410380Y13661285D01*
X296410380Y12756523D02*
X296410380Y12089857D01*
X297410380Y12518428D01*
X296410380Y11232714D02*
X296410380Y11708904D01*
X296886571Y11756523D01*
X296838952Y11708904D01*
X296791333Y11613666D01*
X296791333Y11375571D01*
X296838952Y11280333D01*
X296886571Y11232714D01*
X296981809Y11185095D01*
X297219904Y11185095D01*
X297315142Y11232714D01*
X297362761Y11280333D01*
X297410380Y11375571D01*
X297410380Y11613666D01*
X297362761Y11708904D01*
X297315142Y11756523D01*
G04 #@! TO.C,D74*
X288520380Y52522285D02*
X287520380Y52522285D01*
X287520380Y52284190D01*
X287568000Y52141333D01*
X287663238Y52046095D01*
X287758476Y51998476D01*
X287948952Y51950857D01*
X288091809Y51950857D01*
X288282285Y51998476D01*
X288377523Y52046095D01*
X288472761Y52141333D01*
X288520380Y52284190D01*
X288520380Y52522285D01*
X287520380Y51617523D02*
X287520380Y50950857D01*
X288520380Y51379428D01*
X287853714Y50141333D02*
X288520380Y50141333D01*
X287472761Y50379428D02*
X288187047Y50617523D01*
X288187047Y49998476D01*
G04 #@! TO.C,D73*
X277852380Y71318285D02*
X276852380Y71318285D01*
X276852380Y71080190D01*
X276900000Y70937333D01*
X276995238Y70842095D01*
X277090476Y70794476D01*
X277280952Y70746857D01*
X277423809Y70746857D01*
X277614285Y70794476D01*
X277709523Y70842095D01*
X277804761Y70937333D01*
X277852380Y71080190D01*
X277852380Y71318285D01*
X276852380Y70413523D02*
X276852380Y69746857D01*
X277852380Y70175428D01*
X276852380Y69461142D02*
X276852380Y68842095D01*
X277233333Y69175428D01*
X277233333Y69032571D01*
X277280952Y68937333D01*
X277328571Y68889714D01*
X277423809Y68842095D01*
X277661904Y68842095D01*
X277757142Y68889714D01*
X277804761Y68937333D01*
X277852380Y69032571D01*
X277852380Y69318285D01*
X277804761Y69413523D01*
X277757142Y69461142D01*
G04 #@! TO.C,D72*
X274352380Y87914285D02*
X273352380Y87914285D01*
X273352380Y87676190D01*
X273400000Y87533333D01*
X273495238Y87438095D01*
X273590476Y87390476D01*
X273780952Y87342857D01*
X273923809Y87342857D01*
X274114285Y87390476D01*
X274209523Y87438095D01*
X274304761Y87533333D01*
X274352380Y87676190D01*
X274352380Y87914285D01*
X273352380Y87009523D02*
X273352380Y86342857D01*
X274352380Y86771428D01*
X273447619Y86009523D02*
X273400000Y85961904D01*
X273352380Y85866666D01*
X273352380Y85628571D01*
X273400000Y85533333D01*
X273447619Y85485714D01*
X273542857Y85438095D01*
X273638095Y85438095D01*
X273780952Y85485714D01*
X274352380Y86057142D01*
X274352380Y85438095D01*
G04 #@! TO.C,D71*
X243562380Y14677285D02*
X242562380Y14677285D01*
X242562380Y14439190D01*
X242610000Y14296333D01*
X242705238Y14201095D01*
X242800476Y14153476D01*
X242990952Y14105857D01*
X243133809Y14105857D01*
X243324285Y14153476D01*
X243419523Y14201095D01*
X243514761Y14296333D01*
X243562380Y14439190D01*
X243562380Y14677285D01*
X242562380Y13772523D02*
X242562380Y13105857D01*
X243562380Y13534428D01*
X243562380Y12201095D02*
X243562380Y12772523D01*
X243562380Y12486809D02*
X242562380Y12486809D01*
X242705238Y12582047D01*
X242800476Y12677285D01*
X242848095Y12772523D01*
G04 #@! TO.C,D70*
X272772380Y36140285D02*
X271772380Y36140285D01*
X271772380Y35902190D01*
X271820000Y35759333D01*
X271915238Y35664095D01*
X272010476Y35616476D01*
X272200952Y35568857D01*
X272343809Y35568857D01*
X272534285Y35616476D01*
X272629523Y35664095D01*
X272724761Y35759333D01*
X272772380Y35902190D01*
X272772380Y36140285D01*
X271772380Y35235523D02*
X271772380Y34568857D01*
X272772380Y34997428D01*
X271772380Y33997428D02*
X271772380Y33902190D01*
X271820000Y33806952D01*
X271867619Y33759333D01*
X271962857Y33711714D01*
X272153333Y33664095D01*
X272391428Y33664095D01*
X272581904Y33711714D01*
X272677142Y33759333D01*
X272724761Y33806952D01*
X272772380Y33902190D01*
X272772380Y33997428D01*
X272724761Y34092666D01*
X272677142Y34140285D01*
X272581904Y34187904D01*
X272391428Y34235523D01*
X272153333Y34235523D01*
X271962857Y34187904D01*
X271867619Y34140285D01*
X271820000Y34092666D01*
X271772380Y33997428D01*
G04 #@! TO.C,D69*
X269100715Y54333914D02*
X268100715Y54333914D01*
X268100715Y54095819D01*
X268148335Y53952962D01*
X268243573Y53857724D01*
X268338811Y53810105D01*
X268529287Y53762486D01*
X268672144Y53762486D01*
X268862620Y53810105D01*
X268957858Y53857724D01*
X269053096Y53952962D01*
X269100715Y54095819D01*
X269100715Y54333914D01*
X268100715Y52905343D02*
X268100715Y53095819D01*
X268148335Y53191057D01*
X268195954Y53238676D01*
X268338811Y53333914D01*
X268529287Y53381533D01*
X268910239Y53381533D01*
X269005477Y53333914D01*
X269053096Y53286295D01*
X269100715Y53191057D01*
X269100715Y53000581D01*
X269053096Y52905343D01*
X269005477Y52857724D01*
X268910239Y52810105D01*
X268672144Y52810105D01*
X268576906Y52857724D01*
X268529287Y52905343D01*
X268481668Y53000581D01*
X268481668Y53191057D01*
X268529287Y53286295D01*
X268576906Y53333914D01*
X268672144Y53381533D01*
X269100715Y52333914D02*
X269100715Y52143438D01*
X269053096Y52048200D01*
X269005477Y52000581D01*
X268862620Y51905343D01*
X268672144Y51857724D01*
X268291192Y51857724D01*
X268195954Y51905343D01*
X268148335Y51952962D01*
X268100715Y52048200D01*
X268100715Y52238676D01*
X268148335Y52333914D01*
X268195954Y52381533D01*
X268291192Y52429152D01*
X268529287Y52429152D01*
X268624525Y52381533D01*
X268672144Y52333914D01*
X268719763Y52238676D01*
X268719763Y52048200D01*
X268672144Y51952962D01*
X268624525Y51905343D01*
X268529287Y51857724D01*
G04 #@! TO.C,D68*
X265152380Y69920285D02*
X264152380Y69920285D01*
X264152380Y69682190D01*
X264200000Y69539333D01*
X264295238Y69444095D01*
X264390476Y69396476D01*
X264580952Y69348857D01*
X264723809Y69348857D01*
X264914285Y69396476D01*
X265009523Y69444095D01*
X265104761Y69539333D01*
X265152380Y69682190D01*
X265152380Y69920285D01*
X264152380Y68491714D02*
X264152380Y68682190D01*
X264200000Y68777428D01*
X264247619Y68825047D01*
X264390476Y68920285D01*
X264580952Y68967904D01*
X264961904Y68967904D01*
X265057142Y68920285D01*
X265104761Y68872666D01*
X265152380Y68777428D01*
X265152380Y68586952D01*
X265104761Y68491714D01*
X265057142Y68444095D01*
X264961904Y68396476D01*
X264723809Y68396476D01*
X264628571Y68444095D01*
X264580952Y68491714D01*
X264533333Y68586952D01*
X264533333Y68777428D01*
X264580952Y68872666D01*
X264628571Y68920285D01*
X264723809Y68967904D01*
X264580952Y67825047D02*
X264533333Y67920285D01*
X264485714Y67967904D01*
X264390476Y68015523D01*
X264342857Y68015523D01*
X264247619Y67967904D01*
X264200000Y67920285D01*
X264152380Y67825047D01*
X264152380Y67634571D01*
X264200000Y67539333D01*
X264247619Y67491714D01*
X264342857Y67444095D01*
X264390476Y67444095D01*
X264485714Y67491714D01*
X264533333Y67539333D01*
X264580952Y67634571D01*
X264580952Y67825047D01*
X264628571Y67920285D01*
X264676190Y67967904D01*
X264771428Y68015523D01*
X264961904Y68015523D01*
X265057142Y67967904D01*
X265104761Y67920285D01*
X265152380Y67825047D01*
X265152380Y67634571D01*
X265104761Y67539333D01*
X265057142Y67491714D01*
X264961904Y67444095D01*
X264771428Y67444095D01*
X264676190Y67491714D01*
X264628571Y67539333D01*
X264580952Y67634571D01*
G04 #@! TO.C,D67*
X255452380Y89614285D02*
X254452380Y89614285D01*
X254452380Y89376190D01*
X254500000Y89233333D01*
X254595238Y89138095D01*
X254690476Y89090476D01*
X254880952Y89042857D01*
X255023809Y89042857D01*
X255214285Y89090476D01*
X255309523Y89138095D01*
X255404761Y89233333D01*
X255452380Y89376190D01*
X255452380Y89614285D01*
X254452380Y88185714D02*
X254452380Y88376190D01*
X254500000Y88471428D01*
X254547619Y88519047D01*
X254690476Y88614285D01*
X254880952Y88661904D01*
X255261904Y88661904D01*
X255357142Y88614285D01*
X255404761Y88566666D01*
X255452380Y88471428D01*
X255452380Y88280952D01*
X255404761Y88185714D01*
X255357142Y88138095D01*
X255261904Y88090476D01*
X255023809Y88090476D01*
X254928571Y88138095D01*
X254880952Y88185714D01*
X254833333Y88280952D01*
X254833333Y88471428D01*
X254880952Y88566666D01*
X254928571Y88614285D01*
X255023809Y88661904D01*
X254452380Y87757142D02*
X254452380Y87090476D01*
X255452380Y87519047D01*
G04 #@! TO.C,D66*
X260072380Y34742285D02*
X259072380Y34742285D01*
X259072380Y34504190D01*
X259120000Y34361333D01*
X259215238Y34266095D01*
X259310476Y34218476D01*
X259500952Y34170857D01*
X259643809Y34170857D01*
X259834285Y34218476D01*
X259929523Y34266095D01*
X260024761Y34361333D01*
X260072380Y34504190D01*
X260072380Y34742285D01*
X259072380Y33313714D02*
X259072380Y33504190D01*
X259120000Y33599428D01*
X259167619Y33647047D01*
X259310476Y33742285D01*
X259500952Y33789904D01*
X259881904Y33789904D01*
X259977142Y33742285D01*
X260024761Y33694666D01*
X260072380Y33599428D01*
X260072380Y33408952D01*
X260024761Y33313714D01*
X259977142Y33266095D01*
X259881904Y33218476D01*
X259643809Y33218476D01*
X259548571Y33266095D01*
X259500952Y33313714D01*
X259453333Y33408952D01*
X259453333Y33599428D01*
X259500952Y33694666D01*
X259548571Y33742285D01*
X259643809Y33789904D01*
X259072380Y32361333D02*
X259072380Y32551809D01*
X259120000Y32647047D01*
X259167619Y32694666D01*
X259310476Y32789904D01*
X259500952Y32837523D01*
X259881904Y32837523D01*
X259977142Y32789904D01*
X260024761Y32742285D01*
X260072380Y32647047D01*
X260072380Y32456571D01*
X260024761Y32361333D01*
X259977142Y32313714D01*
X259881904Y32266095D01*
X259643809Y32266095D01*
X259548571Y32313714D01*
X259500952Y32361333D01*
X259453333Y32456571D01*
X259453333Y32647047D01*
X259500952Y32742285D01*
X259548571Y32789904D01*
X259643809Y32837523D01*
G04 #@! TO.C,D64*
X246356380Y71318285D02*
X245356380Y71318285D01*
X245356380Y71080190D01*
X245404000Y70937333D01*
X245499238Y70842095D01*
X245594476Y70794476D01*
X245784952Y70746857D01*
X245927809Y70746857D01*
X246118285Y70794476D01*
X246213523Y70842095D01*
X246308761Y70937333D01*
X246356380Y71080190D01*
X246356380Y71318285D01*
X245356380Y69889714D02*
X245356380Y70080190D01*
X245404000Y70175428D01*
X245451619Y70223047D01*
X245594476Y70318285D01*
X245784952Y70365904D01*
X246165904Y70365904D01*
X246261142Y70318285D01*
X246308761Y70270666D01*
X246356380Y70175428D01*
X246356380Y69984952D01*
X246308761Y69889714D01*
X246261142Y69842095D01*
X246165904Y69794476D01*
X245927809Y69794476D01*
X245832571Y69842095D01*
X245784952Y69889714D01*
X245737333Y69984952D01*
X245737333Y70175428D01*
X245784952Y70270666D01*
X245832571Y70318285D01*
X245927809Y70365904D01*
X245689714Y68937333D02*
X246356380Y68937333D01*
X245308761Y69175428D02*
X246023047Y69413523D01*
X246023047Y68794476D01*
G04 #@! TO.C,D63*
X236352380Y88314285D02*
X235352380Y88314285D01*
X235352380Y88076190D01*
X235400000Y87933333D01*
X235495238Y87838095D01*
X235590476Y87790476D01*
X235780952Y87742857D01*
X235923809Y87742857D01*
X236114285Y87790476D01*
X236209523Y87838095D01*
X236304761Y87933333D01*
X236352380Y88076190D01*
X236352380Y88314285D01*
X235352380Y86885714D02*
X235352380Y87076190D01*
X235400000Y87171428D01*
X235447619Y87219047D01*
X235590476Y87314285D01*
X235780952Y87361904D01*
X236161904Y87361904D01*
X236257142Y87314285D01*
X236304761Y87266666D01*
X236352380Y87171428D01*
X236352380Y86980952D01*
X236304761Y86885714D01*
X236257142Y86838095D01*
X236161904Y86790476D01*
X235923809Y86790476D01*
X235828571Y86838095D01*
X235780952Y86885714D01*
X235733333Y86980952D01*
X235733333Y87171428D01*
X235780952Y87266666D01*
X235828571Y87314285D01*
X235923809Y87361904D01*
X235352380Y86457142D02*
X235352380Y85838095D01*
X235733333Y86171428D01*
X235733333Y86028571D01*
X235780952Y85933333D01*
X235828571Y85885714D01*
X235923809Y85838095D01*
X236161904Y85838095D01*
X236257142Y85885714D01*
X236304761Y85933333D01*
X236352380Y86028571D01*
X236352380Y86314285D01*
X236304761Y86409523D01*
X236257142Y86457142D01*
G04 #@! TO.C,D61*
X240768380Y36144588D02*
X239768380Y36144588D01*
X239768380Y35906493D01*
X239816000Y35763636D01*
X239911238Y35668398D01*
X240006476Y35620779D01*
X240196952Y35573160D01*
X240339809Y35573160D01*
X240530285Y35620779D01*
X240625523Y35668398D01*
X240720761Y35763636D01*
X240768380Y35906493D01*
X240768380Y36144588D01*
X239768380Y34716017D02*
X239768380Y34906493D01*
X239816000Y35001731D01*
X239863619Y35049350D01*
X240006476Y35144588D01*
X240196952Y35192207D01*
X240577904Y35192207D01*
X240673142Y35144588D01*
X240720761Y35096969D01*
X240768380Y35001731D01*
X240768380Y34811255D01*
X240720761Y34716017D01*
X240673142Y34668398D01*
X240577904Y34620779D01*
X240339809Y34620779D01*
X240244571Y34668398D01*
X240196952Y34716017D01*
X240149333Y34811255D01*
X240149333Y35001731D01*
X240196952Y35096969D01*
X240244571Y35144588D01*
X240339809Y35192207D01*
X240768380Y33668398D02*
X240768380Y34239826D01*
X240768380Y33954112D02*
X239768380Y33954112D01*
X239911238Y34049350D01*
X240006476Y34144588D01*
X240054095Y34239826D01*
G04 #@! TO.C,D59*
X227052380Y69920285D02*
X226052380Y69920285D01*
X226052380Y69682190D01*
X226100000Y69539333D01*
X226195238Y69444095D01*
X226290476Y69396476D01*
X226480952Y69348857D01*
X226623809Y69348857D01*
X226814285Y69396476D01*
X226909523Y69444095D01*
X227004761Y69539333D01*
X227052380Y69682190D01*
X227052380Y69920285D01*
X226052380Y68444095D02*
X226052380Y68920285D01*
X226528571Y68967904D01*
X226480952Y68920285D01*
X226433333Y68825047D01*
X226433333Y68586952D01*
X226480952Y68491714D01*
X226528571Y68444095D01*
X226623809Y68396476D01*
X226861904Y68396476D01*
X226957142Y68444095D01*
X227004761Y68491714D01*
X227052380Y68586952D01*
X227052380Y68825047D01*
X227004761Y68920285D01*
X226957142Y68967904D01*
X227052380Y67920285D02*
X227052380Y67729809D01*
X227004761Y67634571D01*
X226957142Y67586952D01*
X226814285Y67491714D01*
X226623809Y67444095D01*
X226242857Y67444095D01*
X226147619Y67491714D01*
X226100000Y67539333D01*
X226052380Y67634571D01*
X226052380Y67825047D01*
X226100000Y67920285D01*
X226147619Y67967904D01*
X226242857Y68015523D01*
X226480952Y68015523D01*
X226576190Y67967904D01*
X226623809Y67920285D01*
X226671428Y67825047D01*
X226671428Y67634571D01*
X226623809Y67539333D01*
X226576190Y67491714D01*
X226480952Y67444095D01*
G04 #@! TO.C,D58*
X217552380Y89614285D02*
X216552380Y89614285D01*
X216552380Y89376190D01*
X216600000Y89233333D01*
X216695238Y89138095D01*
X216790476Y89090476D01*
X216980952Y89042857D01*
X217123809Y89042857D01*
X217314285Y89090476D01*
X217409523Y89138095D01*
X217504761Y89233333D01*
X217552380Y89376190D01*
X217552380Y89614285D01*
X216552380Y88138095D02*
X216552380Y88614285D01*
X217028571Y88661904D01*
X216980952Y88614285D01*
X216933333Y88519047D01*
X216933333Y88280952D01*
X216980952Y88185714D01*
X217028571Y88138095D01*
X217123809Y88090476D01*
X217361904Y88090476D01*
X217457142Y88138095D01*
X217504761Y88185714D01*
X217552380Y88280952D01*
X217552380Y88519047D01*
X217504761Y88614285D01*
X217457142Y88661904D01*
X216980952Y87519047D02*
X216933333Y87614285D01*
X216885714Y87661904D01*
X216790476Y87709523D01*
X216742857Y87709523D01*
X216647619Y87661904D01*
X216600000Y87614285D01*
X216552380Y87519047D01*
X216552380Y87328571D01*
X216600000Y87233333D01*
X216647619Y87185714D01*
X216742857Y87138095D01*
X216790476Y87138095D01*
X216885714Y87185714D01*
X216933333Y87233333D01*
X216980952Y87328571D01*
X216980952Y87519047D01*
X217028571Y87614285D01*
X217076190Y87661904D01*
X217171428Y87709523D01*
X217361904Y87709523D01*
X217457142Y87661904D01*
X217504761Y87614285D01*
X217552380Y87519047D01*
X217552380Y87328571D01*
X217504761Y87233333D01*
X217457142Y87185714D01*
X217361904Y87138095D01*
X217171428Y87138095D01*
X217076190Y87185714D01*
X217028571Y87233333D01*
X216980952Y87328571D01*
G04 #@! TO.C,D57*
X221972380Y34742285D02*
X220972380Y34742285D01*
X220972380Y34504190D01*
X221020000Y34361333D01*
X221115238Y34266095D01*
X221210476Y34218476D01*
X221400952Y34170857D01*
X221543809Y34170857D01*
X221734285Y34218476D01*
X221829523Y34266095D01*
X221924761Y34361333D01*
X221972380Y34504190D01*
X221972380Y34742285D01*
X220972380Y33266095D02*
X220972380Y33742285D01*
X221448571Y33789904D01*
X221400952Y33742285D01*
X221353333Y33647047D01*
X221353333Y33408952D01*
X221400952Y33313714D01*
X221448571Y33266095D01*
X221543809Y33218476D01*
X221781904Y33218476D01*
X221877142Y33266095D01*
X221924761Y33313714D01*
X221972380Y33408952D01*
X221972380Y33647047D01*
X221924761Y33742285D01*
X221877142Y33789904D01*
X220972380Y32885142D02*
X220972380Y32218476D01*
X221972380Y32647047D01*
G04 #@! TO.C,D56*
X212320380Y52522285D02*
X211320380Y52522285D01*
X211320380Y52284190D01*
X211368000Y52141333D01*
X211463238Y52046095D01*
X211558476Y51998476D01*
X211748952Y51950857D01*
X211891809Y51950857D01*
X212082285Y51998476D01*
X212177523Y52046095D01*
X212272761Y52141333D01*
X212320380Y52284190D01*
X212320380Y52522285D01*
X211320380Y51046095D02*
X211320380Y51522285D01*
X211796571Y51569904D01*
X211748952Y51522285D01*
X211701333Y51427047D01*
X211701333Y51188952D01*
X211748952Y51093714D01*
X211796571Y51046095D01*
X211891809Y50998476D01*
X212129904Y50998476D01*
X212225142Y51046095D01*
X212272761Y51093714D01*
X212320380Y51188952D01*
X212320380Y51427047D01*
X212272761Y51522285D01*
X212225142Y51569904D01*
X211320380Y50141333D02*
X211320380Y50331809D01*
X211368000Y50427047D01*
X211415619Y50474666D01*
X211558476Y50569904D01*
X211748952Y50617523D01*
X212129904Y50617523D01*
X212225142Y50569904D01*
X212272761Y50522285D01*
X212320380Y50427047D01*
X212320380Y50236571D01*
X212272761Y50141333D01*
X212225142Y50093714D01*
X212129904Y50046095D01*
X211891809Y50046095D01*
X211796571Y50093714D01*
X211748952Y50141333D01*
X211701333Y50236571D01*
X211701333Y50427047D01*
X211748952Y50522285D01*
X211796571Y50569904D01*
X211891809Y50617523D01*
G04 #@! TO.C,D55*
X207748380Y71318285D02*
X206748380Y71318285D01*
X206748380Y71080190D01*
X206796000Y70937333D01*
X206891238Y70842095D01*
X206986476Y70794476D01*
X207176952Y70746857D01*
X207319809Y70746857D01*
X207510285Y70794476D01*
X207605523Y70842095D01*
X207700761Y70937333D01*
X207748380Y71080190D01*
X207748380Y71318285D01*
X206748380Y69842095D02*
X206748380Y70318285D01*
X207224571Y70365904D01*
X207176952Y70318285D01*
X207129333Y70223047D01*
X207129333Y69984952D01*
X207176952Y69889714D01*
X207224571Y69842095D01*
X207319809Y69794476D01*
X207557904Y69794476D01*
X207653142Y69842095D01*
X207700761Y69889714D01*
X207748380Y69984952D01*
X207748380Y70223047D01*
X207700761Y70318285D01*
X207653142Y70365904D01*
X206748380Y68889714D02*
X206748380Y69365904D01*
X207224571Y69413523D01*
X207176952Y69365904D01*
X207129333Y69270666D01*
X207129333Y69032571D01*
X207176952Y68937333D01*
X207224571Y68889714D01*
X207319809Y68842095D01*
X207557904Y68842095D01*
X207653142Y68889714D01*
X207700761Y68937333D01*
X207748380Y69032571D01*
X207748380Y69270666D01*
X207700761Y69365904D01*
X207653142Y69413523D01*
G04 #@! TO.C,D54*
X198552380Y88214285D02*
X197552380Y88214285D01*
X197552380Y87976190D01*
X197600000Y87833333D01*
X197695238Y87738095D01*
X197790476Y87690476D01*
X197980952Y87642857D01*
X198123809Y87642857D01*
X198314285Y87690476D01*
X198409523Y87738095D01*
X198504761Y87833333D01*
X198552380Y87976190D01*
X198552380Y88214285D01*
X197552380Y86738095D02*
X197552380Y87214285D01*
X198028571Y87261904D01*
X197980952Y87214285D01*
X197933333Y87119047D01*
X197933333Y86880952D01*
X197980952Y86785714D01*
X198028571Y86738095D01*
X198123809Y86690476D01*
X198361904Y86690476D01*
X198457142Y86738095D01*
X198504761Y86785714D01*
X198552380Y86880952D01*
X198552380Y87119047D01*
X198504761Y87214285D01*
X198457142Y87261904D01*
X197885714Y85833333D02*
X198552380Y85833333D01*
X197504761Y86071428D02*
X198219047Y86309523D01*
X198219047Y85690476D01*
G04 #@! TO.C,D53*
X198858380Y14676285D02*
X197858380Y14676285D01*
X197858380Y14438190D01*
X197906000Y14295333D01*
X198001238Y14200095D01*
X198096476Y14152476D01*
X198286952Y14104857D01*
X198429809Y14104857D01*
X198620285Y14152476D01*
X198715523Y14200095D01*
X198810761Y14295333D01*
X198858380Y14438190D01*
X198858380Y14676285D01*
X197858380Y13200095D02*
X197858380Y13676285D01*
X198334571Y13723904D01*
X198286952Y13676285D01*
X198239333Y13581047D01*
X198239333Y13342952D01*
X198286952Y13247714D01*
X198334571Y13200095D01*
X198429809Y13152476D01*
X198667904Y13152476D01*
X198763142Y13200095D01*
X198810761Y13247714D01*
X198858380Y13342952D01*
X198858380Y13581047D01*
X198810761Y13676285D01*
X198763142Y13723904D01*
X197858380Y12819142D02*
X197858380Y12200095D01*
X198239333Y12533428D01*
X198239333Y12390571D01*
X198286952Y12295333D01*
X198334571Y12247714D01*
X198429809Y12200095D01*
X198667904Y12200095D01*
X198763142Y12247714D01*
X198810761Y12295333D01*
X198858380Y12390571D01*
X198858380Y12676285D01*
X198810761Y12771523D01*
X198763142Y12819142D01*
G04 #@! TO.C,D52*
X202684303Y35885833D02*
X201684303Y35885833D01*
X201684303Y35647738D01*
X201731923Y35504881D01*
X201827161Y35409643D01*
X201922399Y35362024D01*
X202112875Y35314405D01*
X202255732Y35314405D01*
X202446208Y35362024D01*
X202541446Y35409643D01*
X202636684Y35504881D01*
X202684303Y35647738D01*
X202684303Y35885833D01*
X201684303Y34409643D02*
X201684303Y34885833D01*
X202160494Y34933452D01*
X202112875Y34885833D01*
X202065256Y34790595D01*
X202065256Y34552500D01*
X202112875Y34457262D01*
X202160494Y34409643D01*
X202255732Y34362024D01*
X202493827Y34362024D01*
X202589065Y34409643D01*
X202636684Y34457262D01*
X202684303Y34552500D01*
X202684303Y34790595D01*
X202636684Y34885833D01*
X202589065Y34933452D01*
X201779542Y33981071D02*
X201731923Y33933452D01*
X201684303Y33838214D01*
X201684303Y33600119D01*
X201731923Y33504881D01*
X201779542Y33457262D01*
X201874780Y33409643D01*
X201970018Y33409643D01*
X202112875Y33457262D01*
X202684303Y34028690D01*
X202684303Y33409643D01*
G04 #@! TO.C,D51*
X192991442Y54435581D02*
X191991442Y54435581D01*
X191991442Y54197486D01*
X192039062Y54054629D01*
X192134300Y53959391D01*
X192229538Y53911772D01*
X192420014Y53864153D01*
X192562871Y53864153D01*
X192753347Y53911772D01*
X192848585Y53959391D01*
X192943823Y54054629D01*
X192991442Y54197486D01*
X192991442Y54435581D01*
X191991442Y52959391D02*
X191991442Y53435581D01*
X192467633Y53483200D01*
X192420014Y53435581D01*
X192372395Y53340343D01*
X192372395Y53102248D01*
X192420014Y53007010D01*
X192467633Y52959391D01*
X192562871Y52911772D01*
X192800966Y52911772D01*
X192896204Y52959391D01*
X192943823Y53007010D01*
X192991442Y53102248D01*
X192991442Y53340343D01*
X192943823Y53435581D01*
X192896204Y53483200D01*
X192991442Y51959391D02*
X192991442Y52530819D01*
X192991442Y52245105D02*
X191991442Y52245105D01*
X192134300Y52340343D01*
X192229538Y52435581D01*
X192277157Y52530819D01*
G04 #@! TO.C,D50*
X188952380Y69920285D02*
X187952380Y69920285D01*
X187952380Y69682190D01*
X188000000Y69539333D01*
X188095238Y69444095D01*
X188190476Y69396476D01*
X188380952Y69348857D01*
X188523809Y69348857D01*
X188714285Y69396476D01*
X188809523Y69444095D01*
X188904761Y69539333D01*
X188952380Y69682190D01*
X188952380Y69920285D01*
X187952380Y68444095D02*
X187952380Y68920285D01*
X188428571Y68967904D01*
X188380952Y68920285D01*
X188333333Y68825047D01*
X188333333Y68586952D01*
X188380952Y68491714D01*
X188428571Y68444095D01*
X188523809Y68396476D01*
X188761904Y68396476D01*
X188857142Y68444095D01*
X188904761Y68491714D01*
X188952380Y68586952D01*
X188952380Y68825047D01*
X188904761Y68920285D01*
X188857142Y68967904D01*
X187952380Y67777428D02*
X187952380Y67682190D01*
X188000000Y67586952D01*
X188047619Y67539333D01*
X188142857Y67491714D01*
X188333333Y67444095D01*
X188571428Y67444095D01*
X188761904Y67491714D01*
X188857142Y67539333D01*
X188904761Y67586952D01*
X188952380Y67682190D01*
X188952380Y67777428D01*
X188904761Y67872666D01*
X188857142Y67920285D01*
X188761904Y67967904D01*
X188571428Y68015523D01*
X188333333Y68015523D01*
X188142857Y67967904D01*
X188047619Y67920285D01*
X188000000Y67872666D01*
X187952380Y67777428D01*
G04 #@! TO.C,D49*
X179352380Y89614285D02*
X178352380Y89614285D01*
X178352380Y89376190D01*
X178400000Y89233333D01*
X178495238Y89138095D01*
X178590476Y89090476D01*
X178780952Y89042857D01*
X178923809Y89042857D01*
X179114285Y89090476D01*
X179209523Y89138095D01*
X179304761Y89233333D01*
X179352380Y89376190D01*
X179352380Y89614285D01*
X178685714Y88185714D02*
X179352380Y88185714D01*
X178304761Y88423809D02*
X179019047Y88661904D01*
X179019047Y88042857D01*
X179352380Y87614285D02*
X179352380Y87423809D01*
X179304761Y87328571D01*
X179257142Y87280952D01*
X179114285Y87185714D01*
X178923809Y87138095D01*
X178542857Y87138095D01*
X178447619Y87185714D01*
X178400000Y87233333D01*
X178352380Y87328571D01*
X178352380Y87519047D01*
X178400000Y87614285D01*
X178447619Y87661904D01*
X178542857Y87709523D01*
X178780952Y87709523D01*
X178876190Y87661904D01*
X178923809Y87614285D01*
X178971428Y87519047D01*
X178971428Y87328571D01*
X178923809Y87233333D01*
X178876190Y87185714D01*
X178780952Y87138095D01*
G04 #@! TO.C,D48*
X184380380Y34868285D02*
X183380380Y34868285D01*
X183380380Y34630190D01*
X183428000Y34487333D01*
X183523238Y34392095D01*
X183618476Y34344476D01*
X183808952Y34296857D01*
X183951809Y34296857D01*
X184142285Y34344476D01*
X184237523Y34392095D01*
X184332761Y34487333D01*
X184380380Y34630190D01*
X184380380Y34868285D01*
X183713714Y33439714D02*
X184380380Y33439714D01*
X183332761Y33677809D02*
X184047047Y33915904D01*
X184047047Y33296857D01*
X183808952Y32773047D02*
X183761333Y32868285D01*
X183713714Y32915904D01*
X183618476Y32963523D01*
X183570857Y32963523D01*
X183475619Y32915904D01*
X183428000Y32868285D01*
X183380380Y32773047D01*
X183380380Y32582571D01*
X183428000Y32487333D01*
X183475619Y32439714D01*
X183570857Y32392095D01*
X183618476Y32392095D01*
X183713714Y32439714D01*
X183761333Y32487333D01*
X183808952Y32582571D01*
X183808952Y32773047D01*
X183856571Y32868285D01*
X183904190Y32915904D01*
X183999428Y32963523D01*
X184189904Y32963523D01*
X184285142Y32915904D01*
X184332761Y32868285D01*
X184380380Y32773047D01*
X184380380Y32582571D01*
X184332761Y32487333D01*
X184285142Y32439714D01*
X184189904Y32392095D01*
X183999428Y32392095D01*
X183904190Y32439714D01*
X183856571Y32487333D01*
X183808952Y32582571D01*
G04 #@! TO.C,D47*
X174728380Y52522285D02*
X173728380Y52522285D01*
X173728380Y52284190D01*
X173776000Y52141333D01*
X173871238Y52046095D01*
X173966476Y51998476D01*
X174156952Y51950857D01*
X174299809Y51950857D01*
X174490285Y51998476D01*
X174585523Y52046095D01*
X174680761Y52141333D01*
X174728380Y52284190D01*
X174728380Y52522285D01*
X174061714Y51093714D02*
X174728380Y51093714D01*
X173680761Y51331809D02*
X174395047Y51569904D01*
X174395047Y50950857D01*
X173728380Y50665142D02*
X173728380Y49998476D01*
X174728380Y50427047D01*
G04 #@! TO.C,D46*
X169620062Y71255382D02*
X168620062Y71255382D01*
X168620062Y71017287D01*
X168667682Y70874430D01*
X168762920Y70779192D01*
X168858158Y70731573D01*
X169048634Y70683954D01*
X169191491Y70683954D01*
X169381967Y70731573D01*
X169477205Y70779192D01*
X169572443Y70874430D01*
X169620062Y71017287D01*
X169620062Y71255382D01*
X168953396Y69826811D02*
X169620062Y69826811D01*
X168572443Y70064906D02*
X169286729Y70303001D01*
X169286729Y69683954D01*
X168620062Y68874430D02*
X168620062Y69064906D01*
X168667682Y69160144D01*
X168715301Y69207763D01*
X168858158Y69303001D01*
X169048634Y69350620D01*
X169429586Y69350620D01*
X169524824Y69303001D01*
X169572443Y69255382D01*
X169620062Y69160144D01*
X169620062Y68969668D01*
X169572443Y68874430D01*
X169524824Y68826811D01*
X169429586Y68779192D01*
X169191491Y68779192D01*
X169096253Y68826811D01*
X169048634Y68874430D01*
X169001015Y68969668D01*
X169001015Y69160144D01*
X169048634Y69255382D01*
X169096253Y69303001D01*
X169191491Y69350620D01*
G04 #@! TO.C,D45*
X160152380Y88014285D02*
X159152380Y88014285D01*
X159152380Y87776190D01*
X159200000Y87633333D01*
X159295238Y87538095D01*
X159390476Y87490476D01*
X159580952Y87442857D01*
X159723809Y87442857D01*
X159914285Y87490476D01*
X160009523Y87538095D01*
X160104761Y87633333D01*
X160152380Y87776190D01*
X160152380Y88014285D01*
X159485714Y86585714D02*
X160152380Y86585714D01*
X159104761Y86823809D02*
X159819047Y87061904D01*
X159819047Y86442857D01*
X159152380Y85585714D02*
X159152380Y86061904D01*
X159628571Y86109523D01*
X159580952Y86061904D01*
X159533333Y85966666D01*
X159533333Y85728571D01*
X159580952Y85633333D01*
X159628571Y85585714D01*
X159723809Y85538095D01*
X159961904Y85538095D01*
X160057142Y85585714D01*
X160104761Y85633333D01*
X160152380Y85728571D01*
X160152380Y85966666D01*
X160104761Y86061904D01*
X160057142Y86109523D01*
G04 #@! TO.C,D43*
X164568380Y35884285D02*
X163568380Y35884285D01*
X163568380Y35646190D01*
X163616000Y35503333D01*
X163711238Y35408095D01*
X163806476Y35360476D01*
X163996952Y35312857D01*
X164139809Y35312857D01*
X164330285Y35360476D01*
X164425523Y35408095D01*
X164520761Y35503333D01*
X164568380Y35646190D01*
X164568380Y35884285D01*
X163901714Y34455714D02*
X164568380Y34455714D01*
X163520761Y34693809D02*
X164235047Y34931904D01*
X164235047Y34312857D01*
X163568380Y34027142D02*
X163568380Y33408095D01*
X163949333Y33741428D01*
X163949333Y33598571D01*
X163996952Y33503333D01*
X164044571Y33455714D01*
X164139809Y33408095D01*
X164377904Y33408095D01*
X164473142Y33455714D01*
X164520761Y33503333D01*
X164568380Y33598571D01*
X164568380Y33884285D01*
X164520761Y33979523D01*
X164473142Y34027142D01*
G04 #@! TO.C,D42*
X154859532Y54444335D02*
X153859532Y54444335D01*
X153859532Y54206240D01*
X153907152Y54063383D01*
X154002390Y53968145D01*
X154097628Y53920526D01*
X154288104Y53872907D01*
X154430961Y53872907D01*
X154621437Y53920526D01*
X154716675Y53968145D01*
X154811913Y54063383D01*
X154859532Y54206240D01*
X154859532Y54444335D01*
X154192866Y53015764D02*
X154859532Y53015764D01*
X153811913Y53253859D02*
X154526199Y53491954D01*
X154526199Y52872907D01*
X153954771Y52539573D02*
X153907152Y52491954D01*
X153859532Y52396716D01*
X153859532Y52158621D01*
X153907152Y52063383D01*
X153954771Y52015764D01*
X154050009Y51968145D01*
X154145247Y51968145D01*
X154288104Y52015764D01*
X154859532Y52587192D01*
X154859532Y51968145D01*
G04 #@! TO.C,D41*
X150852380Y69920285D02*
X149852380Y69920285D01*
X149852380Y69682190D01*
X149900000Y69539333D01*
X149995238Y69444095D01*
X150090476Y69396476D01*
X150280952Y69348857D01*
X150423809Y69348857D01*
X150614285Y69396476D01*
X150709523Y69444095D01*
X150804761Y69539333D01*
X150852380Y69682190D01*
X150852380Y69920285D01*
X150185714Y68491714D02*
X150852380Y68491714D01*
X149804761Y68729809D02*
X150519047Y68967904D01*
X150519047Y68348857D01*
X150852380Y67444095D02*
X150852380Y68015523D01*
X150852380Y67729809D02*
X149852380Y67729809D01*
X149995238Y67825047D01*
X150090476Y67920285D01*
X150138095Y68015523D01*
G04 #@! TO.C,D40*
X141252380Y89714285D02*
X140252380Y89714285D01*
X140252380Y89476190D01*
X140300000Y89333333D01*
X140395238Y89238095D01*
X140490476Y89190476D01*
X140680952Y89142857D01*
X140823809Y89142857D01*
X141014285Y89190476D01*
X141109523Y89238095D01*
X141204761Y89333333D01*
X141252380Y89476190D01*
X141252380Y89714285D01*
X140585714Y88285714D02*
X141252380Y88285714D01*
X140204761Y88523809D02*
X140919047Y88761904D01*
X140919047Y88142857D01*
X140252380Y87571428D02*
X140252380Y87476190D01*
X140300000Y87380952D01*
X140347619Y87333333D01*
X140442857Y87285714D01*
X140633333Y87238095D01*
X140871428Y87238095D01*
X141061904Y87285714D01*
X141157142Y87333333D01*
X141204761Y87380952D01*
X141252380Y87476190D01*
X141252380Y87571428D01*
X141204761Y87666666D01*
X141157142Y87714285D01*
X141061904Y87761904D01*
X140871428Y87809523D01*
X140633333Y87809523D01*
X140442857Y87761904D01*
X140347619Y87714285D01*
X140300000Y87666666D01*
X140252380Y87571428D01*
G04 #@! TO.C,D39*
X145772380Y34868285D02*
X144772380Y34868285D01*
X144772380Y34630190D01*
X144820000Y34487333D01*
X144915238Y34392095D01*
X145010476Y34344476D01*
X145200952Y34296857D01*
X145343809Y34296857D01*
X145534285Y34344476D01*
X145629523Y34392095D01*
X145724761Y34487333D01*
X145772380Y34630190D01*
X145772380Y34868285D01*
X144772380Y33963523D02*
X144772380Y33344476D01*
X145153333Y33677809D01*
X145153333Y33534952D01*
X145200952Y33439714D01*
X145248571Y33392095D01*
X145343809Y33344476D01*
X145581904Y33344476D01*
X145677142Y33392095D01*
X145724761Y33439714D01*
X145772380Y33534952D01*
X145772380Y33820666D01*
X145724761Y33915904D01*
X145677142Y33963523D01*
X145772380Y32868285D02*
X145772380Y32677809D01*
X145724761Y32582571D01*
X145677142Y32534952D01*
X145534285Y32439714D01*
X145343809Y32392095D01*
X144962857Y32392095D01*
X144867619Y32439714D01*
X144820000Y32487333D01*
X144772380Y32582571D01*
X144772380Y32773047D01*
X144820000Y32868285D01*
X144867619Y32915904D01*
X144962857Y32963523D01*
X145200952Y32963523D01*
X145296190Y32915904D01*
X145343809Y32868285D01*
X145391428Y32773047D01*
X145391428Y32582571D01*
X145343809Y32487333D01*
X145296190Y32439714D01*
X145200952Y32392095D01*
G04 #@! TO.C,D38*
X136408607Y52482885D02*
X135408607Y52482885D01*
X135408607Y52244790D01*
X135456227Y52101933D01*
X135551465Y52006695D01*
X135646703Y51959076D01*
X135837179Y51911457D01*
X135980036Y51911457D01*
X136170512Y51959076D01*
X136265750Y52006695D01*
X136360988Y52101933D01*
X136408607Y52244790D01*
X136408607Y52482885D01*
X135408607Y51578123D02*
X135408607Y50959076D01*
X135789560Y51292409D01*
X135789560Y51149552D01*
X135837179Y51054314D01*
X135884798Y51006695D01*
X135980036Y50959076D01*
X136218131Y50959076D01*
X136313369Y51006695D01*
X136360988Y51054314D01*
X136408607Y51149552D01*
X136408607Y51435266D01*
X136360988Y51530504D01*
X136313369Y51578123D01*
X135837179Y50387647D02*
X135789560Y50482885D01*
X135741941Y50530504D01*
X135646703Y50578123D01*
X135599084Y50578123D01*
X135503846Y50530504D01*
X135456227Y50482885D01*
X135408607Y50387647D01*
X135408607Y50197171D01*
X135456227Y50101933D01*
X135503846Y50054314D01*
X135599084Y50006695D01*
X135646703Y50006695D01*
X135741941Y50054314D01*
X135789560Y50101933D01*
X135837179Y50197171D01*
X135837179Y50387647D01*
X135884798Y50482885D01*
X135932417Y50530504D01*
X136027655Y50578123D01*
X136218131Y50578123D01*
X136313369Y50530504D01*
X136360988Y50482885D01*
X136408607Y50387647D01*
X136408607Y50197171D01*
X136360988Y50101933D01*
X136313369Y50054314D01*
X136218131Y50006695D01*
X136027655Y50006695D01*
X135932417Y50054314D01*
X135884798Y50101933D01*
X135837179Y50197171D01*
G04 #@! TO.C,D37*
X131548380Y71318285D02*
X130548380Y71318285D01*
X130548380Y71080190D01*
X130596000Y70937333D01*
X130691238Y70842095D01*
X130786476Y70794476D01*
X130976952Y70746857D01*
X131119809Y70746857D01*
X131310285Y70794476D01*
X131405523Y70842095D01*
X131500761Y70937333D01*
X131548380Y71080190D01*
X131548380Y71318285D01*
X130548380Y70413523D02*
X130548380Y69794476D01*
X130929333Y70127809D01*
X130929333Y69984952D01*
X130976952Y69889714D01*
X131024571Y69842095D01*
X131119809Y69794476D01*
X131357904Y69794476D01*
X131453142Y69842095D01*
X131500761Y69889714D01*
X131548380Y69984952D01*
X131548380Y70270666D01*
X131500761Y70365904D01*
X131453142Y70413523D01*
X130548380Y69461142D02*
X130548380Y68794476D01*
X131548380Y69223047D01*
G04 #@! TO.C,D36*
X122352380Y88114285D02*
X121352380Y88114285D01*
X121352380Y87876190D01*
X121400000Y87733333D01*
X121495238Y87638095D01*
X121590476Y87590476D01*
X121780952Y87542857D01*
X121923809Y87542857D01*
X122114285Y87590476D01*
X122209523Y87638095D01*
X122304761Y87733333D01*
X122352380Y87876190D01*
X122352380Y88114285D01*
X121352380Y87209523D02*
X121352380Y86590476D01*
X121733333Y86923809D01*
X121733333Y86780952D01*
X121780952Y86685714D01*
X121828571Y86638095D01*
X121923809Y86590476D01*
X122161904Y86590476D01*
X122257142Y86638095D01*
X122304761Y86685714D01*
X122352380Y86780952D01*
X122352380Y87066666D01*
X122304761Y87161904D01*
X122257142Y87209523D01*
X121352380Y85733333D02*
X121352380Y85923809D01*
X121400000Y86019047D01*
X121447619Y86066666D01*
X121590476Y86161904D01*
X121780952Y86209523D01*
X122161904Y86209523D01*
X122257142Y86161904D01*
X122304761Y86114285D01*
X122352380Y86019047D01*
X122352380Y85828571D01*
X122304761Y85733333D01*
X122257142Y85685714D01*
X122161904Y85638095D01*
X121923809Y85638095D01*
X121828571Y85685714D01*
X121780952Y85733333D01*
X121733333Y85828571D01*
X121733333Y86019047D01*
X121780952Y86114285D01*
X121828571Y86161904D01*
X121923809Y86209523D01*
G04 #@! TO.C,D35*
X117832380Y12516285D02*
X116832380Y12516285D01*
X116832380Y12278190D01*
X116880000Y12135333D01*
X116975238Y12040095D01*
X117070476Y11992476D01*
X117260952Y11944857D01*
X117403809Y11944857D01*
X117594285Y11992476D01*
X117689523Y12040095D01*
X117784761Y12135333D01*
X117832380Y12278190D01*
X117832380Y12516285D01*
X116832380Y11611523D02*
X116832380Y10992476D01*
X117213333Y11325809D01*
X117213333Y11182952D01*
X117260952Y11087714D01*
X117308571Y11040095D01*
X117403809Y10992476D01*
X117641904Y10992476D01*
X117737142Y11040095D01*
X117784761Y11087714D01*
X117832380Y11182952D01*
X117832380Y11468666D01*
X117784761Y11563904D01*
X117737142Y11611523D01*
X116832380Y10087714D02*
X116832380Y10563904D01*
X117308571Y10611523D01*
X117260952Y10563904D01*
X117213333Y10468666D01*
X117213333Y10230571D01*
X117260952Y10135333D01*
X117308571Y10087714D01*
X117403809Y10040095D01*
X117641904Y10040095D01*
X117737142Y10087714D01*
X117784761Y10135333D01*
X117832380Y10230571D01*
X117832380Y10468666D01*
X117784761Y10563904D01*
X117737142Y10611523D01*
G04 #@! TO.C,D34*
X126468380Y35884285D02*
X125468380Y35884285D01*
X125468380Y35646190D01*
X125516000Y35503333D01*
X125611238Y35408095D01*
X125706476Y35360476D01*
X125896952Y35312857D01*
X126039809Y35312857D01*
X126230285Y35360476D01*
X126325523Y35408095D01*
X126420761Y35503333D01*
X126468380Y35646190D01*
X126468380Y35884285D01*
X125468380Y34979523D02*
X125468380Y34360476D01*
X125849333Y34693809D01*
X125849333Y34550952D01*
X125896952Y34455714D01*
X125944571Y34408095D01*
X126039809Y34360476D01*
X126277904Y34360476D01*
X126373142Y34408095D01*
X126420761Y34455714D01*
X126468380Y34550952D01*
X126468380Y34836666D01*
X126420761Y34931904D01*
X126373142Y34979523D01*
X125801714Y33503333D02*
X126468380Y33503333D01*
X125420761Y33741428D02*
X126135047Y33979523D01*
X126135047Y33360476D01*
G04 #@! TO.C,D33*
X117102957Y54469458D02*
X116102957Y54469458D01*
X116102957Y54231363D01*
X116150577Y54088506D01*
X116245815Y53993268D01*
X116341053Y53945649D01*
X116531529Y53898030D01*
X116674386Y53898030D01*
X116864862Y53945649D01*
X116960100Y53993268D01*
X117055338Y54088506D01*
X117102957Y54231363D01*
X117102957Y54469458D01*
X116102957Y53564696D02*
X116102957Y52945649D01*
X116483910Y53278982D01*
X116483910Y53136125D01*
X116531529Y53040887D01*
X116579148Y52993268D01*
X116674386Y52945649D01*
X116912481Y52945649D01*
X117007719Y52993268D01*
X117055338Y53040887D01*
X117102957Y53136125D01*
X117102957Y53421839D01*
X117055338Y53517077D01*
X117007719Y53564696D01*
X116102957Y52612315D02*
X116102957Y51993268D01*
X116483910Y52326601D01*
X116483910Y52183744D01*
X116531529Y52088506D01*
X116579148Y52040887D01*
X116674386Y51993268D01*
X116912481Y51993268D01*
X117007719Y52040887D01*
X117055338Y52088506D01*
X117102957Y52183744D01*
X117102957Y52469458D01*
X117055338Y52564696D01*
X117007719Y52612315D01*
G04 #@! TO.C,D32*
X112546784Y69903349D02*
X111546784Y69903349D01*
X111546784Y69665254D01*
X111594404Y69522397D01*
X111689642Y69427159D01*
X111784880Y69379540D01*
X111975356Y69331921D01*
X112118213Y69331921D01*
X112308689Y69379540D01*
X112403927Y69427159D01*
X112499165Y69522397D01*
X112546784Y69665254D01*
X112546784Y69903349D01*
X111546784Y68998587D02*
X111546784Y68379540D01*
X111927737Y68712873D01*
X111927737Y68570016D01*
X111975356Y68474778D01*
X112022975Y68427159D01*
X112118213Y68379540D01*
X112356308Y68379540D01*
X112451546Y68427159D01*
X112499165Y68474778D01*
X112546784Y68570016D01*
X112546784Y68855730D01*
X112499165Y68950968D01*
X112451546Y68998587D01*
X111642023Y67998587D02*
X111594404Y67950968D01*
X111546784Y67855730D01*
X111546784Y67617635D01*
X111594404Y67522397D01*
X111642023Y67474778D01*
X111737261Y67427159D01*
X111832499Y67427159D01*
X111975356Y67474778D01*
X112546784Y68046206D01*
X112546784Y67427159D01*
G04 #@! TO.C,D31*
X103118624Y89714285D02*
X102118624Y89714285D01*
X102118624Y89476190D01*
X102166244Y89333333D01*
X102261482Y89238095D01*
X102356720Y89190476D01*
X102547196Y89142857D01*
X102690053Y89142857D01*
X102880529Y89190476D01*
X102975767Y89238095D01*
X103071005Y89333333D01*
X103118624Y89476190D01*
X103118624Y89714285D01*
X102118624Y88809523D02*
X102118624Y88190476D01*
X102499577Y88523809D01*
X102499577Y88380952D01*
X102547196Y88285714D01*
X102594815Y88238095D01*
X102690053Y88190476D01*
X102928148Y88190476D01*
X103023386Y88238095D01*
X103071005Y88285714D01*
X103118624Y88380952D01*
X103118624Y88666666D01*
X103071005Y88761904D01*
X103023386Y88809523D01*
X103118624Y87238095D02*
X103118624Y87809523D01*
X103118624Y87523809D02*
X102118624Y87523809D01*
X102261482Y87619047D01*
X102356720Y87714285D01*
X102404339Y87809523D01*
G04 #@! TO.C,D30*
X94972380Y14930285D02*
X93972380Y14930285D01*
X93972380Y14692190D01*
X94020000Y14549333D01*
X94115238Y14454095D01*
X94210476Y14406476D01*
X94400952Y14358857D01*
X94543809Y14358857D01*
X94734285Y14406476D01*
X94829523Y14454095D01*
X94924761Y14549333D01*
X94972380Y14692190D01*
X94972380Y14930285D01*
X93972380Y14025523D02*
X93972380Y13406476D01*
X94353333Y13739809D01*
X94353333Y13596952D01*
X94400952Y13501714D01*
X94448571Y13454095D01*
X94543809Y13406476D01*
X94781904Y13406476D01*
X94877142Y13454095D01*
X94924761Y13501714D01*
X94972380Y13596952D01*
X94972380Y13882666D01*
X94924761Y13977904D01*
X94877142Y14025523D01*
X93972380Y12787428D02*
X93972380Y12692190D01*
X94020000Y12596952D01*
X94067619Y12549333D01*
X94162857Y12501714D01*
X94353333Y12454095D01*
X94591428Y12454095D01*
X94781904Y12501714D01*
X94877142Y12549333D01*
X94924761Y12596952D01*
X94972380Y12692190D01*
X94972380Y12787428D01*
X94924761Y12882666D01*
X94877142Y12930285D01*
X94781904Y12977904D01*
X94591428Y13025523D01*
X94353333Y13025523D01*
X94162857Y12977904D01*
X94067619Y12930285D01*
X94020000Y12882666D01*
X93972380Y12787428D01*
G04 #@! TO.C,D29*
X107672380Y34868285D02*
X106672380Y34868285D01*
X106672380Y34630190D01*
X106720000Y34487333D01*
X106815238Y34392095D01*
X106910476Y34344476D01*
X107100952Y34296857D01*
X107243809Y34296857D01*
X107434285Y34344476D01*
X107529523Y34392095D01*
X107624761Y34487333D01*
X107672380Y34630190D01*
X107672380Y34868285D01*
X106767619Y33915904D02*
X106720000Y33868285D01*
X106672380Y33773047D01*
X106672380Y33534952D01*
X106720000Y33439714D01*
X106767619Y33392095D01*
X106862857Y33344476D01*
X106958095Y33344476D01*
X107100952Y33392095D01*
X107672380Y33963523D01*
X107672380Y33344476D01*
X107672380Y32868285D02*
X107672380Y32677809D01*
X107624761Y32582571D01*
X107577142Y32534952D01*
X107434285Y32439714D01*
X107243809Y32392095D01*
X106862857Y32392095D01*
X106767619Y32439714D01*
X106720000Y32487333D01*
X106672380Y32582571D01*
X106672380Y32773047D01*
X106720000Y32868285D01*
X106767619Y32915904D01*
X106862857Y32963523D01*
X107100952Y32963523D01*
X107196190Y32915904D01*
X107243809Y32868285D01*
X107291428Y32773047D01*
X107291428Y32582571D01*
X107243809Y32487333D01*
X107196190Y32439714D01*
X107100952Y32392095D01*
G04 #@! TO.C,D28*
X98253094Y52474764D02*
X97253094Y52474764D01*
X97253094Y52236669D01*
X97300714Y52093812D01*
X97395952Y51998574D01*
X97491190Y51950955D01*
X97681666Y51903336D01*
X97824523Y51903336D01*
X98014999Y51950955D01*
X98110237Y51998574D01*
X98205475Y52093812D01*
X98253094Y52236669D01*
X98253094Y52474764D01*
X97348333Y51522383D02*
X97300714Y51474764D01*
X97253094Y51379526D01*
X97253094Y51141431D01*
X97300714Y51046193D01*
X97348333Y50998574D01*
X97443571Y50950955D01*
X97538809Y50950955D01*
X97681666Y50998574D01*
X98253094Y51570002D01*
X98253094Y50950955D01*
X97681666Y50379526D02*
X97634047Y50474764D01*
X97586428Y50522383D01*
X97491190Y50570002D01*
X97443571Y50570002D01*
X97348333Y50522383D01*
X97300714Y50474764D01*
X97253094Y50379526D01*
X97253094Y50189050D01*
X97300714Y50093812D01*
X97348333Y50046193D01*
X97443571Y49998574D01*
X97491190Y49998574D01*
X97586428Y50046193D01*
X97634047Y50093812D01*
X97681666Y50189050D01*
X97681666Y50379526D01*
X97729285Y50474764D01*
X97776904Y50522383D01*
X97872142Y50570002D01*
X98062618Y50570002D01*
X98157856Y50522383D01*
X98205475Y50474764D01*
X98253094Y50379526D01*
X98253094Y50189050D01*
X98205475Y50093812D01*
X98157856Y50046193D01*
X98062618Y49998574D01*
X97872142Y49998574D01*
X97776904Y50046193D01*
X97729285Y50093812D01*
X97681666Y50189050D01*
G04 #@! TO.C,D27*
X93448380Y71318285D02*
X92448380Y71318285D01*
X92448380Y71080190D01*
X92496000Y70937333D01*
X92591238Y70842095D01*
X92686476Y70794476D01*
X92876952Y70746857D01*
X93019809Y70746857D01*
X93210285Y70794476D01*
X93305523Y70842095D01*
X93400761Y70937333D01*
X93448380Y71080190D01*
X93448380Y71318285D01*
X92543619Y70365904D02*
X92496000Y70318285D01*
X92448380Y70223047D01*
X92448380Y69984952D01*
X92496000Y69889714D01*
X92543619Y69842095D01*
X92638857Y69794476D01*
X92734095Y69794476D01*
X92876952Y69842095D01*
X93448380Y70413523D01*
X93448380Y69794476D01*
X92448380Y69461142D02*
X92448380Y68794476D01*
X93448380Y69223047D01*
G04 #@! TO.C,D26*
X84452380Y87714285D02*
X83452380Y87714285D01*
X83452380Y87476190D01*
X83500000Y87333333D01*
X83595238Y87238095D01*
X83690476Y87190476D01*
X83880952Y87142857D01*
X84023809Y87142857D01*
X84214285Y87190476D01*
X84309523Y87238095D01*
X84404761Y87333333D01*
X84452380Y87476190D01*
X84452380Y87714285D01*
X83547619Y86761904D02*
X83500000Y86714285D01*
X83452380Y86619047D01*
X83452380Y86380952D01*
X83500000Y86285714D01*
X83547619Y86238095D01*
X83642857Y86190476D01*
X83738095Y86190476D01*
X83880952Y86238095D01*
X84452380Y86809523D01*
X84452380Y86190476D01*
X83452380Y85333333D02*
X83452380Y85523809D01*
X83500000Y85619047D01*
X83547619Y85666666D01*
X83690476Y85761904D01*
X83880952Y85809523D01*
X84261904Y85809523D01*
X84357142Y85761904D01*
X84404761Y85714285D01*
X84452380Y85619047D01*
X84452380Y85428571D01*
X84404761Y85333333D01*
X84357142Y85285714D01*
X84261904Y85238095D01*
X84023809Y85238095D01*
X83928571Y85285714D01*
X83880952Y85333333D01*
X83833333Y85428571D01*
X83833333Y85619047D01*
X83880952Y85714285D01*
X83928571Y85761904D01*
X84023809Y85809523D01*
G04 #@! TO.C,D25*
X55348380Y15056285D02*
X54348380Y15056285D01*
X54348380Y14818190D01*
X54396000Y14675333D01*
X54491238Y14580095D01*
X54586476Y14532476D01*
X54776952Y14484857D01*
X54919809Y14484857D01*
X55110285Y14532476D01*
X55205523Y14580095D01*
X55300761Y14675333D01*
X55348380Y14818190D01*
X55348380Y15056285D01*
X54443619Y14103904D02*
X54396000Y14056285D01*
X54348380Y13961047D01*
X54348380Y13722952D01*
X54396000Y13627714D01*
X54443619Y13580095D01*
X54538857Y13532476D01*
X54634095Y13532476D01*
X54776952Y13580095D01*
X55348380Y14151523D01*
X55348380Y13532476D01*
X54348380Y12627714D02*
X54348380Y13103904D01*
X54824571Y13151523D01*
X54776952Y13103904D01*
X54729333Y13008666D01*
X54729333Y12770571D01*
X54776952Y12675333D01*
X54824571Y12627714D01*
X54919809Y12580095D01*
X55157904Y12580095D01*
X55253142Y12627714D01*
X55300761Y12675333D01*
X55348380Y12770571D01*
X55348380Y13008666D01*
X55300761Y13103904D01*
X55253142Y13151523D01*
G04 #@! TO.C,D24*
X76664631Y35802728D02*
X75664631Y35802728D01*
X75664631Y35564633D01*
X75712251Y35421776D01*
X75807489Y35326538D01*
X75902727Y35278919D01*
X76093203Y35231300D01*
X76236060Y35231300D01*
X76426536Y35278919D01*
X76521774Y35326538D01*
X76617012Y35421776D01*
X76664631Y35564633D01*
X76664631Y35802728D01*
X75759870Y34850347D02*
X75712251Y34802728D01*
X75664631Y34707490D01*
X75664631Y34469395D01*
X75712251Y34374157D01*
X75759870Y34326538D01*
X75855108Y34278919D01*
X75950346Y34278919D01*
X76093203Y34326538D01*
X76664631Y34897966D01*
X76664631Y34278919D01*
X75997965Y33421776D02*
X76664631Y33421776D01*
X75617012Y33659871D02*
X76331298Y33897966D01*
X76331298Y33278919D01*
G04 #@! TO.C,D23*
X72074433Y54364179D02*
X71074433Y54364179D01*
X71074433Y54126084D01*
X71122053Y53983227D01*
X71217291Y53887989D01*
X71312529Y53840370D01*
X71503005Y53792751D01*
X71645862Y53792751D01*
X71836338Y53840370D01*
X71931576Y53887989D01*
X72026814Y53983227D01*
X72074433Y54126084D01*
X72074433Y54364179D01*
X71169672Y53411798D02*
X71122053Y53364179D01*
X71074433Y53268941D01*
X71074433Y53030846D01*
X71122053Y52935608D01*
X71169672Y52887989D01*
X71264910Y52840370D01*
X71360148Y52840370D01*
X71503005Y52887989D01*
X72074433Y53459417D01*
X72074433Y52840370D01*
X71074433Y52507036D02*
X71074433Y51887989D01*
X71455386Y52221322D01*
X71455386Y52078465D01*
X71503005Y51983227D01*
X71550624Y51935608D01*
X71645862Y51887989D01*
X71883957Y51887989D01*
X71979195Y51935608D01*
X72026814Y51983227D01*
X72074433Y52078465D01*
X72074433Y52364179D01*
X72026814Y52459417D01*
X71979195Y52507036D01*
G04 #@! TO.C,D22*
X69572380Y69920285D02*
X68572380Y69920285D01*
X68572380Y69682190D01*
X68620000Y69539333D01*
X68715238Y69444095D01*
X68810476Y69396476D01*
X69000952Y69348857D01*
X69143809Y69348857D01*
X69334285Y69396476D01*
X69429523Y69444095D01*
X69524761Y69539333D01*
X69572380Y69682190D01*
X69572380Y69920285D01*
X68667619Y68967904D02*
X68620000Y68920285D01*
X68572380Y68825047D01*
X68572380Y68586952D01*
X68620000Y68491714D01*
X68667619Y68444095D01*
X68762857Y68396476D01*
X68858095Y68396476D01*
X69000952Y68444095D01*
X69572380Y69015523D01*
X69572380Y68396476D01*
X68667619Y68015523D02*
X68620000Y67967904D01*
X68572380Y67872666D01*
X68572380Y67634571D01*
X68620000Y67539333D01*
X68667619Y67491714D01*
X68762857Y67444095D01*
X68858095Y67444095D01*
X69000952Y67491714D01*
X69572380Y68063142D01*
X69572380Y67444095D01*
G04 #@! TO.C,D21*
X64852380Y89714285D02*
X63852380Y89714285D01*
X63852380Y89476190D01*
X63900000Y89333333D01*
X63995238Y89238095D01*
X64090476Y89190476D01*
X64280952Y89142857D01*
X64423809Y89142857D01*
X64614285Y89190476D01*
X64709523Y89238095D01*
X64804761Y89333333D01*
X64852380Y89476190D01*
X64852380Y89714285D01*
X63947619Y88761904D02*
X63900000Y88714285D01*
X63852380Y88619047D01*
X63852380Y88380952D01*
X63900000Y88285714D01*
X63947619Y88238095D01*
X64042857Y88190476D01*
X64138095Y88190476D01*
X64280952Y88238095D01*
X64852380Y88809523D01*
X64852380Y88190476D01*
X64852380Y87238095D02*
X64852380Y87809523D01*
X64852380Y87523809D02*
X63852380Y87523809D01*
X63995238Y87619047D01*
X64090476Y87714285D01*
X64138095Y87809523D01*
G04 #@! TO.C,D20*
X-11619Y16962285D02*
X-1011619Y16962285D01*
X-1011619Y16724190D01*
X-964000Y16581333D01*
X-868761Y16486095D01*
X-773523Y16438476D01*
X-583047Y16390857D01*
X-440190Y16390857D01*
X-249714Y16438476D01*
X-154476Y16486095D01*
X-59238Y16581333D01*
X-11619Y16724190D01*
X-11619Y16962285D01*
X-916380Y16009904D02*
X-964000Y15962285D01*
X-1011619Y15867047D01*
X-1011619Y15628952D01*
X-964000Y15533714D01*
X-916380Y15486095D01*
X-821142Y15438476D01*
X-725904Y15438476D01*
X-583047Y15486095D01*
X-11619Y16057523D01*
X-11619Y15438476D01*
X-1011619Y14819428D02*
X-1011619Y14724190D01*
X-964000Y14628952D01*
X-916380Y14581333D01*
X-821142Y14533714D01*
X-630666Y14486095D01*
X-392571Y14486095D01*
X-202095Y14533714D01*
X-106857Y14581333D01*
X-59238Y14628952D01*
X-11619Y14724190D01*
X-11619Y14819428D01*
X-59238Y14914666D01*
X-106857Y14962285D01*
X-202095Y15009904D01*
X-392571Y15057523D01*
X-630666Y15057523D01*
X-821142Y15009904D01*
X-916380Y14962285D01*
X-964000Y14914666D01*
X-1011619Y14819428D01*
G04 #@! TO.C,D19*
X36564380Y34616285D02*
X35564380Y34616285D01*
X35564380Y34378190D01*
X35612000Y34235333D01*
X35707238Y34140095D01*
X35802476Y34092476D01*
X35992952Y34044857D01*
X36135809Y34044857D01*
X36326285Y34092476D01*
X36421523Y34140095D01*
X36516761Y34235333D01*
X36564380Y34378190D01*
X36564380Y34616285D01*
X36564380Y33092476D02*
X36564380Y33663904D01*
X36564380Y33378190D02*
X35564380Y33378190D01*
X35707238Y33473428D01*
X35802476Y33568666D01*
X35850095Y33663904D01*
X36564380Y32616285D02*
X36564380Y32425809D01*
X36516761Y32330571D01*
X36469142Y32282952D01*
X36326285Y32187714D01*
X36135809Y32140095D01*
X35754857Y32140095D01*
X35659619Y32187714D01*
X35612000Y32235333D01*
X35564380Y32330571D01*
X35564380Y32521047D01*
X35612000Y32616285D01*
X35659619Y32663904D01*
X35754857Y32711523D01*
X35992952Y32711523D01*
X36088190Y32663904D01*
X36135809Y32616285D01*
X36183428Y32521047D01*
X36183428Y32330571D01*
X36135809Y32235333D01*
X36088190Y32187714D01*
X35992952Y32140095D01*
G04 #@! TO.C,D18*
X30252380Y52564285D02*
X29252380Y52564285D01*
X29252380Y52326190D01*
X29300000Y52183333D01*
X29395238Y52088095D01*
X29490476Y52040476D01*
X29680952Y51992857D01*
X29823809Y51992857D01*
X30014285Y52040476D01*
X30109523Y52088095D01*
X30204761Y52183333D01*
X30252380Y52326190D01*
X30252380Y52564285D01*
X30252380Y51040476D02*
X30252380Y51611904D01*
X30252380Y51326190D02*
X29252380Y51326190D01*
X29395238Y51421428D01*
X29490476Y51516666D01*
X29538095Y51611904D01*
X29680952Y50469047D02*
X29633333Y50564285D01*
X29585714Y50611904D01*
X29490476Y50659523D01*
X29442857Y50659523D01*
X29347619Y50611904D01*
X29300000Y50564285D01*
X29252380Y50469047D01*
X29252380Y50278571D01*
X29300000Y50183333D01*
X29347619Y50135714D01*
X29442857Y50088095D01*
X29490476Y50088095D01*
X29585714Y50135714D01*
X29633333Y50183333D01*
X29680952Y50278571D01*
X29680952Y50469047D01*
X29728571Y50564285D01*
X29776190Y50611904D01*
X29871428Y50659523D01*
X30061904Y50659523D01*
X30157142Y50611904D01*
X30204761Y50564285D01*
X30252380Y50469047D01*
X30252380Y50278571D01*
X30204761Y50183333D01*
X30157142Y50135714D01*
X30061904Y50088095D01*
X29871428Y50088095D01*
X29776190Y50135714D01*
X29728571Y50183333D01*
X29680952Y50278571D01*
G04 #@! TO.C,D17*
X36298491Y71295287D02*
X35298491Y71295287D01*
X35298491Y71057192D01*
X35346111Y70914335D01*
X35441349Y70819097D01*
X35536587Y70771478D01*
X35727063Y70723859D01*
X35869920Y70723859D01*
X36060396Y70771478D01*
X36155634Y70819097D01*
X36250872Y70914335D01*
X36298491Y71057192D01*
X36298491Y71295287D01*
X36298491Y69771478D02*
X36298491Y70342906D01*
X36298491Y70057192D02*
X35298491Y70057192D01*
X35441349Y70152430D01*
X35536587Y70247668D01*
X35584206Y70342906D01*
X35298491Y69438144D02*
X35298491Y68771478D01*
X36298491Y69200049D01*
G04 #@! TO.C,D16*
X36564380Y88314285D02*
X35564380Y88314285D01*
X35564380Y88076190D01*
X35612000Y87933333D01*
X35707238Y87838095D01*
X35802476Y87790476D01*
X35992952Y87742857D01*
X36135809Y87742857D01*
X36326285Y87790476D01*
X36421523Y87838095D01*
X36516761Y87933333D01*
X36564380Y88076190D01*
X36564380Y88314285D01*
X36564380Y86790476D02*
X36564380Y87361904D01*
X36564380Y87076190D02*
X35564380Y87076190D01*
X35707238Y87171428D01*
X35802476Y87266666D01*
X35850095Y87361904D01*
X35564380Y85933333D02*
X35564380Y86123809D01*
X35612000Y86219047D01*
X35659619Y86266666D01*
X35802476Y86361904D01*
X35992952Y86409523D01*
X36373904Y86409523D01*
X36469142Y86361904D01*
X36516761Y86314285D01*
X36564380Y86219047D01*
X36564380Y86028571D01*
X36516761Y85933333D01*
X36469142Y85885714D01*
X36373904Y85838095D01*
X36135809Y85838095D01*
X36040571Y85885714D01*
X35992952Y85933333D01*
X35945333Y86028571D01*
X35945333Y86219047D01*
X35992952Y86314285D01*
X36040571Y86361904D01*
X36135809Y86409523D01*
G04 #@! TO.C,D15*
X17752690Y15041147D02*
X16752690Y15041147D01*
X16752690Y14803052D01*
X16800310Y14660195D01*
X16895548Y14564957D01*
X16990786Y14517338D01*
X17181262Y14469719D01*
X17324119Y14469719D01*
X17514595Y14517338D01*
X17609833Y14564957D01*
X17705071Y14660195D01*
X17752690Y14803052D01*
X17752690Y15041147D01*
X17752690Y13517338D02*
X17752690Y14088766D01*
X17752690Y13803052D02*
X16752690Y13803052D01*
X16895548Y13898290D01*
X16990786Y13993528D01*
X17038405Y14088766D01*
X16752690Y12612576D02*
X16752690Y13088766D01*
X17228881Y13136385D01*
X17181262Y13088766D01*
X17133643Y12993528D01*
X17133643Y12755433D01*
X17181262Y12660195D01*
X17228881Y12612576D01*
X17324119Y12564957D01*
X17562214Y12564957D01*
X17657452Y12612576D01*
X17705071Y12660195D01*
X17752690Y12755433D01*
X17752690Y12993528D01*
X17705071Y13088766D01*
X17657452Y13136385D01*
G04 #@! TO.C,D14*
X17768380Y35758285D02*
X16768380Y35758285D01*
X16768380Y35520190D01*
X16816000Y35377333D01*
X16911238Y35282095D01*
X17006476Y35234476D01*
X17196952Y35186857D01*
X17339809Y35186857D01*
X17530285Y35234476D01*
X17625523Y35282095D01*
X17720761Y35377333D01*
X17768380Y35520190D01*
X17768380Y35758285D01*
X17768380Y34234476D02*
X17768380Y34805904D01*
X17768380Y34520190D02*
X16768380Y34520190D01*
X16911238Y34615428D01*
X17006476Y34710666D01*
X17054095Y34805904D01*
X17101714Y33377333D02*
X17768380Y33377333D01*
X16720761Y33615428D02*
X17435047Y33853523D01*
X17435047Y33234476D01*
G04 #@! TO.C,D13*
X17260380Y54428285D02*
X16260380Y54428285D01*
X16260380Y54190190D01*
X16308000Y54047333D01*
X16403238Y53952095D01*
X16498476Y53904476D01*
X16688952Y53856857D01*
X16831809Y53856857D01*
X17022285Y53904476D01*
X17117523Y53952095D01*
X17212761Y54047333D01*
X17260380Y54190190D01*
X17260380Y54428285D01*
X17260380Y52904476D02*
X17260380Y53475904D01*
X17260380Y53190190D02*
X16260380Y53190190D01*
X16403238Y53285428D01*
X16498476Y53380666D01*
X16546095Y53475904D01*
X16260380Y52571142D02*
X16260380Y51952095D01*
X16641333Y52285428D01*
X16641333Y52142571D01*
X16688952Y52047333D01*
X16736571Y51999714D01*
X16831809Y51952095D01*
X17069904Y51952095D01*
X17165142Y51999714D01*
X17212761Y52047333D01*
X17260380Y52142571D01*
X17260380Y52428285D01*
X17212761Y52523523D01*
X17165142Y52571142D01*
G04 #@! TO.C,D12*
X17260380Y69920285D02*
X16260380Y69920285D01*
X16260380Y69682190D01*
X16308000Y69539333D01*
X16403238Y69444095D01*
X16498476Y69396476D01*
X16688952Y69348857D01*
X16831809Y69348857D01*
X17022285Y69396476D01*
X17117523Y69444095D01*
X17212761Y69539333D01*
X17260380Y69682190D01*
X17260380Y69920285D01*
X17260380Y68396476D02*
X17260380Y68967904D01*
X17260380Y68682190D02*
X16260380Y68682190D01*
X16403238Y68777428D01*
X16498476Y68872666D01*
X16546095Y68967904D01*
X16355619Y68015523D02*
X16308000Y67967904D01*
X16260380Y67872666D01*
X16260380Y67634571D01*
X16308000Y67539333D01*
X16355619Y67491714D01*
X16450857Y67444095D01*
X16546095Y67444095D01*
X16688952Y67491714D01*
X17260380Y68063142D01*
X17260380Y67444095D01*
G04 #@! TO.C,D11*
X17244740Y89914285D02*
X16244740Y89914285D01*
X16244740Y89676190D01*
X16292360Y89533333D01*
X16387598Y89438095D01*
X16482836Y89390476D01*
X16673312Y89342857D01*
X16816169Y89342857D01*
X17006645Y89390476D01*
X17101883Y89438095D01*
X17197121Y89533333D01*
X17244740Y89676190D01*
X17244740Y89914285D01*
X17244740Y88390476D02*
X17244740Y88961904D01*
X17244740Y88676190D02*
X16244740Y88676190D01*
X16387598Y88771428D01*
X16482836Y88866666D01*
X16530455Y88961904D01*
X17244740Y87438095D02*
X17244740Y88009523D01*
X17244740Y87723809D02*
X16244740Y87723809D01*
X16387598Y87819047D01*
X16482836Y87914285D01*
X16530455Y88009523D01*
G04 #@! TO.C,D10*
X36818380Y16962285D02*
X35818380Y16962285D01*
X35818380Y16724190D01*
X35866000Y16581333D01*
X35961238Y16486095D01*
X36056476Y16438476D01*
X36246952Y16390857D01*
X36389809Y16390857D01*
X36580285Y16438476D01*
X36675523Y16486095D01*
X36770761Y16581333D01*
X36818380Y16724190D01*
X36818380Y16962285D01*
X36818380Y15438476D02*
X36818380Y16009904D01*
X36818380Y15724190D02*
X35818380Y15724190D01*
X35961238Y15819428D01*
X36056476Y15914666D01*
X36104095Y16009904D01*
X35818380Y14819428D02*
X35818380Y14724190D01*
X35866000Y14628952D01*
X35913619Y14581333D01*
X36008857Y14533714D01*
X36199333Y14486095D01*
X36437428Y14486095D01*
X36627904Y14533714D01*
X36723142Y14581333D01*
X36770761Y14628952D01*
X36818380Y14724190D01*
X36818380Y14819428D01*
X36770761Y14914666D01*
X36723142Y14962285D01*
X36627904Y15009904D01*
X36437428Y15057523D01*
X36199333Y15057523D01*
X36008857Y15009904D01*
X35913619Y14962285D01*
X35866000Y14914666D01*
X35818380Y14819428D01*
G04 #@! TO.C,D9*
X-1431844Y34181566D02*
X-2431844Y34181566D01*
X-2431844Y33943471D01*
X-2384225Y33800613D01*
X-2288986Y33705375D01*
X-2193748Y33657756D01*
X-2003272Y33610137D01*
X-1860415Y33610137D01*
X-1669939Y33657756D01*
X-1574701Y33705375D01*
X-1479463Y33800613D01*
X-1431844Y33943471D01*
X-1431844Y34181566D01*
X-1431844Y33133947D02*
X-1431844Y32943471D01*
X-1479463Y32848232D01*
X-1527082Y32800613D01*
X-1669939Y32705375D01*
X-1860415Y32657756D01*
X-2241367Y32657756D01*
X-2336605Y32705375D01*
X-2384225Y32752994D01*
X-2431844Y32848232D01*
X-2431844Y33038709D01*
X-2384225Y33133947D01*
X-2336605Y33181566D01*
X-2241367Y33229185D01*
X-2003272Y33229185D01*
X-1908034Y33181566D01*
X-1860415Y33133947D01*
X-1812796Y33038709D01*
X-1812796Y32848232D01*
X-1860415Y32752994D01*
X-1908034Y32705375D01*
X-2003272Y32657756D01*
G04 #@! TO.C,D8*
X-1535619Y52046095D02*
X-2535619Y52046095D01*
X-2535619Y51808000D01*
X-2488000Y51665142D01*
X-2392761Y51569904D01*
X-2297523Y51522285D01*
X-2107047Y51474666D01*
X-1964190Y51474666D01*
X-1773714Y51522285D01*
X-1678476Y51569904D01*
X-1583238Y51665142D01*
X-1535619Y51808000D01*
X-1535619Y52046095D01*
X-2107047Y50903238D02*
X-2154666Y50998476D01*
X-2202285Y51046095D01*
X-2297523Y51093714D01*
X-2345142Y51093714D01*
X-2440380Y51046095D01*
X-2488000Y50998476D01*
X-2535619Y50903238D01*
X-2535619Y50712761D01*
X-2488000Y50617523D01*
X-2440380Y50569904D01*
X-2345142Y50522285D01*
X-2297523Y50522285D01*
X-2202285Y50569904D01*
X-2154666Y50617523D01*
X-2107047Y50712761D01*
X-2107047Y50903238D01*
X-2059428Y50998476D01*
X-2011809Y51046095D01*
X-1916571Y51093714D01*
X-1726095Y51093714D01*
X-1630857Y51046095D01*
X-1583238Y50998476D01*
X-1535619Y50903238D01*
X-1535619Y50712761D01*
X-1583238Y50617523D01*
X-1630857Y50569904D01*
X-1726095Y50522285D01*
X-1916571Y50522285D01*
X-2011809Y50569904D01*
X-2059428Y50617523D01*
X-2107047Y50712761D01*
G04 #@! TO.C,D7*
X-1535619Y70968095D02*
X-2535619Y70968095D01*
X-2535619Y70730000D01*
X-2488000Y70587142D01*
X-2392761Y70491904D01*
X-2297523Y70444285D01*
X-2107047Y70396666D01*
X-1964190Y70396666D01*
X-1773714Y70444285D01*
X-1678476Y70491904D01*
X-1583238Y70587142D01*
X-1535619Y70730000D01*
X-1535619Y70968095D01*
X-2535619Y70063333D02*
X-2535619Y69396666D01*
X-1535619Y69825238D01*
G04 #@! TO.C,D5*
X-16331619Y17628095D02*
X-17331619Y17628095D01*
X-17331619Y17390000D01*
X-17284000Y17247142D01*
X-17188761Y17151904D01*
X-17093523Y17104285D01*
X-16903047Y17056666D01*
X-16760190Y17056666D01*
X-16569714Y17104285D01*
X-16474476Y17151904D01*
X-16379238Y17247142D01*
X-16331619Y17390000D01*
X-16331619Y17628095D01*
X-17331619Y16151904D02*
X-17331619Y16628095D01*
X-16855428Y16675714D01*
X-16903047Y16628095D01*
X-16950666Y16532857D01*
X-16950666Y16294761D01*
X-16903047Y16199523D01*
X-16855428Y16151904D01*
X-16760190Y16104285D01*
X-16522095Y16104285D01*
X-16426857Y16151904D01*
X-16379238Y16199523D01*
X-16331619Y16294761D01*
X-16331619Y16532857D01*
X-16379238Y16628095D01*
X-16426857Y16675714D01*
G04 #@! TO.C,D4*
X-17791619Y13438095D02*
X-18791619Y13438095D01*
X-18791619Y13200000D01*
X-18744000Y13057142D01*
X-18648761Y12961904D01*
X-18553523Y12914285D01*
X-18363047Y12866666D01*
X-18220190Y12866666D01*
X-18029714Y12914285D01*
X-17934476Y12961904D01*
X-17839238Y13057142D01*
X-17791619Y13200000D01*
X-17791619Y13438095D01*
X-18458285Y12009523D02*
X-17791619Y12009523D01*
X-18839238Y12247619D02*
X-18124952Y12485714D01*
X-18124952Y11866666D01*
G04 #@! TO.C,D3*
X-16331619Y57252095D02*
X-17331619Y57252095D01*
X-17331619Y57014000D01*
X-17284000Y56871142D01*
X-17188761Y56775904D01*
X-17093523Y56728285D01*
X-16903047Y56680666D01*
X-16760190Y56680666D01*
X-16569714Y56728285D01*
X-16474476Y56775904D01*
X-16379238Y56871142D01*
X-16331619Y57014000D01*
X-16331619Y57252095D01*
X-17331619Y56347333D02*
X-17331619Y55728285D01*
X-16950666Y56061619D01*
X-16950666Y55918761D01*
X-16903047Y55823523D01*
X-16855428Y55775904D01*
X-16760190Y55728285D01*
X-16522095Y55728285D01*
X-16426857Y55775904D01*
X-16379238Y55823523D01*
X-16331619Y55918761D01*
X-16331619Y56204476D01*
X-16379238Y56299714D01*
X-16426857Y56347333D01*
G04 #@! TO.C,D2*
X-20331619Y52046095D02*
X-21331619Y52046095D01*
X-21331619Y51808000D01*
X-21284000Y51665142D01*
X-21188761Y51569904D01*
X-21093523Y51522285D01*
X-20903047Y51474666D01*
X-20760190Y51474666D01*
X-20569714Y51522285D01*
X-20474476Y51569904D01*
X-20379238Y51665142D01*
X-20331619Y51808000D01*
X-20331619Y52046095D01*
X-21236380Y51093714D02*
X-21284000Y51046095D01*
X-21331619Y50950857D01*
X-21331619Y50712761D01*
X-21284000Y50617523D01*
X-21236380Y50569904D01*
X-21141142Y50522285D01*
X-21045904Y50522285D01*
X-20903047Y50569904D01*
X-20331619Y51141333D01*
X-20331619Y50522285D01*
G04 #@! TO.C,D1*
X-20547619Y89338095D02*
X-21547619Y89338095D01*
X-21547619Y89100000D01*
X-21500000Y88957142D01*
X-21404761Y88861904D01*
X-21309523Y88814285D01*
X-21119047Y88766666D01*
X-20976190Y88766666D01*
X-20785714Y88814285D01*
X-20690476Y88861904D01*
X-20595238Y88957142D01*
X-20547619Y89100000D01*
X-20547619Y89338095D01*
X-20547619Y87814285D02*
X-20547619Y88385714D01*
X-20547619Y88100000D02*
X-21547619Y88100000D01*
X-21404761Y88195238D01*
X-21309523Y88290476D01*
X-21261904Y88385714D01*
G04 #@! TD*
M02*
